<svg xmlns="http://www.w3.org/2000/svg" width="420.634" height="678.227" viewBox="0 0 420.634 678.227">
  <g id="Group_5015" data-name="Group 5015" transform="translate(-391.562 -1315.16)">
    <g id="Group_4974" data-name="Group 4974" transform="translate(555.96 1462.408)">
      <path id="Path_11787" data-name="Path 11787" d="M528.108,1470.027c-3.505,9.879,27.269,22.561,61.834,22.561s68.009-13.68,62.506-22.6c-5.026-8.146-27.741-2.262-62.307-2.262S532.85,1456.663,528.108,1470.027Z" transform="translate(-526.82 -1462.408)" fill="#eaae97"/>
      <path id="Path_11788" data-name="Path 11788" d="M589.94,1493.606c29.764,0,58.476-10.078,63.315-18.75a5.091,5.091,0,0,0,.056-5.4c-3.63-5.888-14.4-5.18-32.231-4.008-8.992.591-19.183,1.261-30.942,1.261a240.153,240.153,0,0,1-32.652-2.681c-16.288-2.175-27.054-3.607-30.34,5.663a6.633,6.633,0,0,0,1.186,6.169C534.361,1484.393,559.63,1493.606,589.94,1493.606Zm47.924-26.922c7.152,0,11.9.888,13.715,3.837a3.087,3.087,0,0,1-.1,3.342c-4.477,8.02-32.924,17.706-61.536,17.706-28.723,0-54.183-8.733-59.943-16.889a4.636,4.636,0,0,1-.932-4.312c2.737-7.715,12.3-6.441,28.151-4.326a241.67,241.67,0,0,0,32.922,2.7c11.826,0,22.052-.672,31.076-1.265C627.666,1467.052,633.264,1466.684,637.864,1466.684Z" transform="translate(-526.818 -1462.408)" fill="#eaae97"/>
    </g>
    <path id="Path_11789" data-name="Path 11789" d="M556.13,1442.505c.308,25.251,8.673,43.976-37.767,65.827,27.642,38.03,54.867,52.082,54.867,52.082s58.241-26.217,78.253-43.563c-10.413-7.577-21.284-13.238-30.888-19.987-18.972-13.331-7.779-42.953-11.484-53.89Z" transform="translate(39.897)" fill="#f79678"/>
    <path id="Path_11790" data-name="Path 11790" d="M550.226,1356.288c22.486-31.446,75.547-23.5,81.723,24.748,6.126,47.862-17.037,85.55-30.491,89.235-12.192,3.34-24.233,4.813-34.42-2.079C540.27,1450.084,529.937,1384.658,550.226,1356.288Z" transform="translate(37.412)" fill="#f79678"/>
    <path id="Path_11791" data-name="Path 11791" d="M618.224,1324.23c35.7,28.451,24.815,46.93,15.618,91.456,3.725-24.118-24.478-62.687-19.777-52.882,14.87,31.017-6.836,1.94-38.494,15.143-2.229.93-4,.519-12.914-2.068-9.192-2.668-20.168,33.543-20.168,33.543-9.427-15.726-10.548-42.651-10.548-42.651,2.924-52.758,68.448-61.638,72.931-42.069C607.635,1324.589,614.057,1320.909,618.224,1324.23Z" transform="translate(35.072)" fill="#682c19"/>
    <g id="Group_4987" data-name="Group 4987" transform="translate(572.033 1320.104)">
      <g id="Group_4975" data-name="Group 4975" transform="translate(57.627 5.35)">
        <path id="Path_11792" data-name="Path 11792" d="M578.737,1325.455a1.112,1.112,0,0,0-1.055,1.167,27.712,27.712,0,0,1-8.3,20.543,1.112,1.112,0,0,0,0,1.573C572.98,1352.323,584.435,1325.22,578.737,1325.455Z" transform="translate(-569.06 -1325.453)" fill="#552015"/>
      </g>
      <g id="Group_4976" data-name="Group 4976" transform="translate(73.848 11.14)">
        <path id="Path_11793" data-name="Path 11793" d="M563.349,1360.115c2.719-.423-1.966-19.276-17.337-28.691a1.112,1.112,0,0,0-1.162,1.9,37.425,37.425,0,0,1,17.229,25.865A1.114,1.114,0,0,0,563.349,1360.115Z" transform="translate(-544.31 -1331.244)" fill="#552015"/>
      </g>
      <g id="Group_4977" data-name="Group 4977" transform="translate(70.25 26.74)">
        <path id="Path_11794" data-name="Path 11794" d="M567.114,1358.463c-1-.579-4.385-4.766-2.86-10.212a1.113,1.113,0,0,0-2.143-.6c-1.8,6.434,2,11.648,3.89,12.739A1.113,1.113,0,0,0,567.114,1358.463Z" transform="translate(-561.639 -1346.843)" fill="#552015"/>
      </g>
      <g id="Group_4978" data-name="Group 4978" transform="translate(95.503 50.47)">
        <path id="Path_11795" data-name="Path 11795" d="M539.133,1384.77c3.186-13.19,4.113-13.71,2.541-14.145-1.764-.481-1.969,2.308-4.7,13.622A1.113,1.113,0,0,0,539.133,1384.77Z" transform="translate(-536.933 -1370.574)" fill="#552015"/>
      </g>
      <g id="Group_4979" data-name="Group 4979" transform="translate(31.122)">
        <path id="Path_11796" data-name="Path 11796" d="M578.325,1328.866c6-5.883,19.28-9.109,26.771-4.294a1.111,1.111,0,0,0,1.537-.334c2.241-3.488-18.109-8.488-29.866,3.039A1.113,1.113,0,0,0,578.325,1328.866Z" transform="translate(-576.418 -1320.104)" fill="#552015"/>
      </g>
      <g id="Group_4980" data-name="Group 4980" transform="translate(26.184 19.929)">
        <path id="Path_11797" data-name="Path 11797" d="M586.482,1347.441c7.556-7.88,18.256-5.408,23.6-1.825a1.117,1.117,0,0,0,1.544-.3c1.678-2.508-15.809-10.827-26.754.591A1.112,1.112,0,0,0,586.482,1347.441Z" transform="translate(-584.551 -1340.033)" fill="#552015"/>
      </g>
      <g id="Group_4981" data-name="Group 4981" transform="translate(44.562 10.16)">
        <path id="Path_11798" data-name="Path 11798" d="M587.854,1330.824c-9.366-2.446-8.6,3.991-6.152,2.5,2.379-1.462,8.1-.525,9.712,2.37C592.81,1338.188,596.4,1333.055,587.854,1330.824Z" transform="translate(-580.105 -1330.263)" fill="#552015"/>
      </g>
      <g id="Group_4982" data-name="Group 4982" transform="translate(36.035 38.48)">
        <path id="Path_11799" data-name="Path 11799" d="M596.05,1374.256c-1.522-4.935.929-11.273,5.244-13.563a1.112,1.112,0,0,0-1.043-1.965c-5.271,2.8-8.169,10.208-6.328,16.183A1.113,1.113,0,0,0,596.05,1374.256Z" transform="translate(-593.368 -1358.584)" fill="#552015"/>
      </g>
      <g id="Group_4983" data-name="Group 4983" transform="translate(57.627 37.59)">
        <path id="Path_11800" data-name="Path 11800" d="M580.3,1372.238c0-7.73-12.133-17.546-12.951-13.671a1.112,1.112,0,0,0,.858,1.318c3.661.774,9.868,7.921,9.868,12.353A1.113,1.113,0,0,0,580.3,1372.238Z" transform="translate(-567.324 -1357.693)" fill="#552015"/>
      </g>
      <g id="Group_4984" data-name="Group 4984" transform="translate(16.807 33.258)">
        <path id="Path_11801" data-name="Path 11801" d="M620.878,1372.589c-3.267-4.332-5.884-9.479-2.924-17.74a1.113,1.113,0,0,0-2.095-.751c-3.324,9.28-.226,15.232,3.243,19.831A1.112,1.112,0,0,0,620.878,1372.589Z" transform="translate(-614.438 -1353.362)" fill="#552015"/>
      </g>
      <g id="Group_4985" data-name="Group 4985" transform="translate(0.482 50.786)">
        <path id="Path_11802" data-name="Path 11802" d="M636.525,1385.009c2.229-.837.08-.557-2.987-13.272a1.112,1.112,0,0,0-2.162.522C631.865,1374.287,634.573,1385.745,636.525,1385.009Z" transform="translate(-631.339 -1370.89)" fill="#552015"/>
      </g>
      <g id="Group_4986" data-name="Group 4986" transform="translate(0 14.972)">
        <path id="Path_11803" data-name="Path 11803" d="M623.879,1357.1c1.133-6.894,6.585-16.376,13.418-19.675a1.113,1.113,0,0,0,.518-1.486c-2.887-6-20.557,21.2-15.214,22.079A1.112,1.112,0,0,0,623.879,1357.1Z" transform="translate(-621.601 -1335.076)" fill="#552015"/>
      </g>
    </g>
    <g id="Group_4992" data-name="Group 4992" transform="translate(568.129 1401.907)">
      <g id="Group_4988" data-name="Group 4988" transform="translate(96.9 0.263)">
        <path id="Path_11804" data-name="Path 11804" d="M540.268,1402.426c-9.142-2.688-9.719,16.457-9.742,25.959C530.48,1447.119,554.668,1406.659,540.268,1402.426Z" transform="translate(-530.526 -1402.17)" fill="#f79678"/>
      </g>
      <g id="Group_4989" data-name="Group 4989" transform="translate(100.867 9.393)">
        <path id="Path_11805" data-name="Path 11805" d="M540.263,1411.786a.688.688,0,0,0-1.315.4c1.611,5.265.01,8.351-2.153,9.541a.685.685,0,0,0-.271.933C537.738,1424.876,542.567,1419.315,540.263,1411.786Z" transform="translate(-536.438 -1411.3)" fill="#e86248"/>
      </g>
      <g id="Group_4990" data-name="Group 4990">
        <path id="Path_11806" data-name="Path 11806" d="M632,1402.163c9.143-2.688,9.719,16.457,9.743,25.96C641.789,1446.856,617.6,1406.4,632,1402.163Z" transform="translate(-627.425 -1401.907)" fill="#f79678"/>
      </g>
      <g id="Group_4991" data-name="Group 4991" transform="translate(5.913 9.131)">
        <path id="Path_11807" data-name="Path 11807" d="M632.007,1411.524a.688.688,0,0,1,1.315.4c-1.611,5.265-.011,8.351,2.152,9.54a.688.688,0,0,1,.272.934C634.531,1424.614,629.7,1419.052,632.007,1411.524Z" transform="translate(-631.392 -1411.038)" fill="#e86248"/>
      </g>
    </g>
    <g id="Group_4993" data-name="Group 4993" transform="translate(597.719 1399.128)">
      <path id="Path_11808" data-name="Path 11808" d="M566.435,1410.515c2.995,0,5.338-11.387-1.927-11.387C560.632,1399.128,561.536,1410.515,566.435,1410.515Z" transform="translate(-519.063 -1399.128)" fill="#2b1e1a"/>
      <path id="Path_11809" data-name="Path 11809" d="M608.013,1410.969c-2.995,0-5.338-11.388,1.927-11.388C613.817,1399.581,612.913,1410.969,608.013,1410.969Z" transform="translate(-605.128 -1399.128)" fill="#2b1e1a"/>
    </g>
    <g id="Group_4994" data-name="Group 4994" transform="translate(597.411 1461.84)">
      <path id="Path_11810" data-name="Path 11810" d="M612.184,1462.87a.859.859,0,0,0-1.2.155c-7.859,10.189-35.584,13.648-48.891-.9a.858.858,0,0,0-1.266,1.158C580.472,1484.757,617.115,1466.671,612.184,1462.87Z" transform="translate(-560.587 -1461.84)" fill="#e86248"/>
    </g>
    <g id="Group_4996" data-name="Group 4996" transform="translate(587.96 1386.496)">
      <path id="Path_11811" data-name="Path 11811" d="M551.31,1387.653c9.835-3.917,29.137,4.194,23.638,6.275-1.8.68-7.518-1.6-9.6-1.833-4.186-.456-11.84,1.36-14.456-.91A2.227,2.227,0,0,1,551.31,1387.653Z" transform="translate(-504.102 -1386.496)" fill="#682c19"/>
      <path id="Path_11812" data-name="Path 11812" d="M621.357,1390.89c-2.536,2.361-10.248.815-14.416,1.418-2.077.3-7.713,2.785-9.533,2.168-5.569-1.886,13.472-10.769,23.4-7.1A2.161,2.161,0,0,1,621.357,1390.89Z" transform="translate(-596.407 -1386.496)" fill="#682c19"/>
      <g id="Group_4995" data-name="Group 4995" transform="translate(30.489 15.114)">
        <path id="Path_11813" data-name="Path 11813" d="M591.5,1429.059c.3-1.264-1.845-1.381-3.191-1.681-4.945-1.1-5.164,1.319-2.868-19.426.448-4.051,1.132-6.226-.313-6.339-1.365-.085-1,1.522-1.511,6.137-2.494,22.535-2.545,19.766,6.777,21.988A.919.919,0,0,0,591.5,1429.059Z" transform="translate(-582.196 -1401.61)" fill="#e86248"/>
      </g>
      <path id="Path_11814" data-name="Path 11814" d="M601.624,1446.7c1.392-2.069-2.7-1.552-26.94-4.074C568.464,1441.98,589.971,1464.029,601.624,1446.7Z" transform="translate(-553.42 -1386.496)" fill="#fff3e9"/>
    </g>
    <g id="Group_4997" data-name="Group 4997" transform="translate(504.831 1739.069)">
      <path id="Path_11815" data-name="Path 11815" d="M485.02,1754.275l-.462-.031C484.69,1751.622,484.843,1751.5,485.02,1754.275Z" transform="translate(-264.518 -1739.069)" fill="#5f7788"/>
      <path id="Path_11816" data-name="Path 11816" d="M485.02,1992.167c2.5-129.56,5.4-247.431,5.507-251.911,0,0,182.241,11.87,213.416,13.988-.793,15.715-.832,121.756-.612,238.784-32.582.7-65.693.326-98.532-.743-1.923-20.064-4.683-42.837-9.034-70.453,0,0-2.763,26.371-8.432,69.819q-7.7-.3-15.37-.651C543.309,1989.151,513.8,1989.019,485.02,1992.167Z" transform="translate(-483.903 -1739.069)" fill="#5f7788"/>
      <path id="Path_11817" data-name="Path 11817" d="M701.6,1835.982c.048-26.465.144-46.929.283-60.826.107-10.656.166-16.578.327-19.876-32.411-2.19-195.706-12.83-211.138-13.836l-.027,1.107c-1.99,82.061-3.91,168.653-5.468,249.5-.738.078-1.478.149-2.216.232,2.157-111.674,4.647-216.394,5.456-249.786l.082-3.429,1.158.076c1.811.118,178.51,11.627,212.316,13.912.222-1.909.579-1.922,1.2-1.942,1.253-.084,1.26.941,1.4,3.09l.081,1.269-.608-.042c-.734,18.632-.761,122.709-.543,237.577-.741.016-1.487.022-2.229.038C701.558,1927.806,701.532,1875.062,701.6,1835.982Z" transform="translate(-483.366 -1739.069)" fill="#2d3a4f"/>
      <path id="Path_11818" data-name="Path 11818" d="M591.51,1921.717l.886-8.456,1.323,8.4c4.373,27.76,7.135,50.555,9.058,70.662q-1.125-.036-2.247-.075c-1.722-17.951-4.114-38.05-7.727-61.917-1.243,11.012-3.744,32.412-7.529,61.37-.747-.03-1.489-.065-2.235-.095C588.642,1948.75,591.433,1922.44,591.51,1921.717Z" transform="translate(-480.756 -1739.069)" fill="#2d3a4f"/>
    </g>
    <g id="Group_5003" data-name="Group 5003" transform="translate(510.863 1775.072)">
      <g id="Group_4998" data-name="Group 4998" transform="translate(104.284)">
        <path id="Path_11819" data-name="Path 11819" d="M588.568,1900.9a1.161,1.161,0,0,0,1.151-1.026c4.959-41.928,3.248-68.551,2-87.99-1.073-16.7-1.722-26.788,2.875-35.09a1.162,1.162,0,1,0-2.033-1.125c-4.928,8.9-4.264,19.235-3.163,36.364,1.243,19.35,2.943,45.849-1.987,87.567a1.16,1.16,0,0,0,1.017,1.291A.933.933,0,0,0,588.568,1900.9Z" transform="translate(-587.404 -1775.072)" fill="#2d3a4f"/>
      </g>
      <g id="Group_4999" data-name="Group 4999" transform="translate(115.596 156.482)">
        <path id="Path_11820" data-name="Path 11820" d="M571.473,1931.623a1.157,1.157,0,0,1,1.485.7c4.9,13.811,7.833,34.012,10.472,60.346-.781-.02-1.561-.045-2.342-.067-2.614-26.015-5.514-45.953-10.32-59.5A1.16,1.16,0,0,1,571.473,1931.623Z" transform="translate(-570.7 -1931.554)" fill="#2d3a4f"/>
      </g>
      <g id="Group_5000" data-name="Group 5000" transform="translate(181.622 37.629)">
        <path id="Path_11821" data-name="Path 11821" d="M516.241,1890.6a1.163,1.163,0,0,0,.688-2.1c-26.161-19.224-26.224-25.608-26.575-61.032-.041-4.133-.085-8.654-.176-13.628a1.163,1.163,0,1,0-2.325.043c.092,4.966.135,9.481.177,13.608.35,35.569.424,42.969,27.523,62.882A1.161,1.161,0,0,0,516.241,1890.6Z" transform="translate(-487.853 -1812.701)" fill="#2d3a4f"/>
      </g>
      <g id="Group_5001" data-name="Group 5001" transform="translate(0 52.515)">
        <path id="Path_11822" data-name="Path 11822" d="M663.839,1890.16c.041,0,4.384-.15,4.384-.15,29.9-1,29.907-1.781,30.48-42.859.074-5.38.158-11.474.322-18.374a1.163,1.163,0,1,0-2.325-.054c-.163,6.908-.248,13.008-.322,18.4-.281,20.111-.42,30.206-3.883,35.126-3.337,4.74-10.359,4.975-24.351,5.441l-4.346.148a1.163,1.163,0,0,0,.041,2.325Z" transform="translate(-662.677 -1827.587)" fill="#2d3a4f"/>
      </g>
      <g id="Group_5002" data-name="Group 5002" transform="translate(83.196 127.294)">
        <path id="Path_11823" data-name="Path 11823" d="M600.859,1918.015a1.474,1.474,0,0,0,.148-.007,1.615,1.615,0,0,0,1.423-1.214,15.164,15.164,0,0,1,12.375-10.869,1.161,1.161,0,0,0,1.016-1.29,1.148,1.148,0,0,0-1.29-1.017,17.351,17.351,0,0,0-13.8,10.9c-5.92-11.151-14.727-13.308-20.665-11.667a1.163,1.163,0,1,0,.618,2.242c5.344-1.489,13.448.775,18.731,11.989A1.593,1.593,0,0,0,600.859,1918.015Z" transform="translate(-579.21 -1902.366)" fill="#2d3a4f"/>
      </g>
    </g>
    <g id="Group_5004" data-name="Group 5004" transform="translate(678.934 1518.973)">
      <path id="Path_11824" data-name="Path 11824" d="M393.3,1554.033c-3.25,67.454,5.2,273.539,73.969,295.3,100.249,20.394,35.319-71.15,40.45-117.845,4.122-37.5-20.181-70.1-18.1-93.436,4.551-51.005-11.237-74.958-28.753-94.819-9.8-11.114-16.467-21.581-32.74-23.092C413.767,1518.812,393.959,1540.321,393.3,1554.033Z" transform="translate(-391.59 -1518.973)" fill="#fedfcf"/>
      <path id="Path_11825" data-name="Path 11825" d="M492.117,1853.357c12.065,0,20.622-2.807,25.937-8.44,12.135-12.857,5.6-37.577-1.323-63.747-4.648-17.57-9.454-35.737-7.934-49.556,2.355-21.428-4.419-41.147-10.4-58.545-4.608-13.411-8.587-24.994-7.7-34.914,4.691-52.573-12.524-76.941-29.028-95.655-1.275-1.446-2.5-2.88-3.694-4.285-8.143-9.564-15.178-17.824-29.779-19.18-5.988-.548-13.225,2.535-20.336,8.708-9.016,7.829-15.328,18.373-15.705,26.236-1.872,38.828.457,107.03,9.989,165.021,8.774,53.371,27.13,119.491,64.758,131.4A128.72,128.72,0,0,0,492.117,1853.357ZM426.828,1521.2c.4,0,.784.018,1.167.053,13.7,1.272,20.458,9.211,28.288,18.4,1.2,1.415,2.433,2.859,3.717,4.314,16.2,18.367,33.092,42.29,28.48,93.984-.927,10.394,3.123,22.183,7.812,35.835,5.9,17.178,12.59,36.647,10.289,57.579-1.563,14.23,3.3,32.6,7.995,50.37,6.46,24.429,13.14,49.69,1.859,61.646-7.9,8.367-23.922,9.957-48.973,4.858-64.27-20.347-77.108-210.53-73.079-294.159.346-7.18,6.491-17.321,14.943-24.661C415.4,1524.147,421.7,1521.2,426.828,1521.2Z" transform="translate(-391.562 -1518.973)" fill="#fcbda3"/>
    </g>
    <g id="Group_5005" data-name="Group 5005" transform="translate(489.31 1495.718)">
      <path id="Path_11826" data-name="Path 11826" d="M632.177,1496.864c-13.734,33.866-68.193,34.016-82.236,0-15.509.662-51.267,11.17-60.8,17.833-21.943,15.337-41.82,316.79-10.337,339.546,76.664,5.8,140.741,1.383,218.065-7.568,47.517-12.969,3.726-323,3.13-325.229C681.5,1511.744,629.946,1496.134,632.177,1496.864Z" transform="translate(-461.34 -1495.718)" fill="#fedfcf"/>
      <path id="Path_11827" data-name="Path 11827" d="M547.528,1857.991c49.1,0,95.908-4.016,149.4-10.208,49.167-13.407,4.889-323.589,4.082-326.623l-.127-.474-.433-.227c-12.416-6.511-56.421-21.9-66.865-24.273.005-.009-1.131-.38-1.131-.38l-.046.145c-.028-.005.015-.155.015-.155l-.052.149a1.872,1.872,0,0,0-.982-.012l-.557.4.078.513c-7.474,17.884-25.371,24.316-39.7,24.361h-.152c-14.5,0-32.613-6.5-40.155-24.766l-.3-.721-.779.033c-15.583.664-51.728,11.281-61.388,18.033-14.144,9.885-26.407,127.956-27.13,219.121-.324,40.89,1.426,111.145,16.778,122.241l.254.185.314.024C502.628,1857.168,525.315,1857.991,547.528,1857.991Zm151.4-335.811c2.078,13.47,42.989,311.027-2.423,323.421-77.285,8.934-140.715,13.335-217.361,7.555-10.466-8.169-16.153-51.913-15.611-120.233.786-99.128,14-208.8,26.176-217.313,9.288-6.489,43.738-16.64,59.44-17.592,6.863,15.759,22.9,25.422,42.064,25.416,18.968-.06,34.784-9.694,41.533-25.217C639.707,1500.34,681.976,1513.463,698.93,1522.18Z" transform="translate(-461.272 -1495.718)" fill="#fcbda3"/>
    </g>
    <g id="Group_5006" data-name="Group 5006" transform="translate(391.562 1514.089)">
      <path id="Path_11828" data-name="Path 11828" d="M696.6,1672.581c-3.833,8.388-10.505,30.9-8.22,39.835,1.721,6.729,14.9,47.062,44.33,59.869,30.921,13.454,40.784,52.65,66.247,32.82,13.707-17.347,22.47-54.523,22.47-54.523,15.243-34.688-17.369-16.054-41.828-50.055-4.482-6.232-4.1-9.2,2.366-14.543,60.006-49.617,39.671-170.636,39.671-170.636-35.206-3.741-78.162,67.695-86.546,102.059C729.219,1641.454,706.143,1651.691,696.6,1672.581Z" transform="translate(-686.802 -1514.089)" fill="#fedfcf"/>
      <path id="Path_11829" data-name="Path 11829" d="M785.566,1811.7c4.262,0,8.87-1.674,14.066-5.72l.189-.188c13.7-17.343,22.32-53.432,22.679-54.96,3.861-8.74,4.843-14.586,3.121-18.767-1.952-4.742-7.1-6.769-13.613-9.336-8.878-3.5-21.039-8.293-31.516-22.858-4.168-5.795-3.783-8.11,2.171-13.033,59.81-49.455,40.266-170.463,40.061-171.68l-.139-.834-.843-.089c-37.393-3.938-79.824,70.431-87.745,102.9-3.228,13.222-11.989,22.406-20.461,31.288-6.734,7.061-13.7,14.364-17.962,23.687-3.578,7.832-10.715,31.082-8.286,40.575.117.461,12.722,46.585,44.965,60.614,11.765,5.12,20.5,14.1,28.21,22.029C768.81,1803.921,776.381,1811.7,785.566,1811.7Zm12.59-7.4c-14.76,11.414-23.712,2.2-36.1-10.526-7.851-8.074-16.749-17.225-28.919-22.52-31.27-13.606-43.579-58.672-43.694-59.123-2.129-8.318,4.157-30.349,8.156-39.095,4.105-8.983,10.938-16.148,17.546-23.076,8.674-9.094,17.644-18.5,21.011-32.3,8.674-35.551,51.015-103.642,84.5-101.29,1.635,10.871,16.787,122.273-39.415,168.743-6.861,5.674-7.435,9.275-2.562,16.053,10.862,15.1,23.373,20.029,32.511,23.629,6.256,2.466,10.777,4.248,12.37,8.112,1.452,3.525.444,8.995-3.167,17.214C820.245,1750.694,811.5,1787.309,798.156,1804.309Z" transform="translate(-686.794 -1514.089)" fill="#fcbda3"/>
    </g>
    <g id="Group_5007" data-name="Group 5007" transform="translate(535.969 1462.569)">
      <path id="Path_11830" data-name="Path 11830" d="M668.332,1511.058c9.653-10.364,4.537-23.372-17.214-19.131a2.417,2.417,0,0,1-2.916-2.294c-.052-4.846,16.127-18.851,8.424-20.064-18.589-2.927-50.338,52.74-60.65,52.74-12.724,0-19.1-27.507-26.673-36.812-2.777-3.415-26.1-30.359-34.116-19.067-4.357,6.137.076,11.756-2.116,18.974-2.123,6.993-7.664-6.888-13.767-1.223-8.022,7.446-6.86,21.3-.006,29.83C541.914,1542.168,642.441,1538.855,668.332,1511.058Z" transform="translate(-512.621 -1462.569)" fill="#fedfcf"/>
      <path id="Path_11831" data-name="Path 11831" d="M587.06,1534.691c30.5,0,67.152-6.862,82.067-22.874,4.81-5.164,6.256-11.154,3.77-15.632-3.069-5.53-11.092-7.484-22.015-5.352a1.366,1.366,0,0,1-1.132-.279,1.2,1.2,0,0,1-.454-.932c-.018-1.541,2.57-4.982,4.856-8.018,3.48-4.629,6.488-8.628,5.43-11.242a3.3,3.3,0,0,0-2.8-1.9c-11.606-1.816-26.906,16.567-40.447,32.784-8.186,9.805-16.652,19.944-20.376,19.944-7.747,0-13.282-11.9-18.166-22.391-2.579-5.545-5.017-10.782-7.642-14.01-.185-.226-18.606-22.6-29.984-22.22a7.222,7.222,0,0,0-5.9,3.211c-2.71,3.814-2.323,7.5-1.946,11.061a19.937,19.937,0,0,1-.329,8.235c-.337,1.111-.646,1.221-.65,1.222-.436.107-1.814-.968-2.645-1.622-2.495-1.963-6.262-4.941-10.163-1.316-8.667,8.044-7.059,22.7-.118,31.344,9.258,11.524,31.682,18.762,61.526,19.853C582.259,1534.648,584.64,1534.691,587.06,1534.691Zm71.789-42.459c5.94,0,10.271,1.742,12.1,5.034,2,3.6.679,8.6-3.452,13.032-13.385,14.369-49.33,23.43-87.483,22.038-28.766-1.054-51.147-8.165-59.869-19.022-6.312-7.861-7.859-21.115-.1-28.315,2.327-2.16,4.388-.833,7.27,1.433,1.691,1.331,3.171,2.478,4.691,2,.964-.3,1.656-1.186,2.115-2.7a22.032,22.032,0,0,0,.412-9.116c-.362-3.439-.675-6.409,1.545-9.536a5.034,5.034,0,0,1,4.162-2.274c.074,0,.148-.005.224-.005,8.607,0,23.41,15.812,27.959,21.4,2.451,3.013,4.83,8.129,7.351,13.545,5.165,11.1,11.018,23.678,20.186,23.678,4.538,0,11.349-7.882,22.087-20.743,12.511-14.983,28.083-33.645,38.387-32.01.427.066.96.212,1.089.529.583,1.445-2.865,6.03-5.148,9.065-2.858,3.8-5.329,7.083-5.3,9.381a3.437,3.437,0,0,0,1.275,2.637,3.614,3.614,0,0,0,2.967.739A39.7,39.7,0,0,1,658.849,1492.232Z" transform="translate(-512.599 -1462.569)" fill="#fcbda3"/>
    </g>
    <path id="Path_11832" data-name="Path 11832" d="M454.892,1855.477c-11.241,1.123-25.21-.233-30.853-3.638.927,39.877,1.424,18.862-2.221,33.116-2.066,8.078-15.048,36.564-9.54,42.46,4.167,4.46,9.168-8.723,12.877-16.491,5.142-10.77,19.809,10.168,2.71,33.738-1.689,2.328-10.974,13.143-3.761,19.236a75.875,75.875,0,0,0,19.1-24.044c-5.082,15.687-2.916,26.511.73,25.712,6.484-1.422,14.76-57.051,5.161-83.788C447.955,1878.614,448.461,1878.56,454.892,1855.477Z" transform="translate(337.94)" fill="#f79575"/>
    <path id="Path_11833" data-name="Path 11833" d="M660.2,1788l26.753,9.565,11.987-28.7-28.067-12.539Z" transform="translate(-145.721)" fill="#f79575"/>
    <path id="Path_11834" data-name="Path 11834" d="M449.287,1849.337c-13.5,4.528-31.545,3.9-41.848,0-1.716,10.539-.519,15.786,6.293,22.159C416.978,1874.533,454.875,1884.775,449.287,1849.337Z" transform="translate(347.172)" fill="#fcbda3"/>
    <path id="Path_11835" data-name="Path 11835" d="M696.2,1796.572c-2.2,2.23-15.025,1.341-26.551-3.444,5.018-7.084,11.546-29.6,15.8-45.95,2.656,1.145,17.092,12.7,20.859,15.733C708.676,1764.813,703.162,1789.529,696.2,1796.572Z" transform="translate(-162.801)" fill="#fcbda3"/>
    <g id="Group_5008" data-name="Group 5008" transform="translate(522.066 1732.239)">
      <path id="Path_11836" data-name="Path 11836" d="M521.978,1847.842c12.535,0,21.658-2.185,33.812-5.1,4.51-1.081,9.625-2.3,15.424-3.524,34.859-7.321,70.983-5.509,98.559-3.114,5.093.443,6.711-2.306,10.295-8.318,1.457-2.44,3.268-5.478,5.817-9.227a8.01,8.01,0,0,0-.91-10.116c-18.892-19.146-29.494-59.34-32.293-71.2a6.475,6.475,0,0,0-7.19-4.944c-44.5,5.9-84.513,10.078-123.612,1.463a6.527,6.527,0,0,0-5.055.98,6.4,6.4,0,0,0-2.742,4.326c-4.636,29.551-15.2,55.864-31.4,78.21-3.346,4.62-.655,9.724,2.462,15.635a79.147,79.147,0,0,1,3.613,7.489,8.066,8.066,0,0,0,6.19,4.867A166.922,166.922,0,0,0,521.978,1847.842ZM626.7,1831.774c-17.988,0-37.134,1.316-55.944,5.267-5.832,1.224-10.962,2.453-15.487,3.538-19.042,4.559-30.532,7.317-59.956,2.491a5.827,5.827,0,0,1-4.484-3.5,82.125,82.125,0,0,0-3.709-7.7c-2.884-5.47-5.163-9.79-2.627-13.288,16.4-22.634,27.1-49.271,31.792-79.172a4.192,4.192,0,0,1,1.8-2.831,4.244,4.244,0,0,1,3.32-.645c39.447,8.7,79.666,4.5,124.383-1.43a4.266,4.266,0,0,1,4.73,3.248c3.63,15.387,14.1,53.23,32.876,72.255a5.782,5.782,0,0,1,.653,7.3c-2.588,3.805-4.419,6.874-5.89,9.339-3.646,6.115-4.63,7.54-8.189,7.24C657.076,1832.768,642.325,1831.774,626.7,1831.774Z" transform="translate(-481.145 -1732.239)" fill="#fcbda3"/>
    </g>
    <g id="Group_5009" data-name="Group 5009" transform="translate(557.033 1488.348)">
      <path id="Path_11837" data-name="Path 11837" d="M600.337,1527.949c17.345,0,29.556-12.054,40.361-22.718a111.821,111.821,0,0,1,12.151-10.945,1.115,1.115,0,0,0-1.306-1.807,113.553,113.553,0,0,0-12.412,11.166c-10.5,10.361-22.365,22.075-38.814,22.075q-.552,0-1.112-.018c-16.5-.526-35.081-12.622-56.8-36.981a1.114,1.114,0,0,0-1.663,1.484c22.147,24.838,41.248,37.179,58.4,37.725C599.538,1527.943,599.941,1527.949,600.337,1527.949Z" transform="translate(-540.458 -1488.348)" fill="#fcbda3"/>
    </g>
    <g id="Group_5010" data-name="Group 5010" transform="translate(454.726 1665.888)">
      <path id="Path_11838" data-name="Path 11838" d="M739.083,1704.865a1.113,1.113,0,0,0,.92-.487c7.462-10.972,14.079-14.8,20.8-12.048a1.677,1.677,0,0,0,2.214-.493c1.924-2.846-7.3-17.923-14.764-25.611a1.114,1.114,0,1,0-1.6,1.552c7.568,7.8,13.7,18.984,14.4,22.259-10.109-3.579-17.875,5.71-22.89,13.087a1.113,1.113,0,0,0,.921,1.741Z" transform="translate(-737.969 -1665.888)" fill="#fcbda3"/>
    </g>
    <g id="Group_5011" data-name="Group 5011" transform="translate(535.552 1590.615)">
      <path id="Path_11839" data-name="Path 11839" d="M502.86,1637.09c39.665,118.684,161.552,33.85,169.547,0,5.737-24.289-22.436-45.457-69.255-45.457S495.086,1613.828,502.86,1637.09Z" transform="translate(-501.164 -1590.615)" fill="#eaae97"/>
      <path id="Path_11840" data-name="Path 11840" d="M573.779,1699.212q1.823,0,3.589-.081c43.845-1.989,90.867-39.929,96.035-61.807,2.013-8.514.034-16.858-5.716-24.127-11.19-14.14-35.312-22.582-64.53-22.582-39.937,0-85.941,15.236-98.452,32.606-3.42,4.751-4.364,9.525-2.806,14.192C518.777,1687.912,549.594,1699.212,573.779,1699.212Zm29.378-106.56c28.6,0,52.125,8.153,62.932,21.81,5.35,6.763,7.2,14.507,5.333,22.394-4.517,19.118-49.937,58.235-94.147,60.24-23.948,1.073-56.123-8.5-73.443-60.33-1.341-4.009-.49-8.165,2.527-12.354C518.331,1607.79,564.467,1592.652,603.156,1592.652Z" transform="translate(-501.17 -1590.615)" fill="#eaae97"/>
    </g>
    <g id="Group_5014" data-name="Group 5014" transform="translate(592.979 1518.368)">
      <g id="Group_5012" data-name="Group 5012" transform="translate(30.916 1.902)">
        <path id="Path_11841" data-name="Path 11841" d="M579.618,1533.21c9.46,0,5.473-11.92,1.132-11.92C571.74,1521.29,573.608,1533.21,579.618,1533.21Z" transform="translate(-573.53 -1520.27)" fill="#eaae97"/>
        <path id="Path_11842" data-name="Path 11842" d="M579.618,1534.228a7.007,7.007,0,0,0,5.224-1.849,5.921,5.921,0,0,0,1.589-4.249c0-3.56-2.534-7.86-5.681-7.86a7.278,7.278,0,0,0-5.494,2.1,6.771,6.771,0,0,0-1.726,4.656C573.53,1530.493,575.857,1534.228,579.618,1534.228Zm1.132-11.92c1.7,0,3.644,3.1,3.644,5.822a4.009,4.009,0,0,1-1.008,2.826,5.1,5.1,0,0,1-3.768,1.235c-2.5,0-4.051-2.678-4.051-5.16a4.737,4.737,0,0,1,1.178-3.265A5.239,5.239,0,0,1,580.75,1522.308Z" transform="translate(-573.53 -1520.27)" fill="#eaae97"/>
      </g>
      <g id="Group_5013" data-name="Group 5013" transform="translate(3.024)">
        <path id="Path_11843" data-name="Path 11843" d="M608.235,1531.307c-9.461,0-5.473-11.921-1.133-11.921C616.113,1519.386,614.244,1531.307,608.235,1531.307Z" transform="translate(-601.421 -1518.368)" fill="#eaae97"/>
        <path id="Path_11844" data-name="Path 11844" d="M608.235,1532.326c3.761,0,6.088-3.736,6.088-7.2a6.759,6.759,0,0,0-1.726-4.656,7.271,7.271,0,0,0-5.494-2.1c-3.147,0-5.681,4.3-5.681,7.86a5.923,5.923,0,0,0,1.589,4.249A7.011,7.011,0,0,0,608.235,1532.326Zm-1.132-11.92a5.235,5.235,0,0,1,4.005,1.458,4.736,4.736,0,0,1,1.178,3.265c0,2.481-1.548,5.159-4.051,5.159a5.091,5.091,0,0,1-3.768-1.235,4.006,4.006,0,0,1-1.008-2.825C603.459,1523.507,605.4,1520.406,607.1,1520.406Z" transform="translate(-601.422 -1518.368)" fill="#eaae97"/>
      </g>
      <path id="Path_11845" data-name="Path 11845" d="M573.6,1540.59c6.071,13.155,4.614,92.676,9.358,51.043,2.684-23.55,1.537-28.848.737-32.789-7.249-35.714-1.117-38.5-11.536-33.3C569.544,1526.848,570.022,1532.846,573.6,1540.59Z" transform="translate(-537.788 -1518.368)" fill="#fffffb"/>
      <path id="Path_11846" data-name="Path 11846" d="M614.251,1539.043c-6.072,13.154-4.614,92.675-9.359,51.043-2.683-23.55-1.537-28.849-.737-32.789,7.249-35.714,1.117-38.5,11.536-33.3C618.3,1525.3,617.825,1531.3,614.251,1539.043Z" transform="translate(-603.213 -1518.368)" fill="#fffffb"/>
    </g>
  </g>
</svg>
