<svg xmlns="http://www.w3.org/2000/svg" width="620.208" height="1070.578" viewBox="0 0 620.208 1070.578">
  <g id="Group_4079" data-name="Group 4079" transform="translate(-269.876 -234.705)">
    <path id="Path_9087" data-name="Path 9087" d="M443.21,473.9,272.167,375.063c-3.395-1.959-2.967-5.382.952-7.652l12.088-6.975c3.926-2.27,9.853-2.512,13.255-.552l171.044,98.838c3.395,1.96,2.967,5.382-.952,7.645l-12.088,6.982C452.539,475.613,446.612,475.854,443.21,473.9Z" transform="translate(0 730.711)" fill="#f2f2f2"/>
    <g id="Group_4023" data-name="Group 4023" transform="translate(272.739 234.705)">
      <path id="Path_9088" data-name="Path 9088" d="M885.842,660.433,684.6,544.345l32.69-18.878c5.216-3.008,5.782-7.569,1.263-10.177L530.963,407.427c-4.52-2.608-12.413-2.284-17.629.731l-32.4,18.705L289.873,316.648c-2.656-1.532-7.293-1.338-10.357.428l-6.693,3.864c-3.064,1.773-3.395,4.451-.738,5.982l191.06,110.209-56.971,32.9c-5.216,3.008-5.789,7.569-1.269,10.177L592.5,588.068c4.513,2.608,12.406,2.284,17.622-.731L666.8,554.612,868.055,670.7c2.65,1.532,7.293,1.346,10.357-.428l6.686-3.864C888.167,664.642,888.5,661.965,885.842,660.433Z" transform="translate(-270.291 242.638)" fill="#f2f2f2"/>
      <g id="Group_4017" data-name="Group 4017" transform="translate(155.851 496.313)">
        <path id="Path_9089" data-name="Path 9089" d="M563.982,549.313l-1.759,9.108-4.6,8.749L547.044,574.9l-7.569,5.513-34.374,19.2-43.9,27.647-167.67-96.941.028-.069a2.122,2.122,0,0,1-.683-1.7,6.4,6.4,0,0,1,2.939-5.057l80.975-46.9,3.629-2.084a29.1,29.1,0,0,0,11.191-12.7c2.546-5.479,3.229-10.9,1.863-14.814l-46.87-135.034,5.582-5.32,167.67,96.872-.621,12.668,19.292,51.8L553.543,512.4l9.625,25.488Z" transform="translate(-292.879 -306.637)" fill="#ccc"/>
        <path id="Path_9090" data-name="Path 9090" d="M547.044,429.583l-7.569,5.513-34.374,19.2-43.9,27.647L293.535,385l.028-.069a2.122,2.122,0,0,1-.683-1.7,6.4,6.4,0,0,1,2.939-5.057l80.975-46.9Z" transform="translate(-292.879 -161.316)" fill="#e6e6e6"/>
        <path id="Path_9091" data-name="Path 9091" d="M404.6,495.4l-84.473,48.9c-1.628.938-2.946.186-2.946-1.677h0a6.477,6.477,0,0,1,2.946-5.078l84.6-48.967A29.146,29.146,0,0,0,415.9,475.861c2.553-5.492,3.229-10.895,1.87-14.821L370.9,326.033l5.582-5.354,46.87,135.014c1.911,5.5,1.042,13.006-2.373,20.692C417.319,484.63,411.075,491.661,404.6,495.4Z" transform="translate(-149.528 -223.793)" fill="#a6a6a6"/>
      </g>
      <g id="Group_4022" data-name="Group 4022" transform="translate(1.456)">
        <g id="Group_4020" data-name="Group 4020">
          <g id="Group_4019" data-name="Group 4019" style="isolation: isolate">
            <path id="Path_9092" data-name="Path 9092" d="M866.329,568.046,292.08,236.509c-3.65-2.111-6.955-2.3-9.342-.918l-11.5,6.679c2.387-1.38,5.692-1.187,9.342.918L854.827,574.732c7.231,4.174,13.089,14.317,13.068,22.631l-1.249,440.795c-.014,4.14-1.47,7.045-3.823,8.411l11.5-6.686c2.353-1.366,3.809-4.271,3.822-8.411L879.4,590.677C879.417,582.37,873.566,572.221,866.329,568.046Z" transform="translate(-266.172 -234.705)" fill="#595959"/>
            <path id="Path_9093" data-name="Path 9093" d="M372.515,338.985l-.228,77.263c0,4.14-1.47,7.045-3.823,8.418l-11.488,6.692c2.353-1.373,3.816-4.278,3.816-8.417l.228-77.325Z" transform="translate(239.675 380.519)" fill="#bfbfbf"/>
            <g id="Group_4018" data-name="Group 4018" transform="translate(0 6.689)">
              <path id="Path_9094" data-name="Path 9094" d="M872.211,591.644l-1.242,440.8c-.028,8.321-5.906,11.646-13.151,7.5L283.591,708.394c-7.279-4.174-13.123-14.3-13.089-22.652l1.235-440.794c.034-8.294,5.913-11.654,13.192-7.479L859.157,569.027C866.4,573.2,872.246,583.323,872.211,591.644Z" transform="translate(-270.502 -235.674)" fill="#333"/>
            </g>
          </g>
        </g>
        <path id="Path_9095" data-name="Path 9095" d="M871.2,636.4l-.228,77.263c-.028,8.321-5.906,11.646-13.151,7.5L283.591,389.615c-7.279-4.174-13.123-14.3-13.089-22.652l.228-77.256Z" transform="translate(-270.502 89.794)" fill="#d9d9d9"/>
        <path id="Path_9096" data-name="Path 9096" d="M838.532,894.236l-565-327.131V240.178l565,327.131Z" transform="translate(-252.645 -202.415)" fill="#7981f2"/>
        <g id="Group_4021" data-name="Group 4021" transform="translate(26.486 40.994)">
          <path id="Path_9097" data-name="Path 9097" d="M419.691,324.837v24.927L274.342,265.818V240.646Z" transform="translate(-274.334 -240.646)" fill="#2a33b8"/>
          <path id="Path_9098" data-name="Path 9098" d="M446.086,340.084v24.622L300.677,280.76V255.894Z" transform="translate(-118.967 -150.686)" fill="#2a33b8"/>
          <path id="Path_9099" data-name="Path 9099" d="M472.369,355.334V379.65L327.02,295.765V271.142Z" transform="translate(36.451 -60.727)" fill="#2a33b8"/>
          <path id="Path_9100" data-name="Path 9100" d="M367.59,294.639v24.317l-14.235-8.249V286.391Z" transform="translate(191.817 29.234)" fill="#2a33b8"/>
          <path id="Path_9101" data-name="Path 9101" d="M419.72,501.1,274.341,417.161V250.339L419.72,334.274Z" transform="translate(-274.341 -183.459)" fill="#2a33b8"/>
          <path id="Path_9102" data-name="Path 9102" d="M446.058,516.3l-145.38-83.935V265.546l145.38,83.935Z" transform="translate(-118.954 -93.747)" fill="#2a33b8"/>
          <path id="Path_9103" data-name="Path 9103" d="M472.4,531.508,327.017,447.574V280.752L472.4,364.686Z" transform="translate(36.432 -4.034)" fill="#2a33b8"/>
          <path id="Path_9104" data-name="Path 9104" d="M367.59,304.2V471.056l-14.235-8.248V295.954Z" transform="translate(191.817 85.654)" fill="#2a33b8"/>
          <path id="Path_9105" data-name="Path 9105" d="M419.691,364.511v51.748L274.342,332.068v-51.5Z" transform="translate(-274.334 -5.142)" fill="#2a33b8"/>
          <path id="Path_9106" data-name="Path 9106" d="M446.086,379.714v52.054l-145.41-84.191v-51.81Z" transform="translate(-118.967 84.557)" fill="#2a33b8"/>
          <path id="Path_9107" data-name="Path 9107" d="M472.369,394.918v52.36L327.02,363.087V310.972Z" transform="translate(36.451 174.256)" fill="#2a33b8"/>
          <path id="Path_9108" data-name="Path 9108" d="M367.59,334.372v52.421l-14.235-8.248v-52.36Z" transform="translate(191.817 264.006)" fill="#2a33b8"/>
        </g>
      </g>
    </g>
    <g id="Group_4057" data-name="Group 4057" transform="translate(501.342 1070.159)">
      <path id="Path_9109" data-name="Path 9109" d="M422.525,510.234,304.947,442.348c-2.256-1.3-1.973-3.581.628-5.085l115.536-66.7c2.608-1.511,6.548-1.67,8.8-.366L547.5,438.084c2.256,1.3,1.973,3.574-.635,5.078L431.329,509.869C428.728,511.373,424.781,511.539,422.525,510.234Z" transform="translate(-303.423 -275.99)" fill="#f2f2f2"/>
      <g id="Group_4024" data-name="Group 4024" transform="translate(11.109 39.912)">
        <path id="Path_9110" data-name="Path 9110" d="M417.423,490.945,305.033,426.057l111.688-64.483,112.388,64.888Z" transform="translate(-305.033 -361.575)" fill="#f2f2f2"/>
        <path id="Path_9111" data-name="Path 9111" d="M406.9,477.812,306.811,420.026,406.273,362.6l100.089,57.786Z" transform="translate(-294.548 -355.522)" fill="#e6e6e6"/>
        <path id="Path_9112" data-name="Path 9112" d="M321.322,492.484V435.462l111.687-64.483V428Z" transform="translate(-208.933 -306.092)" fill="#bfbfbf"/>
        <path id="Path_9113" data-name="Path 9113" d="M305.033,370.921v57.023l112.389,64.888V435.808Z" transform="translate(-305.033 -306.438)" fill="#e6e6e6"/>
      </g>
      <g id="Group_4056" data-name="Group 4056" transform="translate(35.673)">
        <g id="Group_4029" data-name="Group 4029">
          <g id="Group_4028" data-name="Group 4028" style="isolation: isolate">
            <g id="Group_4025" data-name="Group 4025" transform="translate(0.027 56.601)">
              <path id="Path_9114" data-name="Path 9114" d="M320.663,425.893l-7.913-4.546-1.347-18.3L308.6,363.994l7.857,3.816,2.245,31.033Z" transform="translate(-308.597 -363.994)" fill="#4d4d4d"/>
            </g>
            <g id="Group_4026" data-name="Group 4026">
              <path id="Path_9115" data-name="Path 9115" d="M316.473,416.2l-7.88-3.813,98.031-56.6,7.88,3.813Z" transform="translate(-308.593 -355.79)" fill="#737373"/>
            </g>
            <g id="Group_4027" data-name="Group 4027" transform="translate(7.883 3.793)">
              <path id="Path_9116" data-name="Path 9116" d="M416.25,473.349l-42.482,24.523-6.678,3.873-.561.337-.057-.73-4.209-2.413-7.913-4.546L350.2,491.98l-7.913-4.545-4.209-2.414-7.913-4.6-4.1-2.357-7.969-4.6-4.153-2.413L311.981,444l-2.245-31.033,98.04-56.625.392,5.612.618,7.969.393,5.612v.056l.562,7.969.392,5.612.618,8.025.393,5.556.562,8.025.168,1.964.224,3.648.618,8.025Z" transform="translate(-309.736 -356.34)" fill="#1f2125"/>
            </g>
          </g>
        </g>
        <g id="Group_4034" data-name="Group 4034" transform="translate(12.092 7.19)">
          <g id="Group_4033" data-name="Group 4033" style="isolation: isolate">
            <g id="Group_4030" data-name="Group 4030" transform="translate(0 56.594)">
              <path id="Path_9117" data-name="Path 9117" d="M322.468,426.766l-7.969-4.6-2.3-31.651-1.853-25.478,7.912,3.816,1.235,17.452Z" transform="translate(-310.346 -365.035)" fill="#4d4d4d"/>
            </g>
            <g id="Group_4031" data-name="Group 4031" transform="translate(0.008)">
              <path id="Path_9118" data-name="Path 9118" d="M318.228,417.244l-7.881-3.814,98.032-56.6,7.88,3.813Z" transform="translate(-310.347 -356.832)" fill="#737373"/>
            </g>
            <g id="Group_4032" data-name="Group 4032" transform="translate(7.913 3.786)">
              <path id="Path_9119" data-name="Path 9119" d="M418.007,474.389l-48.992,28.284-4.994-2.861-7.3-4.209-.561.337-.057-.73L351.9,492.8l-7.913-4.546-4.153-2.413-7.913-4.545-4.209-2.414-7.913-4.6-4.1-2.357-2.974-40.462-1.235-17.452,86.929-50.227,11.055-6.4.393,5.668.617,7.969.393,5.556.561,8.081.449,5.556.561,8.025.393,5.556v.057l.618,7.968v.057l.112,1.683Z" transform="translate(-311.493 -357.381)" fill="#1f2125"/>
            </g>
          </g>
        </g>
        <g id="Group_4039" data-name="Group 4039" transform="translate(24.201 14.38)">
          <g id="Group_4038" data-name="Group 4038" style="isolation: isolate">
            <g id="Group_4035" data-name="Group 4035" transform="translate(0.014 56.587)">
              <path id="Path_9120" data-name="Path 9120" d="M324.113,427.582l-7.913-4.6-3.254-45.008-.842-11.9,7.857,3.816.28,3.872Z" transform="translate(-312.103 -366.076)" fill="#4d4d4d"/>
            </g>
            <g id="Group_4036" data-name="Group 4036">
              <path id="Path_9121" data-name="Path 9121" d="M319.982,418.286l-7.881-3.814,98.032-56.6,7.88,3.813Z" transform="translate(-312.101 -357.874)" fill="#737373"/>
            </g>
            <g id="Group_4037" data-name="Group 4037" transform="translate(7.871 3.835)">
              <path id="Path_9122" data-name="Path 9122" d="M419.587,473.194l-50.619,29.238-10.27-5.949-4.994-2.861-7.3-4.209-.561.337-.057-.73-4.209-2.413-7.913-4.546-4.153-2.413L321.6,475.1l-4.209-2.414-3.873-53.818-.28-3.872,75.817-43.773,22.223-12.8.393,5.556.618,8.025.393,5.556v.056l.562,7.969.393,5.612.618,8.024,1.066,15.1Z" transform="translate(-313.242 -358.43)" fill="#1f2125"/>
            </g>
          </g>
        </g>
        <g id="Group_4044" data-name="Group 4044" transform="translate(36.28 21.571)">
          <g id="Group_4043" data-name="Group 4043" style="isolation: isolate">
            <g id="Group_4040" data-name="Group 4040" transform="translate(0 56.58)">
              <path id="Path_9123" data-name="Path 9123" d="M325.917,428.4,318,423.853l-4.153-56.736,7.913,3.816Z" transform="translate(-313.852 -367.117)" fill="#4d4d4d"/>
            </g>
            <g id="Group_4041" data-name="Group 4041" transform="translate(0.021)">
              <path id="Path_9124" data-name="Path 9124" d="M321.735,419.328l-7.881-3.813,98.031-56.6,7.881,3.813Z" transform="translate(-313.855 -358.917)" fill="#737373"/>
            </g>
            <g id="Group_4042" data-name="Group 4042" transform="translate(7.913 3.829)">
              <path id="Path_9125" data-name="Path 9125" d="M420.39,460.6l-11.167,6.454L358.6,496.289l-10.27-5.949-4.994-2.861-7.3-4.209-.561.337-.057-.73-4.209-2.413-7.913-4.546-4.153-2.413L315,416.038l51.8-29.855L379.7,378.72l11.056-6.4,11.168-6.453,11.111-6.4.393,5.555.617,8.025.393,5.556.561,8.081,2.076,28.509Z" transform="translate(-314.999 -359.471)" fill="#1f2125"/>
            </g>
          </g>
        </g>
        <g id="Group_4049" data-name="Group 4049" transform="translate(48.401 28.761)">
          <g id="Group_4048" data-name="Group 4048" style="isolation: isolate">
            <g id="Group_4045" data-name="Group 4045" transform="translate(0 56.573)">
              <path id="Path_9126" data-name="Path 9126" d="M327.618,429.215l-7.913-4.546-4.1-56.512,7.857,3.816Z" transform="translate(-315.608 -368.158)" fill="#4d4d4d"/>
            </g>
            <g id="Group_4046" data-name="Group 4046" transform="translate(0.001)">
              <path id="Path_9127" data-name="Path 9127" d="M323.49,420.37l-7.881-3.813,98.031-56.6,7.881,3.813Z" transform="translate(-315.609 -359.959)" fill="#737373"/>
            </g>
            <g id="Group_4047" data-name="Group 4047" transform="translate(7.857 3.821)">
              <path id="Path_9128" data-name="Path 9128" d="M421.185,448.058l-11.111,6.4-11.167,6.454-50.619,29.238-10.27-5.949-4.994-2.861-7.3-4.209-.561.337-.057-.73-4.209-2.413-4.153-57.241,51.966-29.968,1.628-.954,11.111-6.4,11.112-6.453,11.167-6.4,11.055-6.4.393,5.556.618,8.025v.057l3.03,41.865Z" transform="translate(-316.747 -360.512)" fill="#1f2125"/>
            </g>
          </g>
        </g>
        <g id="Group_4055" data-name="Group 4055" transform="translate(60.503 35.952)">
          <g id="Group_4054" data-name="Group 4054" style="isolation: isolate">
            <g id="Group_4050" data-name="Group 4050" transform="translate(0.021 56.622)">
              <path id="Path_9129" data-name="Path 9129" d="M329.375,430.04l-7.3-4.209-.561.337-.057-.73-4.1-56.231,7.857,3.816,3.535,48.935Z" transform="translate(-317.365 -369.207)" fill="#4d4d4d"/>
            </g>
            <g id="Group_4051" data-name="Group 4051">
              <path id="Path_9130" data-name="Path 9130" d="M325.243,421.412l-7.881-3.813L415.393,361l7.881,3.813Z" transform="translate(-317.362 -361.001)" fill="#737373"/>
            </g>
            <g id="Group_4052" data-name="Group 4052" transform="translate(7.877 3.814)">
              <path id="Path_9131" data-name="Path 9131" d="M421.875,435.462l-11.056,6.453-11.111,6.4-11.167,6.454L337.921,484l-10.27-5.949-4.994-2.861-.618-8.082L318.5,418.177l42.482-24.524,9.708-5.612,1.4-.786,9.877-5.724,1.235-.73,11.111-6.4,11.112-6.4,11.112-6.453,3.984,55.277Z" transform="translate(-318.504 -361.553)" fill="#1f2125"/>
            </g>
            <g id="Group_4053" data-name="Group 4053" transform="translate(25.879 49.825)">
              <path id="Path_9132" data-name="Path 9132" d="M330.759,395.366l14.172,1.345v6.306l-23.818-2.084,23.818-29.517v6.313Z" transform="translate(-321.113 -349.373)" fill="#f2f2f2"/>
              <path id="Path_9133" data-name="Path 9133" d="M330.037,424.3l-4.581,2.643q6.789-24.943,10.136-37.383l5.064-18.691,4.581-2.643Z" transform="translate(-295.497 -368.222)" fill="#f2f2f2"/>
              <path id="Path_9134" data-name="Path 9134" d="M343.276,376.38l-14.22-1.311v-6.244l23.866,1.987-23.866,29.606V394.05Z" transform="translate(-274.252 -364.664)" fill="#f2f2f2"/>
            </g>
          </g>
        </g>
      </g>
    </g>
    <g id="Group_4071" data-name="Group 4071" transform="translate(279.308 611.846)">
      <g id="Group_4070" data-name="Group 4070" style="isolation: isolate">
        <g id="Group_4058" data-name="Group 4058" transform="translate(15.078 408.93)">
          <path id="Path_9135" data-name="Path 9135" d="M273.428,444.851l16.689-7.366,17.613-88.852L291.04,356Z" transform="translate(-273.428 -348.633)" fill="#733118"/>
        </g>
        <g id="Group_4059" data-name="Group 4059" transform="translate(34.509 308.45)">
          <path id="Path_9136" data-name="Path 9136" d="M276.245,432.741l16.69-7.365,18.1-91.306-16.689,7.365Z" transform="translate(-276.245 -334.07)" fill="#733118"/>
        </g>
        <g id="Group_4060" data-name="Group 4060" transform="translate(54.426 207.97)">
          <path id="Path_9137" data-name="Path 9137" d="M279.131,418.178l16.69-7.366,18.1-91.305-16.69,7.365Z" transform="translate(-279.131 -319.507)" fill="#733118"/>
        </g>
        <g id="Group_4061" data-name="Group 4061" transform="translate(34.509 399.756)">
          <path id="Path_9138" data-name="Path 9138" d="M411.41,432.476l16.689-7.365L292.934,347.3l-16.69,7.365Z" transform="translate(-276.245 -347.303)" fill="#ab512e"/>
        </g>
        <g id="Group_4062" data-name="Group 4062" transform="translate(74.344 107.514)">
          <path id="Path_9139" data-name="Path 9139" d="M282.018,403.594l16.689-7.366L316.8,304.948l-16.69,7.365Z" transform="translate(-282.018 -304.948)" fill="#733118"/>
        </g>
        <g id="Group_4063" data-name="Group 4063" transform="translate(54.426 299.275)">
          <path id="Path_9140" data-name="Path 9140" d="M414.3,417.914l16.689-7.365L295.821,332.74l-16.69,7.366Z" transform="translate(-279.131 -332.74)" fill="#ab512e"/>
        </g>
        <g id="Group_4064" data-name="Group 4064" transform="translate(96.897)">
          <path id="Path_9141" data-name="Path 9141" d="M300.365,305.677l16.689-7.365-15.078-8.947-16.69,7.365Z" transform="translate(-285.287 -289.365)" fill="#ab512e"/>
        </g>
        <g id="Group_4065" data-name="Group 4065" transform="translate(94.256 8.947)">
          <path id="Path_9142" data-name="Path 9142" d="M284.9,387.419l16.689-7.365,17.719-89.392-16.689,7.365Z" transform="translate(-284.904 -290.662)" fill="#733118"/>
        </g>
        <g id="Group_4066" data-name="Group 4066" transform="translate(74.344 198.795)">
          <path id="Path_9143" data-name="Path 9143" d="M417.182,403.351l16.69-7.366L298.707,318.177l-16.689,7.366Z" transform="translate(-282.018 -318.177)" fill="#ab512e"/>
        </g>
        <g id="Group_4067" data-name="Group 4067" transform="translate(94.256 98.339)">
          <path id="Path_9144" data-name="Path 9144" d="M420.068,388.79l16.69-7.365L301.593,303.618,284.9,310.983Z" transform="translate(-284.904 -303.618)" fill="#ab512e"/>
        </g>
        <g id="Group_4068" data-name="Group 4068" transform="translate(165.301 95.69)">
          <path id="Path_9145" data-name="Path 9145" d="M295.2,799.434l16.69-7.365,96.9-488.835L392.1,310.6Z" transform="translate(-295.201 -303.234)" fill="#733118"/>
        </g>
        <path id="Path_9146" data-name="Path 9146" d="M271.243,779.263l15.076,8.949,17.615-88.854L439.1,777.166,421.484,866.02l15.062,8.935,96.9-488.837-15.062-8.935-17.719,89.392L365.5,388.768l17.718-89.393-15.076-8.942ZM480.752,567.035,345.587,489.227l18.091-91.283,135.165,77.808Zm-19.919,100.48L325.668,589.708l18.1-91.311L478.931,576.2ZM305.755,690.188l18.1-91.311,135.165,77.808L440.92,768Z" transform="translate(-271.243 -283.065)" fill="#8c3c1d"/>
        <g id="Group_4069" data-name="Group 4069" transform="translate(247.141 86.755)">
          <path id="Path_9147" data-name="Path 9147" d="M322.121,318.239l16.689-7.365-15.058-8.935-16.69,7.365Z" transform="translate(-307.062 -301.939)" fill="#ab512e"/>
        </g>
      </g>
    </g>
    <g id="Group_4076" data-name="Group 4076" transform="translate(469.783 467.26)">
      <g id="Group_4075" data-name="Group 4075" style="isolation: isolate">
        <g id="Group_4072" data-name="Group 4072" transform="translate(137.692 79.497)">
          <path id="Path_9148" data-name="Path 9148" d="M318.806,286.658l10.011-6.726L339.082,431.44l-10.011,6.725Z" transform="translate(-318.806 -279.932)" fill="#bfbfbf"/>
        </g>
        <g id="Group_4073" data-name="Group 4073">
          <path id="Path_9149" data-name="Path 9149" d="M298.849,275.135l10.011-6.726,137.692,79.5-10.011,6.726Z" transform="translate(-298.849 -268.41)" fill="#fff"/>
        </g>
        <g id="Group_4074" data-name="Group 4074" transform="translate(0 6.726)">
          <path id="Path_9150" data-name="Path 9150" d="M436.541,348.882l10.265,151.507-137.693-79.5L298.849,269.385Z" transform="translate(-298.849 -269.385)" fill="#d9d9d9"/>
        </g>
      </g>
    </g>
    <g id="Group_4078" data-name="Group 4078" transform="translate(316.389 474.38)">
      <g id="Group_4077" data-name="Group 4077">
        <path id="Path_9151" data-name="Path 9151" d="M443.1,304.365c-.083-.586-.29-1.256-.842-1.463a1.7,1.7,0,0,0-1.5.428,11.428,11.428,0,0,0-3.864,4.906,37.857,37.857,0,0,1,.89-7.748c.655-2.56,1.318-5.134,1.911-7.707.925-4.016,1.511-8.231.566-12.24-.352-1.518-1.118-3.167-2.615-3.608a2.691,2.691,0,0,0-3.236,2.877c-.911-.221-2.042-.379-2.643.331a2.578,2.578,0,0,0-.421,1.642q-.073,3.715-.021,7.445c-.676-.848-1.78-1.649-2.767-1.194s-1.083,1.78-1.028,2.856c.255,4.885,1.014,9.791.462,14.662a35.073,35.073,0,0,1-1.456,6.548c-1.159,3.664-6.921,15.538-9.26,17.546-4.975,4.271-10.984,7.128-16.973,9.673-9.929,4.216-20.278,7.293-30.524,10.626-5.782,1.877-11.543,3.829-17.18,6.106a7.148,7.148,0,0,1-4.692.09,82.178,82.178,0,0,1-23.369-8.693,51.867,51.867,0,0,1-9.059-6.651c-3.809-3.505-6.272-8.556-10.708-11.288-5.147-3.167-11.536-5.23-16.414-.235-3.85,3.94-3.7,10.536-1.118,15.407s7.086,8.376,11.5,11.681c15.814,11.833,32.781,23.114,52.107,27.15a4.078,4.078,0,0,0,1.822.09,3.407,3.407,0,0,0,2.077-2.16c.49.579.98,1.166,1.525,1.7a3.021,3.021,0,0,0,1.539.98,3.192,3.192,0,0,0,1.849-.462c6.444-3.07,12.889-6.148,19.16-9.556A213.347,213.347,0,0,0,401.2,360c3.629-2.6,26.785-19.174,30.345-21.355a32.3,32.3,0,0,0,4-2.718,5.082,5.082,0,0,0,1.194-1.3,5.908,5.908,0,0,0,.572-1.78c.511-2.422,1.228-4.816,1.511-7.279.476-4.153.469-8.431,2.063-12.378.538-1.339,1.283-2.594,1.746-3.96A10.616,10.616,0,0,0,443.1,304.365Z" transform="translate(-224.952 -225.754)" fill="#ffb78c"/>
        <path id="Path_9152" data-name="Path 9152" d="M309.669,295.5c8.376,6.679,17.787,11.992,27.088,17.339.3.166.621.379.683.718a1.172,1.172,0,0,1-.124.621c-2.953,7.334-7.279,14.331-13.62,19.05a14.562,14.562,0,0,1-6.727,3.008,6.742,6.742,0,0,1-3.415-.276c-.869-.448-1.014-1.1-1.421-2.035a57.228,57.228,0,0,0-2.691-5.313,66.022,66.022,0,0,0-6.631-9.549c-4.471-5.389-9.749-10.15-13.482-16.076a17.408,17.408,0,0,1-2.76-6.741,10.787,10.787,0,0,1,.9-6.03,10.681,10.681,0,0,0,.9-5.437,1.048,1.048,0,0,1,.173-.711,1.029,1.029,0,0,1,.986-.138,32.453,32.453,0,0,1,10.743,3.933,55.039,55.039,0,0,1,6.472,5.216Q308.189,294.32,309.669,295.5Z" transform="translate(-218.505 -184.315)" fill="#4d4d4d"/>
        <path id="Path_9153" data-name="Path 9153" d="M278.574,373.155c.131,3.532,1.145,7.445,4.181,9.259a10.309,10.309,0,0,0,5.168,1.187,25.522,25.522,0,0,0,9.6-1.7c3.3-1.263,6.3-3.2,9.549-4.588,13.848-5.9,30.159-1.159,44.565-5.52,3.409-1.035,7.121-3.174,7.5-6.713.235-2.153-.883-4.23-2.277-5.885a23.687,23.687,0,0,0-11.709-7.01,82.546,82.546,0,0,0-13.648-2.222c-9.232-1.042-18.436-2.477-27.716-2.9-5.658-.255-11.591-.083-16.9,2.091-2.173.89-3.74,1.608-4.443,3.864-.938,3.008-1.9,6.01-2.615,9.073A41.591,41.591,0,0,0,278.574,373.155Z" transform="translate(-265.198 187.953)" fill="#1f2125"/>
        <path id="Path_9154" data-name="Path 9154" d="M335.946,336.913c1.007-7.514,1.7-15.193.179-22.617-.628-3.1-1.483-8.528-4.588-9.9a23.4,23.4,0,0,0-11.723-1.663,39.114,39.114,0,0,0-13.289,4.133,54.587,54.587,0,0,0-19.009,15.276,48.531,48.531,0,0,0-9.667,38.017c1.131,6.6,3.726,12.8,5.547,19.216,1.78,6.258,2.049,12.516,1.822,19.036-.283,8.155-1.518,16.249-2.408,24.363a415.109,415.109,0,0,0-2.1,46.311c.021,7.852.166,15.711.345,23.569.173,8.211-1.987,15.517-3.394,23.473-2.933,16.5.821,32.215,4.8,48.1,4.23,16.87,6.976,34.057,10.115,51.154a6.129,6.129,0,0,0,.9,2.615,5.279,5.279,0,0,0,2.339,1.594c4.616,1.9,9.853,1.815,14.717.69a72.64,72.64,0,0,0,13.958-5.327c-4.347-18.829-6.154-38.135-6.921-57.419-.462-11.674-.545-23.356-.586-35.044-.021-5.837-.035-11.681-.076-17.525a61.5,61.5,0,0,1,.055-7.976c.035-.324.09-.649.145-.973.407-2.263,1.194-4.444,1.649-6.7.635-3.119.5-6.727-1.725-9l-.1-.076a73.708,73.708,0,0,0,8.011-3.864,3.319,3.319,0,0,0,1.049-.821,3.235,3.235,0,0,0,.455-1.256,131.55,131.55,0,0,0,2.249-36.293c-.442-5.754-1.821-11.226-2.36-16.946a119.952,119.952,0,0,1-.172-18.829C327.514,380.244,333.027,358.744,335.946,336.913Z" transform="translate(-276.617 -73.832)" fill="#bfbfbf"/>
        <path id="Path_9155" data-name="Path 9155" d="M367.874,363.162c-1.932-4.305-10.184-5.582-13.82-6.72a149.513,149.513,0,0,0-14.489-3.691,181.227,181.227,0,0,0-29.765-3.388c-5.934-.2-12.04-.152-17.739,1.711-1.96.642-4.23,1.511-5.182,3.477-.987,2.043-1.428,4.658-2.07,6.831a63.626,63.626,0,0,0-2.215,10.067,17.667,17.667,0,0,0,.414,7.7c1.58,4.809,6.617,8.093,11.674,8.086,3.181-.007,6.237-1.138,9.356-1.732,6.817-1.3,13.813-.034,20.734.331a95.644,95.644,0,0,0,15.207-.5c4.657-.5,10.612-.683,14.938-2.539,7.141-3.07,12.9-9.349,13.358-17.387A4.767,4.767,0,0,0,367.874,363.162Z" transform="translate(-242.695 201.595)" fill="#4d4d4d"/>
        <path id="Path_9156" data-name="Path 9156" d="M372.088,315.845c-3.608,5.513-11.267,6.569-17.829,5.906-12.634-1.276-24.522-6.858-34.933-14.117-2.946-2.056-5.9-4.292-9.4-5.078-10.191-2.284-13.9,7.852-17.85,14.779-5.561,9.756-10.867,19.919-13.178,31a61.425,61.425,0,0,0,4.167,37.624c2.553,5.637,5.975,10.895,7.942,16.766,3.547,10.563,2.084,22.065.752,33.133-2.47,20.5-4.34,41.2-3.16,61.794a109.69,109.69,0,0,0,.807,15.255q.807,7.99,1.622,15.973a206.735,206.735,0,0,0,7.279,38.935c3.326,11.157,7.8,21.982,10.273,33.353,2.594,11.909,2.946,24.177,4.4,36.279a3.343,3.343,0,0,0,.552,1.732,3.181,3.181,0,0,0,1.787.911,32.544,32.544,0,0,0,23.914-3.367c2.712-1.56,5.409-3.926,5.568-7.045a11.3,11.3,0,0,0-.621-3.629c-9.363-33.05-11.5-68.693-8.68-102.854.662-8.038,4.016-14.786,6.9-22.182,3.057-7.838,6-15.731,8.673-23.714,5.4-16.042,9.763-32.491,11.971-49.3,2.2-16.78,2.236-33.788,4.381-50.575,2.339-18.333,7.2-36.465,6.831-54.942C374.206,320.074,373.93,317.383,372.088,315.845Z" transform="translate(-270.595 -76.015)" fill="#f2f2f2"/>
        <path id="Path_9157" data-name="Path 9157" d="M283.685,369.242c4.34,15.214,12.344,30.448,9.315,45.973-1.822,9.3-7.431,17.346-13.054,24.97a5.379,5.379,0,0,0-1.194,2.353,5,5,0,0,0,.69,2.78c5.437,11.247,16.09,19.354,27.716,23.907s24.26,5.9,36.741,6.451c7.231.317,14.821.31,21.251-3.015a641.326,641.326,0,0,0,7.182-76.138c.152-4.4.276-8.907,1.815-13.034,2.311-6.2,7.707-11.253,8.4-17.836.648-6.182-3.043-11.916-6.776-16.877-14.337-19.064-31.7-35.609-48.981-52.051-5.106-4.857-10.253-9.749-16.207-13.5-3.519-2.222-6.976-2.091-10.481.331a21.4,21.4,0,0,0-5.527,6.113,74.245,74.245,0,0,0-6.631,13.551l-.249.635C279.531,324.987,277.427,347.328,283.685,369.242Z" transform="translate(-264.175 -197.457)" fill="#1f2125"/>
        <path id="Path_9158" data-name="Path 9158" d="M281.657,309.878c-.407,1.752-.559,3.7.5,5.161,1.18,1.614,3.381,1.987,5.347,2.36,8.969,1.69,17.567,6.113,23.417,13.116,2.222,2.656,4.078,5.692,6.838,7.776a6.713,6.713,0,0,0,4.781,1.594c4.34-.607,2.387-4.754,2.408-7.528.034-3.912,1.028-8.073,1.649-11.936q1.9-11.9,4.851-23.6a35.61,35.61,0,0,1-9.259-4.4c-4.506-2.7-9.018-5.416-13.241-8.549-2.463-1.829-4.858-3.823-7.68-5.03a22.008,22.008,0,0,0-9.2-1.483c-2.636.062-5.327-.338-6.43,2.643a11.879,11.879,0,0,0-.462,4.25,87.852,87.852,0,0,1-1.028,16.263,74.651,74.651,0,0,1-2.125,7.955C281.9,308.912,281.767,309.388,281.657,309.878Z" transform="translate(-248.699 -222.788)" fill="#ffb78c"/>
        <path id="Path_9159" data-name="Path 9159" d="M359.646,302.357a7.22,7.22,0,0,1,.069,3.884,20.494,20.494,0,0,0-1.042,2.366,5.559,5.559,0,0,0,.987,3.726q2.96,5.444,5.92,10.881c-1.711,2.332-5.423,2.3-7.272,4.519a8.633,8.633,0,0,0-1.49,4.085q-1.615,9.014-3.236,18.036a179.191,179.191,0,0,1-17.815,3.27,8.585,8.585,0,0,1-4.271-.179,7.882,7.882,0,0,1-2.85-2.27,40.12,40.12,0,0,1-5.3-7.541c-.669-1.235-1.352-2.587-2.6-3.222a7.089,7.089,0,0,0-3.671-.393c-13.772.7-27.716-7.279-33.719-19.692s-3.457-28.551,6.355-38.238c7.293-7.2,17.691-10.564,27.923-11.184a52.925,52.925,0,0,1,21.755,3.1,41.491,41.491,0,0,1,9.874,5.292c3.408,2.5,4.6,5.6,6.134,9.48A87.82,87.82,0,0,1,359.646,302.357Z" transform="translate(-255.856 -264.379)" fill="#ffe5cc"/>
        <path id="Path_9160" data-name="Path 9160" d="M339.682,322.192c-4.319,2.415-.449,8.921,1.083,12.137a50.179,50.179,0,0,1,4.112,11.184c.635,3.029,1.1,7.01-.028,9.991-.842,2.229-3.064,3.871-5.051,5.175a29.213,29.213,0,0,1-7.734,3.429,45.3,45.3,0,0,1-50.678-18.339c-1.98-2.953-4.388-6.382-4.085-10.025.386-4.554,2.111-9.294,3.3-13.7,2.7-10.046,6.651-19.857,12.62-28.379s14.062-15.724,23.68-19.7c14.082-5.816,30.945-7.058,43.723,2.532a19.017,19.017,0,0,1,5.789,6.438c3.312,6.617-.524,17.6-3.519,23.742-3.408,6.989-9.632,13.082-17.318,14.241C343.573,321.213,341.441,321.2,339.682,322.192Z" transform="translate(-272.736 -269.442)" fill="#733118"/>
        <path id="Path_9161" data-name="Path 9161" d="M464.613,297.185a2.111,2.111,0,0,0-.883-.98.8.8,0,0,0-1.1.393,51.632,51.632,0,0,0-.559-15.007,3.956,3.956,0,0,0-.683-1.842,1.453,1.453,0,0,0-1.759-.469c-.483.283-.7.925-1.221,1.138a3.021,3.021,0,0,1-1.339.007c-1.642-.076-2.8,1.532-3.615,2.96a182.982,182.982,0,0,0-16.477,38.68,43,43,0,0,0-1.628,10.446,10.5,10.5,0,0,1-.179,2.373,7.875,7.875,0,0,1-.655,1.553c-.78,1.518-42.827,44.538-46.5,46.98-.525.352-1.049.69-1.58,1.028-6.168-3.015-12.923-4.816-19.188-7.686-12.24-5.609-21.982-15.359-32.553-23.7-6.4-5.051-13.344-9.646-21.051-12.433a36.332,36.332,0,0,0-11.364-2.449c-2.767-.055-4.229,1.235-6.147,3.063a31.989,31.989,0,0,0-7.6,10.55c-1.98,4.651-2.946,9.908-1.2,14.71a31.981,31.981,0,0,0,8.148,11.992c4.747,4.533,10.481,7.886,16.242,11.033A317.48,317.48,0,0,0,381.472,417.9c2.76.738,5.63,1.442,8.439.918,10.136-1.891,46.125-51.727,57.433-67.079a46.028,46.028,0,0,0,10.991-15.925,84.172,84.172,0,0,0,2.974-9.294q1.987-7.193,3.809-14.427a32.224,32.224,0,0,0,1.263-7.707A15.04,15.04,0,0,0,464.613,297.185Z" transform="translate(-218.814 -212.233)" fill="#ffe5cc"/>
        <path id="Path_9162" data-name="Path 9162" d="M338.866,352.554c5.037-5.271,10.1-10.626,14.089-16.76,2.9-4.45,8.024-12.544,5.257-18.063a7.062,7.062,0,0,0-1.559-1.891A143.2,143.2,0,0,0,321.313,291a40.645,40.645,0,0,0-7.817-3.133,32.594,32.594,0,0,0-15.276.248,17.541,17.541,0,0,0-4.906,1.732c-9.211,5.313-9.28,19.864-6.555,28.668,3.16,10.2,10.8,18.622,19.871,24.253s19.519,8.68,30.027,10.577a2.439,2.439,0,0,0,1.021.041A2.554,2.554,0,0,0,338.866,352.554Z" transform="translate(-226.003 -165.439)" fill="#4d4d4d"/>
      </g>
    </g>
  </g>
</svg>
