<svg xmlns="http://www.w3.org/2000/svg" xmlns:xlink="http://www.w3.org/1999/xlink" width="1758" height="1009.054" viewBox="0 0 1758 1009.054">
  <defs>
    <radialGradient id="radial-gradient" cx="0.5" cy="0.5" r="0.492" gradientTransform="translate(0 -0.008) scale(1 1.017)" gradientUnits="objectBoundingBox">
      <stop offset="0"/>
      <stop offset="0.459" stop-color="#181658" stop-opacity="0.898"/>
      <stop offset="1" stop-color="#111" stop-opacity="0"/>
    </radialGradient>
    <linearGradient id="linear-gradient" x1="0.493" y1="1.787" x2="0.501" y2="0.594" gradientUnits="objectBoundingBox">
      <stop offset="0.494" stop-color="#ebeff2"/>
      <stop offset="1" stop-color="#fff"/>
    </linearGradient>
    <linearGradient id="linear-gradient-2" x1="0.429" y1="0.319" x2="0.895" y2="1.689" gradientUnits="objectBoundingBox">
      <stop offset="0" stop-color="#444b8c"/>
      <stop offset="0.996" stop-color="#26264f"/>
    </linearGradient>
    <linearGradient id="linear-gradient-3" x1="0.394" y1="-6.047" x2="0.816" y2="19.969" gradientUnits="objectBoundingBox">
      <stop offset="0.004" stop-color="#e38ddd"/>
      <stop offset="1" stop-color="#9571f6"/>
    </linearGradient>
    <linearGradient id="linear-gradient-4" y1="0.5" x2="1" y2="0.5" gradientUnits="objectBoundingBox">
      <stop offset="0" stop-color="#ff9085"/>
      <stop offset="1" stop-color="#fb6fbb"/>
    </linearGradient>
    <linearGradient id="linear-gradient-7" x1="0.255" y1="-16.683" x2="0.687" y2="13.672" xlink:href="#linear-gradient-3"/>
    <linearGradient id="linear-gradient-12" x1="0.079" y1="-22.232" x2="0.392" y2="-5.321" xlink:href="#linear-gradient-3"/>
    <linearGradient id="linear-gradient-18" x1="0.141" y1="-22.92" x2="0.533" y2="2.635" xlink:href="#linear-gradient-3"/>
    <linearGradient id="linear-gradient-22" x1="0.181" y1="-17.686" x2="0.734" y2="13.893" xlink:href="#linear-gradient-3"/>
    <linearGradient id="linear-gradient-23" x1="-3.548" y1="-0.889" x2="-2.972" y2="0.558" gradientUnits="objectBoundingBox">
      <stop offset="0" stop-color="#aa80f9"/>
      <stop offset="0.996" stop-color="#6165d7"/>
    </linearGradient>
    <linearGradient id="linear-gradient-24" x1="-3.177" y1="0.733" x2="-3.154" y2="-0.162" xlink:href="#linear-gradient-23"/>
    <linearGradient id="linear-gradient-25" x1="-5.791" y1="-3.258" x2="-5.875" y2="-2.476" xlink:href="#linear-gradient-23"/>
    <linearGradient id="linear-gradient-26" x1="-5.845" y1="-3.51" x2="-5.956" y2="-1.755" xlink:href="#linear-gradient-23"/>
    <linearGradient id="linear-gradient-27" x1="-11.239" y1="0.753" x2="-10.974" y2="-0.228" gradientUnits="objectBoundingBox">
      <stop offset="0" stop-color="#ffc444"/>
      <stop offset="0.996" stop-color="#f36f56"/>
    </linearGradient>
    <linearGradient id="linear-gradient-28" x1="94.272" y1="7.282" x2="95.167" y2="4.223" xlink:href="#linear-gradient-27"/>
    <linearGradient id="linear-gradient-29" x1="0.535" y1="-0.598" x2="-0.545" y2="4.867" xlink:href="#linear-gradient-4"/>
    <linearGradient id="linear-gradient-30" x1="-35.727" y1="1.475" x2="-34.73" y2="1.475" gradientUnits="objectBoundingBox">
      <stop offset="0" stop-color="#311944"/>
      <stop offset="1" stop-color="#893976"/>
    </linearGradient>
    <linearGradient id="linear-gradient-31" x1="-23.123" y1="10.394" x2="-22.16" y2="10.394" xlink:href="#linear-gradient-30"/>
    <linearGradient id="linear-gradient-32" x1="0.75" y1="0.836" x2="-0.051" y2="0.171" xlink:href="#linear-gradient-30"/>
    <linearGradient id="linear-gradient-33" x1="-2.864" y1="1.084" x2="-3.997" y2="0.436" xlink:href="#linear-gradient-30"/>
    <linearGradient id="linear-gradient-34" x1="-0.108" y1="-0.249" x2="-0.746" y2="1.807" xlink:href="#linear-gradient-4"/>
    <linearGradient id="linear-gradient-35" x1="-0.73" y1="1.627" x2="-0.477" y2="0.675" xlink:href="#linear-gradient-4"/>
    <linearGradient id="linear-gradient-36" x1="-1.3" y1="-0.53" x2="-2.126" y2="2.631" xlink:href="#linear-gradient-4"/>
    <linearGradient id="linear-gradient-37" x1="0.276" y1="3.338" x2="0.155" y2="0.667" xlink:href="#linear-gradient-3"/>
    <linearGradient id="linear-gradient-38" x1="-2.682" y1="-0.345" x2="-2.556" y2="1.229" xlink:href="#linear-gradient-3"/>
    <linearGradient id="linear-gradient-39" x1="0.916" y1="0.691" x2="0.727" y2="0.249" xlink:href="#linear-gradient-3"/>
    <linearGradient id="linear-gradient-40" x1="0.565" y1="1.422" x2="0.986" y2="0.015" xlink:href="#linear-gradient-3"/>
    <linearGradient id="linear-gradient-41" x1="0.307" y1="0.5" x2="1.307" y2="0.5" xlink:href="#linear-gradient-3"/>
    <linearGradient id="linear-gradient-42" x1="-33.8" y1="0.085" x2="-34.477" y2="-1.458" gradientUnits="objectBoundingBox">
      <stop offset="0" stop-color="#311944"/>
      <stop offset="1" stop-color="#6b3976"/>
    </linearGradient>
    <linearGradient id="linear-gradient-43" x1="-39.387" y1="-0.406" x2="-40.172" y2="-2.595" xlink:href="#linear-gradient-42"/>
    <linearGradient id="linear-gradient-44" x1="2.806" y1="0.95" x2="3.076" y2="-0.004" gradientUnits="objectBoundingBox">
      <stop offset="0.004" stop-color="#6165d7"/>
      <stop offset="1" stop-color="#aa80f9"/>
    </linearGradient>
    <linearGradient id="linear-gradient-45" x1="15.174" y1="0.147" x2="16.226" y2="1.596" xlink:href="#linear-gradient-2"/>
    <linearGradient id="linear-gradient-46" x1="-8.931" y1="1.566" x2="-8.931" y2="0.214" xlink:href="#linear-gradient-27"/>
    <linearGradient id="linear-gradient-47" x1="19.722" y1="-0.28" x2="21.054" y2="1.508" xlink:href="#linear-gradient-2"/>
    <linearGradient id="linear-gradient-48" x1="9.174" y1="-0.515" x2="10.269" y2="0.793" xlink:href="#linear-gradient-2"/>
    <linearGradient id="linear-gradient-49" x1="-21.549" y1="1.222" x2="-21.549" y2="-0.193" xlink:href="#linear-gradient-27"/>
    <linearGradient id="linear-gradient-50" x1="0.213" y1="1.09" x2="-0.444" y2="-0.252" xlink:href="#linear-gradient-2"/>
    <linearGradient id="linear-gradient-51" x1="1.374" y1="0.975" x2="-0.546" y2="-0.04" xlink:href="#linear-gradient-44"/>
    <linearGradient id="linear-gradient-52" x1="11.926" y1="-1.298" x2="13.287" y2="0.479" xlink:href="#linear-gradient-2"/>
    <linearGradient id="linear-gradient-53" x1="3.957" y1="-0.821" x2="5.305" y2="0.994" xlink:href="#linear-gradient-27"/>
    <linearGradient id="linear-gradient-54" x1="38.723" y1="-8.8" x2="54.313" y2="4.547" xlink:href="#linear-gradient-27"/>
    <linearGradient id="linear-gradient-55" x1="0" y1="0.5" x2="1" y2="0.5" xlink:href="#linear-gradient-44"/>
    <linearGradient id="linear-gradient-57" x1="0.318" y1="0.081" x2="0.9" y2="1.157" xlink:href="#linear-gradient-27"/>
    <linearGradient id="linear-gradient-58" x1="2.032" y1="1.522" x2="0.366" y2="0.051" xlink:href="#linear-gradient-44"/>
    <linearGradient id="linear-gradient-59" x1="-28.669" y1="0.5" x2="-27.669" y2="0.5" xlink:href="#linear-gradient-27"/>
    <linearGradient id="linear-gradient-60" x1="-12.255" y1="0.5" x2="-11.255" y2="0.5" xlink:href="#linear-gradient-23"/>
    <linearGradient id="linear-gradient-61" x1="80.165" y1="-14.361" x2="80.59" y2="-10.826" xlink:href="#linear-gradient-3"/>
    <linearGradient id="linear-gradient-62" x1="-13.889" y1="0.5" x2="-12.725" y2="0.5" xlink:href="#linear-gradient-23"/>
    <linearGradient id="linear-gradient-63" y1="0.5" x2="1" y2="0.5" gradientUnits="objectBoundingBox">
      <stop offset="0" stop-color="#311944"/>
      <stop offset="1" stop-color="#a03976"/>
    </linearGradient>
    <linearGradient id="linear-gradient-64" x1="-11.632" y1="-0.037" x2="-10.768" y2="0.548" xlink:href="#linear-gradient-23"/>
    <linearGradient id="linear-gradient-65" x1="-4.886" y1="-0.324" x2="-5.472" y2="0.409" xlink:href="#linear-gradient-2"/>
    <linearGradient id="linear-gradient-66" x1="-1.878" y1="0.675" x2="-1.179" y2="0.067" xlink:href="#linear-gradient-27"/>
    <linearGradient id="linear-gradient-68" x1="0.56" y1="5.567" x2="0.52" y2="2.068" xlink:href="#linear-gradient-63"/>
    <linearGradient id="linear-gradient-69" x1="-1.958" y1="0.658" x2="-1.234" y2="-0.034" xlink:href="#linear-gradient-27"/>
    <linearGradient id="linear-gradient-70" x1="-2.193" y1="0.5" x2="-1.193" y2="0.5" xlink:href="#linear-gradient-3"/>
    <linearGradient id="linear-gradient-71" x1="-0.634" y1="0.5" x2="0.366" y2="0.5" xlink:href="#linear-gradient-3"/>
    <linearGradient id="linear-gradient-72" x1="-6.567" y1="-0.105" x2="-5.962" y2="0.95" xlink:href="#linear-gradient-3"/>
    <linearGradient id="linear-gradient-73" x1="-2.993" y1="0.828" x2="-3.861" y2="0.186" xlink:href="#linear-gradient-27"/>
    <linearGradient id="linear-gradient-75" x1="-6.483" y1="0.165" x2="-7.644" y2="0.944" xlink:href="#linear-gradient-3"/>
    <linearGradient id="linear-gradient-76" x1="-2.672" y1="0.931" x2="-2.721" y2="0.265" xlink:href="#linear-gradient-23"/>
    <linearGradient id="linear-gradient-77" x1="-0.008" y1="0.35" x2="0.749" y2="0.573" xlink:href="#linear-gradient-30"/>
    <linearGradient id="linear-gradient-78" x1="-7.953" y1="0.094" x2="-7.304" y2="1.596" xlink:href="#linear-gradient-3"/>
    <linearGradient id="linear-gradient-79" x1="-12.344" y1="-0.027" x2="-11.416" y2="2" xlink:href="#linear-gradient-3"/>
    <linearGradient id="linear-gradient-80" x1="1.482" y1="-0.233" x2="0.319" y2="0.635" xlink:href="#linear-gradient-30"/>
    <linearGradient id="linear-gradient-81" x1="-5.145" y1="0.094" x2="-4.496" y2="1.596" xlink:href="#linear-gradient-4"/>
    <linearGradient id="linear-gradient-82" x1="-8.246" y1="-0.027" x2="-7.318" y2="2" xlink:href="#linear-gradient-4"/>
    <linearGradient id="linear-gradient-83" x1="-0.008" y1="0.35" x2="0.749" y2="0.573" xlink:href="#linear-gradient-27"/>
    <linearGradient id="linear-gradient-84" x1="-7.768" y1="0.094" x2="-7.119" y2="1.596" xlink:href="#linear-gradient-27"/>
    <linearGradient id="linear-gradient-85" x1="-12.074" y1="-0.027" x2="-11.146" y2="2" xlink:href="#linear-gradient-27"/>
    <linearGradient id="linear-gradient-86" x1="0.493" y1="0.24" x2="0.559" y2="2.771" xlink:href="#linear-gradient-3"/>
    <linearGradient id="linear-gradient-87" x1="-1.913" y1="0.082" x2="-0.975" y2="1.712" xlink:href="#linear-gradient-3"/>
  </defs>
  <g id="Group_4825" data-name="Group 4825" transform="translate(-96 -4531.946)">
    <ellipse id="Ellipse_540" data-name="Ellipse 540" cx="879" cy="451.5" rx="879" ry="451.5" transform="translate(96 4638)" fill="url(#radial-gradient)"/>
    <g id="Group_4824" data-name="Group 4824" transform="translate(70.947 4080.508)">
      <g id="Group_4789" data-name="Group 4789" transform="translate(410.308 689.309)">
        <g id="Group_4785" data-name="Group 4785" transform="translate(338.977 522.192)">
          <path id="Path_11420" data-name="Path 11420" d="M1690.76,2910.724a38.019,38.019,0,0,1-25.21-28.625l-18.738-92.74-160.29,5.692-19.727,96.614c-2.763,13.531,8.3,27.105,21.034,32.089l67.062,26.239a87.179,87.179,0,0,0,39.206,5.684l141.725-12.125a8.791,8.791,0,0,0,7.948-7.789c.482-4.178,3.385-8.869-.566-10.179Z" transform="translate(-1466.369 -2785.244)" fill="#97a6b7"/>
          <path id="Path_11421" data-name="Path 11421" d="M1702.86,2897.079a37.689,37.689,0,0,1-25.185-28.266l-18.719-91.573-156.382,5.626-19.707,95.4a27.911,27.911,0,0,0,17.267,31.679l66.994,25.908a88.015,88.015,0,0,0,39.167,5.613l141.582-11.972a8.736,8.736,0,0,0,1.985-17.005Z" transform="translate(-1476.882 -2777.24)" fill="url(#linear-gradient)"/>
        </g>
        <g id="Group_4788" data-name="Group 4788">
          <g id="Group_4786" data-name="Group 4786">
            <path id="Path_11422" data-name="Path 11422" d="M499.573,1827.159c-17.382,1.036-31.6-10.24-31.6-25.142V1264.905c0-14.9,14.221-26.41,31.6-25.657l807.345,55.892c12.762.553,19.609-9.749,19.609,2.925v456.809a24.79,24.79,0,0,1-23.095,24.363Z" transform="translate(-467.97 -1239.213)" fill="#97a6b7"/>
            <path id="Path_11423" data-name="Path 11423" d="M520.851,1827.159c-17.382,1.036-31.6-10.24-31.6-25.142V1264.905c0-14.9,14.22-26.41,31.6-25.657l803.859,34.83a24.3,24.3,0,0,1,23.095,23.986v456.809a24.79,24.79,0,0,1-23.095,24.363Z" transform="translate(-482.024 -1239.213)" fill="#fff"/>
            <path id="Path_11424" data-name="Path 11424" d="M1353.413,1309.2l-803.859-33.07c-9.293-.382-16.848,5.758-16.848,13.715v535.731c0,7.958,7.555,13.974,16.848,13.441l803.859-46.161a13.233,13.233,0,0,0,12.372-13.023V1322.025A12.971,12.971,0,0,0,1353.413,1309.2Z" transform="translate(-510.727 -1263.587)" fill="#d8dee8" opacity="0.3" style="mix-blend-mode: multiply;isolation: isolate"/>
          </g>
          <g id="Group_4787" data-name="Group 4787" transform="translate(32.524 20.871)">
            <path id="Path_11425" data-name="Path 11425" d="M1367.953,1770.433l-789.174,38.956c-8.283.409-15.015-5.067-15.015-12.231V1313.112c0-7.164,6.732-12.722,15.015-12.415l789.174,29.293a11.7,11.7,0,0,1,11.2,11.594V1758.7A11.88,11.88,0,0,1,1367.953,1770.433Z" transform="translate(-563.764 -1300.685)" fill="url(#linear-gradient-2)"/>
            <path id="Path_11426" data-name="Path 11426" d="M837.233,1407.544,657,1402.243v-17.184l180.229,5.829Z" transform="translate(-625.347 -1356.412)" fill="#fff" opacity="0.6" style="mix-blend-mode: soft-light;isolation: isolate"/>
            <path id="Path_11427" data-name="Path 11427" d="M1356.832,1419.346l-41.634-1.26v-11.74l41.634,1.346Z" transform="translate(-1060.07 -1370.472)" fill="#fff" opacity="0.36" style="mix-blend-mode: soft-light;isolation: isolate"/>
            <path id="Path_11428" data-name="Path 11428" d="M1356.832,1467.269l-41.634-1.14v-11.74l41.634,1.226Z" transform="translate(-1060.07 -1402.203)" fill="#fff" opacity="0.36" style="mix-blend-mode: soft-light;isolation: isolate"/>
            <path id="Path_11429" data-name="Path 11429" d="M1734.712,1477.966l-161.524-4.421v-11.558l161.524,4.757Z" transform="translate(-1230.468 -1407.222)" fill="url(#linear-gradient-3)"/>
            <path id="Path_11430" data-name="Path 11430" d="M1815.848,1526.9l-159.918-3.915v-11.5l159.918,4.247Z" transform="translate(-1285.117 -1439.912)" opacity="0.5" fill="url(#linear-gradient-4)"/>
            <path id="Path_11431" data-name="Path 11431" d="M1815.848,1573.491l-159.918-3.452v-11.5l159.918,3.785Z" transform="translate(-1285.117 -1470.993)" opacity="0.5" fill="url(#linear-gradient-4)"/>
            <path id="Path_11432" data-name="Path 11432" d="M1815.848,1620.087l-159.918-2.99v-11.5l159.918,3.323Z" transform="translate(-1285.117 -1502.073)" fill="#fff" opacity="0.6" style="mix-blend-mode: soft-light;isolation: isolate"/>
            <path id="Path_11433" data-name="Path 11433" d="M1356.832,1515.191l-41.634-1.019v-11.74l41.634,1.106Z" transform="translate(-1060.07 -1433.935)" fill="#fff" opacity="0.36" style="mix-blend-mode: soft-light;isolation: isolate"/>
            <path id="Path_11434" data-name="Path 11434" d="M1356.832,1563.114l-41.634-.9v-11.74l41.634.986Z" transform="translate(-1060.07 -1465.666)" fill="#fff" opacity="0.36" style="mix-blend-mode: soft-light;isolation: isolate"/>
            <path id="Path_11435" data-name="Path 11435" d="M1356.832,1611.036l-41.634-.778v-11.74l41.634.865Z" transform="translate(-1060.07 -1497.397)" fill="#fff" opacity="0.36" style="mix-blend-mode: soft-light;isolation: isolate"/>
            <path id="Path_11436" data-name="Path 11436" d="M1356.832,1658.958l-41.634-.658v-11.74l41.634.745Z" transform="translate(-1060.07 -1529.129)" fill="#fff" opacity="0.36" style="mix-blend-mode: soft-light;isolation: isolate"/>
            <path id="Path_11437" data-name="Path 11437" d="M1567.066,1662.487l-102.481-1.62v-11.634l102.481,1.833Z" transform="translate(-1158.737 -1530.893)" fill="#fff" opacity="0.6" style="mix-blend-mode: soft-light;isolation: isolate"/>
            <path id="Path_11438" data-name="Path 11438" d="M1356.832,1706.881l-41.634-.538V1694.6l41.634.625Z" transform="translate(-1060.07 -1560.859)" fill="#fff" opacity="0.36" style="mix-blend-mode: soft-light;isolation: isolate"/>
            <path id="Path_11439" data-name="Path 11439" d="M1356.832,1754.8l-41.634-.417v-11.74l41.634.5Z" transform="translate(-1060.07 -1592.591)" fill="#fff" opacity="0.36" style="mix-blend-mode: soft-light;isolation: isolate"/>
            <path id="Path_11440" data-name="Path 11440" d="M1356.832,1802.726l-41.634-.3v-11.74l41.634.384Z" transform="translate(-1060.07 -1624.322)" fill="#fff" opacity="0.36" style="mix-blend-mode: soft-light;isolation: isolate"/>
            <path id="Path_11441" data-name="Path 11441" d="M1686.811,1711.5l-113.622-1.468v-11.557l113.622,1.7Z" transform="translate(-1230.468 -1563.415)" opacity="0.5" fill="url(#linear-gradient-4)"/>
            <path id="Path_11442" data-name="Path 11442" d="M1800.489,1759.719l-144.559-1.449v-11.5l144.559,1.75Z" transform="translate(-1285.117 -1595.315)" fill="#fff" opacity="0.6" style="mix-blend-mode: soft-light;isolation: isolate"/>
            <path id="Path_11443" data-name="Path 11443" d="M1800.489,1806.358l-144.559-1.031v-11.5l144.559,1.332Z" transform="translate(-1285.117 -1626.396)" fill="url(#linear-gradient-7)"/>
            <path id="Path_11444" data-name="Path 11444" d="M1356.832,1850.648l-41.634-.176v-11.74l41.634.263Z" transform="translate(-1060.07 -1656.053)" fill="#fff" opacity="0.36" style="mix-blend-mode: soft-light;isolation: isolate"/>
            <path id="Path_11445" data-name="Path 11445" d="M1356.832,1898.57l-41.634-.056v-11.74l41.634.143Z" transform="translate(-1060.07 -1687.785)" fill="#fff" opacity="0.36" style="mix-blend-mode: soft-light;isolation: isolate"/>
            <path id="Path_11446" data-name="Path 11446" d="M1356.832,1946.493l-41.634.064v-11.74l41.634.023Z" transform="translate(-1060.07 -1719.516)" fill="#fff" opacity="0.36" style="mix-blend-mode: soft-light;isolation: isolate"/>
            <path id="Path_11447" data-name="Path 11447" d="M1356.832,1994.225l-41.634.184v-11.74l41.634-.1Z" transform="translate(-1060.07 -1751.057)" fill="#fff" opacity="0.36" style="mix-blend-mode: soft-light;isolation: isolate"/>
            <path id="Path_11448" data-name="Path 11448" d="M1356.832,2041.913l-41.634.3v-11.74l41.634-.218Z" transform="translate(-1060.07 -1782.554)" fill="#fff" opacity="0.36" style="mix-blend-mode: soft-light;isolation: isolate"/>
            <path id="Path_11449" data-name="Path 11449" d="M1356.832,2089.6l-41.634.425v-11.74l41.634-.339Z" transform="translate(-1060.07 -1814.051)" fill="#fff" opacity="0.36" style="mix-blend-mode: soft-light;isolation: isolate"/>
            <path id="Path_11450" data-name="Path 11450" d="M1356.832,2137.289l-41.634.546v-11.74l41.634-.459Z" transform="translate(-1060.07 -1845.548)" fill="#fff" opacity="0.36" style="mix-blend-mode: soft-light;isolation: isolate"/>
            <path id="Path_11451" data-name="Path 11451" d="M1356.832,2184.978l-41.634.666V2173.9l41.634-.579Z" transform="translate(-1060.07 -1877.045)" fill="#fff" opacity="0.36" style="mix-blend-mode: soft-light;isolation: isolate"/>
            <path id="Path_11452" data-name="Path 11452" d="M1356.832,2232.666l-41.634.786v-11.74l41.634-.7Z" transform="translate(-1060.07 -1908.542)" fill="#fff" opacity="0.36" style="mix-blend-mode: soft-light;isolation: isolate"/>
            <path id="Path_11453" data-name="Path 11453" d="M1356.832,2280.354l-41.634.907v-11.74l41.634-.82Z" transform="translate(-1060.07 -1940.04)" fill="#fff" opacity="0.36" style="mix-blend-mode: soft-light;isolation: isolate"/>
            <path id="Path_11454" data-name="Path 11454" d="M1356.832,2328.042l-41.634,1.027v-11.74l41.634-.94Z" transform="translate(-1060.07 -1971.536)" fill="#fff" opacity="0.36" style="mix-blend-mode: soft-light;isolation: isolate"/>
            <path id="Path_11455" data-name="Path 11455" d="M1356.832,2375.73l-41.634,1.147v-11.74l41.634-1.061Z" transform="translate(-1060.07 -2003.034)" fill="#fff" opacity="0.36" style="mix-blend-mode: soft-light;isolation: isolate"/>
            <path id="Path_11456" data-name="Path 11456" d="M1356.832,2423.418l-41.634,1.268v-11.74l41.634-1.181Z" transform="translate(-1060.07 -2034.531)" fill="#fff" opacity="0.36" style="mix-blend-mode: soft-light;isolation: isolate"/>
            <path id="Path_11457" data-name="Path 11457" d="M1356.832,2471.107,1315.2,2472.5v-11.74l41.634-1.3Z" transform="translate(-1060.07 -2066.028)" fill="#fff" opacity="0.36" style="mix-blend-mode: soft-light;isolation: isolate"/>
            <path id="Path_11458" data-name="Path 11458" d="M1356.832,2518.795,1315.2,2520.3v-11.74l41.634-1.422Z" transform="translate(-1060.07 -2097.525)" fill="#fff" opacity="0.36" style="mix-blend-mode: soft-light;isolation: isolate"/>
            <path id="Path_11459" data-name="Path 11459" d="M1356.832,2566.483l-41.634,1.629v-11.74l41.634-1.542Z" transform="translate(-1060.07 -2129.022)" fill="#fff" opacity="0.36" style="mix-blend-mode: soft-light;isolation: isolate"/>
            <path id="Path_11460" data-name="Path 11460" d="M1356.832,2614.172l-41.634,1.749v-11.74l41.634-1.663Z" transform="translate(-1060.07 -2160.519)" fill="#fff" opacity="0.36" style="mix-blend-mode: soft-light;isolation: isolate"/>
            <path id="Path_11461" data-name="Path 11461" d="M1356.832,2661.86l-41.634,1.87v-11.74l41.634-1.783Z" transform="translate(-1060.07 -2192.016)" fill="#fff" opacity="0.36" style="mix-blend-mode: soft-light;isolation: isolate"/>
            <path id="Path_11462" data-name="Path 11462" d="M1577.3,1426.222l-113.548-3.436v-11.635l113.548,3.672Z" transform="translate(-1158.187 -1373.646)" opacity="0.5" fill="url(#linear-gradient-4)"/>
            <path id="Path_11463" data-name="Path 11463" d="M1734.712,2405.649l-161.524,4.919V2399.01l161.524-4.582Z" transform="translate(-1230.468 -2023.079)" fill="#fff" opacity="0.6" style="mix-blend-mode: soft-light;isolation: isolate"/>
            <path id="Path_11464" data-name="Path 11464" d="M1815.848,2449.077l-159.918,5.332v-11.5l159.918-5Z" transform="translate(-1285.117 -2051.799)" opacity="0.5" fill="url(#linear-gradient-4)"/>
            <path id="Path_11465" data-name="Path 11465" d="M1815.848,2494.773l-159.918,5.794v-11.5l159.918-5.462Z" transform="translate(-1285.117 -2081.98)" opacity="0.5" fill="url(#linear-gradient-4)"/>
            <path id="Path_11466" data-name="Path 11466" d="M2026.874,2532.807,1871.1,2538.9v-11.348l155.777-5.771Z" transform="translate(-1427.23 -2107.195)" opacity="0.5" fill="url(#linear-gradient-4)"/>
            <path id="Path_11467" data-name="Path 11467" d="M2026.874,2577.916,1871.1,2584.46v-11.347l155.777-6.221Z" transform="translate(-1427.23 -2136.989)" fill="url(#linear-gradient-12)"/>
            <path id="Path_11468" data-name="Path 11468" d="M2026.874,2623.025l-155.777,7v-11.347L2026.874,2612Z" transform="translate(-1427.23 -2166.783)" fill="#fff" opacity="0.6" style="mix-blend-mode: soft-light;isolation: isolate"/>
            <path id="Path_11469" data-name="Path 11469" d="M1577.3,2366.294l-113.548,3.129v-11.635L1577.3,2354.9Z" transform="translate(-1158.187 -1996.969)" opacity="0.5" fill="url(#linear-gradient-4)"/>
            <path id="Path_11470" data-name="Path 11470" d="M1734.712,1899.435l-161.524-.218v-11.558l161.524.554Z" transform="translate(-1230.468 -1688.369)" opacity="0.5" fill="url(#linear-gradient-4)"/>
            <path id="Path_11471" data-name="Path 11471" d="M1815.848,1946.254l-159.918.246V1935l159.918.086Z" transform="translate(-1285.117 -1719.638)" fill="#fff" opacity="0.6" style="mix-blend-mode: soft-light;isolation: isolate"/>
            <path id="Path_11472" data-name="Path 11472" d="M1815.848,1992.118l-159.918.709v-11.5l159.918-.376Z" transform="translate(-1285.117 -1749.987)" opacity="0.5" fill="url(#linear-gradient-4)"/>
            <path id="Path_11473" data-name="Path 11473" d="M1815.848,2037.813l-159.918,1.171v-11.5l159.918-.838Z" transform="translate(-1285.117 -1780.168)" opacity="0.5" fill="url(#linear-gradient-4)"/>
            <path id="Path_11474" data-name="Path 11474" d="M1567.066,2086.7l-102.481,1.047v-11.635l102.481-.833Z" transform="translate(-1158.737 -1812.286)" opacity="0.5" fill="url(#linear-gradient-4)"/>
            <path id="Path_11475" data-name="Path 11475" d="M1686.811,2131.776l-113.622,1.489v-11.558l113.622-1.252Z" transform="translate(-1230.468 -1842.126)" fill="#fff" opacity="0.6" style="mix-blend-mode: soft-light;isolation: isolate"/>
            <path id="Path_11476" data-name="Path 11476" d="M1800.489,2175.563l-144.559,2.312v-11.5l144.559-2.012Z" transform="translate(-1285.117 -1871.127)" fill="url(#linear-gradient-18)"/>
            <path id="Path_11477" data-name="Path 11477" d="M1800.489,2221.389l-144.559,2.73v-11.5l144.559-2.43Z" transform="translate(-1285.117 -1901.395)" opacity="0.5" fill="url(#linear-gradient-4)"/>
            <path id="Path_11478" data-name="Path 11478" d="M1898.262,2265.29l-142.819,3.11v-11.429l142.819-2.813Z" transform="translate(-1350.843 -1930.434)" opacity="0.5" fill="url(#linear-gradient-4)"/>
            <path id="Path_11479" data-name="Path 11479" d="M1898.262,2310.844l-142.819,3.523v-11.429l142.819-3.226Z" transform="translate(-1350.843 -1960.522)" opacity="0.5" fill="url(#linear-gradient-4)"/>
            <path id="Path_11480" data-name="Path 11480" d="M1577.3,1851.787l-113.548-.482v-11.635l113.548.718Z" transform="translate(-1158.187 -1656.674)" fill="url(#linear-gradient-22)"/>
            <path id="Path_11481" data-name="Path 11481" d="M987.158,1489.962,884,1487.4v-16.958l103.159,2.864Z" transform="translate(-775.273 -1412.806)" fill="#fff" style="mix-blend-mode: soft-light;isolation: isolate"/>
            <path id="Path_11482" data-name="Path 11482" d="M805.412,1485.3l19.429.482V1468.8l-19.429-.539Z" transform="translate(-723.367 -1411.365)" fill="#fff" opacity="0.6" style="mix-blend-mode: soft-light;isolation: isolate"/>
            <path id="Path_11483" data-name="Path 11483" d="M987.158,1561.326,884,1559.2V1542.24l103.159,2.43Z" transform="translate(-775.273 -1460.227)" fill="#fff" opacity="0.6" style="mix-blend-mode: soft-light;isolation: isolate"/>
            <path id="Path_11484" data-name="Path 11484" d="M805.412,1557.425l19.429.4v-16.979l-19.429-.457Z" transform="translate(-723.367 -1459.005)" fill="#fff" opacity="0.6" style="mix-blend-mode: soft-light;isolation: isolate"/>
            <path id="Path_11485" data-name="Path 11485" d="M987.158,1632.69,884,1631v-16.958l103.159,2Z" transform="translate(-775.273 -1507.649)" fill="#fff" opacity="0.6" style="mix-blend-mode: soft-light;isolation: isolate"/>
            <path id="Path_11486" data-name="Path 11486" d="M805.412,1629.555l19.429.319v-16.979l-19.429-.376Z" transform="translate(-723.367 -1506.645)" fill="#fff" opacity="0.6" style="mix-blend-mode: soft-light;isolation: isolate"/>
            <path id="Path_11487" data-name="Path 11487" d="M837.233,2137.13,657,2139.56v-17.184l180.229-1.9Z" transform="translate(-625.347 -1842.139)" fill="#fff" style="mix-blend-mode: soft-light;isolation: isolate"/>
            <path id="Path_11488" data-name="Path 11488" d="M987.158,2213.781,884,2215.644v-16.958l103.159-1.561Z" transform="translate(-775.273 -1892.765)" fill="#fff" opacity="0.6" style="mix-blend-mode: soft-light;isolation: isolate"/>
            <path id="Path_11489" data-name="Path 11489" d="M805.412,2219.375l19.429-.351v-16.979l-19.429.294Z" transform="translate(-723.367 -1896.014)" fill="#fff" opacity="0.6" style="mix-blend-mode: soft-light;isolation: isolate"/>
            <path id="Path_11490" data-name="Path 11490" d="M987.158,2284.3,884,2286.6v-16.958l103.159-2Z" transform="translate(-775.273 -1939.341)" fill="#fff" opacity="0.6" style="mix-blend-mode: soft-light;isolation: isolate"/>
            <path id="Path_11491" data-name="Path 11491" d="M805.412,2291.345l19.429-.433v-16.979l-19.429.376Z" transform="translate(-723.367 -1943.495)" fill="#fff" opacity="0.6" style="mix-blend-mode: soft-light;isolation: isolate"/>
            <path id="Path_11492" data-name="Path 11492" d="M987.158,2354.818,884,2357.55v-16.958l103.159-2.429Z" transform="translate(-775.273 -1985.917)" fill="#fff" opacity="0.6" style="mix-blend-mode: soft-light;isolation: isolate"/>
            <path id="Path_11493" data-name="Path 11493" d="M805.412,2363.315l19.429-.514v-16.979l-19.429.458Z" transform="translate(-723.367 -1990.976)" fill="#fff" opacity="0.6" style="mix-blend-mode: soft-light;isolation: isolate"/>
            <path id="Path_11494" data-name="Path 11494" d="M837.233,1702.273,657,1700.079V1682.9l180.229,2.722Z" transform="translate(-625.347 -1553.127)" fill="#fff" style="mix-blend-mode: soft-light;isolation: isolate"/>
            <path id="Path_11495" data-name="Path 11495" d="M987.158,1782.106,884,1781.323v-16.958l103.159,1.086Z" transform="translate(-775.273 -1606.936)" fill="#fff" opacity="0.6" style="mix-blend-mode: soft-light;isolation: isolate"/>
            <path id="Path_11496" data-name="Path 11496" d="M805.412,1780.574l19.429.147v-16.979l-19.429-.2Z" transform="translate(-723.367 -1606.39)" fill="#fff" opacity="0.6" style="mix-blend-mode: soft-light;isolation: isolate"/>
            <path id="Path_11497" data-name="Path 11497" d="M987.158,1853.47,884,1853.121v-16.958l103.159.651Z" transform="translate(-775.273 -1654.357)" fill="#fff" opacity="0.6" style="mix-blend-mode: soft-light;isolation: isolate"/>
            <path id="Path_11498" data-name="Path 11498" d="M805.412,1852.7l19.429.066V1835.79l-19.429-.123Z" transform="translate(-723.367 -1654.029)" fill="#fff" opacity="0.6" style="mix-blend-mode: soft-light;isolation: isolate"/>
            <path id="Path_11499" data-name="Path 11499" d="M987.158,1996.69,884,1997.215v-16.958l103.159-.223Z" transform="translate(-775.273 -1749.381)" fill="#fff" opacity="0.6" style="mix-blend-mode: soft-light;isolation: isolate"/>
            <path id="Path_11500" data-name="Path 11500" d="M805.412,1997.816l19.429-.1v-16.979l-19.429.042Z" transform="translate(-723.367 -1749.846)" fill="#fff" opacity="0.6" style="mix-blend-mode: soft-light;isolation: isolate"/>
            <path id="Path_11501" data-name="Path 11501" d="M987.158,2067.209l-103.159.96v-16.958l103.159-.658Z" transform="translate(-775.273 -1795.957)" fill="#fff" opacity="0.6" style="mix-blend-mode: soft-light;isolation: isolate"/>
            <path id="Path_11502" data-name="Path 11502" d="M805.412,2069.786l19.429-.181v-16.979l-19.429.124Z" transform="translate(-723.367 -1797.327)" fill="#fff" opacity="0.6" style="mix-blend-mode: soft-light;isolation: isolate"/>
            <path id="Path_11503" data-name="Path 11503" d="M987.158,1924.834,884,1924.919v-16.958l103.159.217Z" transform="translate(-775.273 -1701.779)" fill="#fff" opacity="0.6" style="mix-blend-mode: soft-light;isolation: isolate"/>
            <path id="Path_11504" data-name="Path 11504" d="M805.412,1924.832l19.429-.016v-16.979l-19.429-.041Z" transform="translate(-723.367 -1701.669)" fill="#fff" opacity="0.6" style="mix-blend-mode: soft-light;isolation: isolate"/>
            <path id="Path_11505" data-name="Path 11505" d="M837.233,2425.313,657,2430.844V2413.66l180.229-5Z" transform="translate(-625.347 -2032.478)" fill="#fff" style="mix-blend-mode: soft-light;isolation: isolate"/>
            <path id="Path_11506" data-name="Path 11506" d="M987.158,2501.963,884,2505.6v-16.958l103.159-3.336Z" transform="translate(-775.273 -2083.104)" fill="#fff" opacity="0.6" style="mix-blend-mode: soft-light;isolation: isolate"/>
            <path id="Path_11507" data-name="Path 11507" d="M805.412,2513.489l19.429-.685v-16.979l-19.429.629Z" transform="translate(-723.367 -2090.05)" fill="#fff" opacity="0.6" style="mix-blend-mode: soft-light;isolation: isolate"/>
            <path id="Path_11508" data-name="Path 11508" d="M987.158,2572.482,884,2576.555V2559.6l103.159-3.771Z" transform="translate(-775.273 -2129.68)" fill="#fff" opacity="0.6" style="mix-blend-mode: soft-light;isolation: isolate"/>
            <path id="Path_11509" data-name="Path 11509" d="M805.412,2585.459l19.429-.767v-16.979l-19.429.71Z" transform="translate(-723.367 -2137.53)" fill="#fff" opacity="0.6" style="mix-blend-mode: soft-light;isolation: isolate"/>
            <path id="Path_11510" data-name="Path 11510" d="M987.158,2643,884,2647.508V2630.55l103.159-4.2Z" transform="translate(-775.273 -2176.256)" fill="#fff" opacity="0.6" style="mix-blend-mode: soft-light;isolation: isolate"/>
            <path id="Path_11511" data-name="Path 11511" d="M805.412,2657.428l19.429-.849V2639.6l-19.429.792Z" transform="translate(-723.367 -2185.011)" fill="#fff" opacity="0.6" style="mix-blend-mode: soft-light;isolation: isolate"/>
            <path id="Path_11512" data-name="Path 11512" d="M1244.622,1834.751l-3.969.173V1403.936l3.969.129Z" transform="translate(-1010.835 -1368.88)" fill="#fff" opacity="0.6" style="mix-blend-mode: soft-light;isolation: isolate"/>
          </g>
          <path id="Path_11513" data-name="Path 11513" d="M1240.79,1745.991c-174.989,3.658-214.34,28.644-264.063-1.294C908.4,1703.56,939.519,1630.382,872.95,1592c-83.691-48.258-180.183,40.124-223.862-2.965-43.5-42.911,38.673-143.9-8.9-256.478-19.089-45.177-51.593-74.52-74.047-91.343l-45.294-1.963c-17.382-.753-31.6,10.755-31.6,25.657v537.111c0,14.9,14.22,26.179,31.6,25.143l803.859-47.922a24.79,24.79,0,0,0,23.095-24.363v-8.121C1323.712,1745.9,1286.393,1745.038,1240.79,1745.991Z" transform="translate(-482.024 -1239.213)" fill="#fff" opacity="0.6" style="mix-blend-mode: soft-light;isolation: isolate"/>
        </g>
      </g>
      <g id="Group_4792" data-name="Group 4792" transform="translate(1100.639 616.781)">
        <g id="Group_4790" data-name="Group 4790" transform="translate(0 38.231)">
          <path id="Path_11514" data-name="Path 11514" d="M2547.748,1313.518c43.021,39.021,97.807,49.325,125.4,24.525l.019.014.1-.122a44.75,44.75,0,0,0,3.256-3.209,47.342,47.342,0,0,0,3.594-4.5l33.363-37.568,6.929-7.81-49.943-43.929a162.982,162.982,0,0,0-27.548-32.306,161.35,161.35,0,0,0-39.268-26.464L2553.66,1138.2l-39.071,48.75c-.142.159-.3.3-.445.463a44.159,44.159,0,0,0-4.007,5.1,48.243,48.243,0,0,0-4.807,9.012C2492.827,1232.32,2509.374,1278.7,2547.748,1313.518Z" transform="translate(-2501.219 -1138.196)" fill="url(#linear-gradient-23)"/>
          <path id="Path_11515" data-name="Path 11515" d="M2548.071,1437.039c11.625,11.05,24.8,20.387,39.1,26.707,14.669,6.486,35.389,12.391,51.618,11.033,26.985-2.259,39.718-19.368,56.209-37.731,6.356-7.077,13.182-13.764,19.153-21.178-15.668-1.995-36,3.131-50.7,8.3-12.7,4.467-24.783,11.738-38.242,13.737-29.675,4.407-61.374-14-76.213-39.247-9.068-15.426-5.458-35.439-17.1-49.726-7.528-9.234-19.17-14.289-25.924-24.215,1.21,1.779-3,14.4-3.3,17.083a73.875,73.875,0,0,0,.212,18.544c2.018,14.375,8.155,27.94,15.73,40.2A184.344,184.344,0,0,0,2548.071,1437.039Z" transform="translate(-2501.851 -1261.391)" opacity="0.3" fill="url(#linear-gradient-24)" style="mix-blend-mode: multiply;isolation: isolate"/>
        </g>
        <path id="Path_11516" data-name="Path 11516" d="M2528.978,1030.672l173.424,38.8,74.606,161.294,4.786,3.861-1.667,2.067h0l-180.31-40.3-77.529-167.705h0l1.667-2.067Z" transform="translate(-2515.135 -1026.272)" fill="url(#linear-gradient-25)"/>
        <path id="Path_11517" data-name="Path 11517" d="M2708.647,1065.953l77.6,167.76-180.377-40.358-77.6-167.76Z" transform="translate(-2519.085 -1025.594)" fill="url(#linear-gradient-26)"/>
        <g id="Group_4791" data-name="Group 4791" transform="translate(139.818 90.288)">
          <path id="Path_11518" data-name="Path 11518" d="M2970.119,1492.707a2.629,2.629,0,0,0,2.97-2.034l19.581-89.2a2.631,2.631,0,0,0-.411-2.068l-74.444-106.755a2.629,2.629,0,0,0-4.313,3.008l73.787,105.811-19.334,88.078a2.629,2.629,0,0,0,2,3.132C2970.012,1492.689,2970.066,1492.7,2970.119,1492.707Z" transform="translate(-2913.029 -1291.522)" fill="url(#linear-gradient-27)"/>
        </g>
        <path id="Path_11519" data-name="Path 11519" d="M3072.413,1860.371l-1.575-3.483a3.96,3.96,0,0,0-6.94-.5l-1.874,3.316a5.668,5.668,0,0,0-.664,2.668l-2.557,29.074c-.055.624,2.333,1.344,5.663,1.637s5.807,0,5.862-.624l2.564-29.156A5.822,5.822,0,0,0,3072.413,1860.371Z" transform="translate(-2869.491 -1573.113)" fill="url(#linear-gradient-28)"/>
      </g>
      <g id="Group_4799" data-name="Group 4799" transform="translate(1047.713 917.096)">
        <path id="Path_11520" data-name="Path 11520" d="M2556.643,2128.025c-8.289-8.85,14.658-42.1,26.941-56.668,10.729-12.728,21.759-25.81,35.3-24.154,11.89,1.454,23.461,13.994,24.153,26.012C2644.9,2105.545,2568.427,2140.606,2556.643,2128.025Z" transform="translate(-2483.735 -2000.567)" fill="url(#linear-gradient-29)"/>
        <path id="Path_11521" data-name="Path 11521" d="M2801.616,3290.99c1.56,1.269,1.847,4.436,2.035,6.506a5.11,5.11,0,0,1,.022,1.714c-.753,2.383-5.375,2.634-12.621,3.374-11.452,1.17-14.86,2.071-15.757.367-.84-1.6,1.193-4.212,1.421-4.5,1.231-1.55,2.741-2.113,5.661-3.075,5.4-1.778,9.054-2.752,10.158-3.047C2799.439,3290.487,2800.592,3290.157,2801.616,3290.99Z" transform="translate(-2629.182 -2821.87)" fill="url(#linear-gradient-30)"/>
        <path id="Path_11522" data-name="Path 11522" d="M2830.924,3261.017l-1.146,13.05c.326.63,4.2,2.521,7.286.9l2.944-12.827Z" transform="translate(-2665.3 -2802.36)" fill="#d8dee8"/>
        <path id="Path_11523" data-name="Path 11523" d="M2527.747,3283.161c1.87,2.065,2.3,5.868.669,7.742-1.6,1.842-4,.46-10.819.663-7.3.218-9.209,1.943-14.171.574-2-.554-5.545-1.9-5.478-3.329.047-1.007,1.85-1.527,7.87-3.543,8.546-2.863,8.508-3.019,10.323-3.32C2520.7,3281.192,2525.277,3280.434,2527.747,3283.161Z" transform="translate(-2446.133 -2815.718)" fill="url(#linear-gradient-31)"/>
        <path id="Path_11524" data-name="Path 11524" d="M2564.811,3251.814,2561.148,3264c.277.653,4,2.833,7.2,1.452l5.439-11.825Z" transform="translate(-2487.876 -2796.281)" fill="#d8dee8"/>
        <path id="Path_11525" data-name="Path 11525" d="M2597.629,2465.946a1141.348,1141.348,0,0,1-36.062,270.365l14.018,3.771c11.855-11.054,26.81-28.455,34.026-53.045,4.479-15.262,2.987-23.1,5.827-41.877,4.523-29.89,13.686-45.549,23.156-69.652,8.51-21.659,18.569-53.446,23.962-95.935Z" transform="translate(-2488.152 -2277.232)" fill="url(#linear-gradient-32)"/>
        <path id="Path_11526" data-name="Path 11526" d="M2792.013,2454.076q4.29,78.109,6.994,159.1,2.007,60.761,2.973,119.969l14.32,1.768a166.761,166.761,0,0,0,14.934-38.542c5.1-20.437,3.917-32.573,6.152-53.754,2.508-23.756,6.151-28.931,12.6-58.9,13.1-60.819,19.647-91.229,5.036-110.145C2850.284,2467.426,2835.416,2452.021,2792.013,2454.076Z" transform="translate(-2640.357 -2269.268)" fill="url(#linear-gradient-33)"/>
        <path id="Path_11527" data-name="Path 11527" d="M2764.069,2051.327a222.359,222.359,0,0,0-47.624-7.953c-28.616-1.617-42.923-2.426-53.063,4.389-23.417,15.739-5.288,52.064-14.873,142.113-1.369,12.859-1.676,25.811-2.667,38.7-1.642,21.349-2.015,22.508-.53,24.672,9.315,13.566,44.069-6.9,95.008,1.192,28.5,4.526,41.428,14.952,49.236,7.432,9.106-8.77,1.295-32.359-5.429-52.665-7.718-23.309-12.485-23.609-16.866-41.163-4.58-18.348-1.81-27.795-1.1-56.728A512.537,512.537,0,0,0,2764.069,2051.327Z" transform="translate(-2542.849 -1997.392)" fill="url(#linear-gradient-34)"/>
        <g id="Group_4793" data-name="Group 4793" transform="translate(107.783 86.76)" opacity="0.3" style="mix-blend-mode: multiply;isolation: isolate">
          <path id="Path_11528" data-name="Path 11528" d="M2706.962,2301.886c13.313-1.042,21.951,6.485,33.443.619,15.759-8.043,20.823-33.071,19.819-50.784-1.526-26.913-16.894-34.007-14.245-51.4,1.432-9.408,8.149-21.9,32.266-34.66.321,10.74.26,19.895.081,27.168-.712,28.933-3.482,38.38,1.1,56.728,4.381,17.554,9.148,17.854,16.866,41.163,6.724,20.306,14.535,43.895,5.429,52.665-7.808,7.521-20.735-2.906-49.236-7.432-43.892-6.969-75.75,7.24-89.688,2.632C2679.637,2310.748,2694.914,2302.829,2706.962,2301.886Z" transform="translate(-2662.794 -2165.657)" fill="url(#linear-gradient-35)"/>
        </g>
        <path id="Path_11529" data-name="Path 11529" d="M2879.336,2068.272c9.507-7.813,28.628,1.031,33.739,3.4,28.5,13.183,54.09,48.709,47.75,86.252-.951,5.63-5.36,31.967-27.661,44.727-20.122,11.514-47.292,8.553-69.062-7.755l-8.926-7.919-8.781-9.491a70.48,70.48,0,0,1,23.4-12.891c14.475-4.671,25.013,3.71,31.729-2.661,4.634-4.4,4.645-12.165,3.5-16.872-2.307-9.487-10.67-12.156-17.651-18.889C2870.971,2110.347,2867.95,2077.627,2879.336,2068.272Z" transform="translate(-2676.275 -2012.49)" fill="url(#linear-gradient-36)"/>
        <g id="Group_4794" data-name="Group 4794" transform="translate(66.086 176.303)">
          <path id="Path_11530" data-name="Path 11530" d="M2540.308,2431.7l127.451-1.9-33.892,16.356-93.886-6.145Z" transform="translate(-2539.982 -2429.661)" fill="url(#linear-gradient-37)"/>
          <path id="Path_11531" data-name="Path 11531" d="M2842.728,2432.917h0a5.674,5.674,0,0,1-3.734,5.331l-40.725,15.965-.186-11.068,40.147-13.615A3.524,3.524,0,0,1,2842.728,2432.917Z" transform="translate(-2710.452 -2429.391)" fill="url(#linear-gradient-38)"/>
        </g>
        <path id="Path_11532" data-name="Path 11532" d="M2809.791,2401.312c.782-.174-3.81-9.326-7.416-8.27s-21.24,11.276-22.843,15.485l-1.6,4.208s7.693.6,12.463-1S2803.43,2402.73,2809.791,2401.312Z" transform="translate(-2631.055 -2229.024)" fill="#fff"/>
        <g id="Group_4796" data-name="Group 4796" transform="translate(0 104.396)">
          <g id="Group_4795" data-name="Group 4795">
            <path id="Path_11533" data-name="Path 11533" d="M2495.946,2225.6l8.984,81.8c.31,2.823-3.641,7.027-6.478,6.893l-131.792-8.09a4.621,4.621,0,0,1-4.335-3.834l-16.542-79c-.494-2.875,4.675-5.844,7.59-5.762l138.109,3.883A4.62,4.62,0,0,1,2495.946,2225.6Z" transform="translate(-2345.61 -2217.602)" fill="url(#linear-gradient-39)"/>
            <path id="Path_11534" data-name="Path 11534" d="M2492.66,2232.627l8.984,81.8a4.621,4.621,0,0,1-4.811,5.12l-133.458-6.318a4.621,4.621,0,0,1-4.335-3.833l-13.635-79.364a4.621,4.621,0,0,1,4.684-5.4l138.109,3.884A4.618,4.618,0,0,1,2492.66,2232.627Z" transform="translate(-2345.337 -2222.242)" fill="url(#linear-gradient-40)"/>
          </g>
          <path id="Path_11535" data-name="Path 11535" d="M2437.29,2301.071c11.653-4.939,7.54-14.357,21.3-26.094,18.155-15.483,36.658-8.768,43.136-20.769,2.017-3.738,2.981-9.553-.533-18.966l10,.281a4.618,4.618,0,0,1,4.462,4.114l8.985,81.8a4.622,4.622,0,0,1-4.812,5.121l-133.458-6.318a4.621,4.621,0,0,1-4.335-3.833l-1.882-10.951a50.393,50.393,0,0,1,14.534-5.448C2414.268,2296.035,2423.874,2306.758,2437.29,2301.071Z" transform="translate(-2368.333 -2229.254)" opacity="0.3" fill="url(#linear-gradient-41)" style="mix-blend-mode: multiply;isolation: isolate"/>
        </g>
        <path id="Path_11536" data-name="Path 11536" d="M2373.6,2449.1a1.041,1.041,0,0,1,.936-1.373c2.821-.144,9.363-.2,12.974,2.009,4.692,2.874,10.758,8.118,5.649,10.763l-4.771,2.472a1.018,1.018,0,0,1-.7.1c-1.7-.373-8.83-1.956-9.609-2.348C2377.367,2460.361,2374.647,2452.289,2373.6,2449.1Z" transform="translate(-2363.966 -2265.159)" fill="#fff"/>
        <g id="Group_4798" data-name="Group 4798" transform="translate(142.142 0)">
          <path id="Path_11537" data-name="Path 11537" d="M2793.31,1953.468a99.164,99.164,0,0,0,1.771,19.819c1.026,5.279,1.765,6.643,2.708,7.75,1.42,1.666,3.572,3.063,15.728,6.078,6.615,1.64,7.466,1.6,7.612,2.251.713,3.2-17.326,14.117-35.962,11.487-11.406-1.61-21.783-8.117-21.146-11.534.641-3.439,12.034-1.594,15.43-7.816,2.363-4.328-.286-10.472-3.416-15.561C2779.066,1960.263,2790.279,1959.149,2793.31,1953.468Z" transform="translate(-2763.992 -1938.751)" fill="#fff"/>
          <g id="Group_4797" data-name="Group 4797" transform="translate(6.098)">
            <path id="Path_11538" data-name="Path 11538" d="M2784,1928.192a12,12,0,0,1,.244-13.764c2.669-3.4,6.869-3.88,9.384-4.17,7.287-.841,16.481,2.2,19.679,8.907,1.894,3.974-2.2,12.232-2.846,13.717-.727,1.678-2.044,2.254-3.264,3.524-1.69,1.76-4.334,4.559-8.651,9.24a30.1,30.1,0,0,0-1.656-4.944,26.533,26.533,0,0,0-3.46-5.81C2789.633,1930.26,2786.554,1931.581,2784,1928.192Z" transform="translate(-2781.951 -1910.121)" fill="url(#linear-gradient-42)"/>
            <path id="Path_11539" data-name="Path 11539" d="M2806.263,1968.127s-4.79,7.859-14.327,7.238c-8.54-.556-9.79-19.706-4.336-23.77,1.819-1.355,5.464-1.918,8.427-1.088,1.75.491,2.343,1.218,5.218,1.963,2.653.689,3.4.395,4.2,1.068,1,.843,1.735,2.909.063,8.508,1.629-1.649,3.584-2.282,4.97-1.628a2.917,2.917,0,0,1,1.137,1.108C2812.811,1963.713,2810.813,1966.506,2806.263,1968.127Z" transform="translate(-2783.51 -1936.539)" fill="#fff"/>
            <path id="Path_11540" data-name="Path 11540" d="M2805.3,1956.73c-.412.307.847,1.844.941,4.018.183,4.221-4.09,9.288-8.448,9.718-2.577.254-3.285-1.3-7.545-1.749a19.5,19.5,0,0,0-6.214.359c-1.339,4.63-.079,9.245,3.015,11.387,3.331,2.306,7.587.907,9.366.322,1.19-.392,5-1.637,7-5.135,2.077-3.645.039-5.842,2.421-8.307,1.2-1.244,2.78-1.782,4.317-4.189a11.926,11.926,0,0,0,.866-1.622C2808.811,1959.2,2805.893,1956.285,2805.3,1956.73Z" transform="translate(-2782.973 -1940.875)" fill="url(#linear-gradient-43)"/>
            <path id="Path_11541" data-name="Path 11541" d="M2792.837,1998.156a10.4,10.4,0,0,0,5.031.784c.155-.01.326.037.346.117.073.3-1.971,1.658-3.855,1.129-1.337-.376-2.378-1.643-2.2-1.965C2792.237,1998.085,2792.54,1998.1,2792.837,1998.156Z" transform="translate(-2788.681 -1968.24)" fill="#fff"/>
          </g>
        </g>
      </g>
      <g id="Group_4802" data-name="Group 4802" transform="translate(488.331 912.379)">
        <path id="Path_11542" data-name="Path 11542" d="M742.753,2097.271c-2.265.856-36.8,14.59-43.9,50.635-.574,2.912-6.122,33.88,14.88,55.758,23.55,24.532,68.9,23.924,86.9,3.415a36.771,36.771,0,0,0,7.652-14.537h0l-4.743-12.6c-5.787-6.986-13.666-8.642-17.874-9.679-10.374-2.557-18.206,2.064-24.147-2.939-3.287-2.767-3.94-6.75-4.524-10.31-1.987-12.12,4.854-19.581,5.352-27.055.372-5.587,2.328-17.831-4.965-25.814C752.765,2099.09,746.368,2097.713,742.753,2097.271Z" transform="translate(-697.771 -2029.012)" fill="url(#linear-gradient-44)"/>
        <path id="Path_11543" data-name="Path 11543" d="M764.468,3275.087c-.4-2.219-7.569-4.228-11.117-1.255-1.762,1.476-2.975,4.467-1.956,5.818.371.491-1.148,1.356.307,1.373C756.53,3281.079,764.869,3277.292,764.468,3275.087Z" transform="translate(-732.943 -2805.118)" fill="url(#linear-gradient-45)"/>
        <path id="Path_11544" data-name="Path 11544" d="M754.164,3247.327l-7.37-1.042c3.415-4.111,2.782-17.2,2.782-17.2l7.838,1.749s-.893,3.594-2.412,8.894A34.775,34.775,0,0,0,754.164,3247.327Z" transform="translate(-730.15 -2776.551)" fill="url(#linear-gradient-46)"/>
        <path id="Path_11545" data-name="Path 11545" d="M750,3278.2s-8.873-2.044-9.833-.284-1.705,6.473,3.924,6.321S750.5,3279.693,750,3278.2Z" transform="translate(-725.335 -2808.332)" fill="url(#linear-gradient-47)"/>
        <path id="Path_11546" data-name="Path 11546" d="M1063.391,3301.166c-.709-2.141-8.086-3.126-11.184.313-1.537,1.708-2.32,4.84-1.122,6.034.436.435-.947,1.5.5,1.317C1056.37,3308.21,1064.1,3303.293,1063.391,3301.166Z" transform="translate(-930.743 -2822.876)" fill="url(#linear-gradient-48)"/>
        <path id="Path_11547" data-name="Path 11547" d="M1052.413,3276.507h-7.443c2.806-4.549.347-17.422.347-17.422l8.006.635s-.381,3.683-1.143,9.144A34.753,34.753,0,0,0,1052.413,3276.507Z" transform="translate(-927.089 -2796.366)" fill="url(#linear-gradient-49)"/>
        <path id="Path_11548" data-name="Path 11548" d="M877.424,2469.623a344.412,344.412,0,0,1,11.541,52.82c9.041,65.764-10.175,67.863-6.586,140.738,1.145,23.262-20.153,76.9-22.03,78.087a23.191,23.191,0,0,1-2.946.115,29.369,29.369,0,0,1-7.5-1.251c-3.374-.581-15.538-33.528-12.718-53.117,2-13.865,1.417-28.744.26-58.5-.187-4.822-12.524-93.812-12.524-93.812h0c-3.753,32.939-8.069,60.927-11.81,82.627-12.021,69.717-51.106,111.914-53.145,112.591-.4.162-4.07,1.494-7.069-.482a4.879,4.879,0,0,1-1.789-2.015c-1.045-.819.308-69.6,12.23-121.371,17.3-75.14,9.769-92.721,15.251-126.283C783.331,2450.726,877.424,2469.623,877.424,2469.623Z" transform="translate(-732.81 -2270.952)" fill="url(#linear-gradient-50)"/>
        <path id="Path_11549" data-name="Path 11549" d="M907.642,2225.958c-10.391,5.333-37.154,14.889-69.051,10.142a107.455,107.455,0,0,1-33.691-10.964c-.249-.125-.5-.249-.735-.374,8.285-25.056,1.794-38.463-1.271-50.823-4.373-17.617-4.436-16.284-8.037-30.289-5.93-23.1-6.9-46.7-2.828-51.52,10.99-13.021,30.8-13.494,41.08-13.805,11.487-.337,37.9-4.386,52.442,8.7.249.224-2.729,1.819-1.258,3.539a95.726,95.726,0,0,1,10.266,14.74,99.157,99.157,0,0,1,8.635,21.344,183.908,183.908,0,0,1,6.815,37.254c.15,2.056.287,4.049.411,5.968C912.352,2200.74,909.9,2215.641,907.642,2225.958Z" transform="translate(-758.394 -2015.936)" fill="url(#linear-gradient-51)"/>
        <path id="Path_11550" data-name="Path 11550" d="M1048.757,3307.167s-9.072-.782-9.776,1.095-.782,6.647,4.771,5.709S1049.46,3308.575,1048.757,3307.167Z" transform="translate(-922.912 -2828.017)" fill="url(#linear-gradient-52)"/>
        <g id="Group_4800" data-name="Group 4800" transform="translate(59.353 0)">
          <path id="Path_11551" data-name="Path 11551" d="M921.015,1986.007c3.131-6.25,1.07-13,.609-14.453-1.927-6.1-2.547-7-3.791-8.233l-1.748-1.607s-.106-.069-.219-.135a23.391,23.391,0,0,0-6.417-1.651c-2.925.057-8.126,10.925-10.4,27.271q-.353.891-.7,1.8c-1.429,3.772-2.624,7.467-3.619,11.058-19.583,3.043-22.155,5.545-22.149,6.886.012,2.823,11.463,5.284,19.99,5.93,18.6,1.409,37.182-4.77,36.855-8.2-.142-1.492-3.937-3.184-19.686-4.136q.276-3.913.553-7.824C911.547,1992.347,918.71,1990.612,921.015,1986.007Z" transform="translate(-872.586 -1938.3)" fill="url(#linear-gradient-53)"/>
          <path id="Path_11552" data-name="Path 11552" d="M951.177,1916.169c-.984,5.01-4.38,9.908-5.749,10.536a8.494,8.494,0,0,0-2.2,1.633,2.573,2.573,0,0,0-.4.537c-1.708,2.947,2.6,7.635,1.354,8.862-.9.89-4.05-1.141-4.627-.333-.544.76,1.96,3.035,1.333,3.949-.473.691-2.086-.336-3.41.606-.66.469-.587.957-1.508,2.6a16.217,16.217,0,0,1-1.664,2.468c-2.3,2.608-7.415,2.737-8.132,1.376-.2-.379.079-.611.024-1.764a8.959,8.959,0,0,0-.534-2.386c-.689-1.883-2.906-3.561-5.035-5.819-3.941-4.181-4.643-7.231-4.833-8.253-.068-.364-.1-.635-.125-.83-.477-3.925.565-9.353,2.871-12.37,3.862-5.054,9.627-1.187,15.835-5.735,7.162-5.247,5.318-14.665,8.722-15.009C946.85,1895.857,953,1906.906,951.177,1916.169Z" transform="translate(-900.968 -1896.227)" fill="#26264f"/>
          <path id="Path_11553" data-name="Path 11553" d="M987.7,2012.095c-.9-1.925-3.368-.756-3.8,1.426s1.243,4.861,3.38,4.826S988.917,2014.686,987.7,2012.095Z" transform="translate(-946.061 -1972.112)" fill="url(#linear-gradient-54)"/>
        </g>
        <g id="Group_4801" data-name="Group 4801" transform="translate(36.396 129.362)">
          <path id="Path_11554" data-name="Path 11554" d="M818.011,2341.183a.609.609,0,0,1-.073,0,.667.667,0,0,1-.59-.739c1.35-12.157-1.172-21-3.4-28.8-.546-1.911-1.075-3.766-1.527-5.6-2.474-9.979-3.558-13.835-4.706-17.919-.754-2.68-1.524-5.426-2.728-10.042a.67.67,0,0,1,.478-.815.663.663,0,0,1,.817.478c1.2,4.6,1.968,7.345,2.72,10.018,1.151,4.094,2.237,7.961,4.715,17.96.452,1.817.976,3.656,1.517,5.551,2.258,7.922,4.819,16.9,3.438,29.318A.667.667,0,0,1,818.011,2341.183Z" transform="translate(-804.969 -2277.24)" fill="url(#linear-gradient-55)"/>
        </g>
        <path id="Path_11555" data-name="Path 11555" d="M937.491,2388.277c-10.391,5.333-37.154,14.889-69.051,10.142a107.461,107.461,0,0,1-33.691-10.965c3.7-2.878,8.261-7.7,15.8-15.9,9.133-9.917,19.836-6.217,26.127-2.479a14.859,14.859,0,0,0,22.415-12.4,66.162,66.162,0,0,0-.336-8.286c-2.155-22.564,29.105-24.483,29.105-24.483,4.411-2.292,8.6,1.408,12.41,8.273C942.2,2363.059,939.746,2377.96,937.491,2388.277Z" transform="translate(-788.242 -2178.255)" opacity="0.3" fill="url(#linear-gradient-55)" style="mix-blend-mode: multiply;isolation: isolate"/>
        <path id="Path_11556" data-name="Path 11556" d="M1390.447,2218.741c-1.258.121-2.78,1.4-3.849,2-1.521.863-3.052,1.71-4.6,2.517a19.956,19.956,0,0,1-9.587,2.653,7.749,7.749,0,0,1,.458-1.444c.579-1.356,1.344-2.528.888-2.935-.654-.592-3.528.629-6.18,3.17a16.946,16.946,0,0,0-2.936,3.676c-1.353,2.306-1.125,3.568-2.258,5.326a8.087,8.087,0,0,1-2.946,1.84v.481l.191.592a15.6,15.6,0,0,1-4.537,2.269c2.344.629,4.633,1.271,6.964,1.912l1.62,2.7s8.834-1.85,14.163-5.082a6.8,6.8,0,0,0,3.559-4.946,6.649,6.649,0,0,0-.138-2.492,6.458,6.458,0,0,0-.211-.654s7.277-3.022,10.151-9.56C1391.629,2219.781,1391.672,2218.624,1390.447,2218.741Z" transform="translate(-1131.915 -2109.235)" fill="url(#linear-gradient-57)"/>
        <path id="Path_11557" data-name="Path 11557" d="M1122.582,2155.727a23.007,23.007,0,0,1,7.537,9.376c-3.054,7.169-9.982,20.482-24.321,30.292-23.51,16.086-57.984,16.627-81.994-1.718-28.687-21.917-33.48-63.944-21.431-81.942,1.387-2.073,5.947-8.884,13.027-9.666,4.47-.494,10.556,1.35,20.17,12.607,20.033,23.456,12.957,38.1,24.793,44.964C1078.111,2169.931,1104.485,2143.063,1122.582,2155.727Z" transform="translate(-894.877 -2032.135)" fill="url(#linear-gradient-58)"/>
      </g>
      <g id="Group_4805" data-name="Group 4805" transform="translate(877.308 538.403)">
        <path id="Path_11558" data-name="Path 11558" d="M2151.477,934.162c-7.364-2.151-17.206,11.37-25.387,22.611-12.24,16.817-26.542,36.465-22.688,60.058,3.79,23.212,23.69,41.29,29.362,38.7,4.851-2.212-4.476-17.823,2.669-38.7,5.765-16.849,15.317-16.855,21.723-33.374C2165.1,962.957,2160.536,936.808,2151.477,934.162Z" transform="translate(-2014.715 -886.677)" fill="url(#linear-gradient-59)"/>
        <path id="Path_11559" data-name="Path 11559" d="M2055.611,1249.511c-37.928,9.208-62.911,23.989-77.5,34.445-7.907,5.667-11.56,9.2-13.532,14.352-11.235,29.356,46.488,73.743,52.639,78.391l8.061-18.8c-5.964-32.738-15.895-43.009-24.2-46.064-2.324-.855-6.226-1.771-6.151-2.871.179-2.6,22.1,1.106,43.056-6.561,20.893-7.645,41.884-26.987,38.135-39.776C2075.429,1260.3,2072.564,1253.551,2055.611,1249.511Z" transform="translate(-1922.493 -1095.108)" fill="url(#linear-gradient-60)"/>
        <path id="Path_11560" data-name="Path 11560" d="M2111.634,1881.5s3.531,1.258,3.543,4.05-3.576,15.091-7.475,19.462-4.248-2.15-4.007-6.35,1.263-13.6,2.227-15.419S2111.634,1881.5,2111.634,1881.5Z" transform="translate(-2015.294 -1512.524)" fill="url(#linear-gradient-61)"/>
        <path id="Path_11561" data-name="Path 11561" d="M2038.547,1324.858c-6.892-.135-23.038-1.421-27.337,6.561-3.586,6.659,2.7,16.754,6.561,22.963,10.505,16.88,20.7,18.607,27.884,28.978a36.569,36.569,0,0,1,6.1,17.632l4.572-10.661c-5.965-32.738-15.9-43.009-24.2-46.063-2.324-.854-6.226-1.771-6.151-2.871.179-2.6,22.1,1.106,43.057-6.561,19.045-6.969,38.107-23.644,38.5-36.228C2077.372,1320.239,2054.674,1325.174,2038.547,1324.858Z" transform="translate(-1953.542 -1127.536)" opacity="0.3" fill="url(#linear-gradient-62)" style="mix-blend-mode: multiply;isolation: isolate"/>
        <path id="Path_11562" data-name="Path 11562" d="M2118.852,1846.557c-.208,4.3-.573,7.9-.9,10.572-.729,5.91-1.4,8.249-2.316,10.379-.8,1.856-2.8,5.9-3.755,5.624-.97-.285.028-4.77.784-17.246.11-1.811.443-7.575.443-7.575h0Z" transform="translate(-2020.472 -1489.445)" fill="url(#linear-gradient-63)"/>
        <path id="Path_11563" data-name="Path 11563" d="M2152.557,1253.96a170.5,170.5,0,0,0-44.287,38.272c-9.736,11.942-24.546,30.108-29.908,57.194-2.859,14.438-1.452,27.389,1.477,52.7a530.677,530.677,0,0,0,10.344,59.587l5.041,2.023a108.029,108.029,0,0,0,12.5-38.1c3.453-27.388-6.792-36.091-1.874-55.515,4.26-16.825,16.6-27.143,41.291-47.776,20.284-16.953,38.986-27.011,45.928-48.156,1.179-3.591,2.181-8,.26-12.029C2189.186,1253.469,2173.339,1250.436,2152.557,1253.96Z" transform="translate(-1997.569 -1097.097)" fill="url(#linear-gradient-64)"/>
        <path id="Path_11564" data-name="Path 11564" d="M2283.219,843.8c-5.672-1.22-15-.978-23.893-7.981-2.678-2.108-12.162-9.577-11.01-20.263,1.014-9.408,9.93-14.464,11.025-15.066,6.312-3.474,12.6-2.7,19.583-1.747,9.051,1.237,12.057,3.71,18.345,5.4,15.558,4.193,20.819-4.56,36.483-3.821,20.02.944,21.751,15.729,38.595,16.1,18.909.414,22.533-18.092,41.2-21.228,25.914-4.352,65.122,23.544,64.332,55.7-.456,18.574-14.286,39.86-31.952,46.251-10.3,3.725-21.408,2.542-24.58,9.238-2.258,4.765,2.817,8.437,2.337,16.74-.617,10.7-9.833,18.216-11.321,19.428-13.815,11.261-44.787,5.573-65.938-10.361C2308.287,903.461,2314.06,850.432,2283.219,843.8Z" transform="translate(-2110.787 -794.744)" fill="url(#linear-gradient-65)"/>
        <path id="Path_11565" data-name="Path 11565" d="M2293.791,922.048a405.858,405.858,0,0,0-44.128-3.011c-34.792-.473-39.772,3.939-41.046,7.2-2.376,6.088,1.694,9.139-.617,19.754-1.382,6.347-.076,9.239-2.747,16.059-2.6,6.646-.562,10.219,1.74,25.8,2.943,19.928,4.3,30.056-1.275,38.089-3.875,5.582-8.209,6.054-7.8,8.706.881,5.649,20.411,2.533,45.14,13.378a184.481,184.481,0,0,1,19.273,10.252c12.938,7.6,15.332,10.5,21.323,13.942,18.948,10.884,47.411,11.933,62.33-1.23,5.561-4.907,9.615-12.121,7.791-14.762-2.484-3.6-13.591,4.571-23.783-.411-6.752-3.3-5.469-8.639-13.275-14.929-9.4-7.571-15.927-3.6-22.321-8.53-9.975-7.684-5.437-26.082-2.637-56.928A515.451,515.451,0,0,0,2293.791,922.048Z" transform="translate(-2077.549 -876.814)" fill="url(#linear-gradient-66)"/>
        <path id="Path_11566" data-name="Path 11566" d="M2320.366,889.334c4.745,2.944,12.415,6.791,13.26,7.835s-23.237,5.167-38.222-2.395c0,0-2.323-1.291,6.71-3.1,1.925-.385,1.549-4.13,1.291-8l1.806-3.355S2315.621,886.389,2320.366,889.334Z" transform="translate(-2141.775 -851.266)" fill="url(#linear-gradient-63)"/>
        <path id="Path_11567" data-name="Path 11567" d="M2295.032,855.358s1.862,7.9-5.093,11.8c-6.227,3.5-16.761-10.831-14.794-16.155a9.407,9.407,0,0,1,5.452-4.826c1.724-.54,8.245-.332,11.038,5.159.732-1.606,2.042-2.447,2.922-2.183,1.117.334,1.281,2.367,1.319,2.827A5.692,5.692,0,0,1,2295.032,855.358Z" transform="translate(-2128.412 -828.582)" fill="url(#linear-gradient-68)"/>
        <path id="Path_11568" data-name="Path 11568" d="M2243.979,1068.534c7.164,2.969,8.132,9.387,18.038,13.027,9.45,3.472,12.621-.879,22.046,2,14.156,4.33,19.569,17.99,21.712,16.7,1.963-1.18.081-14.248-9.019-22.714-10.45-9.723-21.705-5.27-28.392-15.365-2.6-3.928-4.608-10.2-2.338-15.031,3.075-6.544,11.108-4.275,15.365-9.687,7.648-9.724-10.249-27.263-5.344-42.088,1.957-5.917,8.191-13.332,28.292-18.3-.273,14.86-1.129,27.279-1.985,36.71-2.8,30.846-7.337,49.245,2.637,56.928,6.4,4.926,12.926.959,22.321,8.53,7.806,6.29,6.523,11.629,13.276,14.929,10.193,4.981,21.3-3.185,23.783.41,1.824,2.641-2.229,9.854-7.791,14.762-14.918,13.163-43.381,12.114-62.329,1.231-5.991-3.441-8.385-6.346-21.323-13.942a184.522,184.522,0,0,0-19.272-10.252c-17.354-7.61-32.137-8.347-39.722-10.061C2228.99,1066.289,2238.163,1066.124,2243.979,1068.534Z" transform="translate(-2088.141 -915.176)" opacity="0.3" fill="url(#linear-gradient-69)" style="mix-blend-mode: multiply;isolation: isolate"/>
        <g id="Group_4803" data-name="Group 4803" transform="translate(0 113.221)">
          <path id="Path_11569" data-name="Path 11569" d="M2094.025,1276.117l90.894,4.423a3.817,3.817,0,0,1,3.054,1.794l2.515,4.037a2.952,2.952,0,0,1-2.618,4.511l-96.278-3.667Z" transform="translate(-2007.338 -1225.902)" fill="url(#linear-gradient-70)"/>
          <path id="Path_11570" data-name="Path 11570" d="M1846.683,1128.217l93.9,1.82a7.876,7.876,0,0,1,6.7,3.983l32.518,57.211-99.173-3.952a8.071,8.071,0,0,1-6.605-3.92l-30.128-50.332A3.179,3.179,0,0,1,1846.683,1128.217Z" transform="translate(-1843.437 -1128.216)" fill="url(#linear-gradient-71)"/>
          <path id="Path_11571" data-name="Path 11571" d="M2002.919,1137.483a7.878,7.878,0,0,0-6.7-3.984l-2.058-.04a14.634,14.634,0,0,1-3.092,8.043c-5.79,6.989-15.41,2.678-22.58,10.075-7.877,8.125-.6,17.8-7.642,25.359-7.413,7.959-19.4,1.479-33.177,6.572l1.984,3.314a8.071,8.071,0,0,0,6.605,3.92l99.173,3.951Z" transform="translate(-1899.074 -1131.68)" opacity="0.3" fill="url(#linear-gradient-72)" style="mix-blend-mode: multiply;isolation: isolate"/>
        </g>
        <g id="Group_4804" data-name="Group 4804" transform="translate(159.618 44.738)">
          <path id="Path_11572" data-name="Path 11572" d="M2316.638,1045.258l-3.073-8.115c11.32-3.1,26.976-7.689,43.033-13.427a12.311,12.311,0,0,0,6.482-4.658c8.233-10.919-12.719-30.181-12.343-55.176.26-17.326,10.764-37.145,20.019-37.369,18.814-.457,60.295,79.371,25.357,113.443C2378.774,1056.867,2346.376,1058.83,2316.638,1045.258Z" transform="translate(-2313.565 -926.511)" fill="url(#linear-gradient-73)"/>
        </g>
        <path id="Path_11573" data-name="Path 11573" d="M2265.406,1249.16c-7.106-3.775-15.613.094-16.161.354a21.258,21.258,0,0,0-6.13,4.4c-.26.354-3.342,4.626-2.219,5.995.9,1.1,4.386.187,8.576-2.418a32.535,32.535,0,0,1,7.5-.184c5.752.531,8.387,2.347,10.475.779a5.183,5.183,0,0,0,1.5-5.381C2268.358,1250.761,2266.609,1249.8,2265.406,1249.16Z" transform="translate(-2105.788 -1093.79)" fill="url(#linear-gradient-63)"/>
      </g>
      <g id="Group_4808" data-name="Group 4808" transform="translate(675.273 1235.374)">
        <g id="Group_4806" data-name="Group 4806" transform="translate(67.287)">
          <path id="Path_11574" data-name="Path 11574" d="M1449.95,2988.5a163.072,163.072,0,0,1-.641-62.981c3.068-16.2,9.306-49.132,35.485-67.488,2.063-1.447,22.543-15.532,31.741-8.537,4.744,3.608,5.827,12.321,3.753,19.2-5.355,17.757-29.5,15.787-37.524,36-2.672,6.73-3.167,14.942-1.3,15.717,2.294.953,8.836-9.088,9.459-10.045,5.833-8.953,5.887-14.021,10.334-15.4,2.731-.844,6.33-.052,7.94,2.1,3.666,4.91-3.576,16.1-5.6,19.229-5.3,8.182-9.719,10.041-10.794,17.008-.463,3-.38,7.434,1.4,8.125,2.406.935,7-5.332,9.946-9.353,7.922-10.809,8.766-17.093,12.7-17.543,3.674-.42,7.814,4.491,8.877,7.483C1528.628,2930.181,1516.962,2947.565,1449.95,2988.5Z" transform="translate(-1446.559 -2847.552)" fill="url(#linear-gradient-75)"/>
          <path id="Path_11575" data-name="Path 11575" d="M1458.807,3000.131a193.936,193.936,0,0,1,7.056-59.139c4.819-17.1,13.884-49.255,39.314-63.171,1.807-.989,15.1-8.264,18.817-4.368,2.476,2.6.281,9.728-3.36,14.449-6.214,8.057-13.373,4.861-23.521,12.769a39.9,39.9,0,0,0-13.1,19.153c-2.969,9.277-1.427,17.231-1.008,20.161C1484.591,2951.115,1481.334,2969.347,1458.807,3000.131Z" transform="translate(-1454.578 -2863.908)" fill="#fff" opacity="0.28" style="mix-blend-mode: soft-light;isolation: isolate"/>
          <path id="Path_11576" data-name="Path 11576" d="M1485.738,3078.3c14.259-12.771,17.556-23.235,17.809-30.577.2-5.721-1.351-12.51,3.024-18.817,2.8-4.034,4.908-3.385,9.745-7.728,10.1-9.074,11.358-21.3,13.44-20.833,1.159.263,1.76,4.275,1.008,8.065-1.553,7.819-7.668,8.638-13.777,18.144a48.8,48.8,0,0,0-6.384,16.129c-1.86,8.106-.6,10.95-1.68,15.456C1507.519,3063.977,1502.438,3071.516,1485.738,3078.3Z" transform="translate(-1472.436 -2948.458)" fill="#fff" opacity="0.28" style="mix-blend-mode: soft-light;isolation: isolate"/>
        </g>
        <g id="Group_4807" data-name="Group 4807" transform="translate(0 47.016)">
          <path id="Path_11577" data-name="Path 11577" d="M1327.623,3084.4c24.72,1.417,32.067,2.9,43.716-1.072,10.946-3.73,22.174-11.075,21.188-14.447-.708-2.419-7.579-2.386-11.684-2.367a58.694,58.694,0,0,0-26.472,6.686l16.491-11.191a40.771,40.771,0,0,0,16.087-10.445c3.6-3.854,11.879-14.295,8.768-19.312-3.25-5.24-18.688-4.182-27.587,3.25-4.27,3.566-4.276,6.3-10,12.521a60.1,60.1,0,0,1-14.344,11.418,81.974,81.974,0,0,0,12.081-20.626c5.68-14.136,9.967-36.5,2.743-40.565-4.792-2.7-14.293,2.86-19.045,9.446-3.853,5.339-3.475,9.817-6.126,26.974-1.152,7.458-2.283,13.465-3.017,17.192-7.352-16.126-9.485-29.694-9.915-39.666-.553-12.813,1.567-22.852-3.334-25.522-4.368-2.381-12.168,2.264-16.124,6.621-16.012,17.637,5.114,59.031,7.347,63.3a117.661,117.661,0,0,1-21.813-21.472c-8.386-10.76-11.927-18.768-16.19-18.051-4.24.713-7.034,9.74-6.716,16.725.887,19.474,26.32,30.91,29.035,32.089a29.018,29.018,0,0,1-10.043-.109c-9.483-1.811-12.441-7.559-22.061-9.51-3.679-.746-11.2-1.52-12.13.759-1.664,4.089,17.339,19.446,40.4,25.3C1297.325,3084.479,1295.3,3082.552,1327.623,3084.4Z" transform="translate(-1248.377 -2986.031)" fill="url(#linear-gradient-76)"/>
          <path id="Path_11578" data-name="Path 11578" d="M1500.254,3160.111c11.254-5,9.725-11.807,22.037-20.232,7.884-5.395,9.716-3.429,18.165-8.586a57.317,57.317,0,0,0,11.529-9.307c.015.023.033.043.047.066,3.111,5.017-5.166,15.457-8.768,19.311a40.766,40.766,0,0,1-16.087,10.445L1510.687,3163a58.7,58.7,0,0,1,26.472-6.686c3.578-.017,9.258-.043,11.125,1.553a26.393,26.393,0,0,1-8.705,3.532c-5.522,1.127-8.986-.134-13.763,2.746-3.832,2.31-3.513,4.272-6.887,5.523-3.175,1.177-4.8-.065-12.633-1.352-7.622-1.251-11.5-1.837-14.576.1a10.744,10.744,0,0,0-4.246,6q-1.185-.072-2.427-.146a18.746,18.746,0,0,1,3.882-7.722C1492.326,3162.587,1496.044,3161.982,1500.254,3160.111Z" transform="translate(-1404.693 -3075.826)" fill="#fff" opacity="0.28" style="mix-blend-mode: soft-light;isolation: isolate"/>
          <path id="Path_11579" data-name="Path 11579" d="M1313.658,3139.917c-1.778-.426-2.628.845-5.1,1.166-4.589.6-6.31-3.19-11.7-4.99-6.385-2.129-8,1.832-14.364-.138-5.034-1.56-4.386-4.156-10.963-7.946-7-4.033-9.963-2.378-15.107-5.708a19.933,19.933,0,0,1-5.336-5.139c2.262-1.226,8.179-.572,11.312.063,9.621,1.951,12.579,7.7,22.061,9.51a29.021,29.021,0,0,0,10.043.11c-2.715-1.179-28.148-12.615-29.035-32.089-.3-6.48,2.089-14.711,5.82-16.438a93.948,93.948,0,0,0-.437,11.368c.159,7.037.284,10.616,2.51,13.551,3.862,5.093,8.57,2.438,14.989,7.732,5.844,4.82,3.807,8.558,9.9,13.385,5.261,4.166,8.379,2.648,13.329,6.025,3.106,2.119,6.877,6.131,9.143,14.529q-1.548-.07-2.96-.127C1316.872,3142.4,1315.574,3140.376,1313.658,3139.917Z" transform="translate(-1250.166 -3046.985)" fill="#fff" opacity="0.28" style="mix-blend-mode: soft-light;isolation: isolate"/>
          <path id="Path_11580" data-name="Path 11580" d="M1425.653,3052.426c-3.08-8.389-8.427-7.527-10.658-14.915-2.218-7.344,2.634-9.628,1.4-20.263-.926-7.968-3.935-9.141-4.135-14.587-.148-4.015,1.268-9.484,7.812-16.265a7.27,7.27,0,0,1,5.338.283c4.9,2.671,2.78,12.71,3.334,25.523.43,9.972,2.563,23.539,9.915,39.665.734-3.727,1.864-9.733,3.017-17.192,2.651-17.156,2.273-21.635,6.126-26.974,4.752-6.586,14.253-12.142,19.045-9.446a4.849,4.849,0,0,1,.77.543,26.975,26.975,0,0,0-6.448,6.1c-6.32,8.422-2.724,14.455-8.453,31.066-5.511,15.976-11.1,16.963-15.536,30.768a64.906,64.906,0,0,0-3.026,17.575c-1.619-.089-3.144-.169-4.588-.24a68.073,68.073,0,0,1-2.776-14.431C1426.051,3060.55,1427.734,3058.093,1425.653,3052.426Z" transform="translate(-1356.61 -2986.033)" fill="#fff" opacity="0.28" style="mix-blend-mode: soft-light;isolation: isolate"/>
        </g>
      </g>
      <g id="Group_4812" data-name="Group 4812" transform="translate(727.94 451.439)">
        <g id="Group_4810" data-name="Group 4810">
          <path id="Path_11581" data-name="Path 11581" d="M1496.291,538.65c35.645,1.094,65.582,22.857,71.416,50.406l.022.108q.474,2.262.728,4.573c.011.1.023.2.034.3q.111,1.079.172,2.169c.007.132.013.263.019.4.035.742.059,1.486.059,2.234,0,32.013-32.674,56.274-72.449,54.216-1.058-.055-2.109-.131-3.156-.222l-.307-.025c-.99-.089-1.974-.2-2.953-.317l-.457-.056q-1.421-.182-2.823-.409l-.529-.086q-1.376-.23-2.736-.5c-.184-.036-.366-.075-.55-.112-.9-.185-1.8-.381-2.685-.593-.172-.041-.343-.085-.514-.127-.883-.216-1.76-.441-2.629-.682-.156-.044-.31-.09-.466-.134q-1.173-.333-2.328-.7c-.2-.061-.392-.12-.587-.183-.782-.252-1.554-.517-2.323-.789-.166-.058-.336-.111-.5-.17l.006-.006c-26.44-9.537-45.029-31-45.029-55.005C1425.725,561.761,1457.091,537.446,1496.291,538.65Z" transform="translate(-1418.179 -538.607)" fill="url(#linear-gradient-77)"/>
          <path id="Path_11582" data-name="Path 11582" d="M1403.5,592.943c0,31.182,31.365,58.083,70.566,60.112,39.775,2.059,72.448-22.2,72.448-54.216s-32.674-58.969-72.448-60.19C1434.863,537.446,1403.5,561.761,1403.5,592.943Z" transform="translate(-1403.498 -538.606)" fill="url(#linear-gradient-78)"/>
          <g id="Group_4809" data-name="Group 4809" transform="translate(45.022 24.543)" opacity="0.3" style="mix-blend-mode: multiply;isolation: isolate">
            <path id="Path_11583" data-name="Path 11583" d="M1544.344,685.38c8.583-16.444-.094-32.584,11.517-42.99,11.848-10.617,27.321.338,44.072-8.071,6.5-3.265,13.753-9.729,19.154-23.425,9.406,10.071,15.008,22.466,15.008,35.689,0,32.014-32.674,56.275-72.448,54.216a88.976,88.976,0,0,1-25.544-5.1A35.068,35.068,0,0,0,1544.344,685.38Z" transform="translate(-1536.103 -610.894)" fill="url(#linear-gradient-79)"/>
          </g>
        </g>
        <g id="Group_4811" data-name="Group 4811" transform="translate(16.831 34.706)">
          <path id="Path_11584" data-name="Path 11584" d="M1470.935,647.863a8.128,8.128,0,0,0-7.095,3.55q-2.5,3.558-2.5,9.936,0,13.275,9.6,13.433a29.427,29.427,0,0,0,9.846-1.948v7.126a26.234,26.234,0,0,1-10.608,1.844q-8.351-.166-12.731-5.5-4.375-5.311-4.372-15.095a25.414,25.414,0,0,1,2.145-10.791,15.963,15.963,0,0,1,6.189-7.111,17.882,17.882,0,0,1,9.532-2.484,25.28,25.28,0,0,1,11.306,2.825l-2.653,6.9a43.247,43.247,0,0,0-4.362-1.879A12.566,12.566,0,0,0,1470.935,647.863Z" transform="translate(-1453.07 -640.826)" fill="#fff"/>
          <path id="Path_11585" data-name="Path 11585" d="M1585.862,670.832a10.409,10.409,0,0,1-3.9,8.621q-3.887,3.095-10.773,2.956a24.816,24.816,0,0,1-11.132-2.643V671.84a45.71,45.71,0,0,0,6.721,2.668,19.681,19.681,0,0,0,5.06.829,7.027,7.027,0,0,0,4.242-1.011,4.037,4.037,0,0,0,.828-5.327,7.506,7.506,0,0,0-1.915-1.813,49.539,49.539,0,0,0-5.129-2.8,24.389,24.389,0,0,1-5.412-3.4,12.61,12.61,0,0,1-2.87-3.746,10.9,10.9,0,0,1-1.071-4.963,10.509,10.509,0,0,1,3.525-8.39q3.533-3.059,9.8-3.06a22.893,22.893,0,0,1,5.911.75,40.4,40.4,0,0,1,5.916,2.119l-2.736,6.7a39.613,39.613,0,0,0-5.276-1.884,16.618,16.618,0,0,0-4.086-.541,5.294,5.294,0,0,0-3.651,1.121,4.072,4.072,0,0,0-.756,4.931,5.756,5.756,0,0,0,1.633,1.642,50.8,50.8,0,0,0,5.324,2.88q5.577,2.77,7.66,5.534A10.918,10.918,0,0,1,1585.862,670.832Z" transform="translate(-1523.734 -640.826)" fill="#fff"/>
          <path id="Path_11586" data-name="Path 11586" d="M1685.185,671.321a10.506,10.506,0,0,1-4.028,8.76q-4.015,3.144-11.126,3a25.968,25.968,0,0,1-11.494-2.689v-8.053a47.735,47.735,0,0,0,6.941,2.713,20.648,20.648,0,0,0,5.224.844,7.343,7.343,0,0,0,4.38-1.027,3.7,3.7,0,0,0,1.53-3.247,3.665,3.665,0,0,0-.673-2.166,7.7,7.7,0,0,0-1.977-1.843,51.372,51.372,0,0,0-5.3-2.849,25.26,25.26,0,0,1-5.589-3.454,12.848,12.848,0,0,1-2.963-3.806,10.934,10.934,0,0,1-1.105-5.043,10.6,10.6,0,0,1,3.638-8.525q3.65-3.108,10.125-3.11a24.005,24.005,0,0,1,6.105.762,42.232,42.232,0,0,1,6.111,2.154l-2.827,6.81a41.343,41.343,0,0,0-5.45-1.915,17.439,17.439,0,0,0-4.22-.55,5.524,5.524,0,0,0-3.771,1.139,4.089,4.089,0,0,0-.781,5.011,5.9,5.9,0,0,0,1.688,1.669,52.617,52.617,0,0,0,5.5,2.928q5.76,2.816,7.911,5.625A10.97,10.97,0,0,1,1685.185,671.321Z" transform="translate(-1588.776 -640.826)" fill="#fff"/>
        </g>
      </g>
      <g id="Group_4816" data-name="Group 4816" transform="translate(563.167 543.782)">
        <g id="Group_4814" data-name="Group 4814" transform="translate(0)">
          <path id="Path_11587" data-name="Path 11587" d="M1021.439,810.633c39.661,1.218,72.972,25.433,79.463,56.086l.025.12q.527,2.516.809,5.088c.013.113.026.226.038.339q.123,1.2.191,2.413c.008.147.014.293.021.44.039.825.066,1.653.066,2.485,0,35.621-36.355,62.616-80.612,60.325-1.177-.061-2.347-.146-3.511-.247l-.342-.028c-1.1-.1-2.2-.219-3.286-.353-.169-.021-.339-.04-.508-.062q-1.581-.2-3.141-.455l-.588-.1q-1.532-.256-3.044-.556l-.612-.125q-1.5-.31-2.988-.66c-.192-.046-.381-.094-.573-.141-.982-.24-1.958-.491-2.924-.759-.174-.048-.345-.1-.518-.149q-1.306-.37-2.591-.775c-.217-.068-.437-.134-.653-.2-.869-.28-1.729-.575-2.585-.878-.185-.065-.374-.123-.558-.19l.007-.006c-29.419-10.612-50.1-34.495-50.1-61.2C942.921,836.35,977.821,809.295,1021.439,810.633Z" transform="translate(-934.524 -810.586)" fill="url(#linear-gradient-80)"/>
          <path id="Path_11588" data-name="Path 11588" d="M918.189,871.045c0,34.7,34.9,64.628,78.517,66.886,44.257,2.291,80.612-24.7,80.612-60.325s-36.355-65.614-80.612-66.973C953.089,809.295,918.189,836.35,918.189,871.045Z" transform="translate(-918.189 -810.586)" fill="url(#linear-gradient-81)"/>
          <g id="Group_4813" data-name="Group 4813" transform="translate(50.096 27.309)" opacity="0.3" style="mix-blend-mode: multiply;isolation: isolate">
            <path id="Path_11589" data-name="Path 11589" d="M1074.906,973.9c9.551-18.3-.1-36.256,12.816-47.834,13.182-11.814,30.4.376,49.037-8.98,7.237-3.633,15.3-10.826,21.313-26.064,10.465,11.206,16.7,25,16.7,39.711,0,35.621-36.356,62.616-80.613,60.325a99,99,0,0,1-28.422-5.676A39.01,39.01,0,0,0,1074.906,973.9Z" transform="translate(-1065.737 -891.02)" fill="url(#linear-gradient-82)"/>
          </g>
        </g>
        <g id="Group_4815" data-name="Group 4815" transform="translate(20.388 38.951)">
          <path id="Path_11590" data-name="Path 11590" d="M1010.006,980.275l-31.769-15.453V960.04l31.769-16.465v8.178l-22.013,10.473,22.013,9.9Z" transform="translate(-978.237 -937.373)" fill="#fff"/>
          <path id="Path_11591" data-name="Path 11591" d="M1118.975,925.308l-18.3,50.288-9.154-.271,18.106-50.017Z" transform="translate(-1053.056 -925.308)" fill="#fff"/>
          <path id="Path_11592" data-name="Path 11592" d="M1192.506,973.271l23.727-9.453-23.727-11.42V944.02l34.662,17.789V966.9l-34.662,14.712Z" transform="translate(-1119.757 -937.667)" fill="#fff"/>
        </g>
      </g>
      <g id="Group_4820" data-name="Group 4820" transform="translate(714.745 665.017)">
        <g id="Group_4818" data-name="Group 4818" transform="translate(0)">
          <path id="Path_11593" data-name="Path 11593" d="M1457.428,1167.706c35.645,1.094,65.582,22.857,71.415,50.406.008.036.015.072.022.108q.474,2.262.727,4.573c.011.1.023.2.034.305q.111,1.079.172,2.169c.008.132.013.263.019.4.036.742.059,1.486.059,2.234,0,32.014-32.674,56.275-72.448,54.216-1.058-.055-2.109-.131-3.155-.222l-.308-.026q-1.485-.134-2.953-.317c-.152-.019-.3-.036-.457-.056q-1.421-.182-2.824-.409c-.176-.028-.352-.057-.528-.086q-1.377-.23-2.736-.5l-.55-.113q-1.352-.278-2.685-.593c-.172-.041-.343-.085-.514-.127-.882-.216-1.76-.441-2.628-.682-.156-.043-.31-.089-.466-.133q-1.173-.333-2.328-.7c-.2-.062-.392-.12-.587-.182-.781-.252-1.554-.517-2.323-.789-.166-.058-.336-.111-.5-.17l.006-.006c-26.44-9.537-45.029-31-45.029-55.005C1386.862,1190.818,1418.227,1166.5,1457.428,1167.706Z" transform="translate(-1379.316 -1167.663)" fill="url(#linear-gradient-83)"/>
          <path id="Path_11594" data-name="Path 11594" d="M1364.635,1222c0,31.182,31.365,58.083,70.566,60.112,39.775,2.059,72.448-22.2,72.448-54.216s-32.674-58.969-72.448-60.19C1396,1166.5,1364.635,1190.818,1364.635,1222Z" transform="translate(-1364.635 -1167.663)" fill="url(#linear-gradient-84)"/>
          <g id="Group_4817" data-name="Group 4817" transform="translate(45.022 24.543)" opacity="0.3" style="mix-blend-mode: multiply;isolation: isolate">
            <path id="Path_11595" data-name="Path 11595" d="M1505.481,1314.437c8.584-16.445-.094-32.585,11.517-42.99,11.848-10.618,27.321.338,44.072-8.071,6.5-3.265,13.753-9.729,19.154-23.425,9.405,10.071,15.008,22.465,15.008,35.689,0,32.014-32.674,56.274-72.448,54.216a88.958,88.958,0,0,1-25.544-5.1A35.069,35.069,0,0,0,1505.481,1314.437Z" transform="translate(-1497.24 -1239.951)" fill="url(#linear-gradient-85)"/>
          </g>
        </g>
        <g id="Group_4819" data-name="Group 4819" transform="translate(20.447 36.598)">
          <path id="Path_11596" data-name="Path 11596" d="M1440.907,1282.656a7.274,7.274,0,0,0-6.458,3.68q-2.254,3.617-2.25,10.056c0,8.94,2.87,13.534,8.708,13.785a24.736,24.736,0,0,0,9.155-1.791v7.375a21.914,21.914,0,0,1-9.853,1.57c-5.068-.287-8.88-2.268-11.487-5.921q-3.872-5.424-3.862-15.2a28.516,28.516,0,0,1,1.89-10.809,15.965,15.965,0,0,1,5.508-7.235,15.174,15.174,0,0,1,8.65-2.706,21.434,21.434,0,0,1,10.531,2.691l-2.5,7.176a38.064,38.064,0,0,0-4.072-1.894A10.517,10.517,0,0,0,1440.907,1282.656Z" transform="translate(-1424.859 -1275.457)" fill="#fff"/>
          <path id="Path_11597" data-name="Path 11597" d="M1532.916,1314.032l-10.138-.236v-6.3l10.138.119v-11.437l5.906-.052v11.558l10.749.126v6.614l-10.749-.25v11.41l-5.906-.257Z" transform="translate(-1489.532 -1289.105)" fill="#fff"/>
          <path id="Path_11598" data-name="Path 11598" d="M1636.708,1314.236l-11.484-.267v-6.707l11.484.134v-12.179l6.7-.059v12.317l12.222.143v7.057l-12.222-.284v12.159l-6.7-.292Z" transform="translate(-1557.196 -1288.469)" fill="#fff"/>
        </g>
      </g>
      <g id="Group_4822" data-name="Group 4822" transform="translate(614.398 832.735)">
        <path id="Path_11599" data-name="Path 11599" d="M1080.021,1748.945c-6.942-8.693-10.939-18.9-10.939-29.817,0-31.745,33.8-57.479,75.5-57.479s75.5,25.734,75.5,57.479-33.8,57.48-75.5,57.48a92.575,92.575,0,0,1-42.189-9.807c-7.962,1.358-20.32,3.64-26.842,4.854a2.508,2.508,0,0,1-2.806-3.349Z" transform="translate(-1069.082 -1661.649)" fill="url(#linear-gradient-86)"/>
        <g id="Group_4821" data-name="Group 4821" transform="translate(11.278 9.12)" opacity="0.2" style="mix-blend-mode: multiply;isolation: isolate">
          <path id="Path_11600" data-name="Path 11600" d="M1125.2,1749.033c16.929-7.115,35.544,7.9,47.183-2.574,11.732-10.562-.942-31.444,10.294-46.325,5.358-7.1,14.359-10.452,24.656-11.626,20.86,10.228,34.677,28.065,34.677,48.36,0,31.745-33.8,57.48-75.5,57.48a92.58,92.58,0,0,1-42.19-9.806c-6.282,1.072-15.3,2.718-22.029,3.961C1107.262,1762.767,1116.394,1752.736,1125.2,1749.033Z" transform="translate(-1102.298 -1688.509)" fill="url(#linear-gradient-87)"/>
        </g>
      </g>
      <g id="Group_4823" data-name="Group 4823" transform="translate(639.649 868.91)">
        <rect id="Rectangle_9025" data-name="Rectangle 9025" width="99.181" height="6.048" rx="3.024" transform="translate(0)" fill="#fff"/>
        <rect id="Rectangle_9026" data-name="Rectangle 9026" width="99.181" height="6.048" rx="3.024" transform="translate(0 16.933)" fill="#fff"/>
        <rect id="Rectangle_9027" data-name="Rectangle 9027" width="52.01" height="6.048" rx="3.024" transform="translate(0 33.867)" fill="#fff"/>
      </g>
    </g>
  </g>
</svg>
