<svg xmlns="http://www.w3.org/2000/svg" width="446.199" height="693.897" viewBox="0 0 446.199 693.897">
  <g id="Group_3599" data-name="Group 3599" transform="translate(-444.188 -414.786)">
    <g id="Group_3592" data-name="Group 3592" transform="translate(542.583 414.786)">
      <g id="Group_3591" data-name="Group 3591">
        <path id="Path_8398" data-name="Path 8398" d="M806.32,650.447l-15.029-8.681c-3.141-1.809-8.623-1.586-12.25.51l-28.647,16.557L550.973,543.7l29.147-16.844c3.623-2.1,4.021-5.258.88-7.072L565.971,511.1c-3.141-1.814-8.627-1.586-12.25.5l-82.9,47.912c-3.623,2.091-4.021,5.259-.88,7.073l15.03,8.676c3.141,1.814,8.627,1.586,12.25-.505L537.11,551.71,736.525,666.843l-40.388,23.344c-3.623,2.091-4.016,5.259-.875,7.073l15.029,8.676c3.141,1.814,8.623,1.586,12.25-.509l82.9-47.907C809.067,655.424,809.461,652.256,806.32,650.447Z" transform="translate(-460.638 -85.033)" fill="#f2f2f2"/>
        <g id="Group_3525" data-name="Group 3525" transform="translate(14.371 144.216)">
          <g id="Group_3499" data-name="Group 3499" transform="translate(0 313.688)">
            <g id="Group_3490" data-name="Group 3490">
              <g id="Group_3489" data-name="Group 3489" style="isolation: isolate">
                <g id="Group_3487" data-name="Group 3487">
                  <path id="Path_8399" data-name="Path 8399" d="M475.365,537.479l-3.846-2.234c-1.287-.746-2.082-2.337-2.091-4.593a15.758,15.758,0,0,1,7.144-12.389c2-1.153,3.806-1.26,5.111-.5L485.525,520c-1.3-.76-3.114-.652-5.111.5a15.755,15.755,0,0,0-7.139,12.389C473.279,535.143,474.079,536.733,475.365,537.479Z" transform="translate(-469.428 -517.278)" fill="#bfbfbf"/>
                </g>
                <g id="Group_3488" data-name="Group 3488" transform="translate(3.847 2.232)">
                  <path id="Path_8400" data-name="Path 8400" d="M477.478,535.251c-3.954,2.283-7.18.447-7.189-4.1a15.755,15.755,0,0,1,7.139-12.389c3.972-2.292,7.193-.456,7.207,4.106A15.774,15.774,0,0,1,477.478,535.251Z" transform="translate(-470.289 -517.778)" fill="#898989"/>
                </g>
              </g>
            </g>
            <g id="Group_3494" data-name="Group 3494" transform="translate(3.793 2.189)">
              <g id="Group_3493" data-name="Group 3493" style="isolation: isolate">
                <g id="Group_3491" data-name="Group 3491">
                  <path id="Path_8401" data-name="Path 8401" d="M476.21,537.969l-3.842-2.234c-1.287-.746-2.086-2.336-2.091-4.593a15.754,15.754,0,0,1,7.139-12.389c2-1.153,3.806-1.26,5.111-.5l3.847,2.229c-1.309-.755-3.114-.647-5.111.505a15.76,15.76,0,0,0-7.144,12.389C474.128,535.633,474.923,537.223,476.21,537.969Z" transform="translate(-470.277 -517.768)" fill="#262626"/>
                </g>
                <g id="Group_3492" data-name="Group 3492" transform="translate(3.842 2.233)">
                  <path id="Path_8402" data-name="Path 8402" d="M478.326,535.741c-3.954,2.283-7.175.447-7.189-4.1a15.76,15.76,0,0,1,7.144-12.389c3.967-2.292,7.188-.456,7.2,4.106A15.751,15.751,0,0,1,478.326,535.741Z" transform="translate(-471.137 -518.268)" fill="#898989"/>
                </g>
              </g>
            </g>
            <g id="Group_3498" data-name="Group 3498" transform="translate(7.658 4.42)">
              <g id="Group_3497" data-name="Group 3497" style="isolation: isolate">
                <g id="Group_3495" data-name="Group 3495">
                  <path id="Path_8403" data-name="Path 8403" d="M477.08,538.471l-3.847-2.234c-1.287-.75-2.082-2.336-2.091-4.593a15.759,15.759,0,0,1,7.144-12.389c2-1.153,3.806-1.264,5.111-.505l3.842,2.234c-1.3-.759-3.114-.652-5.111.505a15.747,15.747,0,0,0-7.139,12.389C474.993,536.135,475.793,537.721,477.08,538.471Z" transform="translate(-471.142 -518.268)" fill="#bfbfbf"/>
                </g>
                <g id="Group_3496" data-name="Group 3496" transform="translate(3.847 2.235)">
                  <path id="Path_8404" data-name="Path 8404" d="M479.192,536.236c-3.954,2.283-7.175.447-7.188-4.092a15.747,15.747,0,0,1,7.139-12.389c3.972-2.292,7.193-.456,7.206,4.106A15.761,15.761,0,0,1,479.192,536.236Z" transform="translate(-472.003 -518.768)" fill="#898989"/>
                </g>
              </g>
            </g>
          </g>
          <g id="Group_3512" data-name="Group 3512" transform="translate(69.794 273.412)">
            <g id="Group_3503" data-name="Group 3503">
              <g id="Group_3502" data-name="Group 3502" style="isolation: isolate">
                <g id="Group_3500" data-name="Group 3500">
                  <path id="Path_8405" data-name="Path 8405" d="M490.983,528.464l-3.842-2.234c-1.287-.746-2.087-2.336-2.091-4.593a15.754,15.754,0,0,1,7.139-12.389c2-1.153,3.806-1.26,5.111-.5l3.842,2.234c-1.3-.76-3.114-.652-5.111.5a15.754,15.754,0,0,0-7.139,12.389C488.9,526.128,489.7,527.718,490.983,528.464Z" transform="translate(-485.05 -508.264)" fill="#bfbfbf"/>
                </g>
                <g id="Group_3501" data-name="Group 3501" transform="translate(3.842 2.233)">
                  <path id="Path_8406" data-name="Path 8406" d="M493.1,526.236c-3.954,2.283-7.175.447-7.188-4.1a15.754,15.754,0,0,1,7.139-12.389c3.972-2.292,7.193-.456,7.206,4.106A15.761,15.761,0,0,1,493.1,526.236Z" transform="translate(-485.91 -508.763)" fill="#898989"/>
                </g>
              </g>
            </g>
            <g id="Group_3507" data-name="Group 3507" transform="translate(3.789 2.189)">
              <g id="Group_3506" data-name="Group 3506" style="isolation: isolate">
                <g id="Group_3504" data-name="Group 3504">
                  <path id="Path_8407" data-name="Path 8407" d="M491.831,528.955l-3.842-2.234c-1.287-.746-2.082-2.337-2.091-4.593a15.758,15.758,0,0,1,7.144-12.389c2-1.153,3.806-1.26,5.111-.5L502,511.472c-1.3-.76-3.114-.652-5.111.5a15.759,15.759,0,0,0-7.144,12.389C489.749,526.618,490.544,528.208,491.831,528.955Z" transform="translate(-485.898 -508.753)" fill="#262626"/>
                </g>
                <g id="Group_3505" data-name="Group 3505" transform="translate(3.842 2.233)">
                  <path id="Path_8408" data-name="Path 8408" d="M493.947,526.726c-3.954,2.283-7.175.447-7.188-4.1A15.759,15.759,0,0,1,493.9,510.24c3.967-2.292,7.193-.456,7.2,4.106A15.75,15.75,0,0,1,493.947,526.726Z" transform="translate(-486.758 -509.253)" fill="#898989"/>
                </g>
              </g>
            </g>
            <g id="Group_3511" data-name="Group 3511" transform="translate(7.658 4.422)">
              <g id="Group_3510" data-name="Group 3510" style="isolation: isolate">
                <g id="Group_3508" data-name="Group 3508">
                  <path id="Path_8409" data-name="Path 8409" d="M492.7,529.455l-3.842-2.234c-1.287-.746-2.086-2.337-2.091-4.593A15.754,15.754,0,0,1,493.9,510.24c2-1.153,3.806-1.26,5.111-.5l3.842,2.234c-1.3-.755-3.114-.648-5.111.5a15.755,15.755,0,0,0-7.139,12.389C490.611,527.119,491.41,528.709,492.7,529.455Z" transform="translate(-486.764 -509.253)" fill="#bfbfbf"/>
                </g>
                <g id="Group_3509" data-name="Group 3509" transform="translate(3.842 2.233)">
                  <path id="Path_8410" data-name="Path 8410" d="M494.813,527.226c-3.954,2.279-7.175.447-7.189-4.1a15.755,15.755,0,0,1,7.139-12.389c3.972-2.292,7.193-.456,7.207,4.106A15.763,15.763,0,0,1,494.813,527.226Z" transform="translate(-487.624 -509.753)" fill="#898989"/>
                </g>
              </g>
            </g>
          </g>
          <g id="Group_3520" data-name="Group 3520" transform="translate(2.478 253.26)">
            <g id="Group_3519" data-name="Group 3519" style="isolation: isolate">
              <g id="Group_3513" data-name="Group 3513" transform="translate(70.415 13.139)">
                <path id="Path_8411" data-name="Path 8411" d="M497.371,522.1l-11.6-6.742-.024-8.666,11.6,6.743Z" transform="translate(-485.744 -506.694)" fill="#d9d9d9"/>
              </g>
              <g id="Group_3514" data-name="Group 3514" transform="translate(47.836)">
                <path id="Path_8412" data-name="Path 8412" d="M492.292,510.5l-11.6-6.742,30.347,5.3,11.6,6.743Z" transform="translate(-480.69 -503.753)" fill="#e6e6e6"/>
              </g>
              <g id="Group_3515" data-name="Group 3515" transform="translate(30.232)">
                <path id="Path_8413" data-name="Path 8413" d="M488.351,520.66l-11.6-6.742,17.6-10.164,11.6,6.742Z" transform="translate(-476.749 -503.753)" fill="#f2f2f2"/>
              </g>
              <g id="Group_3516" data-name="Group 3516" transform="translate(0 10.165)">
                <path id="Path_8414" data-name="Path 8414" d="M481.585,553.042l-11.6-6.742,30.232-40.272,11.6,6.742Z" transform="translate(-469.983 -506.028)" fill="#e6e6e6"/>
              </g>
              <g id="Group_3517" data-name="Group 3517" transform="translate(0 50.436)">
                <path id="Path_8415" data-name="Path 8415" d="M481.619,533.8l-11.6-6.742-.034-12.016,11.6,6.742Z" transform="translate(-469.983 -515.042)" fill="#d9d9d9"/>
              </g>
              <g id="Group_3518" data-name="Group 3518" transform="translate(11.603 6.743)">
                <path id="Path_8416" data-name="Path 8416" d="M520.416,505.262l30.347,5.3.047,12.009-7.79,4.5-.025-8.665-22.553-3.93-17.605,10.164L480.38,554.552l.024,8.665-7.79,4.5L472.58,555.7l30.231-40.272Z" transform="translate(-472.58 -505.262)" fill="#a6a6a6"/>
              </g>
            </g>
          </g>
          <g id="Group_3524" data-name="Group 3524" transform="translate(39.874)">
            <g id="Group_3523" data-name="Group 3523" style="isolation: isolate">
              <g id="Group_3521" data-name="Group 3521" transform="translate(0 4.28)">
                <path id="Path_8417" data-name="Path 8417" d="M493.213,448.064,493.2,705.109a3.676,3.676,0,0,1-2.153,3.016,11.567,11.567,0,0,1-10.5.009,3.735,3.735,0,0,1-2.2-3.065l.009-257.045a3.729,3.729,0,0,0,2.2,3.065,11.58,11.58,0,0,0,10.5,0A3.688,3.688,0,0,0,493.213,448.064Z" transform="translate(-478.353 -448.024)" fill="#d9d9d9"/>
              </g>
              <g id="Group_3522" data-name="Group 3522" transform="translate(0.011)">
                <path id="Path_8418" data-name="Path 8418" d="M491.019,448.33c2.9,1.675,2.917,4.4.031,6.076a11.58,11.58,0,0,1-10.5,0c-2.913-1.68-2.931-4.405-.036-6.089A11.575,11.575,0,0,1,491.019,448.33Z" transform="translate(-478.356 -447.066)" fill="#898989"/>
              </g>
            </g>
          </g>
        </g>
        <g id="Group_3529" data-name="Group 3529" transform="translate(60.343 275.961)">
          <g id="Group_3528" data-name="Group 3528" style="isolation: isolate">
            <g id="Group_3526" data-name="Group 3526">
              <path id="Path_8419" data-name="Path 8419" d="M703.854,618.277,481.25,489.75a3.684,3.684,0,0,1-1.532-3.373,11.561,11.561,0,0,1,5.241-9.1,3.714,3.714,0,0,1,3.753-.371l222.6,128.531a3.714,3.714,0,0,0-3.753.371,11.566,11.566,0,0,0-5.245,9.1A3.669,3.669,0,0,0,703.854,618.277Z" transform="translate(-479.718 -476.554)" fill="#f2f2f2"/>
            </g>
            <g id="Group_3527" data-name="Group 3527" transform="translate(222.599 128.533)">
              <path id="Path_8420" data-name="Path 8420" d="M534.823,518.152c-2.9,1.675-5.272.326-5.281-3.007a11.566,11.566,0,0,1,5.245-9.1c2.913-1.684,5.281-.335,5.29,3.011A11.579,11.579,0,0,1,534.823,518.152Z" transform="translate(-529.542 -505.324)" fill="#898989"/>
            </g>
          </g>
        </g>
        <g id="Group_3568" data-name="Group 3568" transform="translate(242.246 275.687)">
          <g id="Group_3542" data-name="Group 3542" transform="translate(0 313.688)">
            <g id="Group_3533" data-name="Group 3533">
              <g id="Group_3532" data-name="Group 3532" style="isolation: isolate">
                <g id="Group_3530" data-name="Group 3530">
                  <path id="Path_8421" data-name="Path 8421" d="M526.366,566.906l-3.842-2.234c-1.287-.746-2.086-2.337-2.091-4.593a15.754,15.754,0,0,1,7.139-12.389c2-1.153,3.807-1.26,5.111-.5l3.842,2.234c-1.3-.76-3.109-.652-5.111.5a15.753,15.753,0,0,0-7.139,12.389C524.28,564.57,525.079,566.16,526.366,566.906Z" transform="translate(-520.433 -546.705)" fill="#bfbfbf"/>
                </g>
                <g id="Group_3531" data-name="Group 3531" transform="translate(3.842 2.232)">
                  <path id="Path_8422" data-name="Path 8422" d="M528.481,564.678c-3.954,2.283-7.175.447-7.188-4.1a15.753,15.753,0,0,1,7.139-12.389c3.972-2.292,7.193-.456,7.207,4.106A15.762,15.762,0,0,1,528.481,564.678Z" transform="translate(-521.293 -547.205)" fill="#898989"/>
                </g>
              </g>
            </g>
            <g id="Group_3537" data-name="Group 3537" transform="translate(3.789 2.189)">
              <g id="Group_3536" data-name="Group 3536" style="isolation: isolate">
                <g id="Group_3534" data-name="Group 3534">
                  <path id="Path_8423" data-name="Path 8423" d="M527.218,567.4l-3.846-2.234c-1.287-.746-2.082-2.337-2.091-4.593a15.759,15.759,0,0,1,7.144-12.389c2-1.153,3.806-1.26,5.111-.5l3.842,2.234c-1.3-.76-3.114-.652-5.111.5a15.771,15.771,0,0,0-7.144,12.389C525.132,565.06,525.932,566.65,527.218,567.4Z" transform="translate(-521.281 -547.195)" fill="#262626"/>
                </g>
                <g id="Group_3535" data-name="Group 3535" transform="translate(3.842 2.233)">
                  <path id="Path_8424" data-name="Path 8424" d="M529.329,565.168c-3.949,2.283-7.175.447-7.188-4.1a15.771,15.771,0,0,1,7.144-12.389c3.967-2.292,7.193-.456,7.207,4.106A15.768,15.768,0,0,1,529.329,565.168Z" transform="translate(-522.141 -547.695)" fill="#898989"/>
                </g>
              </g>
            </g>
            <g id="Group_3541" data-name="Group 3541" transform="translate(7.658 4.419)">
              <g id="Group_3540" data-name="Group 3540" style="isolation: isolate">
                <g id="Group_3538" data-name="Group 3538">
                  <path id="Path_8425" data-name="Path 8425" d="M528.08,567.9l-3.842-2.234c-1.287-.75-2.086-2.337-2.091-4.593a15.754,15.754,0,0,1,7.139-12.389c2-1.157,3.806-1.264,5.111-.5l3.843,2.234c-1.3-.759-3.11-.652-5.107.505a15.752,15.752,0,0,0-7.144,12.389C525.994,565.563,526.794,567.149,528.08,567.9Z" transform="translate(-522.147 -547.694)" fill="#bfbfbf"/>
                </g>
                <g id="Group_3539" data-name="Group 3539" transform="translate(3.842 2.237)">
                  <path id="Path_8426" data-name="Path 8426" d="M530.2,565.663c-3.954,2.283-7.175.447-7.188-4.092a15.752,15.752,0,0,1,7.144-12.389c3.967-2.292,7.189-.456,7.2,4.106A15.746,15.746,0,0,1,530.2,565.663Z" transform="translate(-523.007 -548.195)" fill="#898989"/>
                </g>
              </g>
            </g>
          </g>
          <g id="Group_3555" data-name="Group 3555" transform="translate(69.79 273.412)">
            <g id="Group_3546" data-name="Group 3546">
              <g id="Group_3545" data-name="Group 3545" style="isolation: isolate">
                <g id="Group_3543" data-name="Group 3543">
                  <path id="Path_8427" data-name="Path 8427" d="M541.987,557.891l-3.842-2.234c-1.287-.746-2.086-2.336-2.091-4.593a15.766,15.766,0,0,1,7.139-12.389c2-1.153,3.807-1.26,5.116-.5l3.842,2.234c-1.3-.76-3.114-.652-5.111.5A15.759,15.759,0,0,0,539.9,553.3C539.905,555.555,540.7,557.145,541.987,557.891Z" transform="translate(-536.054 -537.69)" fill="#bfbfbf"/>
                </g>
                <g id="Group_3544" data-name="Group 3544" transform="translate(3.842 2.233)">
                  <path id="Path_8428" data-name="Path 8428" d="M544.1,555.663c-3.954,2.283-7.175.447-7.188-4.1a15.759,15.759,0,0,1,7.144-12.389c3.967-2.292,7.188-.456,7.2,4.106A15.75,15.75,0,0,1,544.1,555.663Z" transform="translate(-536.914 -538.19)" fill="#898989"/>
                </g>
              </g>
            </g>
            <g id="Group_3550" data-name="Group 3550" transform="translate(3.793 2.189)">
              <g id="Group_3549" data-name="Group 3549" style="isolation: isolate">
                <g id="Group_3547" data-name="Group 3547">
                  <path id="Path_8429" data-name="Path 8429" d="M542.836,558.382l-3.843-2.234c-1.287-.746-2.086-2.337-2.091-4.593a15.755,15.755,0,0,1,7.139-12.389c2-1.153,3.807-1.26,5.111-.5L553,540.9c-1.3-.76-3.114-.652-5.111.5a15.754,15.754,0,0,0-7.139,12.389C540.75,556.045,541.549,557.635,542.836,558.382Z" transform="translate(-536.903 -538.181)" fill="#262626"/>
                </g>
                <g id="Group_3548" data-name="Group 3548" transform="translate(3.842 2.233)">
                  <path id="Path_8430" data-name="Path 8430" d="M544.952,556.153c-3.954,2.283-7.175.447-7.188-4.1a15.754,15.754,0,0,1,7.139-12.389c3.972-2.292,7.193-.456,7.206,4.106A15.762,15.762,0,0,1,544.952,556.153Z" transform="translate(-537.763 -538.68)" fill="#898989"/>
                </g>
              </g>
            </g>
            <g id="Group_3554" data-name="Group 3554" transform="translate(7.658 4.422)">
              <g id="Group_3553" data-name="Group 3553" style="isolation: isolate">
                <g id="Group_3551" data-name="Group 3551">
                  <path id="Path_8431" data-name="Path 8431" d="M543.7,558.882l-3.842-2.234c-1.287-.751-2.082-2.337-2.091-4.593a15.758,15.758,0,0,1,7.144-12.389c2-1.153,3.8-1.26,5.111-.5l3.842,2.234c-1.3-.755-3.114-.648-5.111.5a15.759,15.759,0,0,0-7.144,12.389C541.619,556.546,542.414,558.132,543.7,558.882Z" transform="translate(-537.768 -538.68)" fill="#bfbfbf"/>
                </g>
                <g id="Group_3552" data-name="Group 3552" transform="translate(3.842 2.234)">
                  <path id="Path_8432" data-name="Path 8432" d="M545.817,556.653c-3.954,2.283-7.175.447-7.188-4.1a15.759,15.759,0,0,1,7.144-12.389c3.967-2.292,7.189-.456,7.2,4.106A15.751,15.751,0,0,1,545.817,556.653Z" transform="translate(-538.628 -539.18)" fill="#898989"/>
                </g>
              </g>
            </g>
          </g>
          <g id="Group_3563" data-name="Group 3563" transform="translate(2.476 253.26)">
            <g id="Group_3562" data-name="Group 3562" style="isolation: isolate">
              <g id="Group_3556" data-name="Group 3556" transform="translate(70.415 13.139)">
                <path id="Path_8433" data-name="Path 8433" d="M548.375,551.529l-11.6-6.743-.025-8.665,11.6,6.742Z" transform="translate(-536.748 -536.121)" fill="#d9d9d9"/>
              </g>
              <g id="Group_3557" data-name="Group 3557" transform="translate(47.836)">
                <path id="Path_8434" data-name="Path 8434" d="M543.3,539.923l-11.6-6.743,30.347,5.3,11.6,6.743Z" transform="translate(-531.694 -533.18)" fill="#e6e6e6"/>
              </g>
              <g id="Group_3558" data-name="Group 3558" transform="translate(30.231)">
                <path id="Path_8435" data-name="Path 8435" d="M539.356,550.087l-11.6-6.743,17.6-10.164,11.6,6.743Z" transform="translate(-527.754 -533.18)" fill="#f2f2f2"/>
              </g>
              <g id="Group_3559" data-name="Group 3559" transform="translate(0 10.164)">
                <path id="Path_8436" data-name="Path 8436" d="M532.589,582.469l-11.6-6.743,30.231-40.272,11.6,6.743Z" transform="translate(-520.987 -535.455)" fill="#e6e6e6"/>
              </g>
              <g id="Group_3560" data-name="Group 3560" transform="translate(0 50.436)">
                <path id="Path_8437" data-name="Path 8437" d="M532.623,563.228l-11.6-6.742-.034-12.017,11.6,6.743Z" transform="translate(-520.987 -544.469)" fill="#d9d9d9"/>
              </g>
              <g id="Group_3561" data-name="Group 3561" transform="translate(11.602 6.743)">
                <path id="Path_8438" data-name="Path 8438" d="M571.42,534.689l30.347,5.3.047,12.009-7.791,4.5L594,547.828l-22.553-3.93-17.6,10.164-22.457,29.917.025,8.665-7.791,4.5-.034-12.017,30.231-40.272Z" transform="translate(-523.584 -534.689)" fill="#a6a6a6"/>
              </g>
            </g>
          </g>
          <g id="Group_3567" data-name="Group 3567" transform="translate(39.874)">
            <g id="Group_3566" data-name="Group 3566" style="isolation: isolate">
              <g id="Group_3564" data-name="Group 3564" transform="translate(0 4.28)">
                <path id="Path_8439" data-name="Path 8439" d="M544.218,477.491l-.009,257.045a3.682,3.682,0,0,1-2.158,3.016,11.566,11.566,0,0,1-10.5.009,3.721,3.721,0,0,1-2.194-3.065l.009-257.044a3.715,3.715,0,0,0,2.194,3.065,11.589,11.589,0,0,0,10.5,0A3.7,3.7,0,0,0,544.218,477.491Z" transform="translate(-529.358 -477.451)" fill="#d9d9d9"/>
              </g>
              <g id="Group_3565" data-name="Group 3565" transform="translate(0.009)">
                <path id="Path_8440" data-name="Path 8440" d="M542.021,477.758c2.9,1.675,2.917,4.4.036,6.076a11.589,11.589,0,0,1-10.5,0c-2.913-1.68-2.927-4.405-.031-6.089A11.565,11.565,0,0,1,542.021,477.758Z" transform="translate(-529.36 -476.493)" fill="#898989"/>
              </g>
            </g>
          </g>
        </g>
        <g id="Group_3590" data-name="Group 3590">
          <g id="Group_3589" data-name="Group 3589" style="isolation: isolate">
            <g id="Group_3569" data-name="Group 3569" transform="translate(332.099 191.738)">
              <path id="Path_8441" data-name="Path 8441" d="M541.142,464.445l11.6-6.743-.6,210.5-11.6,6.742Z" transform="translate(-540.545 -457.703)" fill="#a6a6a6"/>
            </g>
            <g id="Group_3570" data-name="Group 3570" transform="translate(0.597)">
              <path id="Path_8442" data-name="Path 8442" d="M466.345,421.529l11.6-6.743,332.1,191.738-11.6,6.743Z" transform="translate(-466.345 -414.786)" fill="#f2f2f2"/>
            </g>
            <g id="Group_3571" data-name="Group 3571" transform="translate(0 6.743)">
              <path id="Path_8443" data-name="Path 8443" d="M798.907,608.033l-.6,210.5L466.211,626.8l.6-210.5Z" transform="translate(-466.211 -416.295)" fill="#d9d9d9"/>
            </g>
            <g id="Group_3572" data-name="Group 3572" transform="translate(9.251 17.927)">
              <path id="Path_8444" data-name="Path 8444" d="M782.476,599.873l-.564,198.8L468.282,617.6l.563-198.8Z" transform="translate(-468.282 -418.799)" fill="#f2f2f2"/>
            </g>
            <g id="Group_3588" data-name="Group 3588" transform="translate(30.472 56.355)">
              <g id="Group_3573" data-name="Group 3573" transform="translate(192.044 110.879)">
                <path id="Path_8445" data-name="Path 8445" d="M588.036,640.732l-65.662-37.9a14.044,14.044,0,0,1-6.357-10.973V456.712c0-4.021,2.855-5.647,6.357-3.623l65.662,37.9a14.044,14.044,0,0,1,6.357,10.973V637.1C594.394,641.13,591.539,642.756,588.036,640.732Zm-65.662-184.82c-2.149-1.242-3.9-.246-3.9,2.22V593.276a8.6,8.6,0,0,0,3.9,6.724l65.662,37.908c2.149,1.242,3.9.241,3.9-2.225V500.54a8.6,8.6,0,0,0-3.9-6.719Z" transform="translate(-516.017 -452.218)" fill="#4d4d4d"/>
              </g>
              <g id="Group_3576" data-name="Group 3576">
                <g id="Group_3574" data-name="Group 3574">
                  <path id="Path_8446" data-name="Path 8446" d="M545.047,615.919,479.39,578.01a14.033,14.033,0,0,1-6.357-10.973V431.9c0-4.025,2.85-5.652,6.357-3.628l65.657,37.908a14.036,14.036,0,0,1,6.362,10.968V612.286C551.409,616.316,548.554,617.943,545.047,615.919ZM479.39,431.094c-2.149-1.237-3.9-.241-3.9,2.225V568.458a8.611,8.611,0,0,0,3.9,6.728l65.657,37.9c2.149,1.242,3.9.241,3.9-2.225V475.727a8.608,8.608,0,0,0-3.9-6.724Z" transform="translate(-473.032 -427.4)" fill="#4d4d4d"/>
                </g>
                <path id="Path_8447" data-name="Path 8447" d="M517.047,476.581,480.9,455.708c-2.341-1.349-4.24-4.977-4.24-8.1h0c0-3.123,1.9-4.557,4.24-3.2l36.148,20.869c2.341,1.354,4.24,4.977,4.24,8.1h0C521.287,476.5,519.388,477.93,517.047,476.581Z" transform="translate(-460.455 -370.188)" fill="#4d4d4d"/>
                <path id="Path_8448" data-name="Path 8448" d="M533.493,483.286l-57.231-33.043a3.334,3.334,0,0,1-1.394-2.658h0c0-1.023.625-1.492,1.394-1.05l57.231,33.043a3.323,3.323,0,0,1,1.389,2.658h0C534.882,483.259,534.262,483.728,533.493,483.286Z" transform="translate(-466.665 -361.626)" fill="#4d4d4d"/>
                <path id="Path_8449" data-name="Path 8449" d="M533.493,484.972l-57.231-33.043a3.328,3.328,0,0,1-1.394-2.658h0c0-1.023.625-1.492,1.394-1.05l57.231,33.043a3.33,3.33,0,0,1,1.389,2.658h0C534.882,484.945,534.262,485.414,533.493,484.972Z" transform="translate(-466.665 -355.78)" fill="#4d4d4d"/>
                <path id="Path_8450" data-name="Path 8450" d="M533.493,486.662l-57.231-33.048a3.325,3.325,0,0,1-1.394-2.654h0c0-1.028.625-1.5,1.394-1.054l57.231,33.048a3.322,3.322,0,0,1,1.389,2.654h0C534.882,486.631,534.262,487.1,533.493,486.662Z" transform="translate(-466.665 -349.933)" fill="#4d4d4d"/>
                <path id="Path_8451" data-name="Path 8451" d="M533.493,488.346,476.262,455.3a3.341,3.341,0,0,1-1.394-2.658h0c0-1.023.625-1.5,1.394-1.05l57.231,33.043a3.324,3.324,0,0,1,1.389,2.658h0C534.882,488.319,534.262,488.788,533.493,488.346Z" transform="translate(-466.665 -344.085)" fill="#4d4d4d"/>
                <g id="Group_3575" data-name="Group 3575" transform="translate(24.411 147.782)">
                  <path id="Path_8452" data-name="Path 8452" d="M483.013,464.682c0,1.43-1.01,2.006-2.256,1.287a4.976,4.976,0,0,1-2.261-3.9c0-1.43,1.014-2.006,2.261-1.282A4.971,4.971,0,0,1,483.013,464.682Z" transform="translate(-478.496 -460.478)" fill="#4d4d4d"/>
                  <path id="Path_8453" data-name="Path 8453" d="M484.754,465.687c0,1.43-1.01,2.01-2.256,1.287a4.97,4.97,0,0,1-2.256-3.891c0-1.43,1.01-2.006,2.256-1.287A4.97,4.97,0,0,1,484.754,465.687Z" transform="translate(-472.441 -456.984)" fill="#4d4d4d"/>
                  <path id="Path_8454" data-name="Path 8454" d="M486.5,466.7c0,1.43-1.01,2.006-2.256,1.287a4.97,4.97,0,0,1-2.256-3.891c0-1.43,1.01-2.011,2.256-1.287A4.97,4.97,0,0,1,486.5,466.7Z" transform="translate(-466.39 -453.49)" fill="#4d4d4d"/>
                  <path id="Path_8455" data-name="Path 8455" d="M488.245,467.706c0,1.43-1.01,2.006-2.256,1.282a4.97,4.97,0,0,1-2.256-3.891c0-1.43,1.01-2.006,2.256-1.287A4.971,4.971,0,0,1,488.245,467.706Z" transform="translate(-460.339 -449.996)" fill="#4d4d4d"/>
                </g>
              </g>
              <g id="Group_3587" data-name="Group 3587" transform="translate(96.02 55.44)">
                <g id="Group_3577" data-name="Group 3577">
                  <path id="Path_8456" data-name="Path 8456" d="M566.543,628.328l-65.657-37.908a14.037,14.037,0,0,1-6.362-10.973V444.3c0-4.021,2.855-5.647,6.362-3.623l65.657,37.909a14.036,14.036,0,0,1,6.357,10.968V624.7C572.9,628.721,570.046,630.352,566.543,628.328ZM500.886,443.5c-2.149-1.242-3.9-.241-3.9,2.225V580.867a8.6,8.6,0,0,0,3.9,6.724L566.543,625.5c2.149,1.242,3.9.241,3.9-2.225V488.136a8.6,8.6,0,0,0-3.9-6.724Z" transform="translate(-494.524 -439.809)" fill="#4d4d4d"/>
                </g>
                <g id="Group_3578" data-name="Group 3578" transform="translate(10.773 20.544)">
                  <path id="Path_8457" data-name="Path 8457" d="M521.146,486.167l-24.211-13.978V444.407l24.211,13.979Z" transform="translate(-496.935 -444.407)" fill="#4d4d4d"/>
                  <path id="Path_8458" data-name="Path 8458" d="M528.448,490.383,504.237,476.4V448.623L528.448,462.6Z" transform="translate(-471.614 -429.788)" fill="#4d4bb7"/>
                </g>
                <g id="Group_3581" data-name="Group 3581" transform="translate(9.704 57.534)">
                  <g id="Group_3579" data-name="Group 3579">
                    <path id="Path_8459" data-name="Path 8459" d="M523.047,498.159,496.7,482.947v-30.26l26.35,15.217ZM498.84,481.7,520.9,494.447v-25.3L498.84,456.4Z" transform="translate(-496.696 -452.687)" fill="#4d4d4d"/>
                  </g>
                  <g id="Group_3580" data-name="Group 3580" transform="translate(32.619 18.836)">
                    <path id="Path_8460" data-name="Path 8460" d="M530.352,502.375,504,487.163V456.9l26.355,15.212Zm-24.21-16.455,22.066,12.742v-25.31l-22.066-12.737Z" transform="translate(-503.997 -456.903)" fill="#4d4d4d"/>
                  </g>
                </g>
                <g id="Group_3584" data-name="Group 3584" transform="translate(9.704 96.381)">
                  <g id="Group_3582" data-name="Group 3582">
                    <path id="Path_8461" data-name="Path 8461" d="M523.047,506.854,496.7,491.642v-30.26l26.35,15.217ZM498.84,490.4,520.9,503.142v-25.3L498.84,465.095Z" transform="translate(-496.696 -461.382)" fill="#4d4d4d"/>
                  </g>
                  <g id="Group_3583" data-name="Group 3583" transform="translate(32.619 18.836)">
                    <path id="Path_8462" data-name="Path 8462" d="M530.352,511.07,504,495.858V465.6l26.355,15.217Zm-24.21-16.45,22.066,12.738V482.052l-22.066-12.742Z" transform="translate(-503.997 -465.598)" fill="#4d4d4d"/>
                  </g>
                </g>
                <g id="Group_3585" data-name="Group 3585" transform="translate(10.769 137.086)">
                  <path id="Path_8463" data-name="Path 8463" d="M521.162,484.48v16.076l-24.228-13.988V470.493Z" transform="translate(-496.934 -470.493)" fill="#4d4d4d"/>
                  <path id="Path_8464" data-name="Path 8464" d="M528.439,488.682v16.076l-24.2-13.974V474.709Z" transform="translate(-471.613 -455.874)" fill="#4d4d4d"/>
                </g>
                <g id="Group_3586" data-name="Group 3586" transform="translate(10.769 3.422)">
                  <path id="Path_8465" data-name="Path 8465" d="M521.162,454.563v8.871l-24.228-13.987v-8.872Z" transform="translate(-496.934 -440.575)" fill="#4d4d4d"/>
                  <path id="Path_8466" data-name="Path 8466" d="M528.439,458.765v8.871l-24.2-13.974v-8.872Z" transform="translate(-471.613 -425.956)" fill="#4d4d4d"/>
                </g>
              </g>
            </g>
          </g>
        </g>
      </g>
    </g>
    <g id="Group_3598" data-name="Group 3598" transform="translate(444.188 579.442)">
      <ellipse id="Ellipse_428" data-name="Ellipse 428" cx="46.614" cy="80.741" rx="46.614" ry="80.741" transform="matrix(0.005, -1, 1, 0.005, 38.36, 528.366)" fill="#f2f2f2"/>
      <path id="Path_8467" data-name="Path 8467" d="M518.434,554.891c-.71-5.594-2.135-11.567-6.442-15.208a7.5,7.5,0,0,0-4.673-1.984,7.715,7.715,0,0,0-3.355.9c-9.516-7.827-19.148-15.869-24.876-26.7a58.167,58.167,0,0,0-3.378-6.152c-.232-.335-.5-.652-.76-.974q4.926-4.456,9.824-8.94a2.4,2.4,0,0,0,.643-3.2c-1.568-4.986-3.833-10.169-8.283-12.912a12.714,12.714,0,0,0-5.732-1.81c-1.34-.1-3.529.769-4.3-.608-3.681,2.2-6.938,5.96-9.722,9.181a106.667,106.667,0,0,0-7.76,10.343c-1.863,2.774-4.075,5.5-5.071,8.748-1.139,3.7.621,6.911,2.6,9.923a83.719,83.719,0,0,0,16.3,18.192c6.438,5.339,13.635,9.673,20.8,13.984,3.386,2.037,17.049,10,17.688,10.642,1.278,1.282,1.756,3.275,2.386,4.906a36.657,36.657,0,0,0,4.57,9.168,7.7,7.7,0,0,0,3.23,2.694,1.162,1.162,0,0,0,.853.067,1.329,1.329,0,0,0,.541-.536c2.489-3.73,4.646-7.832,5.165-12.286A30.92,30.92,0,0,0,518.434,554.891Z" transform="translate(-444.188 -362.663)" fill="#ffb78c"/>
      <path id="Path_8468" data-name="Path 8468" d="M483.539,474.385c-.349.286-.7.581-1.063.889-11.7,9.985-21.4,22.008-32.6,32.52a10.632,10.632,0,0,0-2.225,2.578c-1.4,2.618,1.041,5.71,2.712,7.7a32.119,32.119,0,0,0,19.117,10.941,63.748,63.748,0,0,0,11.044.549,33.036,33.036,0,0,0,6.094-.42,16.767,16.767,0,0,1,.478-3.815c.246-1.474.183-3.047.335-4.539.317-3.087.822-6.156,1.439-9.2,1.22-6.04,2.886-11.978,4.477-17.929a80.458,80.458,0,0,0,2.229-10.177,18.757,18.757,0,0,0,.161-4.333c-.17-1.68-.6-3.194-.214-4.915.2-.907,1.425-4.249,2.658-4.262C492.947,470.033,487.662,471.07,483.539,474.385Z" transform="translate(-433.61 -388.063)" fill="#f2f2f2"/>
      <path id="Path_8469" data-name="Path 8469" d="M456.529,578.532c-.353,4.226.29,8.569,3.561,11.192,2.4,1.926,5.857,1.541,8.645.875a12.1,12.1,0,0,0,6.46-4.334c1.5-1.912,2.14-4.454,3.717-6.339,1.3-1.564,3.293-2.346,5.182-3.1,7.51-2.993,15.128-6.746,19.935-13.247,1.769-2.39,3.936-5.638,1.671-8.547a5.48,5.48,0,0,0-2.52-1.685,15.484,15.484,0,0,0-4.767-.742,54.988,54.988,0,0,0-14.239,1.492,46.7,46.7,0,0,0-8.882,2.958c-1.975.911-3.869,2-5.759,3.078a25.5,25.5,0,0,0-4.249,2.5c-.576.514-1.8,2.247-2.547.894a2.954,2.954,0,0,1-.264-1.336,39.141,39.141,0,0,0-4.722,9.758A37.128,37.128,0,0,0,456.529,578.532Z" transform="translate(-401.691 -101.609)" fill="#4d4bb7"/>
      <path id="Path_8470" data-name="Path 8470" d="M512.119,557.541a23.593,23.593,0,0,0-1.3-5.6c-4.955-15.266-11.612-31.046-24.684-40.357-3.284-2.337-7.148-4.32-11.259-4.414-1.3-.031-2.413.5-3.556-.255-.8-.532-2.31-3.686-1.8-4.615a70.95,70.95,0,0,0-8.582,32.226c-.107,4.4-.353,10.2,1.148,14.6a13.945,13.945,0,0,0,.563,1.407c2.131,4.521,4.468,8.672,5.719,13.64,1.028,4.083.08,7.18.13,11.223.063,5.228.188,10.455.219,15.682.063,10.62-.107,21.244-.871,31.837a107.264,107.264,0,0,1-2.654,18.608c-1.961,7.738-6.429,14.458-7.783,22.343-1.188,6.921-.9,14-.608,21.012q1.052,25.312,2.1,50.623.1,2.292.192,4.58c.067,1.617-.255,2.511,1.3,3.239a16.285,16.285,0,0,0,7.725,1.05,55.83,55.83,0,0,0,18.009-3.963c2.256-.911,1.358-3.069,1.416-5.084.045-1.617,2.721-35.147,3.753-44.5q1.656-15.079,3.565-30.126,1.669-13.3,3.48-26.592c.8-5.839,1.6-11.679,2.511-17.5a32.52,32.52,0,0,1,.657-3.775c2.748-9.749,6.746-19.207,8.127-29.241.853-6.232.684-12.581,1.689-18.8A32.168,32.168,0,0,0,512.119,557.541Z" transform="translate(-401.367 -275.977)" fill="#333"/>
      <path id="Path_8471" data-name="Path 8471" d="M470.265,573.886a16.767,16.767,0,0,0,2.1,9.413c2.073,3.306,6.5,4.615,10.312,3.793,3.136-.675,5.987-2.56,9.19-2.779a18.464,18.464,0,0,1,5.647.8,249.383,249.383,0,0,0,25.511,5.156,23.1,23.1,0,0,0,9.641-.563c5.826-1.76,15.454-9.61,9.177-15.923a14.968,14.968,0,0,0-5.406-3.047c-7.179-2.779-14.511-5.138-21.878-7.376a174.576,174.576,0,0,0-20.23-5.169,80.967,80.967,0,0,0-10.32-1.2c-2.113-.1-5.808,1.01-6.813-1.251-3.248,1.559-4.722,5.928-5.545,9.154A41.96,41.96,0,0,0,470.265,573.886Z" transform="translate(-353.795 -90.632)" fill="#9996ff"/>
      <path id="Path_8472" data-name="Path 8472" d="M538.729,735.391c-.38-5.026-3.02-102.547.219-146.081.429-5.754.67-11.522.612-17.29-.183-18.452-3.114-36.939-5.491-55.212-.424-3.244-.943-6.706-3.15-9.123,1.863,2.042-5.8,10.852-7.4,11.987a19.986,19.986,0,0,1-11.191,3.6c-6.532.188-12.872-2.207-18.715-5.142-4.838-2.426-9.476-5.259-14.426-7.475-2.069-.925-4.343-1.05-6.3-1.841-1.193-.523-2.1-1.89-3.208-2.6-1.434-.929-3.217-1.586-4.74-2.386a1.855,1.855,0,0,0-1.528-.286,1.772,1.772,0,0,0-.8,1.037,44.511,44.511,0,0,0-2.319,24.72c1.89,10.758,6.3,21.2,14.614,28.352,4.039,3.476,8.359,6.849,11.138,11.491,2.372,3.967,3.431,8.569,4.392,13.095,3.181,15.012,5.643,30.171,7.582,45.392,1.863,14.614,1.019,29.281,2.538,43.918,1.18,11.365,3.114,22.629,4.7,33.941q1.648,11.7,2.81,23.456.583,5.951,1.028,11.92c.206,2.77.719,4.414,3.226,5.96a14.353,14.353,0,0,0,7.354,1.68,34.529,34.529,0,0,0,18.3-4.557c1.564-.952,1.564-1.626,1.256-3.1A41.824,41.824,0,0,1,538.729,735.391Z" transform="translate(-390.966 -271.965)" fill="#424242"/>
      <path id="Path_8473" data-name="Path 8473" d="M472.108,470.375c-4.856.835-9.23,2.962-12.335,7.72a30.729,30.729,0,0,0-3.7,9.1c-3.127,12-2.56,23.831.3,35.737,1.961,8.158,5.133,15.963,7.908,23.88,2.167,6.183,4.1,12.452,6.031,18.715,2.582,8.395,5.187,16.879,5.8,25.64.661,9.355-.969,18.648-2.5,27.834-.773,4.62-1.546,9.244-2.006,13.908-.188,1.93-.974,4.293-.867,6.188.121,2.069,1.872,4.231,3.19,5.723,3.123,3.525,7.43,5.893,11.763,7.595a64.742,64.742,0,0,0,20.686,4.369,119.42,119.42,0,0,0,19.555-1.139c9.168-1.1,18.55-2.529,26.61-7.045,1.756-.983,2.734-1.814,2.573-3.851-1.546-19.564-.755-39.213.572-58.764,1.341-19.7,3.235-39.378,3.874-59.121.192-5.964.366-11.929.3-17.893-.031-2.962-.411-6-.295-8.949.1-2.466-.219-4.338-2.529-5.808a22.05,22.05,0,0,0-5.826-2.091c-6.978-2.042-12.983-6.46-19.56-9.561a105.912,105.912,0,0,0-14.569-5.232c-10.588-3.2-21.347-6.282-32.422-7.131A51.689,51.689,0,0,0,472.108,470.375Z" transform="translate(-410.277 -388.303)" fill="#d9d9d9"/>
      <path id="Path_8474" data-name="Path 8474" d="M519.4,470.485c1.8,3.766,3.047,7.827,5.41,11.263A33.439,33.439,0,0,0,529.4,486.9a3.406,3.406,0,0,1,1.09,1.506c.34,1.309-.907,2.421-1.653,3.552-1.859,2.81-.706,6.518.179,9.766a49.786,49.786,0,0,1,1.425,7.412,7.6,7.6,0,0,1-.567,4.776c-1.689,2.819-5.768,2.578-8.806,3.824-4.906,2.015-6.8,7.832-8.135,12.965q-1.1,4.235-2.2,8.475c-6.523-.465-13.046,1.2-19.573.831a31.694,31.694,0,0,1-14.842-4.687c-1.314-.818-2.734-2.145-2.328-3.641a4.717,4.717,0,0,1,.643-1.224c3.516-5.567,1.47-13.046-2.145-18.55s-8.649-10.048-11.692-15.887c-7.037-13.51-1.153-30.622,12.228-37.489a53.445,53.445,0,0,1,14.533-4.566,42.346,42.346,0,0,1,13.47-.818c3.583.483,7.805,1.448,10.316,4.271C514.647,461.134,517.261,466.018,519.4,470.485Z" transform="translate(-396.97 -447.284)" fill="#ffb78c"/>
      <path id="Path_8475" data-name="Path 8475" d="M515.367,469.186c-6.25,4.62-8.717,13.014-8.283,20.775a23.605,23.605,0,0,0-7.385-2.39,7.992,7.992,0,0,0-7.032,2.56c-1.465,1.859-1.675,4.374-1.975,6.724a28.023,28.023,0,0,1-2.283,8.609,13.968,13.968,0,0,1-5.942,6.487c-3.346,1.742-6.036-1.372-8.042-3.538a63.353,63.353,0,0,1-6.465-7.711,71.827,71.827,0,0,1-6.022-11.683,47.114,47.114,0,0,1-2.967-8.2c-.572-2.77-1.385-5.571-1.282-8.444a12.313,12.313,0,0,1,2.8-7.644c.75-.858,2.189-.813,3.23-1.135a21.709,21.709,0,0,1,6.88-.581,40.4,40.4,0,0,0,15.762-3.029c3.172-1.309,6.179-3.016,9.431-4.106a8.9,8.9,0,0,1,4.419-.558c3,.558,5.214,3.619,6.827,6.009A22.942,22.942,0,0,0,515.367,469.186Z" transform="translate(-397.4 -439.211)" fill="#733118"/>
      <path id="Path_8476" data-name="Path 8476" d="M464.487,482.281a17.149,17.149,0,0,0,2.618-1.171,3.622,3.622,0,0,1,1.291-.527,6.549,6.549,0,0,1,1.416.094,63.359,63.359,0,0,0,33.115-5.848c4.571-2.18,9-5.026,11.871-9.2,1.345-1.952,2.328-4.508,1.336-6.666a6.953,6.953,0,0,0-2.069-2.395,23.753,23.753,0,0,0-12.965-4.821,44.52,44.52,0,0,0-13.917,1.385c-8.976,2.144-17.866,6.362-22.7,14.618a6.574,6.574,0,0,1-1.019,1.465,9.075,9.075,0,0,1-1.564,1.059,10.2,10.2,0,0,0-4.106,6.563,14.253,14.253,0,0,0,.433,8.02c.094.246.228.469.317.715a3.368,3.368,0,0,1,1.97-2.113,17.811,17.811,0,0,1,2.859-.84C463.754,482.522,464.12,482.411,464.487,482.281Z" transform="translate(-398.287 -451.641)" fill="#8c3c1d"/>
      <g id="Group_3597" data-name="Group 3597" transform="translate(225.871 4.28)">
        <path id="Path_8477" data-name="Path 8477" d="M506.621,466.458l-3.373-5.844,13.095-7.564a3.376,3.376,0,0,1,4.611,1.237h0a3.371,3.371,0,0,1-1.238,4.606Z" transform="translate(-465.255 -452.599)" fill="#fff"/>
        <g id="Group_3596" data-name="Group 3596" transform="translate(0 2.08)">
          <g id="Group_3595" data-name="Group 3595" style="isolation: isolate">
            <g id="Group_3593" data-name="Group 3593" transform="translate(1.291)">
              <path id="Path_8478" data-name="Path 8478" d="M495.033,476.889l41.036-23.536a3.054,3.054,0,0,1,3.065.3,9.6,9.6,0,0,1,4.361,7.546,3.079,3.079,0,0,1-1.3,2.846L501.167,487.58a3.086,3.086,0,0,0,1.291-2.846,9.6,9.6,0,0,0-4.36-7.546A3.055,3.055,0,0,0,495.033,476.889Z" transform="translate(-495.033 -453.065)" fill="#80c5ff"/>
            </g>
            <g id="Group_3594" data-name="Group 3594" transform="translate(0 23.537)">
              <path id="Path_8479" data-name="Path 8479" d="M494.744,461.466c0-2.788,1.948-3.927,4.356-2.547a9.6,9.6,0,0,1,4.36,7.546c0,2.792-1.952,3.931-4.36,2.551A9.6,9.6,0,0,1,494.744,461.466Z" transform="translate(-494.744 -458.333)" fill="#4d4bb7"/>
            </g>
          </g>
        </g>
      </g>
      <path id="Path_8480" data-name="Path 8480" d="M592.762,473.234a12.553,12.553,0,0,0-1.515-4.03,4.863,4.863,0,0,0-3.489-2.314,13.789,13.789,0,0,1-7.336-6.679,1.851,1.851,0,0,1-.826-.558,1.568,1.568,0,0,1-.022-1.224,4.775,4.775,0,0,0,.174-2.109,1.793,1.793,0,0,0-1.363-1.465,2.7,2.7,0,0,0-1.64.487l-6.5,3.605a3.831,3.831,0,0,0-1.01.715,3.873,3.873,0,0,0-.657,1.211q-1.481,3.766-2.958,7.528a8.808,8.808,0,0,0-.29,7.93q1.085,3.257,2.18,6.51l1.93,5.763c1.282,3.833-2.658,16.191-3.668,18.706A227.622,227.622,0,0,1,549.1,540.567q-5.234,8.6-11.232,16.714c-1.3-.188-2.627-.286-3.941-.375q-15.943-1.059-31.77-3.373l-3.511.031a14.374,14.374,0,0,1-4.53.822c-1.532.2-3.2.791-3.865,2.185a5.431,5.431,0,0,0-.223,2.958,64.559,64.559,0,0,0,1.358,7.5,4.116,4.116,0,0,1,.179,1.657,3.878,3.878,0,0,1-.952,1.711,65.046,65.046,0,0,1-11.553,11.076c5.643,2.5,11.888,3.248,18.041,3.7a214.657,214.657,0,0,0,45.249-1.457,42.154,42.154,0,0,0,10.057-2.332,6.6,6.6,0,0,0,2.319-1.506,12.937,12.937,0,0,0,2.046-2.176c7.318-9.427,11.808-20.686,16.2-31.779a262.49,262.49,0,0,0,9.1-25.47c1.385-4.914,7.264-23.871,7.613-24.657.719-1.626,1.1-3.445,1.867-5.026a20.963,20.963,0,0,0,1.854-4.923A29.281,29.281,0,0,0,592.762,473.234Z" transform="translate(-323.25 -440.552)" fill="#ffb78c"/>
      <path id="Path_8481" data-name="Path 8481" d="M475.86,508.926A40.864,40.864,0,0,0,503.1,527.087a30.623,30.623,0,0,0,11.741.018c6.554-1.394,11.567-6.719,15.4-11.911a38.979,38.979,0,0,0,6.232-11.683,25.7,25.7,0,0,0,1.184-8.69c-.13-2.578-.232-5.719-3.226-6.241a86.523,86.523,0,0,1-11.209-2.833c-8.395-2.663-16.481-6.2-24.876-8.855a80.609,80.609,0,0,0-12.662-3.029c-3.994-.581-7.876-.661-11.151,2.127-3.2,2.721-3.949,6.134-4.258,10.119a38.01,38.01,0,0,0,1.943,15.15A37.165,37.165,0,0,0,475.86,508.926Z" transform="translate(-354.069 -375.712)" fill="#f2f2f2"/>
    </g>
  </g>
</svg>
