<svg id="Group_4973" data-name="Group 4973" xmlns="http://www.w3.org/2000/svg" width="435.126" height="701.098" viewBox="0 0 435.126 701.098">
  <path id="Path_11724" data-name="Path 11724" d="M604.27,1461.945c-2.193.02-4.3-.817-6.483-1.054-3-.326-6.035.495-9.044.233-10.218-.888-53.719-24.868-2.85-63.555C649.276,1349.366,631.267,1461.7,604.27,1461.945Z" transform="translate(-390.342 -1304.515)" fill="#202c36"/>
  <path id="Path_11725" data-name="Path 11725" d="M517.7,1444.25c13.447,14.687,38.124,9.59,30.853-25.41C543.24,1393.286,495.315,1419.807,517.7,1444.25Z" transform="translate(-390.342 -1304.515)" fill="#202c36"/>
  <path id="Path_11726" data-name="Path 11726" d="M577.162,1478.988c-27.515,0-55.128-7.954-.228-7.954C631.118,1471.034,604.911,1478.988,577.162,1478.988Z" transform="translate(-390.342 -1304.515)" fill="#fedfcf"/>
  <path id="Path_11727" data-name="Path 11727" d="M661.029,1538.543c-33.86-24.07-65.356-23.532-52.5-86.017l-58.264-3.582c-2.366,46.376.707,49.664-18.96,66.8-4.331,3.775-31.949,19.391-31.949,19.391C543.178,1573.6,623.236,1570.421,661.029,1538.543Z" transform="translate(-390.342 -1304.515)" fill="#f3877b"/>
  <path id="Path_11728" data-name="Path 11728" d="M535.418,1361.445c-24.488,89.028,45.365,151.166,83.133,82.419C686.706,1319.8,555.348,1288.986,535.418,1361.445Z" transform="translate(-390.342 -1304.515)" fill="#f3877b"/>
  <path id="Path_11729" data-name="Path 11729" d="M600.977,1335.407c2.059,14.666-9.947,16.488-20.426,16.97-33.167,1.528-48.528,44.16-49.04,58.5-25.055-57.643,25.929-118.591,58.9-104.232C600.275,1310.941,599.726,1326.495,600.977,1335.407Z" transform="translate(-390.342 -1304.515)" fill="#202c36"/>
  <g id="Group_4931" data-name="Group 4931" transform="translate(233.189 99.663)">
    <path id="Path_11730" data-name="Path 11730" d="M636.7,1404.713c-8.4-3.913-11.634,14.619-12.99,23.854C621.036,1446.774,649.92,1410.876,636.7,1404.713Z" transform="translate(-623.531 -1404.178)" fill="#f3877b"/>
  </g>
  <g id="Group_4932" data-name="Group 4932" transform="translate(131.862 83.097)">
    <path id="Path_11731" data-name="Path 11731" d="M527.827,1387.677c9.15-1.313,7.017,17.382,5.707,26.624C530.95,1432.521,513.416,1389.747,527.827,1387.677Z" transform="translate(-522.204 -1387.611)" fill="#f3877b"/>
  </g>
  <g id="Group_4933" data-name="Group 4933" transform="translate(152.859 70.422)">
    <path id="Path_11732" data-name="Path 11732" d="M554.809,1401.019c-3.039-.45-3.727-12.508,3.643-11.416C562.386,1390.186,559.78,1401.755,554.809,1401.019Z" transform="translate(-543.201 -1374.936)" fill="#2b1e1a"/>
    <path id="Path_11733" data-name="Path 11733" d="M606.88,1408.732c3.038.45,7.1-10.9-.266-11.995C602.68,1396.154,601.909,1407.995,606.88,1408.732Z" transform="translate(-543.201 -1374.936)" fill="#2b1e1a"/>
    <path id="Path_11734" data-name="Path 11734" d="M564.363,1375.937c4.74,1.438,3.554,6.127-.137,5.4-5.211-1.035-5.992-3.442-16.621-.668C535.924,1383.713,549.551,1371.445,564.363,1375.937Z" transform="translate(-543.201 -1374.936)" fill="#272d3a"/>
    <path id="Path_11735" data-name="Path 11735" d="M604.406,1382.353c-4.92-.537-5.611,4.211-1.938,5.026,4.62,1.026,6.841-.818,15.577,5.915C627.646,1400.693,619.778,1384.03,604.406,1382.353Z" transform="translate(-543.201 -1374.936)" fill="#272d3a"/>
    <path id="Path_11736" data-name="Path 11736" d="M571.405,1420.171a1.773,1.773,0,0,0,.45,2.744c9.829,5.852,9.842.724,6.7.481-10.424-.81.568-3.82,3.376-21.112.3-1.818-1.788-2.141-2.221-.677C578.96,1404.156,578.14,1412.455,571.405,1420.171Z" transform="translate(-543.201 -1374.936)" fill="#e86248"/>
    <path id="Path_11737" data-name="Path 11737" d="M590.747,1441.376a.615.615,0,0,1,.569,1.033c-23.972,24.028-33.922-6.444-30.2-4.479C566.993,1441.03,577.993,1444.108,590.747,1441.376Z" transform="translate(-543.201 -1374.936)" fill="#fff"/>
  </g>
  <g id="Group_4934" data-name="Group 4934" transform="translate(136.766 92.151)">
    <path id="Path_11738" data-name="Path 11738" d="M528.386,1397.055a.669.669,0,1,1,1.206.579c-2.284,4.89-1.182,8.118.727,9.582a.68.68,0,0,1,.129.946C528.973,1410.141,525.119,1404.048,528.386,1397.055Z" transform="translate(-527.108 -1396.665)" fill="#e86248"/>
  </g>
  <g id="Group_4935" data-name="Group 4935" transform="translate(239.908 109.201)">
    <path id="Path_11739" data-name="Path 11739" d="M630.684,1423.071c2.224-1.961,2.384-5.509,2.358-8.68a.667.667,0,1,1,1.334-.011C634.473,1426.283,628.642,1424.864,630.684,1423.071Z" transform="translate(-630.25 -1413.716)" fill="#e86248"/>
  </g>
  <g id="Group_4936" data-name="Group 4936" transform="translate(160.57 154.253)">
    <path id="Path_11740" data-name="Path 11740" d="M552.19,1459.754c17.744,19.869,45.018,12.784,52.566,1.538,2.981-4.382.248,10.664-22.4,12.253C557.353,1475.3,547.076,1454.01,552.19,1459.754Z" transform="translate(-550.913 -1458.767)" fill="#e86248"/>
  </g>
  <path id="Path_11741" data-name="Path 11741" d="M476.079,1872.782c.005.146.015.355.033.683C476.1,1873.234,476.092,1873.011,476.079,1872.782Z" transform="translate(-390.342 -1304.515)" fill="#f3877b"/>
  <g id="Group_4937" data-name="Group 4937" transform="translate(3.186 218.747)">
    <path id="Path_11742" data-name="Path 11742" d="M394.81,1826.378c-.1,14.078,1,12.095,13.085,19.038,8.208,4.714,19.707,8.837,34.659.853,2.516-1.343,61.169,4.2,69.371-100.059,2.382-30.278-3.572-43.807-5.843-74.094-1.951-26.009,26.137-135.219-12.658-146.712-41.672-12.344-65.989,107.473-68.313,131.256C421,1698.722,395.226,1767.076,394.81,1826.378Z" transform="translate(-393.529 -1523.262)" fill="#fedfcf"/>
    <path id="Path_11743" data-name="Path 11743" d="M425.914,1852.045c-7.715,0-13.985-2.859-18.659-5.542-1.85-1.063-3.439-1.913-4.8-2.646-8.113-4.346-9-5.235-8.916-17.488.253-35.864,9.741-75.025,18.112-109.576,5.436-22.429,10.569-43.615,12.2-60.254,2.117-21.651,20.084-108.936,50.359-128.979,6.347-4.2,12.947-5.328,19.591-3.359,29.57,8.76,22.024,69.2,16.518,113.337-1.857,14.881-3.461,27.733-2.955,34.485.82,10.957,2.105,19.564,3.347,27.888,2.159,14.476,4.024,26.976,2.5,46.4-4.915,62.479-28.573,97.376-68.414,100.92-.718.063-1.531.136-1.732.2A36.007,36.007,0,0,1,425.914,1852.045Zm-29.83-25.657c-.079,11.157.211,11.309,7.585,15.261,1.385.743,3,1.6,4.868,2.68,7.233,4.152,18.559,8.755,33.411.835a7.421,7.421,0,0,1,2.606-.44c48.561-4.32,62.748-56.01,66.1-98.611,1.508-19.139-.339-31.511-2.475-45.836-1.248-8.368-2.538-17.021-3.368-28.067-.523-7,1.093-19.966,2.967-34.98,5.094-40.806,12.79-102.473-14.717-110.622-5.89-1.745-11.758-.722-17.437,3.039-29.523,19.545-47.151,105.732-49.241,127.134-1.643,16.811-6.8,38.079-12.254,60.6-8.339,34.42-17.793,73.432-18.043,109.011Z" transform="translate(-393.529 -1523.262)" fill="#fcbda3"/>
  </g>
  <path id="Path_11744" data-name="Path 11744" d="M561.522,2005.51c7.716.167,15.415.127,23.159-.1Q573.1,2005.561,561.522,2005.51Z" transform="translate(-390.342 -1304.515)" fill="#0c4e4a"/>
  <path id="Path_11745" data-name="Path 11745" d="M708.216,1980c-19.612-145.207-17.109-175.622-58.524-252.547-41.028,7.667-103.157,12.87-143.463,3.842-43.812,95.1-34.48,100.636-43.817,252.912a9.977,9.977,0,0,0,7.9,10.4c33.161,6.809,62.336,10.271,91.215,10.9q11.58.048,23.159-.1c35.282-1.041,71.58-6.082,115.55-14.241A9.972,9.972,0,0,0,708.216,1980Z" transform="translate(-390.342 -1304.515)" fill="#0c4e4a"/>
  <g id="Group_4938" data-name="Group 4938" transform="translate(0 571.119)">
    <path id="Path_11746" data-name="Path 11746" d="M428.889,1932.59c3.81-2.108,6.359,5.543.732,6.312a5.377,5.377,0,0,1-4.842-2.274c-1.871,3.767,5.127,6.99,3.7,10.827-2.707,7.267-37.626-8.666-27.694-29.46,2.124-4.445,5.093-.636,7.975,1.191C428.128,1931.464,443.617,1921.317,428.889,1932.59Z" transform="translate(-390.342 -1875.634)" fill="#e86248"/>
    <path id="Path_11747" data-name="Path 11747" d="M393.4,1908.636c-2.755,3.248-2.838,4.261-2.448,8.652,1.347,15.176-4.2,15.164,3.951,23.913,14.423,15.477,26.066,20.883,25.414,13.809-.722-7.826-29.1-16.8-15.089-38.551,9.937-15.435,20.923,1.265,17.09,10.125-1.047,2.422-5.673,7.741-2.087,15.056,18.372-11.175,12.444-30.458,14.133-41.974.65-4.426,6.368-20.974-6.637-23.728C419.869,1874.274,418.828,1878.658,393.4,1908.636Z" transform="translate(-390.342 -1875.634)" fill="#f3877b"/>
  </g>
  <path id="Path_11748" data-name="Path 11748" d="M649.692,1727.456c-48.437,15.042-103.407,16.795-143.463,3.842l4.521-28.308,132.951-3.56Z" transform="translate(-390.342 -1304.515)" fill="#073434"/>
  <g id="Group_4939" data-name="Group 4939" transform="translate(284.148 501.134)">
    <path id="Path_11749" data-name="Path 11749" d="M697.12,1903.909c-6.194.554-.639-13.88.363-29.718,1.764-27.893-13.271-33.2-13.669-21.306-.139,4.175,3.394,11.984-3.867,16.7-1.312.852-4.9,1.718-4.386-2.124,1.151-8.631-4.912-6.043,3.373-33.351,3.543-11.68,1.653-28.44,13.818-28.461,12.962-.023,12.466,20.71,13.375,26.091C714.778,1882.946,699.462,1903.7,697.12,1903.909Z" transform="translate(-674.49 -1805.649)" fill="#f38677"/>
  </g>
  <g id="Group_4940" data-name="Group 4940" transform="translate(222.292 218.887)">
    <path id="Path_11750" data-name="Path 11750" d="M615.719,1573.861c16.526,47.038,142.076,91.567,118.986,113.339a169.685,169.685,0,0,0-43.038,65.807c-5.547,15.439,1.248,10.315,8.2,25.16,7.572,16.179,11.52,20.053,29.161,19s38.736,17.1,51,4.214c22.923-24.095,39.612-56.9,40.253-90.361.423-22.073,9.71-49.95-1.979-71.183-6.651-12.081-19.5-18.964-28.567-29.3-29.618-33.778-74.221-43.068-111.469-75.224C644.789,1506.41,604.7,1542.495,615.719,1573.861Z" transform="translate(-612.634 -1523.402)" fill="#fedfcf"/>
    <path id="Path_11751" data-name="Path 11751" d="M768.706,1807.257c-5.833,0-12.241-2.183-18.532-4.323-7.088-2.414-14.381-4.9-21.074-4.513-18.126,1.084-22.56-2.982-30.395-19.728a35.265,35.265,0,0,0-6.791-9.981c-3.7-4.027-5.062-6.064-1.447-16.126a170.9,170.9,0,0,1,43.356-66.294,6.645,6.645,0,0,0,2.4-5.651c-.926-9.934-23.332-24.4-47.051-39.71-31.063-20.056-66.273-42.785-74.663-66.659-5.507-15.68,1.429-34.315,16.5-44.312,15.23-10.1,33.205-8.452,48.1,4.4,16.721,14.437,35.01,24.276,52.7,33.791,21.86,11.76,42.507,22.866,58.9,41.556a111.271,111.271,0,0,0,11.588,10.886c6.372,5.438,12.961,11.062,17.132,18.641,8.523,15.48,6.214,33.917,3.981,51.746a195.612,195.612,0,0,0-1.847,20.061c-.6,31.47-15.4,64.71-40.595,91.2A16.051,16.051,0,0,1,768.706,1807.257Zm-38.164-11.392c6.683,0,13.681,2.383,20.465,4.692,10.9,3.711,21.192,7.217,28.089-.037,24.77-26.038,39.316-58.669,39.908-89.525a198.154,198.154,0,0,1,1.864-20.321c2.184-17.437,4.443-35.467-3.689-50.239-3.952-7.178-10.078-12.405-16.562-17.94a113.471,113.471,0,0,1-11.849-11.142c-16.085-18.345-36.535-29.346-58.187-40.994-17.807-9.58-36.224-19.487-53.156-34.106-13.969-12.062-30.793-13.632-44.993-4.209-14.123,9.371-20.646,26.784-15.508,41.405,8.1,23.064,42.924,45.544,73.649,65.379,25.3,16.334,47.153,30.441,48.192,41.583a9.11,9.11,0,0,1-3.178,7.7,168.423,168.423,0,0,0-42.718,65.318c-3.252,9.048-2.2,10.195.933,13.6a37.846,37.846,0,0,1,7.217,10.616c7.359,15.72,10.8,19.287,27.929,18.272C729.476,1795.881,730.009,1795.865,730.542,1795.865Z" transform="translate(-612.634 -1523.402)" fill="#fcbda3"/>
  </g>
  <path id="Path_11752" data-name="Path 11752" d="M685.161,1807.686l20.112,14.546,23.751-25.066c-12.275-1.876-21.749-8.3-29.161-19Z" transform="translate(-390.342 -1304.515)" fill="#fcbda3"/>
  <g id="Group_4941" data-name="Group 4941" transform="translate(91.014 202.239)">
    <path id="Path_11753" data-name="Path 11753" d="M538.207,1509.306c5.593,19.2,72.191,17.881,76.383-.937,19.891,6.222,37.753,11.133,55.825,21.6,16.337,109-5.754,170.556-32.044,175.133-54.688,8.793-87.123,10.377-127.735,1.8-35.828-11.57-32.141-132.371-17.212-181.5C493.424,1525.4,509.487,1518.066,538.207,1509.306Z" transform="translate(-481.356 -1506.754)" fill="#fedfcf"/>
    <path id="Path_11754" data-name="Path 11754" d="M563.787,1713.832a252.735,252.735,0,0,1-53.42-5.7c-38.173-12.32-32.384-136.289-18.163-183.093l.165-.541.52-.239c.16-.074,16.469-7.474,44.941-16.16l1.243-.379.359,1.234c2.662,9.148,21.619,13.386,39,12.844,18.888-.591,33.244-6.225,34.909-13.7l.3-1.345,7.867,2.446c17.154,5.3,33.355,10.306,49.549,19.69l.525.3.091.595c16.2,108.116-4.952,171.657-33.084,176.554C609.691,1710.99,586.3,1713.832,563.787,1713.832Zm-69.306-187.52c-15.354,51.309-17.424,168.43,16.552,179.4,42.251,8.916,75.98,6.375,127.132-1.848,23.027-4.008,47.859-60.37,31.078-173.111-15.771-9.044-31.67-13.957-48.492-19.156l-5.3-1.644c-3.61,9.831-21.875,13.89-36.933,14.361-17.668.558-36.846-3.418-41.1-13.451C512.63,1518.482,497.416,1525.018,494.481,1526.312Z" transform="translate(-481.356 -1506.754)" fill="#fcbda3"/>
  </g>
  <g id="Group_4942" data-name="Group 4942" transform="translate(169.41 402.821)">
    <path id="Path_11755" data-name="Path 11755" d="M568.68,1745.546c-2.756,0-4.358-.374-5.576-1.41a5.318,5.318,0,0,1-1.707-3.888c-.336-4.916-.658-9.011-.928-12.42-.931-11.8-1.211-15.354.751-17.6a5.317,5.317,0,0,1,3.8-1.64c3.4-.238,6.31-.475,8.791-.677,9.2-.752,12.647-1.033,14.843.832a5.323,5.323,0,0,1,1.707,3.889c.336,4.916.658,9.011.928,12.421.931,11.794,1.211,15.353-.751,17.6a5.311,5.311,0,0,1-3.8,1.639l-.163-2.256.163,2.256c-3.4.239-6.315.476-8.8.68C573.848,1745.305,570.893,1745.546,568.68,1745.546Zm14.661-33.7c-2.137,0-5.483.274-9.15.573-2.495.2-5.421.442-8.844.681a1.959,1.959,0,0,0-.7.122c-.658.894-.216,6.5.4,14.253.27,3.422.594,7.533.93,12.469a1.952,1.952,0,0,0,.148.789c.793.595,5.73.192,11.441-.274,2.495-.2,5.423-.443,8.849-.683a1.95,1.95,0,0,0,.7-.121c.658-.894.216-6.5-.4-14.252-.27-3.423-.594-7.534-.93-12.469a1.938,1.938,0,0,0-.148-.789A5.063,5.063,0,0,0,583.341,1711.848Z" transform="translate(-559.752 -1707.336)" fill="#073f3f"/>
  </g>
  <path id="Path_11756" data-name="Path 11756" d="M438.376,1879.062l-24.7.6-5.779-34.251c11.2,5.426,22.6,5.5,34.659.853Z" transform="translate(-390.342 -1304.515)" fill="#fcbda3"/>
  <path id="Path_11757" data-name="Path 11757" d="M631.111,1489.288c4.045-65.817,27.851-98.916.63-153.039-14.521-28.872-33.962-30.817-36.586-18.892C594.826,1318.852,630.119,1505.429,631.111,1489.288Z" transform="translate(-390.342 -1304.515)" fill="#202c36"/>
  <path id="Path_11758" data-name="Path 11758" d="M614.59,1508.369c-2.6,18.671-72.531,21.17-76.383.937l7.25-35.549c21.274,5.4,40.3,6.577,62.918,0Z" transform="translate(-390.342 -1304.515)" fill="#fcbda3"/>
  <g id="Group_4943" data-name="Group 4943" transform="translate(205.915 11.366)">
    <path id="Path_11759" data-name="Path 11759" d="M600.315,1337.638a1.288,1.288,0,0,1-.344-.046,1.256,1.256,0,0,1-.884-1.549,22.85,22.85,0,0,0-2.635-18.24,1.246,1.246,0,0,1,.4-1.732,1.287,1.287,0,0,1,1.756.4,25.382,25.382,0,0,1,2.93,20.252A1.272,1.272,0,0,1,600.315,1337.638Z" transform="translate(-596.258 -1315.88)" fill="#232630"/>
  </g>
  <g id="Group_4944" data-name="Group 4944" transform="translate(172.111 6.962)">
    <path id="Path_11760" data-name="Path 11760" d="M563.728,1321.568a1.289,1.289,0,0,1-.862-.329,1.247,1.247,0,0,1-.079-1.776c6.683-7.2,16.251-8.664,22.411-7.737,3.988.6,6.958,2.2,7.945,4.267a1.249,1.249,0,0,1-.611,1.672,1.282,1.282,0,0,1-1.7-.6c-.5-1.042-2.549-2.328-6.022-2.849a23.509,23.509,0,0,0-20.143,6.948A1.284,1.284,0,0,1,563.728,1321.568Z" transform="translate(-562.453 -1311.477)" fill="#232630"/>
  </g>
  <g id="Group_4945" data-name="Group 4945" transform="translate(187.781 19.473)">
    <path id="Path_11761" data-name="Path 11761" d="M581.678,1328.015a16.841,16.841,0,0,1-2.469-.174,1.257,1.257,0,1,1,.379-2.486,26.088,26.088,0,0,0,8.419-.622c1.577-.286,3.208-.58,4.846-.724,1.941-.181,2.56.847,2.744,1.293a1.25,1.25,0,0,1-.7,1.639,1.292,1.292,0,0,1-1.523-.435,1.665,1.665,0,0,0-.3.006c-1.52.134-3.092.418-4.612.693A38.393,38.393,0,0,1,581.678,1328.015Z" transform="translate(-578.124 -1323.988)" fill="#232630"/>
  </g>
  <g id="Group_4946" data-name="Group 4946" transform="translate(171.386 29.464)">
    <path id="Path_11762" data-name="Path 11762" d="M563,1354.069a1.279,1.279,0,0,1-.872-.339,1.245,1.245,0,0,1-.06-1.777c8.231-8.659,13.632-8.905,18.857-9.143a21.707,21.707,0,0,0,8.68-1.685c2.225-1,4.75-3.114,5.158-6.06a1.281,1.281,0,0,1,1.434-1.076,1.259,1.259,0,0,1,1.091,1.415c-.457,3.313-3,6.382-6.627,8.009a24.147,24.147,0,0,1-9.618,1.909c-4.933.224-9.592.436-17.113,8.35A1.28,1.28,0,0,1,563,1354.069Z" transform="translate(-561.728 -1333.978)" fill="#232630"/>
  </g>
  <g id="Group_4947" data-name="Group 4947" transform="translate(140.43 27.181)">
    <path id="Path_11763" data-name="Path 11763" d="M532.051,1365.2a1.445,1.445,0,0,1-.2-.014,1.258,1.258,0,0,1-1.066-1.434c1.864-11.9,8.788-22.3,14.9-31.485a1.284,1.284,0,0,1,1.766-.362,1.246,1.246,0,0,1,.366,1.739c-5.966,8.969-12.731,19.134-14.509,30.491A1.27,1.27,0,0,1,532.051,1365.2Z" transform="translate(-530.773 -1331.696)" fill="#232630"/>
  </g>
  <g id="Group_4948" data-name="Group 4948" transform="translate(144.807 52.745)">
    <path id="Path_11764" data-name="Path 11764" d="M536.428,1378.25a1.347,1.347,0,0,1-.229-.019,1.259,1.259,0,0,1-1.029-1.46c1.881-10.3,3.331-12.81,8.722-19.068a1.288,1.288,0,0,1,1.8-.144,1.245,1.245,0,0,1,.147,1.772c-4.819,5.592-6.29,7.66-8.157,17.886A1.269,1.269,0,0,1,536.428,1378.25Z" transform="translate(-535.15 -1357.26)" fill="#232630"/>
  </g>
  <g id="Group_4949" data-name="Group 4949" transform="translate(212.984 12.541)">
    <path id="Path_11765" data-name="Path 11765" d="M625.754,1341.443a1.266,1.266,0,0,1-1.275-1.229c-.191-8.614-8.624-16.581-14.548-19.486-2.8-1.373-4.222-1.246-4.583-.991a1.286,1.286,0,0,1-1.781-.283,1.246,1.246,0,0,1,.288-1.754c1.893-1.352,4.966-.323,7.211.778,6.052,2.967,15.737,11.477,15.963,21.681a1.265,1.265,0,0,1-1.248,1.284Z" transform="translate(-603.326 -1317.056)" fill="#232630"/>
  </g>
  <g id="Group_4950" data-name="Group 4950" transform="translate(213.938 24.074)">
    <path id="Path_11766" data-name="Path 11766" d="M612.657,1337.2a1.271,1.271,0,0,1-1.245-.989c-.407-1.854-3.527-5.274-5.794-5.106a1.21,1.21,0,0,1-1.336-1.192,1.264,1.264,0,0,1,1.208-1.319c3.626-.188,7.782,4.219,8.413,7.082a1.255,1.255,0,0,1-.975,1.495A1.2,1.2,0,0,1,612.657,1337.2Z" transform="translate(-604.28 -1328.589)" fill="#232630"/>
  </g>
  <g id="Group_4951" data-name="Group 4951" transform="translate(212.663 35.203)">
    <path id="Path_11767" data-name="Path 11767" d="M614.6,1391.251a1.27,1.27,0,0,1-1.237-.957,325.747,325.747,0,0,1-7.2-36.658c-.886-6.242-1.333-9.375-2.974-12a1.248,1.248,0,0,1,.418-1.73,1.283,1.283,0,0,1,1.753.41c1.921,3.075,2.422,6.589,3.328,12.971a323.939,323.939,0,0,0,7.15,36.407,1.255,1.255,0,0,1-.933,1.521A1.281,1.281,0,0,1,614.6,1391.251Z" transform="translate(-603.005 -1339.718)" fill="#232630"/>
  </g>
  <g id="Group_4952" data-name="Group 4952" transform="translate(239.825 51.045)">
    <path id="Path_11768" data-name="Path 11768" d="M633.653,1408.777a1.2,1.2,0,0,1-.189-.013,1.257,1.257,0,0,1-1.074-1.427l.082-.554c2.259-15.006,5.072-33.681-2.191-49.446a1.25,1.25,0,0,1,.633-1.664,1.283,1.283,0,0,1,1.69.625c7.573,16.439,4.7,35.522,2.39,50.855l-.083.552A1.267,1.267,0,0,1,633.653,1408.777Z" transform="translate(-630.167 -1355.56)" fill="#232630"/>
  </g>
  <g id="Group_4953" data-name="Group 4953" transform="translate(230.838 107.693)">
    <path id="Path_11769" data-name="Path 11769" d="M629.094,1450.788a1.269,1.269,0,0,1-1.262-1.1,335.72,335.72,0,0,0-6.617-35.933,1.256,1.256,0,0,1,.946-1.513,1.276,1.276,0,0,1,1.535.932,337.849,337.849,0,0,1,6.666,36.2,1.272,1.272,0,0,1-1.268,1.415Z" transform="translate(-621.18 -1412.208)" fill="#232630"/>
  </g>
  <g id="Group_4954" data-name="Group 4954" transform="translate(125.552 113.122)">
    <path id="Path_11770" data-name="Path 11770" d="M520.362,1436.265a1.283,1.283,0,0,1-.631-.164c-3.262-1.832-4.5-5.057-3.5-9.081,1.164-4.641,5.114-9.289,7.971-9.383a1.245,1.245,0,0,1,1.316,1.216,1.265,1.265,0,0,1-1.233,1.3c-1.228.041-4.586,3.526-5.578,7.475-.729,2.915.037,5.032,2.282,6.292a1.246,1.246,0,0,1,.476,1.714A1.275,1.275,0,0,1,520.362,1436.265Z" transform="translate(-515.894 -1417.637)" fill="#232630"/>
  </g>
  <g id="Group_4955" data-name="Group 4955" transform="translate(139.526 121.602)">
    <path id="Path_11771" data-name="Path 11771" d="M537.15,1442.193a1.279,1.279,0,0,1-.875-.343,20.523,20.523,0,0,1-6.406-14.458,1.275,1.275,0,0,1,2.55-.036,17.972,17.972,0,0,0,5.6,12.666,1.244,1.244,0,0,1,.054,1.776A1.285,1.285,0,0,1,537.15,1442.193Z" transform="translate(-529.869 -1426.117)" fill="#232630"/>
  </g>
  <g id="Group_4956" data-name="Group 4956" transform="translate(132.534 135.76)">
    <path id="Path_11772" data-name="Path 11772" d="M532.06,1447.812a1.34,1.34,0,0,1-.189-.013,13,13,0,0,1-8.785-5.577,1.246,1.246,0,0,1,.366-1.741,1.288,1.288,0,0,1,1.766.36,10.389,10.389,0,0,0,7.027,4.471,1.256,1.256,0,0,1-.185,2.5Z" transform="translate(-522.877 -1440.275)" fill="#232630"/>
  </g>
  <g id="Group_4967" data-name="Group 4967" transform="translate(15.099 312.895)">
    <g id="Group_4957" data-name="Group 4957" transform="translate(332.5 41.948)">
      <path id="Path_11773" data-name="Path 11773" d="M756.224,1698.329a1.271,1.271,0,0,1-1.2-.825c-3.1-8.333-6.991-16.036-14.578-15.9l-2.508.041,15.524-21.753a1.286,1.286,0,0,1,1.778-.3,1.245,1.245,0,0,1,.309,1.751l-12.794,17.928c8.766,1.5,12.694,12.074,14.661,17.374a1.266,1.266,0,0,1-1.2,1.689Z" transform="translate(-737.942 -1659.357)" fill="#fcbda3"/>
    </g>
    <g id="Group_4958" data-name="Group 4958" transform="translate(381.582 3.227)">
      <path id="Path_11774" data-name="Path 11774" d="M788.481,1658.209a1.269,1.269,0,0,1-1.255-1.052c-.892-5.339,1.326-8.672,3.473-11.9,3.222-4.837,6.555-9.839,2.289-22.987a1.253,1.253,0,0,1,.825-1.58,1.281,1.281,0,0,1,1.6.815c4.64,14.289.633,20.3-2.584,25.132-2.135,3.205-3.82,5.735-3.09,10.106a1.258,1.258,0,0,1-1.051,1.444A1.139,1.139,0,0,1,788.481,1658.209Z" transform="translate(-787.023 -1620.636)" fill="#fcbda3"/>
    </g>
    <g id="Group_4959" data-name="Group 4959" transform="translate(32.93 206.699)">
      <path id="Path_11775" data-name="Path 11775" d="M442.437,1847.3l-1.285-2.375a23.143,23.143,0,0,1-2.756-12.06,1.3,1.3,0,0,1,1.334-1.2,1.265,1.265,0,0,1,1.216,1.315,20.617,20.617,0,0,0,1.307,8.243,60.162,60.162,0,0,1,11.669-16.739,1.285,1.285,0,0,1,1.8-.02,1.244,1.244,0,0,1,.019,1.778,57.575,57.575,0,0,0-12.285,18.56Z" transform="translate(-438.372 -1824.109)" fill="#fcbda3"/>
    </g>
    <g id="Group_4960" data-name="Group 4960" transform="translate(0 204.571)">
      <path id="Path_11776" data-name="Path 11776" d="M408.2,1841.823a1.274,1.274,0,0,1-1.213-.872,32.064,32.064,0,0,1-.487-18.037,1.279,1.279,0,0,1,1.56-.893,1.255,1.255,0,0,1,.906,1.537,29.53,29.53,0,0,0,.447,16.624,1.253,1.253,0,0,1-.822,1.581A1.3,1.3,0,0,1,408.2,1841.823Z" transform="translate(-405.442 -1821.98)" fill="#fcbda3"/>
    </g>
    <g id="Group_4961" data-name="Group 4961" transform="translate(296.026 133.12)">
      <path id="Path_11777" data-name="Path 11777" d="M703.055,1773.656a1.269,1.269,0,0,1-1.255-1.046,24.638,24.638,0,0,1,7.29-21.738,1.29,1.29,0,0,1,1.8.052,1.245,1.245,0,0,1-.054,1.776,22.082,22.082,0,0,0-6.524,19.488,1.258,1.258,0,0,1-1.044,1.45A1.3,1.3,0,0,1,703.055,1773.656Z" transform="translate(-701.468 -1750.53)" fill="#fcbda3"/>
    </g>
    <g id="Group_4962" data-name="Group 4962" transform="translate(322.295 160.885)">
      <path id="Path_11778" data-name="Path 11778" d="M729.012,1794.041a1.269,1.269,0,0,1-1.228-.922,1.254,1.254,0,0,1,.889-1.547,33.809,33.809,0,0,0,18.392-12.753,1.29,1.29,0,0,1,1.778-.292,1.248,1.248,0,0,1,.295,1.755A36.371,36.371,0,0,1,729.351,1794,1.315,1.315,0,0,1,729.012,1794.041Z" transform="translate(-727.737 -1778.295)" fill="#fcbda3"/>
    </g>
    <g id="Group_4963" data-name="Group 4963" transform="translate(31.759)">
      <path id="Path_11779" data-name="Path 11779" d="M453.1,1650.921a1.3,1.3,0,0,1-.666-.184,32.4,32.4,0,0,1-14.847-32.269,1.275,1.275,0,0,1,1.461-1.043,1.26,1.26,0,0,1,1.059,1.44,29.835,29.835,0,0,0,13.659,29.726,1.249,1.249,0,0,1,.422,1.728A1.275,1.275,0,0,1,453.1,1650.921Z" transform="translate(-437.201 -1617.41)" fill="#fcbda3"/>
    </g>
    <g id="Group_4964" data-name="Group 4964" transform="translate(72.879 93.609)">
      <path id="Path_11780" data-name="Path 11780" d="M479.6,1740.313a1.279,1.279,0,0,1-.975-.446,1.243,1.243,0,0,1,.155-1.771c2.181-1.811,4.215-3.475,6.1-5.015,11.618-9.489,17.449-14.251,16.7-20.662a1.276,1.276,0,0,1,2.535-.286c.9,7.763-5.286,12.816-17.611,22.883-1.882,1.537-3.913,3.2-6.089,5A1.276,1.276,0,0,1,479.6,1740.313Z" transform="translate(-478.321 -1711.018)" fill="#fcbda3"/>
    </g>
    <g id="Group_4965" data-name="Group 4965" transform="translate(104.33 56.975)">
      <path id="Path_11781" data-name="Path 11781" d="M520.686,1702.1a1.281,1.281,0,0,1-.919-.386,35.951,35.951,0,0,1-9.967-26.127,1.29,1.29,0,0,1,1.326-1.2,1.265,1.265,0,0,1,1.224,1.306,33.416,33.416,0,0,0,9.255,24.286,1.246,1.246,0,0,1-.035,1.777A1.289,1.289,0,0,1,520.686,1702.1Z" transform="translate(-509.772 -1674.385)" fill="#fcbda3"/>
    </g>
    <g id="Group_4966" data-name="Group 4966" transform="translate(212.047 46.395)">
      <path id="Path_11782" data-name="Path 11782" d="M618.764,1700.6a1.279,1.279,0,0,1-1.034-.521,1.246,1.246,0,0,1,.287-1.755,45.717,45.717,0,0,0,18.792-33.365,1.283,1.283,0,0,1,1.371-1.156,1.263,1.263,0,0,1,1.174,1.35,48.262,48.262,0,0,1-19.844,35.209A1.286,1.286,0,0,1,618.764,1700.6Z" transform="translate(-617.488 -1663.805)" fill="#fcbda3"/>
    </g>
  </g>
  <g id="Group_4972" data-name="Group 4972" transform="translate(95.375 425.537)">
    <g id="Group_4968" data-name="Group 4968" transform="translate(24.656 11.222)">
      <path id="Path_11783" data-name="Path 11783" d="M513.177,1994.6a1.266,1.266,0,0,1-1.27-1.179c-5.17-82.476,2.869-174.031,22.059-251.185a1.274,1.274,0,0,1,2.476.6c-19.129,76.919-27.146,168.2-21.99,250.432a1.263,1.263,0,0,1-1.194,1.331A.719.719,0,0,1,513.177,1994.6Z" transform="translate(-510.374 -1741.274)" fill="#073434"/>
    </g>
    <g id="Group_4969" data-name="Group 4969" transform="translate(137.506 8.172)">
      <path id="Path_11784" data-name="Path 11784" d="M649.562,1991.112a1.281,1.281,0,0,1-1.275-1.336c6.366-98.361-2.043-182.438-25-249.9a1.254,1.254,0,0,1,.8-1.591,1.277,1.277,0,0,1,1.613.792c23.059,67.768,31.513,152.167,25.125,250.855A1.267,1.267,0,0,1,649.562,1991.112Z" transform="translate(-623.224 -1738.224)" fill="#073434"/>
    </g>
    <g id="Group_4970" data-name="Group 4970" transform="translate(0 4.928)">
      <path id="Path_11785" data-name="Path 11785" d="M486.992,1787.4a1.275,1.275,0,0,1-.958-.429,1.243,1.243,0,0,1,.118-1.773c16.835-14.537,27.318-33.183,35.352-49.505a1.285,1.285,0,0,1,1.7-.582,1.248,1.248,0,0,1,.59,1.679c-8.145,16.549-18.788,35.467-35.966,50.3A1.281,1.281,0,0,1,486.992,1787.4Z" transform="translate(-485.718 -1734.98)" fill="#073434"/>
    </g>
    <g id="Group_4971" data-name="Group 4971" transform="translate(146.152)">
      <path id="Path_11786" data-name="Path 11786" d="M670.611,1776.768a1.3,1.3,0,0,1-.329-.042c-16.916-4.452-34.023-29.673-38.365-45.081a1.252,1.252,0,0,1,.886-1.547,1.279,1.279,0,0,1,1.57.874c4.649,16.489,22,39.491,36.567,43.326a1.256,1.256,0,0,1,.9,1.538A1.273,1.273,0,0,1,670.611,1776.768Z" transform="translate(-631.87 -1730.052)" fill="#073434"/>
    </g>
  </g>
</svg>
