<svg xmlns="http://www.w3.org/2000/svg" width="41.14" height="50.961" viewBox="0 0 41.14 50.961">
  <g id="اندروید" transform="translate(-191.8 -237.4)">
    <path id="Path_3551" data-name="Path 3551" d="M252.922,237.4c.721.487.793.865.36,1.622-.685,1.135-1.352,2.271-2.036,3.406.667.45,1.334.829,1.946,1.315a13.255,13.255,0,0,1,5.3,10.29c.036.919-.306,1.279-1.225,1.279H232.9c-.919,0-1.279-.36-1.225-1.279a13.31,13.31,0,0,1,6.83-11.3c.126-.072.252-.144.432-.252-.414-.685-.811-1.37-1.207-2.036-.288-.469-.559-.937-.847-1.406-.451-.757-.36-1.135.342-1.622h.595a11.267,11.267,0,0,1,.721.9c.631,1.027,1.261,2.054,1.856,3.1a.409.409,0,0,0,.595.216,12.965,12.965,0,0,1,8.181,0,.421.421,0,0,0,.595-.216q.919-1.595,1.892-3.135a10.527,10.527,0,0,1,.7-.865A5.423,5.423,0,0,1,252.922,237.4Zm3.658,16.056a11.59,11.59,0,0,0-23.1,0Z" transform="translate(-32.686)" fill="#d5d5d5"/>
    <path id="Path_3552" data-name="Path 3552" d="M245.872,364.764h-1.766c0,.18-.018.36-.018.541v4.775a3.544,3.544,0,0,1-2.847,3.532,3.485,3.485,0,0,1-3.946-1.982,4.715,4.715,0,0,1-.36-1.73c-.054-1.694-.018-3.388-.018-5.154-.36,0-.7.018-1.045,0a4.306,4.306,0,0,1-4.307-4.451c-.018-5.893,0-11.767,0-17.66,0-.757.342-1.081,1.081-1.135h24.327a3.3,3.3,0,0,1,.595.036.894.894,0,0,1,.829.847,2.922,2.922,0,0,1,.018.4v17.371a4.6,4.6,0,0,1-.829,2.811,4.235,4.235,0,0,1-3.388,1.8c-.36.018-.721,0-1.153,0v.577c0,1.568.018,3.154,0,4.721a3.569,3.569,0,0,1-7.136.2c-.018-1.622,0-3.244-.018-4.883C245.872,365.161,245.872,364.98,245.872,364.764Zm-12.524-21.426V360.1a2.564,2.564,0,0,0,2.829,2.829h1.153c1.153,0,1.388.234,1.388,1.352v5.568a1.847,1.847,0,0,0,1.207,1.91,1.784,1.784,0,0,0,2.361-1.784c.018-1.946,0-3.874,0-5.821,0-.937.288-1.225,1.261-1.243h2.829c.991,0,1.279.27,1.279,1.261,0,1.946-.018,3.874,0,5.821a1.782,1.782,0,0,0,2.379,1.748,1.885,1.885,0,0,0,1.189-1.892v-5.875a.943.943,0,0,1,1.063-1.081h1.388a2.589,2.589,0,0,0,2.9-2.919V343.3C248.827,343.338,241.114,343.338,233.348,343.338Z" transform="translate(-32.592 -85.341)" fill="#d5d5d5"/>
    <path id="Path_3553" data-name="Path 3553" d="M198.053,350.984c0,2.18.036,4.379-.018,6.559a3.021,3.021,0,0,1-2.973,2.793,3.1,3.1,0,0,1-3.19-2.559,7.268,7.268,0,0,1-.072-1.081V345.019a3.21,3.21,0,0,1,1.676-3.045,3.108,3.108,0,0,1,4.577,2.5c0,.108.018.234.018.342v6.163Zm-1.784-.054v-6.073a1.329,1.329,0,1,0-2.649-.036q-.027,6.136,0,12.272a1.678,1.678,0,0,0,.252.883,1.3,1.3,0,0,0,2.379-.793C196.269,355.11,196.269,353.02,196.269,350.929Z" transform="translate(0 -85.418)" fill="#d5d5d5"/>
    <path id="Path_3554" data-name="Path 3554" d="M385.391,350.9c0-2.162-.036-4.343.018-6.505a3.027,3.027,0,0,1,2.991-2.811,3.1,3.1,0,0,1,3.154,2.595,7.263,7.263,0,0,1,.072,1.081V356.9a3.178,3.178,0,0,1-1.748,3.1,3.081,3.081,0,0,1-4.487-2.523c-.054-2.2,0-4.379,0-6.577Zm1.784.054h0v6.109a1.322,1.322,0,1,0,2.631.018c.018-4.091,0-8.181,0-12.272a1.856,1.856,0,0,0-.2-.811,1.3,1.3,0,0,0-1.46-.595,1.284,1.284,0,0,0-.973,1.279Z" transform="translate(-158.686 -85.409)" fill="#d5d5d5"/>
    <path id="Path_3555" data-name="Path 3555" d="M269.9,294.769v.5c-.018.487-.216.685-.7.7h-.252c-1.352,0-1.784-.577-1.388-1.892a.572.572,0,0,1,.667-.469c.559.072,1.243-.306,1.622.378a1.8,1.8,0,0,1,.054.775Z" transform="translate(-61.991 -46.052)" fill="#d5d5d5"/>
    <path id="Path_3556" data-name="Path 3556" d="M330.8,294.935v-.541a.573.573,0,0,1,.613-.631c.378-.018.757,0,1.135,0a.5.5,0,0,1,.234.054c.667.469.342,1.153.342,1.748,0,.432-.36.595-.775.577h-.4C330.872,296.124,330.8,296.052,330.8,294.935Z" transform="translate(-113.952 -46.2)" fill="#d5d5d5"/>
  </g>
</svg>