<svg id="Group_4887" data-name="Group 4887" xmlns="http://www.w3.org/2000/svg" width="464.477" height="719.699" viewBox="0 0 464.477 719.699">
  <path id="Path_11601" data-name="Path 11601" d="M-831.924,369.076c-20.67,26.034-28.471,40.363-21.514,55.935,7.044,15.765,194.611,40.526,177.935-8.116-3.635-10.6-12.964-19.3-13.6-27.23-.413-5.17,5.027-9.609,4.579-14.774-.491-5.677-12.171-9.813-16.416-13.817-5.815-5.486-2.716-12.7-6.555-19.514-6.011-10.673-4.279-17.832-5.722-20.929-17.992-38.587-98.212-27.067-112.262-2.941C-834.516,333.21-817.669,351.123-831.924,369.076Z" transform="translate(988.207 -259.067)" fill="#222730"/>
  <path id="Path_11602" data-name="Path 11602" d="M-685.221,489.8c-34.341-24.094-66.285-23.554-53.244-86.1l-59.093-3.585c-2.4,46.421.718,49.712-19.229,66.867-4.393,3.779-32.4,19.409-32.4,19.409C-804.748,524.9-723.552,521.712-685.221,489.8Z" transform="translate(988.41 -255.906)" fill="#f3877b"/>
  <path id="Path_11603" data-name="Path 11603" d="M-822.49,320.863c-15.172,91.258,61.914,145.529,92.648,73.017C-674.383,263.025-810.143,246.59-822.49,320.863Z" transform="translate(989.158 -259.634)" fill="#f3877b"/>
  <path id="Path_11604" data-name="Path 11604" d="M-764.9,293.118c38.271,6.746,40.134,57.726,43.594,77.2,3.629-15,26.78-32.653,15.381-57.564-9.552-20.876-17.883-57.793-59.693-52.015-25.461,3.518-52.924,15.866-57.448,39.548-3.824,20.016-4.971,49.4,1.474,70.781,3.577-16.648.712-28.972,8.339-44.156C-803.709,307.911-784.544,289.657-764.9,293.118Z" transform="translate(989.106 -260.137)" fill="#222730"/>
  <g id="Group_4833" data-name="Group 4833" transform="translate(174.396 7.109)">
    <g id="Group_4827" data-name="Group 4827" transform="translate(17.199 6.003)">
      <path id="Path_11605" data-name="Path 11605" d="M-797.085,273.719a1.218,1.218,0,0,1,2.327.722A27.137,27.137,0,0,0-792,296.383a1.217,1.217,0,0,1-.4,1.676C-794.46,299.329-801.1,286.679-797.085,273.719Z" transform="translate(798.351 -272.864)" fill="#272d39"/>
    </g>
    <g id="Group_4828" data-name="Group 4828" transform="translate(76.377 20.207)">
      <path id="Path_11606" data-name="Path 11606" d="M-740.114,303.252a17.659,17.659,0,0,0,11.272-15.446,1.219,1.219,0,0,1,2.435.105A20.162,20.162,0,0,1-739.27,305.54,1.219,1.219,0,0,1-740.114,303.252Z" transform="translate(740.91 -286.651)" fill="#272d39"/>
    </g>
    <g id="Group_4829" data-name="Group 4829" transform="translate(88.182 48.798)">
      <path id="Path_11607" data-name="Path 11607" d="M-728.249,320.227a7.137,7.137,0,0,0,6.588-4.954,1.219,1.219,0,0,1,2.339.689,9.532,9.532,0,0,1-8.914,6.7A1.219,1.219,0,0,1-728.249,320.227Z" transform="translate(729.451 -314.403)" fill="#272d39"/>
    </g>
    <g id="Group_4830" data-name="Group 4830" transform="translate(40.524)">
      <path id="Path_11608" data-name="Path 11608" d="M-773.7,287.7c-5.743-9.969,2.372-22.94,4.834-20.316a1.219,1.219,0,0,1-.054,1.723,14.665,14.665,0,0,0-2.668,17.377A1.219,1.219,0,0,1-773.7,287.7Z" transform="translate(775.711 -267.037)" fill="#272d39"/>
    </g>
    <g id="Group_4831" data-name="Group 4831" transform="translate(62.881 7.034)">
      <path id="Path_11609" data-name="Path 11609" d="M-753.9,292.841c2.324-5.517,4.4-11.892,2.211-17.351-1.561-3.884,8.552-1.918.035,18.3A1.218,1.218,0,0,1-753.9,292.841Z" transform="translate(754.01 -273.864)" fill="#272d39"/>
    </g>
    <g id="Group_4832" data-name="Group 4832" transform="translate(0 28.48)">
      <path id="Path_11610" data-name="Path 11610" d="M-810.14,312.471c-7.838-9.166-4.554-19.009-1.95-17.666a1.219,1.219,0,0,1,.524,1.642c-2.137,4.143-.912,9.541,3.277,14.441A1.218,1.218,0,0,1-810.14,312.471Z" transform="translate(815.046 -294.681)" fill="#272d39"/>
    </g>
  </g>
  <g id="Group_4834" data-name="Group 4834" transform="translate(262.862 92.997)">
    <path id="Path_11611" data-name="Path 11611" d="M-718.611,350.723c-8.885-2.985-10.168,15.81-10.547,25.149C-729.905,394.281-704.617,355.423-718.611,350.723Z" transform="translate(729.175 -350.406)" fill="#f3877b"/>
  </g>
  <g id="Group_4835" data-name="Group 4835" transform="translate(157.029 87.966)">
    <path id="Path_11612" data-name="Path 11612" d="M-827.115,345.715c9.086-2.3,8.935,16.538,8.6,25.879C-819.17,390.007-841.425,349.337-827.115,345.715Z" transform="translate(831.904 -345.522)" fill="#f3877b"/>
  </g>
  <g id="Group_4836" data-name="Group 4836" transform="translate(176.546 72.116)">
    <path id="Path_11613" data-name="Path 11613" d="M-799.379,356.1c-3.111-.118-5.094-12.043,2.454-11.756C-792.9,344.5-794.286,356.3-799.379,356.1Z" transform="translate(813.285 -329.708)" fill="#2b1e1a"/>
    <path id="Path_11614" data-name="Path 11614" d="M-747.565,358.082c3.111.118,6-11.622-1.551-11.909C-753.145,346.02-752.657,357.888-747.565,358.082Z" transform="translate(814.807 -329.653)" fill="#2b1e1a"/>
    <path id="Path_11615" data-name="Path 11615" d="M-792.1,330.536c4.934.917,4.217,4.863.439,5.384-5.062.7-6.411-2.775-16.833,1.137C-819.947,341.357-807.516,327.671-792.1,330.536Z" transform="translate(812.959 -330.138)" fill="#272d3a"/>
    <path id="Path_11616" data-name="Path 11616" d="M-752.734,332.51c-5.018,0-5.036,4.009-1.417,5.213,4.849,1.612,6.811-1.556,16.34,4.2C-727.337,348.244-737.053,332.514-752.734,332.51Z" transform="translate(814.659 -330.066)" fill="#272d3a"/>
    <path id="Path_11617" data-name="Path 11617" d="M-780.467,375.8c10.538,4.759,10-.346,6.812-.248-10.6.323.165-3.863,1.147-21.377.1-1.842-2.033-1.937-2.312-.433-.195,1.041-.449,4.889-.731,5.98C-779.061,373.272-783.832,374.277-780.467,375.8Z" transform="translate(813.906 -329.456)" fill="#e86248"/>
    <path id="Path_11618" data-name="Path 11618" d="M-759.183,390.973a.616.616,0,0,1,.684.966c-21.6,26.512-34.9-2.736-30.931-1.185C-783.176,393.2-771.753,395.075-759.183,390.973Z" transform="translate(813.649 -328.307)" fill="#e86248"/>
  </g>
  <g id="Group_4837" data-name="Group 4837" transform="translate(162.622 96.977)">
    <path id="Path_11619" data-name="Path 11619" d="M-825.712,354.723a.676.676,0,0,1,1.277.445c-1.78,5.115-.323,8.207,1.759,9.457a.675.675,0,0,1,.231.927C-823.721,367.684-828.258,362.036-825.712,354.723Z" transform="translate(826.475 -354.269)" fill="#e86248"/>
  </g>
  <g id="Group_4838" data-name="Group 4838" transform="translate(268.965 102.594)">
    <path id="Path_11620" data-name="Path 11620" d="M-722.889,369.363c2.032-2.191,1.814-5.739,1.45-8.894a.676.676,0,0,1,1.343-.155C-718.725,372.15-724.757,371.369-722.889,369.363Z" transform="translate(723.252 -359.721)" fill="#e86248"/>
  </g>
  <g id="Group_4839" data-name="Group 4839" transform="translate(192.714 152.201)">
    <path id="Path_11621" data-name="Path 11621" d="M-795.884,412.923c20.019,17.852,46.765,7.844,53.174-4.166,2.536-4.684,1.39,10.587-21.274,14.622C-789.015,427.833-801.656,407.761-795.884,412.923Z" transform="translate(797.265 -407.873)" fill="#e86248"/>
  </g>
  <g id="Group_4841" data-name="Group 4841" transform="translate(0 315.014)">
    <g id="Group_4840" data-name="Group 4840" transform="translate(10.193 308.769)">
      <path id="Path_11622" data-name="Path 11622" d="M-947.059,889.684c4.329-.8,4.4,7.28-1.261,6.235a5.479,5.479,0,0,1-3.959-3.692c-2.977,2.994,2.764,8.269.191,11.466-4.873,6.058-33.566-20.121-17.514-36.766,3.431-3.558,5.106,1,7.315,3.65C-947.442,888.371-929.352,883.609-947.059,889.684Z" transform="translate(974.432 -865.622)" fill="#e86248"/>
    </g>
    <path id="Path_11623" data-name="Path 11623" d="M-924.914,854.518c76.151-169.08,78.105-206.407,77.972-279.858-14.209-2.247-28.234-6.766-42.368-8.75-7.238,20.121-11.09,86.89-10.666,89.407-5.822,52.271-36.49,187.908-36.49,187.908-5.259,1.127-13.6,7.341-37.037,21.526-3.668,2.22-4.063,3.158-5.055,7.457-3.431,14.862-8.774,13.1-3.643,23.995,9.079,19.275,18.617,28.093,20.193,21.159,1.742-7.673-22.809-25.162-2.532-41.434,14.387-11.546,19.772,7.808,13.318,15.026-1.764,1.973-7.88,5.572-6.7,13.664,21.191-4.831,21.484-25.045,26.7-35.465C-930,866.692-925.5,860.494-924.914,854.518Z" transform="translate(984.326 -565.91)" fill="#f38677"/>
  </g>
  <g id="Group_4842" data-name="Group 4842" transform="translate(70.662 223.873)">
    <path id="Path_11624" data-name="Path 11624" d="M-851.254,478.864c-34.215,7.232-31.073,5.4-63.088,125.2-2.582,9.664,26.223,24.792,68.241,24.132,26.029-56.864,50.525-101.218,35.652-132.156C-815.835,484.836-844.506,477.437-851.254,478.864Z" transform="translate(915.775 -477.405)" fill="#fffffb"/>
    <path id="Path_11625" data-name="Path 11625" d="M-848.691,629.527c-32.651,0-57.667-9.528-64.875-18.766-1.871-2.4-2.551-4.813-1.969-6.99,2.429-9.093,4.656-17.484,6.712-25.232,24.962-94.051,24.962-94.051,56.3-100.666l1.038-.219c7.65-1.612,36.607,6.193,42.217,17.868,13.427,27.927-4.318,65.971-26.785,114.137-2.893,6.2-5.864,12.571-8.854,19.1l-.336.732-.8.012C-846.93,629.52-847.817,629.527-848.691,629.527Zm-2.261-149.378-1.042.219c-29.8,6.291-29.8,6.291-54.363,98.823-2.056,7.75-4.285,16.143-6.715,25.236-.372,1.4.138,3,1.517,4.764,5.97,7.65,29.882,18.159,64.668,17.775,2.879-6.283,5.739-12.412,8.527-18.387,22.181-47.553,39.7-85.115,26.8-111.952-4.942-10.284-32.628-17.91-39.392-16.478Z" transform="translate(915.737 -477.443)" fill="#f0e2d6"/>
  </g>
  <g id="Group_4844" data-name="Group 4844" transform="translate(293.859 296.817)">
    <path id="Path_11626" data-name="Path 11626" d="M-567.789,857.124c9.064,3.327,13.676,6.461,20.26,13.524,8.86,9.5,14.044,4.644,11.093,1.776-17.793-17.288-36.861-24.27-38.859-21.03a44.52,44.52,0,0,0,7.505,5.73Z" transform="translate(702.828 -539.109)" fill="#e86248"/>
    <g id="Group_4843" data-name="Group 4843">
      <path id="Path_11627" data-name="Path 11627" d="M-593.61,846.392c51.266,8.716,65.714,30.259,65.123,32.569-1.559,6.11-13.322-4-27.941-10.21-25.748-10.945-35.81,1.682-24.717,6.007,3.9,1.52,12.458.73,14.471,9.243.364,1.538-.025,5.256-3.481,3.491-7.764-3.964-7.359,2.694-30.361-14.3-8.086-5.972-20.645-9.571-22.6-17.129-9.412-29.335-58.276-177.345-75.79-271.564-3.671-19.748,50.916-32.346,50.076-36.259,12.315,57.387,46.075,295.775,46.075,295.775S-594.414,846.255-593.61,846.392Z" transform="translate(699.087 -548.247)" fill="#f38677"/>
    </g>
  </g>
  <g id="Group_4845" data-name="Group 4845" transform="translate(246.25 217.973)">
    <path id="Path_11628" data-name="Path 11628" d="M-704.164,472.966c34.853,2.2,33.793-1.468,82.655,111.9,4.757,11.035-37.079,31.566-66.137,36.6-33.986-52.5-64.644-92.839-54.406-125.6C-738.346,484-711.047,472.532-704.164,472.966Z" transform="translate(745.337 -471.678)" fill="#fffffb"/>
    <path id="Path_11629" data-name="Path 11629" d="M-688.223,622.909l-.458-.709c-3.906-6.035-7.769-11.91-11.531-17.631-29.2-44.4-52.261-79.473-43.021-109.046,3.868-12.368,31.318-24.294,39.188-23.793l3.2.195c32.614,1.949,33.367,3,80.551,112.473a6.959,6.959,0,0,1-.636,6.248c-6.623,12.24-42.08,27.891-66.457,32.117Zm-16.384-148.645c-7.459,0-32.848,11.327-36.191,22.02-8.882,28.421,13.887,63.046,42.715,106.884Q-692.653,611.42-687,620.1c25.606-4.651,58.19-20.267,63.822-30.672a4.521,4.521,0,0,0,.536-4.024c-47.008-109.063-47.6-109.1-78.361-110.936l-3.2-.2C-704.332,474.269-704.467,474.264-704.606,474.264Z" transform="translate(745.3 -471.715)" fill="#f0e2d6"/>
  </g>
  <g id="Group_4846" data-name="Group 4846" transform="translate(118.335 198.858)">
    <path id="Path_11630" data-name="Path 11630" d="M-808.266,459.046c9.539,20.016,63.879,29.991,75.113-4.336,35.492,11.2,48.509,20.464,48.509,20.464,3.733,50.606,39.751,194.639,2.524,220.292-66.359,8.8-114.742,12.669-169.963.978-28.732-12.7-10.313-212.294-9.825-214.833C-861.907,481.611-842.589,475.631-808.266,459.046Z" transform="translate(869.502 -453.114)" fill="#fffffb"/>
    <path id="Path_11631" data-name="Path 11631" d="M-781.048,705.084a335.634,335.634,0,0,1-71.258-7.345l-.251-.08c-30.07-13.287-10.936-214.291-10.563-216.241l.145-.751.733-.227c.192-.06,19.642-6.152,53.461-22.495l1.156-.557.551,1.157c5.039,10.576,24.134,18.541,41.654,17.43,9.162-.589,25.389-4.182,31.094-21.615l.394-1.2,1.2.378c35.279,11.129,48.328,20.259,48.865,20.642l.488.347.044.6c.9,12.252,3.692,29.9,6.921,50.337,10.082,63.821,23.89,151.227-4.945,171.1l-.254.174-.3.04C-720.728,701.924-752.024,705.084-781.048,705.084Zm-70.6-9.813c52.612,11.118,98.27,8.4,169.087-.982,27.185-19.3,13.572-105.465,3.625-168.428-3.183-20.15-5.939-37.6-6.9-49.924-2.63-1.707-16.169-9.926-46.487-19.591-4.808,13.075-16.74,21.131-32.942,22.173-18.168,1.171-37.283-6.713-43.525-17.741-29.6,14.239-48.046,20.57-51.936,21.848C-862.849,498.846-877.932,683.086-851.644,695.271Z" transform="translate(869.463 -453.161)" fill="#f0e2d6"/>
  </g>
  <g id="Group_4859" data-name="Group 4859" transform="translate(108.937 439.906)">
    <path id="Path_11644" data-name="Path 11644" d="M-652.294,965.413l3.909-153.176c.439-26.381-13.931-88.027-33.455-123.833-51.582,1.914-118.939,1.305-169.963.978-26.325,56.033-29.42,94.243-22.3,275.6,35.9-2.77,71.57-1.5,107.233-.056,2.121-68.654,3.882-117.692,4.46-112.975l4.653,113.345C-722.677,966.72-687.592,967.98-652.294,965.413Z" transform="translate(878.621 -687.1)" fill="#f6ab68"/>
    <path id="Path_11645" data-name="Path 11645" d="M-680.687,687.831l-.376-.693-.79.03c-48.161,1.785-109.975,1.374-159.636,1.044l-11.085-.072-.346.739c-26.394,56.177-29.449,96.52-22.411,276.234.849-.068,1.7-.125,2.545-.187C-879.77,786.615-876.8,745.995-850.96,690.7l9.454.063c49.416.329,110.857.74,158.955-1.017,18.821,34.955,33.376,95.378,32.926,122.5l-3.913,153.3c.853-.06,1.705-.125,2.558-.189l3.906-153.061C-646.615,784.681-661.505,723-680.687,687.831Z" transform="translate(878.585 -687.138)" fill="#c57622"/>
    <path id="Path_11646" data-name="Path 11646" d="M-764.346,847.045c-.179-1.47-1.254-1.449-1.458-1.43-1.639.139-1.848.157-4.38,77.737q-.541,16.612-1.163,36.769l2.558.1c1.127-36.525,2.148-67.479,2.94-87.706l3.611,87.973,2.554.1Z" transform="translate(881.826 -682.349)" fill="#c57622"/>
  </g>
  <g id="Group_4860" data-name="Group 4860" transform="translate(126.307 309.233)">
    <path id="Path_11647" data-name="Path 11647" d="M-682.353,692.238c-49.775,10.176-113.385,10.586-169.963.978-27.516-21.642,23.384-79.391,26.884-129.117a2.554,2.554,0,0,1,2.544-2.4c116.925,0,112.419-1.112,112.628,2.448C-707.228,615.768-650.555,668.723-682.353,692.238Z" transform="translate(861.763 -560.261)" fill="#f6ab68"/>
    <path id="Path_11648" data-name="Path 11648" d="M-767.8,701.472a512.006,512.006,0,0,1-84.685-6.961l-.319-.056-.257-.2c-16.959-13.339-5.924-38.764,6.855-68.2,8.492-19.568,18.121-41.748,19.545-62a3.809,3.809,0,0,1,3.817-3.589c28.092,0,49.172-.065,65-.112,48.863-.15,48.86-.149,48.9,3.445l.007.315c1.249,21.264,11.918,43.19,21.332,62.535,13.659,28.071,25.457,52.315,6.058,66.659l-.5.224C-707.948,698.818-737.486,701.472-767.8,701.472Zm-83.933-9.421c56.165,9.5,119.247,9.135,168.888-.969,17.37-13.115,6.045-36.391-7.06-63.325-9.516-19.56-20.306-41.729-21.583-63.5l-.012-.439a2.038,2.038,0,0,0-.012-.323c-1.143-.735-12.518-.7-46.328-.6-15.823.047-36.908.112-65,.112a1.278,1.278,0,0,0-1.27,1.217c-1.458,20.694-11.178,43.085-19.753,62.842C-856.16,655.382-866.782,679.858-851.738,692.051Z" transform="translate(861.724 -560.299)" fill="#c57622"/>
  </g>
  <g id="Group_4861" data-name="Group 4861" transform="translate(128.466 433.442)">
    <path id="Path_11649" data-name="Path 11649" d="M-679.435,694.3c-60.162,6.821-143.677,7.033-175.5.241l2.53-4.976a12.949,12.949,0,0,1-5.154-4.919c61.931,2.521,140.794.83,181.2-2.339-2.7,3.714-4.613,6.075-6.078,6.28Z" transform="translate(859.692 -680.82)" fill="#c57622"/>
    <path id="Path_11650" data-name="Path 11650" d="M-779.183,700.821c-31.994,0-60.349-1.659-75.954-4.989l-1.622-.346,2.728-5.366a14.331,14.331,0,0,1-4.6-4.846l-1-1.947,2.187.09c62.334,2.534,140.995.8,181.043-2.337l2.753-.215-1.62,2.236c-2.31,3.183-3.916,5.183-5.349,6.142l3.241,6.161-1.853.209C-709.831,699.081-746.415,700.821-779.183,700.821Zm-73.792-7.151c32.21,6.289,112.513,6.125,171.606-.386l-2.984-5.665,1.8-.251c.77-.107,2.279-1.869,3.565-3.533C-719.3,686.8-794.339,688.4-854.9,686.069a11.627,11.627,0,0,0,3.042,2.358l1.288.522Z" transform="translate(859.629 -680.864)" fill="#c57622"/>
  </g>
  <g id="Group_4864" data-name="Group 4864" transform="translate(152.09 209.044)">
    <g id="Group_4862" data-name="Group 4862" transform="translate(0 4.293)">
      <path id="Path_11651" data-name="Path 11651" d="M-816.536,569.323l-4.246.625c-1.007-30.341-12.263-65.161-14.62-99.411l3.541-1.513C-828.823,503.2-816.337,550.335-816.536,569.323Z" transform="translate(836.737 -467.161)" fill="#c57622"/>
      <path id="Path_11652" data-name="Path 11652" d="M-821.971,571.473l-.047-1.427c-.515-15.571-3.714-32.149-7.1-49.7-3.134-16.235-6.373-33.026-7.518-49.664l-.062-.9,5.993-2.559.154,1.749c1.475,16.59,5.254,36.624,8.59,54.3,3.674,19.459,6.846,36.263,6.741,46.127l-.012,1.09Zm-12.055-100.065c1.189,16.19,4.352,32.586,7.411,48.453,3.3,17.122,6.43,33.324,7.092,48.674l1.749-.258c-.14-9.808-3.326-26.7-6.694-44.539-3.231-17.12-6.878-36.445-8.462-52.8Z" transform="translate(836.698 -467.216)" fill="#c57622"/>
    </g>
    <g id="Group_4863" data-name="Group 4863" transform="translate(114.152)">
      <path id="Path_11653" data-name="Path 11653" d="M-724.654,570.68l4.247.626c1.007-30.341,12.508-70.812,14.865-105.061l-3.081-1.364C-711.662,499.061-724.853,551.693-724.654,570.68Z" transform="translate(725.932 -462.994)" fill="#c57622"/>
      <path id="Path_11654" data-name="Path 11654" d="M-719.143,572.83l-6.736-.992-.013-1.089c-.1-9.914,3.429-29.05,7.165-49.31,3.47-18.806,7.4-40.121,8.87-56.617l.158-1.774,5.527,2.447-.06.891c-1.138,16.535-4.411,34.578-7.575,52.027-3.483,19.2-6.771,37.326-7.289,52.988Zm-4.2-3.2,1.746.259c.67-15.514,3.881-33.219,7.274-51.933,3.1-17.067,6.295-34.7,7.477-50.855l-.64-.283c-1.59,16.346-5.381,36.885-8.738,55.083C-719.8,541.308-723.189,559.674-723.338,569.634Z" transform="translate(725.894 -463.049)" fill="#c57622"/>
    </g>
  </g>
  <g id="Group_4865" data-name="Group 4865" transform="translate(164.751 309.422)">
    <path id="Path_11655" data-name="Path 11655" d="M-813.851,567.181c4.246-8.316-7.97-7.878-10-4.1C-826.732,568.463-817.761,574.84-813.851,567.181Z" transform="translate(824.409 -560.482)" fill="#fffffb"/>
    <path id="Path_11656" data-name="Path 11656" d="M-728.124,567.173c-4.247-8.316,7.97-7.878,10-4.1C-715.243,568.455-724.214,574.832-728.124,567.173Z" transform="translate(827.291 -560.482)" fill="#fffffb"/>
  </g>
  <g id="Group_4868" data-name="Group 4868" transform="translate(190.955 360.173)">
    <g id="Group_4866" data-name="Group 4866" transform="translate(0 6.212)">
      <path id="Path_11657" data-name="Path 11657" d="M-772.337,649.648c-7.65,0-15.3-.133-22.9-.4-2.681-.095-3.761-1.283-3.731-4.1.177-16.271,1.579-24.5,1.639-24.847l.127-.742.715-.244c12.351-4.243,49.1-4.406,53-1.9a1.7,1.7,0,0,1,.847,1.28c.023.232,2.028,23.337-2.994,29.082a3.856,3.856,0,0,1-2.8,1.432C-756.364,649.5-764.35,649.648-772.337,649.648Zm-22.6-28.158a187.463,187.463,0,0,0-1.485,23.685c-.018,1.478.058,1.48,1.27,1.525,15.48.54,31.161.533,46.618-.037a1.323,1.323,0,0,0,.977-.562c3.316-3.794,2.95-20.577,2.419-26.671C-749.394,617.718-782.451,617.646-794.937,621.49Z" transform="translate(798.973 -615.774)" fill="#c57622"/>
    </g>
    <g id="Group_4867" data-name="Group 4867" transform="translate(1.453)">
      <path id="Path_11658" data-name="Path 11658" d="M-796.18,619.408l-.131-6.858c-.027-1.442,52.371-2.563,52.357-.016l-.03,5.24C-743.992,619.128-796.133,621.961-796.18,619.408Z" transform="translate(797.6 -609.706)" fill="#fffffb"/>
      <path id="Path_11659" data-name="Path 11659" d="M-785.628,621.753c-11.18,0-11.762-.841-11.79-2.282l-.144-7.6.727-.482c2.663-1.576,49.075-2.643,53.32-.205a1.583,1.583,0,0,1,.874,1.4l-.03,5.24c-.007,1.37-.01,1.883-15.433,2.9-8.793.584-18.71.976-25.877,1.022C-784.553,621.75-785.1,621.753-785.628,621.753Zm-9.251-3.007c5.435,1.429,43.681-.507,49.663-1.8l.02-3.707c-5.3-1.516-43.762-.822-49.782.23Z" transform="translate(797.562 -609.744)" fill="#fffffb"/>
    </g>
  </g>
  <g id="Group_4879" data-name="Group 4879" transform="translate(138.821 60.904)">
    <g id="Group_4869" data-name="Group 4869" transform="translate(24.915)">
      <path id="Path_11660" data-name="Path 11660" d="M-825.246,320.374a1.219,1.219,0,0,1,2.431.178,28.971,28.971,0,0,0,2.01,12.886C-819.663,336.26-826.465,336.948-825.246,320.374Z" transform="translate(825.393 -319.254)" fill="#272d39"/>
    </g>
    <g id="Group_4870" data-name="Group 4870" transform="translate(130.841 5.478)">
      <path id="Path_11661" data-name="Path 11661" d="M-722.093,339.277a23.354,23.354,0,0,0,8.411-13.729,1.219,1.219,0,0,1,2.392.467,25.819,25.819,0,0,1-9.3,15.181A1.218,1.218,0,0,1-722.093,339.277Z" transform="translate(722.574 -324.571)" fill="#272d39"/>
    </g>
    <g id="Group_4871" data-name="Group 4871" transform="translate(123.243 75.922)">
      <path id="Path_11662" data-name="Path 11662" d="M-720.015,420.74c-17.6-26.108-6.309-30.759-7.022-26.3-1.513,9.462,4.611,18.371,9.043,24.941A1.219,1.219,0,0,1-720.015,420.74Z" transform="translate(729.949 -392.949)" fill="#272d39"/>
    </g>
    <g id="Group_4872" data-name="Group 4872" transform="translate(145.46 49.898)">
      <path id="Path_11663" data-name="Path 11663" d="M-693.488,420.864c-4.794-9.965-9.922-12.317-12.86-17.754-6.908-12.77,6.027-19.664,5.4-28-.165-2.208-1.769-4.741-4.071-4.99a1.218,1.218,0,0,1,.238-2.425c3.453.363,10.286,4.854,2.586,17.964-10.111,17.228,2.78,17.251,10.907,34.147a1.217,1.217,0,0,1-.571,1.627A1.218,1.218,0,0,1-693.488,420.864Z" transform="translate(708.384 -367.688)" fill="#272d39"/>
    </g>
    <g id="Group_4873" data-name="Group 4873" transform="translate(141.088 90.72)">
      <path id="Path_11664" data-name="Path 11664" d="M-712.436,409.167a1.219,1.219,0,0,1,2.09-1.255c8.694,14.482,10.515,16.01,8.807,17.038S-703.744,423.645-712.436,409.167Z" transform="translate(712.628 -407.312)" fill="#272d39"/>
    </g>
    <g id="Group_4874" data-name="Group 4874" transform="translate(0 54.698)">
      <path id="Path_11665" data-name="Path 11665" d="M-847.382,420.458c-10.289-19.581,18.762-51.848,21.644-47.757a1.276,1.276,0,0,1-.314,1.776c-12.258,8.572-25.97,31.67-19.07,44.794A1.276,1.276,0,0,1-847.382,420.458Z" transform="translate(849.577 -372.347)" fill="#272d39"/>
    </g>
    <g id="Group_4875" data-name="Group 4875" transform="translate(12.571 74.825)">
      <path id="Path_11666" data-name="Path 11666" d="M-837.076,422.918a19.4,19.4,0,0,0,.023-9.441c-2.214-11.954,7.658-23.125,9.584-21.42a1.273,1.273,0,0,1,.118,1.8c-14.013,15.964-3.981,17.271-7.257,29.712A1.276,1.276,0,0,1-837.076,422.918Z" transform="translate(837.375 -391.884)" fill="#272d39"/>
    </g>
    <g id="Group_4876" data-name="Group 4876" transform="translate(26.877 79.476)">
      <path id="Path_11667" data-name="Path 11667" d="M-822.678,419.7c-1.97-.629.162-4.152,1.046-6.052,2.171-4.659,4.634-9.937,2.571-15.609-1.33-3.649,8.653-2.446-.257,16.686C-820.976,418.275-821.04,420.219-822.678,419.7Z" transform="translate(823.488 -396.398)" fill="#272d39"/>
    </g>
    <g id="Group_4877" data-name="Group 4877" transform="translate(38.368 95.245)">
      <path id="Path_11668" data-name="Path 11668" d="M-811.489,429.07c-1.485-.492-.672-2.032-.133-3.5,1.207-3.282,3.227-8.776,2.556-12.047-.471-2.293,6.005-5.991-.809,14.738A1.277,1.277,0,0,1-811.489,429.07Z" transform="translate(812.335 -411.705)" fill="#272d39"/>
    </g>
    <g id="Group_4878" data-name="Group 4878" transform="translate(113.802 92.719)">
      <path id="Path_11669" data-name="Path 11669" d="M-737.768,409.255a1.275,1.275,0,0,1,1.348,1.2c.436,7.5,3.177,13.911,7.153,16.733a1.276,1.276,0,0,1,.3,1.778C-732.343,433.722-742.8,409.482-737.768,409.255Z" transform="translate(739.113 -409.253)" fill="#272d39"/>
    </g>
  </g>
  <g id="Group_4883" data-name="Group 4883" transform="translate(112.236 453.327)">
    <g id="Group_4880" data-name="Group 4880" transform="translate(100.258 76.799)">
      <path id="Path_11670" data-name="Path 11670" d="M-765.06,843.271a1.277,1.277,0,0,1-1.179-.787A155.6,155.6,0,0,1-777.9,775.929a1.271,1.271,0,0,1,1.333-1.215,1.275,1.275,0,0,1,1.214,1.334,153.046,153.046,0,0,0,11.472,65.459,1.277,1.277,0,0,1-.69,1.667A1.252,1.252,0,0,1-765.06,843.271Z" transform="translate(778.065 -774.712)" fill="#c57622"/>
    </g>
    <g id="Group_4881" data-name="Group 4881" transform="translate(0 2.03)">
      <path id="Path_11671" data-name="Path 11671" d="M-874.107,795.181a1.274,1.274,0,0,1-.984-.464,1.275,1.275,0,0,1,.171-1.8l1.894-1.556c16.629-13.657,23.514-19.309,34.019-88.148a1.29,1.29,0,0,1,1.453-1.068,1.273,1.273,0,0,1,1.068,1.453c-10.652,69.806-17.757,75.64-34.922,89.733l-1.886,1.553A1.271,1.271,0,0,1-874.107,795.181Z" transform="translate(875.383 -702.136)" fill="#c57622"/>
    </g>
    <g id="Group_4882" data-name="Group 4882" transform="translate(167.837)">
      <path id="Path_11672" data-name="Path 11672" d="M-663.9,794.894a1.273,1.273,0,0,1-.583-.141c-21.827-11.216-25.183-12.941-47.939-92.961a1.275,1.275,0,0,1,.878-1.576,1.271,1.271,0,0,1,1.574.879c22.455,78.956,25.678,80.613,46.654,91.389a1.272,1.272,0,0,1,.55,1.717A1.272,1.272,0,0,1-663.9,794.894Z" transform="translate(712.469 -700.166)" fill="#c57622"/>
    </g>
  </g>
  <g id="Group_4884" data-name="Group 4884" transform="translate(134.928 440.044)">
    <path id="Path_11673" data-name="Path 11673" d="M-788.831,695.173a434.766,434.766,0,0,1-63.429-4.424,1.276,1.276,0,0,1-1.084-1.442,1.281,1.281,0,0,1,1.442-1.084c50.636,7.217,89.135,4.537,165.818-.8l2.2-.153a1.27,1.27,0,0,1,1.362,1.185,1.276,1.276,0,0,1-1.183,1.361l-2.2.153C-729.42,693-760.674,695.173-788.831,695.173Z" transform="translate(853.357 -687.272)" fill="#f6ab68"/>
  </g>
  <g id="Group_4885" data-name="Group 4885" transform="translate(47.934 593.003)">
    <path id="Path_11674" data-name="Path 11674" d="M-929.843,843.83a1.287,1.287,0,0,1-.407-.067,13.5,13.5,0,0,1-7.386-6.121,1.276,1.276,0,0,1,.488-1.736,1.275,1.275,0,0,1,1.737.49,10.927,10.927,0,0,0,5.974,4.95,1.273,1.273,0,0,1,.8,1.614A1.274,1.274,0,0,1-929.843,843.83Z" transform="translate(937.798 -835.744)" fill="#e86248"/>
  </g>
  <g id="Group_4886" data-name="Group 4886" transform="translate(376.671 593.575)">
    <path id="Path_11675" data-name="Path 11675" d="M-617.142,843.159c-.11,0-.214,0-.325-.005a1.276,1.276,0,0,1-1.237-1.314,1.266,1.266,0,0,1,1.313-1.237,9.413,9.413,0,0,0,7.727-3.782,1.277,1.277,0,0,1,1.781-.276,1.27,1.27,0,0,1,.277,1.78A11.964,11.964,0,0,1-617.142,843.159Z" transform="translate(618.704 -836.3)" fill="#e86248"/>
  </g>
</svg>
