<svg xmlns="http://www.w3.org/2000/svg" width="1480.522" height="499.456" viewBox="0 0 1480.522 499.456">
  <g id="Group_4015" data-name="Group 4015" transform="translate(33.024 -218.808)">
    <path id="Path_8982" data-name="Path 8982" d="M282.377,550.28c9.968-15.828,17.613-32.629,22.057-50.885,17.654-72.54-25.781-151.879-96.3-175.935-5.255-1.791-7.005-.573-6.608,4.848a99.8,99.8,0,0,1,0,11.533c-.075,1.772,1.024,4.267-1.238,5.124-1.657.626-2.982-1.281-4.3-2.311q-17.656-13.84-35.29-27.707c-12.431-9.77-24.8-19.622-37.317-29.274-3.589-2.768-3.987-4.6-.094-7.617,24.129-18.692,48.091-37.6,72.16-56.368,1.554-1.212,3.031-3.88,5.321-2.488,1.665,1.011.817,3.555.842,5.419.075,5.342.237,10.7-.045,16.022-.214,4.04,1.556,5.755,5.3,6.46,19.02,3.581,36.782,10.627,53.871,19.584,58.525,30.67,95.925,78.287,112.683,141.885,12.581,47.742,9.113,94.773-9.242,140.651a25.022,25.022,0,0,1-1.18,2.266q-17.008-.07-34.018-.137c1.46-3.053,2.933-6.1,4.374-9.162a1.9,1.9,0,0,0-.742-2.721c-1.332-.757-1.9.406-2.407,1.231-.658,1.08-1.067,2.3-1.652,3.429s-1.343,2.467-2.839,1.708c-1.471-.746-.874-2.033-.338-3.281.517-1.206,2.347-2.7.479-3.809-2.294-1.357-2.676,1.2-3.489,2.473-.686,1.077-1.1,2.469-2.764,1.635-1.806-.9-.524-2.14-.154-3.2.346-1,.868-1.928,1.3-2.9.532-1.206,1.03-2.448-.737-3.068-1.36-.479-1.757.633-2.367,1.492-5.293,7.459-4.836,9.348,3.307,13.635a9.576,9.576,0,0,1,1.46,1.174l-4.662,3.151c-1.112-1.231-2.227-2.456-3.333-3.692-3.393-3.792-3.822-.979-4.226,1.894-7.987,1.518-16.153-1.605-24.137.964C284.628,552.764,283.354,551.434,282.377,550.28Zm16.7-199.05c-.534,4.521,2.971,7.159,5.03,10.417.994,1.571,1.712,4.705,4.408,3.48,2.228-1.015.1-2.85-.355-4.32-.6-1.932,1.077-2.55,2.189-3.388,1.685-1.27,3.461-2.42,5.214-3.6,1.509-1.015,2.809-2.106,1.334-4.057-1.251-1.655-2.683-1.011-3.82.026-4.359,3.974-8.85,6.078-14.107,1.541.648-3.788,4.132-5.141,6.663-6.943,4.241-3.018,4.421-5.7.684-8.906-1.954-1.676-3.181-6.39-5.8-4.6-3.335,2.285,1.422,4.117,2.341,6.276.4.949,1.321,1.764.2,2.811-1.236,1.148-1.732-.173-2.576-.639-1.456-.8-1.868-4.329-4.216-2.409-2.313,1.888.667,3.183,1.486,4.65.539.964,1.272,1.843.034,2.685-1.2.814-1.922-.15-2.625-.939-.853-.956-1.674-1.937-2.544-2.877-.785-.849-1.742-1.291-2.809-.575-1.169.785-.943,1.877-.139,2.7C292.647,345.618,294.175,350.261,299.075,351.229Zm31.944,141.645c-.036,2.5-1.174,4.5.806,4.972,4.5,1.065,9.1,1.727,13.675,2.407a1.793,1.793,0,0,0,2.095-1.843c.073-.889,0-2.052-.855-2.1-4.846-.3-4.027-3.722-4.126-6.86a4.812,4.812,0,0,0-4.233-4.816c-2.826-.547-5.094.421-6.105,3.222A39.739,39.739,0,0,0,331.019,492.874Zm13.226,17.66c-.118-4.848-4-8.072-9.547-7.914-4.923.139-8.042,3.606-7.875,8.754.152,4.714,4.237,8.132,9.569,8.008C341.137,519.273,344.367,515.633,344.246,510.534ZM286.471,332.282c-2.9-.669-3.538-2.546-4.378-4.562-.77-1.853-2.811-1.74-3.281-.013-.812,2.986,1.176,5.293,3.361,7.074,2.161,1.764,4.523,3.391,7.491,1.394,2.662-1.789,2.4-4.192,1.616-6.809-.564-1.883-2.98-3.232-1.518-6.093,1.026.911,1.96,1.682,2.824,2.525,1.306,1.272.894,5.308,3.914,3.551,2.909-1.693.066-4.115-.9-5.9a11.308,11.308,0,0,0-3.673-3.45c-2.089-1.437-4.387-1.757-6.473.058s-2,4-.938,6.392C285.261,328.12,287,329.409,286.471,332.282Zm-4.37-20.356c-.678-1.952-1.5-3.378-3.632-2.679-.72.235-1.15,1.24-1.841,1.7-3.215,2.123-3.871,9.791-10.428,4.878-.162-.122-1.159.532-1.471,1.015-.733,1.137.019,2.039.834,2.736,2.758,2.354,5.554,4.66,8.352,6.967.855.7,1.834,1.272,2.807.271a1.762,1.762,0,0,0-.133-2.792c-3.273-2.473-1.022-4.323.588-6.261C278.8,315.8,280.457,313.872,282.1,311.927Zm42.372,215.036c-2.591-.678-3.425.038-3.752,1.539-.359,1.65.594,2.172,1.967,2.644a81.811,81.811,0,0,1,9.543,3.66c2.888,1.422,4.305.584,5.231-2.206.667-2.02,1.516-3.98,2.242-5.981.46-1.27.671-2.625-.977-3.127-1.283-.389-2.076.654-2.238,1.693-1.043,6.659-5.077,4.487-8.857,3.074C326.242,527.739,324.884,527.132,324.474,526.963Z" transform="translate(174.704 0)" fill="#252c73"/>
    <path id="Path_8983" data-name="Path 8983" d="M630.9,551.388c10.825-17.562,19.945-35.859,23.494-56.419q14.343-83.109-46.915-141.183c-14.492-13.677-31.521-23.353-50.139-30.283-6.3-2.345-6.772-1.954-6.858,4.913-.049,3.846.066,7.694-.058,11.537-.053,1.6.851,3.809-.992,4.639-1.749.787-3.057-1.1-4.342-2.106q-24.223-18.967-48.384-38.011c-7.895-6.206-15.717-12.51-23.727-18.562-3.551-2.683-4.286-4.718-.344-7.8q36.575-28.571,72.989-57.345c1.122-.881,2.255-2.422,3.865-1.635,1.629.793,1,2.647,1.015,4.049.077,5.554.261,11.123-.038,16.662-.239,4.425,1.328,6.58,5.791,7.446,17.645,3.423,34.05,10.3,50.38,17.681,21.149,9.556,39.471,22.983,55.859,39.05,37.152,36.423,59.034,80.8,65.618,132.256,4.848,37.892.449,75.011-13.906,110.68-.633,1.576-1.531,3.044-2.3,4.56-9.263,1.466-18.628-.887-27.9.774-1.975.355-3.683-.847-5.049-2.322,1.186-2.724,2.33-5.466,3.578-8.162a1.79,1.79,0,0,0-.776-2.647c-1.441-.855-1.785.3-2.262,1.227-.584,1.135-1.167,2.268-1.772,3.39s-1.169,2.647-2.749,1.877c-1.554-.757-.573-2.157-.321-3.367.263-1.257,2.343-2.715.192-3.788-1.952-.975-2.307,1.135-3.089,2.3-.656.981-1.122,2.687-2.741,1.862-1.454-.744-.874-2.166-.338-3.356.351-.776.78-1.516,1.092-2.3.445-1.124,1.447-2.463-.229-3.279-1.586-.772-2.091.68-2.82,1.738-5.259,7.615-4.974,8.865,3.074,13.07a10.909,10.909,0,0,1,1.505,1.137q-1.523,2.46-3.048,4.915c-1.392-1.539-2.681-3.183-4.2-4.568-.96-.874-1.244-3.13-3.1-2.324-1.379.6-1.791,2.193-1.462,3.777C649.967,550.779,640.428,553.81,630.9,551.388Zm18.449-200.356c-.757,2.937,4.31,13.568,6.9,14.2,1.434.349,3.055-.819,2.3-1.952-4.087-6.138,2.755-5.979,4.707-8.581,1.105-1.475,4.8-1.535,3.1-4.457-1.9-3.286-4.124-.712-5.746.594-3.82,3.076-7.452,5.347-11.413.323-.652-3.788,2.82-4.8,4.84-6.242,4.528-3.234,5.93-6.191,1.037-10.112-1.83-1.469-3.059-5.616-5.7-3.566-2.478,1.92,1.516,3.583,2.375,5.483.413.911,1.518,1.642.571,2.717s-1.808.443-2.676-.289c-1.283-1.082-2.151-4.126-4.3-2.1-1.943,1.828,1.08,3.072,1.706,4.645.321.81.817,1.509.021,2.249-1.139,1.062-1.92.135-2.638-.6-.74-.755-1.353-1.631-2.059-2.424-.975-1.095-1.945-2.608-3.6-1.069-1.3,1.212-.248,2.39.539,3.3C642.145,346.418,644.34,350.54,649.353,351.031ZM627.405,326.9c-4.626-4.647-2.751-8.536,1.392-12.194a15.231,15.231,0,0,0,1.67-1.915c1-1.246.678-2.313-.485-3.251a1.918,1.918,0,0,0-2.809.009c-.614.584-1.122,1.289-1.776,1.815-2.92,2.343-3.936,8.848-10.043,4.472-.731-.524-2.155.962-1.529,2.565,1.08,2.766,10.539,8.542,13.729,8.376-.359,5.364,3.145,8,7.318,9.926,2.223,1.024,4.22-.22,5.5-2.033,2.8-3.957-1.21-6.55-2.187-9.759l1.259-1.426c2.031,1.077,2.912,2.912,3.472,5.037.248.941,1.2,1.071,2.063.966a1.74,1.74,0,0,0,1.576-1.633c.588-2.89-4.087-8.547-7.745-8.944-4.434-.481-6.15,1.879-5.674,6.116l-1.625,1.342C630.146,326.541,628.78,326.717,627.405,326.9Zm56.937,175.588c-4.983-.06-8.245,3.219-8.305,8.35-.06,4.94,3.681,8.371,9.175,8.418a8.409,8.409,0,0,0,8.457-8.448C693.774,506.1,689.793,502.551,684.342,502.487Zm8.711-2.426c1.078-.073,2.873.782,3.339-1.411.218-1.024.222-2.341-1.259-2.407-4.355-.192-3.621-3.237-3.544-6,.086-3.121-.924-5.485-4.464-5.834-3.311-.327-5.148,1.3-5.994,4.44a23.746,23.746,0,0,1-1.89,4.684c-1.349,2.6-.528,4.083,2.2,4.586C685.2,498.816,688.989,499.389,693.053,500.06Zm-4,25.54c.179-.891.092-1.755-.821-2.146-1.873-.8-2.1.911-2.576,1.93-1.285,2.726-1.533,6.08-6.426,3.837-2.589-1.186-7.144-5.706-8.908-.84-1.4,3.857,4.7,3.538,7.424,4.739C684.936,536.3,688.93,533.407,689.056,525.6Z" transform="translate(572.302 0.125)" fill="#252c73"/>
    <path id="Path_8984" data-name="Path 8984" d="M240.136,231.435c-14.235,11.221-28.364,22.577-42.766,33.578-4.278,3.269-4.511,5.1-.06,8.448,11.255,8.465,22.179,17.376,33.2,26.151,1.246.992,3.66,1.56,2.927,3.6-.342.949-2.437,1.544-3.831,1.8-33.325,6.127-61.317,21.876-84.018,46.9-24.131,26.6-37.12,57.8-38.8,93.847-1.49,31.991,6.14,61.4,23.391,88.259,13.117,20.42,30.033,37.032,51.268,49.053,1.3.735,2.619,1.437,3.878,2.236.263.167.291.7.46,1.154-1.879,1.492-4.085.793-6.108.8-31.41.054-62.822-.055-94.232.13-5.028.03-8.141-1.61-11.078-5.759a215.139,215.139,0,0,1-34.057-74.667C27.99,455.6,31.979,405.591,55.041,357.849c33.325-68.981,88.368-110.2,163.29-125.148,7.027-1.4,14.25-1.832,21.382-2.713ZM94.8,535.376l1.445,1.546a21.341,21.341,0,0,0-1.7,1.911c-1.095,1.552-3.632,2.315-1.982,5.255,1.689,3.008,3.673,1.223,5.479.853,3.333-.68,6.6-1.685,9.894-2.548,1.219-.318,2.741-.468,2.112-2.324-.515-1.516-1.328-2.51-3.35-1.817-2.341.8-4.571,2.452-7.965,1.353,1.629-1.712,3.012-3.217,4.455-4.662,1.253-1.253,2.527-2.48,1.176-4.378-1.148-1.61-2.672-.738-4.085-.515-2.431.387-4.511,2.287-7.916,1.7,2.508-2.422,4.62-4.483,6.757-6.52,1.2-1.137.834-2.255.028-3.382-1.082-1.509-2.144-.947-3.123.1-2.918,3.117-5.81,6.259-8.72,9.387-1.257,1.351-1.015,2.6.045,3.987.844,1.1,1.565,1.9,3.14,1.266A38.313,38.313,0,0,1,94.8,535.376ZM72.372,442.5a45.365,45.365,0,0,0-5.742.047c-1.638.252-4.252-1.013-4.44,2.059-.192,3.113,2.217,2.191,4.021,2.407,2.792.336,2.563,1.7.744,3.215a30.707,30.707,0,0,0-3.936,3.17c-.539.633-.381,1.984-.271,2.982.034.323,1.289.859,1.355.78,3.179-3.874,6.578-1.31,10.067-.643a4.112,4.112,0,0,0,4.684-3.457c.793-3.555,1.178-7.544-.607-10.545C76.906,440.27,73.541,442.7,72.372,442.5Zm76.805-150.425c.156,4.953,4.562,9.718,8.861,8.957,3.966-.7,7.64-2.612,9.714-6.309.671-1.193-8.337-12.908-9.534-12.906C154.675,281.828,149.055,288.2,149.177,292.079Zm-21.692,13.865c-2.458.968-4.7,2.262-3.038,3.78,3.474,3.17,1.024,5.026-.556,7.508a5.08,5.08,0,0,0,.874,6.952c2.2,2.022,4.791,2.142,6.958.216,2.4-2.138,7.2-4.34,5.682-7.39C135.239,312.646,130.766,309.429,127.485,305.944Zm13.87-4.617c-.289.421-.607.943-.979,1.419-1.054,1.349-4.226,2.123-2.347,4.316,1.828,2.136,3.046-1.071,4.63-1.659.808-.3,1.612-.8,2.275,0,.859,1.043.271,1.969-.571,2.726-1.109,1-2.285,1.922-3.365,2.95a1.727,1.727,0,0,0-.421,2.3c.475.727,1.255,1.413,2.1.725,2.952-2.416,6.533-4.491,8.448-7.583,1.165-1.877-2.476-3.946-3.827-6.018-.577-.887-1.484-1.567-2.014-2.475-2.732-4.686-5.827-5.041-9.154-.723-1.509,1.958-6.392,2.783-4.156,5.766,1.982,2.642,4.087-1.458,6.011-2.67C139.651,299.347,140.564,299.219,141.355,301.327ZM104.88,354.078c4.352-.032,8.493-4.444,8.337-8.889-.141-4.028-5.4-8.812-9.654-8.784-4.145.028-8.329,4.66-8.209,9.09C95.472,349.884,100.167,354.114,104.88,354.078ZM76.3,465.887c1.853,1.657,1.973,3.818,2.375,5.853.209,1.062.363,2.326,1.751,2.14,1.648-.22,1.5-1.469,1.454-2.895-.3-9.639-1.133-10.428-10.441-9.085-1.894.274-3.745.834-5.642,1.086-1.922.259-2.508,1.233-2.183,3.059.485,2.717.823,5.462,1.343,8.175.237,1.238.661,2.647,2.422,2.176,1.332-.355,1.223-1.571,1.127-2.636s-.306-2.108-.419-3.166c-.143-1.323-1.375-3.1,1.105-3.485,1.843-.284,1.751,1.347,2.129,2.51.43,1.325.212,3.626,2.071,3.438,2.614-.263,1.075-2.653,1.272-4.115C74.8,467.9,74.616,466.808,76.3,465.887Zm7.627,56.028a28.391,28.391,0,0,1-1.169-2.948c-.425-1.428-2.463-3.168.079-4.278,2.071-.9,2.155,1.432,2.905,2.533s.778,3.39,2.918,2.155c1.9-1.095.1-2.61-.115-3.906-.195-1.172-1.447-2.563.1-3.35,1.99-1.011,2.4.934,3.046,2.21.383.757.829,1.488,1.139,2.272.513,1.3,1.24,2.428,2.771,1.723,1.689-.78.669-2.033.3-3.219-3.061-9.765-3.333-9.909-12.431-5.843-1.744.78-3.457,1.635-5.216,2.379-1.426.6-1.977,1.479-1.285,2.969q2.007,4.326,3.983,8.669c.378.827.9,1.417,1.922,1.191C83.928,524.236,84.127,523.478,83.926,521.915Zm-8.557-33.742-.49-1.424c2.585-1.753,5.193-3.476,7.747-5.272a2.4,2.4,0,0,0,.628-3.4c-.936-1.706-2.039-.851-3.125-.09-3.311,2.326-6.584,4.714-9.979,6.909a3.439,3.439,0,0,0-1.725,4.248c.5,2.1,1.965,2.728,3.724,2.862,3.827.293,7.666.464,11.5.6,1.169.041,2.732.413,2.785-1.588s-1.214-2.443-2.912-2.488C80.807,488.455,78.088,488.3,75.369,488.173ZM96.53,362.561c2.266-.124,3.523-.293,4.771-.239,2.326.1,4-1,3.762-3.217-.222-2.086-2.4-1.026-3.7-1.112-3.769-.244-7.67.894-11.236-1.306a2.089,2.089,0,0,0-3.2.909c-.851,1.458-.3,2.4,1.095,3.01,3.314,1.449,5.015,4.417,7.027,7.166,1.024,1.4,1.4,4.919,4.09,3.134,2.443-1.62.171-3.709-.968-5.426C97.721,364.8,97.366,364.059,96.53,362.561Zm16.516-35.822c2.49,1.909,5.246,3.863,7.807,6.048,1.507,1.285,2.582,1.139,3.679-.31,1-1.33.381-2.332-.714-3.213-3.132-2.518-6.309-4.983-9.376-7.58-1.524-1.291-2.6-.9-3.7.462-1.462,1.811-3.033,3.54-4.387,5.428-.748,1.043-2.649,2.08-.889,3.679s2.542-.248,3.517-1.223C110.15,328.861,110.813,327.112,113.047,326.738ZM88.954,498.793c-.222-.622-.522-2.174-2.219-1.629-4.4,1.417-8.752,3.01-13.083,4.637-1.191.447-1.289,1.481-.693,2.6.682,1.276,1.462,1.8,3.016,1.2,3.733-1.439,7.529-2.711,11.317-4C88.392,501.221,89.191,500.717,88.954,498.793Z" transform="translate(75.657 12.72)" fill="#311b53"/>
    <path id="Path_8985" data-name="Path 8985" d="M589.32,231.594q-16.514,13.009-33.026,26.021c-3.354,2.642-6.6,5.428-10.077,7.9-3.668,2.61-4.051,4.573-.109,7.561,11.054,8.382,21.852,17.1,32.735,25.711,1.462,1.157,3.946,1.988,3.609,4.064-.359,2.21-3.006,1.935-4.784,2.332-58.833,13.147-98.734,48.022-115.575,105.872-17.592,60.426-.271,112.277,45.081,155.16a122.291,122.291,0,0,0,13.615,10.633c4.5,3.185,9.289,5.964,14.045,8.983-1.3,2.364-3.444,1.385-5.1,1.387-31.837.07-63.675-.023-95.513.13-4.838.023-7.749-1.817-10.5-5.712-21.521-30.45-34.952-64.188-39.172-101.09-7.093-62.038,8.151-118.389,47.422-167.223,34.9-43.4,80.069-70.531,135.183-80.412,7.089-1.27,14.282-1.954,21.427-2.909ZM443.78,535.551q.754.715,1.507,1.432a21.4,21.4,0,0,1-1.638,1.945c-1.586,1.5-3.209,2.884-1.68,5.4,1.454,2.4,3.318,1.092,5.041.673,3.294-.8,6.556-1.734,9.84-2.585,1.428-.368,3.275-.443,2.371-2.681-.641-1.582-1.823-1.958-3.628-1.394-2.322.725-4.5,2.508-7.273,1.514.607-2.3,2.726-3.243,3.989-4.878.93-1.2,3.1-1.992,1.535-4.162-1.323-1.847-2.961-.977-4.613-.708-2.414.4-4.455,2.428-7.236,1.727,7.268-8.626,7.268-8.626,4.857-12.386-.53-.064-1.144.257-1.274-.75-1.618-12.538-3.42-13.308-14.753-8.679-5.056,2.065-5.55,4.56-2.873,8.346,1.424,2.014.928,6.975,4.412,5.635,3.234-1.246-.693-4.154-.934-6.42-.118-1.1-.483-2.279.539-2.873,1.127-.654,1.744.289,2.433,1.236.973,1.336.9,4.6,3.611,3.26,2.174-1.08-.182-2.914-.423-4.412-.156-.968-1.127-2.031.274-2.7a1.8,1.8,0,0,1,2.8,1.49c.49,3.72,3.824,4.243,6.212,5.842-2.454,4.447-6.544,7.489-9.75,11.292-1.227,1.451-1.687,2.664-.656,4.468,1.142,2,2.5,1.776,4.233,1.069A18.513,18.513,0,0,1,443.78,535.551ZM412.7,457.459c2.952-1.777,5.421-3.611,9.449-1.216,3.254,1.932,6.375-1.332,6.456-4.8.077-3.264,2.552-8.427-2.867-9.487-4.023-.787-8.427.368-12.662.656-1.169.081-2.142.5-2,1.851.083.761.507,2.091.885,2.129,10.182,1.045,3.328,3.814.75,6.368C411.557,454.113,412.068,455.742,412.7,457.459Zm94.935-175.854c-2.4-.135-9.274,6.636-9.564,9.421-.468,4.489,4.329,10.381,8.651,10.032a13.032,13.032,0,0,0,10.261-6.33C517.626,293.7,508.748,281.667,507.638,281.605ZM493.08,304.84c.4.2,1.124.338,1.343.748a1.906,1.906,0,0,1-.032,1.727c-.817.964-1.937,1.667-2.79,2.608-.874.966-3.042,1.582-1.584,3.455,1.779,2.285,2.944-.011,4.115-.891,7.585-5.706,7.568-5.727,1.437-13.171A14.946,14.946,0,0,1,494,297.3c-2.311-4.064-5.037-4.017-7.837-.656-1.77,2.125-6.8,3.452-5.1,6.058,2.356,3.619,4.111-1.614,6.368-2.433,1.084-.393,1.984-.962,2.7.173a1.971,1.971,0,0,1-.41,2.3c-1.039,1.349-4.271,2.048-2.627,4.235,1.8,2.39,3.091-.814,4.652-1.428A14.927,14.927,0,0,0,493.08,304.84ZM418.89,466.794c.515.656.844,1.161,1.259,1.586,1.338,1.377-.342,5.205,2.869,4.613,2.593-.479.483-3.234.814-4.93.171-.876.3-1.761,1.236-1.941,1.379-.265,1.815.849,2.039,1.881.314,1.445.31,2.976.746,4.374a2.64,2.64,0,0,0,1.742,1.475,1.412,1.412,0,0,0,1.68-1.449c-.5-3.54-.539-7.35-1.992-10.484-1.169-2.529-4.2.122-6.422-.188a21.115,21.115,0,0,0-3.162.254c-6.321.122-7.937,3.489-5.99,8.976.658,1.851.2,5.466,2.3,5.229,3.433-.389.934-3.735,1.34-5.742C417.586,469.306,416.737,467.884,418.89,466.794ZM477.941,325.7c3.758-.628,5.919-3.993,8.615-6.633,1.244-1.219.631-2.251-.333-3.215-2.865-2.854-5.753-5.686-8.615-8.542-1-1-1.975-1.552-3.249-.368-1.069,1-1.719,2.187-.38,3.183,3.538,2.634.968,4.417-.528,6.676C470.824,320.762,473.144,325.581,477.941,325.7Zm-24.529,28.325a8.753,8.753,0,0,0,8.946-8.639c.026-4.483-5.1-9.427-9.757-8.927-5.223.56-7.643,4.26-8.106,9.088C444.075,349.932,448.628,354.017,453.412,354.028Zm-28.986,134.12-.4-1.447q3.665-2.4,7.33-4.789a2.7,2.7,0,0,0,1.065-3.857c-1.253-2.084-2.608-.351-3.685.357-3.2,2.091-6.281,4.346-9.425,6.516-1.306.9-2.189,1.935-1.8,3.7.415,1.86,1.372,3.13,3.352,3.269,4.025.282,8.055.543,12.085.676,1.088.036,2.83.607,2.952-1.293.107-1.693-.9-2.7-2.749-2.745C430.241,488.452,427.334,488.281,424.426,488.148ZM454.515,358.37c-5.7-1.223-11.454,1.035-16.525-1.965a1.438,1.438,0,0,0-2.029.973c-.6,1.573-.3,3.249,1.165,3.9,3.75,1.676,5.409,5.152,7.777,8.064.7.857.767,3.564,3.018,1.95,1.622-1.163,1.729-2.685.545-4.457-.733-1.094-2.458-1.761-1.913-3.681C449.829,363.2,453.1,363.167,454.515,358.37Zm19.763-26.788c-.06-.419.034-1.018-.2-1.208-3.961-3.215-7.568-7.422-12.11-9.139-2.469-.932-4.427,4.4-6.68,6.847-.708.767-2.264,1.678-.68,3.11,1.738,1.571,2.809.284,3.523-1.018,2.674-4.887,5.421-3.232,8.359-.312a29.632,29.632,0,0,0,3.921,3.279C472.381,334.512,473.55,333.5,474.279,331.581Zm-50.13,174.381c4.406-1.552,9.049-3.091,13.6-4.855,1.09-.423,1.013-1.708.468-2.786-.4-.782-.825-1.682-1.83-1.325-4.588,1.629-9.16,3.309-13.673,5.133-.372.15-.372,1.513-.336,2.3A1.441,1.441,0,0,0,424.149,505.962Z" transform="translate(473.172 12.739)" fill="#311b53"/>
    <path id="Path_8986" data-name="Path 8986" d="M401.813,375.1q17.008.067,34.018.137c-5.746,17.722-15.738,33.159-26.846,47.772-37.729,49.641-87.693,78.8-149.4,87.693a158,158,0,0,1-22.962,1.65q-86.213-.208-172.425-.077H57.327l-.492-1.229c7.741-5.821,15.462-11.67,23.233-17.453,5.481-4.079,10.973-8.149,16.568-12.07,4.541-3.185,4.479-5.68-.053-9.137-12.728-9.7-25.168-19.781-37.71-29.725-.778-.616-1.458-1.36-2.354-2.206,2.651-1.911,5.28-1.092,7.7-1.1,57.476-.077,114.964.686,172.42-.363,42.717-.778,78.359-18.536,106.52-50.866,4.06-4.66,8.029-9.4,12.04-14.1.977,1.156,2.251,2.486,3.679,2.027,7.984-2.57,16.151.554,24.135-.968q3.511,3.867,7.027,7.743a18.2,18.2,0,0,1-7.993-.81c-4.536-1.381-5.958.361-4.992,4.714-5.471.789-6.255,6.191-9.188,9.468-.192.216.466,1.582,1.033,2.024,3.335,2.612,6.768,5.1,10.156,7.653,1.33,1,2.347.528,3.219-.629,1.791-2.366,3.557-4.752,5.34-7.125.874-1.163,1.193-2.315-.293-3.2-1.236-.737-1.9.224-2.557,1.058-.915,1.169-1.8,2.36-2.734,3.515-.712.885-1.556,1.492-2.666.609-1.2-.956-.284-1.77.133-2.719.65-1.484,3.694-2.79,1.144-4.6-2.054-1.456-2.544,1.419-3.724,2.362-.889.712-1.452,2.426-2.948.9-1.319-1.343-.009-2.339.648-3.294,1.3-1.881,3.219-3.487,2.287-6.178,3.247-1.2,6.167.763,9.229.909,3.008.143,6.618,3.425,9.1-1.135,2.1-3.854-2.159-4.908-3.232-7.362a13.462,13.462,0,0,0-1.426-2.1q2.331-1.578,4.658-3.153C397.576,373.473,399.177,376.769,401.813,375.1ZM244.637,476.3c1.045.832,1.377,1.058,1.663,1.33,2.567,2.431,2.565,8.857,7.548,7.031,3.869-1.419,1.449-6.5,1.6-9.889.1-2.3,1.98-6.672-2.125-6.706-3.476-.028-1.231,4.134-1.969,6.309-.171.5-.351,1.007-.6,1.71-2.52-1.659-3.115-4.286-4.434-6.371a3.934,3.934,0,0,0-4.314-1.962c-2.514.355-2.007,2.367-2.061,3.978a47.776,47.776,0,0,0,.036,7.042c.244,2.1-1.434,5.689,1.736,5.934,3.51.274,1.759-3.446,2.3-5.426C244.231,478.49,244.355,477.678,244.637,476.3Zm-12.983,3.931c-2.659,2.031-4.7,1.685-6.2-.731a5.984,5.984,0,0,1,.141-6.646c1.443-2.247,3.44-2.153,5.4-.6,1.434,1.133,3.243,1.026,3.9-.235,1.033-1.984-.855-2.967-2.441-3.608-4.158-1.678-8.271-1.407-10.8,2.475-2.615,4.006-2.54,8.468.947,12.26,3.688,4.01,8.414.9,12.587,1.278,1.357.122.646-4.13.763-6.385.128-2.441-1.618-2.7-3.435-2.518-1.528.156-3.767-.93-4.28,1.462C227.708,479.454,231.186,478.026,231.654,480.23Zm-68.6-12.57c-5.165-.066-5.842.049-5.019,6,.543,3.929-4.652,11.142,4.757,11.416,7.023.2,10.27-2.533,10.449-8.288C173.437,470.456,170.421,467.754,163.049,467.66Zm35.773,4.825c2.1-2.014,4.013-1.411,5.9-.291,1.069.633,2.067.616,2.745-.432a1.921,1.921,0,0,0,.1-1.749c-1.958-2.379-4.716-2.679-7.518-2.411-2.933.28-5.5,1.434-6.058,4.682-.534,3.11,1.58,4.521,4.134,5.567,1.717.7,4.261.141,4.983,2.7-1.514,1.364-2.995,1-4.434.652-1.6-.389-3.666-2.886-4.523.336-.669,2.523,2.146,2.9,3.8,3.292a14.341,14.341,0,0,0,5.661-.023c2.446-.436,4.425-1.847,4.656-4.551.235-2.743-1.424-4.284-3.951-5.011C202.371,474.678,200.27,474.377,198.823,472.485Zm175.794-61.456c-.064-4.442-4.874-9.043-9.241-8.837-2.416.111-9.981,6.268-10.073,8.2-.047.985,10.9,11.161,12.01,11.157C369.46,421.538,374.661,414.052,374.616,411.029ZM177,476.515c0,8.968,0,8.968,9.113,8.6a6.361,6.361,0,0,0,.639-.006c1.554-.22,3.906.547,3.839-2.063-.058-2.238-2.21-1.334-3.523-1.543-.834-.133-1.706,0-2.557-.062-1.028-.075-2.251.021-2.418-1.437-.212-1.851,1.178-1.841,2.45-2.084,1.308-.248,3.609.748,3.638-1.357.036-2.664-2.555-1.306-3.976-1.678-1.075-.282-2.159-.389-2.187-1.774-.038-1.868,1.381-1.817,2.664-1.871.853-.034,1.706-.019,2.561-.036,1.3-.028,2.818.011,2.741-1.791-.073-1.7-1.558-1.6-2.862-1.774C177.83,466.416,177,467.126,177,476.515Zm39.888-.1c-1.915-2.473,1.941-8.188-2.567-8.209-4.949-.024-2.345,5.693-2.409,8.737-.056,2.612-2.409,7.784,2.281,7.683C218.618,484.533,215.424,479.405,216.889,476.419Z" transform="translate(101.877 176.251)" fill="#311b53"/>
    <path id="Path_8987" data-name="Path 8987" d="M741.04,378.562q1.523-2.456,3.042-4.919c2.567-.314,4.936,4.4,7.657.306,1.366,1.475,3.074,2.676,5.049,2.322,9.276-1.661,18.641.693,27.9-.774-4.714,14.8-12.728,27.881-21.341,40.611-21.027,31.083-48.73,54.733-81.833,72.031a212.17,212.17,0,0,1-77.449,23.086c-22.6,2.3-45.231.9-67.842,1.071-40.585.3-81.172.1-121.758.054-2.488,0-5.086.607-8.451-1.133,6.516-4.992,12.587-9.744,18.767-14.349,7.36-5.485,14.718-10.984,22.271-16.2,3.784-2.61,3.715-4.282.077-7.052-12.219-9.312-24.227-18.9-36.312-28.387-1.642-1.289-3.448-2.448-4.305-4.635,2.4-2.014,5.06-1.127,7.474-1.131q82.667-.109,165.334-.1c49.733-.077,89.365-20.711,120.054-59.346,1.323-1.665,2.343-3.594,4.308-4.652,9.521,2.424,19.06-.607,28.586.079l8.072,8.823c-3.709-.785-6.289-.926-8.517-1.883-4.756-2.05-6.067.184-6.219,4.367-4.7,1.182-5.558,5.984-8.371,8.949-.9.949-.126,1.945.793,2.632,3.392,2.54,6.8,5.064,10.178,7.621,1.248.945,2.176.885,3.134-.485,1.819-2.6,3.769-5.116,5.676-7.657a1.566,1.566,0,0,0-.006-2.251,1.665,1.665,0,0,0-2.721.088c-.971,1.116-1.8,2.349-2.715,3.517-.652.836-1.422,1.907-2.559,1.268-1.481-.832-.8-2-.158-3.207.678-1.289,3.151-2.638.9-4.175-2.106-1.441-2.7,1.182-3.715,2.279-.763.821-1.5,1.757-2.587,1.062-1.531-.979-.513-2.125.079-3.258,1.065-2.037,4.216-3.51,1.9-6.535,4.338-1.5,8.141,1.287,12.258,1.518,2.349.13,4.9,1.7,6.732-1.471,1.71-2.963-.872-4.158-1.958-6C742.038,379.922,741.516,379.255,741.04,378.562ZM594.792,476.3c1.571,2.706,2.841,4.885,4.1,7.067,1.013,1.755,2.636,2.057,4.417,1.729,2.093-.385,1.717-2.148,1.736-3.561.053-3.621.036-7.245-.006-10.868-.015-1.257.013-2.657-1.832-2.738-1.759-.079-1.96,1.124-2.157,2.476-.276,1.885.746,4.113-1.464,6.108-.889-1.394-1.528-2.448-2.219-3.465-1.578-2.33-2.294-6.415-6.212-5.007-3.425,1.229-1.075,4.874-1.7,7.362a1.277,1.277,0,0,0,0,.635c.864,2.976-2.213,8.256,2.11,8.634C595.632,485.022,592.158,479.387,594.792,476.3Zm-87.9.13c1.244,3.277-2.7,9.25,5.265,8.855,6.911-.342,10.907-3.44,10.714-9.09-.186-5.511-3.76-8.064-10.592-8.5C504.38,467.187,507.984,473.042,506.888,476.428Zm71.208-8.784c-5.111-.038-8.3,2.815-8.82,7.655-.752,7,2.715,8.654,11.706,9.233,6.422.415,3.882-3.3,4.077-5.663.342-4.156-2.961-3.243-5.366-3.192a2.7,2.7,0,0,0-2.059,1.086c-.656,1.36.547,1.732,1.573,2.082.752.257,1.9.458,1.167,1.578a3.332,3.332,0,0,1-2.078,1.142,3.147,3.147,0,0,1-3.647-1.928,7.282,7.282,0,0,1,.233-6.766,2.948,2.948,0,0,1,4.421-1.058c1.967,1.289,4.286,2.409,4.936-.385.539-2.313-2.52-2.939-4.508-3.6A6.757,6.757,0,0,0,578.1,467.644Zm145.94-56.5c-.066-4.175-5.173-8.979-9.4-8.848-2.5.079-9.988,6.071-10.118,8.1-.075,1.178,10.582,11.039,11.935,11.044C718.758,421.441,724.083,414.218,724.036,411.146Zm-186.1,65.676c-1.392-2.151-2.989-1.706-4.382-1.841-1.283-.122-2.73-.083-2.647-1.937s1.6-1.623,2.83-1.7a41.362,41.362,0,0,0,4.472-.231c1.351-.229,1.811-1.712.977-2.371-2.565-2.027-5.725-.718-8.622-.93-1.573-.115-3.948-.611-4.194,1.721-.511,4.85-1.616,10.141.509,14.47,1.419,2.888,5.9.891,8.989,1.148,1.524.128,3.918.569,3.7-2.1-.171-2.089-2.275-1.186-3.589-1.486-1.7-.387-4.639,1.105-4.863-1.428-.314-3.564,3.16-1.443,4.8-2.219C536.461,477.668,536.976,477.35,537.934,476.822Zm9.385-4.506c2.525-1.443,4.444-1.039,6.648.13,1.956,1.037,3.123-.59,2.362-2.138-1.272-2.587-4.113-2.676-6.685-2.659-3.258.021-5.93,1.319-6.928,4.568-.859,2.8,1.231,4.355,3.361,5.421,1.9.953,4.4.733,6.2,2.85a4.986,4.986,0,0,1-5.695.38c-1.471-.705-3.1-1.171-3.664.789-.534,1.871,1.364,2.334,2.666,2.92a10.468,10.468,0,0,0,6.879.355c2.484-.588,4.348-1.975,4.515-4.68s-1.366-4.267-3.976-4.962C551.058,474.772,548.931,474.461,547.319,472.315Zm13.6,3.739c1.61,2.854-2.2,8.615,2.852,8.583,3.662-.026,1.7-5.635,1.67-8.632-.028-2.672,2.144-7.728-2-7.734C559.081,468.264,562.255,473.4,560.917,476.054Z" transform="translate(499.522 176.147)" fill="#311b53"/>
    <path id="Path_8988" data-name="Path 8988" d="M375.993,391.65c16.446,12.935,31.485,24.772,46.532,36.594q16.254,12.772,32.551,25.491c2.287,1.776,3.8,2.867.47,5.462-25.721,20.046-51.306,40.269-76.948,60.417a7.418,7.418,0,0,1-1.8.727c-1.556-2.685-.624-5.5-.8-8.19-.421-6.366,2.642-14.684-1.216-18.609-4.158-4.231-12.581-1.347-19.12-1.362q-84.315-.167-168.632-.064h-7.01l-.316-.943c4.972-2.358,9.956-4.69,14.915-7.074a234.215,234.215,0,0,0,77.812-60.445c2.948-3.476,5.973-4.645,10.4-4.62,28.853.173,57.708-.049,86.56.212,5.428.049,7.078-1.565,6.708-6.862C375.655,406.061,375.993,399.682,375.993,391.65Zm-27.945,63.438a4.19,4.19,0,0,1-1.069-.458c-2.738-2.2-2.711-8.882-7.664-6.76-3.9,1.67-1.362,6.922-1.608,10.55-.135,2-1.225,5.584,2.1,5.639,2.982.049,1.452-3.331,1.92-5.193.188-.755-.09-1.7.968-2.1,1.561.135,1.706,1.68,2.48,2.6,1.665,1.977,2.057,5.842,5.74,4.957,3.968-.953,1.68-4.6,2.3-7.008a1.3,1.3,0,0,0,0-.635c-.782-3.008,2.168-8.085-2.138-8.707C347.324,447.435,350.605,453.2,348.048,455.088Zm27.628.479h.038c0,1.708-.021,3.416,0,5.122.023,1.509.011,3.228,1.913,3.544,2.016.336,2.482-1.171,2.544-2.813.079-2.086.477-3.769,3.16-3.824,2.95-.06,3.555,1.691,3.643,4.09.047,1.347.41,2.649,2.127,2.54,1.6-.1,2.065-1.383,2.106-2.717.111-3.624.147-7.251.158-10.879,0-1.31-.224-2.711-1.77-3.006-2-.38-2.636.977-2.676,2.659-.051,2.23-.8,3.656-3.328,3.69s-3.343-1.31-3.361-3.589c-.013-1.648-.534-3.072-2.578-2.773-2.009.293-1.92,1.992-1.969,3.476S375.677,454.074,375.677,455.567Zm-60.654,5.748c-1.257-3.517-2.409-8.346-4.714-12.542-1.293-2.356-4.6-2.523-6.013.7-1.687,3.854-2.882,7.927-4.252,11.916-.359,1.043-.408,2.206.729,2.758a2.082,2.082,0,0,0,2.724-.885c2.9-3.921,5.644-3.782,8.359.28a2.987,2.987,0,0,0,2.215.752C315.174,464.278,315.272,463.35,315.022,461.315Zm18.35-7.221a12.385,12.385,0,0,0-.017-1.911c-.271-1.717.74-4.449-2.108-4.485-3.01-.036-1.732,2.756-2.024,4.417a23.458,23.458,0,0,0-.026,2.546c-.158,2.649.631,6.289-3.427,6.249-3.681-.036-2.871-3.487-3.018-5.913-.115-1.9-.094-3.816-.2-5.723a1.6,1.6,0,0,0-1.6-1.642c-.735.019-1.96.425-2.1.913a19.269,19.269,0,0,0,.413,12.478c1.214,3.155,4.4,3.846,7.533,3.527C333.364,463.885,333.172,458.835,333.373,454.094Zm31.247,10.494a7.956,7.956,0,0,0,5.289-1.415c1.035-.759,2.054-1.83,1.278-3.2-.844-1.492-2.076-1.1-3.151-.094-1.935,1.806-3.831,1.755-5.473-.3a5.369,5.369,0,0,1-.113-7.052c1.558-2.148,3.452-2.27,5.464-.641,1.451,1.176,3.053,1.169,3.662-.5.59-1.623-1.05-2.608-2.4-3.247-3.384-1.6-6.775-1.445-9.526,1.114-3.429,3.187-2.871,7.3-1.759,11.324C358.921,464.3,362.29,463.987,364.62,464.588ZM284.465,455.4c.045,9.331,1.462,10.593,9.646,9.137,1.24-.222,2.711-.195,2.557-1.982-.124-1.458-1.526-1.383-2.454-1.287-4.308.443-5.276-1.638-5.323-5.6-.032-2.691,2.185-7.8-2.238-7.7C282.482,448.055,285.421,453.172,284.465,455.4Z" transform="translate(242.034 196.651)" fill="#ce5a3e"/>
    <path id="Path_8989" data-name="Path 8989" d="M725.547,391.653c28.289,22.254,55.235,43.452,82.59,64.973-27.447,21.589-54.376,42.776-82.6,64.983,0-8.064-.4-14.778.118-21.422.487-6.247-1.133-8.288-7.925-8.252-60.466.306-120.937.186-181.407.141-2.2,0-4.549.658-7.388-.99,13.938-6.1,27.045-12.542,39.382-20.48a233,233,0,0,0,52.873-46.165c3.367-4.01,6.777-5.481,11.948-5.438,28.417.246,56.839-.073,85.253.267,6.1.073,7.692-1.881,7.266-7.572C725.194,405.58,725.547,399.4,725.547,391.653Zm15.313,64.316h.071c0-1.7.051-3.4-.015-5.094-.056-1.441.152-3.166-2.014-3.3-1.582-.1-2.262.945-2.448,2.332-.256,1.918-.269,3.886-3.018,3.98-3.006.1-3.348-1.918-3.632-4.143-.182-1.422-.947-2.424-2.531-2.118-1.629.314-1.655,1.744-1.674,3.006-.049,2.971-.13,5.949.028,8.912.092,1.723-.859,4.35,1.9,4.65,2.4.263,2.093-2.157,2.386-3.724a3.06,3.06,0,0,1,3.564-2.788c1.832.075,2.589,1.092,2.83,2.773.261,1.821.1,4.344,3,3.683,2.219-.5,1.4-2.764,1.537-4.346C740.949,458.524,740.859,457.241,740.859,455.969Zm-43.236.7c-1.7-2.807-3.1-5.18-4.558-7.514a3.4,3.4,0,0,0-3.835-1.631c-2.016.413-1.828,2.065-1.885,3.527a16.791,16.791,0,0,0,.03,3.822c.611,3.1-1.9,8.463,1.839,8.818,3.653.348.18-5.477,2.559-7.944,2.636,1.357,3.153,4.312,4.686,6.473,1.08,1.522,2.228,2.608,4.192,2.118s1.7-2.168,1.759-3.621a16.213,16.213,0,0,0-.009-3.822c-.635-3.061,2.086-8.4-1.866-8.728C696.862,447.859,700.263,453.633,697.623,456.668Zm-14.825-2.5c0-.849.043-1.7-.011-2.546-.1-1.644.242-3.848-2.1-3.961-3.01-.148-2.234,2.439-2.375,4.192-.1,1.266,0,2.546-.021,3.82-.045,2.364.066,5.2-3.138,5.267-3.668.073-3.41-3.014-3.465-5.573-.041-1.909-.017-3.82-.111-5.727-.043-.849-.316-1.821-1.325-1.89-.744-.049-2.054.171-2.193.581a20.275,20.275,0,0,0-.319,11.751c.8,3.072,3.435,4.156,6.332,4.481C679.886,465.209,682.629,461.9,682.8,454.165ZM662.949,464.4c1.42-.167,2.193-.823,1.9-1.7-1.627-4.829-2.942-9.857-5.353-14.278-.941-1.725-4.562-2.647-5.834,1.259-1.255,3.846-2.621,7.653-3.88,11.5-.306.932-1.116,2.054.1,2.86a2.011,2.011,0,0,0,2.839-.532c2.77-3.822,5.494-4.323,8.465-.207C661.626,463.911,662.549,464.163,662.949,464.4Zm51.661.237a7.033,7.033,0,0,0,1.98-.2c2.065-.864,5.421-1.505,4.346-4.3s-3.012,0-4.575.661a3.208,3.208,0,0,1-4.4-1.43,7.057,7.057,0,0,1-.006-6.77c1.06-1.98,3.018-2.375,4.925-1.15,1.528.983,3.384,2.168,4.177-.009.829-2.281-1.661-3.19-3.395-3.777a8.04,8.04,0,0,0-8.848,1.924c-2.9,2.967-2.828,6.755-1.71,10.2C708.167,463.073,711.236,464.443,714.61,464.64Zm-74.27-.081a21.515,21.515,0,0,0,2.493-.015c1.533-.222,4,.584,3.871-1.96-.1-1.937-2.341-1.471-3.649-1.349-5.667.532-4.4-3.5-4.831-6.732-.318-2.367,1.956-6.76-2.208-6.621-3.734.126-1.612,4.474-2.1,6.937-.2,1.026.083,2.138-.036,3.187C633.264,463.4,635.577,465.589,640.34,464.559Z" transform="translate(639.362 196.655)" fill="#ce5a3e"/>
    <path id="Path_8990" data-name="Path 8990" d="M443.522,391.45c28.406,22.384,55.517,43.751,83,65.4-27.25,21.384-54.22,42.552-82.737,64.932,0-8.615-.3-15.725.1-22.8.295-5.274-1.372-6.9-6.787-6.867-38.043.229-76.089.011-114.135.244-5.37.032-6.8-1.462-6.721-6.77.282-19.868.312-39.749-.128-59.613-.133-5.943,1.862-6.958,7.258-6.926,37.83.222,75.664.015,113.493.237,5.259.03,7.191-1.229,6.777-6.685C443.153,406.241,443.522,399.809,443.522,391.45ZM426.269,456.7a10.332,10.332,0,0,0-.913-2.178c-2.078-2.627-2.384-8.228-7.151-6.61-3.957,1.345-1.806,6.024-1.924,9.194-.092,2.486-1.488,6.933,1.877,7.065,3.735.15,1.325-4.513,2.461-6.772.128-.254.639-.316,1.244-.59.866,1.4,1.781,2.822,2.632,4.276,1.2,2.057,2.332,4.427,5.287,3.611,2.837-.785,1.907-3.418,2.114-5.413a11.207,11.207,0,0,0,0-3.2c-.515-2.738,1.62-7.518-1.836-7.8C425.679,447.936,428.907,453.16,426.269,456.7Zm-13.346,5.387c-1.522-4.07-2.694-8.927-5.107-13.06-1.674-2.869-4.968-2.4-6.447.9-1.638,3.653-2.738,7.551-4.015,11.362a2.474,2.474,0,0,0,.515,2.922,1.918,1.918,0,0,0,2.837-.154c3.063-3.929,5.691-3.234,8.765.158C410.7,465.57,412.679,465.326,412.923,462.088Zm-49.209-6.114c0,2.127-.062,4.256.026,6.379a2.263,2.263,0,0,0,1.843,2.294c1.161.222,2.356-.254,2.471-1.424.389-3.948,3.395-4.209,6.283-5.024,2.531-.712,3.671-2.745,3.532-5.411-.124-2.414-1.464-3.835-3.634-4.739C367.025,445.05,363.541,447.613,363.714,455.974Zm17.752-.1c0,8.807,2.649,11.151,10.212,9.107,1.067-.289,2.193-.581,2.245-1.823a1.78,1.78,0,0,0-2.168-1.772c-6.2.658-6.133-3.309-6.093-7.683.019-2.027,1.227-5.689-2.157-5.556-3.119.122-1.637,3.713-2.022,5.819A10.73,10.73,0,0,0,381.466,455.875Z" transform="translate(397.218 196.424)" fill="#8c519a"/>
    <path id="Path_8991" data-name="Path 8991" d="M94.056,391.539c8.064,6.255,15.11,11.661,22.089,17.149q17.989,14.141,35.9,28.379c7.085,5.644,13.57,12.042,21.316,16.858,2.811,1.747,3.147,3.277.175,5.59-26.081,20.317-52.063,40.763-79.366,62.183,0-8.619-.3-15.943.1-23.227.28-5.041-1.306-6.475-6.4-6.445-37.83.212-75.661-.024-113.489.257-5.934.043-7.433-1.629-7.335-7.427q.5-29.8-.075-59.609c-.094-5.267,1.65-6.3,6.507-6.276,37.83.184,75.661-.051,113.487.257,6.1.049,7.615-1.849,7.187-7.5C93.7,405.569,94.056,399.35,94.056,391.539Zm-21.948,65.55c1.114,1.646,2.05,2.976,2.931,4.34,1.167,1.806,2.228,3.854,4.891,3.284,2.944-.631,2.337-3.149,2.456-5.176a34.666,34.666,0,0,0,0-5.75c-.246-2.3,1.171-5.939-2.668-6.067-3.517-.12-1.738,3.683-2.809,5.5-.18.306-.633.453-.951.669-2.971-1.434-2.621-7.719-6.98-6.073-4.241,1.6-1.811,6.409-2.054,9.769-.165,2.268-1.353,6.309,1.86,6.5C72.328,464.3,69.9,459.787,72.108,457.089Zm-58.681-.669a24.351,24.351,0,0,0,.015,2.561c.214,2.007-.738,4.759,2,5.481,2.785.733,2.706-1.888,3.224-3.671.731-2.533,3.07-1.838,4.823-2.215,2.914-.622,4.647-2.42,4.6-5.3-.047-2.741-1.509-4.543-4.453-5.441C15.637,445.4,13.382,447.185,13.427,456.42Zm49.654,5.862c-1.511-4.4-2.845-8.442-4.295-12.444a3.6,3.6,0,0,0-4.017-2.475,3.561,3.561,0,0,0-3.237,2.651c-1.319,3.6-2.625,7.206-3.972,10.8-.455,1.221-1.062,2.512.233,3.47a2.324,2.324,0,0,0,3.4-.6c2.924-4.068,5.55-2.862,8.26.214a1.957,1.957,0,0,0,2.847.306C62.817,463.735,62.894,462.775,63.08,462.281Zm-23.789,2.841c1.578-.919,5.135,1.184,5.387-2.2.188-2.52-2.939-1.646-4.645-1.806-2.918-.278-3.3-2.138-3.341-4.444a47.148,47.148,0,0,0-.306-6.986c-.374-2.2-2.6-3.046-3.587-1.216-2.322,4.278-1.39,9.164-.7,13.718C32.692,466.119,36.4,464.579,39.291,465.122Z" transform="translate(0 196.525)" fill="#8c519a"/>
    <path id="Path_8992" data-name="Path 8992" d="M507.727,387.223c11.17,0,22.055.182,32.928-.092,4.254-.109,5.656,1.242,5.34,5.436A94.57,94.57,0,0,0,545.987,406c.271,4.066-1.415,4.992-5.2,4.966q-33.942-.221-67.886-.009c-3.5.021-4.457-.958-4.906-4.59-1.3-10.494,1.272-17.66,11.7-22.842a78.758,78.758,0,0,0,27.987-23.909c3.343-4.509,5.894-9.378,6.116-15.161.233-6.12-2.854-10.573-7.92-11.46a11.3,11.3,0,0,0-12.908,7.92,10.512,10.512,0,0,1-.218,1.255c-1.434,3,.462,7.948-2.505,9.085-2.6,1-6.45-1.18-9.723-2.05-2.05-.545-4.013-1.456-6.08-1.883-12.309-2.54-11.343-1.278-8.006-14.883,1.947-7.94,7.273-14.011,14.579-17.8,13.949-7.232,28.567-8.389,43.172-2.552,21,8.393,27.288,31.812,13.883,50.085-6.965,9.494-16.463,15.96-26.294,22.04C510.4,385.073,508.529,385.293,507.727,387.223Z" transform="translate(565.782 101.901)" fill="#fff"/>
    <path id="Path_8993" data-name="Path 8993" d="M144.6,340.208c-6.484,4.564-12,8.416-18.624,10.285-3.053.862-4.523.314-4.472-3,0-.214-.011-.428-.028-.641-.526-6.157-2.585-12.69-1.18-18.372,1.663-6.738,10.56-3.839,15.24-7.572,2.978-2.377,7.089-3.579,9.541-6.33,8.076-9.068,18.4-3.69,27.656-4.889,2.482-.323,1.99,2.279,1.992,3.861.028,30.764-.024,61.531.079,92.3.011,3.6-1.6,4.243-4.682,4.171-6.623-.154-13.263-.3-19.87.043-4.553.237-5.789-1.385-5.744-5.823C144.715,383.318,144.6,362.39,144.6,340.208Z" transform="translate(173.891 102.824)" fill="#fff"/>
    <path id="Path_8994" data-name="Path 8994" d="M219.182,351.476a39.733,39.733,0,0,1,1.257-5.022c1.011-2.8,3.279-3.769,6.105-3.222a4.812,4.812,0,0,1,4.233,4.816c.1,3.138-.72,6.559,4.126,6.86.859.051.928,1.214.855,2.1a1.793,1.793,0,0,1-2.095,1.843c-4.579-.68-9.177-1.343-13.675-2.407C218.009,355.98,219.146,353.979,219.182,351.476Z" transform="translate(286.54 141.398)" fill="#a293b3"/>
    <path id="Path_8995" data-name="Path 8995" d="M234.455,359.487c.122,5.1-3.108,8.739-7.854,8.848-5.332.124-9.417-3.294-9.569-8.008-.167-5.148,2.952-8.615,7.875-8.754C230.451,351.415,234.337,354.638,234.455,359.487Zm-3.752,1.146c-.085-3.262-2.559-3.972-5.182-4.37-2.433-.37-4.453.408-4.476,3.166-.024,2.937,2.2,3.874,4.756,4.1C228.038,363.737,230.156,363.658,230.7,360.633Z" transform="translate(284.494 151.048)" fill="#a293b3"/>
    <path id="Path_8996" data-name="Path 8996" d="M225.93,383.828c-2.636,1.67-4.237-1.627-6.576-1.366a9.449,9.449,0,0,0-1.456-1.172c-8.143-4.286-8.6-6.176-3.307-13.635.609-.859,1.007-1.971,2.366-1.492,1.768.62,1.27,1.862.738,3.068-.43.968-.951,1.9-1.3,2.9-.37,1.063-1.652,2.3.154,3.2,1.661.834,2.078-.558,2.764-1.635.812-1.278,1.195-3.831,3.489-2.473,1.868,1.11.039,2.6-.479,3.81-.537,1.248-1.133,2.535.338,3.281,1.5.759,2.249-.571,2.839-1.708s.994-2.349,1.652-3.429c.5-.825,1.075-1.988,2.407-1.231a1.9,1.9,0,0,1,.742,2.721C228.863,377.729,227.39,380.775,225.93,383.828Z" transform="translate(277.76 167.523)" fill="#a293b3"/>
    <path id="Path_8997" data-name="Path 8997" d="M202.328,279.059c.526-2.873-1.21-4.162-1.954-5.83-1.065-2.388-1.152-4.575.938-6.392s4.385-1.494,6.473-.058a11.308,11.308,0,0,1,3.673,3.45c.964,1.781,3.807,4.2.9,5.9-3.021,1.757-2.608-2.279-3.914-3.551-.864-.842-1.8-1.614-2.824-2.525-1.462,2.86.953,4.209,1.518,6.093.782,2.617,1.045,5.019-1.616,6.809-2.967,2-5.329.37-7.491-1.394-2.185-1.781-4.173-4.087-3.361-7.074.47-1.727,2.512-1.841,3.281.013C198.79,276.513,199.432,278.39,202.328,279.059Z" transform="translate(258.846 53.223)" fill="#a293b3"/>
    <path id="Path_8998" data-name="Path 8998" d="M209.412,291.791c-4.9-.964-6.428-5.607-9.406-8.662-.8-.823-1.03-1.915.139-2.7,1.067-.716,2.024-.274,2.809.575.87.941,1.691,1.922,2.544,2.877.7.789,1.428,1.753,2.625.939,1.238-.842.5-1.721-.034-2.685-.819-1.466-3.8-2.762-1.486-4.65,2.347-1.92,2.76,1.605,4.216,2.409.844.466,1.34,1.787,2.576.639,1.124-1.048.205-1.862-.2-2.811-.919-2.159-5.676-3.991-2.341-6.276,2.614-1.791,3.842,2.922,5.8,4.6,3.737,3.209,3.557,5.887-.684,8.906-2.531,1.8-6.016,3.155-6.663,6.943Z" transform="translate(264.366 59.434)" fill="#a293b3"/>
    <path id="Path_8999" data-name="Path 8999" d="M220.134,378.143a13.462,13.462,0,0,1,1.426,2.1c1.073,2.454,5.329,3.508,3.232,7.362-2.48,4.56-6.09,1.278-9.1,1.135-3.061-.145-5.981-2.112-9.229-.909l.15.156c-.966-4.352.455-6.095,4.992-4.714a18.2,18.2,0,0,0,7.993.81q-3.514-3.874-7.027-7.743c.406-2.869.836-5.682,4.228-1.89C217.907,375.686,219.023,376.911,220.134,378.143Z" transform="translate(272.322 174.995)" fill="#a293b3"/>
    <path id="Path_9000" data-name="Path 9000" d="M205.513,263.889c-1.644,1.945-3.3,3.878-4.923,5.834-1.61,1.939-3.861,3.788-.588,6.261a1.762,1.762,0,0,1,.133,2.792c-.973,1-1.952.432-2.807-.271-2.8-2.307-5.594-4.613-8.352-6.967-.814-.7-1.567-1.6-.834-2.736.312-.483,1.308-1.137,1.471-1.015,6.556,4.913,7.213-2.756,10.428-4.878.69-.457,1.12-1.462,1.841-1.7C204.012,260.511,204.835,261.937,205.513,263.889Z" transform="translate(251.292 48.038)" fill="#a293b3"/>
    <path id="Path_9001" data-name="Path 9001" d="M204,282.17c5.257,4.536,9.748,2.433,14.107-1.541,1.137-1.037,2.57-1.68,3.82-.026,1.475,1.952.175,3.042-1.334,4.057-1.753,1.18-3.529,2.33-5.214,3.6-1.112.838-2.79,1.456-2.189,3.388.457,1.471,2.582,3.3.355,4.32-2.7,1.225-3.414-1.909-4.408-3.48-2.059-3.258-5.565-5.9-5.03-10.419Z" transform="translate(269.673 69.157)" fill="#a293b3"/>
    <path id="Path_9002" data-name="Path 9002" d="M217.967,364.849c.41.169,1.768.776,3.16,1.3,3.78,1.413,7.813,3.585,8.857-3.074.162-1.039.956-2.082,2.238-1.693,1.648.5,1.437,1.858.977,3.128-.727,2-1.576,3.961-2.242,5.981-.926,2.79-2.343,3.628-5.231,2.206a81.816,81.816,0,0,0-9.543-3.66c-1.372-.472-2.326-.994-1.967-2.644C214.543,364.888,215.376,364.171,217.967,364.849Z" transform="translate(281.21 162.114)" fill="#a293b3"/>
    <path id="Path_9003" data-name="Path 9003" d="M554.4,271.724c.977,3.209,4.985,5.8,2.187,9.759-1.283,1.813-3.279,3.057-5.5,2.033-4.173-1.924-7.677-4.562-7.318-9.926l-.137.12,4.1-.53c.511,2.465.575,5.289,4.355,5.686.154-3.113-2.065-4.763-2.73-7.027-.477-4.237,1.24-6.6,5.674-6.116,3.658.4,8.333,6.054,7.745,8.944a1.74,1.74,0,0,1-1.576,1.633c-.868.1-1.815-.026-2.063-.966-.56-2.125-1.441-3.959-3.472-5.037C554.25,269.9,553.748,270.305,554.4,271.724Z" transform="translate(656.088 53.309)" fill="#a293b3"/>
    <path id="Path_9004" data-name="Path 9004" d="M559.858,291.543c-5.022-.485-7.217-4.607-10.05-7.873-.787-.911-1.839-2.089-.539-3.3,1.655-1.539,2.625-.026,3.6,1.069.705.793,1.319,1.67,2.059,2.424.718.733,1.5,1.661,2.638.6.8-.74.3-1.439-.021-2.249-.626-1.573-3.649-2.818-1.706-4.645,2.151-2.024,3.018,1.02,4.3,2.1.868.731,1.742,1.351,2.676.289s-.158-1.806-.571-2.717c-.859-1.9-4.853-3.564-2.375-5.483,2.644-2.05,3.874,2.1,5.7,3.566,4.893,3.921,3.491,6.877-1.037,10.112-2.02,1.443-5.492,2.454-4.84,6.242Z" transform="translate(661.807 59.607)" fill="#a293b3"/>
    <path id="Path_9005" data-name="Path 9005" d="M574.679,351.566c5.451.064,9.432,3.617,9.327,8.32a8.409,8.409,0,0,1-8.457,8.448c-5.494-.047-9.235-3.478-9.175-8.418C566.434,354.786,569.7,351.507,574.679,351.566Zm5.56,8.617c-.862-3.391-3.645-3.944-6.454-4.042-2.082-.073-3.863.906-3.643,3.412.3,3.365,2.984,3.788,5.584,4.038C578.17,363.826,579.838,362.8,580.24,360.184Z" transform="translate(681.965 151.046)" fill="#a293b3"/>
    <path id="Path_9006" data-name="Path 9006" d="M576.132,382.542c-2.721,4.09-5.09-.62-7.657-.306a10.765,10.765,0,0,0-1.5-1.135c-8.049-4.2-8.333-5.456-3.074-13.07.729-1.058,1.234-2.51,2.82-1.738,1.676.817.673,2.155.229,3.279-.312.789-.742,1.528-1.092,2.3-.537,1.191-1.116,2.612.338,3.356,1.618.825,2.084-.881,2.741-1.862.782-1.163,1.137-3.273,3.089-2.3,2.151,1.073.071,2.531-.192,3.788-.252,1.21-1.234,2.61.321,3.367,1.58.77,2.153-.77,2.749-1.877s1.189-2.255,1.772-3.39c.477-.928.821-2.082,2.262-1.227a1.79,1.79,0,0,1,.776,2.647C578.462,377.075,577.318,379.818,576.132,382.542Z" transform="translate(675.13 167.554)" fill="#a293b3"/>
    <path id="Path_9007" data-name="Path 9007" d="M582.024,358.781c-4.064-.671-7.852-1.244-11.614-1.939-2.726-.5-3.547-1.986-2.2-4.586a23.746,23.746,0,0,0,1.89-4.684c.846-3.136,2.683-4.767,5.994-4.44,3.54.348,4.549,2.713,4.464,5.834-.077,2.76-.81,5.8,3.544,6,1.481.066,1.477,1.383,1.259,2.407C584.9,359.564,583.1,358.709,582.024,358.781ZM577.464,350c-.167-.936-.6-2.191-2.1-2.275-1.526-.083-2.076,1.169-2.362,2.471-.374,1.693.7,2.268,2.056,2.486C576.784,352.958,577.178,351.752,577.464,350Z" transform="translate(683.331 141.404)" fill="#a293b3"/>
    <path id="Path_9008" data-name="Path 9008" d="M555.607,387.882c.156-4.182,1.467-6.415,6.223-4.365,2.227.958,4.808,1.1,8.517,1.883l-8.072-8.823c-.327-1.582.085-3.174,1.464-3.775,1.854-.806,2.138,1.449,3.1,2.324,1.522,1.385,2.811,3.029,4.2,4.568.479.695,1,1.362,1.428,2.084,1.086,1.841,3.668,3.036,1.958,6-1.83,3.17-4.382,1.6-6.732,1.471-4.117-.231-7.92-3.018-12.258-1.518Z" transform="translate(669.52 175.013)" fill="#a293b3"/>
    <path id="Path_9009" data-name="Path 9009" d="M551.083,278.868c-3.189.167-12.649-5.609-13.729-8.376-.626-1.6.8-3.089,1.529-2.565,6.108,4.376,7.123-2.129,10.043-4.472.654-.526,1.163-1.231,1.776-1.815a1.918,1.918,0,0,1,2.809-.009c1.163.938,1.484,2.005.485,3.251a15.231,15.231,0,0,1-1.67,1.915c-4.143,3.658-6.018,7.546-1.387,12.192Z" transform="translate(648.772 48.031)" fill="#a293b3"/>
    <path id="Path_9010" data-name="Path 9010" d="M553.821,282.118c3.961,5.024,7.593,2.753,11.413-.323,1.623-1.306,3.842-3.88,5.746-.594,1.7,2.922-2,2.982-3.1,4.457-1.952,2.6-8.795,2.443-4.707,8.581.755,1.133-.866,2.3-2.3,1.952-2.589-.631-7.655-11.262-6.894-14.2Z" transform="translate(667.683 69.164)" fill="#a293b3"/>
    <path id="Path_9011" data-name="Path 9011" d="M582.545,363.631c-.128,7.807-4.122,10.7-11.309,7.521-2.721-1.2-8.825-.883-7.424-4.739,1.764-4.865,6.319-.346,8.908.84,4.893,2.242,5.141-1.112,6.426-3.837.481-1.02.7-2.732,2.576-1.93C582.634,361.876,582.722,362.739,582.545,363.631Z" transform="translate(678.815 162.095)" fill="#a293b3"/>
    <path id="Path_9012" data-name="Path 9012" d="M66.6,380.536a38.313,38.313,0,0,0-4.308,1.208c-1.576.631-2.3-.169-3.14-1.266-1.06-1.383-1.3-2.636-.045-3.987,2.909-3.128,5.8-6.27,8.72-9.387.979-1.045,2.042-1.608,3.123-.1.806,1.127,1.169,2.245-.028,3.382-2.138,2.037-4.25,4.1-6.757,6.52,3.405.588,5.485-1.312,7.916-1.7,1.413-.222,2.937-1.095,4.085.515,1.351,1.9.077,3.125-1.176,4.378-1.443,1.445-2.826,2.95-4.455,4.662,3.395,1.1,5.624-.556,7.965-1.353,2.022-.693,2.835.3,3.35,1.817.628,1.856-.894,2.005-2.112,2.324-3.3.864-6.561,1.868-9.894,2.548-1.806.37-3.79,2.155-5.479-.853-1.65-2.939.887-3.7,1.982-5.255a21.341,21.341,0,0,1,1.7-1.911c.41-.562,1.725-.881.876-1.757C68.582,379.974,67.4,380.44,66.6,380.536Z" transform="translate(103.855 167.561)" fill="#a293b3"/>
    <path id="Path_9013" data-name="Path 9013" d="M57.094,329.9c1.169.193,4.534-2.234,5.875.015,1.785,3,1.4,6.99.607,10.545a4.112,4.112,0,0,1-4.684,3.457c-3.489-.667-6.888-3.23-10.067.643-.066.079-1.321-.457-1.355-.78-.109-1-.267-2.349.271-2.982a30.707,30.707,0,0,1,3.936-3.17c1.819-1.516,2.048-2.88-.744-3.215-1.8-.216-4.214.705-4.021-2.407.188-3.072,2.8-1.806,4.44-2.059A45.365,45.365,0,0,1,57.094,329.9Z" transform="translate(90.934 125.321)" fill="#a293b3"/>
    <path id="Path_9014" data-name="Path 9014" d="M87.6,264.492c-.122-3.876,5.5-10.25,9.041-10.257,1.2,0,10.206,11.713,9.534,12.906-2.074,3.7-5.748,5.605-9.714,6.309C92.16,274.21,87.754,269.445,87.6,264.492Zm7.311-4.887c-2.012,1.1-3.643,2.39-2.916,4.534.87,2.572,2.091,5.27,5.665,4.763,1.479-.21,3.4-.819,2.4-2.7C98.764,263.754,97.727,260.856,94.909,259.605Z" transform="translate(137.235 40.308)" fill="#a293b3"/>
    <path id="Path_9015" data-name="Path 9015" d="M79.888,265.519c3.281,3.484,7.754,6.7,9.921,11.065,1.514,3.051-3.279,5.252-5.682,7.39-2.168,1.926-4.754,1.806-6.958-.216a5.08,5.08,0,0,1-.874-6.952c1.58-2.482,4.03-4.338.556-7.508C75.187,267.781,77.429,266.487,79.888,265.519Z" transform="translate(123.254 53.146)" fill="#a293b3"/>
    <path id="Path_9016" data-name="Path 9016" d="M89.239,267.113c-.791-2.108-1.7-1.98-3.371-.93-1.924,1.212-4.03,5.312-6.011,2.67-2.236-2.982,2.647-3.807,4.156-5.766,3.326-4.318,6.422-3.963,9.154.723.53.909,1.437,1.588,2.014,2.475,1.351,2.072,4.992,4.141,3.827,6.018-1.915,3.091-5.5,5.167-8.448,7.583-.842.688-1.623,0-2.1-.725a1.727,1.727,0,0,1,.421-2.3c1.08-1.028,2.255-1.952,3.365-2.95.842-.757,1.43-1.682.571-2.726-.663-.8-1.466-.3-2.275,0-1.584.588-2.8,3.794-4.63,1.659-1.879-2.193,1.293-2.967,2.347-4.316C88.631,268.055,88.95,267.534,89.239,267.113Z" transform="translate(127.773 46.935)" fill="#a293b3"/>
    <path id="Path_9017" data-name="Path 9017" d="M71.947,297.441c-4.714.036-9.408-4.194-9.526-8.583-.12-4.429,4.064-9.062,8.209-9.09,4.256-.028,9.513,4.757,9.654,8.784C80.44,293,76.3,297.409,71.947,297.441ZM70.774,284.6c-2.6-.18-4.3.9-4.209,3.076.154,3.54,3.147,4.887,6.013,5.411a3.112,3.112,0,0,0,3.538-3.47C75.7,286.656,73.236,285.236,70.774,284.6Z" transform="translate(108.59 69.358)" fill="#a293b3"/>
    <path id="Path_9018" data-name="Path 9018" d="M60.3,342.728c-1.682.921-1.5,2.012-1.635,3.055-.2,1.462,1.343,3.852-1.272,4.115-1.86.188-1.642-2.112-2.071-3.437-.378-1.163-.286-2.794-2.129-2.51-2.48.383-1.248,2.161-1.105,3.485.113,1.058.323,2.108.419,3.166s.205,2.281-1.127,2.636c-1.762.47-2.185-.938-2.422-2.176-.519-2.713-.857-5.458-1.343-8.175-.325-1.826.261-2.8,2.183-3.059,1.9-.252,3.747-.812,5.642-1.086,9.308-1.342,10.137-.554,10.441,9.085.045,1.426.195,2.674-1.454,2.895-1.387.186-1.541-1.077-1.751-2.14C62.276,346.546,62.156,344.385,60.3,342.728Z" transform="translate(91.653 135.879)" fill="#a293b3"/>
    <path id="Path_9019" data-name="Path 9019" d="M60.935,374.617c.2,1.563,0,2.322-1.052,2.559-1.018.227-1.543-.363-1.922-1.191q-1.985-4.335-3.983-8.669c-.693-1.49-.141-2.367,1.285-2.969,1.759-.744,3.472-1.6,5.216-2.379,9.1-4.066,9.37-3.923,12.431,5.843.372,1.186,1.392,2.439-.3,3.219-1.531.705-2.257-.425-2.771-1.723-.31-.785-.757-1.516-1.139-2.272-.643-1.276-1.056-3.222-3.046-2.21-1.552.787-.3,2.178-.1,3.35.216,1.3,2.012,2.811.115,3.906-2.14,1.236-2.172-1.065-2.918-2.155s-.834-3.437-2.905-2.533c-2.542,1.11-.5,2.85-.079,4.278A28.391,28.391,0,0,0,60.935,374.617Z" transform="translate(98.648 160.018)" fill="#a293b3"/>
    <path id="Path_9020" data-name="Path 9020" d="M56.856,356.662c2.719.124,5.438.282,8.158.355,1.7.045,2.963.5,2.912,2.488s-1.616,1.629-2.785,1.588c-3.837-.133-7.677-.3-11.5-.6-1.759-.135-3.219-.763-3.724-2.862a3.439,3.439,0,0,1,1.725-4.248c3.395-2.2,6.668-4.583,9.979-6.909,1.086-.761,2.189-1.616,3.125.09a2.4,2.4,0,0,1-.628,3.4c-2.555,1.8-5.163,3.519-7.747,5.272Z" transform="translate(94.169 144.231)" fill="#a293b3"/>
    <path id="Path_9021" data-name="Path 9021" d="M68.3,295.352c.836,1.5,1.191,2.24,1.64,2.918,1.139,1.717,3.412,3.805.968,5.426-2.694,1.785-3.066-1.734-4.09-3.134-2.012-2.749-3.713-5.716-7.027-7.166-1.4-.611-1.945-1.552-1.095-3.01a2.089,2.089,0,0,1,3.2-.909c3.566,2.2,7.467,1.063,11.236,1.306,1.3.086,3.48-.975,3.7,1.112.235,2.217-1.437,3.316-3.762,3.217C71.819,295.059,70.562,295.228,68.3,295.352Z" transform="translate(103.891 79.929)" fill="#a293b3"/>
    <path id="Path_9022" data-name="Path 9022" d="M75.116,278.357c-2.234.374-2.9,2.123-4.064,3.29-.975.975-1.759,2.822-3.517,1.223s.141-2.636.889-3.679c1.353-1.888,2.924-3.617,4.387-5.428,1.1-1.36,2.176-1.753,3.7-.462,3.068,2.6,6.244,5.062,9.376,7.58,1.095.881,1.719,1.883.714,3.213-1.1,1.449-2.172,1.595-3.679.31C80.362,282.219,77.607,280.266,75.116,278.357Z" transform="translate(113.587 61.102)" fill="#a293b3"/>
    <path id="Path_9023" data-name="Path 9023" d="M68.129,356.658c.237,1.924-.562,2.428-1.661,2.8-3.788,1.293-7.585,2.565-11.317,4-1.554.6-2.334.077-3.016-1.2-.6-1.118-.5-2.153.693-2.6,4.331-1.627,8.679-3.219,13.083-4.637C67.607,354.484,67.906,356.036,68.129,356.658Z" transform="translate(96.482 154.856)" fill="#a293b3"/>
    <path id="Path_9024" data-name="Path 9024" d="M418.623,365.415c2.411,3.762,2.411,3.762-4.857,12.388,2.781.7,4.823-1.332,7.236-1.727,1.652-.269,3.29-1.139,4.613.708,1.561,2.17-.6,2.959-1.535,4.162-1.263,1.635-3.382,2.576-3.989,4.878,2.771.994,4.951-.789,7.273-1.514,1.8-.564,2.986-.188,3.628,1.394.9,2.238-.943,2.313-2.371,2.681-3.284.851-6.546,1.785-9.84,2.585-1.723.419-3.587,1.723-5.041-.673-1.529-2.52.094-3.906,1.68-5.4a21.4,21.4,0,0,0,1.638-1.945q.612-.888,1.225-1.774a2.383,2.383,0,0,0-2.732.342,18.513,18.513,0,0,0-3.078.705c-1.732.708-3.091.928-4.233-1.069-1.03-1.8-.571-3.016.656-4.468,3.207-3.8,7.3-6.845,9.75-11.292Z" transform="translate(501.4 166.775)" fill="#a293b3"/>
    <path id="Path_9025" data-name="Path 9025" d="M397.69,344.8c-.635-1.717-1.146-3.346.015-4.5,2.578-2.555,9.432-5.323-.75-6.368-.378-.038-.8-1.368-.885-2.129-.145-1.351.827-1.77,2-1.851,4.235-.289,8.639-1.443,12.662-.656,5.419,1.06,2.944,6.223,2.867,9.487-.081,3.465-3.2,6.73-6.456,4.8C403.111,341.186,400.642,343.02,397.69,344.8Z" transform="translate(488.185 125.401)" fill="#a293b3"/>
    <path id="Path_9026" data-name="Path 9026" d="M446.336,254.143c1.109.062,9.988,12.091,9.348,13.124a13.032,13.032,0,0,1-10.261,6.33c-4.323.348-9.12-5.543-8.651-10.032C437.063,260.779,443.938,254.008,446.336,254.143Zm3.5,12.1c-1.723-1.992-2.275-5.584-5.321-6.2-1.813-.366-3.292,1.86-2.867,3.993.562,2.837,2,5.178,5.4,5.009C448.48,268.977,450.039,268.6,449.831,266.245Z" transform="translate(534.474 40.2)" fill="#a293b3"/>
    <path id="Path_9027" data-name="Path 9027" d="M423.729,371.781c-2.388-1.6-5.723-2.123-6.212-5.842a1.8,1.8,0,0,0-2.8-1.49c-1.4.669-.43,1.732-.274,2.7.242,1.5,2.6,3.333.423,4.412-2.708,1.345-2.638-1.924-3.611-3.26-.688-.947-1.306-1.89-2.433-1.236-1.022.594-.656,1.776-.539,2.873.242,2.266,4.169,5.173.934,6.42-3.485,1.34-2.989-3.621-4.412-5.635-2.676-3.786-2.183-6.281,2.873-8.346,11.332-4.628,13.134-3.859,14.753,8.679.13,1.007.744.686,1.274.748Z" transform="translate(496.318 160.385)" fill="#a293b3"/>
    <path id="Path_9028" data-name="Path 9028" d="M441,270.683a14.927,14.927,0,0,1-1.334.71c-1.561.614-2.856,3.818-4.652,1.428-1.644-2.187,1.588-2.886,2.627-4.235a1.971,1.971,0,0,0,.41-2.3c-.714-1.135-1.614-.567-2.7-.173-2.258.819-4.013,6.052-6.368,2.433-1.7-2.606,3.331-3.933,5.1-6.058,2.8-3.361,5.526-3.408,7.837.656a14.946,14.946,0,0,0,1.565,2.016c6.131,7.444,6.148,7.465-1.437,13.171-1.172.881-2.337,3.177-4.115.891-1.458-1.873.71-2.488,1.584-3.455.853-.941,1.973-1.644,2.79-2.608a1.906,1.906,0,0,0,.032-1.727C442.121,271.021,441.393,270.884,441,270.683Z" transform="translate(525.255 46.896)" fill="#a293b3"/>
    <path id="Path_9029" data-name="Path 9029" d="M402.884,343.952c-2.153,1.09-1.3,2.512-1.537,3.656-.406,2.007,2.093,5.353-1.34,5.742-2.1.237-1.644-3.378-2.3-5.229-1.947-5.488-.331-8.855,5.99-8.976a21.115,21.115,0,0,1,3.162-.254c2.217.31,5.252-2.341,6.422.188,1.454,3.134,1.494,6.943,1.992,10.484a1.412,1.412,0,0,1-1.68,1.449,2.64,2.64,0,0,1-1.742-1.475c-.436-1.4-.432-2.929-.746-4.374-.224-1.033-.661-2.146-2.039-1.881-.941.18-1.065,1.065-1.236,1.941-.331,1.7,1.779,4.451-.814,4.93-3.211.592-1.531-3.237-2.869-4.613C403.728,345.112,403.4,344.608,402.884,343.952Z" transform="translate(489.177 135.581)" fill="#a293b3"/>
    <path id="Path_9030" data-name="Path 9030" d="M430.311,285.11c-4.8-.122-7.117-4.94-4.491-8.9,1.5-2.26,4.066-4.042.528-6.676-1.338-1-.688-2.187.38-3.183,1.274-1.184,2.247-.631,3.249.368,2.862,2.856,5.751,5.689,8.615,8.542.964.964,1.578,2,.333,3.215C436.23,281.117,434.069,284.482,430.311,285.11Z" transform="translate(520.801 53.331)" fill="#a293b3"/>
    <path id="Path_9031" data-name="Path 9031" d="M420.623,297.388c-4.784-.011-9.338-4.1-8.917-8.478.464-4.827,2.884-8.527,8.106-9.088,4.656-.5,9.782,4.444,9.757,8.927A8.753,8.753,0,0,1,420.623,297.388Zm4.9-7.591c-.577-3.07-2.664-4.68-5.605-5.205-2.3-.41-4.055.941-4.015,3.048.064,3.288,2.98,4.581,5.6,5.387C423.77,293.726,424.873,291.894,425.519,289.8Z" transform="translate(505.961 69.379)" fill="#a293b3"/>
    <path id="Path_9032" data-name="Path 9032" d="M406.034,356.659c2.907.133,5.815.3,8.724.383,1.847.049,2.856,1.052,2.749,2.745-.122,1.9-1.864,1.33-2.952,1.293-4.03-.133-8.059-.393-12.085-.676-1.98-.139-2.937-1.409-3.352-3.269-.391-1.762.492-2.792,1.8-3.7,3.145-2.17,6.229-4.425,9.425-6.516,1.077-.708,2.433-2.441,3.685-.357a2.7,2.7,0,0,1-1.065,3.857q-3.662,2.4-7.33,4.789Z" transform="translate(491.564 144.228)" fill="#a293b3"/>
    <path id="Path_9033" data-name="Path 9033" d="M426.408,291.19c-1.419,4.8-4.686,4.831-7.961,4.784-.545,1.92,1.18,2.587,1.913,3.681,1.184,1.772,1.077,3.294-.545,4.457-2.251,1.614-2.319-1.092-3.018-1.95-2.369-2.912-4.028-6.388-7.777-8.064-1.462-.652-1.766-2.328-1.165-3.9a1.438,1.438,0,0,1,2.029-.973C414.954,292.225,420.7,289.967,426.408,291.19Z" transform="translate(501.279 79.918)" fill="#a293b3"/>
    <path id="Path_9034" data-name="Path 9034" d="M436.458,283.084c-.729,1.918-1.9,2.931-3.867,1.561a29.632,29.632,0,0,1-3.921-3.279c-2.937-2.92-5.684-4.575-8.359.312-.714,1.3-1.785,2.589-3.523,1.018-1.584-1.432-.028-2.343.68-3.11,2.253-2.443,4.211-7.779,6.68-6.847,4.543,1.717,8.149,5.924,12.11,9.139C436.492,282.067,436.4,282.665,436.458,283.084Z" transform="translate(510.993 61.236)" fill="#a293b3"/>
    <path id="Path_9035" data-name="Path 9035" d="M403.122,363.907a1.441,1.441,0,0,1-1.766-1.529c-.036-.791-.036-2.155.336-2.3,4.513-1.823,9.085-3.5,13.673-5.133,1-.357,1.434.543,1.83,1.325.545,1.077.622,2.362-.468,2.786C412.171,360.815,407.528,362.355,403.122,363.907Z" transform="translate(494.198 154.794)" fill="#a293b3"/>
    <path id="Path_9036" data-name="Path 9036" d="M147.114,426.288c-.282,1.379-.406,2.191-.618,2.98-.537,1.98,1.214,5.7-2.3,5.426-3.17-.246-1.492-3.831-1.736-5.934a47.776,47.776,0,0,1-.036-7.042c.053-1.612-.453-3.624,2.061-3.978A3.934,3.934,0,0,1,148.8,419.7c1.319,2.084,1.913,4.712,4.434,6.371.246-.7.425-1.206.6-1.71.738-2.174-1.507-6.336,1.969-6.309,4.1.034,2.23,4.4,2.125,6.706-.152,3.388,2.268,8.47-1.6,9.889-4.983,1.826-4.981-4.6-7.548-7.031C148.491,427.346,148.159,427.119,147.114,426.288Z" transform="translate(199.4 226.262)" fill="#a293b3"/>
    <path id="Path_9037" data-name="Path 9037" d="M144.738,430.355c-.468-2.2-3.946-.776-3.414-3.249.513-2.392,2.751-1.306,4.28-1.462,1.817-.186,3.564.077,3.435,2.518-.118,2.255.594,6.507-.763,6.385-4.173-.378-8.9,2.732-12.587-1.278-3.487-3.792-3.561-8.254-.947-12.26,2.531-3.882,6.644-4.154,10.8-2.475,1.586.641,3.474,1.625,2.441,3.608-.658,1.261-2.467,1.368-3.9.235-1.965-1.552-3.961-1.646-5.4.6a5.984,5.984,0,0,0-.141,6.646C140.037,432.04,142.079,432.386,144.738,430.355Z" transform="translate(188.793 226.126)" fill="#a293b3"/>
    <path id="Path_9038" data-name="Path 9038" d="M109.528,417.668c7.371.094,10.387,2.8,10.186,9.126-.18,5.755-3.427,8.491-10.449,8.288-9.408-.274-4.213-7.486-4.757-11.416C103.686,417.717,104.363,417.6,109.528,417.668Zm-.56,8.307c.9,1.689-1.605,5.094,2.266,5.342,2.895.186,3.968-2.172,3.98-4.761.013-2.443-.47-4.91-3.517-5.2C107.974,421.011,109.468,424.06,108.968,425.975Z" transform="translate(155.399 226.243)" fill="#a293b3"/>
    <path id="Path_9039" data-name="Path 9039" d="M125.7,422.562c1.447,1.892,3.549,2.193,5.5,2.756,2.527.727,4.186,2.268,3.951,5.011-.231,2.7-2.21,4.115-4.656,4.551a14.341,14.341,0,0,1-5.661.023c-1.652-.393-4.468-.77-3.8-3.292.857-3.222,2.927-.725,4.523-.336,1.439.353,2.92.712,4.434-.652-.723-2.555-3.266-1.992-4.983-2.7-2.555-1.045-4.669-2.456-4.134-5.567.558-3.247,3.125-4.4,6.058-4.682,2.8-.267,5.56.032,7.518,2.411a1.921,1.921,0,0,1-.1,1.749c-.678,1.047-1.676,1.065-2.745.432C129.711,421.151,127.8,420.548,125.7,422.562Z" transform="translate(175.002 226.174)" fill="#a293b3"/>
    <path id="Path_9040" data-name="Path 9040" d="M215.6,395.879c.045,3.023-5.156,10.509-7.3,10.516-1.105,0-12.057-10.171-12.01-11.157.092-1.928,7.657-8.085,10.073-8.2C210.725,386.836,215.535,391.437,215.6,395.879Zm-9.889-4.269c-1.712.4-3.936.983-3.258,3a9.847,9.847,0,0,0,6.18,5.9c1.828.594,3.2-2.005,2.841-3.972C210.932,393.532,208.7,391.99,205.709,391.61Z" transform="translate(260.895 191.401)" fill="#a293b3"/>
    <path id="Path_9041" data-name="Path 9041" d="M112.878,426.771c0-9.389.829-10.1,10.122-8.874,1.3.173,2.79.075,2.862,1.774.077,1.8-1.445,1.764-2.741,1.791-.855.017-1.708,0-2.561.036-1.283.054-2.7,0-2.664,1.871.028,1.385,1.112,1.492,2.187,1.774,1.422.372,4.013-.985,3.976,1.678-.03,2.106-2.33,1.109-3.638,1.357-1.272.244-2.661.233-2.45,2.084.167,1.458,1.39,1.362,2.418,1.437.851.062,1.723-.07,2.557.062,1.313.209,3.465-.695,3.523,1.543.066,2.61-2.285,1.843-3.839,2.063a6.361,6.361,0,0,1-.639.006C112.878,435.738,112.878,435.738,112.878,426.771Z" transform="translate(166 225.995)" fill="#a293b3"/>
    <path id="Path_9042" data-name="Path 9042" d="M211.221,379.733c.932,2.691-.99,4.3-2.287,6.178-.656.956-1.967,1.952-.648,3.294,1.5,1.526,2.059-.188,2.948-.9,1.18-.943,1.67-3.818,3.724-2.362,2.55,1.809-.494,3.115-1.144,4.6-.417.949-1.332,1.764-.133,2.719,1.109.883,1.954.276,2.666-.609.932-1.154,1.819-2.345,2.734-3.515.652-.834,1.321-1.8,2.557-1.058,1.486.887,1.167,2.039.293,3.2-1.783,2.373-3.549,4.759-5.34,7.125-.872,1.157-1.89,1.629-3.219.629-3.388-2.55-6.822-5.041-10.156-7.653-.566-.443-1.225-1.809-1.033-2.024,2.933-3.277,3.718-8.679,9.188-9.468Z" transform="translate(267.567 183.093)" fill="#a293b3"/>
    <path id="Path_9043" data-name="Path 9043" d="M134.526,426.129c-1.464,2.986,1.729,8.115-2.7,8.211-4.69.1-2.337-5.071-2.281-7.683.064-3.044-2.54-8.76,2.409-8.737C136.467,417.941,132.611,423.656,134.526,426.129Z" transform="translate(184.24 226.54)" fill="#a293b3"/>
    <path id="Path_9044" data-name="Path 9044" d="M497.3,426.2c-2.634,3.089.84,8.724-3.224,8.371-4.323-.378-1.246-5.659-2.11-8.634a1.277,1.277,0,0,1,0-.635c.622-2.488-1.727-6.133,1.7-7.362,3.918-1.409,4.635,2.677,6.212,5.007.691,1.018,1.33,2.071,2.219,3.465,2.21-1.995,1.189-4.222,1.464-6.108.2-1.351.4-2.555,2.157-2.476,1.845.081,1.817,1.481,1.832,2.738.043,3.624.06,7.247.006,10.868-.019,1.413.357,3.177-1.736,3.561-1.781.327-3.4.026-4.417-1.729C500.145,431.09,498.875,428.911,497.3,426.2Z" transform="translate(597.011 226.24)" fill="#a293b3"/>
    <path id="Path_9045" data-name="Path 9045" d="M453.2,426.381c1.1-3.386-2.508-9.242,5.387-8.735,6.832.436,10.407,2.989,10.592,8.5.193,5.65-3.8,8.748-10.714,9.09C450.5,435.631,454.448,429.658,453.2,426.381Zm7.179-5.052c-3.564.128-2.482,2.944-2.36,4.709.13,1.909-1.674,5.242,2.193,5.334,3.13.075,4.25-2.236,4.167-5.225C464.307,423.446,463.275,421.676,460.383,421.33Z" transform="translate(553.206 226.194)" fill="#a293b3"/>
    <path id="Path_9046" data-name="Path 9046" d="M491.261,417.607a6.757,6.757,0,0,1,1.635.184c1.988.661,5.047,1.287,4.508,3.6-.65,2.794-2.969,1.674-4.936.385a2.948,2.948,0,0,0-4.421,1.058,7.282,7.282,0,0,0-.233,6.766,3.147,3.147,0,0,0,3.647,1.928,3.332,3.332,0,0,0,2.078-1.142c.729-1.12-.415-1.321-1.167-1.578-1.026-.351-2.23-.722-1.573-2.082a2.7,2.7,0,0,1,2.059-1.086c2.405-.051,5.708-.964,5.366,3.192-.195,2.367,2.345,6.078-4.077,5.663-8.991-.579-12.459-2.232-11.706-9.233C482.963,420.423,486.15,417.569,491.261,417.607Z" transform="translate(586.357 226.184)" fill="#a293b3"/>
    <path id="Path_9047" data-name="Path 9047" d="M565.172,395.889c.047,3.072-5.278,10.3-7.587,10.291-1.353,0-12.01-9.866-11.935-11.044.13-2.024,7.621-8.017,10.118-8.1C560,386.91,565.106,391.714,565.172,395.889Zm-4.543.96a5.558,5.558,0,0,0-5.334-5.092c-1.779-.171-3.972.7-3.63,2.488.622,3.247,3.591,5.186,6.411,6.208C559.928,401.124,560.337,398.627,560.629,396.848Z" transform="translate(658.386 191.404)" fill="#a293b3"/>
    <path id="Path_9048" data-name="Path 9048" d="M474.279,426.812c-.958.528-1.473.847-2.016,1.1-1.644.776-5.118-1.345-4.8,2.219.224,2.533,3.164,1.041,4.863,1.428,1.315.3,3.418-.6,3.589,1.486.218,2.666-2.176,2.225-3.7,2.1-3.091-.257-7.57,1.74-8.989-1.148-2.125-4.329-1.02-9.62-.509-14.47.246-2.332,2.621-1.836,4.194-1.721,2.9.212,6.056-1.1,8.622.93.834.658.374,2.142-.977,2.371a41.362,41.362,0,0,1-4.472.231c-1.227.075-2.745-.171-2.83,1.7s1.364,1.815,2.647,1.937C471.291,425.106,472.888,424.661,474.279,426.812Z" transform="translate(563.177 226.157)" fill="#a293b3"/>
    <path id="Path_9049" data-name="Path 9049" d="M474.672,422.276c1.612,2.146,3.739,2.456,5.68,2.976,2.61.695,4.141,2.253,3.976,4.962s-2.031,4.092-4.515,4.68a10.468,10.468,0,0,1-6.879-.355c-1.3-.586-3.2-1.05-2.666-2.92.56-1.96,2.193-1.494,3.664-.789a4.986,4.986,0,0,0,5.695-.38c-1.8-2.116-4.293-1.9-6.2-2.85-2.129-1.067-4.22-2.621-3.361-5.421,1-3.249,3.671-4.547,6.928-4.568,2.572-.017,5.413.073,6.685,2.659.761,1.548-.406,3.175-2.362,2.138C479.116,421.238,477.2,420.833,474.672,422.276Z" transform="translate(572.169 226.186)" fill="#a293b3"/>
    <path id="Path_9050" data-name="Path 9050" d="M560.011,379.694c2.32,3.025-.832,4.5-1.9,6.535-.592,1.133-1.61,2.279-.079,3.258,1.088.695,1.823-.242,2.587-1.062,1.018-1.1,1.61-3.72,3.715-2.279,2.249,1.537-.224,2.886-.9,4.175-.637,1.208-1.323,2.375.158,3.207,1.137.639,1.907-.432,2.559-1.268.911-1.167,1.744-2.4,2.715-3.517a1.665,1.665,0,0,1,2.721-.088,1.566,1.566,0,0,1,.006,2.251c-1.907,2.542-3.856,5.056-5.676,7.657-.958,1.37-1.885,1.43-3.134.485-3.38-2.557-6.785-5.081-10.178-7.621-.919-.686-1.693-1.682-.793-2.632,2.813-2.965,3.675-7.766,8.371-8.949Z" transform="translate(664.945 183.049)" fill="#a293b3"/>
    <path id="Path_9051" data-name="Path 9051" d="M478.478,425.684c1.338-2.657-1.836-7.79,2.523-7.784,4.143.006,1.971,5.062,2,7.734.03,3,1.992,8.607-1.67,8.632C476.278,434.3,480.088,428.537,478.478,425.684Z" transform="translate(581.961 226.517)" fill="#a293b3"/>
    <path id="Path_9052" data-name="Path 9052" d="M264.269,425.385c2.557-1.888-.725-7.653,3.031-7.11,4.305.622,1.355,5.7,2.138,8.707a1.3,1.3,0,0,1,0,.635c-.616,2.411,1.672,6.054-2.3,7.008-3.683.885-4.075-2.98-5.74-4.957-.774-.919-.919-2.465-2.48-2.6-1.058.4-.78,1.342-.968,2.1-.468,1.862,1.063,5.242-1.92,5.193-3.328-.056-2.238-3.643-2.1-5.639.246-3.628-2.292-8.88,1.608-10.55,4.953-2.123,4.925,4.556,7.664,6.76A4.19,4.19,0,0,0,264.269,425.385Z" transform="translate(325.813 226.354)" fill="#a293b3"/>
    <path id="Path_9053" data-name="Path 9053" d="M271.386,425.811c0-1.492-.039-2.989.011-4.481s-.041-3.183,1.969-3.476c2.044-.3,2.565,1.124,2.578,2.773.017,2.279.84,3.621,3.361,3.589s3.277-1.46,3.328-3.69c.041-1.682.675-3.04,2.676-2.659,1.546.3,1.774,1.7,1.77,3.006-.011,3.628-.047,7.255-.158,10.879-.041,1.334-.507,2.614-2.106,2.717-1.717.109-2.08-1.193-2.127-2.54-.088-2.4-.693-4.149-3.643-4.09-2.683.056-3.081,1.738-3.16,3.824-.062,1.642-.528,3.149-2.544,2.813-1.9-.316-1.89-2.035-1.913-3.544-.026-1.706,0-3.414,0-5.122Z" transform="translate(346.325 226.407)" fill="#a293b3"/>
    <path id="Path_9054" data-name="Path 9054" d="M251.1,431.843c.25,2.035.152,2.963-.953,2.976a2.987,2.987,0,0,1-2.215-.752c-2.715-4.062-5.458-4.2-8.359-.28a2.082,2.082,0,0,1-2.724.885c-1.137-.552-1.088-1.714-.729-2.758,1.37-3.989,2.565-8.061,4.252-11.916,1.411-3.219,4.72-3.053,6.014-.7C248.689,423.5,249.841,428.326,251.1,431.843Z" transform="translate(305.959 226.124)" fill="#a293b3"/>
    <path id="Path_9055" data-name="Path 9055" d="M259.763,424.3c-.2,4.742-.009,9.791-6.571,10.456-3.134.319-6.319-.372-7.533-3.527a19.269,19.269,0,0,1-.413-12.478c.143-.487,1.368-.894,2.1-.913a1.6,1.6,0,0,1,1.6,1.642c.1,1.907.081,3.818.2,5.723.147,2.426-.663,5.877,3.018,5.913,4.057.041,3.269-3.6,3.427-6.249a23.458,23.458,0,0,1,.026-2.546c.293-1.661-.986-4.453,2.024-4.417,2.848.036,1.836,2.768,2.108,4.485A12.385,12.385,0,0,1,259.763,424.3Z" transform="translate(315.644 226.445)" fill="#a293b3"/>
    <path id="Path_9056" data-name="Path 9056" d="M270.242,435.077c-2.33-.6-5.7-.286-6.73-4.01-1.112-4.023-1.67-8.136,1.759-11.324,2.751-2.559,6.142-2.717,9.526-1.114,1.351.639,2.991,1.625,2.4,3.247-.609,1.67-2.21,1.676-3.662.5-2.012-1.629-3.906-1.507-5.464.641a5.369,5.369,0,0,0,.113,7.052c1.642,2.05,3.538,2.1,5.473.3,1.075-1,2.307-1.4,3.151.094.776,1.372-.244,2.443-1.278,3.2A7.956,7.956,0,0,1,270.242,435.077Z" transform="translate(336.413 226.163)" fill="#a293b3"/>
    <path id="Path_9057" data-name="Path 9057" d="M228.779,425.424c.956-2.223-1.984-7.341,2.187-7.431,4.423-.1,2.206,5.011,2.238,7.7.047,3.959,1.015,6.039,5.323,5.6.928-.1,2.33-.171,2.454,1.287.154,1.787-1.317,1.759-2.557,1.982C230.241,436.017,228.823,434.756,228.779,425.424Z" transform="translate(297.721 226.623)" fill="#a293b3"/>
    <path id="Path_9058" data-name="Path 9058" d="M636.223,426.213c0,1.272.09,2.555-.024,3.818-.139,1.582.682,3.841-1.537,4.346-2.9.661-2.736-1.862-3-3.683-.242-1.68-1-2.7-2.83-2.773a3.06,3.06,0,0,0-3.564,2.788c-.293,1.567.017,3.987-2.386,3.724-2.755-.3-1.8-2.927-1.9-4.65-.158-2.963-.077-5.941-.028-8.912.019-1.261.045-2.691,1.674-3.006,1.584-.306,2.349.7,2.531,2.118.284,2.225.626,4.248,3.632,4.143,2.749-.094,2.762-2.063,3.018-3.98.186-1.387.866-2.433,2.448-2.332,2.166.139,1.958,1.864,2.014,3.3.066,1.7.015,3.395.015,5.094Z" transform="translate(743.998 226.412)" fill="#a293b3"/>
    <path id="Path_9059" data-name="Path 9059" d="M613.437,426.984c2.64-3.036-.761-8.81,2.912-8.5,3.953.331,1.231,5.667,1.866,8.728a16.213,16.213,0,0,1,.009,3.822c-.056,1.454.205,3.132-1.759,3.621s-3.113-.6-4.192-2.118c-1.533-2.161-2.05-5.116-4.686-6.473-2.379,2.467,1.095,8.292-2.559,7.944-3.741-.355-1.227-5.721-1.839-8.818a16.791,16.791,0,0,1-.03-3.822c.058-1.462-.13-3.115,1.885-3.527a3.4,3.4,0,0,1,3.835,1.631C610.34,421.8,611.74,424.177,613.437,426.984Z" transform="translate(723.548 226.339)" fill="#a293b3"/>
    <path id="Path_9060" data-name="Path 9060" d="M609.3,424.362c-.165,7.737-2.907,11.044-8.72,10.4-2.9-.325-5.528-1.409-6.332-4.481a20.275,20.275,0,0,1,.319-11.751c.139-.411,1.449-.631,2.193-.581,1.009.068,1.283,1.041,1.325,1.89.094,1.907.07,3.818.111,5.727.056,2.559-.2,5.646,3.465,5.573,3.2-.064,3.093-2.9,3.138-5.267.024-1.274-.081-2.555.021-3.82.141-1.753-.635-4.34,2.375-4.192,2.339.113,1.995,2.317,2.1,3.961C609.343,422.66,609.3,423.513,609.3,424.362Z" transform="translate(712.859 226.458)" fill="#a293b3"/>
    <path id="Path_9061" data-name="Path 9061" d="M598.92,434.976c-.4-.239-1.323-.492-1.759-1.1-2.971-4.115-5.7-3.615-8.465.207a2.011,2.011,0,0,1-2.839.532c-1.219-.806-.408-1.928-.1-2.86,1.259-3.846,2.625-7.653,3.88-11.5,1.272-3.906,4.893-2.984,5.834-1.259,2.411,4.421,3.726,9.449,5.353,14.278C601.113,434.153,600.339,434.809,598.92,434.976Z" transform="translate(703.391 226.082)" fill="#a293b3"/>
    <path id="Path_9062" data-name="Path 9062" d="M620.165,435.124c-3.373-.2-6.443-1.567-7.508-4.848-1.118-3.446-1.193-7.234,1.71-10.2a8.04,8.04,0,0,1,8.848-1.924c1.734.588,4.224,1.5,3.395,3.777-.793,2.176-2.649.992-4.177.009-1.907-1.225-3.865-.829-4.925,1.15a7.057,7.057,0,0,0,.006,6.77,3.208,3.208,0,0,0,4.4,1.43c1.563-.663,3.5-3.45,4.575-.661s-2.281,3.435-4.346,4.3A7.033,7.033,0,0,1,620.165,435.124Z" transform="translate(733.807 226.171)" fill="#a293b3"/>
    <path id="Path_9063" data-name="Path 9063" d="M584.553,434.634c-4.763,1.03-7.076-1.156-6.458-6.552.12-1.05-.165-2.161.036-3.187.485-2.463-1.637-6.811,2.1-6.937,4.164-.139,1.89,4.254,2.208,6.621.436,3.234-.836,7.264,4.831,6.732,1.308-.122,3.553-.588,3.649,1.349.126,2.544-2.339,1.738-3.871,1.96A21.515,21.515,0,0,1,584.553,434.634Z" transform="translate(695.149 226.579)" fill="#a293b3"/>
    <path id="Path_9064" data-name="Path 9064" d="M373.207,426.8c2.638-3.54-.59-8.765,3.788-8.412,3.457.278,1.321,5.058,1.836,7.8a11.207,11.207,0,0,1,0,3.2c-.207,1.995.723,4.628-2.114,5.413-2.954.817-4.083-1.554-5.287-3.611-.851-1.454-1.766-2.873-2.632-4.276-.605.274-1.116.336-1.244.59-1.135,2.26,1.274,6.922-2.461,6.772-3.365-.133-1.969-4.579-1.877-7.065.118-3.17-2.033-7.85,1.924-9.194,4.767-1.618,5.073,3.983,7.151,6.61A10.332,10.332,0,0,1,373.207,426.8Z" transform="translate(450.28 226.321)" fill="#a293b3"/>
    <path id="Path_9065" data-name="Path 9065" d="M369.808,432.45c-.244,3.239-2.228,3.482-3.452,2.131-3.074-3.393-5.7-4.087-8.765-.158a1.918,1.918,0,0,1-2.837.154,2.474,2.474,0,0,1-.515-2.922c1.276-3.812,2.377-7.709,4.015-11.362,1.479-3.3,4.774-3.771,6.447-.9C367.115,423.522,368.286,428.379,369.808,432.45Z" transform="translate(440.333 226.062)" fill="#a293b3"/>
    <path id="Path_9066" data-name="Path 9066" d="M338.385,426.494c-.173-8.361,3.311-10.924,10.52-7.925,2.17.9,3.51,2.326,3.634,4.739.139,2.666-1,4.7-3.532,5.411-2.888.814-5.894,1.075-6.283,5.024-.115,1.169-1.31,1.646-2.471,1.424a2.263,2.263,0,0,1-1.843-2.294C338.323,430.75,338.385,428.621,338.385,426.494Z" transform="translate(422.547 225.904)" fill="#a293b3"/>
    <path id="Path_9067" data-name="Path 9067" d="M346.7,425.7a10.73,10.73,0,0,1,.017-1.909c.385-2.106-1.1-5.7,2.022-5.819,3.384-.133,2.176,3.529,2.157,5.556-.041,4.374-.1,8.341,6.093,7.683a1.78,1.78,0,0,1,2.168,1.772c-.051,1.242-1.178,1.535-2.245,1.823C349.347,436.852,346.7,434.509,346.7,425.7Z" transform="translate(431.986 226.597)" fill="#a293b3"/>
    <path id="Path_9068" data-name="Path 9068" d="M19.166,427.283c-2.208,2.7.22,7.208-3.322,7-3.213-.192-2.024-4.233-1.86-6.5.244-3.361-2.187-8.168,2.054-9.769,4.359-1.646,4.008,4.639,6.98,6.073.319-.216.772-.363.951-.669,1.071-1.817-.708-5.62,2.809-5.5,3.839.128,2.422,3.769,2.668,6.067a34.665,34.665,0,0,1,0,5.75c-.12,2.027.487,4.545-2.456,5.176-2.664.571-3.724-1.477-4.891-3.284C21.216,430.258,20.28,428.929,19.166,427.283Z" transform="translate(52.942 226.331)" fill="#a293b3"/>
    <path id="Path_9069" data-name="Path 9069" d="M-11.286,426.982c-.038-9.235,2.217-11.02,10.214-8.581,2.944.9,4.406,2.7,4.453,5.441.049,2.877-1.685,4.675-4.6,5.3-1.753.376-4.092-.319-4.823,2.215-.517,1.783-.438,4.4-3.224,3.671-2.738-.723-1.787-3.474-2-5.481C-11.354,428.7-11.279,427.838-11.286,426.982Z" transform="translate(24.706 225.962)" fill="#a293b3"/>
    <path id="Path_9070" data-name="Path 9070" d="M20.483,432.581c-.186.494-.263,1.454-.782,1.918a1.957,1.957,0,0,1-2.847-.306c-2.711-3.076-5.336-4.282-8.26-.214a2.324,2.324,0,0,1-3.4.6c-1.3-.958-.688-2.249-.233-3.47,1.347-3.589,2.653-7.2,3.972-10.8a3.561,3.561,0,0,1,3.237-2.651,3.6,3.6,0,0,1,4.017,2.475C17.638,424.139,18.972,428.181,20.483,432.581Z" transform="translate(42.597 226.226)" fill="#a293b3"/>
    <path id="Path_9071" data-name="Path 9071" d="M5.048,435.356c-2.892-.543-6.6,1-7.194-2.937-.688-4.553-1.62-9.44.7-13.718.992-1.83,3.213-.983,3.587,1.216a47.148,47.148,0,0,1,.306,6.986c.043,2.307.423,4.166,3.341,4.444,1.706.16,4.833-.714,4.645,1.806C10.182,436.54,6.625,434.437,5.048,435.356Z" transform="translate(34.244 226.292)" fill="#a293b3"/>
    <path id="Path_9072" data-name="Path 9072" d="M228.564,358.179c-.547,3.025-2.666,3.1-4.9,2.9-2.555-.231-4.78-1.167-4.756-4.1.024-2.758,2.044-3.536,4.476-3.166C226.006,354.208,228.479,354.917,228.564,358.179Z" transform="translate(286.633 153.501)" fill="#252c73"/>
    <path id="Path_9073" data-name="Path 9073" d="M547.171,268.552c.665,2.264,2.884,3.914,2.73,7.027-3.78-.4-3.844-3.222-4.355-5.686Z" transform="translate(658.268 56.597)" fill="#252c73"/>
    <path id="Path_9074" data-name="Path 9074" d="M548.818,269.334c-.652-1.419-.15-1.823,1.259-1.426Z" transform="translate(661.67 55.699)" fill="#252c73"/>
    <path id="Path_9075" data-name="Path 9075" d="M578.243,357.75c-.4,2.621-2.069,3.643-4.513,3.408-2.6-.25-5.287-.673-5.584-4.038-.22-2.505,1.561-3.485,3.643-3.412C574.6,353.806,577.382,354.36,578.243,357.75Z" transform="translate(683.961 153.479)" fill="#252c73"/>
    <path id="Path_9076" data-name="Path 9076" d="M574.618,347.536c-.286,1.753-.68,2.959-2.409,2.683-1.355-.218-2.431-.793-2.056-2.486.286-1.3.836-2.555,2.362-2.471C574.021,345.344,574.451,346.6,574.618,347.536Z" transform="translate(686.178 143.868)" fill="#252c73"/>
    <path id="Path_9077" data-name="Path 9077" d="M62.16,373.024c.8-.1,1.982-.562,2.322-.212.849.876-.466,1.2-.876,1.757Z" transform="translate(108.295 175.073)" fill="#311b53"/>
    <path id="Path_9078" data-name="Path 9078" d="M92.663,256.747c2.818,1.251,3.854,4.149,5.15,6.6,1,1.879-.921,2.488-2.4,2.7-3.574.507-4.795-2.191-5.665-4.763C89.02,259.137,90.651,257.844,92.663,256.747Z" transform="translate(139.482 43.166)" fill="#311b53"/>
    <path id="Path_9079" data-name="Path 9079" d="M68.569,282.038c2.463.637,4.93,2.056,5.342,5.017a3.112,3.112,0,0,1-3.538,3.47c-2.867-.524-5.86-1.871-6.013-5.411C64.266,282.942,65.965,281.859,68.569,282.038Z" transform="translate(110.794 71.919)" fill="#311b53"/>
    <path id="Path_9080" data-name="Path 9080" d="M411.357,373.275a2.383,2.383,0,0,1,2.732-.342q-.612.885-1.225,1.774Z" transform="translate(505.594 175.014)" fill="#311b53"/>
    <path id="Path_9081" data-name="Path 9081" d="M447.261,263.122c.207,2.356-1.351,2.732-2.79,2.8-3.4.169-4.836-2.172-5.4-5.009-.425-2.133,1.054-4.359,2.867-3.993C444.986,257.539,445.538,261.13,447.261,263.122Z" transform="translate(537.045 43.323)" fill="#311b53"/>
    <path id="Path_9082" data-name="Path 9082" d="M423.273,287.279c-.646,2.1-1.749,3.929-4.023,3.23-2.617-.806-5.532-2.1-5.6-5.387-.041-2.108,1.719-3.459,4.015-3.048C420.61,282.6,422.7,284.209,423.273,287.279Z" transform="translate(508.206 71.897)" fill="#311b53"/>
    <path id="Path_9083" data-name="Path 9083" d="M106.09,424.02c.5-1.915-.994-4.964,2.73-4.615,3.046.286,3.529,2.753,3.517,5.2-.013,2.589-1.086,4.947-3.98,4.761C104.485,429.114,106.99,425.709,106.09,424.02Z" transform="translate(158.277 228.198)" fill="#311b53"/>
    <path id="Path_9084" data-name="Path 9084" d="M202.493,389.175c2.989.381,5.223,1.922,5.763,4.925.355,1.967-1.013,4.566-2.841,3.972a9.847,9.847,0,0,1-6.18-5.9C198.558,390.158,200.781,389.577,202.493,389.175Z" transform="translate(264.111 193.836)" fill="#252c73"/>
    <path id="Path_9085" data-name="Path 9085" d="M457.982,419.353c2.892.346,3.925,2.116,4,4.818.083,2.989-1.037,5.3-4.167,5.225-3.867-.092-2.063-3.425-2.193-5.334C455.5,422.3,454.419,419.481,457.982,419.353Z" transform="translate(555.606 228.171)" fill="#311b53"/>
    <path id="Path_9086" data-name="Path 9086" d="M557.446,394.348c-.293,1.779-.7,4.276-2.552,3.6-2.82-1.022-5.789-2.961-6.411-6.208-.342-1.789,1.851-2.659,3.63-2.488A5.558,5.558,0,0,1,557.446,394.348Z" transform="translate(661.569 193.904)" fill="#252c73"/>
  </g>
</svg>
