<svg xmlns="http://www.w3.org/2000/svg" xmlns:xlink="http://www.w3.org/1999/xlink" width="699.897" height="770.11" viewBox="0 0 699.897 770.11">
  <defs>
    <linearGradient id="linear-gradient" x1="1" y1="0.5" x2="0" y2="0.5" gradientUnits="objectBoundingBox">
      <stop offset="0" stop-color="#e1dcd8"/>
      <stop offset="1" stop-color="#fbf6f0"/>
    </linearGradient>
    <linearGradient id="linear-gradient-3" x1="0.78" y1="0.241" x2="0.22" y2="0.759" gradientUnits="objectBoundingBox">
      <stop offset="0" stop-color="#fffdff"/>
      <stop offset="0.136" stop-color="#fbf9fb"/>
      <stop offset="0.263" stop-color="#f0eef0"/>
      <stop offset="0.387" stop-color="#dddbdd"/>
      <stop offset="0.508" stop-color="#c2c1c2"/>
      <stop offset="0.627" stop-color="#a09fa0"/>
      <stop offset="0.746" stop-color="#767576"/>
      <stop offset="0.863" stop-color="#444"/>
      <stop offset="0.977" stop-color="#0c0c0c"/>
      <stop offset="1"/>
    </linearGradient>
  </defs>
  <g id="_16" data-name="16" transform="translate(-36.792 -122.271)">
    <g id="Group_8165" data-name="Group 8165" transform="translate(36.792 285.762)">
      <path id="Path_18720" data-name="Path 18720" d="M200.753,331.894c24.549,11.54-41.047,55.27,44.536,55.27,114.615,0,207.531-48.037,207.531-107.294S359.9,172.576,245.289,172.576c-57.247,0-121.407,10.513-168.825,44.879-16.09,11.651-31.086,27.2-36.541,46.823-3.677,13.229-1.9,18.144,9.177,21.975,1.557.541,10.182,1.016,20.308,1.392a191.3,191.3,0,0,1,72.53,17.172C166.851,316.223,190.935,327.278,200.753,331.894Z" transform="translate(231.65 219.455)" fill="#646069" opacity="0.3" style="mix-blend-mode: multiply;isolation: isolate"/>
      <g id="_2" data-name="2" transform="translate(210.969 59.607)">
        <g id="Group_8149" data-name="Group 8149" transform="translate(0 383.343)">
          <g id="Group_8148" data-name="Group 8148">
            <path id="Path_18721" data-name="Path 18721" d="M86.043,195.827c10.027-6.162,26.084-13.461,39.2-18.641,9.574,10.259,16.752,19.855,26.183,30.291-46.889,25.167-68.213,34.554-79.543,18.088C65.227,212.16,73.763,203.37,86.043,195.827Z" transform="translate(-69.559 -177.187)" fill="#d29c5f"/>
            <path id="Path_18722" data-name="Path 18722" d="M91.224,193.373a251.684,251.684,0,0,1,36.663-15.7c7.366,7.73,14.809,15.383,21.987,23.312,3.092,3.434,6.107,6.924,9.133,10.413-13.782,7.5-27.718,8.083-38.109,12.346-26.547,10.888-39.865,9.729-49.859-.663C62.745,214.465,78.448,199.889,91.224,193.373Z" transform="translate(-67.916 -172.336)" fill="#f8f3ed"/>
          </g>
        </g>
        <path id="Path_18723" data-name="Path 18723" d="M205.633,167.958c1.645-1.027,24.217,11.175,34.123,28.115,14.179,24.284,14.345,51.35,12.457,54.033-2.761,3.942-89.5,21.379-128.828,29.739L57.413,224.73C71.648,211.467,183.558,181.7,205.633,167.958Z" transform="translate(-37.064 112.862)" fill="#3a3338"/>
        <path id="Path_18724" data-name="Path 18724" d="M83.336,172.742c30.147,6.129,69.35,20.562,101.96,48.081a822.587,822.587,0,0,0,80.813,60.35s-21.313,42.449-29.419,40.848C158.937,275.277,51.775,244.135,57.728,200.67,61.416,173.659,80.266,172.113,83.336,172.742Z" transform="translate(-50.961 160.51)" fill="#3a3338"/>
        <g id="Group_8150" data-name="Group 8150" transform="translate(167.039 457.309)">
          <path id="Path_18725" data-name="Path 18725" d="M115.963,202.029A324.4,324.4,0,0,1,94.727,255.4c-4.958,10.049-14.665,18.707-27.95,9.961-19.933-13.119-9.7-36.939,19.59-81.475C96.108,190.124,106.08,196,115.963,202.029Z" transform="translate(-56.458 -183.885)" fill="#f8f3ed"/>
          <path id="Path_18726" data-name="Path 18726" d="M115.458,196.291c-7.763,16.686-19.933,36.519-26.967,50.743-3.291,6.659-7.929,12.313-14.179,15.107-6.9,3.092-15.67.232-17.89-7-4.009-13.108,6.67-36.21,29.12-70.664C95.039,190.284,106.049,190.306,115.458,196.291Z" transform="translate(-46.412 -177.959)" fill="#d29c5f"/>
        </g>
        <path id="Path_18727" data-name="Path 18727" d="M231.871,287.745c3.512,65.927-23.246,75.7-34.344,77.687-27.409,4.925-69.107-30.534-98.018-56.209-27.354-24.272-36.663-39.214-49.141-50,25.288,1.126,81.829,8.227,90.089,8.978,0,0-6.537-89.956,5.93-96.77,3.136-1.7,6.88-1.767,10.447-1.734a331.528,331.528,0,0,1,36.254,2.352c7.785.928,35.293,1.833,35.293,1.833-.861,6.239.2,28.281.375,32.19C229.4,220.3,230.668,265.327,231.871,287.745Z" transform="translate(61.605 130.859)" fill="#3a3338"/>
        <g id="Group_8151" data-name="Group 8151" transform="translate(107.975 50.703)">
          <path id="Path_18728" data-name="Path 18728" d="M91.016,212.087c1.645-13.572,4.7-49.153,4.7-49.153s3.953-9.773,9.033-6.5c14.179,9.1,28.524,17.6,44.382,21.534-7.465,22.594-15.03,43.432-19.082,54.42-2.209,5.985-42.935,80.007-44.316,86.831l-26.7-12.192C62.393,304.594,90.718,214.594,91.016,212.087Z" transform="translate(-59.036 -59.724)" fill="#fbbd9e"/>
          <path id="Path_18729" data-name="Path 18729" d="M127.541,284.431c-4.583,16.167-68.213.375-70.51-13.141.342-27.773,25.962-131.555,62.57-123.814C119.6,147.476,167.086,149.243,127.541,284.431Z" transform="translate(-31.036 -147.065)" fill="#a780bc"/>
        </g>
        <path id="Path_18730" data-name="Path 18730" d="M202.756,202.64c24.074,29.9-5.212,75.534-12.744,101.651-8.249,28.646-5.113,49.1-4.02,81.7,1.612,48.181-157.727,20.518-129.1-32.643,3.523-6.538,7.068-13.075,9.033-20.242,3.81-13.87-8.072-62.393-16.863-118.525a75.059,75.059,0,0,1-.817-14.764c.276-6.615.6-11.6,1.977-17.393,2.1-8.824,17.6-29.739,26.117-32.864C105.1,138.988,193.358,190.967,202.756,202.64Z" transform="translate(105.959 -85.488)" fill="#a780bc"/>
        <path id="Path_18731" data-name="Path 18731" d="M61.238,228.4a18.559,18.559,0,0,0,11.915,8.691c9.409,2.3,19.27,1.513,27.3-3.357,11.175-6.791,20.606-19.734,18.906-37.281a8.264,8.264,0,0,0-2.352-4.969c-6.074-6.118-13.23-16.487-17.481-37.414a8.814,8.814,0,0,0-14.135-5.234c-17.7,13.925-31.517,41.047-31.373,52.752C54.082,206.365,56.3,219.594,61.238,228.4Z" transform="translate(133.966 -97.904)" fill="#f2a883"/>
        <g id="Group_8157" data-name="Group 8157" transform="translate(39.03 110.146)">
          <g id="Group_8156" data-name="Group 8156" transform="translate(0 199.168)">
            <g id="Group_8152" data-name="Group 8152" style="isolation: isolate">
              <path id="Path_18732" data-name="Path 18732" d="M265.631,195.734v3.335a1.874,1.874,0,0,1-1.1,1.546l-84.4,48.733a5.85,5.85,0,0,1-5.312,0L55.394,179.943A1.86,1.86,0,0,1,54.3,178.43v-3.335Z" transform="translate(-54.297 -124.167)" fill="#c5c1c0"/>
              <path id="Path_18733" data-name="Path 18733" d="M55.41,219.854l84.413-48.733a5.827,5.827,0,0,1,5.3,0l119.419,69.394c1.458.85,1.458,2.231-.011,3.081l-84.413,48.733a5.849,5.849,0,0,1-5.312,0L55.388,222.924C53.93,222.084,53.941,220.7,55.41,219.854Z" transform="translate(-54.301 -170.483)" fill="url(#linear-gradient)"/>
            </g>
            <path id="Path_18734" data-name="Path 18734" d="M59.246,190.174l39.4,22.749a3.556,3.556,0,0,0,3.2,0l26.106-15.074a.981.981,0,0,0,0-1.855l-39.39-22.738a3.488,3.488,0,0,0-3.2,0L59.246,188.33A.973.973,0,0,0,59.246,190.174Z" transform="translate(35.43 -146.546)" fill="#d8d4d3" opacity="0.3" style="mix-blend-mode: multiply;isolation: isolate"/>
            <path id="Path_18735" data-name="Path 18735" d="M196.007,237.812l5.312,3.059a2.059,2.059,0,0,0,1.866,0l4.472-2.573a.571.571,0,0,0,0-1.082l-5.312-3.059a2.059,2.059,0,0,0-1.866,0l-4.472,2.573A.575.575,0,0,0,196.007,237.812Zm-8.569-6.029,4.472-2.584a2.06,2.06,0,0,1,1.866,0l5.312,3.07a.575.575,0,0,1,0,1.082l-4.472,2.573a2.06,2.06,0,0,1-1.866,0l-5.312-3.07C186.918,232.556,186.918,232.081,187.437,231.783Zm-8.569-4.947,4.461-2.584a2.059,2.059,0,0,1,1.866,0l5.312,3.07a.571.571,0,0,1,0,1.082l-4.461,2.573a2.059,2.059,0,0,1-1.866,0l-5.312-3.07C178.349,227.609,178.349,227.134,178.868,226.836Zm-8.569-4.958,4.461-2.573a2.06,2.06,0,0,1,1.866,0l5.312,3.07c.519.3.519.773,0,1.071l-4.461,2.584a2.083,2.083,0,0,1-1.877,0l-5.3-3.07A.571.571,0,0,1,170.3,221.877Zm-8.58-4.947,4.472-2.573a2.059,2.059,0,0,1,1.866,0l5.312,3.059a.575.575,0,0,1,0,1.082l-4.472,2.573a2.059,2.059,0,0,1-1.866,0l-5.312-3.059A.575.575,0,0,1,161.718,216.93Zm-8.569-4.947,4.461-2.573a2.081,2.081,0,0,1,1.877,0l5.3,3.059a.571.571,0,0,1,0,1.082l-4.461,2.573a2.06,2.06,0,0,1-1.866,0l-5.312-3.059A.571.571,0,0,1,153.149,211.983Zm-8.569-4.947,4.461-2.584a2.059,2.059,0,0,1,1.866,0l5.312,3.07a.571.571,0,0,1,0,1.082l-4.461,2.573a2.059,2.059,0,0,1-1.866,0l-5.312-3.07C144.06,207.808,144.06,207.334,144.579,207.035ZM136,202.088l4.472-2.584a2.059,2.059,0,0,1,1.866,0l5.312,3.07a.571.571,0,0,1,0,1.082l-4.472,2.573a2.06,2.06,0,0,1-1.866,0L136,203.159A.567.567,0,0,1,136,202.088Zm-8.569-4.958,4.473-2.573a2.058,2.058,0,0,1,1.866,0l5.3,3.07c.519.3.519.773,0,1.071l-4.461,2.584a2.058,2.058,0,0,1-1.866,0l-5.312-3.07A.571.571,0,0,1,127.43,197.13Zm-11.33-6.537,4.461-2.584a2.059,2.059,0,0,1,1.866,0l8.072,4.66a.571.571,0,0,1,0,1.082l-4.461,2.573a2.06,2.06,0,0,1-1.866,0l-8.072-4.66C115.58,191.376,115.58,190.891,116.1,190.592Zm-32.2,8.558,4.461-2.584a2.058,2.058,0,0,1,1.866,0l5.312,3.07c.519.3.519.784,0,1.071l-4.461,2.584a2.059,2.059,0,0,1-1.866,0l-5.312-3.07C83.379,199.924,83.379,199.449,83.9,199.151Zm-8.58-4.947,4.472-2.584a2.059,2.059,0,0,1,1.866,0l5.312,3.07c.519.3.519.773,0,1.071l-4.461,2.584a2.082,2.082,0,0,1-1.877,0l-5.312-3.07A.567.567,0,0,1,75.318,194.2Zm-8.569-4.958,4.472-2.573a2.06,2.06,0,0,1,1.866,0l5.312,3.059a.575.575,0,0,1,0,1.082L73.926,193.4a2.06,2.06,0,0,1-1.866,0l-5.312-3.07A.575.575,0,0,1,66.748,189.245Zm9.309,14.422,4.472-2.573a2.06,2.06,0,0,1,1.866,0l5.3,3.07c.519.3.519.773,0,1.071l-4.461,2.584a2.06,2.06,0,0,1-1.866,0l-5.312-3.07A.571.571,0,0,1,76.058,203.667Zm-8.569-4.947,4.461-2.573a2.059,2.059,0,0,1,1.866,0l5.312,3.059a.571.571,0,0,1,0,1.082l-4.461,2.584a2.059,2.059,0,0,1-1.866,0l-5.312-3.07A.571.571,0,0,1,67.488,198.72Zm-8.58-4.947L63.38,191.2a2.06,2.06,0,0,1,1.866,0l5.312,3.059a.571.571,0,0,1,0,1.082l-4.473,2.573a2.06,2.06,0,0,1-1.866,0l-5.312-3.059A.575.575,0,0,1,58.908,193.773Zm126.354,45.839,4.472-2.573a2.058,2.058,0,0,1,1.866,0l8.072,4.66c.519.3.519.773,0,1.071l-4.472,2.584a2.059,2.059,0,0,1-1.866,0l-8.072-4.66A.575.575,0,0,1,185.262,239.612Zm-8.569-4.947,4.461-2.584a2.083,2.083,0,0,1,1.877,0l5.3,3.07a.571.571,0,0,1,0,1.082l-4.461,2.573a2.06,2.06,0,0,1-1.866,0l-5.312-3.07C176.174,235.438,176.174,234.963,176.692,234.665Zm-8.569-4.958,4.461-2.573a2.059,2.059,0,0,1,1.866,0l5.312,3.07c.519.3.519.773,0,1.071l-4.461,2.584a2.082,2.082,0,0,1-1.877,0l-5.3-3.07A.571.571,0,0,1,168.123,229.707Zm-8.58-4.947,4.472-2.573a2.059,2.059,0,0,1,1.866,0l5.312,3.07a.567.567,0,0,1,0,1.071l-4.472,2.584a2.058,2.058,0,0,1-1.866,0l-5.312-3.07A.575.575,0,0,1,159.543,224.759Zm-8.569-4.947,4.461-2.573a2.082,2.082,0,0,1,1.877,0l5.3,3.059a.571.571,0,0,1,0,1.082l-4.461,2.573a2.059,2.059,0,0,1-1.866,0l-5.312-3.059A.571.571,0,0,1,150.973,219.812Zm-8.569-4.947,4.461-2.573a2.058,2.058,0,0,1,1.866,0l5.312,3.059a.571.571,0,0,1,0,1.082l-4.461,2.573a2.06,2.06,0,0,1-1.866,0l-5.312-3.059A.571.571,0,0,1,142.4,214.865Zm-8.58-4.947,4.472-2.584a2.059,2.059,0,0,1,1.866,0l5.312,3.07a.571.571,0,0,1,0,1.082l-4.461,2.573a2.082,2.082,0,0,1-1.877,0l-5.312-3.07A.567.567,0,0,1,133.824,209.918Zm-8.569-4.958,4.472-2.573a2.059,2.059,0,0,1,1.866,0l5.312,3.07a.567.567,0,0,1,0,1.071l-4.472,2.584a2.058,2.058,0,0,1-1.866,0l-5.312-3.07A.575.575,0,0,1,125.254,204.959Zm-8.569-4.947,4.461-2.573a2.059,2.059,0,0,1,1.866,0l5.312,3.07c.519.3.519.773,0,1.071l-4.461,2.584a2.058,2.058,0,0,1-1.866,0l-5.312-3.07A.571.571,0,0,1,116.685,200.012Zm-8.569-4.947,4.461-2.573a2.058,2.058,0,0,1,1.866,0l5.312,3.059a.571.571,0,0,1,0,1.082l-4.461,2.573a2.082,2.082,0,0,1-1.877,0l-5.3-3.059A.571.571,0,0,1,108.116,195.065Zm72.321,50.654,4.461-2.573a2.059,2.059,0,0,1,1.866,0l5.312,3.07c.519.3.519.773,0,1.071l-4.461,2.584a2.059,2.059,0,0,1-1.866,0l-5.312-3.07A.571.571,0,0,1,180.436,245.719Zm-8.569-4.947,4.461-2.573a2.06,2.06,0,0,1,1.866,0l5.312,3.07c.519.287.519.773,0,1.071l-4.461,2.584a2.083,2.083,0,0,1-1.877,0l-5.3-3.07A.571.571,0,0,1,171.867,240.772Zm-8.58-4.947,4.472-2.573a2.059,2.059,0,0,1,1.866,0l5.312,3.059a.575.575,0,0,1,0,1.082l-4.472,2.573a2.059,2.059,0,0,1-1.866,0l-5.312-3.059A.571.571,0,0,1,163.286,235.825Zm-8.569-4.947,4.461-2.584a2.131,2.131,0,0,1,1.866,0l5.312,3.07a.571.571,0,0,1,0,1.082l-4.461,2.573a2.06,2.06,0,0,1-1.866,0l-5.312-3.059A.571.571,0,0,1,154.717,230.877Zm10.171,23.82,4.472-2.573a2.06,2.06,0,0,1,1.866,0l5.3,3.059a.571.571,0,0,1,0,1.082l-4.461,2.584a2.13,2.13,0,0,1-1.866,0l-5.312-3.07A.571.571,0,0,1,164.888,254.7Zm-8.569-4.947,4.461-2.573a2.059,2.059,0,0,1,1.866,0l5.312,3.059a.571.571,0,0,1,0,1.082l-4.461,2.573a2.059,2.059,0,0,1-1.866,0l-5.312-3.059A.571.571,0,0,1,156.318,249.75Zm-8.58-4.947,4.472-2.584a2.06,2.06,0,0,1,1.866,0l5.312,3.07a.571.571,0,0,1,0,1.082l-4.461,2.573a2.083,2.083,0,0,1-1.877,0l-5.312-3.07A.567.567,0,0,1,147.738,244.8Zm-8.569-4.947,4.472-2.584a2.059,2.059,0,0,1,1.866,0l5.312,3.07a.575.575,0,0,1,0,1.082L146.346,244a2.059,2.059,0,0,1-1.866,0l-5.312-3.07A.567.567,0,0,1,139.168,239.855ZM85.024,208.592l4.461-2.584a2.058,2.058,0,0,1,1.866,0l8.072,4.66a.571.571,0,0,1,0,1.082l-4.461,2.573a2.058,2.058,0,0,1-1.866,0l-8.073-4.66C84.506,209.366,84.506,208.891,85.024,208.592Zm61.123,17.338,4.461-2.584a2.059,2.059,0,0,1,1.866,0l5.312,3.07c.519.3.519.784,0,1.071l-4.461,2.584a2.059,2.059,0,0,1-1.866,0L146.148,227C145.629,226.7,145.629,226.228,146.148,225.93Zm-8.58-4.958,4.472-2.573a2.06,2.06,0,0,1,1.866,0l5.312,3.07c.519.3.519.773,0,1.071l-4.472,2.584a2.06,2.06,0,0,1-1.866,0l-5.312-3.07A.575.575,0,0,1,137.567,220.972ZM129,216.024l4.472-2.573a2.059,2.059,0,0,1,1.866,0l5.3,3.07c.519.287.519.773,0,1.071l-4.461,2.584a2.058,2.058,0,0,1-1.866,0L129,217.107A.571.571,0,0,1,129,216.024Zm-8.569-4.947,4.461-2.573a2.058,2.058,0,0,1,1.866,0l5.312,3.059a.571.571,0,0,1,0,1.082l-4.461,2.573a2.06,2.06,0,0,1-1.866,0l-5.312-3.059A.571.571,0,0,1,120.428,211.077Zm-8.58-4.947,4.472-2.584a2.129,2.129,0,0,1,1.866,0l5.312,3.07a.571.571,0,0,1,0,1.082l-4.461,2.573a2.082,2.082,0,0,1-1.877,0l-5.312-3.059A.575.575,0,0,1,111.848,206.13Zm-11.33-6.549,4.461-2.573a2.081,2.081,0,0,1,1.877,0l8.072,4.66a.567.567,0,0,1,0,1.071l-4.472,2.584a2.06,2.06,0,0,1-1.866,0l-8.072-4.66A.571.571,0,0,1,100.518,199.581Zm69.173,49.02,4.461-2.573a2.059,2.059,0,0,1,1.866,0l8.072,4.66a.571.571,0,0,1,0,1.082l-4.461,2.573a2.059,2.059,0,0,1-1.866,0l-8.072-4.66A.571.571,0,0,1,169.691,248.6Zm-8.58-4.947,4.472-2.573a2.059,2.059,0,0,1,1.866,0l5.312,3.059a.575.575,0,0,1,0,1.082l-4.472,2.573a2.06,2.06,0,0,1-1.866,0l-5.312-3.059A.575.575,0,0,1,161.111,243.654Zm-8.569-4.947L157,236.123a2.13,2.13,0,0,1,1.866,0l5.312,3.07a.571.571,0,0,1,0,1.082l-4.461,2.573a2.059,2.059,0,0,1-1.866,0l-5.312-3.059A.571.571,0,0,1,152.541,238.707Zm-8.569-4.947,4.461-2.584a2.06,2.06,0,0,1,1.866,0l5.312,3.07a.571.571,0,0,1,0,1.082L151.15,237.9a2.083,2.083,0,0,1-1.877,0l-5.3-3.07C143.453,234.532,143.453,234.058,143.972,233.759Zm-8.58-4.947,4.473-2.584a2.059,2.059,0,0,1,1.866,0l5.312,3.07a.567.567,0,0,1,0,1.071l-4.472,2.584a2.059,2.059,0,0,1-1.866,0l-5.312-3.07A.567.567,0,0,1,135.392,228.812Zm-8.569-4.958,4.472-2.573a2.059,2.059,0,0,1,1.866,0l5.3,3.059a.571.571,0,0,1,0,1.082L134,228.006a2.06,2.06,0,0,1-1.866,0l-5.312-3.07A.571.571,0,0,1,126.822,223.854Zm-8.569-4.947,4.461-2.573a2.058,2.058,0,0,1,1.866,0l5.312,3.059a.571.571,0,0,1,0,1.082l-4.461,2.573a2.059,2.059,0,0,1-1.866,0l-5.312-3.059A.571.571,0,0,1,118.253,218.907Zm-8.58-4.947,4.472-2.584a2.129,2.129,0,0,1,1.866,0l5.312,3.07a.571.571,0,0,1,0,1.082l-4.461,2.573a2.083,2.083,0,0,1-1.877,0l-5.312-3.059A.575.575,0,0,1,109.673,213.959Zm-8.569-4.947,4.472-2.584a2.059,2.059,0,0,1,1.866,0l5.312,3.07a.575.575,0,0,1,0,1.082l-4.472,2.573a2.059,2.059,0,0,1-1.866,0l-5.312-3.07A.567.567,0,0,1,101.1,209.012Zm-8.569-4.947L97,201.481a2.082,2.082,0,0,1,1.877,0l5.3,3.07c.519.3.519.773,0,1.071l-4.461,2.584a2.058,2.058,0,0,1-1.866,0l-5.312-3.07C92.015,204.838,92.015,204.363,92.534,204.065ZM107.365,185.6l4.461-2.584a2.059,2.059,0,0,1,1.866,0l5.312,3.07a.571.571,0,0,1,0,1.082l-4.461,2.573a2.058,2.058,0,0,1-1.866,0l-5.312-3.07C106.845,186.374,106.845,185.9,107.365,185.6Zm-8.58-4.947,4.472-2.584a2.058,2.058,0,0,1,1.866,0l5.312,3.07a.571.571,0,0,1,0,1.082l-4.461,2.573a2.081,2.081,0,0,1-1.877,0l-5.312-3.07A.567.567,0,0,1,98.784,180.654ZM90.215,175.7l4.472-2.573a2.058,2.058,0,0,1,1.866,0l5.312,3.07a.567.567,0,0,1,0,1.071l-4.472,2.584a2.06,2.06,0,0,1-1.866,0l-5.312-3.07A.575.575,0,0,1,90.215,175.7ZM82.4,180.212l4.472-2.573a2.058,2.058,0,0,1,1.866,0l5.312,3.059a.575.575,0,0,1,0,1.082l-4.472,2.573a2.059,2.059,0,0,1-1.866,0L82.4,181.294A.571.571,0,0,1,82.4,180.212Z" transform="translate(-43.377 -146.224)" fill="#fbf6f0"/>
            <g id="Group_8155" data-name="Group 8155" transform="translate(159.813 87.848)">
              <g id="Group_8153" data-name="Group 8153" transform="translate(22.047)">
                <path id="Path_18736" data-name="Path 18736" d="M60.829,180.058l-3.567,2.054c-.409.243-.751.1-.751-.32a1.569,1.569,0,0,1,.762-1.182l3.556-2.054c.42-.243.751-.1.751.32A1.52,1.52,0,0,1,60.829,180.058Z" transform="translate(-56.511 -178.438)" fill="#999493"/>
              </g>
              <g id="Group_8154" data-name="Group 8154" transform="translate(15.399 3.843)">
                <path id="Path_18737" data-name="Path 18737" d="M61.431,180.406l-3.567,2.054c-.409.232-.751.088-.751-.32a1.534,1.534,0,0,1,.762-1.182l3.556-2.054c.42-.243.751-.1.751.32A1.585,1.585,0,0,1,61.431,180.406Z" transform="translate(-57.113 -178.786)" fill="#999493"/>
              </g>
              <path id="Path_18738" data-name="Path 18738" d="M58.03,186.228l10.341-5.971v-.944l-10.341,5.97Z" transform="translate(-58.03 -169.653)" fill="#999493"/>
            </g>
            <path id="Path_18739" data-name="Path 18739" d="M168.493,237.218l-8.845,5.389-30.865,17.536a5.85,5.85,0,0,1-5.312,0l-.839-.486-64.182-85.97Z" transform="translate(-2.965 -138.298)" fill="#c5c1c0" opacity="0.4"/>
          </g>
          <path id="Path_18740" data-name="Path 18740" d="M49.108,335.381c1.6-6.659,4.307-15.6,7.123-20.982-2.893.033-5.223-1.126-3.081-4.406,3.3-5.047,8.326-13.461,15.847-18.895a39.861,39.861,0,0,1,6.681-3.876,15.364,15.364,0,0,1,6.261-1.27c4.141-.022,7.609.155,10.944-.773,23.2-17.172,64.16-56.286,76.208-66.766a8.594,8.594,0,0,0,2.971-6.537c-.022-13.627-1-27.85-1.568-42.041a8.122,8.122,0,0,1,11.661-7.553c15.162,7.277,30.412,13.936,46.59,15.88-4.638,23.334-9.585,44.956-12.269,56.353a29.9,29.9,0,0,1-9.585,15.979c-19.756,16.83-70.09,39.468-96.2,54.3-9.144,5.93-22.594,37.27-29.407,42.107-5.5,3.92-18.7.563-26.812-2.065A8.019,8.019,0,0,1,49.108,335.381Z" transform="translate(42.332 -61.83)" fill="#fbbd9e"/>
          <path id="Path_18741" data-name="Path 18741" d="M119.673,287.463c-2.573,16.609-67.66,8.746-71.592-4.4-3.081-27.6,9.618-133.742,46.9-130.55C94.981,152.518,142.323,148.454,119.673,287.463Z" transform="translate(159.1 -152.447)" fill="#a780bc"/>
        </g>
        <path id="Path_18742" data-name="Path 18742" d="M75.241,187.292c9.177-9.762,15.957-16.841,16.885-17.514,12.026-1.645,20.871,2.518,26.7,12.192-.939,4.671-3.71,16.7-5.058,21.269-2.308,7.8-3.677,37.866-11.739,40.053-6.814,1.855-38.33-8.2-37.226-20.639C64.805,222.652,63.966,199.3,75.241,187.292Z" transform="translate(15.85 128.225)" fill="#fbbd9e"/>
        <g id="Group_8158" data-name="Group 8158" transform="translate(4.46 277.411)">
          <path id="Path_18743" data-name="Path 18743" d="M91.212,256.137,62.379,175.269l.861-.85,28.833,80.868c.353.994.309,1.678-.066,2.043l-.861.839C91.511,257.816,91.566,257.12,91.212,256.137Z" transform="translate(64.381 -99.053)" fill="#c5c1c0"/>
          <path id="Path_18744" data-name="Path 18744" d="M65.873,167.878c.508-.5,1.645-.353,3.158.519L186.076,235.97c2.584,1.5,5.411,4.616,6.25,6.99l-.861.85a15.908,15.908,0,0,0-6.25-6.99L68.159,169.237c-1.5-.872-2.639-1.016-3.147-.508Z" transform="translate(-64.705 -167.594)" fill="url(#linear-gradient)"/>
          <path id="Path_18745" data-name="Path 18745" d="M65.911,168.47l117.056,67.583a15.908,15.908,0,0,1,6.25,6.99l28.833,80.868c.85,2.374-.629,3.015-3.214,1.513L97.781,257.853a15.909,15.909,0,0,1-6.25-6.99L62.7,169.994C61.848,167.62,63.327,166.98,65.911,168.47Z" transform="translate(-62.457 -166.828)" fill="#d8d4d3"/>
          <path id="Path_18746" data-name="Path 18746" d="M68.921,177.571c0,4.008,4.285,10,9.585,13.384s9.574,2.882,9.574-1.126-4.285-10.005-9.574-13.384S68.921,173.563,68.921,177.571Z" transform="translate(-3.626 -101.256)" fill="#c5c1c0"/>
        </g>
        <path id="Path_18747" data-name="Path 18747" d="M65.294,164.789c8.558-14.533,20.154-21.214,36.895-22,4.55-.21,11.993,3.766,16.277,5.312,15.9,5.742,18.861,32.113,19.513,47.043.817,18.839.055,39.335-12.225,54.022-23.765,28.414-50.842,31.892-54,13.848-.287-1.612-.4-3.6-1.877-4.329a11,11,0,0,0-1.7-.453c-2.65-.8-3.39-4.152-3.423-6.913a44.684,44.684,0,0,1,.508-7.288,20.55,20.55,0,0,0,.453-5.621c-.508-4.119-3.9-7.189-6.107-10.712-5.279-8.415-4.682-21.666-3.909-31.175A74.707,74.707,0,0,1,65.294,164.789Z" transform="translate(102.292 -139.36)" fill="#fbbd9e"/>
        <path id="Path_18748" data-name="Path 18748" d="M66.2,158.869c16.863-18.63,40.925-20.319,57.368-10.414,42.052,9.939,41.621,58.583,16.432,90.1,2.628-8.337-8.448-12.931-10.027-10.281-4.561,7.675-5.488,13.682-10.005,14.014-3.666.276-1.248-6.714-11.8-11.142-1.844-.773-32.787-.906-46.922-12.887a8.1,8.1,0,0,1-2.363-3.5C56.436,207.933,45.581,181.639,66.2,158.869Z" transform="translate(98.075 -142.473)" fill="#302628"/>
        <path id="Path_18749" data-name="Path 18749" d="M64.61,152.316c7.079-8.128,19.712,2.264-.387,24.869-2.032,2.286-4.671,4.572-7.3,2.971C51.16,176.655,60.469,157.054,64.61,152.316Z" transform="translate(166.55 -71.198)" fill="#fbbd9e"/>
      </g>
      <g id="Group_8164" data-name="Group 8164" transform="translate(0)">
        <g id="Group_8160" data-name="Group 8160">
          <g id="Group_8159" data-name="Group 8159">
            <path id="Path_18750" data-name="Path 18750" d="M70.358,402.807,279.116,523.334V259.694L70.358,139.167Z" transform="translate(-58.872 -116.067)" fill="#6575ea" opacity="0.5"/>
            <path id="Path_18751" data-name="Path 18751" d="M71.4,169.758,280.156,290.284V257.6L71.4,137.076Z" transform="translate(-71.398 -137.076)" fill="#6575ea"/>
          </g>
          <path id="Path_18752" data-name="Path 18752" d="M224.689,233.262l7,4.053V235l-7-4.053Zm-33.184-21.468,7.653,4.417v2.308l-7.653-4.406Zm37.336,27.85,10.756,6.206v2.319l-10.756-6.217Zm-3.114.508-7.012-4.042v-2.319l7.012,4.053ZM215.6,234.311l-8.569-4.947v-2.319l8.569,4.947Zm-20.109-11.606-15.317-8.845v-2.319l15.317,8.845Zm-27.641-15.957-16.311-9.42v-2.319l16.311,9.42Zm66.965,42.637,4.782,2.761v2.319l-4.782-2.761Zm-3.125.519-7-4.053v-2.319l7,4.053Zm-10.126-5.853-7.266-4.2v-2.319l7.266,4.2ZM188.391,224.9l-12.4-7.167v-2.319l12.4,7.167Zm30.324,21.479,7.012,4.053v2.308l-7.012-4.042Zm-20.109-11.606,5.312,3.059v2.319l-5.312-3.059Zm-3.114.519-15.317-8.845V224.13l15.317,8.845ZM177.05,224.649l-6.085-3.512v-2.319l6.085,3.512Zm-9.2-5.312-17.857-10.314V206.7l17.857,10.314Zm66.965,42.637,4.782,2.761v2.319l-4.782-2.772Zm-3.125.508-7-4.042v-2.319l7,4.053Zm-10.126-5.842L201.9,245.277l-10.391-6v-2.308l9.3,5.356,20.761,11.993Zm-58.727-36.232v2.319l-5.908-3.412V217Zm66,44.4,10.756,6.217v2.319l-10.756-6.217Zm-16.918-9.762,3.677,2.12v2.319l-3.677-2.12Zm-13.318-7.686L208.8,253.25v2.319l-10.193-5.9Zm-3.114.519-15.317-8.845v-2.319l15.317,8.846ZM177.05,237.238l-6.085-3.512v-2.319l6.085,3.512Zm-44.117-59.257,7.012,4.042v2.319l-7.012-4.042ZM78.469,146.53v2.319l-6.924-4v-2.319Zm69.979,49.02L137.1,188.991v-2.319l11.352,6.56Zm-14.466-8.36-7.012-4.053v-2.319l7.012,4.053Zm-10.126-5.853-8.569-4.936v-2.319l8.569,4.936Zm29.982,23.61-10.767-6.217v-2.319l10.767,6.217Zm-13.892-8.017-7.012-4.053V190.57l7.012,4.042Zm-37.292-17.558,6.858,3.953v2.319l-6.858-3.953Zm-12.677-7.322,9.552,5.522v2.319l-9.552-5.521Zm63.862,45.486-10.767-6.217V209l10.767,6.217Zm-24.019-13.87-14.533-8.393v-2.319l14.533,8.4Zm15.549,15.272-8.271-4.771V211.85l8.271,4.771Zm89.448,68.191,4.782,2.761v2.319l-4.782-2.772Zm-43.311-25,7.653,4.406v2.319l-7.653-4.406Zm-18.63-8.448-6.924-4v-2.319l6.924,4Zm34.156,23.7,8.569,4.947v2.319l-8.569-4.947Zm-26.857-15.5,15.317,8.846v2.319l-15.317-8.845Zm-3.125.519-6.085-3.512v-2.319l6.085,3.512Zm-23.212-19.7-10.767-6.217v-2.319l10.767,6.217Zm-24.019-13.87-19.634-11.33v-2.319l19.634,11.33Zm7.277,8.183,11.352,6.549v2.319l-11.352-6.56Zm-34.443-19.888,9.519,5.488v2.319l-9.519-5.488ZM89.976,209.8l9.552,5.522v2.319l-9.552-5.522Zm-13.417-7.741L86.862,208v2.319l-10.3-5.941ZM234.816,312.308l4.782,2.761v2.319l-4.782-2.761Zm-3.125.519-7-4.053v-2.319l7,4.053Zm-10.126-5.842-19.292-11.142v-2.319l19.292,11.142ZM175.99,278.34l12.4,7.167v2.319l-12.4-7.167ZM218.715,309.3l7.012,4.053v2.319l-7.012-4.053Zm-14.8-6.228-5.312-3.059V297.7l5.312,3.059Zm-8.426-4.859-15.317-8.845v-2.319l15.317,8.846ZM167.851,282.26l-16.311-9.42v-2.319l16.311,9.42Zm63.84,43.156-7-4.053v-2.319l7,4.053ZM191.505,299.9l19.679,11.352v2.319l-19.679-11.352Zm-15.515-8.967,12.4,7.167v2.319l-12.4-7.167Zm-10.038-5.8,6.924,4v2.319l-6.924-4Zm-9.022-2.882V279.93l5.908,3.412v2.308Zm14.036,12.081,6.085,3.512v2.319l-6.085-3.512Zm6.085,18.42-6.085-3.512v-2.319l6.085,3.512Zm-23.212-44.879-10.767-6.217v-2.319l10.767,6.228Zm-13.892-8.017-7.012-4.042v-2.319l7.012,4.042Zm-10.126-5.842-19.634-11.341v-2.319l19.634,11.341Zm-2.849,2.319,7.012,4.053V262.7l-7.012-4.053Zm-14.8-6.217-9.519-5.5V242.3l9.519,5.5ZM76.558,227.233l10.3,5.952V235.5l-10.3-5.952Zm1.91,9.718-6.924-4v-2.319l6.924,4Zm31.042,21.9v2.308l-6.858-3.953v-2.319ZM89.976,247.563l9.552,5.522V255.4l-9.552-5.521Zm-13.417-7.741,10.3,5.952v2.319l-10.3-5.952Zm77.279,53.227-10.767-6.217v-2.319l10.767,6.217Zm-20.9-14.389,7.012,4.053v2.319l-7.012-4.053ZM92.438,257.6l-10.855-6.273v-2.308l10.855,6.261Zm-13.969-8.073-6.924-4v-2.308l6.924,4Zm48.5,31.981,7.012,4.053v2.319l-7.012-4.053Zm-24.317-14.036,13.285,7.675v2.308l-13.285-7.664Zm132.163,120.38,4.782,2.772v2.319l-4.782-2.772Zm-13.252-5.323-19.292-11.142v-2.319l19.292,11.142Zm-30.059-19.679,7.653,4.417v2.319l-7.653-4.417ZM175.99,353.9l12.4,7.156v2.319l-12.4-7.156Zm42.725,30.965,7.012,4.042v2.319l-7.012-4.053Zm-11.683-6.747,8.569,4.947v2.319l-8.569-4.947Zm-39.181-20.308-16.311-9.42v-2.308l16.311,9.42Zm63.84,43.156-7-4.042V394.6l7,4.042Zm-10.126-5.842-7.266-4.2V388.6l7.266,4.2ZM207.032,390.7l8.569,4.947v2.308l-8.569-4.936Zm-26.857-15.515,15.317,8.845v2.319l-15.317-8.845Zm-26.338-31.76-10.767-6.217v-2.319l10.767,6.217Zm-24.019-13.87-19.634-11.33v-2.319l19.634,11.33ZM92.438,307.979l-10.855-6.272v-2.319l10.855,6.272Zm-13.969-8.073-6.924-4V293.59l6.924,4Zm24.184,17.934,9.519,5.5v2.319l-9.519-5.5Zm-12.677-7.31,9.552,5.521v2.319l-9.552-5.522Zm141.715,52.642-7-4.042v-2.319l7,4.042Zm-40.186-25.52,7.653,4.417v2.319l-7.653-4.417Zm12.412,15.78-5.312-3.07v-2.319l5.312,3.07Zm-8.426-4.87-15.317-8.845V337.4l15.317,8.845ZM177.05,337.917l-6.085-3.512v-2.319l6.085,3.512Zm-23.212-19.69L143.071,312V309.68l10.767,6.228Zm-13.892-8.017-7.012-4.053v-2.319l7.012,4.053Zm94.87,115.411,4.782,2.761V430.7l-4.782-2.761Zm-13.252-5.334-19.292-11.142v-2.308l19.292,11.142Zm7.277,8.183,10.756,6.206v2.319l-10.756-6.206Zm-21.81-12.6,8.569,4.947v2.319l-8.569-4.947ZM177.05,400.884l-6.085-3.512v-2.319l6.085,3.512Zm54.641,37.844-7-4.053v-2.319l7,4.053Zm-10.126-5.853-7.266-4.2V426.36l7.266,4.2Zm-30.059-19.667,19.679,11.352v2.319l-19.679-11.352Zm-25.554-14.765,6.924,4v2.319l-6.924-4Zm-9.022-2.882v-2.319l5.908,3.4v2.319Zm50.1,32.9,8.569,4.947v2.319l-8.569-4.947Zm-36.066-20.816,6.085,3.512v2.319l-6.085-3.512ZM234.816,450.8l4.782,2.761v2.319l-4.782-2.761Zm-13.252-5.334L201.9,434.112l-10.391-6V425.8l9.3,5.356,20.761,11.993ZM137.1,375.5l11.352,6.56v2.319L137.1,377.815Zm-21.81-12.589,8.569,4.947v2.308l-8.569-4.936Zm24.659,22.848-7.012-4.042v-2.319l7.012,4.042Zm-10.126-5.842-11.209-6.482v-2.319l11.209,6.482ZM107.07,291.227l-11.518-6.659v-2.319l11.518,6.659Zm-14.632-8.459-10.855-6.261v-2.319l10.855,6.272Zm-13.969-8.061-6.924-4V268.39l6.924,4Zm48.5,31.98,7.012,4.042v2.319l-7.012-4.042Zm-3.114-1.8v2.319l-8.569-4.947V299.94ZM234.816,236.8l4.782,2.761v2.319l-4.782-2.761Zm-77.886-44.967,5.908,3.412v2.319l-5.908-3.412Zm20.12,20.231-6.085-3.512v-2.319l6.085,3.512Zm34.134,26L191.505,226.7v-2.319l19.679,11.352Zm17.658,14.168L239.6,258.44v2.319l-10.756-6.217ZM95.552,156.392l11.518,6.648v2.319l-11.518-6.648Zm16.62,15.891V174.6l-9.519-5.5v-2.319ZM92.438,169.5l-10.855-6.272v-2.308l10.855,6.261Zm41.544,30.28-7.012-4.053v-2.319l7.012,4.053ZM126.97,206l7.012,4.053v2.319l-7.012-4.053Zm-48.5-6.825-6.924-4v-2.308l6.924,3.986ZM228.842,315.157l10.756,6.206v2.319l-10.756-6.217Zm-10.126,19.325,7.012,4.053v2.308l-7.012-4.042Zm-88.9-67.881-11.209-6.482V257.8l11.209,6.482ZM115.5,258.319,95.552,246.812v-2.319L115.5,256.011Zm95.688,130.8L191.505,377.76v-2.319L211.184,386.8Zm17.658,14.168,10.756,6.217v2.308l-10.756-6.206Zm-10.126-5.842,7.012,4.042v2.319l-7.012-4.053Zm-84.733-59.2-7.012-4.042v-2.319l7.012,4.042Zm28.855-14.831-5.908-3.412v-2.319l5.908,3.412Zm0,62.967-5.908-3.412v-2.319l5.908,3.412Zm55.878,36.232,7.012,4.053v2.319l-7.012-4.053Zm-67.175-38.783,16.311,9.42v2.319l-16.311-9.42ZM126.97,369.655l7.012,4.042v2.319l-7.012-4.053Zm49.02-166.827,12.4,7.167v2.319l-12.4-7.167ZM215.6,244.581V246.9l-8.569-4.947v-2.319ZM81.583,148.331l10.855,6.261v2.319l-10.855-6.273Zm-5.025,3.39,10.3,5.952v2.319l-10.3-5.952Zm70.355,55.524L137.1,201.58v-2.319l9.817,5.665Zm84.777,80.393-7-4.042v-2.319l7,4.053Zm-68.853-42.074v2.319l-5.908-3.412v-2.308Zm66,44.4,10.756,6.217V298.5l-10.756-6.217ZM203.918,277.9l-5.312-3.059V272.52l5.312,3.059Zm-36.066-20.816-16.311-9.42v-2.319l16.311,9.42Zm-27.906-22.406-7.012-4.053V228.3l7.012,4.053Zm58.66,77.931v-2.319l5.312,3.059v2.319Zm33.085,25.4-7-4.053v-2.319l7,4.053Zm-55.7-34.487,12.4,7.167V313l-12.4-7.167Zm52.852,36.806,10.756,6.217v2.319l-10.756-6.217Zm-30.236-17.448,10.193,5.886v2.319L198.606,325.2ZM107.07,240.871l-11.518-6.648V231.9l11.518,6.648Zm-14.632-8.448-10.855-6.261v-2.319L92.438,230.1Zm61.4,48.037-10.767-6.217v-2.319l10.767,6.217ZM89.976,260.152l9.552,5.522v2.319l-9.552-5.522Zm-13.417-7.741,10.3,5.941v2.319l-10.3-5.941ZM195.492,373.762l-15.317-8.845v-2.308l15.317,8.834ZM107.07,316.427l-11.518-6.659v-2.319l11.518,6.659Zm41.378,30.18L137.1,340.048v-2.319l11.352,6.559Zm24.427-17.393-6.924-4V322.9l6.924,4ZM228.842,365.5l10.756,6.217v2.319l-10.756-6.217Zm-10.126-5.853,7.012,4.053v2.319l-7.012-4.053Zm-11.683-6.736,8.569,4.947v2.319l-8.569-4.947Zm24.659,73.226-7-4.053v-2.308l7,4.042Zm-27.773-9.751-5.312-3.059v-2.319l5.312,3.07Zm-8.426-4.859-15.317-8.845v-2.319l15.317,8.846Zm3.114,14.389V423.6l5.312,3.059v2.319Zm33.085,25.4-7-4.053v-2.319l7,4.053ZM137.1,312.529l11.352,6.559v2.319l-11.352-6.56Zm65.176-94.517,19.292,11.142v2.308L202.272,220.32Zm1.645,7.233v2.319l-5.312-3.059v-2.319Zm-41.08-17.426v2.319l-5.908-3.4v-2.319Zm25.554,29.672-12.4-7.167v-2.319l12.4,7.167Zm30.324,21.479,7.012,4.042v2.319l-7.012-4.042ZM110.184,164.84l19.634,11.341V178.5l-19.634-11.341Zm-3.114,50.853-11.518-6.648v-2.319l11.518,6.648Zm-14.632-8.448-10.855-6.273v-2.319l10.855,6.272Zm114.593,95.312L215.6,307.5v2.319l-8.569-4.947Zm-36.066-20.816,6.085,3.512v2.319l-6.085-3.512ZM234.816,324.9l4.782,2.761v2.319l-4.782-2.761Zm-77.886-32.378,5.908,3.4v2.319l-5.908-3.412Zm-78.46-68.158-6.924-4v-2.319l6.924,4Zm13.969,20.65-10.855-6.261v-2.319l10.855,6.261Zm22.848,23.466,14.533,8.393v2.319l-14.533-8.4Zm-3.114.508L95.552,259.4v-2.319l16.62,9.6Zm6.88,10.27v-2.319l4.8,2.772v2.319ZM231.691,388.372l-7-4.042v-2.319l7,4.042Zm-68.853-39.755-5.908-3.412v-2.319l5.908,3.412Zm66,42.085L239.6,396.92v2.319l-10.756-6.217ZM177.05,363.117l-6.085-3.512v-2.319l6.085,3.523Zm57.766,37.325,4.782,2.772v2.319l-4.782-2.772ZM76.558,302.789l10.3,5.941v2.319l-10.3-5.941Zm158.257,59.864,4.782,2.772v2.319l-4.782-2.772Zm-83.275-41.787,16.311,9.42v2.319l-16.311-9.42Zm83.275,117.343,4.782,2.761v2.319l-4.782-2.761Zm-5.974,2.838,10.756,6.217v2.319l-10.756-6.217Zm-10.126-5.842,7.012,4.053v2.319l-7.012-4.053Zm-38.54-22.252,15.317,8.845v2.319l-15.317-8.845Zm-40.23-39.788-7.012-4.042v-2.319l7.012,4.042Zm-10.126-5.842-19.634-11.341v-2.319l19.634,11.341ZM165.952,197.03l6.924,4v2.319l-6.924-4Zm6.924,18.906-6.924-4v-2.319l6.924,4Zm0,12.589-6.924-4v-2.319l6.924,4Zm-29.805-44.7,10.767,6.217v2.319l-10.767-6.217Zm-13.252,7.266-11.209-6.482v-2.319l11.209,6.482Zm10.126,18.431-7.012-4.053v-2.308l7.012,4.042Zm-16.09-5.323v2.319l-4.8-2.772v-2.319Zm97.709,77.6-19.292-11.142v-2.319l19.292,11.142Zm-2.849,2.33,7.012,4.042v2.319l-7.012-4.042ZM126.97,231.153l7.012,4.053v2.319l-7.012-4.053Zm35.868,39.6v2.319l-5.908-3.412v-2.319Zm3.114,26.967,6.924,4v2.319l-6.924-4Zm29.54,25.675-15.317-8.845v-2.319l15.317,8.846Zm-27.641-15.957-19.4-11.2v-2.319l19.4,11.2Zm-52.565-57.843,8.569,4.947v2.319l-8.569-4.947Zm24.659,22.848-7.012-4.042v-2.319l7.012,4.042ZM137.1,287.362l8.271,4.771v2.319l-8.271-4.771Zm61.51,98.471,5.312,3.07v2.319l-5.312-3.07Zm-74.75-53.426-8.569-4.947V325.14l8.569,4.947Zm97.709,24.924-19.292-11.142v-2.319l19.292,11.142ZM175.99,391.652l12.4,7.167v2.319l-12.4-7.167Zm-10.038-5.787,6.924,4v2.308l-6.924-3.987Zm10.038,18.376,12.4,7.167v2.319l-12.4-7.167Zm0,12.589,12.4,7.167v2.319l-12.4-7.167Zm-22.152-23.058-10.767-6.217v-2.319l10.767,6.217Zm14.014-161.846-19.4-11.209v-2.308l19.4,11.2ZM89.976,159.462l9.552,5.521V167.3l-9.552-5.522Zm25.52,23.345L95.552,171.3v-2.319L115.5,180.5Zm8.36,11.12-11.231-6.482v-2.319l11.231,6.482Zm64.535,68.721-12.4-7.167v-2.319l12.4,7.167Zm-64.535-33.295v2.319l-8.569-4.947v-2.319Zm67.649,57.954,7.653,4.417v2.319l-7.653-4.417Zm-18.63-8.448-6.924-4v-2.308l6.924,4Zm48.689,40.7-7.266-4.2v-2.319l7.266,4.2Zm-41.389-19.922,15.317,8.845v2.319l-15.317-8.845Zm54.641,37.844,4.782,2.761v2.319l-4.782-2.761Zm-13.252-5.334L201.9,320.8l-10.391-6v-2.319l10.391,6,19.668,11.352Zm-9.641-1.59,3.677,2.12V335l-3.677-2.12ZM137.1,262.184l11.352,6.56v2.319L137.1,264.5Zm-47.12-27.2,9.552,5.511v2.319l-9.552-5.522ZM165.952,348.1l6.924,4v2.319l-6.924-4Zm37.966,30.534-5.312-3.07v-2.319l5.312,3.07ZM139.945,335.41l-7.012-4.053v-2.319l7.012,4.053Zm48.446,2.761-12.4-7.156V328.7l12.4,7.156Zm3.114,62.448,7.653,4.417v2.319l-7.653-4.417Zm-37.668-19.436-10.767-6.217v-2.319l10.767,6.228Zm-24.019-76.826-19.634-11.341V290.7l19.634,11.341Zm-27.166-11.717,9.519,5.5v2.319l-9.519-5.5Zm-12.677-7.31,9.552,5.51v2.319l-9.552-5.511Zm-13.417-7.752,10.3,5.952v2.319l-10.3-5.952ZM248.7,244.813v2.319L243.9,244.36v-2.319Zm0,8.6-4.793-2.761v-2.319L248.7,251.1Zm0,6.294-4.793-2.761V254.63L248.7,257.4Zm0,6.294-4.793-2.761v-2.319l4.793,2.761Zm0,6.294-4.793-2.761V267.22l4.793,2.761Zm0,6.295-4.793-2.761v-2.319l4.793,2.761Zm0,6.294-4.793-2.761v-2.319l4.793,2.761Zm0,6.295-4.793-2.761V286.1l4.793,2.761Zm0,6.294-4.793-2.761V292.4l4.793,2.761Zm0,6.295L243.9,301v-2.308l4.793,2.761Zm0,6.294-4.793-2.772v-2.319l4.793,2.772Zm0,6.295-4.793-2.772V311.27l4.793,2.772Zm0,6.294-4.793-2.772v-2.319l4.793,2.772Zm0,6.295-4.793-2.772v-2.319l4.793,2.772Zm0,6.294-4.793-2.772v-2.319l4.793,2.772Zm0,6.295-4.793-2.772v-2.319l4.793,2.772Zm0,6.283-4.793-2.761v-2.319l4.793,2.772Zm0,6.305-4.793-2.772v-2.319l4.793,2.772Zm0,6.283-4.793-2.761v-2.319L248.7,358.1Zm0,6.294-4.793-2.761v-2.319l4.793,2.761Zm0,6.295L243.9,370.24v-2.319l4.793,2.761Zm0,6.295-4.793-2.761v-2.319l4.793,2.761Zm0,6.294-4.793-2.761V380.51l4.793,2.761Zm0,6.295-4.793-2.761V386.8l4.793,2.761Zm0,6.294-4.793-2.761V393.1l4.793,2.761Zm0,6.295L243.9,401.7v-2.319l4.793,2.772Zm0,6.294L243.9,408v-2.308l4.793,2.761Zm0,6.295L243.9,414.29v-2.319l4.793,2.772Zm0,6.294-4.793-2.772v-2.319l4.793,2.772Zm0,6.295-4.793-2.772V424.56l4.793,2.772Zm0,6.294-4.793-2.772v-2.319l4.793,2.772Zm0,6.295-4.793-2.772v-2.319l4.793,2.772Zm0,6.294-4.793-2.772v-2.319l4.793,2.772Zm0,6.295-4.793-2.772v-2.319L248.7,452.5Zm0,6.283-4.793-2.761v-2.319l4.793,2.761Zm0,6.294-4.793-2.761v-2.319l4.793,2.761Zm0,6.295-4.793-2.761v-2.319l4.793,2.761Z" transform="translate(-41.565 -82.267)" fill="url(#linear-gradient-3)" style="mix-blend-mode: screen;isolation: isolate"/>
        </g>
        <g id="Group_8163" data-name="Group 8163" transform="translate(7.507 18.577)">
          <g id="Group_8161" data-name="Group 8161" transform="translate(119.85 66.351)">
            <path id="Path_18753" data-name="Path 18753" d="M76.39,165.646l3.081,1.789q1.971,1.143,3.048.663c.718-.309,1.082-1.115,1.082-2.407v-8.867a6.761,6.761,0,0,0-1.082-3.666,8.7,8.7,0,0,0-3.048-2.838L76.39,148.54c-1.3-.751-2.308-.972-3.037-.674s-1.093,1.1-1.093,2.418v1.27a.869.869,0,0,0,.475.762l1.679.972c.309.166.453.1.453-.221V151.9q0-1.971,1.921-.861l2.308,1.336a3.4,3.4,0,0,1,1.921,3.07v8.647c0,1.314-.64,1.6-1.921.873l-2.308-1.336a3.417,3.417,0,0,1-1.921-3.081v-1.171a.8.8,0,0,0-.453-.74l-1.679-.972c-.309-.177-.475-.11-.475.21v1.27a6.709,6.709,0,0,0,1.093,3.666A8.464,8.464,0,0,0,76.39,165.646Z" transform="translate(-11.722 -114.917)" fill="#fff"/>
            <path id="Path_18754" data-name="Path 18754" d="M77.69,161.738l2.341,1.347c1.314.762,2.33.983,3.048.674s1.071-1.115,1.071-2.407v-5.323a6.758,6.758,0,0,0-1.071-3.677,8.578,8.578,0,0,0-3.048-2.827l-2.341-1.358c-1.292-.751-2.308-.972-3.048-.685s-1.1,1.1-1.1,2.407v5.334a6.657,6.657,0,0,0,1.1,3.666A8.815,8.815,0,0,0,77.69,161.738Zm1.966-1.126-1.623-.939a3.39,3.39,0,0,1-1.91-3.048v-5.157c0-1.3.64-1.579,1.91-.839l1.623.939a4.119,4.119,0,0,1,1.469,1.314,3.217,3.217,0,0,1,.453,1.734v5.157c0,.685-.155,1.082-.453,1.226S80.329,161.009,79.656,160.611Z" transform="translate(-26.384 -118.716)" fill="#fff"/>
            <path id="Path_18755" data-name="Path 18755" d="M80.13,167.708l1.358.784c1.27.729,2.253.939,2.937.618s1.027-1.148,1.027-2.452v-5.334a6.78,6.78,0,0,0-1.027-3.644,8.149,8.149,0,0,0-2.937-2.761l-1.358-.784c-1.369-.8-2.253-.839-2.661-.133-.11-.055-.11-6.151-.11-6.151a.784.784,0,0,0-.453-.718l-1.7-.983c-.3-.166-.453-.11-.453.2v17.8a.787.787,0,0,0,.453.707l1.7.983c.309.177.453.11.453-.188v-.961A6.2,6.2,0,0,0,80.13,167.708Zm-2.772-6.129v-4.517c0-1.513.729-1.844,2.187-1.005l1.414.806a3.425,3.425,0,0,1,1.91,3.081v5.113c0,1.314-.64,1.6-1.91.861l-1.414-.817A3.891,3.891,0,0,1,77.358,161.579Z" transform="translate(-41.093 -131.765)" fill="#fff"/>
            <path id="Path_18756" data-name="Path 18756" d="M78.62,149.921V147.5a.734.734,0,0,0-.431-.663l-1.734-1c-.276-.166-.42-.1-.42.177v2.43a.778.778,0,0,0,.42.7l1.734.994C78.476,150.3,78.62,150.23,78.62,149.921Zm0,15.383V152.637a.769.769,0,0,0-.431-.7l-1.7-.983c-.309-.177-.453-.11-.453.188v12.677a8.227,8.227,0,0,0,2.131,1.678C78.465,165.668,78.62,165.613,78.62,165.3Z" transform="translate(-48.44 -134.937)" fill="#fff"/>
            <path id="Path_18757" data-name="Path 18757" d="M85.012,162.509l1.679.972c.309.166.453.11.453-.2V150.616a.768.768,0,0,0-.453-.707l-1.679-.972c-.3-.177-.442-.11-.442.188v.961a6.362,6.362,0,0,0-2.8-3.026l-1.16-.673c-1.3-.751-2.3-.961-2.982-.652s-1.038,1.126-1.038,2.452v9a.826.826,0,0,0,.475.729l1.679.972c.3.166.453.111.453-.2V149.81c0-1.325.64-1.6,1.944-.85l1.248.718A3.89,3.89,0,0,1,84.57,153.2v8.591A.792.792,0,0,0,85.012,162.509Z" transform="translate(-63.036 -136.417)" fill="#fff"/>
            <path id="Path_18758" data-name="Path 18758" d="M83.213,160.622l1.193.7c1.281.729,2.264.939,2.948.618s1.016-1.148,1.016-2.462v-4.66a6.67,6.67,0,0,0-1.082-3.666,8.653,8.653,0,0,0-3.037-2.838l-5.963-3.434c-.32-.188-.475-.132-.475.177v13.163a6.63,6.63,0,0,0,1.1,3.666,8.791,8.791,0,0,0,3.048,2.838l5,2.882c.3.177.453.121.453-.166v-1.38a.815.815,0,0,0-.453-.718l-4.6-2.65a3.447,3.447,0,0,1-1.943-3.092v-2.021A6.4,6.4,0,0,0,83.213,160.622Zm-2.794-6.14v-5.853a22.405,22.405,0,0,1,3.456,1.734,3.368,3.368,0,0,1,1.888,3.059v4.417c0,1.314-.629,1.6-1.888.873l-1.27-.729A3.882,3.882,0,0,1,80.419,154.482Z" transform="translate(-77.813 -144.766)" fill="#fff"/>
          </g>
          <g id="Group_8162" data-name="Group 8162">
            <path id="Path_18759" data-name="Path 18759" d="M85.943,140.218v1.921a1.464,1.464,0,0,0,.552,1.16l8.746,7.344L86.5,147.882c-.364-.132-.552.044-.552.53V150.3a.833.833,0,0,0,.7.839L97.5,153.89c.519.133.784-.11.784-.707v-1.568A2.154,2.154,0,0,0,97.5,150l-10.866-9.784Q85.943,139.556,85.943,140.218Z" transform="translate(-57.662 -127.418)" fill="#fff"/>
            <path id="Path_18760" data-name="Path 18760" d="M94.787,161.7l2.231,1.292c.464.265.618.155.464-.342q-.928-2.915-3.3-10.623t-3.313-10.657a1.874,1.874,0,0,0-.784-1.06l-2.242-1.292c-.464-.265-.618-.155-.464.342L94,160.637A1.764,1.764,0,0,0,94.787,161.7Z" transform="translate(-72.104 -137.577)" fill="#fff"/>
            <path id="Path_18761" data-name="Path 18761" d="M100.85,144.27v-1.91a.76.76,0,0,0-.707-.806l-10.855-2.761c-.519-.133-.784.11-.784.707v1.568a2.154,2.154,0,0,0,.784,1.612l10.855,9.784c.475.409.707.4.707-.033v-1.888a1.433,1.433,0,0,0-.552-1.16l-8.746-7.333,8.746,2.75C100.662,144.911,100.85,144.745,100.85,144.27Z" transform="translate(-88.504 -138.758)" fill="#fff"/>
          </g>
        </g>
      </g>
    </g>
    <g id="Group_8170" data-name="Group 8170" transform="translate(341.014 122.271)">
      <g id="Group_8168" data-name="Group 8168">
        <g id="Group_8167" data-name="Group 8167" style="isolation: isolate">
          <g id="Group_8166" data-name="Group 8166">
            <path id="Path_18762" data-name="Path 18762" d="M59.535,130.16c0-7.023,4.925-9.884,10.966-6.416l67.948,38.982c6.063,3.479,10.977,11.982,10.977,19.005v78.715c0,7-4.914,9.894-10.977,6.416L70.5,227.89c-6.041-3.468-10.966-12-10.966-19.005Z" transform="translate(-59.535 -122.271)" fill="#71aaa9"/>
          </g>
        </g>
      </g>
      <g id="Group_8169" data-name="Group 8169" transform="translate(9 41.871)">
        <path id="Path_18763" data-name="Path 18763" d="M75.227,163.584l3.865,2.22c.64.375.95.243.95-.4V138.075a1.666,1.666,0,0,0-.95-1.5l-11.1-6.4q-3.545-2.054-5.5-1.248c-1.3.541-1.955,1.988-1.955,4.351v4.362a12.083,12.083,0,0,0,1.955,6.615,15.654,15.654,0,0,0,5.5,5.1l5.731,3.313a.941.941,0,0,1,.552.817v8.591A1.7,1.7,0,0,0,75.227,163.584Zm-1.458-15.946-4.815-2.783a5.6,5.6,0,0,1-2.054-1.789,4.49,4.49,0,0,1-.585-2.363v-3.832c0-.961.2-1.535.585-1.723s1.082.011,2.054.574l4.815,2.783a.863.863,0,0,1,.508.784v8.139C74.277,147.759,74.112,147.837,73.769,147.638Z" transform="translate(-10.25 -99.659)" fill="#fff"/>
        <path id="Path_18764" data-name="Path 18764" d="M78.193,164.978l3.854,2.231q.961.563.961-.4V139.48a1.677,1.677,0,0,0-.961-1.5l-3.854-2.231c-.64-.376-.961-.232-.961.4v10.69c0,.331-.177.4-.541.188l-7.686-4.439a.886.886,0,0,1-.508-.8V131.109a1.7,1.7,0,0,0-.95-1.513l-3.865-2.231c-.64-.364-.961-.232-.961.409v27.331a1.677,1.677,0,0,0,.961,1.5l3.865,2.231c.629.364.95.232.95-.4V147.8c0-.331.177-.409.508-.21l7.686,4.428a.956.956,0,0,1,.541.828v10.634A1.665,1.665,0,0,0,78.193,164.978Z" transform="translate(-37.312 -114.978)" fill="#fff"/>
        <path id="Path_18765" data-name="Path 18765" d="M79.781,160.944l3.865,2.231c.629.375.95.232.95-.4V135.446a1.674,1.674,0,0,0-.95-1.5l-11.1-6.416c-2.363-1.358-4.2-1.778-5.5-1.237s-1.955,1.988-1.955,4.351V135a12.019,12.019,0,0,0,1.955,6.6,15.679,15.679,0,0,0,5.5,5.113l5.731,3.313a.929.929,0,0,1,.552.817v8.591A1.666,1.666,0,0,0,79.781,160.944Zm-1.458-15.935-4.815-2.783a5.715,5.715,0,0,1-2.054-1.8,4.462,4.462,0,0,1-.585-2.363v-3.821c0-.972.2-1.546.585-1.723s1.082.011,2.054.563l4.815,2.783a.91.91,0,0,1,.508.8V144.8C78.832,145.131,78.655,145.2,78.324,145.009Z" transform="translate(-65.094 -126.062)" fill="#fff"/>
      </g>
    </g>
    <g id="Group_8175" data-name="Group 8175" transform="translate(185.44 212.647)">
      <g id="Group_8173" data-name="Group 8173">
        <g id="Group_8172" data-name="Group 8172" style="isolation: isolate">
          <g id="Group_8171" data-name="Group 8171">
            <path id="Path_18766" data-name="Path 18766" d="M71.106,138.344c0-7.023,4.925-9.883,10.966-6.416L150.03,170.9c6.063,3.479,10.966,11.982,10.966,19v78.726c0,7-4.9,9.895-10.966,6.416L82.072,236.074c-6.041-3.479-10.966-12-10.966-19.016Z" transform="translate(-71.106 -130.454)" fill="#6575ea"/>
          </g>
        </g>
      </g>
      <g id="Group_8174" data-name="Group 8174" transform="translate(10.06 42.046)">
        <path id="Path_18767" data-name="Path 18767" d="M79.618,167.5l4.958,2.86q3.595,2.071,5.544,1.292t1.955-4.373V152.872a11.984,11.984,0,0,0-1.955-6.626,15.745,15.745,0,0,0-5.544-5.113l-4.958-2.871q-3.545-2.037-5.533-1.259c-1.314.53-1.977,1.977-1.977,4.34v2.142a1.78,1.78,0,0,0,1,1.579l3.821,2.209c.63.364.95.21.95-.453v-1.866c0-.972.21-1.546.618-1.712s1.093.011,2.065.574l3.092,1.789a5.765,5.765,0,0,1,2.032,1.778,4.482,4.482,0,0,1,.607,2.429v13.87c0,.972-.2,1.535-.607,1.712s-1.082-.011-2.032-.552l-3.092-1.789a5.774,5.774,0,0,1-2.065-1.811,4.418,4.418,0,0,1-.618-2.419v-1.866a1.729,1.729,0,0,0-.95-1.557l-3.821-2.2c-.663-.386-1-.243-1,.42v2.142a12.014,12.014,0,0,0,1.977,6.615A15.91,15.91,0,0,0,79.618,167.5Z" transform="translate(-23.321 -108.889)" fill="#fff"/>
        <path id="Path_18768" data-name="Path 18768" d="M94.339,165.785v-.916a1.654,1.654,0,0,0-.95-1.5l-3.865-2.242c-.64-.364-.961-.232-.961.409,0,1.513-.221,2.175-.674,2.33s-1.292-.1-2.507-.806l-2.131-1.226a7.217,7.217,0,0,1-2.485-2.12,5.414,5.414,0,0,1-.707-2.948c0-1.424.364-1.888,1.071-1.955a5.38,5.38,0,0,1,2.661.7,36.93,36.93,0,0,0,3.434,1.458,21.411,21.411,0,0,0,3.434.983,2.708,2.708,0,0,0,2.661-.873,5.959,5.959,0,0,0,1.06-4v-1.59a12.159,12.159,0,0,0-1.988-6.659,15.853,15.853,0,0,0-5.555-5.157l-4.55-2.628c-2.385-1.38-4.252-1.811-5.588-1.27s-2.01,1.977-2.01,4.34v.861a1.681,1.681,0,0,0,.961,1.513l3.865,2.231c.64.364.95.232.95-.4,0-1.458.232-2.131.685-2.3s1.292.11,2.507.806l1.767,1.027a6.908,6.908,0,0,1,2.529,2.165,6.035,6.035,0,0,1,.663,3.125v.873q0,2.137-3.732.3a25.384,25.384,0,0,0-6.869-2.418,2.9,2.9,0,0,0-2.661.894,5.619,5.619,0,0,0-1.06,3.865V154.2a12.08,12.08,0,0,0,2,6.659,15.821,15.821,0,0,0,5.544,5.157l4.958,2.86c2.363,1.369,4.218,1.778,5.544,1.248S94.339,168.148,94.339,165.785Z" transform="translate(-49.78 -121.393)" fill="#fff"/>
        <path id="Path_18769" data-name="Path 18769" d="M96.569,164.5v-.906a1.7,1.7,0,0,0-.95-1.513l-3.876-2.231c-.629-.364-.95-.232-.95.409,0,1.513-.232,2.176-.685,2.33s-1.281-.11-2.5-.806l-2.142-1.237A7.05,7.05,0,0,1,83,158.434a5.346,5.346,0,0,1-.707-2.949c0-1.436.353-1.9,1.071-1.955a5.374,5.374,0,0,1,2.661.685,33.092,33.092,0,0,0,3.434,1.469,22.239,22.239,0,0,0,3.434.983,2.672,2.672,0,0,0,2.65-.883c.718-.784,1.071-2.109,1.071-4V150.2a12.08,12.08,0,0,0-2-6.659,15.963,15.963,0,0,0-5.555-5.157l-4.539-2.617q-3.595-2.07-5.6-1.281c-1.325.541-2,1.988-2,4.351v.862a1.693,1.693,0,0,0,.961,1.513l3.865,2.231c.629.364.95.232.95-.409,0-1.458.232-2.131.685-2.286s1.292.1,2.5.806l1.778,1.016a6.96,6.96,0,0,1,2.518,2.164,6.107,6.107,0,0,1,.663,3.136v.861q0,2.137-3.721.309a25.13,25.13,0,0,0-6.869-2.418,2.835,2.835,0,0,0-2.661.895,5.54,5.54,0,0,0-1.071,3.865v1.546a12.08,12.08,0,0,0,2,6.659,16.06,16.06,0,0,0,5.555,5.157l4.947,2.86c2.374,1.358,4.218,1.778,5.555,1.248S96.569,166.86,96.569,164.5Z" transform="translate(-76.515 -134.262)" fill="#fff"/>
      </g>
    </g>
    <g id="Group_8177" data-name="Group 8177" transform="translate(646.799 544.986)">
      <path id="Path_18770" data-name="Path 18770" d="M36.792,168.439c0-7.023,4.925-9.883,10.966-6.416l67.959,38.971c6.063,3.478,10.966,11.982,10.966,19v78.715c0,7.012-4.9,9.905-10.966,6.416L47.758,266.158c-6.041-3.468-10.966-11.993-10.966-19.005Z" transform="translate(-36.792 -160.55)" fill="#faa44a"/>
      <g id="Group_8176" data-name="Group 8176" transform="translate(11.352 39.603)">
        <path id="Path_18771" data-name="Path 18771" d="M45.645,168.765l-6.1-3.523c-1.027-.585-1.524-.386-1.524.574v33.405a19.208,19.208,0,0,0,3.125,10.557,24.992,24.992,0,0,0,8.779,8.161l7.266,4.2q5.731,3.3,8.857,2.065t3.125-6.99v-6.825a2.685,2.685,0,0,0-1.524-2.407l-6.173-3.567c-1.016-.585-1.524-.364-1.524.651v6.383c0,1.557-.331,2.474-.983,2.739-.652.287-1.723-.011-3.236-.884l-4.285-2.474a8.939,8.939,0,0,1-3.258-2.86,7.1,7.1,0,0,1-.95-3.854v-32.9A2.765,2.765,0,0,0,45.645,168.765Z" transform="translate(-4.255 -156.329)" fill="#fff"/>
        <path id="Path_18772" data-name="Path 18772" d="M52.867,205.957l13.793,7.962c.972.563,1.458.331,1.458-.685v-4.649a2.489,2.489,0,0,0-.287-1.292,3.038,3.038,0,0,0-1.171-.994l-12.125-7c-2.363-1.369-3.556-2.783-3.556-4.24,0-1.524.994-2.065,2.982-1.988l7.189.166c2.463.166,4.285-.144,5.444-.928s1.745-2.308,1.745-4.583a15.606,15.606,0,0,0-2.695-9.033,25.151,25.151,0,0,0-8.415-7.255l-12.125-7c-.972-.563-1.458-.331-1.458.685v4.715a2.6,2.6,0,0,0,.287,1.292,3.238,3.238,0,0,0,1.171,1L55.2,177.963c2.363,1.369,3.556,2.65,3.556,3.865,0,1.435-1.038,1.921-3.125,1.833l-7.333.121c-2.518-.1-4.285.276-5.3,1.1-1.027.85-1.524,2.429-1.524,4.749Q41.471,199.375,52.867,205.957Z" transform="translate(-41.471 -164.136)" fill="#fff"/>
      </g>
    </g>
    <g id="Group_8182" data-name="Group 8182" transform="translate(587.829 289.932)">
      <g id="Group_8180" data-name="Group 8180">
        <g id="Group_8179" data-name="Group 8179" style="isolation: isolate">
          <g id="Group_8178" data-name="Group 8178">
            <path id="Path_18773" data-name="Path 18773" d="M42.131,145.347c0-7.023,4.925-9.894,10.977-6.416L121.055,177.9c6.063,3.479,10.977,11.982,10.977,19.005v78.714c0,7.012-4.914,9.894-10.977,6.416L53.108,243.066c-6.052-3.467-10.977-12-10.977-19Z" transform="translate(-42.131 -137.453)" fill="#ef5972"/>
          </g>
        </g>
      </g>
      <g id="Group_8181" data-name="Group 8181" transform="translate(8.768 48.512)">
        <path id="Path_18774" data-name="Path 18774" d="M50.623,174.589l4.958,2.86q3.595,2.07,5.544,1.292t1.955-4.373V159.957a12.021,12.021,0,0,0-1.955-6.637,15.849,15.849,0,0,0-5.544-5.113l-4.958-2.86q-3.545-2.054-5.521-1.259c-1.325.53-1.977,1.977-1.977,4.34v2.131a1.746,1.746,0,0,0,.994,1.579l3.821,2.209c.64.365.95.221.95-.453v-1.866c0-.972.21-1.535.618-1.712s1.1.022,2.065.574l3.1,1.789a5.632,5.632,0,0,1,2.021,1.789,4.416,4.416,0,0,1,.607,2.418v13.87c0,.972-.2,1.546-.607,1.712s-1.082-.011-2.021-.552l-3.1-1.789a5.849,5.849,0,0,1-2.065-1.8,4.456,4.456,0,0,1-.618-2.43v-1.855a1.7,1.7,0,0,0-.95-1.557l-3.821-2.209q-.994-.58-.994.431v2.131a11.986,11.986,0,0,0,1.977,6.626A15.876,15.876,0,0,0,50.623,174.589Z" transform="translate(7.077 -121.562)" fill="#fff"/>
        <path id="Path_18775" data-name="Path 18775" d="M52.635,150.111l-6.184-3.567c-.4-.232-.674-.309-.817-.232s-.232.32-.232.718v2.54a1.852,1.852,0,0,0,1.049,1.657l6.184,3.567v6.272a1.92,1.92,0,0,0,1.093,1.723l2.683,1.557c.729.42,1.082.265,1.082-.464V157.6l6.184,3.578c.707.4,1.049.254,1.049-.442v-2.551a1.862,1.862,0,0,0-.232-.972,2.058,2.058,0,0,0-.817-.718l-6.184-3.578v-6.228a1.908,1.908,0,0,0-1.082-1.723l-2.683-1.546q-1.093-.63-1.093.464Z" transform="translate(-19.716 -128.358)" fill="#fff"/>
        <path id="Path_18776" data-name="Path 18776" d="M54.95,148.768,48.777,145.2q-.6-.348-.828-.232c-.144.088-.221.32-.221.718v2.54a1.844,1.844,0,0,0,1.049,1.657l6.173,3.567v6.272a1.94,1.94,0,0,0,1.093,1.723l2.683,1.546c.729.431,1.093.276,1.093-.453v-6.283L66,159.833c.7.4,1.049.254,1.049-.442v-2.551a1.835,1.835,0,0,0-.232-.972,2.058,2.058,0,0,0-.817-.718l-6.184-3.578v-6.228a1.92,1.92,0,0,0-1.093-1.723l-2.683-1.546c-.718-.42-1.093-.265-1.093.464Z" transform="translate(-47.728 -141.846)" fill="#fff"/>
      </g>
    </g>
  </g>
</svg>
