<svg xmlns="http://www.w3.org/2000/svg" width="40.783" height="51.766" viewBox="0 0 40.783 51.766">
  <g id="اپل" transform="translate(-132.896 -149.1)">
    <path id="Path_3557" data-name="Path 3557" d="M160.847,286.615a3.887,3.887,0,0,1-.558-.173c-1-.425-2.034-.771-2.992-1.29a6.133,6.133,0,0,0-3.444-.731,10.808,10.808,0,0,0-4.4,1.3,5.782,5.782,0,0,1-6.848-.7,19.26,19.26,0,0,1-4.494-5.345,62.447,62.447,0,0,1-3.484-6.6,24.905,24.905,0,0,1-1.33-4.947,19.361,19.361,0,0,1-.319-5.678c.505-5.758,2.925-10.372,8.125-13.231a9.185,9.185,0,0,1,6.236-.745,17.567,17.567,0,0,1,5.478,2.088.72.72,0,0,0,.824,0,20.857,20.857,0,0,1,5.944-2.287,11.758,11.758,0,0,1,12.938,5.744c.053.093.106.2.173.319-.585.319-1.157.6-1.689.931a8.948,8.948,0,0,0-4.415,7.074,9.142,9.142,0,0,0,6.276,9.454.978.978,0,0,1,.678,1.476c-.718,1.569-1.4,3.178-2.261,4.667A29.97,29.97,0,0,1,165.5,285.1a6.265,6.265,0,0,1-3.018,1.516Zm10.518-13.2A11.214,11.214,0,0,1,169.81,253.6c-.066-.093-.133-.186-.213-.279-.226-.253-.452-.505-.691-.731a9.811,9.811,0,0,0-9.109-2.314,19.848,19.848,0,0,0-6.236,2.633.66.66,0,0,1-.758,0c-1.383-.718-2.766-1.449-4.215-2.034a9.481,9.481,0,0,0-3.763-.6,8.011,8.011,0,0,0-4.853,1.995,13.375,13.375,0,0,0-4.814,8.271,19.46,19.46,0,0,0,.053,7.18,18.722,18.722,0,0,0,1.582,5.452c.944,1.808,1.875,3.617,2.925,5.345a17.7,17.7,0,0,0,4.122,4.933,3.861,3.861,0,0,0,4.76.452,11.457,11.457,0,0,1,4.122-1.383,8,8,0,0,1,5.864,1.1,5.517,5.517,0,0,0,1.077.559,4.02,4.02,0,0,0,4.734-.785,32.155,32.155,0,0,0,6-7.952C170.741,274.781,171.033,274.089,171.366,273.411Z" transform="translate(0 -85.75)" fill="#d5d5d5"/>
    <path id="Path_3558" data-name="Path 3558" d="M287.388,149.1c1.064,7.579-3.63,13.217-11.888,13.709a13.9,13.9,0,0,1,2.952-9.1A12.965,12.965,0,0,1,287.388,149.1Zm-1.915,2.354a10.414,10.414,0,0,0-5.984,4.189,10.682,10.682,0,0,0-1.782,4.907C283.013,159.405,285.513,155.6,285.473,151.454Z" transform="translate(-123.641)" fill="#d5d5d5"/>
  </g>
</svg>
