<svg xmlns="http://www.w3.org/2000/svg" width="46" height="44" viewBox="0 0 46 44">
  <g id="Group_8214" data-name="Group 8214" transform="translate(-1582 -3432)">
    <g id="Group_8219" data-name="Group 8219">
      <path id="Path_18850" data-name="Path 18850" d="M13,0H33A13,13,0,0,1,46,13V31A13,13,0,0,1,33,44H13A13,13,0,0,1,0,31V13A13,13,0,0,1,13,0Z" transform="translate(1582 3432)"/>
      <g id="Group_3118" data-name="Group 3118" transform="translate(1588.729 3436.305)">
        <rect id="Rectangle_7162" data-name="Rectangle 7162" width="31.902" height="31.902" rx="5" transform="translate(1.679 0.8)" fill="#212ba9"/>
        <path id="Path_4775" data-name="Path 4775" d="M-311.491,345.073q0-6.769,0-13.537a3.494,3.494,0,0,1,3.753-3.73q13.554,0,27.107,0a3.484,3.484,0,0,1,3.714,3.687q0,13.578,0,27.156a3.484,3.484,0,0,1-3.712,3.689q-13.594,0-27.189,0a3.478,3.478,0,0,1-3.673-3.646Q-311.5,351.883-311.491,345.073Zm19.007,12.066v-.951q0-3.889,0-7.779a2.672,2.672,0,0,1,2.624-2.962,2.651,2.651,0,0,1,2.563,2.922q.007,3.93,0,7.86v.869h5.194c0-3.219,0-6.377,0-9.535a7.548,7.548,0,0,0-.021-.81,6.8,6.8,0,0,0-.159-.875,6.02,6.02,0,0,0-6.983-4.445,6.226,6.226,0,0,0-3.241,2.217v-2h-5.108v15.485Zm-8.677-.014V341.667h-5.1v15.459Zm-5.643-21.545a3.07,3.07,0,0,0,3.078,3.091,3.094,3.094,0,0,0,3.115-3.066,3.07,3.07,0,0,0-3.132-3.12A3.043,3.043,0,0,0-306.8,335.581Z" transform="translate(311.492 -327.804)"/>
      </g>
    </g>
  </g>
</svg>
