<svg xmlns="http://www.w3.org/2000/svg" width="44.611" height="44.556" viewBox="0 0 44.611 44.556">
  <g id="Group_3118" data-name="Group 3118" transform="translate(0 0)">
    <rect id="Rectangle_7162" data-name="Rectangle 7162" width="41.159" height="41.159" rx="5" transform="translate(2.167 1.032)"/>
    <path id="Path_4775" data-name="Path 4775" d="M-311.49,350.084q0-8.733,0-17.465a4.508,4.508,0,0,1,4.841-4.812q17.486,0,34.973,0a4.5,4.5,0,0,1,4.792,4.757q0,17.518,0,35.035a4.5,4.5,0,0,1-4.789,4.76q-17.539,0-35.078,0a4.487,4.487,0,0,1-4.739-4.7Q-311.5,358.869-311.49,350.084Zm24.521,15.567v-1.226q0-5.018,0-10.036c0-2.276,1.393-3.835,3.385-3.822,1.943.013,3.3,1.556,3.306,3.77q.009,5.07,0,10.141V365.6h6.7c0-4.153,0-8.227,0-12.3a9.746,9.746,0,0,0-.027-1.045,8.772,8.772,0,0,0-.2-1.129c-.97-3.975-5.264-6.714-9.01-5.735A8.033,8.033,0,0,0-287,348.249v-2.577h-6.59v19.979Zm-11.195-.017V345.689h-6.574v19.945Zm-7.281-27.8a3.961,3.961,0,0,0,3.971,3.988,3.992,3.992,0,0,0,4.019-3.956,3.96,3.96,0,0,0-4.04-4.025A3.926,3.926,0,0,0-305.445,337.837Z" transform="translate(311.492 -327.804)" fill="#fff"/>
  </g>
</svg>
