<svg xmlns="http://www.w3.org/2000/svg" width="416.58" height="355.373" viewBox="0 0 416.58 355.373">
  <g id="Group_1" data-name="Group 1" transform="translate(-109.269 -134.14)">
    <path id="Path_1" data-name="Path 1" d="M378.844,170.339,525.849,317.927c-.685.816-1.465,1.894-2.391,2.828q-34.9,35.208-69.843,70.381c-3.614,3.637-7.567,6.962-10.965,10.786-4.284,4.824-9.4,6.233-15.72,6.188-26.924-.192-53.852.12-80.776-.072-4.816-.034-6.324,1.853-7.5,6.137-4.243,15.406-8.8,30.73-13.541,45.991-2.221,7.152-4.473,14.429-7.9,21.035-3.909,7.546-11.558,10.025-17.813,7.146-6.443-2.967-9.357-10.564-7.05-18.61q5.3-18.48,10.692-36.93c5.149-17.513,10.379-35,15.552-52.509,9.02-30.52,18.181-61,26.985-91.58,7.758-26.949,15.09-54.02,22.649-81.026C371.634,195.525,375.134,183.384,378.844,170.339Zm15.074,53.408c-15.079,52.638-29.909,104.408-44.766,156.273,23.433,0,46.706-.1,69.976.086a13.489,13.489,0,0,0,10.693-4.568q24.342-25.3,49.038-50.26c7.9-7.933,7.956-7.511.066-15.348q-33.063-32.841-65.84-65.972C406.735,237.558,400.666,230.879,393.918,223.747Z" fill="#d5d5d5"/>
    <path id="Path_2" data-name="Path 2" d="M297.245,225.457q8.129-26.3,16.247-52.6c3.092-10.09,5.983-20.243,9.132-30.315,1.425-4.559,3.929-8.2,9.416-8.392a13.85,13.85,0,0,1,13.4,7.643c3.079,5.67,3.345,11.886,1.6,18.069-6.977,24.664-13.877,49.351-21.11,73.94-4.377,14.88-9.313,29.6-14.01,44.382-.174.547-.475,1.054-1.1,2.4-3.041-3.023-5.8-5.683-8.468-8.435q-21.564-22.263-43.1-44.552a34.73,34.73,0,0,0-4.383-3.914c-4.773-3.484-7.524-3.078-11.758,1.151C229.266,238.66,215.3,252.357,201.5,266.224c-16.566,16.65-32.957,33.475-49.551,50.1-2.993,3-1.081,4.666.9,6.636,11.135,11.066,22.327,22.074,33.4,33.2q25.392,25.524,50.666,51.167c1.549,1.562,3.265,2.957,5.763,5.2l21.4-65.687c3.855,4.085,7.039,7.425,10.184,10.8,3.4,3.65,7.017,7.139,10.006,11.1a8.27,8.27,0,0,1,1.321,6.42c-8.608,27.8-17.473,55.512-26.261,83.251-.795,2.509-1.482,5.051-2.311,7.893L109.269,318.644c5.132-4.917,10.294-9.678,15.251-14.644q39-39.072,77.893-78.262c7.846-7.93,15.588-16,22.9-24.417,11.26-12.971,32.484-11.658,43.409-1.971,8.89,7.882,17.2,16.418,25.73,24.706a6.622,6.622,0,0,1,.963,2.069Z" fill="#d5d5d5"/>
  </g>
</svg>
