<svg xmlns="http://www.w3.org/2000/svg" xmlns:xlink="http://www.w3.org/1999/xlink" width="506.5" height="319.672" viewBox="0 0 506.5 319.672">
  <defs>
    <linearGradient id="linear-gradient" x1="0.439" y1="0.5" x2="0.571" y2="0.5" gradientUnits="objectBoundingBox">
      <stop offset="0" stop-color="#c5c1c0"/>
      <stop offset="1" stop-color="#d8d4d3"/>
    </linearGradient>
    <linearGradient id="linear-gradient-2" y1="0.5" x2="1" y2="0.5" gradientUnits="objectBoundingBox">
      <stop offset="0" stop-color="#d8d4d3"/>
      <stop offset="1" stop-color="#c5c1c0"/>
    </linearGradient>
    <clipPath id="clip-path">
      <path id="Path_8341" data-name="Path 8341" d="M375.114,373c-48.664-28.1-127.561-28.1-175.905,0s-48.074,73.79.59,101.885c48.644,28.085,127.542,28.085,175.871,0C424.018,446.79,423.763,401.085,375.114,373Z" transform="translate(-163.13 -351.929)" fill="#738bff"/>
    </clipPath>
    <linearGradient id="linear-gradient-3" x1="0" y1="0.5" x2="1" y2="0.5" xlink:href="#linear-gradient"/>
    <linearGradient id="linear-gradient-4" y1="0.5" x2="1" y2="0.5" gradientUnits="objectBoundingBox">
      <stop offset="0" stop-color="#ede8e3"/>
      <stop offset="1" stop-color="#fbf6f0"/>
    </linearGradient>
    <linearGradient id="linear-gradient-5" x1="0.601" y1="0.182" x2="0.315" y2="0.741" gradientUnits="objectBoundingBox">
      <stop offset="0" stop-color="#fbf6f0"/>
      <stop offset="1" stop-color="#e1dcd8"/>
    </linearGradient>
    <linearGradient id="linear-gradient-6" x1="0.556" y1="0.29" x2="0.397" y2="0.659" gradientUnits="objectBoundingBox">
      <stop offset="0" stop-color="#3f3434"/>
      <stop offset="1" stop-color="#30262c"/>
    </linearGradient>
    <radialGradient id="radial-gradient" cx="0.817" cy="0.001" r="1.302" gradientTransform="translate(-0.119) scale(1.237 1)" gradientUnits="objectBoundingBox">
      <stop offset="0" stop-color="#ffb8f4"/>
      <stop offset="0.007" stop-color="#f5b1eb"/>
      <stop offset="0.048" stop-color="#c790bf"/>
      <stop offset="0.093" stop-color="#9c7196"/>
      <stop offset="0.142" stop-color="#775571"/>
      <stop offset="0.195" stop-color="#563e52"/>
      <stop offset="0.254" stop-color="#3b2a38"/>
      <stop offset="0.32" stop-color="#251a23"/>
      <stop offset="0.397" stop-color="#140e13"/>
      <stop offset="0.493" stop-color="#080608"/>
      <stop offset="0.627" stop-color="#010101"/>
      <stop offset="1"/>
    </radialGradient>
  </defs>
  <g id="_10" data-name="10" transform="translate(-141.023 -348.015)">
    <path id="Path_8205" data-name="Path 8205" d="M363.1,466.486,336.89,481.617a6.813,6.813,0,0,1-6.819,0L210.278,412.454l32.259-18.627L363.1,463.438A1.762,1.762,0,0,1,363.1,466.486Z" transform="translate(271.206 179.403)" fill="#646069" opacity="0.5" style="mix-blend-mode: multiply;isolation: isolate"/>
    <path id="Path_8206" data-name="Path 8206" d="M513.462,461.968l-149.6-86.37c-8.736-5.044-21.021-6.71-32.19-5.137-11.189-1.573-23.454.093-32.131,5.137L150.91,461.973c-13.2,7.669-13.18,20.2.039,27.83l149.718,86.438c6.573,3.8,15.112,5.683,23.685,5.722q8.51.037,17.014,0c8.574-.039,17.093-1.927,23.626-5.722L513.62,489.866C526.849,482.177,526.814,469.676,513.462,461.968Z" transform="translate(0 85.664)" fill="#646069" opacity="0.5" style="mix-blend-mode: multiply;isolation: isolate"/>
    <g id="Group_3394" data-name="Group 3394" transform="translate(158.574 433.865)">
      <g id="Group_3393" data-name="Group 3393" style="isolation: isolate">
        <path id="Path_8207" data-name="Path 8207" d="M144.652,387.038l-.059,21.63c-.015,5.083,3.338,10.176,10.043,14.05l149.6,86.37c13.352,7.708,34.9,7.708,48.162,0L501.03,422.714c6.573-3.82,9.871-8.834,9.886-13.853l.064-21.63Z" transform="translate(-144.593 -281.048)" fill="url(#linear-gradient)"/>
        <path id="Path_8208" data-name="Path 8208" d="M510.98,387.23l-.064,21.63c-.015,5.019-3.313,10.034-9.886,13.853l.059-21.631C507.666,397.263,510.965,392.249,510.98,387.23Zm-366.328-.192-.059,21.63c-.015,5.083,3.338,10.176,10.043,14.05l.064-21.635C147.995,397.214,144.637,392.121,144.652,387.038ZM304.3,487.458l-.064,21.631c13.352,7.708,34.9,7.708,48.162,0l.064-21.631C339.2,495.166,317.647,495.166,304.3,487.458Z" transform="translate(-144.593 -281.048)" fill="#e0dbda" opacity="0.2" style="mix-blend-mode: screen;isolation: isolate"/>
        <g id="Group_3392" data-name="Group 3392" transform="translate(0.061)">
          <path id="Path_8209" data-name="Path 8209" d="M500.883,457.614c13.352,7.708,13.386,20.21.157,27.9L352.414,571.887c-13.263,7.708-34.81,7.708-48.162,0l-149.6-86.375c-13.318-7.684-13.421-20.185-.157-27.893l148.626-86.375c13.229-7.689,34.845-7.689,48.162,0Z" transform="translate(-144.605 -365.478)" fill="#6575ea"/>
        </g>
      </g>
    </g>
    <path id="Path_8210" data-name="Path 8210" d="M341.33,391.071l-17.914-10.348a31.885,31.885,0,0,0-15.6-4.562,29.03,29.03,0,0,0-15.348,4.179l-3.948,2.3a12.409,12.409,0,0,0-4.444,4.071,3.8,3.8,0,0,0,.221,4.474l-.388.226-3.23-1.863a3.813,3.813,0,0,0-4.08.02l-8.2,4.769c-1.357.787-1.391,1.573-.029,2.36l58.894,34a3.739,3.739,0,0,0,4-.069l8.2-4.768c1.352-.786,1.426-1.548.1-2.315l-16.557-9.557.388-.226a17.839,17.839,0,0,0,7.728.113,23.324,23.324,0,0,0,7.01-2.586L342.092,409c4.955-2.881,7.384-5.875,7.172-8.908C349.092,397.03,346.472,394.036,341.33,391.071ZM328.479,404.5l-4.257,2.473c-4.449,2.586-9.109,2.448-14.021-.384l-13.436-7.757c-4.945-2.856-5.2-5.555-.747-8.141l4.257-2.473a11.814,11.814,0,0,1,5.7-1.824,12.026,12.026,0,0,1,5.757,1.8l16.749,9.67c2.065,1.195,3.082,2.315,3.127,3.328Q331.554,402.708,328.479,404.5Zm-38.035,16.144L272.525,410.3a32.161,32.161,0,0,0-15.554-4.587,29.179,29.179,0,0,0-15.392,4.2l-3.948,2.3a12.045,12.045,0,0,0-4.4,4.046,3.774,3.774,0,0,0,.182,4.5l-.388.226-3.235-1.868a3.746,3.746,0,0,0-4.036,0l-8.244,4.793c-1.352.787-1.347,1.549.015,2.335l58.894,34a3.662,3.662,0,0,0,3.957-.044l8.244-4.793c1.357-.787,1.391-1.529.064-2.291l-16.552-9.557.388-.226a17.7,17.7,0,0,0,7.762.089,22.964,22.964,0,0,0,6.976-2.561l3.948-2.3c4.99-2.9,7.379-5.87,7.207-8.927C298.2,426.6,295.586,423.611,290.444,420.641Zm-12.855,13.426-4.218,2.453c-4.449,2.586-9.149,2.473-14.055-.359L245.88,428.4c-4.95-2.856-5.157-5.575-.708-8.161l4.218-2.453a9.97,9.97,0,0,1,11.454-.02l16.749,9.67c2.065,1.19,3.117,2.291,3.122,3.328Q280.723,432.246,277.589,434.067Zm-22.157,22.938-73.79-24.895a5.661,5.661,0,0,0-4.965.5l-12.846,7.468c-1.475.855-1.74,1.819-.841,2.876l43.222,42.661a3.519,3.519,0,0,0,.742.6,2.3,2.3,0,0,0,2.443-.1l9.286-5.4c.659-.383,1-.723.964-1.057.039-.339-.315-.767-.978-1.283l-8-7.757,18.887-10.978,13.421,4.611a5.986,5.986,0,0,0,2.178.585,3.368,3.368,0,0,0,1.858-.585l9.286-5.4c.87-.507.934-.973.172-1.411A5.453,5.453,0,0,0,255.432,457.005Zm-52.375,6.524L181.9,443.245l.383-.226,35.091,12.187Z" transform="translate(83.998 110.198)" fill="#fff"/>
    <path id="Path_8211" data-name="Path 8211" d="M430,452.334l4.036,2.212V472c-.423.275-.821.556-1.268.816l-9.38,5.452L401.92,490.664V473.09l-4.021-2.222c-2.532-1.46-2.532-3.834,0-5.295l.737-.428-26.384-15.235c-50.778,23.184-124.931,21.242-171.987-5.929-30.922-17.855-43.084-42.524-36.511-65.708l6.936-4.031c-9.375,23.484,1.775,49.214,33.439,67.5,48.644,28.085,127.542,28.085,175.871,0,15.289-8.883,25.671-19.536,31.232-30.828l4.341,2.507c-4.587,8.578-11.808,16.778-21.837,24.123l26.355,15.215.742-.423A10.112,10.112,0,0,1,430,452.334Z" transform="translate(82.242 102.711)" fill="#514a53" opacity="0.4" style="mix-blend-mode: multiply;isolation: isolate"/>
    <g id="Group_3400" data-name="Group 3400" transform="translate(244.157 348.015)">
      <g id="Group_3399" data-name="Group 3399">
        <g id="Group_3398" data-name="Group 3398">
          <path id="Path_8212" data-name="Path 8212" d="M411.831,421.019l-.079,26.822c.054-18.568-12.172-37.16-36.649-51.289-48.664-28.1-127.561-28.1-175.91,0-24,13.952-36.025,32.249-36.079,50.576l.079-26.817c.049-18.332,12.069-36.629,36.079-50.581,48.344-28.1,127.242-28.1,175.905,0,24.477,14.134,36.7,32.726,36.654,51.289Z" transform="translate(-157.647 -345.492)" fill="url(#linear-gradient-2)"/>
          <path id="Path_8213" data-name="Path 8213" d="M199.188,380.092c48.344-28.1,127.242-28.1,175.905,0,22.451,12.964,34.574,29.678,36.388,46.683,2.1-19.964-10.019-40.361-36.388-55.586-48.664-28.1-127.561-28.1-175.905,0-26.021,15.122-37.932,35.346-35.813,55.182C165.145,409.51,177.056,392.952,199.188,380.092Z" transform="translate(-157.564 -339.778)" fill="#3f57c9"/>
          <g id="Group_3397" data-name="Group 3397" transform="translate(5.546 19.242)">
            <path id="Path_8214" data-name="Path 8214" d="M375.114,373c-48.664-28.1-127.561-28.1-175.905,0s-48.074,73.79.59,101.885c48.644,28.085,127.542,28.085,175.871,0C424.018,446.79,423.763,401.085,375.114,373Z" transform="translate(-163.13 -351.929)" fill="#738bff"/>
            <g id="Group_3396" data-name="Group 3396" clip-path="url(#clip-path)">
              <g id="Group_3395" data-name="Group 3395" transform="translate(-85.125 -87.376)">
                <path id="Path_8215" data-name="Path 8215" d="M148.822,369.529l1.376-2.969,15.613,9.011a.952.952,0,0,0,1.018,0l1.942-1.121c.32-.182.31-.374-.029-.57l-18.214-10.515a.951.951,0,0,0-1.018,0l-1.794,1.037a1.592,1.592,0,0,0-.629.742l-1.224,2.881c-.118.256-.02.472.3.659l1.765,1.018A.588.588,0,0,0,148.822,369.529Z" transform="translate(-145.814 -220.347)" fill="#fff"/>
                <path id="Path_8216" data-name="Path 8216" d="M169.415,375.672l2.994-1.726q2.183-1.261,2.183-2.674t-2.183-2.679l-9.96-5.752a9.124,9.124,0,0,0-4.651-1.268,9.218,9.218,0,0,0-4.621,1.273l-2.989,1.726q-2.212,1.276-2.232,2.684t2.2,2.684l9.96,5.752a9.161,9.161,0,0,0,9.3-.02ZM153.236,368.3q-2.212-1.283-.059-2.522l2.124-1.229a4.1,4.1,0,0,1,4.365.035l9.719,5.614q2.22,1.276.064,2.522l-2.124,1.224a4.093,4.093,0,0,1-4.37-.034Z" transform="translate(-137.427 -226.785)" fill="#fff"/>
                <path id="Path_8217" data-name="Path 8217" d="M172.627,373.818l2.994-1.726q2.183-1.261,2.183-2.679c0-.944-.728-1.839-2.183-2.674l-9.96-5.752a9.106,9.106,0,0,0-9.272,0l-2.989,1.726q-2.212,1.283-2.232,2.684t2.2,2.689l9.96,5.747a9.145,9.145,0,0,0,9.3-.015Zm-16.179-7.374q-2.212-1.276-.059-2.522l2.124-1.224a4.084,4.084,0,0,1,4.365.034l9.719,5.609q2.22,1.283.064,2.522l-2.124,1.229a4.1,4.1,0,0,1-4.37-.039Z" transform="translate(-124.849 -234.046)" fill="#fff"/>
                <path id="Path_8218" data-name="Path 8218" d="M157.236,364.668l1.376-2.969,15.608,9.016a.962.962,0,0,0,1.018,0l1.947-1.126c.32-.182.31-.374-.029-.57L158.942,358.5a.972.972,0,0,0-1.018,0l-1.794,1.037a1.618,1.618,0,0,0-.629.742l-1.224,2.886c-.118.251-.02.472.295.654l1.765,1.018A.592.592,0,0,0,157.236,364.668Z" transform="translate(-112.865 -239.369)" fill="#fff"/>
                <path id="Path_8219" data-name="Path 8219" d="M159.23,363.523l1.372-2.969,15.613,9.011a.951.951,0,0,0,1.018,0l1.942-1.121c.32-.187.31-.374-.029-.57l-18.214-10.515a.951.951,0,0,0-1.018,0l-1.789,1.032a1.58,1.58,0,0,0-.629.747l-1.229,2.881c-.118.256-.02.472.3.659l1.765,1.018A.6.6,0,0,0,159.23,363.523Z" transform="translate(-105.076 -243.867)" fill="#fff"/>
                <path id="Path_8220" data-name="Path 8220" d="M161.219,362.374,162.6,359.4l15.608,9.016a.972.972,0,0,0,1.018,0l1.947-1.126c.32-.182.3-.374-.029-.57l-18.214-10.515a.951.951,0,0,0-1.018,0l-1.794,1.037a1.59,1.59,0,0,0-.629.742l-1.229,2.881c-.118.256-.02.477.3.659l1.765,1.018A.594.594,0,0,0,161.219,362.374Z" transform="translate(-97.287 -248.366)" fill="#fff"/>
                <path id="Path_8221" data-name="Path 8221" d="M163.2,361.226l1.376-2.969,15.608,9.011a.951.951,0,0,0,1.018,0l1.947-1.121c.32-.187.31-.379-.029-.57L164.91,355.062a.951.951,0,0,0-1.018,0l-1.794,1.032a1.618,1.618,0,0,0-.629.742l-1.224,2.886c-.118.256-.02.472.3.654l1.765,1.023A.591.591,0,0,0,163.2,361.226Z" transform="translate(-89.494 -252.862)" fill="#fff"/>
                <path id="Path_8222" data-name="Path 8222" d="M165.2,360.077l1.372-2.969,15.613,9.011a.952.952,0,0,0,1.018,0L185.147,365c.315-.182.3-.374-.034-.57L166.9,353.912a.951.951,0,0,0-1.018,0l-1.794,1.037a1.566,1.566,0,0,0-.629.742l-1.229,2.881c-.118.256-.02.472.3.659l1.765,1.018A.594.594,0,0,0,165.2,360.077Z" transform="translate(-81.705 -257.362)" fill="#fff"/>
                <path id="Path_8223" data-name="Path 8223" d="M185.79,366.22l2.989-1.726q2.183-1.261,2.183-2.679t-2.183-2.674l-9.96-5.752a9.106,9.106,0,0,0-9.272,0l-2.989,1.73q-2.212,1.276-2.232,2.684t2.2,2.684l9.96,5.752a9.17,9.17,0,0,0,9.306-.02Zm-16.184-7.369q-2.212-1.283-.059-2.522l2.124-1.229a4.1,4.1,0,0,1,4.365.035l9.719,5.614q2.22,1.276.064,2.522l-2.124,1.224a4.093,4.093,0,0,1-4.37-.034Z" transform="translate(-73.318 -263.8)" fill="#fff"/>
                <path id="Path_8224" data-name="Path 8224" d="M170.395,357.074l1.377-2.969,15.608,9.011a.951.951,0,0,0,1.018,0L190.344,362c.319-.187.31-.374-.03-.57L172.1,350.909a.952.952,0,0,0-1.018,0l-1.794,1.037a1.593,1.593,0,0,0-.629.742l-1.224,2.881c-.118.256-.02.472.3.659l1.765,1.018A.588.588,0,0,0,170.395,357.074Z" transform="translate(-61.334 -269.121)" fill="#fff"/>
                <path id="Path_8225" data-name="Path 8225" d="M190.987,363.217l2.989-1.725q2.19-1.261,2.188-2.679t-2.188-2.674l-9.96-5.752a9.1,9.1,0,0,0-9.267,0l-2.994,1.73q-2.212,1.276-2.227,2.684t2.2,2.684l9.96,5.752a9.16,9.16,0,0,0,9.3-.02Zm-16.179-7.369q-2.22-1.283-.059-2.527l2.119-1.224a4.113,4.113,0,0,1,4.37.034l9.719,5.614q2.212,1.276.059,2.522l-2.124,1.224a4.094,4.094,0,0,1-4.365-.035Z" transform="translate(-52.946 -275.559)" fill="#fff"/>
                <path id="Path_8226" data-name="Path 8226" d="M175.6,354.071l1.372-2.969,15.613,9.011a.951.951,0,0,0,1.018,0l1.942-1.121c.32-.187.31-.374-.029-.57L177.3,347.906a.943.943,0,0,0-1.013,0l-1.794,1.032a1.59,1.59,0,0,0-.629.742l-1.229,2.886c-.118.256-.02.472.3.659l1.765,1.018A.6.6,0,0,0,175.6,354.071Z" transform="translate(-40.966 -280.881)" fill="#fff"/>
                <path id="Path_8227" data-name="Path 8227" d="M196.189,360.214l2.994-1.726q2.183-1.261,2.183-2.679t-2.183-2.674l-9.96-5.752a9.106,9.106,0,0,0-9.272,0l-2.989,1.731q-2.212,1.276-2.232,2.684c-.01.934.723,1.834,2.2,2.684l9.96,5.752a9.16,9.16,0,0,0,9.3-.02ZM180.01,352.84q-2.212-1.276-.059-2.522l2.124-1.224a4.094,4.094,0,0,1,4.365.034l9.719,5.614q2.22,1.276.064,2.517l-2.124,1.229a4.1,4.1,0,0,1-4.37-.034Z" transform="translate(-32.579 -287.319)" fill="#fff"/>
                <path id="Path_8228" data-name="Path 8228" d="M180.8,351.063l1.377-2.969,15.613,9.016a.952.952,0,0,0,1.018,0l1.942-1.126c.319-.182.31-.374-.03-.57L182.5,344.9a.951.951,0,0,0-1.018,0l-1.794,1.032a1.618,1.618,0,0,0-.629.742l-1.224,2.886c-.118.251-.02.472.3.654l1.765,1.023A.592.592,0,0,0,180.8,351.063Z" transform="translate(-20.595 -292.641)" fill="#fff"/>
                <path id="Path_8229" data-name="Path 8229" d="M182.792,349.919l1.372-2.969,15.613,9.011a.951.951,0,0,0,1.018,0l1.942-1.121c.32-.187.31-.374-.03-.57l-18.214-10.515a.943.943,0,0,0-1.013,0l-1.794,1.037a1.565,1.565,0,0,0-.629.742l-1.229,2.881c-.118.256-.02.472.3.659l1.765,1.018A.593.593,0,0,0,182.792,349.919Z" transform="translate(-12.806 -297.141)" fill="#fff"/>
                <path id="Path_8230" data-name="Path 8230" d="M203.379,356.062l2.994-1.725c1.455-.841,2.183-1.731,2.183-2.679s-.728-1.834-2.183-2.674l-9.96-5.752a9.125,9.125,0,0,0-4.651-1.268,9.26,9.26,0,0,0-4.621,1.268l-2.989,1.73q-2.212,1.276-2.232,2.684t2.2,2.684l9.96,5.752a9.16,9.16,0,0,0,9.3-.02ZM187.2,348.693q-2.212-1.283-.059-2.527l2.124-1.224a4.1,4.1,0,0,1,4.365.034l9.719,5.614q2.22,1.276.064,2.522l-2.124,1.224a4.093,4.093,0,0,1-4.37-.035Z" transform="translate(-4.419 -303.579)" fill="#fff"/>
                <path id="Path_8231" data-name="Path 8231" d="M187.989,346.916l1.376-2.969,15.608,9.011a.951.951,0,0,0,1.018,0l1.947-1.121c.32-.187.31-.374-.029-.57l-18.214-10.515a.951.951,0,0,0-1.018,0l-1.794,1.037a1.568,1.568,0,0,0-.629.742l-1.224,2.881c-.118.256-.02.472.295.659l1.765,1.018A.592.592,0,0,0,187.989,346.916Z" transform="translate(7.565 -308.9)" fill="#fff"/>
                <path id="Path_8232" data-name="Path 8232" d="M208.582,353.059l2.994-1.726q2.183-1.261,2.183-2.679t-2.188-2.674l-9.96-5.752a9.1,9.1,0,0,0-9.267,0l-2.994,1.731q-2.212,1.276-2.227,2.679t2.2,2.689l9.96,5.752a9.16,9.16,0,0,0,9.3-.02ZM192.4,345.685q-2.212-1.276-.059-2.522l2.124-1.224a4.094,4.094,0,0,1,4.365.034l9.719,5.614c1.48.85,1.495,1.691.064,2.522l-2.124,1.224a4.1,4.1,0,0,1-4.37-.034Z" transform="translate(15.952 -315.338)" fill="#fff"/>
                <path id="Path_8233" data-name="Path 8233" d="M193.195,343.913l1.376-2.969,15.608,9.011a.952.952,0,0,0,1.018,0l1.947-1.121c.315-.187.3-.379-.034-.57L194.9,337.748a.951.951,0,0,0-1.018,0l-1.794,1.032a1.589,1.589,0,0,0-.629.742l-1.229,2.886c-.118.256-.02.472.3.654l1.765,1.023A.6.6,0,0,0,193.195,343.913Z" transform="translate(27.932 -320.66)" fill="#fff"/>
                <path id="Path_8234" data-name="Path 8234" d="M195.18,342.764l1.376-2.969,15.608,9.011a.951.951,0,0,0,1.018,0l1.947-1.121c.32-.182.31-.374-.029-.57L196.886,336.6a.951.951,0,0,0-1.018,0l-1.794,1.037a1.593,1.593,0,0,0-.629.742l-1.224,2.881c-.118.256-.02.472.295.659l1.765,1.018A.592.592,0,0,0,195.18,342.764Z" transform="translate(35.725 -325.16)" fill="#fff"/>
                <path id="Path_8235" data-name="Path 8235" d="M197.169,341.611l1.377-2.964,15.613,9.011a.951.951,0,0,0,1.018,0l1.942-1.126c.32-.182.31-.374-.029-.565l-18.214-10.515a.951.951,0,0,0-1.018,0l-1.794,1.032a1.618,1.618,0,0,0-.629.742l-1.224,2.886c-.118.256-.02.472.3.654l1.765,1.022A.588.588,0,0,0,197.169,341.611Z" transform="translate(43.514 -329.655)" fill="#fff"/>
                <path id="Path_8236" data-name="Path 8236" d="M199.163,340.467l1.372-2.969,15.613,9.011a.951.951,0,0,0,1.018,0l1.942-1.121c.32-.182.31-.374-.03-.57L200.864,334.3a.943.943,0,0,0-1.013,0l-1.794,1.037a1.566,1.566,0,0,0-.629.742l-1.229,2.881c-.118.256-.02.472.3.659l1.765,1.018A.594.594,0,0,0,199.163,340.467Z" transform="translate(51.303 -334.155)" fill="#fff"/>
                <path id="Path_8237" data-name="Path 8237" d="M156.123,373.744l1.376-2.969,15.608,9.011a.952.952,0,0,0,1.018,0l1.947-1.121c.32-.182.31-.374-.029-.57L157.829,367.58a.951.951,0,0,0-1.018,0l-1.794,1.037a1.593,1.593,0,0,0-.629.742l-1.224,2.881c-.118.256-.02.472.295.659l1.765,1.018A.592.592,0,0,0,156.123,373.744Z" transform="translate(-117.223 -203.841)" fill="#fff"/>
                <path id="Path_8238" data-name="Path 8238" d="M158.112,372.591l1.376-2.969,15.613,9.016a.951.951,0,0,0,1.018,0l1.942-1.126c.32-.182.31-.374-.029-.565l-18.214-10.515a.951.951,0,0,0-1.018,0l-1.794,1.032a1.618,1.618,0,0,0-.629.742l-1.224,2.886c-.118.256-.02.472.3.654l1.765,1.023A.589.589,0,0,0,158.112,372.591Z" transform="translate(-109.434 -208.337)" fill="#fff"/>
                <path id="Path_8239" data-name="Path 8239" d="M157.441,370.6l1.765,1.018a.594.594,0,0,0,.9-.172l1.372-2.969,15.613,9.011a.952.952,0,0,0,1.018,0l1.942-1.121c.32-.182.31-.374-.029-.57l-18.209-10.515a.951.951,0,0,0-1.018,0L159,366.32a1.566,1.566,0,0,0-.629.742l-1.229,2.881C157.023,370.2,157.122,370.42,157.441,370.6Z" transform="translate(-101.645 -212.836)" fill="#fff"/>
                <path id="Path_8240" data-name="Path 8240" d="M162.779,364.13l-1.794,1.037a1.618,1.618,0,0,0-.629.742l-1.224,2.886c-.118.251-.02.472.3.654l1.765,1.023a.592.592,0,0,0,.895-.177l1.376-2.969,15.608,9.016a.951.951,0,0,0,1.018,0l1.947-1.126c.32-.182.31-.374-.03-.57L163.8,364.13A.972.972,0,0,0,162.779,364.13Z" transform="translate(-93.852 -217.333)" fill="#fff"/>
                <path id="Path_8241" data-name="Path 8241" d="M164.085,369.15l1.372-2.969,15.613,9.011a.952.952,0,0,0,1.018,0l1.942-1.121c.32-.187.31-.374-.03-.57l-18.214-10.515a.951.951,0,0,0-1.018,0l-1.789,1.037a1.542,1.542,0,0,0-.629.742l-1.229,2.881c-.118.256-.02.472.3.659l1.765,1.018A.6.6,0,0,0,164.085,369.15Z" transform="translate(-86.063 -221.831)" fill="#fff"/>
                <path id="Path_8242" data-name="Path 8242" d="M166.074,368l1.377-2.969,15.608,9.016a.962.962,0,0,0,1.018,0l1.947-1.126c.315-.182.3-.374-.034-.57L167.78,361.833a.972.972,0,0,0-1.018,0l-1.794,1.037a1.588,1.588,0,0,0-.629.742l-1.229,2.886c-.118.251-.02.472.3.654l1.765,1.018A.593.593,0,0,0,166.074,368Z" transform="translate(-78.274 -226.328)" fill="#fff"/>
                <path id="Path_8243" data-name="Path 8243" d="M186.663,374.149l2.989-1.73q2.183-1.261,2.183-2.674t-2.183-2.679l-9.96-5.747a9.069,9.069,0,0,0-4.651-1.273,9.2,9.2,0,0,0-4.616,1.273l-2.994,1.726q-2.212,1.276-2.227,2.684t2.2,2.684l9.96,5.752a9.176,9.176,0,0,0,9.3-.015Zm-16.179-7.374q-2.22-1.283-.064-2.522l2.124-1.229a4.1,4.1,0,0,1,4.37.039l9.719,5.609c1.475.855,1.494,1.691.059,2.522l-2.124,1.224a4.084,4.084,0,0,1-4.365-.034Z" transform="translate(-69.883 -232.769)" fill="#fff"/>
                <path id="Path_8244" data-name="Path 8244" d="M168.611,364.153l1.765,1.018a.594.594,0,0,0,.9-.172l1.372-2.969,15.613,9.011a.951.951,0,0,0,1.018,0l1.942-1.121c.32-.182.31-.374-.029-.57l-18.214-10.515a.951.951,0,0,0-1.018,0l-1.794,1.037a1.586,1.586,0,0,0-.624.742l-1.229,2.881C168.193,363.75,168.292,363.971,168.611,364.153Z" transform="translate(-57.903 -238.091)" fill="#fff"/>
                <path id="Path_8245" data-name="Path 8245" d="M172.6,365.409l9.96,5.752a9.159,9.159,0,0,0,9.3-.02l2.994-1.726q2.183-1.261,2.183-2.674t-2.183-2.679l-9.96-5.752a9.125,9.125,0,0,0-4.651-1.268,9.218,9.218,0,0,0-4.621,1.273l-2.989,1.726q-2.212,1.276-2.232,2.684T172.6,365.409Zm3.082-1.637q-2.212-1.283-.059-2.522l2.124-1.229a4.094,4.094,0,0,1,4.365.039l9.719,5.609q2.22,1.276.064,2.522l-2.124,1.224a4.092,4.092,0,0,1-4.37-.034Z" transform="translate(-49.516 -244.529)" fill="#fff"/>
                <path id="Path_8246" data-name="Path 8246" d="M173.812,361.15l1.765,1.018a.593.593,0,0,0,.9-.172l1.376-2.969,15.608,9.011a.952.952,0,0,0,1.018,0l1.947-1.121c.32-.182.3-.374-.029-.57l-18.214-10.515a.951.951,0,0,0-1.018,0l-1.794,1.037a1.565,1.565,0,0,0-.629.742l-1.229,2.881C173.394,360.747,173.493,360.963,173.812,361.15Z" transform="translate(-37.536 -249.851)" fill="#fff"/>
                <path id="Path_8247" data-name="Path 8247" d="M177.8,362.406l9.96,5.752a9.161,9.161,0,0,0,9.3-.02l2.989-1.726c1.455-.841,2.183-1.735,2.183-2.674s-.728-1.839-2.183-2.679l-9.96-5.752a9.082,9.082,0,0,0-9.267,0l-2.994,1.725q-2.212,1.276-2.227,2.684T177.8,362.406Zm3.082-1.637q-2.22-1.283-.064-2.522l2.124-1.229a4.113,4.113,0,0,1,4.37.035l9.719,5.614q2.212,1.276.059,2.522l-2.124,1.224a4.094,4.094,0,0,1-4.365-.034Z" transform="translate(-29.145 -256.289)" fill="#fff"/>
                <path id="Path_8248" data-name="Path 8248" d="M181.017,360.556l9.96,5.747a9.145,9.145,0,0,0,9.3-.015l2.989-1.731c1.46-.836,2.188-1.73,2.188-2.674s-.733-1.839-2.188-2.679l-9.96-5.747a9.067,9.067,0,0,0-9.267,0l-2.994,1.726q-2.212,1.283-2.227,2.684T181.017,360.556Zm3.082-1.642c-1.48-.855-1.5-1.691-.064-2.522l2.124-1.229a4.1,4.1,0,0,1,4.37.039l9.719,5.609q2.212,1.283.059,2.522l-2.124,1.229a4.094,4.094,0,0,1-4.365-.039Z" transform="translate(-16.566 -263.553)" fill="#fff"/>
                <path id="Path_8249" data-name="Path 8249" d="M184.891,357.134l1.372-2.969,15.613,9.016a.962.962,0,0,0,1.018,0l1.942-1.126c.32-.182.31-.374-.029-.57L186.592,350.97a.972.972,0,0,0-1.018,0l-1.789,1.037a1.589,1.589,0,0,0-.629.742l-1.229,2.886c-.118.251-.02.472.3.654l1.765,1.018A.594.594,0,0,0,184.891,357.134Z" transform="translate(-4.587 -268.872)" fill="#fff"/>
                <path id="Path_8250" data-name="Path 8250" d="M186.217,357.548l9.96,5.752a9.17,9.17,0,0,0,9.306-.02l2.989-1.726q2.183-1.261,2.183-2.674t-2.183-2.679l-9.96-5.747a9.069,9.069,0,0,0-4.651-1.273,9.218,9.218,0,0,0-4.621,1.273l-2.989,1.725q-2.212,1.276-2.232,2.684T186.217,357.548Zm3.087-1.637q-2.22-1.283-.064-2.522l2.124-1.229a4.1,4.1,0,0,1,4.37.039l9.714,5.609c1.48.855,1.5,1.691.064,2.522l-2.124,1.224a4.093,4.093,0,0,1-4.37-.034Z" transform="translate(3.801 -275.313)" fill="#fff"/>
                <path id="Path_8251" data-name="Path 8251" d="M190.088,354.134l1.376-2.969,15.613,9.011a.951.951,0,0,0,1.018,0l1.942-1.121c.32-.182.31-.374-.029-.57l-18.214-10.515a.952.952,0,0,0-1.018,0l-1.794,1.037a1.593,1.593,0,0,0-.629.742l-1.224,2.881c-.118.256-.02.477.3.659l1.765,1.018A.588.588,0,0,0,190.088,354.134Z" transform="translate(15.785 -280.634)" fill="#fff"/>
                <path id="Path_8252" data-name="Path 8252" d="M192.082,352.981l1.372-2.969,15.613,9.016a.952.952,0,0,0,1.018,0l1.942-1.121c.32-.187.31-.379-.029-.57l-18.214-10.515a.951.951,0,0,0-1.018,0l-1.789,1.032a1.59,1.59,0,0,0-.629.742l-1.229,2.886c-.118.251-.02.472.3.654l1.765,1.023A.6.6,0,0,0,192.082,352.981Z" transform="translate(23.574 -285.13)" fill="#fff"/>
                <path id="Path_8253" data-name="Path 8253" d="M193.409,353.4l9.96,5.747a9.146,9.146,0,0,0,9.3-.015l2.994-1.726q2.183-1.261,2.183-2.679t-2.183-2.674L205.7,346.3a9.106,9.106,0,0,0-9.272,0l-2.989,1.726q-2.212,1.283-2.232,2.684T193.409,353.4Zm3.082-1.642q-2.212-1.276-.059-2.522l2.124-1.224a4.084,4.084,0,0,1,4.365.034l9.719,5.609q2.22,1.283.064,2.522L210.58,357.4a4.113,4.113,0,0,1-4.37-.034Z" transform="translate(31.961 -291.568)" fill="#fff"/>
                <path id="Path_8254" data-name="Path 8254" d="M215.883,357.274l2.989-1.726q2.183-1.261,2.183-2.679t-2.183-2.674l-9.96-5.752a9.1,9.1,0,0,0-9.267,0l-2.994,1.73q-2.212,1.276-2.227,2.684t2.2,2.684l9.96,5.752a9.116,9.116,0,0,0,4.636,1.259A9.211,9.211,0,0,0,215.883,357.274ZM199.7,349.9q-2.22-1.276-.064-2.522l2.124-1.224a4.1,4.1,0,0,1,4.37.034l9.719,5.614q2.212,1.276.059,2.522l-2.124,1.224a4.094,4.094,0,0,1-4.365-.034Z" transform="translate(44.543 -298.832)" fill="#fff"/>
                <path id="Path_8255" data-name="Path 8255" d="M197.636,347q-.015,1.408,2.2,2.684l9.96,5.752a9.175,9.175,0,0,0,9.3-.015l2.989-1.73q2.19-1.261,2.188-2.674t-2.188-2.679l-9.96-5.747a9.067,9.067,0,0,0-4.651-1.273,9.2,9.2,0,0,0-4.616,1.273l-2.994,1.725Q197.651,345.594,197.636,347Zm7.34-2.7a4.1,4.1,0,0,1,4.37.039l9.719,5.609q2.212,1.283.059,2.522L217,353.694a4.084,4.084,0,0,1-4.365-.035l-9.719-5.609q-2.22-1.283-.064-2.522Z" transform="translate(57.121 -306.097)" fill="#fff"/>
                <path id="Path_8256" data-name="Path 8256" d="M201.043,345.428l1.765,1.018a.593.593,0,0,0,.9-.172l1.372-2.969,15.613,9.016a.972.972,0,0,0,1.018,0l1.942-1.126c.319-.182.31-.374-.03-.57l-18.214-10.515a.951.951,0,0,0-1.018,0l-1.789,1.037a1.566,1.566,0,0,0-.629.742l-1.229,2.886C200.625,345.025,200.724,345.241,201.043,345.428Z" transform="translate(69.101 -311.419)" fill="#fff"/>
                <path id="Path_8257" data-name="Path 8257" d="M163.423,377.959l1.377-2.969L180.413,384a.943.943,0,0,0,1.013,0l1.947-1.121c.32-.187.31-.374-.03-.57l-18.214-10.516a.951.951,0,0,0-1.018,0l-1.794,1.037a1.592,1.592,0,0,0-.629.742l-1.224,2.881c-.118.256-.02.472.3.659l1.765,1.018A.588.588,0,0,0,163.423,377.959Z" transform="translate(-88.636 -187.335)" fill="#fff"/>
                <path id="Path_8258" data-name="Path 8258" d="M165.417,376.806l1.372-2.969,15.613,9.016a.962.962,0,0,0,1.018,0l1.942-1.126c.32-.182.31-.374-.03-.57l-18.214-10.51a.952.952,0,0,0-1.018,0l-1.789,1.032a1.588,1.588,0,0,0-.629.742l-1.229,2.885c-.118.251-.02.472.3.654l1.765,1.018A.593.593,0,0,0,165.417,376.806Z" transform="translate(-80.847 -191.831)" fill="#fff"/>
                <path id="Path_8259" data-name="Path 8259" d="M166.778,371.853q-2.212,1.283-2.232,2.684t2.2,2.689l9.96,5.747a9.144,9.144,0,0,0,9.3-.015l2.994-1.73c1.455-.836,2.183-1.73,2.183-2.674s-.728-1.839-2.183-2.679l-9.96-5.747a9.076,9.076,0,0,0-9.272,0Zm9.478.02,9.719,5.609q2.22,1.283.064,2.522l-2.124,1.229a4.1,4.1,0,0,1-4.37-.039l-9.719-5.609c-1.475-.855-1.494-1.691-.059-2.522l2.124-1.229A4.094,4.094,0,0,1,176.256,371.872Z" transform="translate(-72.46 -198.273)" fill="#fff"/>
                <path id="Path_8260" data-name="Path 8260" d="M172.98,368.268,169.986,370q-2.212,1.276-2.227,2.684c-.01.934.723,1.834,2.2,2.684l9.96,5.747a9.146,9.146,0,0,0,9.3-.015l2.989-1.726q2.183-1.261,2.183-2.679t-2.183-2.674l-9.96-5.752a9.1,9.1,0,0,0-9.267,0Zm16.208,7.354q2.212,1.283.059,2.522l-2.124,1.229a4.1,4.1,0,0,1-4.365-.034l-9.719-5.614q-2.22-1.276-.064-2.522l2.124-1.224a4.1,4.1,0,0,1,4.37.035Z" transform="translate(-59.878 -205.533)" fill="#fff"/>
                <path id="Path_8261" data-name="Path 8261" d="M174.514,365.789l-1.794,1.032a1.616,1.616,0,0,0-.629.742l-1.224,2.885c-.118.256-.02.472.3.654l1.765,1.022a.588.588,0,0,0,.895-.177l1.377-2.969,15.613,9.016a.951.951,0,0,0,1.018,0l1.942-1.126c.319-.182.31-.374-.03-.565l-18.214-10.515A.952.952,0,0,0,174.514,365.789Z" transform="translate(-47.898 -210.855)" fill="#fff"/>
                <path id="Path_8262" data-name="Path 8262" d="M178.181,365.265l-2.989,1.725q-2.212,1.283-2.232,2.684t2.2,2.689l9.96,5.747a9.145,9.145,0,0,0,9.3-.015l2.994-1.725q2.183-1.261,2.183-2.679t-2.188-2.674l-9.955-5.752a9.106,9.106,0,0,0-9.272,0Zm16.208,7.354q2.22,1.283.064,2.522l-2.124,1.229a4.113,4.113,0,0,1-4.37-.035l-9.719-5.614q-2.212-1.276-.059-2.522l2.124-1.224a4.084,4.084,0,0,1,4.365.034Z" transform="translate(-39.511 -217.293)" fill="#fff"/>
                <path id="Path_8263" data-name="Path 8263" d="M181.393,363.415l-2.989,1.726q-2.212,1.276-2.232,2.684t2.2,2.684l9.96,5.752a9.161,9.161,0,0,0,9.3-.02l2.994-1.726c1.455-.841,2.183-1.73,2.183-2.679s-.728-1.834-2.183-2.674l-9.96-5.752a9.122,9.122,0,0,0-4.651-1.268A9.218,9.218,0,0,0,181.393,363.415ZM197.6,370.77q2.22,1.276.064,2.522l-2.124,1.224a4.093,4.093,0,0,1-4.37-.034l-9.719-5.609q-2.212-1.283-.059-2.527l2.124-1.224a4.1,4.1,0,0,1,4.365.035Z" transform="translate(-26.932 -224.557)" fill="#fff"/>
                <path id="Path_8264" data-name="Path 8264" d="M184.6,361.556l-2.989,1.726c-1.475.85-2.217,1.75-2.232,2.684s.723,1.834,2.2,2.684l9.96,5.752a9.154,9.154,0,0,0,9.306-.015l2.989-1.726c1.455-.846,2.183-1.735,2.183-2.679s-.728-1.834-2.183-2.674l-9.96-5.752a9.106,9.106,0,0,0-9.272,0Zm16.208,7.354q2.22,1.283.064,2.522l-2.124,1.229a4.113,4.113,0,0,1-4.37-.034l-9.719-5.614q-2.212-1.276-.059-2.522l2.124-1.224a4.092,4.092,0,0,1,4.37.034Z" transform="translate(-14.354 -231.817)" fill="#fff"/>
                <path id="Path_8265" data-name="Path 8265" d="M187.818,359.7l-2.994,1.73q-2.212,1.276-2.227,2.684t2.2,2.684l9.96,5.752a9.114,9.114,0,0,0,4.636,1.259,9.211,9.211,0,0,0,4.665-1.278l2.989-1.725q2.183-1.261,2.183-2.679t-2.183-2.674l-9.96-5.752a9.1,9.1,0,0,0-9.267,0Zm16.208,7.359q2.212,1.276.059,2.522l-2.124,1.224a4.094,4.094,0,0,1-4.365-.035l-9.719-5.614q-2.22-1.276-.064-2.522l2.124-1.224a4.113,4.113,0,0,1,4.37.034Z" transform="translate(-1.772 -239.082)" fill="#fff"/>
                <path id="Path_8266" data-name="Path 8266" d="M206.671,369.428l1.942-1.121c.32-.187.31-.379-.029-.57L190.37,357.221a.943.943,0,0,0-1.013,0l-1.794,1.032a1.589,1.589,0,0,0-.629.742l-1.229,2.886c-.118.256-.02.472.3.654l1.765,1.023a.6.6,0,0,0,.9-.172l1.372-2.969,15.613,9.011A.951.951,0,0,0,206.671,369.428Z" transform="translate(10.208 -244.403)" fill="#fff"/>
                <path id="Path_8267" data-name="Path 8267" d="M188.922,357.852l-1.229,2.881c-.118.255-.02.472.3.659l1.765,1.018a.593.593,0,0,0,.9-.172l1.376-2.969,15.608,9.011a.951.951,0,0,0,1.018,0l1.947-1.121c.32-.182.3-.374-.029-.57l-18.214-10.515a.952.952,0,0,0-1.018,0l-1.794,1.037A1.566,1.566,0,0,0,188.922,357.852Z" transform="translate(17.997 -248.903)" fill="#fff"/>
                <path id="Path_8268" data-name="Path 8268" d="M214.235,361.3l-9.96-5.747a9.069,9.069,0,0,0-4.651-1.273,9.2,9.2,0,0,0-4.616,1.273l-2.994,1.725q-2.212,1.276-2.227,2.684t2.2,2.684l9.96,5.752a9.16,9.16,0,0,0,9.3-.02l2.989-1.725q2.183-1.261,2.183-2.674T214.235,361.3Zm-3.018,1.608q2.212,1.276.059,2.522l-2.124,1.224a4.084,4.084,0,0,1-4.365-.035l-9.719-5.609q-2.22-1.283-.064-2.522l2.124-1.229a4.1,4.1,0,0,1,4.37.039Z" transform="translate(26.388 -255.341)" fill="#fff"/>
                <path id="Path_8269" data-name="Path 8269" d="M194.12,354.849,192.9,357.73c-.118.256-.02.472.3.659l1.765,1.018a.588.588,0,0,0,.895-.172l1.377-2.969,15.613,9.011a.951.951,0,0,0,1.018,0l1.942-1.121c.32-.182.31-.374-.029-.57l-18.214-10.515a.951.951,0,0,0-1.018,0l-1.794,1.037A1.593,1.593,0,0,0,194.12,354.849Z" transform="translate(38.368 -260.663)" fill="#fff"/>
                <path id="Path_8270" data-name="Path 8270" d="M197.187,359.645l9.96,5.752a9.16,9.16,0,0,0,9.3-.02l2.994-1.725q2.183-1.261,2.183-2.674c0-.949-.728-1.839-2.188-2.679l-9.955-5.752a9.092,9.092,0,0,0-9.272,0l-2.994,1.726q-2.212,1.276-2.227,2.684T197.187,359.645Zm3.082-1.637q-2.212-1.283-.059-2.527l2.124-1.224a4.1,4.1,0,0,1,4.365.034l9.719,5.614q2.22,1.276.064,2.522l-2.124,1.224a4.1,4.1,0,0,1-4.37-.035Z" transform="translate(46.756 -267.101)" fill="#fff"/>
                <path id="Path_8271" data-name="Path 8271" d="M222.653,361.793c1.455-.836,2.183-1.73,2.183-2.674s-.728-1.839-2.183-2.674l-9.96-5.752a9.106,9.106,0,0,0-9.272,0l-2.989,1.725q-2.212,1.283-2.232,2.684t2.2,2.689l9.96,5.747a9.145,9.145,0,0,0,9.3-.015Zm-9.453-.034-9.719-5.609q-2.212-1.276-.059-2.522l2.124-1.224a4.084,4.084,0,0,1,4.365.034l9.719,5.609q2.22,1.283.064,2.522L217.57,361.8A4.1,4.1,0,0,1,213.2,361.758Z" transform="translate(59.334 -274.361)" fill="#fff"/>
                <path id="Path_8272" data-name="Path 8272" d="M222.873,361.668l2.989-1.726q2.183-1.261,2.183-2.679t-2.183-2.674l-9.96-5.752a9.1,9.1,0,0,0-9.267,0l-2.994,1.73q-2.212,1.276-2.227,2.684t2.2,2.684l9.96,5.752a9.161,9.161,0,0,0,9.3-.02Zm-16.179-7.374q-2.22-1.276-.064-2.522l2.124-1.224a4.1,4.1,0,0,1,4.37.034l9.719,5.614q2.212,1.276.059,2.517l-2.124,1.229a4.1,4.1,0,0,1-4.365-.034Z" transform="translate(71.916 -281.625)" fill="#fff"/>
                <path id="Path_8273" data-name="Path 8273" d="M226.084,359.813l2.989-1.726q2.19-1.261,2.188-2.674t-2.188-2.679l-9.96-5.752a9.082,9.082,0,0,0-9.267.005l-2.994,1.726q-2.212,1.276-2.227,2.684t2.2,2.684l9.96,5.752a9.16,9.16,0,0,0,9.3-.02Zm-16.179-7.369q-2.22-1.283-.064-2.522l2.124-1.229a4.1,4.1,0,0,1,4.37.039l9.719,5.609q2.212,1.276.059,2.522l-2.124,1.224a4.084,4.084,0,0,1-4.365-.034Z" transform="translate(84.495 -288.89)" fill="#fff"/>
                <path id="Path_8274" data-name="Path 8274" d="M211.381,344.5l-1.789,1.037a1.566,1.566,0,0,0-.629.742l-1.229,2.881c-.118.256-.02.472.3.659l1.765,1.018a.594.594,0,0,0,.9-.172l1.371-2.969,15.613,9.011a.952.952,0,0,0,1.018,0l1.942-1.121c.32-.182.31-.374-.029-.57L212.4,344.5A.952.952,0,0,0,211.381,344.5Z" transform="translate(96.474 -294.211)" fill="#fff"/>
                <path id="Path_8275" data-name="Path 8275" d="M167.868,381.045q-.015,1.408,2.2,2.689l9.96,5.747a9.145,9.145,0,0,0,9.3-.015l2.994-1.725q2.183-1.261,2.183-2.679t-2.183-2.674l-9.96-5.752a9.106,9.106,0,0,0-9.272,0l-2.989,1.726Q167.888,379.644,167.868,381.045Zm7.345-2.7a4.094,4.094,0,0,1,4.365.035l9.719,5.609q2.22,1.283.064,2.522l-2.124,1.229a4.113,4.113,0,0,1-4.37-.034l-9.719-5.614q-2.212-1.276-.059-2.522Z" transform="translate(-59.451 -172.768)" fill="#fff"/>
                <path id="Path_8276" data-name="Path 8276" d="M173.277,381.879l9.96,5.752a9.169,9.169,0,0,0,9.306-.02l2.989-1.726c1.455-.841,2.183-1.735,2.183-2.674s-.728-1.839-2.183-2.679l-9.96-5.752a9.112,9.112,0,0,0-4.651-1.268,9.219,9.219,0,0,0-4.621,1.273l-2.989,1.726q-2.212,1.276-2.232,2.684T173.277,381.879Zm3.087-1.637q-2.22-1.283-.064-2.522l2.124-1.229a4.113,4.113,0,0,1,4.37.034l9.714,5.614q2.22,1.276.064,2.522l-2.124,1.224a4.1,4.1,0,0,1-4.37-.034Z" transform="translate(-46.873 -180.032)" fill="#fff"/>
                <path id="Path_8277" data-name="Path 8277" d="M176.491,380.029l9.96,5.747a9.145,9.145,0,0,0,9.3-.015l2.989-1.73c1.455-.836,2.183-1.73,2.183-2.674s-.728-1.839-2.183-2.679l-9.96-5.747a9.067,9.067,0,0,0-9.267,0l-2.994,1.726q-2.212,1.283-2.227,2.684T176.491,380.029Zm3.082-1.642q-2.22-1.276-.064-2.522l2.124-1.224a4.093,4.093,0,0,1,4.37.034l9.719,5.609q2.212,1.283.059,2.522l-2.124,1.229a4.094,4.094,0,0,1-4.365-.039Z" transform="translate(-34.291 -187.296)" fill="#fff"/>
                <path id="Path_8278" data-name="Path 8278" d="M177.4,375.108c-.118.251-.02.472.3.654l1.765,1.018a.588.588,0,0,0,.895-.172l1.376-2.969,15.613,9.016a.962.962,0,0,0,1.018,0l1.942-1.126c.32-.182.31-.374-.029-.57l-18.214-10.516a.972.972,0,0,0-1.018,0l-1.794,1.037a1.617,1.617,0,0,0-.629.742Z" transform="translate(-22.31 -192.615)" fill="#fff"/>
                <path id="Path_8279" data-name="Path 8279" d="M200.957,382.753l2.989-1.726q2.183-1.261,2.183-2.674t-2.183-2.679l-9.96-5.747a9.084,9.084,0,0,0-4.651-1.273,9.219,9.219,0,0,0-4.621,1.273l-2.989,1.726q-2.212,1.276-2.232,2.684t2.2,2.684l9.96,5.752a9.169,9.169,0,0,0,9.306-.02Zm-16.184-7.369q-2.212-1.283-.059-2.522l2.124-1.229a4.094,4.094,0,0,1,4.365.039l9.719,5.609c1.48.855,1.5,1.691.064,2.522l-2.124,1.224a4.093,4.093,0,0,1-4.37-.034Z" transform="translate(-13.923 -199.056)" fill="#fff"/>
                <path id="Path_8280" data-name="Path 8280" d="M183.826,369.222,182.6,372.1c-.118.256-.02.477.3.659l1.76,1.018a.592.592,0,0,0,.9-.172l1.376-2.969,15.608,9.011a.952.952,0,0,0,1.018,0l1.947-1.121c.32-.182.31-.374-.029-.57l-18.214-10.515a.951.951,0,0,0-1.018,0l-1.794,1.037A1.593,1.593,0,0,0,183.826,369.222Z" transform="translate(-1.939 -204.378)" fill="#fff"/>
                <path id="Path_8281" data-name="Path 8281" d="M205.558,378.5l1.942-1.121c.32-.187.31-.379-.029-.57l-18.214-10.515a.951.951,0,0,0-1.018,0l-1.794,1.032a1.617,1.617,0,0,0-.629.742l-1.224,2.886c-.118.251-.02.472.3.654l1.765,1.023a.594.594,0,0,0,.895-.172l1.376-2.974,15.613,9.016A.951.951,0,0,0,205.558,378.5Z" transform="translate(5.85 -208.873)" fill="#fff"/>
                <path id="Path_8282" data-name="Path 8282" d="M186.88,370.464l1.765,1.018a.593.593,0,0,0,.9-.172l1.372-2.969,15.613,9.011a.951.951,0,0,0,1.018,0l1.947-1.121c.315-.182.3-.374-.034-.57l-18.209-10.515a.951.951,0,0,0-1.018,0l-1.794,1.037a1.565,1.565,0,0,0-.629.742l-1.229,2.881C186.462,370.062,186.561,370.278,186.88,370.464Z" transform="translate(13.639 -213.373)" fill="#fff"/>
                <path id="Path_8283" data-name="Path 8283" d="M188.675,369.037q-.015,1.408,2.2,2.684l9.96,5.752a9.115,9.115,0,0,0,4.636,1.258,9.209,9.209,0,0,0,4.665-1.278l2.989-1.725q2.183-1.261,2.183-2.679t-2.183-2.674l-9.96-5.752a9.1,9.1,0,0,0-9.267,0l-2.994,1.73Q188.69,367.628,188.675,369.037Zm7.34-2.7a4.1,4.1,0,0,1,4.37.035l9.719,5.614q2.212,1.276.059,2.522l-2.124,1.224a4.094,4.094,0,0,1-4.365-.034l-9.719-5.614q-2.22-1.276-.064-2.522Z" transform="translate(22.03 -219.811)" fill="#fff"/>
                <path id="Path_8284" data-name="Path 8284" d="M193.006,363.922l-1.224,2.881c-.118.256-.02.472.3.659l1.765,1.018a.591.591,0,0,0,.895-.172l1.377-2.969,15.613,9.011a.951.951,0,0,0,1.018,0l1.942-1.121c.319-.187.31-.378-.03-.57l-18.214-10.515a.951.951,0,0,0-1.018,0l-1.794,1.037A1.569,1.569,0,0,0,193.006,363.922Z" transform="translate(34.01 -225.133)" fill="#fff"/>
                <path id="Path_8285" data-name="Path 8285" d="M199.1,361.619l-2.989,1.73q-2.22,1.276-2.232,2.684t2.2,2.684l9.96,5.747a9.144,9.144,0,0,0,9.3-.015l2.994-1.725q2.183-1.261,2.183-2.679t-2.188-2.674l-9.955-5.752a9.106,9.106,0,0,0-9.272,0Zm16.208,7.359q2.22,1.276.064,2.522l-2.124,1.224a4.1,4.1,0,0,1-4.37-.035l-9.719-5.614q-2.212-1.276-.059-2.522l2.124-1.224a4.094,4.094,0,0,1,4.365.034Z" transform="translate(42.397 -231.571)" fill="#fff"/>
                <path id="Path_8286" data-name="Path 8286" d="M197.283,364.454l1.765,1.023a.6.6,0,0,0,.9-.172l1.376-2.969,15.608,9.011a.951.951,0,0,0,1.018,0l1.947-1.121c.32-.187.3-.379-.034-.57L201.654,359.14a.951.951,0,0,0-1.018,0l-1.794,1.032a1.589,1.589,0,0,0-.629.742l-1.229,2.886C196.865,364.056,196.964,364.272,197.283,364.454Z" transform="translate(54.377 -236.893)" fill="#fff"/>
                <path id="Path_8287" data-name="Path 8287" d="M204.3,358.616l-2.989,1.73q-2.212,1.276-2.232,2.684c-.01.934.728,1.834,2.2,2.684l9.955,5.747a9.153,9.153,0,0,0,9.306-.015l2.989-1.726q2.183-1.261,2.183-2.679t-2.183-2.674l-9.96-5.752a9.106,9.106,0,0,0-9.272,0Zm16.213,7.359q2.212,1.276.059,2.517l-2.124,1.229a4.113,4.113,0,0,1-4.37-.034l-9.714-5.614q-2.22-1.276-.064-2.522l2.124-1.224a4.1,4.1,0,0,1,4.37.034Z" transform="translate(62.764 -243.331)" fill="#fff"/>
                <path id="Path_8288" data-name="Path 8288" d="M205.833,356.136l-1.794,1.032a1.617,1.617,0,0,0-.629.742l-1.224,2.886c-.118.256-.02.472.3.654l1.765,1.023a.589.589,0,0,0,.895-.177l1.377-2.969,15.613,9.016a.952.952,0,0,0,1.018,0l1.942-1.126c.32-.182.31-.374-.03-.565l-18.214-10.515A.951.951,0,0,0,205.833,356.136Z" transform="translate(74.748 -248.652)" fill="#fff"/>
                <path id="Path_8289" data-name="Path 8289" d="M227.053,365.5l-18.209-10.515a.951.951,0,0,0-1.018,0l-1.794,1.037a1.566,1.566,0,0,0-.629.742l-1.229,2.881c-.118.256-.02.472.3.659l1.765,1.018a.6.6,0,0,0,.9-.172l1.377-2.969,15.608,9.011a.951.951,0,0,0,1.018,0l1.947-1.121C227.407,365.886,227.393,365.7,227.053,365.5Z" transform="translate(82.537 -253.152)" fill="#fff"/>
                <path id="Path_8290" data-name="Path 8290" d="M208.5,356.195q-2.212,1.276-2.232,2.684c-.01.939.728,1.834,2.2,2.684l9.955,5.752a9.169,9.169,0,0,0,9.306-.02l2.989-1.725q2.183-1.261,2.183-2.679t-2.183-2.674l-9.96-5.752a9.106,9.106,0,0,0-9.272,0Zm9.483.015,9.719,5.614q2.212,1.276.059,2.522l-2.124,1.224a4.1,4.1,0,0,1-4.37-.035l-9.714-5.609q-2.22-1.283-.064-2.527l2.124-1.224A4.1,4.1,0,0,1,217.983,356.209Z" transform="translate(90.925 -259.59)" fill="#fff"/>
                <path id="Path_8291" data-name="Path 8291" d="M232.256,362.5l-18.214-10.515a.951.951,0,0,0-1.018,0l-1.794,1.032a1.606,1.606,0,0,0-.629.747l-1.224,2.881c-.118.256-.02.472.3.659l1.765,1.018a.591.591,0,0,0,.895-.172l1.376-2.969,15.613,9.011a.951.951,0,0,0,1.018,0l1.942-1.121C232.6,362.883,232.595,362.7,232.256,362.5Z" transform="translate(102.908 -264.912)" fill="#fff"/>
                <path id="Path_8292" data-name="Path 8292" d="M223.627,364.312a9.16,9.16,0,0,0,9.3-.02l2.994-1.726q2.183-1.261,2.183-2.679t-2.188-2.674l-9.96-5.752a9.1,9.1,0,0,0-9.267,0l-2.994,1.731q-2.212,1.276-2.227,2.684t2.2,2.684Zm-6.877-7.394c-1.48-.851-1.494-1.691-.059-2.522l2.124-1.224a4.094,4.094,0,0,1,4.365.034l9.719,5.614q2.212,1.276.064,2.517l-2.124,1.229a4.1,4.1,0,0,1-4.37-.034Z" transform="translate(111.296 -271.35)" fill="#fff"/>
                <path id="Path_8293" data-name="Path 8293" d="M178.024,386.389l1.376-2.969,15.608,9.011a.951.951,0,0,0,1.018,0l1.947-1.121c.32-.187.31-.374-.03-.57L179.73,380.224a.951.951,0,0,0-1.018,0l-1.794,1.037a1.57,1.57,0,0,0-.629.742l-1.224,2.881c-.118.256-.02.472.295.659l1.765,1.018A.592.592,0,0,0,178.024,386.389Z" transform="translate(-31.458 -154.323)" fill="#fff"/>
                <path id="Path_8294" data-name="Path 8294" d="M203.788,388.127q0-1.416-2.183-2.674l-9.96-5.752a9.1,9.1,0,0,0-9.267,0l-2.994,1.73q-2.212,1.276-2.227,2.684t2.2,2.684l9.96,5.752a9.16,9.16,0,0,0,9.3-.02l2.989-1.725Q203.788,389.546,203.788,388.127Zm-7.266,2.679a4.094,4.094,0,0,1-4.365-.035l-9.719-5.614q-2.22-1.276-.064-2.522l2.124-1.224a4.113,4.113,0,0,1,4.37.034l9.719,5.614q2.212,1.276.059,2.522Z" transform="translate(-23.071 -160.761)" fill="#fff"/>
                <path id="Path_8295" data-name="Path 8295" d="M200.215,389.428a.951.951,0,0,0,1.018,0l1.942-1.121c.32-.187.31-.379-.029-.57l-18.214-10.516a.951.951,0,0,0-1.018,0l-1.789,1.032a1.579,1.579,0,0,0-.629.747l-1.229,2.881c-.118.256-.02.472.3.659l1.765,1.018a.6.6,0,0,0,.9-.172l1.372-2.969Z" transform="translate(-11.091 -166.083)" fill="#fff"/>
                <path id="Path_8296" data-name="Path 8296" d="M206.811,382.45l-9.96-5.752a9.106,9.106,0,0,0-9.272,0l-2.989,1.726q-2.212,1.283-2.232,2.684t2.2,2.689l9.96,5.747a9.154,9.154,0,0,0,9.306-.015l2.989-1.726q2.183-1.261,2.183-2.679T206.811,382.45Zm-3.023,1.6q2.22,1.283.064,2.522l-2.124,1.229a4.113,4.113,0,0,1-4.37-.034l-9.719-5.614q-2.212-1.276-.059-2.522l2.124-1.224a4.1,4.1,0,0,1,4.37.034Z" transform="translate(-2.704 -172.521)" fill="#fff"/>
                <path id="Path_8297" data-name="Path 8297" d="M185.572,379.258q-.015,1.408,2.2,2.684l9.96,5.752a9.16,9.16,0,0,0,9.3-.02l2.989-1.725q2.183-1.261,2.183-2.674c0-.949-.728-1.839-2.183-2.679l-9.96-5.752a9.082,9.082,0,0,0-9.267.005l-2.994,1.725Q185.587,377.849,185.572,379.258Zm7.34-2.7a4.113,4.113,0,0,1,4.37.034L207,382.2q2.212,1.276.059,2.522l-2.124,1.224a4.094,4.094,0,0,1-4.365-.035l-9.719-5.609q-2.22-1.283-.064-2.522Z" transform="translate(9.878 -179.785)" fill="#fff"/>
                <path id="Path_8298" data-name="Path 8298" d="M208.629,384.57a.951.951,0,0,0,1.018,0l1.942-1.121c.32-.187.31-.374-.029-.57l-18.214-10.516a.951.951,0,0,0-1.018,0l-1.794,1.037a1.592,1.592,0,0,0-.629.742l-1.224,2.881c-.118.256-.02.472.3.659l1.765,1.018a.588.588,0,0,0,.895-.172l1.376-2.969Z" transform="translate(21.858 -185.107)" fill="#fff"/>
                <path id="Path_8299" data-name="Path 8299" d="M190.773,376.255q-.015,1.408,2.2,2.684l9.96,5.752a9.16,9.16,0,0,0,9.3-.02l2.994-1.726c1.455-.841,2.183-1.73,2.183-2.679s-.728-1.834-2.188-2.674l-9.955-5.752a9.091,9.091,0,0,0-9.272.005L193,373.571Q190.785,374.847,190.773,376.255Zm7.345-2.7a4.1,4.1,0,0,1,4.365.034L212.2,379.2q2.22,1.276.064,2.522l-2.124,1.224a4.1,4.1,0,0,1-4.37-.034l-9.719-5.609q-2.212-1.283-.059-2.527Z" transform="translate(30.246 -191.545)" fill="#fff"/>
                <path id="Path_8300" data-name="Path 8300" d="M195.945,375.7a.6.6,0,0,0,.9-.172l1.376-2.969,15.608,9.011a.952.952,0,0,0,1.018,0l1.947-1.121c.319-.187.3-.374-.034-.57L198.551,369.36a.951.951,0,0,0-1.018,0l-1.794,1.032a1.579,1.579,0,0,0-.629.747l-1.229,2.881c-.118.256-.02.472.3.659Z" transform="translate(42.226 -196.867)" fill="#fff"/>
                <path id="Path_8301" data-name="Path 8301" d="M222.61,377.263q-.007-1.416-2.188-2.674l-9.96-5.752a9.1,9.1,0,0,0-9.267,0l-2.994,1.73q-2.212,1.276-2.227,2.684t2.2,2.684l9.96,5.747a9.146,9.146,0,0,0,9.3-.015l2.989-1.726C221.878,379.1,222.61,378.207,222.61,377.263Zm-7.271,2.679a4.1,4.1,0,0,1-4.365-.034l-9.719-5.614q-2.22-1.276-.064-2.522l2.124-1.224a4.1,4.1,0,0,1,4.37.034L217.4,376.2q2.212,1.276.059,2.517Z" transform="translate(50.617 -203.305)" fill="#fff"/>
                <path id="Path_8302" data-name="Path 8302" d="M220.049,378.564l1.942-1.121c.32-.187.31-.379-.029-.57l-18.214-10.516a.952.952,0,0,0-1.018,0l-1.789,1.032a1.589,1.589,0,0,0-.629.742l-1.229,2.885c-.118.251-.02.472.3.654l1.765,1.022a.6.6,0,0,0,.9-.172l1.372-2.974,15.613,9.016A.951.951,0,0,0,220.049,378.564Z" transform="translate(62.597 -208.626)" fill="#fff"/>
                <path id="Path_8303" data-name="Path 8303" d="M227.811,374.26q0-1.416-2.183-2.674l-9.96-5.752a9.106,9.106,0,0,0-9.272,0l-2.989,1.725q-2.212,1.283-2.232,2.684t2.2,2.689l9.96,5.747a9.145,9.145,0,0,0,9.3-.015l2.994-1.725Q227.811,375.679,227.811,374.26Zm-7.266,2.679a4.113,4.113,0,0,1-4.37-.034l-9.719-5.614q-2.212-1.276-.059-2.522l2.124-1.224a4.085,4.085,0,0,1,4.365.034l9.719,5.609q2.22,1.283.064,2.522Z" transform="translate(70.984 -215.065)" fill="#fff"/>
                <path id="Path_8304" data-name="Path 8304" d="M206.346,369.686a.593.593,0,0,0,.9-.172l1.377-2.969,15.608,9.016a.951.951,0,0,0,1.018,0l1.947-1.126c.32-.182.3-.374-.03-.565l-18.214-10.515a.951.951,0,0,0-1.018,0l-1.794,1.032a1.59,1.59,0,0,0-.629.742l-1.224,2.886c-.123.251-.02.472.295.654Z" transform="translate(82.966 -220.386)" fill="#fff"/>
                <path id="Path_8305" data-name="Path 8305" d="M233.008,371.257c0-.944-.728-1.834-2.183-2.679l-9.96-5.747a9.1,9.1,0,0,0-9.267,0l-2.994,1.725c-1.475.85-2.217,1.75-2.227,2.684s.723,1.834,2.2,2.684l9.96,5.752a9.145,9.145,0,0,0,9.3-.015l2.989-1.73Q233.008,372.671,233.008,371.257Zm-7.266,2.679a4.1,4.1,0,0,1-4.365-.034l-9.719-5.614q-2.22-1.276-.064-2.522l2.124-1.224a4.093,4.093,0,0,1,4.37.034l9.719,5.609q2.212,1.283.059,2.522Z" transform="translate(91.355 -226.824)" fill="#fff"/>
                <path id="Path_8306" data-name="Path 8306" d="M211.817,362.707q-2.212,1.276-2.227,2.684t2.2,2.684l9.96,5.752a9.16,9.16,0,0,0,9.3-.02l2.994-1.725q2.183-1.261,2.183-2.679t-2.187-2.674l-9.96-5.752a9.11,9.11,0,0,0-4.651-1.268,9.243,9.243,0,0,0-4.616,1.268Zm9.483.015,9.719,5.614q2.212,1.276.059,2.522l-2.119,1.224a4.1,4.1,0,0,1-4.37-.034l-9.719-5.614q-2.22-1.276-.059-2.522l2.119-1.224A4.113,4.113,0,0,1,221.3,362.722Z" transform="translate(103.934 -234.089)" fill="#fff"/>
                <path id="Path_8307" data-name="Path 8307" d="M232.647,370.7a.951.951,0,0,0,1.018,0l1.942-1.121c.32-.187.31-.374-.029-.57L217.363,358.5a.943.943,0,0,0-1.013,0l-1.794,1.037a1.543,1.543,0,0,0-.629.742l-1.229,2.881c-.118.256-.02.472.3.659l1.765,1.018a.6.6,0,0,0,.9-.172l1.372-2.969Z" transform="translate(115.914 -239.41)" fill="#fff"/>
                <path id="Path_8308" data-name="Path 8308" d="M217.023,359.7q-2.212,1.276-2.232,2.684c0,.934.728,1.834,2.2,2.684l9.955,5.747a9.153,9.153,0,0,0,9.306-.015l2.989-1.726q2.183-1.261,2.183-2.679t-2.183-2.674l-9.96-5.752a9.106,9.106,0,0,0-9.272,0Zm9.483.015,9.719,5.609q2.212,1.283.059,2.522l-2.124,1.229a4.1,4.1,0,0,1-4.365-.034l-9.719-5.614q-2.22-1.276-.064-2.522l2.124-1.224A4.1,4.1,0,0,1,226.506,359.719Z" transform="translate(124.301 -245.849)" fill="#fff"/>
                <path id="Path_8309" data-name="Path 8309" d="M237.849,367.7a.952.952,0,0,0,1.018,0l1.942-1.126c.32-.182.31-.374-.03-.565l-18.214-10.515a.951.951,0,0,0-1.018,0l-1.794,1.032a1.616,1.616,0,0,0-.629.742l-1.224,2.886c-.118.256-.02.472.3.654l1.765,1.023a.589.589,0,0,0,.895-.177l1.376-2.969Z" transform="translate(136.285 -251.17)" fill="#fff"/>
                <path id="Path_8310" data-name="Path 8310" d="M185.329,390.6l1.372-2.969,15.613,9.011a.951.951,0,0,0,1.018,0l1.947-1.121c.315-.187.3-.374-.034-.57l-18.209-10.515a.952.952,0,0,0-1.018,0l-1.794,1.037a1.543,1.543,0,0,0-.629.742l-1.229,2.881c-.118.256-.02.472.3.659l1.765,1.018A.594.594,0,0,0,185.329,390.6Z" transform="translate(-2.871 -137.817)" fill="#fff"/>
                <path id="Path_8311" data-name="Path 8311" d="M205.318,395.5l1.947-1.126c.32-.182.3-.374-.029-.57l-18.214-10.515a.972.972,0,0,0-1.018,0l-1.794,1.037a1.59,1.59,0,0,0-.629.742l-1.224,2.886c-.123.251-.02.472.3.654l1.765,1.018a.593.593,0,0,0,.9-.172l1.377-2.969L204.3,395.5A.952.952,0,0,0,205.318,395.5Z" transform="translate(4.92 -142.314)" fill="#fff"/>
                <path id="Path_8312" data-name="Path 8312" d="M207.31,394.349l1.942-1.121c.32-.187.31-.374-.029-.57l-18.214-10.515a.951.951,0,0,0-1.018,0L188.2,383.18a1.592,1.592,0,0,0-.629.742l-1.224,2.881c-.118.256-.02.472.3.659l1.765,1.018a.588.588,0,0,0,.895-.172l1.376-2.969,15.613,9.011A.951.951,0,0,0,207.31,394.349Z" transform="translate(12.71 -146.812)" fill="#fff"/>
                <path id="Path_8313" data-name="Path 8313" d="M212.889,392.725q2.183-1.261,2.183-2.679t-2.183-2.674l-9.96-5.752a9.106,9.106,0,0,0-9.272,0l-2.989,1.73q-2.212,1.276-2.232,2.679t2.2,2.689l9.96,5.747a9.144,9.144,0,0,0,9.3-.015Zm-9.453-.035-9.719-5.614q-2.212-1.276-.059-2.522l2.124-1.224a4.094,4.094,0,0,1,4.365.034l9.719,5.609q2.22,1.283.064,2.527l-2.124,1.224A4.1,4.1,0,0,1,203.436,392.69Z" transform="translate(21.098 -153.25)" fill="#fff"/>
                <path id="Path_8314" data-name="Path 8314" d="M194.508,385.3l1.377-2.964,15.608,9.011a.951.951,0,0,0,1.018,0l1.947-1.121c.319-.187.3-.379-.03-.57L196.214,379.14a.951.951,0,0,0-1.018,0l-1.794,1.032a1.59,1.59,0,0,0-.629.742l-1.229,2.886c-.118.256-.015.472.3.654l1.765,1.023A.594.594,0,0,0,194.508,385.3Z" transform="translate(33.078 -158.572)" fill="#fff"/>
                <path id="Path_8315" data-name="Path 8315" d="M218.086,389.722q2.183-1.261,2.183-2.679t-2.183-2.674l-9.96-5.752a9.1,9.1,0,0,0-9.267,0l-2.994,1.731q-2.212,1.276-2.227,2.679c-.01.939.723,1.839,2.2,2.689l9.96,5.747a9.119,9.119,0,0,0,4.636,1.264,9.211,9.211,0,0,0,4.665-1.278Zm-9.449-.034-9.719-5.614q-2.22-1.276-.064-2.522l2.124-1.224a4.1,4.1,0,0,1,4.37.034l9.719,5.609q2.212,1.283.059,2.522L213,389.722A4.1,4.1,0,0,1,208.638,389.687Z" transform="translate(41.469 -165.01)" fill="#fff"/>
                <path id="Path_8316" data-name="Path 8316" d="M221.3,382.513l-9.96-5.752a9.082,9.082,0,0,0-9.267.005l-2.994,1.725q-2.212,1.276-2.227,2.684t2.2,2.684l9.96,5.752a9.16,9.16,0,0,0,9.3-.02l2.989-1.725q2.19-1.261,2.188-2.674T221.3,382.513Zm-3.018,1.608q2.212,1.276.059,2.522l-2.124,1.224a4.084,4.084,0,0,1-4.365-.035l-9.719-5.609q-2.22-1.283-.059-2.522l2.119-1.229a4.113,4.113,0,0,1,4.37.034Z" transform="translate(54.047 -172.274)" fill="#fff"/>
                <path id="Path_8317" data-name="Path 8317" d="M201.187,376.061l-1.229,2.881c-.118.256-.02.472.3.659l1.765,1.018a.594.594,0,0,0,.9-.172l1.372-2.969,15.613,9.011a.951.951,0,0,0,1.018,0l1.942-1.121c.32-.187.31-.374-.029-.57l-18.214-10.515a.943.943,0,0,0-1.013,0l-1.794,1.037A1.565,1.565,0,0,0,201.187,376.061Z" transform="translate(66.027 -177.596)" fill="#fff"/>
                <path id="Path_8318" data-name="Path 8318" d="M216.544,373.758a9.106,9.106,0,0,0-9.272,0l-2.989,1.731q-2.212,1.276-2.232,2.684t2.2,2.684l9.955,5.752a9.169,9.169,0,0,0,9.306-.02l2.989-1.726q2.183-1.261,2.183-2.679T226.5,379.51Zm6.941,7.359q2.212,1.276.059,2.522l-2.124,1.224a4.094,4.094,0,0,1-4.365-.034l-9.719-5.614q-2.22-1.276-.064-2.522l2.124-1.224a4.1,4.1,0,0,1,4.37.034Z" transform="translate(74.415 -184.034)" fill="#fff"/>
                <path id="Path_8319" data-name="Path 8319" d="M209.826,371.278a.951.951,0,0,0-1.018,0l-1.794,1.032a1.618,1.618,0,0,0-.629.742l-1.224,2.886c-.118.256-.02.472.3.659l1.765,1.018a.591.591,0,0,0,.895-.172l1.377-2.969,15.613,9.011a.952.952,0,0,0,1.018,0l1.942-1.121c.32-.187.31-.374-.029-.57Z" transform="translate(86.398 -189.356)" fill="#fff"/>
                <path id="Path_8320" data-name="Path 8320" d="M221.742,370.755a9.1,9.1,0,0,0-9.267,0l-2.994,1.726q-2.212,1.283-2.227,2.684c-.01.944.723,1.834,2.2,2.689l9.96,5.747a9.145,9.145,0,0,0,9.3-.015l2.994-1.726q2.183-1.261,2.183-2.679c0-.944-.733-1.834-2.188-2.674Zm6.941,7.359c1.48.85,1.495,1.691.064,2.517l-2.124,1.229a4.1,4.1,0,0,1-4.37-.034l-9.719-5.614q-2.212-1.276-.059-2.522l2.124-1.224a4.1,4.1,0,0,1,4.365.034Z" transform="translate(94.786 -195.794)" fill="#fff"/>
                <path id="Path_8321" data-name="Path 8321" d="M237.1,377.331q0-1.416-2.183-2.679l-9.96-5.752a9.09,9.09,0,0,0-9.272,0l-2.989,1.726q-2.212,1.276-2.232,2.684t2.2,2.684l9.96,5.752a9.16,9.16,0,0,0,9.3-.02l2.994-1.726Q237.1,378.745,237.1,377.331Zm-7.266,2.674a4.093,4.093,0,0,1-4.37-.034l-9.719-5.609q-2.212-1.283-.059-2.522l2.124-1.229a4.094,4.094,0,0,1,4.365.039l9.719,5.609q2.22,1.276.064,2.522Z" transform="translate(107.364 -203.058)" fill="#fff"/>
                <path id="Path_8322" data-name="Path 8322" d="M234.54,378.627l1.947-1.121c.32-.182.3-.374-.03-.57L218.244,366.42a.951.951,0,0,0-1.018,0l-1.794,1.037a1.565,1.565,0,0,0-.629.742l-1.229,2.881c-.118.256-.02.472.3.659l1.765,1.018a.593.593,0,0,0,.9-.172l1.376-2.969,15.608,9.011A.952.952,0,0,0,234.54,378.627Z" transform="translate(119.344 -208.38)" fill="#fff"/>
                <path id="Path_8323" data-name="Path 8323" d="M215.668,370.312q-.015,1.408,2.2,2.684l9.96,5.752a9.161,9.161,0,0,0,9.3-.02L240.116,377q2.183-1.261,2.183-2.674t-2.183-2.679l-9.96-5.752a9.082,9.082,0,0,0-9.267.005l-2.994,1.726Q215.683,368.9,215.668,370.312Zm7.34-2.7a4.113,4.113,0,0,1,4.37.034l9.719,5.614q2.212,1.276.059,2.522L235.032,377a4.085,4.085,0,0,1-4.365-.034l-9.719-5.609q-2.22-1.283-.064-2.522Z" transform="translate(127.735 -214.818)" fill="#fff"/>
                <path id="Path_8324" data-name="Path 8324" d="M239.742,375.624l1.942-1.121c.32-.187.31-.379-.029-.57l-18.214-10.516a.944.944,0,0,0-1.013,0l-1.794,1.037a1.543,1.543,0,0,0-.629.742l-1.229,2.881c-.118.256-.02.472.3.659l1.765,1.018a.6.6,0,0,0,.9-.172l1.372-2.969,15.613,9.011A.952.952,0,0,0,239.742,375.624Z" transform="translate(139.715 -220.14)" fill="#fff"/>
                <path id="Path_8325" data-name="Path 8325" d="M220.869,367.309c-.01.934.723,1.834,2.2,2.684l9.96,5.747A9.135,9.135,0,0,0,237.662,377a9.228,9.228,0,0,0,4.67-1.278L245.321,374q2.183-1.261,2.183-2.679t-2.183-2.674l-9.96-5.752a9.106,9.106,0,0,0-9.272,0l-2.989,1.73Q220.889,365.9,220.869,367.309Zm7.344-2.7a4.094,4.094,0,0,1,4.365.035l9.719,5.614q2.22,1.276.064,2.522L240.238,374a4.1,4.1,0,0,1-4.37-.034l-9.719-5.614q-2.212-1.276-.059-2.522Z" transform="translate(148.102 -226.578)" fill="#fff"/>
                <path id="Path_8326" data-name="Path 8326" d="M244.939,372.621l1.947-1.121c.32-.187.31-.378-.03-.57l-18.214-10.516a.951.951,0,0,0-1.018,0l-1.794,1.032a1.618,1.618,0,0,0-.629.742l-1.224,2.886c-.118.256-.02.472.295.659l1.765,1.018a.6.6,0,0,0,.9-.172l1.376-2.969,15.608,9.011A.951.951,0,0,0,244.939,372.621Z" transform="translate(160.086 -231.9)" fill="#fff"/>
                <path id="Path_8327" data-name="Path 8327" d="M214.217,395.032l-9.96-5.752a9.1,9.1,0,0,0-9.267,0L192,391.006q-2.212,1.283-2.227,2.684t2.2,2.689l9.96,5.747a9.145,9.145,0,0,0,9.3-.015l2.989-1.726c1.455-.841,2.188-1.735,2.188-2.679S215.673,395.873,214.217,395.032Zm-3.018,1.6q2.212,1.283.059,2.522l-2.124,1.229a4.1,4.1,0,0,1-4.365-.034l-9.719-5.614q-2.22-1.276-.064-2.522l2.124-1.224a4.092,4.092,0,0,1,4.37.034Z" transform="translate(26.318 -123.249)" fill="#fff"/>
                <path id="Path_8328" data-name="Path 8328" d="M217.43,393.177l-9.96-5.752a9.1,9.1,0,0,0-9.267,0l-2.994,1.73q-2.212,1.276-2.227,2.684t2.2,2.684l9.96,5.752a9.16,9.16,0,0,0,9.3-.02l2.994-1.725c1.455-.841,2.183-1.731,2.183-2.679S218.885,394.018,217.43,393.177Zm-3.018,1.607q2.212,1.276.064,2.522l-2.124,1.224a4.093,4.093,0,0,1-4.37-.035l-9.719-5.609q-2.22-1.283-.059-2.522l2.124-1.229a4.1,4.1,0,0,1,4.365.034Z" transform="translate(38.896 -130.514)" fill="#fff"/>
                <path id="Path_8329" data-name="Path 8329" d="M217.653,398.406l2.994-1.73q2.183-1.261,2.183-2.674t-2.183-2.679l-9.96-5.747a9.076,9.076,0,0,0-9.272,0l-2.989,1.725c-1.475.85-2.217,1.75-2.232,2.684s.723,1.833,2.2,2.684l9.96,5.752a9.145,9.145,0,0,0,9.3-.015Zm-16.179-7.374c-1.475-.855-1.495-1.691-.059-2.522l2.124-1.229a4.1,4.1,0,0,1,4.365.039l9.719,5.609q2.22,1.283.064,2.522l-2.124,1.229a4.1,4.1,0,0,1-4.37-.039Z" transform="translate(51.475 -137.778)" fill="#fff"/>
                <path id="Path_8330" data-name="Path 8330" d="M202.266,389.252l1.376-2.969,15.608,9.016a.972.972,0,0,0,1.018,0l1.947-1.126c.32-.182.3-.374-.029-.57l-18.214-10.515a.972.972,0,0,0-1.018,0l-1.794,1.037a1.591,1.591,0,0,0-.629.742l-1.229,2.886c-.118.251-.02.472.3.654l1.765,1.018A.593.593,0,0,0,202.266,389.252Z" transform="translate(63.455 -143.097)" fill="#fff"/>
                <path id="Path_8331" data-name="Path 8331" d="M225.844,388.319l-9.96-5.747a9.068,9.068,0,0,0-4.651-1.273,9.2,9.2,0,0,0-4.616,1.273l-2.994,1.725q-2.212,1.276-2.227,2.684t2.2,2.684l9.96,5.752a9.16,9.16,0,0,0,9.3-.02l2.989-1.725q2.19-1.261,2.188-2.674T225.844,388.319Zm-3.018,1.608c1.475.855,1.494,1.691.059,2.522l-2.124,1.224a4.084,4.084,0,0,1-4.365-.035l-9.719-5.609q-2.22-1.283-.064-2.522l2.124-1.229a4.1,4.1,0,0,1,4.37.039Z" transform="translate(71.846 -149.538)" fill="#fff"/>
                <path id="Path_8332" data-name="Path 8332" d="M227.383,390.6l-18.214-10.515a.951.951,0,0,0-1.018,0l-1.789,1.037a1.565,1.565,0,0,0-.629.742l-1.229,2.881c-.118.256-.02.472.3.659l1.765,1.018a.594.594,0,0,0,.9-.172l1.372-2.969,15.613,9.011a.951.951,0,0,0,1.018,0l1.942-1.121C227.732,390.991,227.722,390.8,227.383,390.6Z" transform="translate(83.826 -154.86)" fill="#fff"/>
                <path id="Path_8333" data-name="Path 8333" d="M227.459,391.146l1.947-1.126c.32-.182.3-.374-.034-.565l-18.209-10.515a.952.952,0,0,0-1.018,0l-1.794,1.032a1.59,1.59,0,0,0-.629.742l-1.229,2.886c-.118.256-.02.472.3.654l1.765,1.022a.594.594,0,0,0,.9-.177l1.377-2.969,15.608,9.016A.951.951,0,0,0,227.459,391.146Z" transform="translate(91.615 -159.355)" fill="#fff"/>
                <path id="Path_8334" data-name="Path 8334" d="M228.427,390a.951.951,0,0,0,1.017,0l1.947-1.121c.319-.187.31-.374-.03-.57l-18.214-10.515a.952.952,0,0,0-1.018,0l-1.794,1.037a1.593,1.593,0,0,0-.629.742l-1.224,2.881c-.118.256-.02.472.3.659l1.76,1.018a.592.592,0,0,0,.9-.172l1.377-2.969Z" transform="translate(99.408 -163.855)" fill="#fff"/>
                <path id="Path_8335" data-name="Path 8335" d="M231.438,388.85l1.947-1.126c.315-.182.3-.374-.034-.57l-18.209-10.515a.972.972,0,0,0-1.018,0l-1.794,1.037a1.59,1.59,0,0,0-.629.742l-1.229,2.886c-.118.251-.02.472.3.654l1.765,1.018a.594.594,0,0,0,.9-.172l1.372-2.969,15.613,9.016A.961.961,0,0,0,231.438,388.85Z" transform="translate(107.196 -168.351)" fill="#fff"/>
                <path id="Path_8336" data-name="Path 8336" d="M233.427,387.7l1.947-1.121c.32-.187.3-.374-.03-.57L217.13,375.493a.951.951,0,0,0-1.018,0l-1.794,1.032a1.579,1.579,0,0,0-.629.747l-1.229,2.881c-.118.256-.015.472.3.659l1.765,1.018a.593.593,0,0,0,.9-.172l1.376-2.969,15.608,9.011A.952.952,0,0,0,233.427,387.7Z" transform="translate(114.986 -172.85)" fill="#fff"/>
                <path id="Path_8337" data-name="Path 8337" d="M236.014,387.8,239,386.076q2.183-1.261,2.183-2.679T239,380.722l-9.96-5.752a9.1,9.1,0,0,0-9.267,0l-2.994,1.731q-2.212,1.276-2.227,2.684t2.2,2.684l9.96,5.752a9.116,9.116,0,0,0,4.636,1.258A9.211,9.211,0,0,0,236.014,387.8Zm-16.179-7.374q-2.219-1.276-.064-2.522l2.124-1.224a4.1,4.1,0,0,1,4.37.034l9.719,5.614q2.212,1.276.059,2.517l-2.124,1.229a4.094,4.094,0,0,1-4.365-.034Z" transform="translate(123.377 -179.288)" fill="#fff"/>
                <path id="Path_8338" data-name="Path 8338" d="M238.629,384.7l1.942-1.121c.32-.187.31-.379-.029-.57L222.328,372.49a.952.952,0,0,0-1.018,0l-1.794,1.032a1.607,1.607,0,0,0-.629.747l-1.224,2.881c-.118.255-.02.472.3.654l1.765,1.022a.591.591,0,0,0,.895-.172L222,375.686l15.613,9.011A.951.951,0,0,0,238.629,384.7Z" transform="translate(135.357 -184.61)" fill="#fff"/>
                <path id="Path_8339" data-name="Path 8339" d="M234.249,371.967a9.106,9.106,0,0,0-9.272,0l-2.989,1.726q-2.212,1.283-2.232,2.684c-.01.939.723,1.839,2.2,2.689l9.96,5.747a9.145,9.145,0,0,0,9.3-.015l2.994-1.725q2.183-1.261,2.183-2.679t-2.183-2.674Zm6.937,7.354q2.22,1.283.064,2.522l-2.124,1.229a4.1,4.1,0,0,1-4.37-.034l-9.719-5.614q-2.212-1.276-.059-2.522l2.124-1.224a4.094,4.094,0,0,1,4.365.034Z" transform="translate(143.744 -191.048)" fill="#fff"/>
                <path id="Path_8340" data-name="Path 8340" d="M225.828,375.647l1.377-2.964,15.608,9.011a.951.951,0,0,0,1.018,0l1.947-1.126c.319-.182.3-.374-.03-.565l-18.214-10.516a.951.951,0,0,0-1.018,0l-1.794,1.032a1.59,1.59,0,0,0-.629.742l-1.229,2.886c-.118.256-.02.472.3.654l1.765,1.023A.594.594,0,0,0,225.828,375.647Z" transform="translate(155.724 -196.369)" fill="#fff"/>
              </g>
            </g>
          </g>
          <path id="Path_8342" data-name="Path 8342" d="M421.652,363.977l-.074,26.817c-.054,19.138-12.6,38.252-37.681,52.823-50.448,29.319-132.836,29.319-183.619,0-25.563-14.763-38.33-34.181-38.276-53.565l.074-26.822c-.054,19.389,12.713,38.807,38.276,53.57,50.783,29.314,133.17,29.314,183.624,0,25.072-14.571,37.622-33.68,37.676-52.818Z" transform="translate(-162.002 -288.43)" fill="url(#linear-gradient-3)"/>
          <path id="Path_8343" data-name="Path 8343" d="M383.336,370.011c50.778,29.319,51.048,77.039.58,106.368s-132.841,29.319-183.624,0-51.063-77.054-.615-106.373C250.146,340.682,332.534,340.682,383.336,370.011ZM204.156,474.138c48.644,28.085,127.542,28.085,175.871,0,48.349-28.1,48.089-73.8-.555-101.885-48.664-28.1-127.561-28.1-175.905,0s-48.074,73.79.59,101.885Z" transform="translate(-161.942 -348.014)" fill="url(#linear-gradient-4)"/>
        </g>
        <path id="Path_8344" data-name="Path 8344" d="M222.912,374.909c-1.893-1.135-4.528-.993-7.443.688-5.762,3.328-10.432,11.415-10.432,18.066,0,3.289,1.141,5.609,2.989,6.715l33.753,19.487,14.886-25.47Z" transform="translate(6.525 -245.576)" fill="url(#linear-gradient-5)"/>
        <g id="Axonometric_Cylinder" data-name="Axonometric Cylinder" transform="translate(240.95 140.333)">
          <path id="Path_8345" data-name="Path 8345" d="M241.45,377.812c-3.225-1.932-7.713-1.691-12.673,1.175-9.807,5.663-17.762,19.433-17.762,30.76,0,5.594,1.942,9.547,5.088,11.43L343,494.44l25.347-43.364Z" transform="translate(-211.015 -376.561)" fill="url(#linear-gradient-6)"/>
          <path id="Cylinder_face" data-name="Cylinder face" d="M236.828,424.647c0,11.327,7.954,15.918,17.762,10.255s17.757-19.433,17.757-30.76c0-7.443-3.431-11.98-8.573-12.6-2.679-.325-5.821.408-9.183,2.35C244.782,399.551,236.828,413.321,236.828,424.647Z" transform="translate(-109.931 -318.198)" fill="#261e22"/>
        </g>
        <path id="Path_8346" data-name="Path 8346" d="M236.97,424.941c4.439-21.729,19.055-33.218,26.945-33.109C253.793,388.3,234.748,406.457,236.97,424.941Z" transform="translate(130.877 -178.159)" opacity="0.5" fill="url(#radial-gradient)" style="mix-blend-mode: screen;isolation: isolate"/>
      </g>
    </g>
  </g>
</svg>
