<svg id="Group_4929" data-name="Group 4929" xmlns="http://www.w3.org/2000/svg" width="334.289" height="723.188" viewBox="0 0 334.289 723.188">
  <path id="Path_11676" data-name="Path 11676" d="M-706.944,376.547c-.349,28.583-9.818,49.779,42.751,74.515-31.29,43.048-62.107,58.955-62.107,58.955s-65.928-29.677-88.582-49.313c27.87-20.277,48.125-22.716,47.608-49.9-.124-6.527.181-33.209.356-33.726Z" transform="translate(912.577 -235.391)" fill="#f79678"/>
  <path id="Path_11677" data-name="Path 11677" d="M-697.236,278.951c-25.454-35.595-85.517-26.6-92.508,28.014-6.935,54.179,19.285,96.84,34.514,101.012,13.8,3.781,27.432,5.448,38.963-2.353C-685.966,385.126-674.27,311.066-697.236,278.951Z" transform="translate(912.577 -235.391)" fill="#f79678"/>
  <path id="Path_11678" data-name="Path 11678" d="M-775.508,244.125c-4.431,16.794-27.68,12.27-23.211,33.756l8.614,67.179c1.175-13.63,3.23-43.742,9.546-46.752,21.65-10.32,63.252-8.312,81.367.389,5.349,2.57,12.175,49.338,12.175,49.338,32.035-77.83,1.554-81.8,3.121-97.07,1.875-18.264-23.027,3.488-33.514-11.422-2.92-4.152-15.788,5.051-18.747-.175-5.57-9.837-22.581,1.158-23.534,5.316C-762.845,240.512-773.9,238.022-775.508,244.125Z" transform="translate(912.577 -235.391)" fill="#232630"/>
  <path id="Path_11679" data-name="Path 11679" d="M-751.623,312.339c-11.7-2.578-31.783,10.009-25.259,11.329,2.132.431,8.1-3.167,10.394-3.8,4.592-1.274,13.474-.644,15.983-3.659C-749.475,314.968-750.131,312.667-751.623,312.339Z" transform="translate(912.577 -235.391)" fill="#232630"/>
  <path id="Path_11680" data-name="Path 11680" d="M-725.672,316.425c2.514,3.01,11.4,2.362,15.99,3.626,2.291.631,8.271,4.217,10.4,3.781,6.521-1.333-13.612-14-25.282-11.277A2.445,2.445,0,0,0-725.672,316.425Z" transform="translate(912.577 -235.391)" fill="#232630"/>
  <g id="Group_4894" data-name="Group 4894" transform="translate(111.463 95.201)">
    <g id="Group_4890" data-name="Group 4890" transform="translate(0 0.297)">
      <path id="Path_11681" data-name="Path 11681" d="M-795.934,331.178c10.349-3.043,11,18.629,11.029,29.386C-784.854,381.769-812.234,335.97-795.934,331.178Z" transform="translate(801.114 -330.888)" fill="#f79678"/>
    </g>
    <g id="Group_4891" data-name="Group 4891" transform="translate(6.694 10.632)">
      <path id="Path_11682" data-name="Path 11682" d="M-793.725,341.774a.779.779,0,0,1,1.489.456c-1.823,5.96-.012,9.453,2.437,10.8a.778.778,0,0,1,.307,1.057C-790.867,356.591-796.333,350.3-793.725,341.774Z" transform="translate(794.421 -341.223)" fill="#e86248"/>
    </g>
    <g id="Group_4892" data-name="Group 4892" transform="translate(109.688)">
      <path id="Path_11683" data-name="Path 11683" d="M-680.4,330.881c-10.35-3.043-11,18.629-11.029,29.386C-691.477,381.472-664.1,335.673-680.4,330.881Z" transform="translate(691.426 -330.591)" fill="#f79678"/>
    </g>
    <g id="Group_4893" data-name="Group 4893" transform="translate(114.178 10.335)">
      <path id="Path_11684" data-name="Path 11684" d="M-682.606,341.477a.779.779,0,0,0-1.489.456c1.824,5.96.012,9.453-2.437,10.8a.777.777,0,0,0-.307,1.057C-685.464,356.294-680,350-682.606,341.477Z" transform="translate(686.936 -340.926)" fill="#e86248"/>
    </g>
  </g>
  <g id="Group_4895" data-name="Group 4895" transform="translate(147.2 92.054)">
    <path id="Path_11685" data-name="Path 11685" d="M-762.111,340.335c-3.39,0-6.042-12.89,2.181-12.89C-755.54,327.445-756.564,340.335-762.111,340.335Z" transform="translate(765.377 -327.445)" fill="#2b1e1a"/>
    <path id="Path_11686" data-name="Path 11686" d="M-711.753,340.848c3.39,0,6.043-12.89-2.181-12.89C-718.323,327.958-717.3,340.848-711.753,340.848Z" transform="translate(765.377 -327.445)" fill="#2b1e1a"/>
  </g>
  <g id="Group_4896" data-name="Group 4896" transform="translate(145.492 163.043)">
    <path id="Path_11687" data-name="Path 11687" d="M-766.573,399.6a.972.972,0,0,1,1.362.176c8.9,11.533,40.28,15.449,55.343-1.013a.971.971,0,0,1,1.434,1.31C-730.676,424.375-772.155,403.9-766.573,399.6Z" transform="translate(767.084 -398.434)" fill="#e86248"/>
  </g>
  <g id="Group_4897" data-name="Group 4897" transform="translate(169.953 94.864)">
    <path id="Path_11688" data-name="Path 11688" d="M-742.591,361.326c-.341-1.43,2.089-1.563,3.612-1.9,5.6-1.249,5.846,1.493,3.247-21.991-.508-4.585-1.282-7.047.354-7.175,1.545-.1,1.133,1.723,1.71,6.947,2.823,25.509,2.881,22.374-7.671,24.889A1.039,1.039,0,0,1-742.591,361.326Z" transform="translate(742.623 -330.254)" fill="#e86248"/>
  </g>
  <path id="Path_11689" data-name="Path 11689" d="M-749.537,381.5c-1.39-2.523,2.237-1.848,24.4-4.18C-718.484,376.617-738.013,402.432-749.537,381.5Z" transform="translate(912.577 -235.391)" fill="#e86248"/>
  <g id="Group_4898" data-name="Group 4898" transform="translate(39.135 467.143)">
    <path id="Path_11690" data-name="Path 11690" d="M-620.966,957.093c-5.7-123.542-13.2-232.308-21.485-253.3l-200.461.642c-13.016,39.612-22.457,140.9-29.185,252.6,37.57.446,74.954,1.066,112.317,1.368,3.134-13.162,6.51-27.087,10.163-41.874q4.051,21.688,7.841,41.99C-701.584,958.72-661.382,958.45-620.966,957.093Z" transform="translate(873.442 -702.533)" fill="#2d3a4f"/>
    <path id="Path_11691" data-name="Path 11691" d="M-841.994,705.7l198.67-.637c7.1,19.943,14.571,109.947,21.108,252.071.832-.027,1.663-.05,2.5-.078-4.771-103.075-12.374-230.447-21.557-253.72l-.316-.8-202.233.647-.285.865c-13.123,39.942-22.6,141.217-29.331,252.974q1.352.017,2.7.033C-864.061,846.168-854.745,745.543-841.994,705.7Z" transform="translate(873.442 -702.533)" fill="#242f3d"/>
    <path id="Path_11692" data-name="Path 11692" d="M-748.376,916.3l-1.069-5.721-1.4,5.65q-5.52,22.343-10.235,42.168l2.59.018c2.711-11.383,5.6-23.329,8.7-35.923q3.462,18.532,6.727,36.025l2.569.011Q-744.305,938.1-748.376,916.3Z" transform="translate(873.442 -702.533)" fill="#242f3d"/>
  </g>
  <g id="Group_4903" data-name="Group 4903" transform="translate(130.596 514.715)">
    <g id="Group_4899" data-name="Group 4899" transform="translate(25.212 13.147)">
      <path id="Path_11693" data-name="Path 11693" d="M-749.834,905.583a1.261,1.261,0,0,1-1.251-1.114c-5.61-47.458-3.675-77.589-2.262-99.591,1.214-18.92,1.948-30.34-3.264-39.751a1.262,1.262,0,0,1,.493-1.715,1.259,1.259,0,0,1,1.715.493c5.569,10.057,4.818,21.755,3.574,41.135-1.407,21.9-3.334,51.905,2.249,99.133a1.259,1.259,0,0,1-1.1,1.4A1.086,1.086,0,0,1-749.834,905.583Z" transform="translate(756.769 -763.253)" fill="#242f3d"/>
    </g>
    <g id="Group_4900" data-name="Group 4900" transform="translate(4.764 13.176)">
      <path id="Path_11694" data-name="Path 11694" d="M-762.259,834.513a6.884,6.884,0,0,1-4.828-1.614c-4.478-3.89-7.274-15.519-10.128-68.285a1.261,1.261,0,0,1,1.192-1.327,1.246,1.246,0,0,1,1.328,1.192c2.45,45.3,4.873,62.7,9.262,66.516,1.33,1.155,2.866,1.086,5.458.859a22.173,22.173,0,0,1,6.5.14,1.262,1.262,0,0,1,.994,1.482,1.256,1.256,0,0,1-1.482.993,19.785,19.785,0,0,0-5.8-.1C-760.608,834.442-761.444,834.513-762.259,834.513Z" transform="translate(777.217 -763.282)" fill="#242f3d"/>
    </g>
    <g id="Group_4901" data-name="Group 4901" transform="translate(0 164.702)">
      <path id="Path_11695" data-name="Path 11695" d="M-767.707,914.882a1.257,1.257,0,0,0-1.61.768,376.98,376.98,0,0,0-12.664,42.541l2.586.03a375,375,0,0,1,12.456-41.728A1.263,1.263,0,0,0-767.707,914.882Z" transform="translate(781.981 -914.808)" fill="#242f3d"/>
    </g>
    <g id="Group_4902" data-name="Group 4902" transform="translate(100.804)">
      <path id="Path_11696" data-name="Path 11696" d="M-633.647,820.768a1.263,1.263,0,0,1-1.065-.581c-13.676-21.4-31.389-47.483-46.228-68.085a1.262,1.262,0,0,1,.287-1.76,1.264,1.264,0,0,1,1.761.287c14.863,20.637,32.607,46.769,46.307,68.2a1.264,1.264,0,0,1-.384,1.743A1.256,1.256,0,0,1-633.647,820.768Z" transform="translate(681.177 -750.106)" fill="#242f3d"/>
    </g>
  </g>
  <g id="Group_4904" data-name="Group 4904" transform="translate(50.754 199.069)">
    <path id="Path_11697" data-name="Path 11697" d="M-777.089,435.927c12.032,33.412,70.065,28.781,88.912,1.316,22.58,7.819,55.5,26.24,65.613,34.328,17.125,42.712,15.623,299.708-9.886,298.64-68.352-2.859-242.815,44.974-227.132-45.974,14.707-85.294-13.957-231.671,11.945-265.7C-841,449.816-777.089,435.927-777.089,435.927Z" transform="translate(861.823 -434.46)" fill="#0c4e4a"/>
    <path id="Path_11698" data-name="Path 11698" d="M-779.356,781.565c-31.563,0-58.639-4.518-72.62-19.478-8.634-9.239-11.611-22.046-8.849-38.065,6.6-38.272,4.47-88.09,2.41-136.267-2.544-59.515-4.741-110.912,9.774-129.982,6.727-8.835,64.7-21.647,71.285-23.08l1.08-.233.374,1.039c4.417,12.264,15.586,20.143,31.448,22.182,21.675,2.785,44.913-6.107,55.238-21.152l.543-.793.909.314c22.958,7.951,55.857,26.432,65.988,34.535l.259.209.123.308c16.063,40.062,16.015,266.7-5.2,296.691-1.79,2.53-3.773,3.8-5.909,3.678-17-.7-40.979,1.771-66.364,4.4C-725.6,778.634-753.936,781.565-779.356,781.565Zm1.474-344.173c-18.4,4.047-63.637,15.192-68.75,21.909-13.964,18.344-11.68,71.776-9.261,128.345,2.065,48.312,4.2,98.267-2.446,136.8-2.657,15.413.027,27.161,8.206,35.913,24.387,26.1,91.656,19.136,151.006,12.993,25.48-2.636,49.539-5.129,66.73-4.406,1.211.051,2.48-.829,3.743-2.616,20.949-29.615,20.872-253.358,5.041-293.985-10.155-8-41.605-25.641-64.082-33.6-11.087,15.3-34.881,24.279-57.081,21.436C-760.935,458.106-772.933,449.823-777.882,437.392Z" transform="translate(861.823 -434.46)" fill="#073434"/>
  </g>
  <g id="Group_4911" data-name="Group 4911" transform="translate(111.457 296.507)">
    <path id="Path_11699" data-name="Path 11699" d="M-696.165,623.839c-16.194.638-103.818,1.005-104.556-15.159-.735-16.119-2.17-79.6,13.853-76.685,140.336,25.518,96.847-31.764,99.016,85.567C-687.782,621.382-691.871,623.67-696.165,623.839Z" transform="translate(801.12 -531.898)" fill="#afb1b3"/>
    <g id="Group_4910" data-name="Group 4910" transform="translate(5.626 7.433)">
      <g id="Group_4905" data-name="Group 4905" transform="translate(0 6.668)">
        <path id="Path_11700" data-name="Path 11700" d="M-794.232,577.871a1.268,1.268,0,0,1-.464-.088,1.263,1.263,0,0,1-.71-1.637c1.947-4.94,6.288-6.5,11.782-8.472a61,61,0,0,0,15.63-7.654c1.945-1.368,3.873-2.915,5.736-4.411,4.881-3.917,9.928-7.969,16.147-9.573a1.267,1.267,0,0,1,1.538.906,1.264,1.264,0,0,1-.907,1.538c-5.694,1.467-10.31,5.174-15.2,9.1-1.893,1.521-3.852,3.093-5.864,4.508a63.207,63.207,0,0,1-16.228,7.963c-5.274,1.9-8.758,3.146-10.287,7.025A1.264,1.264,0,0,1-794.232,577.871Z" transform="translate(795.494 -545.999)" fill="#073434"/>
      </g>
      <g id="Group_4906" data-name="Group 4906" transform="translate(18.545 11.658)">
        <path id="Path_11701" data-name="Path 11701" d="M-775.686,590.591a1.263,1.263,0,0,1-1.016-.51,1.265,1.265,0,0,1,.263-1.765c8.157-6.048,16.591-12.3,25.89-16.939a113.831,113.831,0,0,0,19.827-12.383c5.768-4.348,9.577-7.22,19.212-8a1.263,1.263,0,0,1,1.36,1.156,1.264,1.264,0,0,1-1.155,1.36c-8.906.722-12.1,3.13-17.9,7.5a116.024,116.024,0,0,1-20.22,12.625c-9.1,4.539-17.444,10.726-25.513,16.709A1.258,1.258,0,0,1-775.686,590.591Z" transform="translate(776.949 -550.989)" fill="#073434"/>
      </g>
      <g id="Group_4907" data-name="Group 4907" transform="translate(24.992 42.632)">
        <path id="Path_11702" data-name="Path 11702" d="M-769.241,608.254a1.255,1.255,0,0,1-.494-.1,1.261,1.261,0,0,1-.666-1.655c3.127-7.346,7.282-8.08,12.542-9.009a39.833,39.833,0,0,0,15.046-5.306l16.8-10.041a1.261,1.261,0,0,1,1.73.436,1.262,1.262,0,0,1-.436,1.73l-16.8,10.04a42.064,42.064,0,0,1-15.9,5.626c-5.2.919-8.068,1.425-10.66,7.512A1.262,1.262,0,0,1-769.241,608.254Z" transform="translate(770.503 -581.963)" fill="#073434"/>
      </g>
      <g id="Group_4908" data-name="Group 4908" transform="translate(76.025 45.433)">
        <path id="Path_11703" data-name="Path 11703" d="M-718.208,599.889a1.236,1.236,0,0,1-.381-.06,1.26,1.26,0,0,1-.821-1.583c1.4-4.419,5.933-4.959,9.932-5.438,2.265-.269,4.4-.524,5.823-1.389a13.633,13.633,0,0,0,2.989-2.841,13.556,13.556,0,0,1,4.242-3.689,1.261,1.261,0,0,1,1.682.594,1.263,1.263,0,0,1-.593,1.683,11.494,11.494,0,0,0-3.424,3.064,15.691,15.691,0,0,1-3.583,3.342c-1.888,1.151-4.4,1.451-6.837,1.742-4.3.514-6.979,1.019-7.827,3.694A1.262,1.262,0,0,1-718.208,599.889Z" transform="translate(719.469 -584.764)" fill="#073434"/>
      </g>
      <g id="Group_4909" data-name="Group 4909" transform="translate(7.119)">
        <path id="Path_11704" data-name="Path 11704" d="M-787.113,553.36a1.27,1.27,0,0,1-.422-.073,1.263,1.263,0,0,1-.767-1.611c1.852-5.2,3.615-5.575,6.338-5.75,2.332-.149,5.525-.352,11.518-6.234a1.26,1.26,0,0,1,1.784.018,1.26,1.26,0,0,1-.017,1.783c-6.662,6.538-10.552,6.787-13.125,6.951-1.987.127-2.731.175-4.12,4.077A1.262,1.262,0,0,1-787.113,553.36Z" transform="translate(788.375 -539.331)" fill="#073434"/>
      </g>
    </g>
  </g>
  <g id="Group_4912" data-name="Group 4912" transform="translate(171.632 367.621)">
    <path id="Path_11705" data-name="Path 11705" d="M-650.42,649.8c1.07,2.01,5.145,3.3,6.365,2.994,2.542-.638,1.57-5.03,1.1-9.494-1.016-9.658-2.553-12.536-12.254-18-1.378-.776-1.936.038-1.727,1.508C-656.427,630.4-650.475,649.7-650.42,649.8Z" transform="translate(740.945 -603.012)" fill="#e86248"/>
    <path id="Path_11706" data-name="Path 11706" d="M-659.726,614.549c6.916,3.116,6.864,4.466,10.375,10.7,4.919,8.734,10.158,10.5,12.269,13.667,4.634,6.95-7.025,11.157-13.279-1.98-11.643,6.006-20.5-19.141-38.43-7.876-4.251,2.671,2.38,7.676,9.786,9.438,2.754.655,12.98,2.327,13.894,6.3.571,2.482-1.742,5.1-8.248,3.573-25.641-6.012-31.487.51-38.226,1.53-9.886,1.495-35.227-7.887-28.121-22.1,2.707-5.414,9.871-6.115,14.955-8.01C-675.631,601.484-701.163,595.883-659.726,614.549Z" transform="translate(740.945 -603.012)" fill="#f79678"/>
  </g>
  <g id="Group_4913" data-name="Group 4913" transform="translate(0 222.506)">
    <path id="Path_11707" data-name="Path 11707" d="M-882.447,675.755c58.672,12.019,146.546,5.863,178.257-23.811,4.41-4.126-5.506-28.157-6.324-30.684-45.169-.472-99.706-10.707-144.611-11.23l21.8-21.037c23.367-113.815-14.966-129.378-14.966-129.378C-847.637,458.537-963.684,659.113-882.447,675.755Z" transform="translate(912.577 -457.897)" fill="#0c4e4a"/>
    <path id="Path_11708" data-name="Path 11708" d="M-821.389,682.732c-21.5,0-42.788-1.947-61.311-5.741-12.022-2.463-20.534-9.037-25.295-19.537-22.931-50.562,47.115-178.114,57.9-197.223-.035-.015,1.367-2.334,1.367-2.334l1.037.6c2.878,1.264,38.464,19.369,15.6,130.746l-.078.383-19.884,19.189c21.633.456,45.663,3.045,68.936,5.555,24.577,2.649,49.991,5.388,72.616,5.625l.907.01.279.862c.1.318.354.983.7,1.912,6.826,18.163,8.406,27.16,5.284,30.082C-725,673.147-773.7,682.732-821.389,682.732Zm-60.8-8.212c59,12.085,146.254,5.4,177.142-23.5,1.205-1.126,2.037-6.178-5.921-27.352-.168-.446-.314-.835-.433-1.159-22.523-.3-47.661-3.007-71.981-5.629s-49.461-5.332-71.752-5.59l-3.073-.036,23.729-22.9C-813.942,487.9-842.11,464.849-847.8,461.316c-10.413,18.421-80.38,145.515-57.893,195.1,4.411,9.723,12.317,15.816,23.505,18.108Z" transform="translate(912.577 -457.897)" fill="#073434"/>
  </g>
  <g id="Group_4918" data-name="Group 4918" transform="translate(61.035 333.815)">
    <path id="Path_11709" data-name="Path 11709" d="M-742.679,649.22c-3.1-11.13-1.849-29.131-1.318-28.94-11.738-4.234-21.553,13.495-29.771-6.429-3.209-8.622-34.654-39.29-29.987-26.364,1.731,4.8,6.918,13.293,4.262,11.152-18.608-15-38.2-36.458-36.8-27.186.611,4.043,25.811,30.171,23.288,28.058-.59-.494-30.47-26.914-31.238-26.949-10.579-.489,8.288,15.584,24.1,31.985,2.011,2.085-29.1-21.32-29.129-21.311-7.2,2.154,2.8,8.606,28.422,31.39,3.465,3.081-30.673-23.13-26.453-10.53,30.9,28.727,50.618,37.5,57.92,39.993C-786.337,646.352-742.679,649.22-742.679,649.22Z" transform="translate(851.542 -569.206)" fill="#f79678"/>
    <g id="Group_4914" data-name="Group 4914" transform="translate(30.967 45.207)">
      <path id="Path_11710" data-name="Path 11710" d="M-819.032,614.63a55.642,55.642,0,0,0,12.819,7.588c2.527,1.081-.143,4.836-13.991-6.1A.946.946,0,0,1-819.032,614.63Z" transform="translate(820.575 -614.413)" fill="#e86248"/>
    </g>
    <g id="Group_4915" data-name="Group 4915" transform="translate(34.002 36.182)">
      <path id="Path_11711" data-name="Path 11711" d="M-816.161,605.876a57.227,57.227,0,0,0,15.771,10.249.946.946,0,0,1-.756,1.735C-819.712,609.759-818.685,603.567-816.161,605.876Z" transform="translate(817.54 -605.388)" fill="#e86248"/>
    </g>
    <g id="Group_4916" data-name="Group 4916" transform="translate(40.223 31.362)">
      <path id="Path_11712" data-name="Path 11712" d="M-809.593,600.967a20.183,20.183,0,0,0,11.84,7.744.947.947,0,0,1-.406,1.849,22.1,22.1,0,0,1-12.965-8.48A.946.946,0,0,1-809.593,600.967Z" transform="translate(811.319 -600.568)" fill="#e86248"/>
    </g>
    <g id="Group_4917" data-name="Group 4917" transform="translate(53.44 31.251)">
      <path id="Path_11713" data-name="Path 11713" d="M-797.991,601.827a.946.946,0,0,1,1.7-.838c2.006,4.037,6.854,7.912,11.781,9.376a.947.947,0,0,1-.539,1.816C-790.546,610.546-795.817,606.228-797.991,601.827Z" transform="translate(798.101 -600.457)" fill="#e86248"/>
    </g>
  </g>
  <g id="Group_4919" data-name="Group 4919" transform="translate(131.24 234.898)">
    <path id="Path_11714" data-name="Path 11714" d="M-581.819,678.238c-7.889,40.386-151.448,13.456-197.944-26.31-2.766-2.366,13.827-35.1,16.447-35.174,17.692-.483,83.69-1.536,114.822,12.123-.779-2.605-9.157-159.429,25.93-157.306C-585,473.845-574.6,641.275-581.819,678.238Z" transform="translate(781.337 -470.289)" fill="#0c4e4a"/>
    <path id="Path_11715" data-name="Path 11715" d="M-630.259,699.563c-48.647,0-119.6-20.4-150.324-46.677-.976-.835-1.238-2.485.651-7.825,2.44-6.888,13.041-29.471,16.582-29.569,24.249-.665,83.074-.83,113.472,11.436-1.061-17.114-5.645-123.937,15.37-150.438,3.468-4.372,7.5-6.448,12.02-6.178,4.994.3,9.72,3.287,14.043,8.872,26.81,34.638,34.608,164.774,27.864,199.3-1.48,7.582-7.389,13.221-17.562,16.765C-606.649,698.206-617.713,699.563-630.259,699.563Zm-148.55-48.479c37.466,31.888,139.872,55.7,179.835,41.777,9.266-3.228,14.621-8.228,15.917-14.865l1.238.242-1.238-.242c6.5-33.275-1.513-163.843-27.384-197.267-3.858-4.985-7.963-7.643-12.2-7.9-3.426-.2-6.459,1.255-9.263,4.472-22,25.249-16.335,146.437-15.366,151.27l.476,2.378-2.206-.917c-29.231-12.826-89.333-12.686-114.062-12.024C-766.521,620.489-779.477,647.7-778.809,651.084Z" transform="translate(781.337 -470.289)" fill="#073434"/>
  </g>
  <g id="Group_4928" data-name="Group 4928" transform="translate(118.607 6.115)">
    <g id="Group_4920" data-name="Group 4920" transform="translate(32.249 5.54)">
      <path id="Path_11716" data-name="Path 11716" d="M-760.6,260.837a21.352,21.352,0,0,0-1.017-12.028,1.291,1.291,0,0,1,2.4-.943,23.967,23.967,0,0,1,1.141,13.5A1.291,1.291,0,0,1-760.6,260.837Z" transform="translate(761.72 -247.046)" fill="#272d39"/>
    </g>
    <g id="Group_4921" data-name="Group 4921" transform="translate(51.168)">
      <path id="Path_11717" data-name="Path 11717" d="M-741.343,258.572c-4.4-20.235,2.621-17.991,1.919-15.431-1.355,4.936-.4,10.27.6,14.882.639,2.925,6.026-14.889,8.751-13.6,2.288,1.084-1.408,4.306-5.653,14.659A2.957,2.957,0,0,1-741.343,258.572Z" transform="translate(742.802 -241.506)" fill="#272d39"/>
    </g>
    <g id="Group_4922" data-name="Group 4922" transform="translate(94.154 11.961)">
      <path id="Path_11718" data-name="Path 11718" d="M-698.994,268.186a16.509,16.509,0,0,0,10.227-13.556,1.292,1.292,0,0,1,2.572.24,19.149,19.149,0,0,1-11.861,15.722A1.291,1.291,0,0,1-698.994,268.186Z" transform="translate(699.816 -253.467)" fill="#272d39"/>
    </g>
    <g id="Group_4923" data-name="Group 4923" transform="translate(76.92 6.802)">
      <path id="Path_11719" data-name="Path 11719" d="M-716.02,263.073c-4.044-17.122,5.259-16.053,3.32-12.91-2.783,4.509-2.137,6.666-.806,12.319A1.291,1.291,0,0,1-716.02,263.073Z" transform="translate(717.05 -248.308)" fill="#272d39"/>
    </g>
    <g id="Group_4924" data-name="Group 4924" transform="translate(100.838 41.794)">
      <path id="Path_11720" data-name="Path 11720" d="M-692.545,299.174c4.689-3.13,8.66-10.149,8.167-14.441a1.291,1.291,0,0,1,2.566-.3c.605,5.283-3.74,13.173-9.3,16.885A1.291,1.291,0,0,1-692.545,299.174Z" transform="translate(693.132 -283.3)" fill="#272d39"/>
    </g>
    <g id="Group_4925" data-name="Group 4925" transform="translate(4.459 37.542)">
      <path id="Path_11721" data-name="Path 11721" d="M-785.212,292.979c-4.1-4.942-5.861-14.54-2.62-13.9a1.29,1.29,0,0,1,1.028,1.508c-.824,4.361,3.512,12.352,5.831,12.352C-778.061,292.938-780.35,298.848-785.212,292.979Z" transform="translate(789.511 -279.048)" fill="#272d39"/>
    </g>
    <g id="Group_4926" data-name="Group 4926" transform="translate(49.234 32.242)">
      <path id="Path_11722" data-name="Path 11722" d="M-735.722,288a1.291,1.291,0,0,1-2.531.506,55.185,55.185,0,0,0-3.07-10.326c-1.961,8.115.852,11.019-1.582,11.367C-747.666,290.237-742.382,254.724-735.722,288Z" transform="translate(744.735 -273.748)" fill="#272d39"/>
    </g>
    <g id="Group_4927" data-name="Group 4927" transform="translate(0 5.414)">
      <path id="Path_11723" data-name="Path 11723" d="M-793.736,267.843c7.078-10.675,15.036-1.95,20.623-20.017a1.292,1.292,0,0,1,2.468.763c-5.93,19.168-14.757,11.355-20.938,20.681A1.292,1.292,0,0,1-793.736,267.843Z" transform="translate(793.97 -246.919)" fill="#272d39"/>
    </g>
  </g>
</svg>
