<svg xmlns="http://www.w3.org/2000/svg" width="1215.475" height="1111.073" viewBox="0 0 1215.475 1111.073">
  <g id="Group_3295" data-name="Group 3295" transform="translate(-32.722 -48.841)">
    <rect id="Rectangle_7683" data-name="Rectangle 7683" width="154.19" height="154.19" rx="9.95" transform="translate(118.258 534.471)" fill="#96fffa" opacity="0.58"/>
    <rect id="Rectangle_7684" data-name="Rectangle 7684" width="143.77" height="147.913" rx="9.411" transform="translate(218.444 339.644)" fill="#fcddfc"/>
    <rect id="Rectangle_7685" data-name="Rectangle 7685" width="71.885" height="73.956" rx="4.705" transform="translate(155.86 160.074)" fill="#fcddfc"/>
    <rect id="Rectangle_7686" data-name="Rectangle 7686" width="71.885" height="73.956" rx="4.705" transform="translate(611.643 541.552)" fill="#fcddfc"/>
    <rect id="Rectangle_7687" data-name="Rectangle 7687" width="71.885" height="73.956" rx="4.705" transform="translate(677.168 197.052)" fill="#fcddfc"/>
    <rect id="Rectangle_7688" data-name="Rectangle 7688" width="71.885" height="73.956" rx="4.705" transform="translate(1085.449 187.9)" fill="#fcddfc"/>
    <rect id="Rectangle_7689" data-name="Rectangle 7689" width="46.39" height="47.727" rx="3.037" transform="translate(70.531 81.91)" fill="#fcddfc"/>
    <rect id="Rectangle_7690" data-name="Rectangle 7690" width="46.39" height="47.727" rx="3.037" transform="translate(485.626 105.774)" fill="#fcddfc"/>
    <path id="Rectangle_7691" data-name="Rectangle 7691" d="M3.036,0H43.354A3.036,3.036,0,0,1,46.39,3.036V44.69a3.037,3.037,0,0,1-3.037,3.037H3.037A3.037,3.037,0,0,1,0,44.69V3.036A3.036,3.036,0,0,1,3.036,0Z" transform="translate(152.215 799.108)" fill="#fcddfc"/>
    <path id="Rectangle_7692" data-name="Rectangle 7692" d="M3.037,0H43.354A3.036,3.036,0,0,1,46.39,3.036V44.691a3.036,3.036,0,0,1-3.036,3.036H3.037A3.037,3.037,0,0,1,0,44.69V3.037A3.037,3.037,0,0,1,3.037,0Z" transform="translate(1084.163 1009.143)" fill="#fcddfc"/>
    <path id="Rectangle_7693" data-name="Rectangle 7693" d="M3.036,0H43.354A3.036,3.036,0,0,1,46.39,3.036V44.69a3.037,3.037,0,0,1-3.037,3.037H3.037A3.037,3.037,0,0,1,0,44.69V3.036A3.036,3.036,0,0,1,3.036,0Z" transform="translate(707.34 895.546)" fill="#fcddfc"/>
    <rect id="Rectangle_7694" data-name="Rectangle 7694" width="37.9" height="38.992" rx="2.481" transform="translate(1084.209 331.077)" fill="#fcddfc"/>
    <rect id="Rectangle_7695" data-name="Rectangle 7695" width="37.899" height="38.992" rx="2.481" transform="translate(911.683 166.133)" fill="#96fffa" opacity="0.58"/>
    <rect id="Rectangle_7696" data-name="Rectangle 7696" width="37.899" height="38.991" rx="2.481" transform="translate(199.494 99.497)" fill="#96fffa" opacity="0.58"/>
    <rect id="Rectangle_7697" data-name="Rectangle 7697" width="37.9" height="38.991" rx="2.481" transform="translate(51.581 197.052)" fill="#96fffa" opacity="0.58"/>
    <rect id="Rectangle_7698" data-name="Rectangle 7698" width="37.899" height="38.992" rx="2.481" transform="translate(533.551 449.911)" fill="#96fffa" opacity="0.58"/>
    <rect id="Rectangle_7699" data-name="Rectangle 7699" width="37.899" height="38.992" rx="2.481" transform="translate(1130.352 354.062)" fill="#96fffa" opacity="0.58"/>
    <path id="Rectangle_7700" data-name="Rectangle 7700" d="M3.036,0H43.354a3.037,3.037,0,0,1,3.037,3.037V44.69a3.037,3.037,0,0,1-3.037,3.037H3.037A3.037,3.037,0,0,1,0,44.69V3.036A3.036,3.036,0,0,1,3.036,0Z" transform="translate(949.675 210.167)" fill="#fcddfc"/>
    <path id="Rectangle_7701" data-name="Rectangle 7701" d="M3.037,0H43.354a3.037,3.037,0,0,1,3.037,3.037V44.691a3.036,3.036,0,0,1-3.036,3.036H3.037A3.037,3.037,0,0,1,0,44.69V3.037A3.037,3.037,0,0,1,3.037,0Z" transform="translate(484.318 252.967)" fill="#fcddfc"/>
    <path id="Rectangle_7702" data-name="Rectangle 7702" d="M3.037,0H43.354A3.036,3.036,0,0,1,46.39,3.036V44.691a3.036,3.036,0,0,1-3.036,3.036H3.036A3.036,3.036,0,0,1,0,44.691V3.037A3.037,3.037,0,0,1,3.037,0Z" transform="translate(560.303 377.739)" fill="#fcddfc"/>
    <path id="Rectangle_7703" data-name="Rectangle 7703" d="M3.036,0H43.354A3.036,3.036,0,0,1,46.39,3.036V44.69a3.037,3.037,0,0,1-3.037,3.037H3.037A3.037,3.037,0,0,1,0,44.69V3.036A3.036,3.036,0,0,1,3.036,0Z" transform="translate(1164.053 425.466)" fill="#fcddfc"/>
    <circle id="Ellipse_374" data-name="Ellipse 374" cx="251.27" cy="251.27" r="251.27" transform="translate(684.707 470.125)" fill="#96fffa" opacity="0.58"/>
    <line id="Line_74" data-name="Line 74" y1="0.22" transform="translate(831.961 211.995)" fill="none"/>
    <g id="Group_3276" data-name="Group 3276" transform="translate(216.914 652.911)">
      <path id="Path_6398" data-name="Path 6398" d="M166.1,434.775c-29.6-30.873-87.511-80.221-60.525-128.644,33.1-59.406,146.663-41.552,199.067-26.452,47.668,13.735,93.641,41.815,83,98.517-4.457,23.751-24.073,39.793-30.317,62.032-10.626-3.831-25.566-.861-37.254-1.468,4.066-15.659,1.325-33.228-10.917-44.525-18.335-16.914-69.266-40.828-95.025-31.978-35.084,12.052,10.276,68.346,21.732,83.457-15.346-2.782-30.183,1.074-46,.246" transform="translate(-98.593 -264.87)" fill="#ccc2fe"/>
      <g id="Group_3275" data-name="Group 3275" transform="translate(16.379 170.061)">
        <path id="Path_6399" data-name="Path 6399" d="M116.436,349.66H411.671a12.022,12.022,0,0,0,11.987-11.987h0a12.022,12.022,0,0,0-11.987-11.985H116.436a12.021,12.021,0,0,0-11.985,11.985h0A12.022,12.022,0,0,0,116.436,349.66Z" transform="translate(-104.451 -325.688)" fill="#ccc2fe"/>
        <path id="Path_6400" data-name="Path 6400" d="M200.647,595.693h0a3.74,3.74,0,0,0,3.73-3.727V333.7a3.74,3.74,0,0,0-3.73-3.73h0a3.74,3.74,0,0,0-3.727,3.73V591.965A3.739,3.739,0,0,0,200.647,595.693Z" transform="translate(61.646 -317.989)" fill="#ccc2fe"/>
        <path id="Path_6401" data-name="Path 6401" d="M144.04,595.693h0a3.739,3.739,0,0,0,3.727-3.727V333.7a3.74,3.74,0,0,0-3.727-3.73h0a3.739,3.739,0,0,0-3.727,3.73V591.965A3.739,3.739,0,0,0,144.04,595.693Z" transform="translate(-40.034 -317.989)" fill="#ccc2fe"/>
        <path id="Path_6402" data-name="Path 6402" d="M169.646,598.05h0a3.739,3.739,0,0,0,3.727-3.727V336.061a3.739,3.739,0,0,0-3.727-3.727h0a3.739,3.739,0,0,0-3.73,3.727V594.322A3.739,3.739,0,0,0,169.646,598.05Z" transform="translate(5.955 -313.75)" fill="#ccc2fe"/>
        <path id="Path_6403" data-name="Path 6403" d="M117.169,595.693h0a3.739,3.739,0,0,0,3.727-3.727V333.7a3.739,3.739,0,0,0-3.727-3.73h0a3.739,3.739,0,0,0-3.727,3.73V591.965A3.739,3.739,0,0,0,117.169,595.693Z" transform="translate(-88.301 -317.989)" fill="#ccc2fe"/>
      </g>
    </g>
    <path id="Path_6404" data-name="Path 6404" d="M326.69,298.212l3.032,5.544,5.544,3.032-5.544,3.032-3.032,5.544-3.032-5.544-5.544-3.032,5.544-3.032Z" transform="translate(512.632 447.93)" fill="#eef4f2"/>
    <g id="Group_3278" data-name="Group 3278" transform="translate(578.6 649.6)">
      <path id="Path_6405" data-name="Path 6405" d="M253.141,317.328,227.941,625l44.74-295H580.267l62.915,295L599.841,334.2l19.574-1.4L697.709,625,622.746,317.328Z" transform="translate(-227.941 -167.332)" fill="#ccc2fe" stroke="#ccc2fe" stroke-linecap="round" stroke-linejoin="round" stroke-width="2"/>
      <path id="Path_6406" data-name="Path 6406" d="M247.191,323.362l44.74,290.8-27.962-290.8Z" transform="translate(-193.363 -156.494)" fill="#ccc2fe" stroke="#ccc2fe" stroke-linecap="round" stroke-linejoin="round" stroke-width="2"/>
      <path id="Path_6407" data-name="Path 6407" d="M622.745,324.3h-385.9c-4.9,0-8.9-2.441-8.9-5.425h0c0-2.984,4-5.425,8.9-5.425h385.9c4.9,0,8.9,2.441,8.9,5.425h0C631.646,321.856,627.641,324.3,622.745,324.3Z" transform="translate(-227.94 -174.302)" fill="#8b77e8"/>
      <g id="Group_3277" data-name="Group 3277" transform="translate(122.697)">
        <path id="Path_6408" data-name="Path 6408" d="M357.9,325.184H280.17a8.375,8.375,0,0,1-8.35-8.35h0a8.373,8.373,0,0,1,8.35-8.347H357.9a8.37,8.37,0,0,1,8.347,8.347h0A8.373,8.373,0,0,1,357.9,325.184Z" transform="translate(-271.82 -183.212)" fill="#b3a4f5"/>
        <rect id="Rectangle_7704" data-name="Rectangle 7704" width="187.224" height="140.782" rx="2.757" transform="translate(74.102)" fill="#ccc2fe"/>
        <path id="Path_6409" data-name="Path 6409" d="M367.163,301.516a18.708,18.708,0,1,1-18.71-18.707A18.711,18.711,0,0,1,367.163,301.516Z" transform="translate(-167.769 -229.337)" fill="#eef4f2"/>
      </g>
    </g>
    <rect id="Rectangle_7705" data-name="Rectangle 7705" width="88.146" height="167.774" rx="12" transform="translate(411.977 666.346)" fill="#745cd4"/>
    <g id="Group_3280" data-name="Group 3280" transform="translate(135.878 365.581)">
      <path id="Path_6410" data-name="Path 6410" d="M179.439,355.313c-3.781-5.263-7.639-10.528-11.4-15.941-12.994-18.682-33.029-44.908-28.326-69.207a36.777,36.777,0,0,1,5.939-2.539c.671-.235,1.39-.467,2.161-.7.025,0,.025-.022.05-.022,3.28-1.021,7.206-2.1,11.353-3.084,8.042-1.938,16.895-3.52,23.472-3.624,1.384-.025,4.765-1,8.668-2.324a176.205,176.205,0,0,0,16.652-6.37,78.743,78.743,0,0,0,19.688-14.4c13.344-13.388,18.782-28.583,18.911-35.638a121.478,121.478,0,0,1,1.834-16.828l40.4.719c-.048,3.943-.213,7.541-.21,10.237.031,16.076,8.749,30.174,20.211,41.552,13.867,13.749,31.76,23.474,43.126,27.817,3.182.229,7.3.6,11.82,1.116,4.636.5,9.692,1.177,14.524,1.974,1.946.3,3.845.632,5.665,1.007.912.165,1.8.352,2.659.537l.05,0c.442.1.861.187,1.281.291.738.159,1.476.344,2.164.529a.762.762,0,0,1,.246.053c.789.21,1.527.419,2.24.629a8.494,8.494,0,0,1,1.032.31c.688.21,1.325.442,1.915.649,5.131,1.929,9.655,4.678,12.8,8.7a.8.8,0,0,1,.145.173,21.911,21.911,0,0,1,3.968,8.942c1.812,9.172.5,20.03,1.247,30.75.45,6.6-29.816,20.961-43.795,28.58a55.408,55.408,0,0,0-5.948,3.571c-5.388,4.069-10.682,8.411-15.709,13.025-1.208,1.082-2.413,2.212-3.571,3.344-13.458,13.067-24.635,28.234-30.071,45.976-.291.976-.607,2.05-.875,3.218-.1.392-.187.783-.291,1.2-.084.391-.19.805-.271,1.219-.187.83-.377,1.708-.54,2.615-1.334,6.739-2.449,15.125-3.372,23.855-.154,1.641-.333,3.327-.486,4.991L223.172,450.7c-.02-1.594-.067-3.188-.087-4.756-.129-3.825-.285-7.575-.54-11.182-.131-2.257-.316-4.44-.548-6.577-.062-.786-.145-1.546-.257-2.31-.148-1.253-.3-2.455-.475-3.657-.112-.789-.246-1.574-.38-2.335s-.268-1.5-.428-2.24c-.137-.735-.3-1.448-.456-2.164-.159-.688-.322-1.376-.506-2.041-3.89-14.552-11.616-27.554-21.344-39.17A175.842,175.842,0,0,0,179.439,355.313Z" transform="translate(55.04 -121.66)" fill="#eae9c5"/>
      <path id="Path_6411" data-name="Path 6411" d="M137.192,248.154c2.265-4.723,6.971-9.267,15.673-10.752,12.245-2.086,24.761-3.28,36.827-5.9,2.069-.428,4.094-.923,6.118-1.462,2.785-.727,5.528-1.563,8.246-2.533,13.721-4.9,29.142-14.921,38.879-27.638.092-.117.171-.243.263-.364l66.492,1.18c.1.123.187.252.285.375a87.056,87.056,0,0,0,8.766,9.412c1.658,1.513,3.336,3.006,5.067,4.41,3.386,2.8,6.918,5.416,10.455,7.8.28.159.54.341.8.523q2.143,1.4,4.287,2.735c.4.226.775.478,1.174.707,1.429.867,2.838,1.689,4.245,2.466.257.137.517.3.775.433,1.644.914,3.286,1.787,4.885,2.589.282.137.515.274.775.391a.022.022,0,0,0,.022.022c1.295.621,2.539,1.242,3.786,1.8a.976.976,0,0,0,.21.092c.377.2.777.366,1.152.551,1.06.461,2.094.923,3.081,1.339.425.162.822.347,1.225.509,1.082.439,2.142.858,3.154,1.23a4.664,4.664,0,0,0,1.462.313c3.269.235,7.337.6,11.786,1.074,4.921.506,10.29,1.18,15.4,1.977,2.08.327,4.088.671,6.026,1.015.97.173,1.915.366,2.883.562.473.1.9.171,1.345.288.78.148,1.583.338,2.315.528a1.07,1.07,0,0,1,.26.05c.825.213,1.6.428,2.357.64a6.781,6.781,0,0,1,1.11.308c.73.212,1.412.445,2.027.654,5.439,1.935,10.251,4.678,13.59,8.7a1.67,1.67,0,0,0,.162.179c.442.562.833,1.146,1.228,1.728.137.2.252.425.366.626a14.529,14.529,0,0,1,.735,1.32c.115.246.229.47.344.693.226.512.431,1.026.635,1.538a24.281,24.281,0,0,1,.895,3.051c1.943,9.16.562,20.032,1.365,30.742a2.5,2.5,0,0,1-.109.819c-.028.087-.05.154-.075.218a2.8,2.8,0,0,1-.369.769,1.131,1.131,0,0,0-.076.154,8.162,8.162,0,0,1-.752,1.007l-.073.064c-5.738,6.61-27.467,16.766-41.054,23.525-.361.19-.719.361-1.076.534-.288.148-.551.277-.814.405-.719.364-1.387.707-2.036,1.049a56.252,56.252,0,0,0-6.32,3.565c-5.718,4.06-11.319,8.391-16.64,12.991-1.275,1.085-2.575,2.215-3.78,3.344-14.272,13.058-26.111,28.217-31.86,45.945-.3.968-.654,2.047-.937,3.216-.1.4-.2.794-.3,1.191-.078.4-.2.817-.282,1.236-.2.814-.411,1.7-.57,2.6-1.4,6.75-2.595,15.125-3.56,23.855-.148,1.658-.344,3.339-.517,5-.548,5.481-1.026,10.989-1.429,16.207-.707,9-1.211,17.188-1.507,23.075.056.775.09,1.552.076,2.349l-.031,1.661c-.336,18.617-16.915,33.56-36.821,33.208l-20.569-.363c-17.11-.3-30.9-13.637-30.613-29.646,0,0,.059-3.322.036-3.322-.087-3.079-.12-6.512-.1-10.276.02-5.072.1-10.654.154-16.431.059-5.892.1-12.027-.031-18.075-.042-1.594-.084-3.19-.1-4.762-.143-3.811-.313-7.581-.579-11.174q-.222-3.393-.593-6.588c-.081-.777-.162-1.552-.266-2.307-.168-1.244-.336-2.463-.528-3.663-.1-.777-.254-1.577-.405-2.335-.131-.755-.282-1.488-.459-2.245-.129-.733-.3-1.443-.484-2.156-.176-.691-.33-1.379-.531-2.047-5.453-18.391-18.665-32.246-32.915-45.344a224.878,224.878,0,0,1-35.89-41.9C147.367,287.226,130.439,262.32,137.192,248.154Z" transform="translate(48.98 -94.957)" fill="#eae9c5"/>
      <path id="Path_6412" data-name="Path 6412" d="M167.25,268.862c.129.884.263,1.79.352,2.684.2,1.619.366,3.266.534,4.947.106,1.021.19,2.069.271,3.118q.377,4.316.6,8.9c.271,4.851.442,9.941.59,15.089.02,2.122.062,4.278.1,6.431.131,8.168.089,16.453.031,24.408-.059,7.8-.137,15.34-.157,22.188-.022,5.086.011,9.723.1,13.881.022,0-.036,4.488-.036,4.488-.294,21.618,13.727,39.623,31.119,40.034l20.91.492c20.236.478,37.092-19.7,37.433-44.849l.031-2.243c.014-1.077-.02-2.122-.078-3.171.3-7.95.814-19.006,1.532-31.161.408-7.049.895-14.485,1.454-21.889.176-2.24.375-4.508.526-6.747.979-11.792,2.192-23.1,3.618-32.218.162-1.222.369-2.413.579-3.515.042-.294.1-.576.148-.864Z" transform="translate(105.767 29.63)" fill="#745cd4"/>
      <path id="Path_6413" data-name="Path 6413" d="M170.632,237.624c9.611,9.84,23.894,16.176,39.905,16.459,16.78.3,31.891-6.11,41.865-16.42-11.549-11.481-20.331-25.709-20.365-41.932,0-2.721.165-6.353.213-10.335l-40.711-.721a122.82,122.82,0,0,0-1.851,16.982C189.56,208.775,184.076,224.112,170.632,237.624Z" transform="translate(111.842 -121.592)" fill="#b3a4f5"/>
      <path id="Path_6414" data-name="Path 6414" d="M217.757,267.091l51.75,116.192a36.668,36.668,0,0,0,48.067,18.461,36.115,36.115,0,0,0,18.62-47.654L284.445,237.9a36.389,36.389,0,0,0-25.807-20.689c-.078-.017-.157-.028-.232-.045a36.443,36.443,0,0,0-18.55.953l-.048.02c-1.149.375-2.3.805-3.431,1.3a36.157,36.157,0,0,0-19.221,20.018,36.036,36.036,0,0,0,.6,27.632Z" transform="translate(190.945 -64.616)" fill="#eae9c5"/>
      <path id="Path_6415" data-name="Path 6415" d="M313.511,263.919a38.929,38.929,0,0,1,51.7,18.131A38.294,38.294,0,0,1,346.926,333.3a38.788,38.788,0,0,1-16.887,3.716l.031.14-121.178,17.5-9.16-19.023,106.123-66.892A38.9,38.9,0,0,1,313.511,263.919Z" transform="translate(164.113 13.998)" fill="#eae9c5"/>
      <path id="Path_6416" data-name="Path 6416" d="M232.756,283.024c5.634,5.578,7.768,13.26,5.808,22.75a63.033,63.033,0,0,1-2.282,8.087l-27.389,3.954-9.16-19.023,28.745-18.12Q230.658,281.788,232.756,283.024Z" transform="translate(164.113 50.844)" fill="#eae9c5"/>
      <path id="Path_6417" data-name="Path 6417" d="M250.233,293.615,254.306,310l-47.272,17.322-30.348-4.889-2.271-11.961,30.668-3.158,22.871-11.522-13.867-2.176-19.417,4.8-2.838-5.992,28.349-8.367Z" transform="translate(118.638 56.918)" fill="#ccc2fe"/>
      <path id="Path_6418" data-name="Path 6418" d="M221.583,218.842,109.6,280.552a36.062,36.062,0,0,0-14.149,49.141,36.72,36.72,0,0,0,49.569,14.026L257,282.009a36.137,36.137,0,0,0,18.424-27.372c.008-.075.014-.154.022-.232a35.562,35.562,0,0,0-2.651-18.223l-.025-.045c-.484-1.1-1.021-2.2-1.622-3.269a36.763,36.763,0,0,0-49.569-14.026Z" transform="translate(-31.407 -68.336)" fill="#eae9c5"/>
      <path id="Path_6419" data-name="Path 6419" d="M177.471,310.682a38.258,38.258,0,0,1-13.483,52.7,38.968,38.968,0,0,1-53.157-13.366,38.006,38.006,0,0,1-5.274-16.333l-.14.045L76.759,215.7,95.03,204.914l76.894,98.651A38.429,38.429,0,0,1,177.471,310.682Z" transform="translate(-56.776 -85.236)" fill="#eae9c5"/>
      <path id="Path_6420" data-name="Path 6420" d="M113.888,236.075c-5.086,6.071-12.608,8.881-22.32,7.813a64.773,64.773,0,0,1-8.333-1.516L76.759,215.7,95.03,204.914l20.829,26.721Q114.94,233.891,113.888,236.075Z" transform="translate(-56.776 -85.236)" fill="#eae9c5"/>
      <path id="Path_6421" data-name="Path 6421" d="M107.423,253.809l-16.089,5.519L69.613,214.244l2.137-30.407L83.556,180.5l5.976,29.987L103.2,232.014l.918-13.888L97.523,199.4l5.76-3.35,11,27.221Z" transform="translate(-69.613 -129.086)" fill="#ccc2fe"/>
      <path id="Path_6422" data-name="Path 6422" d="M157.278,230.555,306.53,233.2l.006-.277c-.249-.117-.473-.26-.744-.4-1.532-.83-3.112-1.728-4.689-2.676-.246-.14-.495-.3-.741-.447-1.353-.805-2.7-1.653-4.077-2.55-.383-.235-.741-.495-1.124-.73q-2.059-1.38-4.116-2.827a8.948,8.948,0,0,0-.766-.54c-3.392-2.469-6.781-5.167-10.03-8.07-1.661-1.451-3.272-2.995-4.86-4.558a87.206,87.206,0,0,1-8.408-9.739l-64.395-1.141c-9.37,13.184-24.2,23.586-37.383,28.675C162.588,228.927,159.954,229.8,157.278,230.555Z" transform="translate(87.855 -95.419)" fill="#d3d1a5"/>
      <path id="Path_6423" data-name="Path 6423" d="M155.584,220.372c1.98-.428,3.918-.926,5.858-1.468,2.668-.727,5.293-1.566,7.9-2.539a86.156,86.156,0,0,0,19.644-10.629l99.7,1.767c1.753,1.37,3.523,2.69,5.3,3.94a8.747,8.747,0,0,1,.763.523q2.051,1.4,4.1,2.732c.383.227.741.478,1.121.7,1.37.867,2.718,1.689,4.063,2.464.249.14.495.3.741.436,1.574.912,3.146,1.781,4.675,2.584.268.14.492.274.741.391a.022.022,0,0,0,.022.022c1.236.618,2.427,1.239,3.621,1.792a.8.8,0,0,0,.2.089c-1.63-.182-3.283-.3-4.96-.4-40.129-1.974-74.5,26.785-79.234,65.124l-1.11-.064c-3.8-35.789-33.871-64.537-71.8-66.408a14.124,14.124,0,0,0-1.681-.028A7.89,7.89,0,0,1,155.584,220.372Z" transform="translate(84.205 -83.76)" fill="#d3d1a5"/>
      <path id="Path_6424" data-name="Path 6424" d="M186.829,346.878h0c2.458.045,4.541-3.976,4.631-8.934l2.24-124.7c.089-4.958-1.848-9.049-4.306-9.093h0c-2.455-.042-4.538,3.979-4.628,8.937l-2.24,124.7C182.436,342.745,184.374,346.836,186.829,346.878Z" transform="translate(133.201 -86.6)" fill="#4a3e93"/>
      <path id="Path_6425" data-name="Path 6425" d="M190.854,218.913l.906.017a9.254,9.254,0,0,0,9.39-9.057h0a9.255,9.255,0,0,0-9.063-9.393l-.906-.017a9.253,9.253,0,0,0-9.387,9.06h0A9.25,9.25,0,0,0,190.854,218.913Z" transform="translate(131.889 -93.234)" fill="#4a3e93"/>
      <g id="Group_3279" data-name="Group 3279" transform="translate(288.87)">
        <path id="Path_6426" data-name="Path 6426" d="M198.552,201.245l1.625.062a6.21,6.21,0,0,0,6.647-5.634l.456-11.322a6.148,6.148,0,0,0-6.177-6.1l-1.622-.062a6.212,6.212,0,0,0-6.649,5.634l-.456,11.322A6.15,6.15,0,0,0,198.552,201.245Z" transform="translate(-137.981 -133.242)" fill="#b3a4f5"/>
        <path id="Path_6427" data-name="Path 6427" d="M179.1,200.269l1.625.059a6.21,6.21,0,0,0,6.649-5.632l.456-11.322a6.152,6.152,0,0,0-6.177-6.1l-1.625-.059a6.206,6.206,0,0,0-6.647,5.632l-.456,11.322A6.15,6.15,0,0,0,179.1,200.269Z" transform="translate(-172.919 -134.995)" fill="#b3a4f5"/>
        <path id="Path_6428" data-name="Path 6428" d="M199.317,255.3h0c13.811.5,25.527-9.426,26.036-22.06l1.9-47.226c.509-12.636-10.377-23.382-24.188-23.883h0c-13.811-.5-25.527,9.423-26.036,22.057l-1.9,47.229C174.62,244.051,185.5,254.8,199.317,255.3Z" transform="translate(-168.981 -162.114)" fill="#ccc2fe"/>
      </g>
      <path id="Path_6429" data-name="Path 6429" d="M171.776,199.5c.056,12.438,8.14,22.5,18.108,22.5S207.94,211.94,208,199.5Z" transform="translate(113.897 -94.957)" fill="#eae9c5"/>
      <path id="Path_6430" data-name="Path 6430" d="M184.729,199.5c.056,12.438,8.14,22.5,18.108,22.5s18.055-10.061,18.108-22.5Z" transform="translate(137.164 -94.957)" fill="#eae9c5"/>
    </g>
    <circle id="Ellipse_375" data-name="Ellipse 375" cx="6.786" cy="6.786" r="6.786" transform="translate(454.149 430.918)" fill="#4a3e93"/>
    <path id="Path_6431" data-name="Path 6431" d="M198.446,580.819l.83.005A13.083,13.083,0,0,0,212.444,567.9l1.135-215.1a13.082,13.082,0,0,0-13.033-13.056l-.828-.006a13.086,13.086,0,0,0-13.17,12.921l-1.133,215.1A13.078,13.078,0,0,0,198.446,580.819Z" transform="translate(274.273 522.521)" fill="#745cd4"/>
    <path id="Path_6432" data-name="Path 6432" d="M222.136,577.194l.828.005a13.087,13.087,0,0,0,13.17-12.921l1.132-215.1a13.082,13.082,0,0,0-13.033-13.056l-.828-.006a13.085,13.085,0,0,0-13.17,12.921l-1.132,215.1A13.08,13.08,0,0,0,222.136,577.194Z" transform="translate(316.823 516.01)" fill="#745cd4"/>
    <rect id="Rectangle_7706" data-name="Rectangle 7706" width="22.197" height="88.12" rx="3.405" transform="translate(420.873 814.963) rotate(-34.755)" fill="#745cd4"/>
    <path id="Rectangle_7707" data-name="Rectangle 7707" d="M3.637,0H18.561A3.636,3.636,0,0,1,22.2,3.636v92.5a3.637,3.637,0,0,1-3.637,3.637H3.637A3.637,3.637,0,0,1,0,96.136V3.637A3.637,3.637,0,0,1,3.637,0Z" transform="translate(469.559 813.565) rotate(-47.774)" fill="#745cd4"/>
    <path id="Path_6433" data-name="Path 6433" d="M222.561,444.263H194.07a10.323,10.323,0,0,1-10.293-10.293h0a10.323,10.323,0,0,1,10.293-10.29h28.491a10.323,10.323,0,0,1,10.293,10.29h0A10.323,10.323,0,0,1,222.561,444.263Z" transform="translate(271.331 673.301)" fill="#4a3e93"/>
    <path id="Path_6434" data-name="Path 6434" d="M246.561,439.236H218.07a10.325,10.325,0,0,1-10.293-10.293h0A10.325,10.325,0,0,1,218.07,418.65h28.491a10.325,10.325,0,0,1,10.293,10.293h0A10.325,10.325,0,0,1,246.561,439.236Z" transform="translate(314.441 664.266)" fill="#4a3e93"/>
    <circle id="Ellipse_376" data-name="Ellipse 376" cx="52.563" cy="52.563" r="52.563" transform="translate(995.805 430.573)" fill="#ffd359"/>
    <rect id="Rectangle_7708" data-name="Rectangle 7708" width="84.563" height="7.012" rx="1.254" transform="translate(416.185 468.336)" fill="#eae9c5"/>
    <path id="Path_6435" data-name="Path 6435" d="M247.661,233.641c-9.25-5.816-15.813-18.033-13.223-29.881-4.334,1.7-9.387,1.706-14.015,1.929-11.666.57-23.648.772-33.546-6.37-11.521-8.31-34.447-31.863-17.7-45.47,9.689-7.869,19.515-5.847,28.555,2.265,7.98,7.164,9.653,18.15,20.057,23.385,8.3,4.175,14.823,1.862,23.447,3.311,13.746,2.307,12.549,19.521,10.97,29.895C251.223,219.165,250.859,227.892,247.661,233.641Z" transform="translate(234.471 179.701)" fill="#4a3e93"/>
    <g id="Group_3281" data-name="Group 3281" transform="translate(87.394 282.386)">
      <rect id="Rectangle_7709" data-name="Rectangle 7709" width="185.95" height="185.95" rx="12" fill="#ff75fe"/>
      <path id="Path_6436" data-name="Path 6436" d="M200.545,132.736c-31.248,58.5-57.555,120.792-111.732,162.33A223.826,223.826,0,0,1,59.1,314.293a33.177,33.177,0,0,0,14.476,3.347h118.84a33.654,33.654,0,0,0,33.555-33.555V165.245A33.657,33.657,0,0,0,200.545,132.736Z" transform="translate(-40.018 -131.691)" fill="#ff75fe" opacity="0.56" style="mix-blend-mode: multiply;isolation: isolate"/>
      <text id="JS" transform="translate(61.794 111.29)" fill="#fff" font-size="83" font-family="SegoeUI, Segoe UI"><tspan x="0" y="0">J</tspan><tspan y="0" font-size="59">S</tspan></text>
    </g>
    <g id="Group_3282" data-name="Group 3282" transform="translate(285.119 108.534)">
      <rect id="Rectangle_7710" data-name="Rectangle 7710" width="154.19" height="154.19" rx="9.95" fill="#70e5ff"/>
      <path id="Path_6437" data-name="Path 6437" d="M245.929,70.5c-25.91,48.509-47.723,100.161-92.645,134.608a186.056,186.056,0,0,1-24.64,15.941,27.522,27.522,0,0,0,12,2.777h98.542A27.907,27.907,0,0,0,267.012,196V97.457A27.913,27.913,0,0,0,245.929,70.5Z" transform="translate(-112.822 -69.633)" fill="#ff75fe" opacity="0.56" style="mix-blend-mode: multiply;isolation: isolate"/>
      <text id="HTML" transform="translate(10.42 91.519)" fill="#fff" font-size="45" font-family="SegoeUI, Segoe UI"><tspan x="0" y="0">HTML</tspan></text>
    </g>
    <g id="Group_3283" data-name="Group 3283" transform="translate(974.362 401.602)">
      <path id="Rectangle_7711" data-name="Rectangle 7711" d="M8.962,0H129.9a8.962,8.962,0,0,1,8.962,8.962V129.9a8.962,8.962,0,0,1-8.962,8.962H8.961A8.961,8.961,0,0,1,0,129.9V8.962A8.962,8.962,0,0,1,8.962,0Z" fill="#70e5ff"/>
      <path id="Path_6438" data-name="Path 6438" d="M480.2,175.275c-23.337,43.688-42.984,90.207-83.44,121.228a167.183,167.183,0,0,1-22.191,14.359,24.763,24.763,0,0,0,10.81,2.5h88.747a25.133,25.133,0,0,0,25.06-25.057v-88.75A25.141,25.141,0,0,0,480.2,175.275Z" transform="translate(-360.321 -174.496)" fill="#ff75fe" opacity="0.56" style="mix-blend-mode: multiply;isolation: isolate"/>
      <text id="_" data-name="&lt;/&gt;" transform="translate(24.789 83.285)" fill="#fff" font-size="49" font-family="SegoeUI, Segoe UI"><tspan x="0" y="0">&lt;/&gt;</tspan></text>
    </g>
    <g id="Group_3284" data-name="Group 3284" transform="translate(519.411 212.383)">
      <path id="Rectangle_7712" data-name="Rectangle 7712" d="M8.272,0H119.9a8.272,8.272,0,0,1,8.272,8.272V119.9a8.271,8.271,0,0,1-8.271,8.271H8.272A8.272,8.272,0,0,1,0,119.9V8.272A8.272,8.272,0,0,1,8.272,0Z" fill="#ffd359"/>
      <path id="Path_6439" data-name="Path 6439" d="M308.975,107.585c-21.539,40.325-39.673,83.261-77.017,111.894a154.125,154.125,0,0,1-20.482,13.254,22.883,22.883,0,0,0,9.98,2.307h81.916A23.2,23.2,0,0,0,326.5,211.91V129.994A23.2,23.2,0,0,0,308.975,107.585Z" transform="translate(-198.325 -106.865)" fill="#ff75fe" opacity="0.56" style="mix-blend-mode: multiply;isolation: isolate"/>
      <text id="CSS" transform="translate(18.568 80.258)" fill="#fff" font-size="53" font-family="SegoeUI, Segoe UI"><tspan x="0" y="0">CSS</tspan></text>
    </g>
    <path id="Path_6440" data-name="Path 6440" d="M414.3,225.744H252.83a15.621,15.621,0,0,1-15.575-15.575h0A15.618,15.618,0,0,1,252.83,194.6H414.3a15.618,15.618,0,0,1,15.572,15.572h0A15.62,15.62,0,0,1,414.3,225.744Z" transform="translate(367.391 261.813)" fill="#ccc2fe"/>
    <path id="Path_6441" data-name="Path 6441" d="M564.661,314.437H403.184a15.618,15.618,0,0,1-15.572-15.572h0a15.618,15.618,0,0,1,15.572-15.575H564.661a15.618,15.618,0,0,1,15.572,15.575h0A15.618,15.618,0,0,1,564.661,314.437Z" transform="translate(637.468 421.127)" fill="#ccc2fe"/>
    <path id="Path_6442" data-name="Path 6442" d="M401.6,208.183H269.523a16.96,16.96,0,0,1-16.912-16.909h0a16.961,16.961,0,0,1,16.912-16.912H401.6a16.961,16.961,0,0,1,16.912,16.912h0A16.96,16.96,0,0,1,401.6,208.183Z" transform="translate(394.974 225.466)" fill="#ccc2fe"/>
    <path id="Path_6443" data-name="Path 6443" d="M552.246,296.039H420.169a16.961,16.961,0,0,1-16.912-16.912h0a16.959,16.959,0,0,1,16.912-16.909H552.246a16.958,16.958,0,0,1,16.909,16.909h0A16.96,16.96,0,0,1,552.246,296.039Z" transform="translate(665.57 383.276)" fill="#ccc2fe"/>
    <path id="Path_6444" data-name="Path 6444" d="M436.308,271.3h-50.85a16.565,16.565,0,0,1-16.517-16.517h0a16.565,16.565,0,0,1,16.517-16.517h50.85a16.568,16.568,0,0,1,16.52,16.517h0A16.568,16.568,0,0,1,436.308,271.3Z" transform="translate(603.931 340.26)" fill="#8b77e8"/>
    <path id="Path_6445" data-name="Path 6445" d="M474.953,271.3H424.1a16.565,16.565,0,0,1-16.517-16.517h0A16.565,16.565,0,0,1,424.1,238.27h50.852a16.565,16.565,0,0,1,16.517,16.517h0A16.565,16.565,0,0,1,474.953,271.3Z" transform="translate(673.341 340.26)" fill="#8b77e8"/>
    <path id="Path_6446" data-name="Path 6446" d="M497.977,245.226H447.124a16.565,16.565,0,0,1-16.517-16.517h0a16.565,16.565,0,0,1,16.517-16.518h50.853a16.565,16.565,0,0,1,16.517,16.518h0A16.565,16.565,0,0,1,497.977,245.226Z" transform="translate(714.698 293.416)" fill="#ccc2fe"/>
    <path id="Path_6447" data-name="Path 6447" d="M395.5,182.723H344.645a16.567,16.567,0,0,1-16.517-16.517h0a16.565,16.565,0,0,1,16.517-16.517H395.5a16.567,16.567,0,0,1,16.517,16.517h0A16.569,16.569,0,0,1,395.5,182.723Z" transform="translate(530.621 181.145)" fill="#ccc2fe"/>
    <rect id="Rectangle_7713" data-name="Rectangle 7713" width="83.887" height="33.036" rx="5.907" transform="translate(748.334 330.316)" fill="#ccc2fe"/>
    <path id="Path_6448" data-name="Path 6448" d="M469.406,381.4h-50.85a16.568,16.568,0,0,1-16.52-16.517h0a16.568,16.568,0,0,1,16.52-16.517h50.85a16.565,16.565,0,0,1,16.517,16.517h0A16.565,16.565,0,0,1,469.406,381.4Z" transform="translate(663.377 538.012)" fill="#ccc2fe"/>
    <rect id="Rectangle_7714" data-name="Rectangle 7714" width="83.887" height="33.036" rx="5.907" transform="translate(854.974 400.479)" fill="#8b77e8"/>
    <path id="Path_6449" data-name="Path 6449" d="M412.982,163.773H362.129a16.565,16.565,0,0,1-16.517-16.517h0a16.565,16.565,0,0,1,16.517-16.517h50.852A16.565,16.565,0,0,1,429.5,147.255h0A16.565,16.565,0,0,1,412.982,163.773Z" transform="translate(562.026 147.107)" fill="#8b77e8"/>
    <rect id="Rectangle_7715" data-name="Rectangle 7715" width="83.887" height="33.036" rx="5.907" transform="translate(1122.868 760.668)" fill="#8b77e8"/>
    <rect id="Rectangle_7716" data-name="Rectangle 7716" width="116.945" height="120.314" rx="7.655" transform="translate(799.661 890.81)" fill="#fcddfc"/>
    <g id="Group_3286" data-name="Group 3286" transform="translate(720.062 98.766)">
      <g id="Group_3285" data-name="Group 3285">
        <rect id="Rectangle_7717" data-name="Rectangle 7717" width="130.088" height="130.088" rx="8.395" fill="#ff75fe"/>
        <path id="Path_6450" data-name="Path 6450" d="M382.257,66.957c-21.861,40.923-40.266,84.5-78.166,113.564A156.671,156.671,0,0,1,283.3,193.973a23.251,23.251,0,0,0,10.128,2.34H376.57a23.544,23.544,0,0,0,23.475-23.474V89.7A23.544,23.544,0,0,0,382.257,66.957Z" transform="translate(-269.956 -66.225)" fill="#ff75fe" opacity="0.56" style="mix-blend-mode: multiply;isolation: isolate"/>
      </g>
      <text id="PHP" transform="translate(18.993 78.353)" fill="#fff" font-size="50" font-family="SegoeUI, Segoe UI"><tspan x="0" y="0">PHP</tspan></text>
    </g>
    <g id="Group_3288" data-name="Group 3288" transform="translate(749.397 471.613)">
      <path id="Rectangle_7718" data-name="Rectangle 7718" d="M8.272,0H119.9a8.271,8.271,0,0,1,8.271,8.271V119.9a8.272,8.272,0,0,1-8.272,8.272H8.271A8.271,8.271,0,0,1,0,119.9V8.272A8.272,8.272,0,0,1,8.272,0Z" fill="#ffd359"/>
      <path id="Path_6451" data-name="Path 6451" d="M391.222,200.292c-21.537,40.322-39.67,83.261-77.014,111.894a154.561,154.561,0,0,1-20.482,13.251,22.87,22.87,0,0,0,9.977,2.307h81.916a23.2,23.2,0,0,0,23.13-23.128V222.7A23.2,23.2,0,0,0,391.222,200.292Z" transform="translate(-280.573 -199.571)" fill="#ff75fe" opacity="0.56" style="mix-blend-mode: multiply;isolation: isolate"/>
      <g id="Group_3287" data-name="Group 3287" transform="translate(26.872 12.442)">
        <text id="_2" data-name="{" transform="translate(0 76)" fill="#fff" font-size="70" font-family="SegoeUI, Segoe UI"><tspan x="0" y="0">{</tspan></text>
        <text id="_3" data-name="{" transform="matrix(-1, 0, 0, 1, 74.431, 79.867)" fill="#fff" font-size="71" font-family="SegoeUI, Segoe UI"><tspan x="0" y="0">{</tspan></text>
      </g>
    </g>
    <path id="Path_6452" data-name="Path 6452" d="M783.679,428.035H207.79a2.107,2.107,0,0,0-2.1,2.1h0a2.108,2.108,0,0,0,2.1,2.1H783.679a2.108,2.108,0,0,0,2.1-2.1h0A2.107,2.107,0,0,0,783.679,428.035Z" transform="translate(310.687 681.124)" fill="#8b77e8"/>
    <rect id="Rectangle_7719" data-name="Rectangle 7719" width="176.727" height="4.203" rx="0.415" transform="translate(786.862 1126.139)" fill="#ccc2fe"/>
    <rect id="Rectangle_7720" data-name="Rectangle 7720" width="176.727" height="4.203" rx="0.415" transform="translate(977.051 1126.139)" fill="#ccc2fe"/>
    <rect id="Rectangle_7721" data-name="Rectangle 7721" width="176.727" height="4.203" rx="0.415" transform="translate(591.636 1126.139)" fill="#ccc2fe"/>
    <rect id="Rectangle_7722" data-name="Rectangle 7722" width="381.232" height="4.203" rx="0.609" transform="translate(711.874 1138.027)" fill="#ccc2fe"/>
    <rect id="Rectangle_7723" data-name="Rectangle 7723" width="381.232" height="4.203" rx="0.609" transform="translate(606.653 1155.711)" fill="#ccc2fe"/>
    <g id="Group_3289" data-name="Group 3289" transform="translate(209.575 852.123)">
      <path id="Path_6453" data-name="Path 6453" d="M165.816,528.831H99.14V339.738" transform="translate(-90.271 -329.602)" fill="none" stroke="#96fffa" stroke-miterlimit="10" stroke-width="2"/>
      <circle id="Ellipse_377" data-name="Ellipse 377" cx="7.34" cy="7.34" r="7.34" fill="#96fffa"/>
      <circle id="Ellipse_378" data-name="Ellipse 378" cx="7.34" cy="7.34" r="7.34" transform="translate(68.204 191.89)" fill="#96fffa"/>
    </g>
    <g id="Group_3290" data-name="Group 3290" transform="translate(1165.313 858.585)">
      <path id="Path_6454" data-name="Path 6454" d="M507.609,531.143H440.934V342.049" transform="translate(-432.065 -331.913)" fill="none" stroke="#96fffa" stroke-miterlimit="10" stroke-width="2"/>
      <circle id="Ellipse_379" data-name="Ellipse 379" cx="7.34" cy="7.34" r="7.34" fill="#96fffa"/>
      <circle id="Ellipse_380" data-name="Ellipse 380" cx="7.34" cy="7.34" r="7.34" transform="translate(68.204 191.89)" fill="#96fffa"/>
    </g>
    <g id="Group_3291" data-name="Group 3291" transform="translate(46.731 720.848)">
      <circle id="Ellipse_381" data-name="Ellipse 381" cx="7.34" cy="7.34" r="7.34" transform="translate(70.605)" fill="#96fffa"/>
      <circle id="Ellipse_382" data-name="Ellipse 382" cx="7.34" cy="7.34" r="7.34" transform="translate(0 129.678)" fill="#96fffa"/>
      <path id="Path_6455" data-name="Path 6455" d="M109.015,293.112V420.693H41.441" transform="translate(-31.07 -282.078)" fill="none" stroke="#96fffa" stroke-miterlimit="10" stroke-width="2"/>
    </g>
    <g id="Group_3292" data-name="Group 3292" transform="translate(32.722 401.014)">
      <circle id="Ellipse_383" data-name="Ellipse 383" cx="7.34" cy="7.34" r="7.34" transform="translate(70.605)" fill="#96fffa"/>
      <circle id="Ellipse_384" data-name="Ellipse 384" cx="7.34" cy="7.34" r="7.34" transform="translate(0 129.678)" fill="#96fffa"/>
      <path id="Path_6456" data-name="Path 6456" d="M104.006,178.732V306.313H36.431" transform="translate(-26.06 -167.698)" fill="none" stroke="#96fffa" stroke-miterlimit="10" stroke-width="2"/>
    </g>
    <g id="Group_3293" data-name="Group 3293" transform="translate(612.528 48.841)">
      <circle id="Ellipse_385" data-name="Ellipse 385" cx="7.34" cy="7.34" r="7.34" transform="translate(129.678 70.605)" fill="#96fffa"/>
      <circle id="Ellipse_386" data-name="Ellipse 386" cx="7.34" cy="7.34" r="7.34" fill="#96fffa"/>
      <path id="Path_6457" data-name="Path 6457" d="M369.709,120.125H242.128V52.55" transform="translate(-236.384 -42.179)" fill="none" stroke="#96fffa" stroke-miterlimit="10" stroke-width="2"/>
    </g>
    <g id="Group_3294" data-name="Group 3294" transform="translate(1044.869 71.275)">
      <circle id="Ellipse_387" data-name="Ellipse 387" cx="7.34" cy="7.34" r="7.34" transform="translate(70.605)" fill="#96fffa"/>
      <circle id="Ellipse_388" data-name="Ellipse 388" cx="7.34" cy="7.34" r="7.34" transform="translate(0 129.678)" fill="#96fffa"/>
      <path id="Path_6458" data-name="Path 6458" d="M465.973,60.81V188.391H398.4" transform="translate(-388.027 -49.776)" fill="none" stroke="#96fffa" stroke-miterlimit="10" stroke-width="2"/>
    </g>
  </g>
</svg>
