<svg xmlns="http://www.w3.org/2000/svg" xmlns:xlink="http://www.w3.org/1999/xlink" width="2244.188" height="3636.537" viewBox="0 0 2244.188 3636.537">
  <defs>
    <radialGradient id="radial-gradient" cx="0.917" cy="0.302" r="0.47" gradientTransform="translate(0.51 0.618) scale(0.444 1.19)" gradientUnits="objectBoundingBox">
      <stop offset="0" stop-color="#ca3597"/>
      <stop offset="1" stop-color="#251368"/>
    </radialGradient>
    <linearGradient id="linear-gradient" x1="0.5" y1="1" x2="0.5" gradientUnits="objectBoundingBox">
      <stop offset="0" stop-color="#6b5c9d"/>
      <stop offset="0.96" stop-color="#9298ff"/>
    </linearGradient>
    <linearGradient id="linear-gradient-2" x1="0.5" y1="1" x2="0.5" gradientUnits="objectBoundingBox">
      <stop offset="0" stop-color="#bcb9c5"/>
      <stop offset="1" stop-color="#251868"/>
    </linearGradient>
    <linearGradient id="linear-gradient-8" x1="0.5" y1="0.507" x2="0.5" y2="0.493" xlink:href="#linear-gradient-2"/>
    <linearGradient id="linear-gradient-12" x1="-1.234" y1="0.5" x2="2.234" y2="0.5" xlink:href="#linear-gradient-2"/>
    <linearGradient id="linear-gradient-13" x1="0.516" y1="1" x2="0.484" gradientUnits="objectBoundingBox">
      <stop offset="0" stop-color="#18002d"/>
      <stop offset="1" stop-color="#2d103b"/>
    </linearGradient>
    <linearGradient id="linear-gradient-15" x1="0.516" y1="1" x2="0.484" y2="0" xlink:href="#linear-gradient-13"/>
    <clipPath id="clip-path">
      <path id="Path_10836" data-name="Path 10836" d="M1137.84,2534.8l512.747,70.448V-179.182L1167,492.543Z" transform="translate(-1137.84 179.182)" fill="none" clip-rule="evenodd"/>
    </clipPath>
    <radialGradient id="radial-gradient-2" cx="0.14" cy="0.135" r="0.606" gradientTransform="matrix(-1.071, 0, 0, 1.464, 3.425, 3.089)" gradientUnits="objectBoundingBox">
      <stop offset="0" stop-color="#c942d1"/>
      <stop offset="1" stop-color="#311597"/>
    </radialGradient>
    <radialGradient id="radial-gradient-3" cx="0.408" cy="0.456" r="7.76" gradientTransform="translate(0.387 259.526) scale(0.052 0.261)" gradientUnits="objectBoundingBox">
      <stop offset="0.006" stop-color="#452fb8"/>
      <stop offset="1" stop-color="#050042"/>
    </radialGradient>
    <linearGradient id="linear-gradient-16" x1="0.5" y1="1" x2="0.5" gradientUnits="objectBoundingBox">
      <stop offset="0" stop-color="#7f4556"/>
      <stop offset="1" stop-color="#e3c4ea"/>
    </linearGradient>
    <linearGradient id="linear-gradient-20" y1="0.5" x2="1.139" y2="0.5" gradientUnits="objectBoundingBox">
      <stop offset="0" stop-color="#453b77"/>
      <stop offset="1" stop-color="#251868"/>
    </linearGradient>
    <linearGradient id="linear-gradient-21" y1="0.5" x2="1.139" y2="0.5" gradientUnits="objectBoundingBox">
      <stop offset="0" stop-color="#476dc8"/>
      <stop offset="1" stop-color="#240679"/>
    </linearGradient>
    <linearGradient id="linear-gradient-22" x1="0.5" y1="1" x2="0.5" gradientUnits="objectBoundingBox">
      <stop offset="0" stop-color="#bd66a1"/>
      <stop offset="1" stop-color="#6a005d"/>
    </linearGradient>
    <linearGradient id="linear-gradient-23" x1="0.5" y1="1" x2="0.5" y2="-0.501" gradientUnits="objectBoundingBox">
      <stop offset="0" stop-color="#a18fde"/>
      <stop offset="1" stop-color="#251868"/>
    </linearGradient>
    <radialGradient id="radial-gradient-4" cx="0.5" cy="0.5" r="1.329" gradientTransform="translate(0.255 0.388) scale(0.376 0.376)" gradientUnits="objectBoundingBox">
      <stop offset="0" stop-color="#251868"/>
      <stop offset="0.095" stop-color="#2b1e6c"/>
      <stop offset="0.231" stop-color="#3d3178"/>
      <stop offset="0.393" stop-color="#5b518d"/>
      <stop offset="0.574" stop-color="#847caa"/>
      <stop offset="0.772" stop-color="#b9b4ce"/>
      <stop offset="0.98" stop-color="#f8f8fa"/>
      <stop offset="1" stop-color="#fff"/>
    </radialGradient>
    <linearGradient id="linear-gradient-24" x1="0" y1="0.5" x2="1" y2="0.5" xlink:href="#linear-gradient-2"/>
    <radialGradient id="radial-gradient-5" cx="0.531" cy="0.275" r="0.514" gradientTransform="translate(-4.193) scale(9.385 1)" gradientUnits="objectBoundingBox">
      <stop offset="0.04" stop-color="#7aa5ff"/>
      <stop offset="1" stop-color="#7c84d9"/>
    </radialGradient>
    <linearGradient id="linear-gradient-25" y1="0.5" x2="1.183" y2="0.5" gradientUnits="objectBoundingBox">
      <stop offset="0" stop-color="#191059"/>
      <stop offset="1" stop-color="#140016"/>
    </linearGradient>
    <radialGradient id="radial-gradient-6" cx="0.5" cy="0.205" r="0.329" gradientTransform="translate(1.013 -0.606) scale(1.521 2.418)" gradientUnits="objectBoundingBox">
      <stop offset="0" stop-color="#b12457"/>
      <stop offset="0.154" stop-color="#8e1c45"/>
      <stop offset="0.447" stop-color="#511028"/>
      <stop offset="0.695" stop-color="#250712"/>
      <stop offset="0.887" stop-color="#0a0204"/>
      <stop offset="1"/>
    </radialGradient>
    <radialGradient id="radial-gradient-7" cy="0.287" r="0.295" gradientTransform="translate(2.289 -0.845) scale(1.694 2.418)" xlink:href="#radial-gradient-6"/>
    <linearGradient id="linear-gradient-26" x1="-14.623" y1="0.433" x2="-13.99" y2="0.433" xlink:href="#linear-gradient-2"/>
    <linearGradient id="linear-gradient-27" x1="0" x2="1.029" xlink:href="#linear-gradient-25"/>
    <radialGradient id="radial-gradient-8" cx="0.503" cy="0.48" r="0.37" gradientTransform="matrix(-9.894, -0.052, -0.513, 0.999, -207.795, -0.988)" xlink:href="#radial-gradient-5"/>
    <radialGradient id="radial-gradient-9" cx="0.5" cy="0.413" r="0.28" gradientTransform="translate(-1.451 -0.532) scale(1.786 2.096)" gradientUnits="objectBoundingBox">
      <stop offset="0" stop-color="#ff2472"/>
      <stop offset="0.106" stop-color="#dc1f62"/>
      <stop offset="0.357" stop-color="#8f143f"/>
      <stop offset="0.581" stop-color="#510b24"/>
      <stop offset="0.769" stop-color="#250510"/>
      <stop offset="0.915" stop-color="#0a0104"/>
      <stop offset="1"/>
    </radialGradient>
    <linearGradient id="linear-gradient-28" x1="0.499" y1="39.025" x2="0.499" y2="-18.978" gradientUnits="objectBoundingBox">
      <stop offset="0.006" stop-color="#9d77e5"/>
      <stop offset="0.075" stop-color="#aa90ec"/>
      <stop offset="0.155" stop-color="#b5a6f3"/>
      <stop offset="0.249" stop-color="#beb7f8"/>
      <stop offset="0.366" stop-color="#c4c3fc"/>
      <stop offset="0.529" stop-color="#c8cafe"/>
      <stop offset="0.984" stop-color="#c9ccff"/>
    </linearGradient>
    <radialGradient id="radial-gradient-10" cx="0.5" cy="0.5" r="0.979" gradientTransform="translate(0.295 0.225) scale(0.511 0.511)" gradientUnits="objectBoundingBox">
      <stop offset="0" stop-color="#0646ff"/>
      <stop offset="0.106" stop-color="#053cdc"/>
      <stop offset="0.357" stop-color="#03278f"/>
      <stop offset="0.581" stop-color="#011651"/>
      <stop offset="0.769" stop-color="#000a25"/>
      <stop offset="0.915" stop-color="#00020a"/>
      <stop offset="1"/>
    </radialGradient>
    <radialGradient id="radial-gradient-11" cx="0.5" cy="0.438" r="0.844" gradientTransform="translate(0.174 0.135) scale(0.593 0.666)" gradientUnits="objectBoundingBox">
      <stop offset="0" stop-color="#0679ff"/>
      <stop offset="0.23" stop-color="#0457b9"/>
      <stop offset="0.509" stop-color="#02326a"/>
      <stop offset="0.74" stop-color="#011731"/>
      <stop offset="0.909" stop-color="#00060d"/>
      <stop offset="1"/>
    </radialGradient>
  </defs>
  <g id="Group_4531" data-name="Group 4531" transform="translate(33.287 179.182)">
    <path id="Path_10671" data-name="Path 10671" d="M340.578-15.6,354.3,1854.919l1168.72-2.755L1549.688-15.6Z" transform="translate(175.135 682.637)" fill-rule="evenodd" fill="url(#radial-gradient)"/>
    <g id="Group_4490" data-name="Group 4490" transform="translate(623.54 1156.816)">
      <path id="Path_10672" data-name="Path 10672" d="M519.76,231.416H413.28V228.8l5.135-30.609,1.161-32.534-3.036-4.85,1.875-9.955-3.364-2.307,1.25-15.15,9.511-6.812v-3.052L423,110.707V99.1l-7.2-3.233V90.089L413.28,79.081H514.7Z" transform="translate(-413.28 -79.075)" fill-rule="evenodd" fill="url(#linear-gradient)"/>
      <g id="Group_4479" data-name="Group 4479" transform="translate(5.141 10.563)" style="mix-blend-mode: multiply;isolation: isolate">
        <rect id="Rectangle_8281" data-name="Rectangle 8281" width="91.766" height="0.908" fill="url(#linear-gradient-2)"/>
      </g>
      <g id="Group_4480" data-name="Group 4480" transform="translate(12.532 24.704)" style="mix-blend-mode: multiply;isolation: isolate">
        <rect id="Rectangle_8282" data-name="Rectangle 8282" width="84.375" height="0.908" fill="url(#linear-gradient-2)"/>
      </g>
      <g id="Group_4481" data-name="Group 4481" transform="translate(12.532 38.846)" style="mix-blend-mode: multiply;isolation: isolate">
        <rect id="Rectangle_8283" data-name="Rectangle 8283" width="85.882" height="0.908" fill="url(#linear-gradient-2)"/>
      </g>
      <g id="Group_4482" data-name="Group 4482" transform="translate(5.141 52.988)" style="mix-blend-mode: multiply;isolation: isolate">
        <rect id="Rectangle_8284" data-name="Rectangle 8284" width="93.273" height="0.908" fill="url(#linear-gradient-2)"/>
      </g>
      <g id="Group_4483" data-name="Group 4483" transform="translate(5.141 67.129)" style="mix-blend-mode: multiply;isolation: isolate">
        <rect id="Rectangle_8285" data-name="Rectangle 8285" width="93.273" height="0.908" fill="url(#linear-gradient-2)"/>
      </g>
      <g id="Group_4484" data-name="Group 4484" transform="translate(5.141 81.271)" style="mix-blend-mode: multiply;isolation: isolate">
        <rect id="Rectangle_8286" data-name="Rectangle 8286" width="91.766" height="0.908" fill="url(#linear-gradient-2)"/>
      </g>
      <g id="Group_4485" data-name="Group 4485" transform="translate(7.976 95.435)" style="mix-blend-mode: multiply;isolation: isolate">
        <path id="Path_11189" data-name="Path 11189" d="M.206,0h.908L.981,90.436H.073Z" transform="matrix(0.007, -1, 1, 0.007, 0, 1.114)" fill="url(#linear-gradient-8)"/>
      </g>
      <g id="Group_4486" data-name="Group 4486" transform="translate(5.141 109.553)" style="mix-blend-mode: multiply;isolation: isolate">
        <rect id="Rectangle_8288" data-name="Rectangle 8288" width="94.274" height="0.908" fill="url(#linear-gradient-2)"/>
      </g>
      <g id="Group_4487" data-name="Group 4487" transform="translate(5.141 123.695)" style="mix-blend-mode: multiply;isolation: isolate">
        <rect id="Rectangle_8289" data-name="Rectangle 8289" width="94.274" height="0.908" fill="url(#linear-gradient-2)"/>
      </g>
      <g id="Group_4488" data-name="Group 4488" transform="translate(5.141 138.65)" style="mix-blend-mode: multiply;isolation: isolate">
        <rect id="Rectangle_8290" data-name="Rectangle 8290" width="94.274" height="0.908" fill="url(#linear-gradient-2)"/>
      </g>
      <g id="Group_4489" data-name="Group 4489" transform="translate(18.796 0)" style="mix-blend-mode: multiply;isolation: isolate">
        <path id="Path_11190" data-name="Path 11190" d="M.358,0H.73l-.2,148.128H.155Z" transform="translate(0 0.005) rotate(-0.434)" fill="url(#linear-gradient-12)"/>
      </g>
      <path id="Path_10673" data-name="Path 10673" d="M440.742,83.445a2.26,2.26,0,1,1-2.215-2.7A2.5,2.5,0,0,1,440.742,83.445Z" transform="translate(-387.503 -76.439)" fill="url(#linear-gradient-13)"/>
      <path id="Path_10674" data-name="Path 10674" d="M551.259,214.214a6.816,6.816,0,0,0,.163,1.472L465.859,242.28,442.04,114.661l80.611-18.4,1.31,4.669a5.241,5.241,0,0,0-3.378,5.2c0,2.962,1.964,5.359,4.391,5.359a3.67,3.67,0,0,0,1.8-.473l1.5,5.377a5.25,5.25,0,0,0-3.3,5.176c0,2.962,1.95,5.359,4.376,5.359a3.855,3.855,0,0,0,1.74-.435l1.5,5.359a5.269,5.269,0,0,0-3.245,5.158c0,2.962,1.965,5.359,4.374,5.359a3.8,3.8,0,0,0,1.683-.4l1.5,5.341a5.325,5.325,0,0,0-3.185,5.142c0,2.962,1.965,5.359,4.391,5.359a3.566,3.566,0,0,0,1.623-.383l1.488,5.341a5.353,5.353,0,0,0-3.111,5.121c0,2.962,1.965,5.359,4.376,5.359a3.772,3.772,0,0,0,1.562-.344l1.49,5.341a5.335,5.335,0,0,0-3.052,5.085c0,2.962,1.965,5.359,4.391,5.359a3.444,3.444,0,0,0,1.488-.328l1.5,5.341a5.374,5.374,0,0,0-2.993,5.07c0,2.959,1.965,5.359,4.376,5.359a3.788,3.788,0,0,0,1.428-.292l1.5,5.341A5.36,5.36,0,0,0,551.259,214.214Z" transform="translate(-381.091 -51.81)" fill-rule="evenodd" fill="url(#linear-gradient)"/>
      <path id="Path_10675" data-name="Path 10675" d="M463.576,104.057a2.26,2.26,0,1,1-2.217-2.706A2.5,2.5,0,0,1,463.576,104.057Z" transform="translate(-361.945 -43.743)" fill="url(#linear-gradient-15)"/>
      <path id="Path_10676" data-name="Path 10676" d="M452.158,193.213,442.04,103.378l16.767,89.835Z" transform="translate(-381.09 -40.527)" fill="#890c4a" opacity="0.2" style="mix-blend-mode: multiply;isolation: isolate"/>
    </g>
    <g id="Group_4493" data-name="Group 4493" transform="translate(1698.153 -179.182)">
      <g id="Group_4492" data-name="Group 4492">
        <g id="Group_4491" data-name="Group 4491" clip-path="url(#clip-path)">
          <path id="Path_10677" data-name="Path 10677" d="M1381.375,398.209c-.546-137.484-.955-275.766-2.475-413.809H1137.84V1922.612H1381.6C1381.887,1414.519,1383.4,906.209,1381.375,398.209Z" transform="translate(-1137.84 861.819)" fill="#3e1597" fill-rule="evenodd"/>
          <path id="Path_10678" data-name="Path 10678" d="M1383.759,398.209c-.546-137.484-.955-275.766-2.475-413.809H1138.023V1712.022h-5.117a183.6,183.6,0,0,0,13.707,15.323c18.447,18.328,37.565,28.167,57.163,28.607,68.378,1.547,131.318-111.552,180.676-301.155Q1385.068,926.453,1383.759,398.209Z" transform="translate(-1140.223 861.819)" fill="#3e1597" fill-rule="evenodd"/>
          <path id="Path_10679" data-name="Path 10679" d="M1383.635,398.209c-.546-137.484-.955-275.766-2.475-413.809H1137.9V1705.286h-4.737a184.094,184.094,0,0,0,13.637,15.24c18.351,18.235,37.369,28.022,56.866,28.462,68.455,1.542,131.432-112.41,180.673-303.2Q1384.946,921.947,1383.635,398.209Z" transform="translate(-1140.1 861.819)" fill="#3f1597" fill-rule="evenodd"/>
          <path id="Path_10680" data-name="Path 10680" d="M1383.511,398.209c-.546-137.484-.955-275.766-2.475-413.809H1137.775V1698.546h-4.356a182.264,182.264,0,0,0,13.565,15.162c18.256,18.142,37.176,27.872,56.571,28.312,68.537,1.547,131.548-113.321,180.67-305.33Q1384.823,917.4,1383.511,398.209Z" transform="translate(-1139.975 861.819)" fill="#401698" fill-rule="evenodd"/>
          <path id="Path_10681" data-name="Path 10681" d="M1383.388,398.209c-.546-137.484-.955-275.766-2.475-413.809H1137.651V1691.805h-3.976a181.448,181.448,0,0,0,13.493,15.089c18.161,18.039,36.982,27.723,56.276,28.157,68.618,1.552,131.664-114.221,180.667-307.456Q1384.7,912.856,1383.388,398.209Z" transform="translate(-1139.852 861.819)" fill="#411698" fill-rule="evenodd"/>
          <path id="Path_10682" data-name="Path 10682" d="M1383.264,398.209c-.546-137.484-.955-275.766-2.475-413.809H1137.528V1685.07h-3.6a180.988,180.988,0,0,0,13.424,15c18.064,17.951,36.786,27.583,55.978,28.018,68.7,1.547,131.788-115.116,180.664-309.587Q1384.58,908.309,1383.264,398.209Z" transform="translate(-1139.728 861.819)" fill="#421798" fill-rule="evenodd"/>
          <path id="Path_10683" data-name="Path 10683" d="M1383.14,398.209c-.546-137.484-.955-275.766-2.475-413.809H1137.4V1678.329h-3.215a179.275,179.275,0,0,0,13.351,14.924c17.97,17.852,36.592,27.438,55.683,27.867,68.781,1.552,131.912-116,180.661-311.713Q1384.455,903.754,1383.14,398.209Z" transform="translate(-1139.604 861.819)" fill="#431799" fill-rule="evenodd"/>
          <path id="Path_10684" data-name="Path 10684" d="M1383.016,398.209c-.546-137.484-.955-275.766-2.475-413.809H1137.28V1671.589h-2.836a178.15,178.15,0,0,0,13.281,14.847c17.873,17.759,36.4,27.293,55.386,27.717,68.865,1.557,132.04-116.88,180.658-313.855Q1384.332,899.207,1383.016,398.209Z" transform="translate(-1139.48 861.819)" fill="#441799" fill-rule="evenodd"/>
          <path id="Path_10685" data-name="Path 10685" d="M1382.892,398.209c-.546-137.484-.955-275.766-2.475-413.809H1137.156V1664.854H1134.7a178.138,178.138,0,0,0,13.21,14.764c17.778,17.666,36.2,27.143,55.089,27.573,68.957,1.557,132.17-117.884,180.657-316.178Q1384.208,894.561,1382.892,398.209Z" transform="translate(-1139.357 861.819)" fill="#451899" fill-rule="evenodd"/>
          <path id="Path_10686" data-name="Path 10686" d="M1386.965,398.209c-.546-137.484-.955-275.766-2.475-413.809H1141.228V1640.457h-14.957a208.9,208.9,0,0,0,26.022,32.342c17.682,17.568,36.007,27,54.792,27.422,69.047,1.557,132.3-118.877,180.654-318.49Q1388.279,889.921,1386.965,398.209Z" transform="translate(-1143.429 861.819)" fill="#461899" fill-rule="evenodd"/>
          <path id="Path_10687" data-name="Path 10687" d="M1386.818,398.209c-.546-137.484-.955-275.766-2.475-413.809H1141.081V1633.81h-14.506a207.262,207.262,0,0,0,25.879,32.171c17.587,17.475,35.813,26.853,54.5,27.272,69.139,1.562,132.437-119.855,180.651-320.808Q1388.132,885.276,1386.818,398.209Z" transform="translate(-1143.282 861.819)" fill="#47189a" fill-rule="evenodd"/>
          <path id="Path_10688" data-name="Path 10688" d="M1386.671,398.209c-.546-137.484-.955-275.766-2.475-413.809H1140.935V1627.168h-14.057a206.386,206.386,0,0,0,25.738,32c17.492,17.382,35.619,26.709,54.2,27.128,69.23,1.562,132.577-120.833,180.648-323.13Q1387.987,880.638,1386.671,398.209Z" transform="translate(-1143.136 861.819)" fill="#48199a" fill-rule="evenodd"/>
          <path id="Path_10689" data-name="Path 10689" d="M1386.525,398.209c-.546-137.484-.955-275.766-2.475-413.809H1140.789V1620.526h-13.608a205.237,205.237,0,0,0,25.6,31.82c17.4,17.283,35.423,26.564,53.9,26.978,69.321,1.562,132.72-121.795,180.646-325.453Q1387.837,875.987,1386.525,398.209Z" transform="translate(-1142.989 861.819)" fill="#49199a" fill-rule="evenodd"/>
          <path id="Path_10690" data-name="Path 10690" d="M1386.379,398.209c-.546-137.484-.955-275.766-2.475-413.809H1140.642V1613.883h-13.158a204.344,204.344,0,0,0,25.458,31.643c17.3,17.191,35.229,26.414,53.609,26.828,69.424,1.568,132.864-122.891,180.643-327.967Q1387.69,871.247,1386.379,398.209Z" transform="translate(-1142.843 861.819)" fill="#4a1a9b" fill-rule="evenodd"/>
          <path id="Path_10691" data-name="Path 10691" d="M1386.232,398.209c-.546-137.484-.955-275.766-2.475-413.809H1140.5V1607.241h-12.707a203.009,203.009,0,0,0,25.317,31.468c17.2,17.1,35.034,26.269,53.312,26.683,69.525,1.567,133.013-123.978,180.639-330.486Q1387.541,866.505,1386.232,398.209Z" transform="translate(-1142.696 861.819)" fill="#4b1a9b" fill-rule="evenodd"/>
          <path id="Path_10692" data-name="Path 10692" d="M1386.085,398.209c-.546-137.484-.955-275.766-2.475-413.809H1140.349V1600.594h-12.258a202.019,202.019,0,0,0,25.176,31.3c17.109,17,34.84,26.124,53.016,26.533,69.625,1.573,133.166-125.048,180.636-333Q1387.393,861.764,1386.085,398.209Z" transform="translate(-1142.55 861.819)" fill="#4c1a9b" fill-rule="evenodd"/>
          <path id="Path_10693" data-name="Path 10693" d="M1385.939,398.209c-.546-137.484-.955-275.766-2.475-413.809H1140.2V1593.952h-11.808a200.857,200.857,0,0,0,25.035,31.121c17.014,16.906,34.646,25.979,52.721,26.383,69.726,1.578,133.32-126.109,180.632-335.51Q1387.244,857.02,1385.939,398.209Z" transform="translate(-1142.403 861.819)" fill="#4d1b9c" fill-rule="evenodd"/>
          <path id="Path_10694" data-name="Path 10694" d="M1385.792,398.209c-.546-137.484-.955-275.766-2.475-413.809H1140.056V1587.309H1128.7a199.558,199.558,0,0,0,24.894,30.945c16.918,16.807,34.45,25.829,52.424,26.238,69.831,1.572,133.478-127.216,180.629-338.106Q1387.092,852.248,1385.792,398.209Z" transform="translate(-1142.256 861.819)" fill="#4e1b9c" fill-rule="evenodd"/>
          <path id="Path_10695" data-name="Path 10695" d="M1385.646,398.209c-.546-137.484-.955-275.766-2.475-413.809H1139.909V1580.667H1129a198.741,198.741,0,0,0,24.753,30.77c16.823,16.714,34.256,25.684,52.129,26.088,69.943,1.578,133.642-128.406,180.624-340.832Q1386.944,847.4,1385.646,398.209Z" transform="translate(-1142.11 861.819)" fill="#4f1b9c" fill-rule="evenodd"/>
          <path id="Path_10696" data-name="Path 10696" d="M1385.5,398.209c-.546-137.484-.955-275.766-2.475-413.809H1139.763V1574.02H1129.3a197.361,197.361,0,0,0,24.614,30.6c16.727,16.621,34.06,25.54,51.831,25.938,70.055,1.583,133.809-129.585,180.621-343.559Q1386.793,842.551,1385.5,398.209Z" transform="translate(-1141.964 861.819)" fill="#501c9c" fill-rule="evenodd"/>
          <path id="Path_10697" data-name="Path 10697" d="M1385.353,398.209c-.546-137.484-.955-275.766-2.475-413.809H1139.617V1567.378h-10.01a196.388,196.388,0,0,0,24.473,30.423c16.632,16.523,33.867,25.395,51.535,25.793,70.168,1.583,133.98-130.754,180.617-346.3Q1386.642,837.7,1385.353,398.209Z" transform="translate(-1141.817 861.819)" fill="#511c9d" fill-rule="evenodd"/>
          <path id="Path_10698" data-name="Path 10698" d="M1385.206,398.209c-.546-137.484-.955-275.766-2.475-413.809H1139.47V1560.735h-9.559a195.213,195.213,0,0,0,24.331,30.247c16.537,16.43,33.673,25.244,51.24,25.643,70.279,1.588,134.156-131.913,180.612-349.027Q1386.493,832.852,1385.206,398.209Z" transform="translate(-1141.67 861.819)" fill="#521d9d" fill-rule="evenodd"/>
          <path id="Path_10699" data-name="Path 10699" d="M1385.06,398.209c-.546-137.484-.955-275.766-2.475-413.809H1139.323V1554.093h-9.109a194.029,194.029,0,0,0,24.191,30.071c16.44,16.337,33.477,25.1,50.942,25.493,70.406,1.594,134.337-133.217,180.611-351.985Q1386.341,827.891,1385.06,398.209Z" transform="translate(-1141.524 861.819)" fill="#531d9d" fill-rule="evenodd"/>
          <path id="Path_10700" data-name="Path 10700" d="M1384.913,398.209c-.546-137.484-.955-275.766-2.475-413.809H1139.177V1547.451h-8.66a192.936,192.936,0,0,0,24.051,29.9c16.345,16.238,33.283,24.955,50.647,25.348,70.53,1.588,134.523-134.515,180.606-354.95Q1386.19,822.93,1384.913,398.209Z" transform="translate(-1141.377 861.819)" fill="#541d9e" fill-rule="evenodd"/>
          <path id="Path_10701" data-name="Path 10701" d="M1384.767,398.209c-.546-137.484-.955-275.766-2.475-413.809H1139.031V1540.8h-8.21a191.735,191.735,0,0,0,23.911,29.724c16.249,16.146,33.087,24.81,50.351,25.2,70.655,1.593,134.713-135.793,180.6-357.909Q1386.039,817.961,1384.767,398.209Z" transform="translate(-1141.231 861.819)" fill="#551e9e" fill-rule="evenodd"/>
          <path id="Path_10702" data-name="Path 10702" d="M1384.62,398.209c-.546-137.484-.955-275.766-2.475-413.809H1138.884V1534.161h-7.761a190.56,190.56,0,0,0,23.77,29.549c16.154,16.047,32.893,24.665,50.056,25.053,70.777,1.593,134.906-137.055,180.6-360.863Q1385.887,813,1384.62,398.209Z" transform="translate(-1141.085 861.819)" fill="#561e9e" fill-rule="evenodd"/>
          <path id="Path_10703" data-name="Path 10703" d="M1384.474,398.209c-.546-137.484-.955-275.766-2.475-413.809H1138.737V1527.519h-7.31a189.639,189.639,0,0,0,23.629,29.373c16.056,15.954,32.7,24.515,49.757,24.9,70.916,1.6,135.106-138.472,180.592-364.054Q1385.732,807.926,1384.474,398.209Z" transform="translate(-1140.938 861.819)" fill="#571f9f" fill-rule="evenodd"/>
          <path id="Path_10704" data-name="Path 10704" d="M1384.327,398.209c-.546-137.484-.955-275.766-2.475-413.809H1138.591V1520.877h-6.861a188.515,188.515,0,0,0,23.488,29.2c15.961,15.86,32.5,24.37,49.462,24.753,71.052,1.6,135.31-139.875,180.585-367.251Q1385.578,802.843,1384.327,398.209Z" transform="translate(-1140.792 861.819)" fill="#581f9f" fill-rule="evenodd"/>
          <path id="Path_10705" data-name="Path 10705" d="M1384.181,398.209c-.546-137.484-.955-275.766-2.475-413.809H1138.445V1514.23h-6.412a187.127,187.127,0,0,0,23.348,29.026c15.866,15.762,32.31,24.226,49.167,24.6,71.189,1.609,135.521-141.266,180.58-370.443Q1385.423,797.758,1384.181,398.209Z" transform="translate(-1140.645 861.819)" fill="#591f9f" fill-rule="evenodd"/>
          <path id="Path_10706" data-name="Path 10706" d="M1384.034,398.209c-.546-137.484-.955-275.766-2.475-413.809H1138.3V1507.588h-5.962a186.033,186.033,0,0,0,23.208,28.85c15.77,15.669,32.114,24.081,48.869,24.458,71.329,1.609,135.739-142.684,180.575-373.7Q1385.271,792.65,1384.034,398.209Z" transform="translate(-1140.499 861.819)" fill="#5a209f" fill-rule="evenodd"/>
          <path id="Path_10707" data-name="Path 10707" d="M1383.887,398.209c-.546-137.484-.955-275.766-2.475-413.809H1138.151V1500.945h-5.511a185.069,185.069,0,0,0,23.066,28.674c15.675,15.576,31.92,23.931,48.574,24.308,71.481,1.614,135.961-144.225,180.569-377.163Q1385.116,787.435,1383.887,398.209Z" transform="translate(-1140.352 861.819)" fill="#5b20a0" fill-rule="evenodd"/>
          <path id="Path_10708" data-name="Path 10708" d="M1383.741,398.209c-.546-137.484-.955-275.766-2.475-413.809H1138V1494.3h-5.062a184.05,184.05,0,0,0,22.926,28.5c15.579,15.478,31.726,23.786,48.277,24.158,71.632,1.619,136.191-145.756,180.563-380.629Q1384.961,782.223,1383.741,398.209Z" transform="translate(-1140.206 861.819)" fill="#5c20a0" fill-rule="evenodd"/>
          <path id="Path_10709" data-name="Path 10709" d="M1383.595,398.209c-.546-137.484-.955-275.766-2.475-413.809H1137.859V1487.661h-4.613a182.926,182.926,0,0,0,22.785,28.322c15.484,15.385,31.531,23.641,47.982,24.013,71.783,1.619,136.428-147.272,180.556-384.095Q1384.807,777.009,1383.595,398.209Z" transform="translate(-1140.059 861.819)" fill="#5d21a0" fill-rule="evenodd"/>
          <path id="Path_10710" data-name="Path 10710" d="M1383.448,398.209c-.546-137.484-.955-275.766-2.475-413.809H1137.712V1481.019h-4.163a182.09,182.09,0,0,0,22.644,28.147c15.389,15.286,31.337,23.5,47.685,23.863,71.948,1.625,136.675-148.9,180.553-387.757Q1384.652,771.694,1383.448,398.209Z" transform="translate(-1139.913 861.819)" fill="#5e21a1" fill-rule="evenodd"/>
          <path id="Path_10711" data-name="Path 10711" d="M1383.3,398.209c-.546-137.484-.955-275.766-2.475-413.809H1137.565V1474.371h-3.712a180.376,180.376,0,0,0,22.5,27.976c15.293,15.193,31.141,23.351,47.389,23.718,72.114,1.624,136.927-150.583,180.547-391.513Q1384.5,766.337,1383.3,398.209Z" transform="translate(-1139.766 861.819)" fill="#5f22a1" fill-rule="evenodd"/>
          <path id="Path_10712" data-name="Path 10712" d="M1383.155,398.209c-.546-137.484-.955-275.766-2.475-413.809H1137.419V1467.729h-3.263a179.486,179.486,0,0,0,22.363,27.8c15.2,15.1,30.947,23.2,47.094,23.569,72.28,1.629,137.185-152.238,180.538-395.253Q1384.34,760.983,1383.155,398.209Z" transform="translate(-1139.62 861.819)" fill="#6022a1" fill-rule="evenodd"/>
          <path id="Path_10713" data-name="Path 10713" d="M1383.009,398.209c-.546-137.484-.955-275.766-2.475-413.809H1137.272V1461.087h-2.813a178.208,178.208,0,0,0,22.223,27.624c15.1,15,30.751,23.056,46.8,23.418,72.455,1.635,137.452-153.95,180.531-399.107Q1384.182,755.569,1383.009,398.209Z" transform="translate(-1139.473 861.819)" fill="#6122a2" fill-rule="evenodd"/>
          <path id="Path_10714" data-name="Path 10714" d="M1382.862,398.209c-.546-137.484-.955-275.766-2.475-413.809H1137.126V1454.445h-2.364a177.449,177.449,0,0,0,22.082,27.448c15.006,14.908,30.558,22.911,46.5,23.274,72.639,1.635,137.726-155.782,180.52-403.152Q1384.025,750.062,1382.862,398.209Z" transform="translate(-1139.327 861.819)" fill="#6223a2" fill-rule="evenodd"/>
          <path id="Path_10715" data-name="Path 10715" d="M1382.715,398.209c-.546-137.484-.955-275.766-2.475-413.809H1136.979V1447.8h-1.913a175.951,175.951,0,0,0,21.941,27.278c14.91,14.816,30.363,22.767,46.2,23.124,72.822,1.64,138.011-157.587,180.511-407.2Q1383.865,744.566,1382.715,398.209Z" transform="translate(-1139.18 861.819)" fill="#6323a2" fill-rule="evenodd"/>
          <path id="Path_10716" data-name="Path 10716" d="M1382.569,398.209c-.546-137.484-.955-275.766-2.475-413.809H1136.833V1441.155h-1.464a175,175,0,0,0,21.8,27.1c14.815,14.717,30.168,22.616,45.908,22.974,73.012,1.65,138.3-159.444,180.5-411.347Q1383.707,739.005,1382.569,398.209Z" transform="translate(-1139.033 861.819)" fill="#6423a2" fill-rule="evenodd"/>
          <path id="Path_10717" data-name="Path 10717" d="M1382.423,398.209c-.546-137.484-.955-275.766-2.475-413.809H1136.687V1434.513h-1.015a173.735,173.735,0,0,0,21.66,26.926c14.72,14.625,29.974,22.472,45.612,22.824,73.216,1.656,138.611-161.431,180.495-415.723Q1383.548,733.333,1382.423,398.209Z" transform="translate(-1138.887 861.819)" fill="#6524a3" fill-rule="evenodd"/>
          <path id="Path_10718" data-name="Path 10718" d="M1382.276,398.209c-.546-137.484-.955-275.766-2.475-413.809H1136.54V1427.87h-.565a172.8,172.8,0,0,0,21.52,26.75c14.624,14.526,29.778,22.327,45.315,22.679,73.419,1.655,138.928-163.407,180.485-420.1Q1383.391,727.66,1382.276,398.209Z" transform="translate(-1138.741 861.819)" fill="#6624a3" fill-rule="evenodd"/>
          <path id="Path_10719" data-name="Path 10719" d="M1382.129,398.209c-.546-137.484-.955-275.766-2.475-413.809H1136.393V1421.228h-.114a171.491,171.491,0,0,0,21.378,26.574c14.529,14.433,29.584,22.182,45.02,22.529,73.631,1.661,139.255-165.46,180.476-424.641Q1383.233,721.905,1382.129,398.209Z" transform="translate(-1138.594 861.819)" fill="#6725a3" fill-rule="evenodd"/>
          <path id="Path_10720" data-name="Path 10720" d="M1385.335,398.209c-.546-137.484-.955-275.766-2.475-413.809H1139.6V1397.81h-9.954q5.088,8.97,10.29,16.771a170.389,170.389,0,0,0,21.238,26.4c14.432,14.34,29.39,22.037,44.722,22.379,73.857,1.671,139.6-167.628,180.468-429.385Q1386.425,716.052,1385.335,398.209Z" transform="translate(-1141.799 861.819)" fill="#6825a4" fill-rule="evenodd"/>
          <path id="Path_10721" data-name="Path 10721" d="M1385.167,398.209c-.546-137.484-.955-275.766-2.475-413.809H1139.43V1391.281h-9.437q5.052,8.9,10.222,16.657a169.268,169.268,0,0,0,21.1,26.227c14.337,14.242,29.2,21.887,44.427,22.234,74.081,1.671,139.951-169.774,180.458-434.118Q1386.244,710.206,1385.167,398.209Z" transform="translate(-1141.631 861.819)" fill="#6925a4" fill-rule="evenodd"/>
          <path id="Path_10722" data-name="Path 10722" d="M1385,398.209c-.546-137.484-.955-275.766-2.475-413.809H1139.261V1384.748h-8.918q5.019,8.846,10.152,16.549a168.384,168.384,0,0,0,20.957,26.051c14.243,14.148,29,21.743,44.132,22.084,74.319,1.676,140.314-172.072,180.443-439.126Q1386.057,704.221,1385,398.209Z" transform="translate(-1141.462 861.819)" fill="#6a26a4" fill-rule="evenodd"/>
          <path id="Path_10723" data-name="Path 10723" d="M1384.829,398.209c-.546-137.484-.955-275.766-2.475-413.809H1139.093V1378.214h-8.4q4.986,8.783,10.085,16.44a167.113,167.113,0,0,0,20.816,25.876c14.146,14.055,28.805,21.6,43.835,21.934,74.564,1.687,140.692-174.415,180.43-444.226Q1385.871,698.182,1384.829,398.209Z" transform="translate(-1141.293 861.819)" fill="#6b26a5" fill-rule="evenodd"/>
          <path id="Path_10724" data-name="Path 10724" d="M1384.66,398.209c-.546-137.484-.955-275.766-2.475-413.809H1138.924V1371.681h-7.883q4.952,8.73,10.017,16.326a165.712,165.712,0,0,0,20.675,25.7c14.051,13.957,28.611,21.453,43.539,21.789,74.818,1.686,141.088-176.8,180.417-449.436Q1385.688,692.1,1384.66,398.209Z" transform="translate(-1141.125 861.819)" fill="#6c26a5" fill-rule="evenodd"/>
          <path id="Path_10725" data-name="Path 10725" d="M1384.492,398.209c-.546-137.484-.955-275.766-2.475-413.809H1138.755V1365.152h-7.365q4.919,8.668,9.949,16.213a164.868,164.868,0,0,0,20.535,25.529c13.955,13.864,28.417,21.3,43.242,21.639,75.088,1.7,141.5-179.371,180.4-454.966Q1385.5,685.849,1384.492,398.209Z" transform="translate(-1140.956 861.819)" fill="#6d27a5" fill-rule="evenodd"/>
          <path id="Path_10726" data-name="Path 10726" d="M1384.323,398.209c-.546-137.484-.955-275.766-2.475-413.809H1138.587V1358.619h-6.848q4.885,8.606,9.881,16.1a163.756,163.756,0,0,0,20.394,25.353c13.86,13.771,28.223,21.158,42.947,21.494,75.359,1.7,141.932-181.916,180.388-460.5Q1385.318,679.605,1384.323,398.209Z" transform="translate(-1140.787 861.819)" fill="#6e27a6" fill-rule="evenodd"/>
          <path id="Path_10727" data-name="Path 10727" d="M1384.154,398.209c-.546-137.484-.955-275.766-2.475-413.809H1138.417V1352.085h-6.328q4.85,8.551,9.813,16a162.7,162.7,0,0,0,20.252,25.177c13.765,13.672,28.028,21.013,42.65,21.344,75.657,1.707,142.386-184.694,180.377-466.44Q1385.131,673.147,1384.154,398.209Z" transform="translate(-1140.618 861.819)" fill="#6f28a6" fill-rule="evenodd"/>
          <path id="Path_10728" data-name="Path 10728" d="M1387.086,398.209c-.546-137.484-.955-275.766-2.475-413.809H1141.35V1327.5h-15.331c25.072,50.976,52.688,79.474,81.731,80.13,75.957,1.713,142.858-187.482,180.362-472.44Q1388.049,666.665,1387.086,398.209Z" transform="translate(-1143.551 861.819)" fill="#7028a6" fill-rule="evenodd"/>
          <path id="Path_10729" data-name="Path 10729" d="M1386.9,398.209c-.546-137.484-.955-275.766-2.475-413.809H1141.159V1321.093h-14.745c24.9,50.623,52.319,78.925,81.158,79.577,76.279,1.717,143.355-190.457,180.348-478.793Q1387.84,660.015,1386.9,398.209Z" transform="translate(-1143.36 861.819)" fill="#7128a6" fill-rule="evenodd"/>
          <path id="Path_10730" data-name="Path 10730" d="M1386.705,398.209c-.546-137.484-.955-275.766-2.475-413.809H1140.969V1314.689h-14.161c24.721,50.267,51.951,78.367,80.587,79.014,76.6,1.728,143.868-193.488,180.326-485.254Q1387.628,653.3,1386.705,398.209Z" transform="translate(-1143.169 861.819)" fill="#7229a7" fill-rule="evenodd"/>
          <path id="Path_10731" data-name="Path 10731" d="M1386.515,398.209c-.546-137.484-.955-275.766-2.475-413.809H1140.779V1308.285H1127.2c24.546,49.9,51.581,77.808,80.015,78.449,76.955,1.738,144.411-196.7,180.307-492.046Q1387.415,646.42,1386.515,398.209Z" transform="translate(-1142.979 861.819)" fill="#7329a7" fill-rule="evenodd"/>
          <path id="Path_10732" data-name="Path 10732" d="M1386.324,398.209c-.546-137.484-.955-275.766-2.475-413.809H1140.588V1301.876H1127.6c24.369,49.552,51.214,77.254,79.444,77.891,77.318,1.749,144.982-200.011,180.286-499.071Q1387.2,639.426,1386.324,398.209Z" transform="translate(-1142.789 861.819)" fill="#742aa7" fill-rule="evenodd"/>
          <path id="Path_10733" data-name="Path 10733" d="M1386.134,398.209c-.546-137.484-.955-275.766-2.475-413.809H1140.4V1295.471H1127.99c24.194,49.2,50.844,76.7,78.873,77.332,77.705,1.754,145.587-203.55,180.263-506.51Q1386.988,632.225,1386.134,398.209Z" transform="translate(-1142.599 861.819)" fill="#752aa8" fill-rule="evenodd"/>
          <path id="Path_10734" data-name="Path 10734" d="M1385.944,398.209c-.546-137.484-.955-275.766-2.475-413.809H1140.208V1289.067h-11.823c24.019,48.839,50.477,76.142,78.3,76.768,78.11,1.764,146.226-207.186,180.245-514.156Q1386.777,624.921,1385.944,398.209Z" transform="translate(-1142.408 861.819)" fill="#762aa8" fill-rule="evenodd"/>
          <path id="Path_10735" data-name="Path 10735" d="M1385.753,398.209c-.546-137.484-.955-275.766-2.475-413.809H1140.017V1282.658h-11.239c23.844,48.482,50.109,75.589,77.729,76.209,78.55,1.774,146.911-211.139,180.222-522.386Q1386.565,617.319,1385.753,398.209Z" transform="translate(-1142.218 861.819)" fill="#772ba8" fill-rule="evenodd"/>
          <path id="Path_10736" data-name="Path 10736" d="M1385.563,398.209c-.546-137.484-.955-275.766-2.475-413.809H1139.827V1276.253h-10.655c23.669,48.125,49.74,75.03,77.158,75.651,79,1.78,147.634-215.2,180.2-530.854Q1386.352,609.608,1385.563,398.209Z" transform="translate(-1142.027 861.819)" fill="#782ba9" fill-rule="evenodd"/>
          <path id="Path_10737" data-name="Path 10737" d="M1385.373,398.209c-.546-137.484-.955-275.766-2.475-413.809H1139.636V1269.849h-10.07c23.494,47.768,49.372,74.472,76.586,75.087,79.5,1.795,148.4-219.571,180.172-539.887Q1386.134,601.608,1385.373,398.209Z" transform="translate(-1141.837 861.819)" fill="#792ba9" fill-rule="evenodd"/>
          <path id="Path_10738" data-name="Path 10738" d="M1385.182,398.209c-.532-133.988-.94-268.725-2.368-403.261-.371-3.513-.728-7.061-1.108-10.548h-242.26V1263.44h-9.486c23.319,47.416,49,73.923,76.015,74.534,80.018,1.805,149.225-224.2,180.139-549.405Q1385.911,593.368,1385.182,398.209Z" transform="translate(-1141.647 861.819)" fill="#7a2ca9" fill-rule="evenodd"/>
          <path id="Path_10739" data-name="Path 10739" d="M1384.992,398.209c-.509-128.194-.911-257.075-2.194-385.812q-1.426-14.122-2.942-28h-240.6V1257.035h-8.9c23.144,47.054,48.635,73.364,75.444,73.969,80.571,1.816,150.106-229.053,180.1-559.389Q1385.691,584.9,1384.992,398.209Z" transform="translate(-1141.456 861.819)" fill="#7b2ca9" fill-rule="evenodd"/>
          <path id="Path_10740" data-name="Path 10740" d="M1384.8,398.209c-.485-122.126-.866-244.877-2.01-367.531q-2.262-23.5-4.786-46.278H1139.065V1250.631h-8.317c22.968,46.7,48.267,72.805,74.873,73.406,81.179,1.831,151.065-234.366,180.071-570.216Q1385.471,575.994,1384.8,398.209Z" transform="translate(-1141.266 861.819)" fill="#7c2daa" fill-rule="evenodd"/>
          <path id="Path_10741" data-name="Path 10741" d="M1312.318,171.2q.158-16.652.2-33.433.082-43.88-.7-86.742Q1312.122,111.114,1312.318,171.2Z" transform="translate(-1053.783 1139.845)" fill="#7c2daa" fill-rule="evenodd"/>
          <path id="Path_10742" data-name="Path 10742" d="M1384.611,398.209c-.46-115.8-.829-232.167-1.842-348.483-2.029-22.239-4.224-44.059-6.612-65.325H1138.875V1244.222h-7.733c22.793,46.345,47.9,72.252,74.3,72.852,81.843,1.847,152.117-240.118,180.037-581.882Q1385.25,566.685,1384.611,398.209Z" transform="translate(-1141.076 861.819)" fill="#7d2daa" fill-rule="evenodd"/>
          <path id="Path_10743" data-name="Path 10743" d="M1384.42,398.209c-.433-109.177-.789-218.857-1.676-328.52-2.515-29.217-5.326-57.711-8.454-85.288H1138.684V1237.818h-7.147c22.616,45.989,47.528,71.693,73.728,72.288,82.565,1.862,153.265-246.331,180-594.432Q1385.03,556.929,1384.42,398.209Z" transform="translate(-1140.885 861.819)" fill="#7e2daa" fill-rule="evenodd"/>
          <path id="Path_10744" data-name="Path 10744" d="M1384.23,398.209q-.609-153.283-1.5-307.456c-2.956-36.667-6.394-72.2-10.306-106.353H1138.494V1231.413h-6.563c22.441,45.626,47.16,71.14,73.157,71.725,83.35,1.883,154.516-253.061,179.952-607.938Q1384.8,546.7,1384.23,398.209Z" transform="translate(-1140.694 861.819)" fill="#7f2eab" fill-rule="evenodd"/>
          <path id="Path_10745" data-name="Path 10745" d="M1384.04,398.209q-.565-142.3-1.353-285.408c-3.339-44.55-7.4-87.471-12.14-128.4H1138.3V1225h-5.978c22.266,45.275,46.793,70.586,72.584,71.171,84.227,1.9,155.915-260.51,179.9-622.79Q1384.565,535.784,1384.04,398.209Z" transform="translate(-1140.504 861.819)" fill="#802eab" fill-rule="evenodd"/>
          <path id="Path_10746" data-name="Path 10746" d="M1383.849,398.209q-.518-130.446-1.189-261.586c-3.654-53.158-8.351-104.082-13.983-152.223H1138.113V1218.6h-5.394c22.091,44.918,46.423,70.028,72.013,70.608,85.222,1.924,157.505-268.9,179.841-639.4Q1384.331,524,1383.849,398.209Z" transform="translate(-1140.314 861.819)" fill="#812eab" fill-rule="evenodd"/>
          <path id="Path_10747" data-name="Path 10747" d="M1383.659,398.209q-.467-117.6-1.038-235.783c-3.884-62.568-9.216-122.2-15.815-178.026H1137.923V1212.19h-4.81c21.915,44.566,46.056,69.474,71.442,70.049,86.374,1.95,159.349-278.512,179.78-658.324Q1384.1,511.051,1383.659,398.209Z" transform="translate(-1140.123 861.819)" fill="#822fac" fill-rule="evenodd"/>
          <path id="Path_10748" data-name="Path 10748" d="M1383.469,398.209q-.409-103.094-.872-206.648c-4-73.292-9.978-142.813-17.667-207.16h-227.2V1205.786h-4.225c21.74,44.2,45.686,68.921,70.871,69.484,87.726,1.981,161.52-289.7,179.7-680.149Q1383.852,496.66,1383.469,398.209Z" transform="translate(-1139.933 861.819)" fill="#832fac" fill-rule="evenodd"/>
          <path id="Path_10749" data-name="Path 10749" d="M1383.278,398.209q-.342-86.31-.709-172.961c-3.945-85.8-10.593-166.816-19.534-240.847H1137.542V1199.381H1133.9c21.565,43.847,45.318,68.362,70.3,68.926,89.385,2.017,164.189-303.307,179.6-706.47Q1383.59,480.021,1383.278,398.209Z" transform="translate(-1139.743 861.819)" fill="#8430ac" fill-rule="evenodd"/>
          <path id="Path_10750" data-name="Path 10750" d="M1383.088,398.209q-.26-65.763-.523-131.748c-3.592-101.237-10.963-196.4-21.424-282.061H1137.352V1192.977h-3.057c21.39,43.49,44.951,67.8,69.728,68.362,91.623,2.069,167.8-321.428,179.479-741.16Q1383.324,459.2,1383.088,398.209Z" transform="translate(-1139.552 861.819)" fill="#8530ac" fill-rule="evenodd"/>
          <path id="Path_10751" data-name="Path 10751" d="M1382.9,398.209q-.135-34.39-.268-68.848c-2.446-124.935-10.662-241.939-23.383-344.96H1137.161V1186.568h-2.472c21.215,43.138,44.583,67.25,69.157,67.809,95.392,2.152,173.912-351.52,179.258-797.9Q1383,427.341,1382.9,398.209Z" transform="translate(-1139.362 861.819)" fill="#8630ad" fill-rule="evenodd"/>
          <path id="Path_10752" data-name="Path 10752" d="M1136.971-15.6V1180.164h-1.888c21.04,42.776,44.214,66.7,68.584,67.245,97.486,2.2,177.207-370.293,178.064-831.983.291-157.452-8.633-304.926-24.38-431.025Z" transform="translate(-1139.172 861.819)" fill="#8731ad" fill-rule="evenodd"/>
          <path id="Path_10753" data-name="Path 10753" d="M1136.781-15.6V1173.759h-1.3c20.865,42.419,43.846,66.137,68.013,66.681,96.673,2.183,175.73-367.2,176.58-825.046.292-157.618-8.724-305.169-24.616-430.994Z" transform="translate(-1138.981 861.819)" fill="#8831ad" fill-rule="evenodd"/>
          <path id="Path_10754" data-name="Path 10754" d="M1136.59-15.6V1167.35h-.719c20.69,42.067,43.476,65.584,67.442,66.127,95.86,2.162,174.252-364.122,175.095-818.12.292-157.8-8.831-305.4-24.874-430.957Z" transform="translate(-1138.791 861.819)" fill="#8932ae" fill-rule="evenodd"/>
          <path id="Path_10755" data-name="Path 10755" d="M1136.4-15.6V1160.946h-.135c20.513,41.71,43.109,65.026,66.871,65.564,95.047,2.141,172.775-361.033,173.61-811.183.294-157.991-8.934-305.656-25.132-430.926Z" transform="translate(-1138.6 861.819)" fill="#8a32ae" fill-rule="evenodd"/>
          <path id="Path_10756" data-name="Path 10756" d="M1141.048-15.6V1120.172h-14.4q7.219,18.825,14.854,34.365c20.336,41.353,42.739,64.472,66.3,65,94.236,2.126,171.3-357.95,172.127-804.251.294-158.172-9.037-305.914-25.39-430.89Z" transform="translate(-1143.248 861.819)" fill="#8b32ae" fill-rule="evenodd"/>
          <path id="Path_10757" data-name="Path 10757" d="M1140.815-15.6V1114.062h-13.689q7.155,18.662,14.724,34.07c20.161,41,42.37,63.918,65.726,64.446,93.424,2.105,169.823-354.867,170.643-797.319.3-158.358-9.136-306.188-25.648-430.859Z" transform="translate(-1143.016 861.819)" fill="#8c33af" fill-rule="evenodd"/>
          <path id="Path_10758" data-name="Path 10758" d="M1140.583-15.6V1107.953h-12.977q7.095,18.5,14.6,33.775c19.987,40.64,42,63.359,65.155,63.882,92.611,2.09,168.345-351.778,169.16-790.387.294-158.554-9.247-306.463-25.922-430.823Z" transform="translate(-1142.784 861.819)" fill="#8d33af" fill-rule="evenodd"/>
          <path id="Path_10759" data-name="Path 10759" d="M1140.351-15.6V1101.843h-12.265q7.032,18.336,14.469,33.475c19.811,40.288,41.634,62.806,64.583,63.323,91.8,2.074,166.87-348.69,167.677-783.45.3-158.766-9.364-306.752-26.207-430.792Z" transform="translate(-1142.552 861.819)" fill="#8e33af" fill-rule="evenodd"/>
          <path id="Path_10760" data-name="Path 10760" d="M1140.119-15.6V1095.734h-11.552q6.97,18.173,14.34,33.18c19.637,39.926,41.265,62.247,64.012,62.76,90.987,2.054,165.392-345.6,166.192-776.513.3-158.979-9.479-307.047-26.49-430.761Z" transform="translate(-1142.32 861.819)" fill="#8f34af" fill-rule="evenodd"/>
          <path id="Path_10761" data-name="Path 10761" d="M1139.887-15.6V1089.625h-10.84q6.908,18.01,14.213,32.885c19.461,39.569,40.9,61.689,63.441,62.2,90.172,2.033,163.915-342.519,164.709-769.586.3-159.191-9.593-307.357-26.776-430.725Z" transform="translate(-1142.088 861.819)" fill="#9034b0" fill-rule="evenodd"/>
          <path id="Path_10762" data-name="Path 10762" d="M1139.655-15.6V1083.515h-10.127q6.845,17.847,14.084,32.585c19.285,39.217,40.529,61.14,62.87,61.642,89.36,2.018,162.439-339.436,163.224-762.649.3-159.413-9.712-307.673-27.073-430.694Z" transform="translate(-1141.855 861.819)" fill="#9135b0" fill-rule="evenodd"/>
          <path id="Path_10763" data-name="Path 10763" d="M1139.423-15.6V1077.406h-9.415q6.783,17.684,13.956,32.29c19.11,38.855,40.16,60.582,62.3,61.078,88.55,2,160.962-336.347,161.741-755.717.3-159.651-9.84-308-27.386-430.657Z" transform="translate(-1141.623 861.819)" fill="#9235b0" fill-rule="evenodd"/>
          <path id="Path_10764" data-name="Path 10764" d="M1139.19-15.6V1071.3h-8.7q6.721,17.521,13.827,32c18.935,38.5,39.792,60.023,61.726,60.52,87.736,1.981,159.486-333.264,160.256-748.785.3-159.889-9.968-308.34-27.7-430.626Z" transform="translate(-1141.391 861.819)" fill="#9335b1" fill-rule="evenodd"/>
          <path id="Path_10765" data-name="Path 10765" d="M1138.959-15.6V1065.187h-7.99q6.659,17.358,13.7,31.7c18.76,38.146,39.424,59.469,61.155,59.961C1292.748,1158.8,1363.833,826.668,1364.6,415c.3-160.132-10.093-308.7-28.012-430.6Z" transform="translate(-1141.159 861.819)" fill="#9436b1" fill-rule="evenodd"/>
          <path id="Path_10766" data-name="Path 10766" d="M1138.727-15.6V1059.078h-7.278q6.6,17.2,13.572,31.4c18.585,37.789,39.055,58.916,60.583,59.4,86.112,1.94,156.534-327.093,157.29-734.921.3-160.386-10.229-309.054-28.344-430.559Z" transform="translate(-1140.927 861.819)" fill="#9536b1" fill-rule="evenodd"/>
          <path id="Path_10767" data-name="Path 10767" d="M1138.494-15.6V1052.963h-6.564q6.534,17.04,13.443,31.111c18.41,37.432,38.688,58.357,60.012,58.838,85.3,1.924,155.055-324,155.806-727.984.3-160.66-10.371-309.432-28.687-430.528Z" transform="translate(-1140.695 861.819)" fill="#9636b2" fill-rule="evenodd"/>
          <path id="Path_10768" data-name="Path 10768" d="M1138.262-15.6V1046.854h-5.852q6.471,16.877,13.315,30.811c18.235,37.075,38.318,57.8,59.441,58.28,84.486,1.909,153.579-320.921,154.321-721.052.3-160.924-10.511-309.825-29.029-430.492Z" transform="translate(-1140.463 861.819)" fill="#9737b2" fill-rule="evenodd"/>
          <path id="Path_10769" data-name="Path 10769" d="M1138.03-15.6V1040.744h-5.139q6.41,16.714,13.187,30.516c18.058,36.718,37.95,57.245,58.87,57.721,83.673,1.883,152.1-317.838,152.836-714.12.3-161.2-10.65-310.239-29.376-430.461Z" transform="translate(-1140.23 861.819)" fill="#9837b2" fill-rule="evenodd"/>
          <path id="Path_10770" data-name="Path 10770" d="M1137.8-15.6V1034.635h-4.427q6.347,16.551,13.059,30.221c17.884,36.362,37.582,56.692,58.3,57.157,82.862,1.867,150.626-314.75,151.353-707.189.3-161.5-10.808-310.653-29.751-430.425Z" transform="translate(-1139.999 861.819)" fill="#9938b2" fill-rule="evenodd"/>
          <path id="Path_10771" data-name="Path 10771" d="M1137.566-15.6V1028.526h-3.715q6.285,16.4,12.933,29.921c17.707,36.01,37.213,56.138,57.725,56.6,82.05,1.852,149.149-311.661,149.87-700.251.3-161.808-10.965-311.092-30.13-430.394Z" transform="translate(-1139.767 861.819)" fill="#9a38b3" fill-rule="evenodd"/>
          <path id="Path_10772" data-name="Path 10772" d="M1141.264-15.6V987.25H1126.2c7.779,25.214,16.1,46.966,24.867,64.793,17.532,35.647,36.844,55.579,57.154,56.04,81.237,1.831,147.672-308.578,148.385-693.32.3-162.113-11.116-311.558-30.5-430.363Z" transform="translate(-1143.464 861.819)" fill="#9b38b3" fill-rule="evenodd"/>
          <path id="Path_10773" data-name="Path 10773" d="M1140.992-15.6V981.492H1126.76c7.7,24.96,15.939,46.5,24.618,64.146,17.357,35.291,36.476,55.021,56.581,55.476,80.425,1.816,146.2-305.49,146.9-686.387.3-162.45-11.288-312.024-30.911-430.326Z" transform="translate(-1143.193 861.819)" fill="#9c39b3" fill-rule="evenodd"/>
          <path id="Path_10774" data-name="Path 10774" d="M1140.72-15.6V975.734h-13.4c7.623,24.707,15.777,46.03,24.369,63.494,17.182,34.939,36.107,54.467,56.01,54.917,79.613,1.8,144.719-302.4,145.418-679.451.3-162.791-11.459-312.52-31.322-430.3Z" transform="translate(-1142.921 861.819)" fill="#9d39b4" fill-rule="evenodd"/>
          <path id="Path_10775" data-name="Path 10775" d="M1140.449-15.6V969.977h-12.566c7.546,24.458,15.617,45.559,24.121,62.848,17.007,34.577,35.739,53.913,55.439,54.353,78.8,1.78,143.242-299.318,143.935-672.519.3-163.132-11.628-313.037-31.733-430.259Z" transform="translate(-1142.65 861.819)" fill="#9f3ab4" fill-rule="evenodd"/>
          <path id="Path_10776" data-name="Path 10776" d="M1140.178-15.6V964.214h-11.733c7.468,24.21,15.457,45.094,23.873,62.206,16.83,34.22,35.371,53.355,54.868,53.795,77.987,1.759,141.765-296.235,142.45-665.587.3-163.515-11.816-313.57-32.178-430.228Z" transform="translate(-1142.379 861.819)" fill="#a03ab4" fill-rule="evenodd"/>
          <path id="Path_10777" data-name="Path 10777" d="M1139.906-15.6V958.456h-10.9c7.39,23.956,15.3,44.623,23.623,61.554,16.656,33.868,35,52.8,54.3,53.236,77.176,1.743,140.289-293.147,140.967-658.65.3-163.9-12-314.134-32.626-430.2Z" transform="translate(-1142.107 861.819)" fill="#a13ab5" fill-rule="evenodd"/>
          <path id="Path_10778" data-name="Path 10778" d="M1139.635-15.6V952.7h-10.066c7.312,23.7,15.134,44.152,23.374,60.908,16.48,33.511,34.634,52.243,53.725,52.677,76.363,1.723,138.812-290.064,139.482-651.723.306-164.286-12.193-314.724-33.08-430.161Z" transform="translate(-1141.836 861.819)" fill="#a23bb5" fill-rule="evenodd"/>
          <path id="Path_10779" data-name="Path 10779" d="M1139.364-15.6V946.941h-9.234c7.235,23.449,14.974,43.681,23.126,60.261,16.306,33.154,34.266,51.684,53.154,52.113,75.55,1.7,137.335-286.976,138-644.786.307-164.715-12.4-315.334-33.566-430.13Z" transform="translate(-1141.565 861.819)" fill="#a33bb5" fill-rule="evenodd"/>
          <path id="Path_10780" data-name="Path 10780" d="M1139.093-15.6V941.184h-8.4c7.156,23.2,14.812,43.211,22.877,59.609,16.13,32.8,33.9,51.136,52.581,51.555,74.739,1.686,135.859-283.887,136.516-637.854.305-165.14-12.607-315.976-34.056-430.094Z" transform="translate(-1141.293 861.819)" fill="#a43bb6" fill-rule="evenodd"/>
          <path id="Path_10781" data-name="Path 10781" d="M1138.821-15.6V935.426h-7.567c7.079,22.947,14.652,42.74,22.628,58.962,15.956,32.44,33.529,50.577,52.01,51,73.926,1.666,134.382-280.809,135.031-630.922.307-165.6-12.826-316.648-34.57-430.063Z" transform="translate(-1141.022 861.819)" fill="#a53cb6" fill-rule="evenodd"/>
          <path id="Path_10782" data-name="Path 10782" d="M1138.549-15.6V929.669h-6.733c7,22.694,14.49,42.274,22.379,58.316,15.78,32.084,33.161,50.018,51.439,50.432,73.114,1.65,132.9-277.721,133.547-623.99.309-166.071-13.051-317.347-35.1-430.026Z" transform="translate(-1140.75 861.819)" fill="#a63cb6" fill-rule="evenodd"/>
          <path id="Path_10783" data-name="Path 10783" d="M1138.278-15.6V923.911h-5.9c6.923,22.441,14.33,41.8,22.131,57.664,15.6,31.727,32.792,49.465,50.868,49.874,72.3,1.635,131.427-274.633,132.062-617.053.31-166.567-13.281-318.092-35.642-430Z" transform="translate(-1140.479 861.819)" fill="#a73db6" fill-rule="evenodd"/>
          <path id="Path_10784" data-name="Path 10784" d="M1138.007-15.6V918.153h-5.068c6.846,22.187,14.168,41.333,21.882,57.017,15.429,31.37,32.424,48.911,50.3,49.315,71.49,1.609,129.952-271.549,130.58-610.121.31-167.1-13.532-318.867-36.219-429.964Z" transform="translate(-1140.207 861.819)" fill="#a83db7" fill-rule="evenodd"/>
          <path id="Path_10785" data-name="Path 10785" d="M1137.735-15.6v928H1133.5c6.767,21.934,14.007,40.862,21.634,56.371,15.252,31.013,32.055,48.353,49.723,48.751,70.677,1.593,128.474-268.461,129.1-603.189.31-167.628-13.778-319.685-36.8-429.928Z" transform="translate(-1139.936 861.819)" fill="#a93db7" fill-rule="evenodd"/>
          <path id="Path_10786" data-name="Path 10786" d="M1137.464-15.6V906.638h-3.4c6.69,21.685,13.846,40.391,21.387,55.719,15.077,30.661,31.685,47.8,49.152,48.192,69.864,1.578,127-265.373,127.611-596.252.311-168.218-14.051-320.549-37.422-429.9Z" transform="translate(-1139.665 861.819)" fill="#aa3eb7" fill-rule="evenodd"/>
          <path id="Path_10787" data-name="Path 10787" d="M1137.193-15.6V900.875h-2.569c6.612,21.437,13.686,39.926,21.137,55.078,14.9,30.3,31.318,47.24,48.58,47.633,69.053,1.557,125.521-262.29,126.128-589.325.313-168.807-14.321-321.454-38.051-429.861Z" transform="translate(-1139.393 861.819)" fill="#ab3eb8" fill-rule="evenodd"/>
          <path id="Path_10788" data-name="Path 10788" d="M1136.921-15.6V895.123h-1.735c6.535,21.178,13.525,39.45,20.888,54.426,14.727,29.942,30.948,46.682,48.009,47.07,68.24,1.536,124.044-259.207,124.643-582.388.314-169.464-14.618-322.416-38.727-429.83Z" transform="translate(-1139.122 861.819)" fill="#ac3eb8" fill-rule="evenodd"/>
          <path id="Path_10789" data-name="Path 10789" d="M1136.65-15.6V889.36h-.9c6.456,20.93,13.363,38.984,20.639,53.779,14.552,29.59,30.581,46.133,47.438,46.511,67.427,1.521,122.567-256.118,123.16-575.456.315-170.127-14.917-323.43-39.414-429.794Z" transform="translate(-1138.85 861.819)" fill="#ad3fb8" fill-rule="evenodd"/>
          <path id="Path_10790" data-name="Path 10790" d="M1136.379-15.6V883.6h-.07c6.379,20.677,13.2,38.519,20.391,53.132,14.376,29.233,30.213,45.575,46.867,45.947,66.615,1.505,121.09-253.03,121.676-568.519C1325.559,243.312,1310,89.651,1285.1-15.6Z" transform="translate(-1138.579 861.819)" fill="#ae3fb9" fill-rule="evenodd"/>
          <path id="Path_10791" data-name="Path 10791" d="M1132.058-15.6q-3.088,12.594-5.992,26.134h15.261V845.156h-8.348q4.383,17.343,9.112,32.689c6.3,20.423,13.041,38.048,20.142,52.481,14.2,28.881,29.844,45.021,46.294,45.393,65.8,1.485,119.614-249.947,120.193-561.588.319-171.606-15.576-325.665-40.906-429.731Z" transform="translate(-1143.528 861.819)" fill="#af40b9" fill-rule="evenodd"/>
          <path id="Path_10792" data-name="Path 10792" d="M1134-15.6q-3.751,14.852-7.236,31.085h14.231V839.8h-7.4q4.327,17.133,9,32.285c6.223,20.17,12.881,37.577,19.893,51.834,14.026,28.519,29.476,44.462,45.724,44.83,64.99,1.469,118.137-246.858,118.708-554.656.321-172.4-15.926-326.881-41.7-429.7Z" transform="translate(-1143.192 861.819)" fill="#b040b9" fill-rule="evenodd"/>
          <path id="Path_10793" data-name="Path 10793" d="M1136.43-15.6q-4.434,17.04-8.5,36.036h13.2v778.3h-14.643c20.844,100.068,49.781,162.325,81.87,163.05,64.178,1.448,116.66-243.775,117.225-547.724.32-173.272-16.306-328.189-42.545-429.664Z" transform="translate(-1143.327 861.819)" fill="#b140b9" fill-rule="evenodd"/>
          <path id="Path_10794" data-name="Path 10794" d="M1138.448-15.6q-5.157,19.182-9.833,40.986h12.169V793.839H1127.19c20.581,98.8,49.151,160.267,80.833,160.98,63.365,1.428,115.184-240.692,115.742-540.792.323-174.172-16.7-329.581-43.42-429.628Z" transform="translate(-1142.985 861.819)" fill="#b241ba" fill-rule="evenodd"/>
          <path id="Path_10795" data-name="Path 10795" d="M1140.512-15.6q-5.913,21.254-11.206,45.932h11.137v758.6H1127.9c20.316,97.533,48.521,158.213,79.8,158.916,62.552,1.412,113.708-237.6,114.257-533.855.325-175.15-17.115-331.081-44.352-429.6Z" transform="translate(-1142.643 861.819)" fill="#b341ba" fill-rule="evenodd"/>
          <path id="Path_10796" data-name="Path 10796" d="M1142.621-15.6c-4.469,15.493-8.692,32.5-12.626,50.882H1140.1V784.031h-11.5c20.053,96.265,47.89,156.159,78.761,156.858,61.74,1.392,112.23-234.521,112.772-526.923.328-176.21-17.564-332.7-45.342-429.566Z" transform="translate(-1142.301 861.819)" fill="#b441ba" fill-rule="evenodd"/>
          <path id="Path_10797" data-name="Path 10797" d="M1271.938-15.6H1144.791c-5.023,16.761-9.744,35.441-14.107,55.833h9.075V779.127h-10.446c19.788,95,47.26,154.105,77.725,154.793,60.927,1.376,110.754-231.432,111.288-519.991C1318.655,236.592,1300.286,79.5,1271.938-15.6Z" transform="translate(-1141.959 861.819)" fill="#b542bb" fill-rule="evenodd"/>
          <path id="Path_10798" data-name="Path 10798" d="M1269.017-15.6H1147.042c-5.614,17.966-10.861,38.317-15.669,60.783h8.044V774.228h-9.4c19.525,93.731,46.631,152.047,76.688,152.724,60.115,1.355,109.278-228.344,109.806-513.054C1316.845,235.345,1297.968,77.572,1269.017-15.6Z" transform="translate(-1141.618 861.819)" fill="#b642bb" fill-rule="evenodd"/>
          <path id="Path_10799" data-name="Path 10799" d="M1266.019-15.6H1149.367a655.583,655.583,0,0,0-17.305,65.734h7.014v719.19h-8.347c19.26,92.469,46,149.993,75.651,150.665,59.3,1.335,107.8-225.261,108.322-506.127C1315.035,233.99,1295.609,75.482,1266.019-15.6Z" transform="translate(-1141.276 861.819)" fill="#b743bb" fill-rule="evenodd"/>
          <path id="Path_10800" data-name="Path 10800" d="M1262.922-15.6H1151.776c-6.9,20.128-13.285,43.857-19.026,70.68h5.983V764.42h-7.3c19,91.2,45.37,147.939,74.616,148.6,58.49,1.319,106.323-222.178,106.837-499.19C1313.225,232.5,1293.2,73.2,1262.922-15.6Z" transform="translate(-1140.934 861.819)" fill="#b843bc" fill-rule="evenodd"/>
          <path id="Path_10801" data-name="Path 10801" d="M1259.725-15.6H1154.288c-7.607,21.06-14.612,46.5-20.848,75.63h4.952V759.521h-6.249c18.734,89.934,44.739,145.885,73.578,146.532,57.679,1.3,104.848-219.089,105.354-492.253C1311.415,230.871,1290.741,70.676,1259.725-15.6Z" transform="translate(-1140.592 861.819)" fill="#b943bc" fill-rule="evenodd"/>
          <path id="Path_10802" data-name="Path 10802" d="M1256.411-15.6H1156.92c-8.368,21.856-16.036,49.02-22.79,80.581h3.92V754.617h-5.2c18.469,88.666,44.11,143.827,72.543,144.468,56.866,1.288,103.371-216,103.869-485.321C1309.606,229.075,1288.222,67.883,1256.411-15.6Z" transform="translate(-1140.25 861.819)" fill="#ba44bc" fill-rule="evenodd"/>
          <path id="Path_10803" data-name="Path 10803" d="M1252.959-15.6h-93.265c-9.19,22.5-17.574,51.415-24.875,85.531h2.889V749.713h-4.15c18.205,87.4,43.479,141.778,71.506,142.409,56.053,1.262,101.894-212.918,102.386-478.389C1307.8,227.079,1285.633,64.769,1252.959-15.6Z" transform="translate(-1139.908 861.819)" fill="#bb44bc" fill-rule="evenodd"/>
          <path id="Path_10804" data-name="Path 10804" d="M1249.316-15.6h-86.678c-10.087,22.958-19.247,53.645-27.129,90.477h1.858V744.814h-3.1c17.941,86.131,42.849,139.719,70.469,140.34,55.242,1.247,100.418-209.83,100.9-471.457C1305.987,224.808,1282.944,61.23,1249.316-15.6Z" transform="translate(-1139.567 861.819)" fill="#bc45bd" fill-rule="evenodd"/>
          <path id="Path_10805" data-name="Path 10805" d="M1245.459-15.6H1165.8c-11.076,23.165-21.1,55.667-29.6,95.427h.827V739.91h-2.052c17.679,84.869,42.22,137.666,69.434,138.281,54.429,1.226,98.941-206.747,99.419-464.525C1304.181,222.226,1280.145,57.185,1245.459-15.6Z" transform="translate(-1139.225 861.819)" fill="#bd45bd" fill-rule="evenodd"/>
          <path id="Path_10806" data-name="Path 10806" d="M1244.854-15.6h-72.084c-12.188,23.051-23.177,57.405-32.374,100.378-4.43,20.7-8.447,43.4-11.981,67.777h11.777v582.45h-1c17.413,83.6,41.588,135.612,68.4,136.217,53.616,1.211,97.464-203.663,97.934-457.593C1305.881,219.257,1280.723,52.483,1244.854-15.6Z" transform="translate(-1142.393 861.819)" fill="#be45bd" fill-rule="evenodd"/>
          <path id="Path_10807" data-name="Path 10807" d="M1240.572-15.6h-63.721C1163.4,6.887,1151.3,43.181,1141.338,89.729c-4.363,20.387-8.318,42.74-11.8,66.753H1140.1V662.826h-11.5c3.392,24.169,7.263,46.7,11.551,67.276,17.151,82.335,40.959,133.558,67.362,134.153,52.8,1.195,95.987-200.575,96.451-450.656C1304.329,215.662,1277.822,46.813,1240.572-15.6Z" transform="translate(-1142.304 861.819)" fill="#bf46be" fill-rule="evenodd"/>
          <path id="Path_10808" data-name="Path 10808" d="M1235.371-15.6h-54.165c-14.963,21.251-28.386,59.578-39.238,110.274-4.3,20.077-8.19,42.083-11.617,65.729h9.353V658.957h-10.277c3.339,23.8,7.15,45.978,11.372,66.246,16.885,81.067,40.329,131.5,66.324,132.089,51.992,1.169,94.511-197.492,94.967-443.725C1302.466,211.146,1274.292,39.695,1235.371-15.6Z" transform="translate(-1141.904 861.819)" fill="#c046be" fill-rule="evenodd"/>
          <path id="Path_10809" data-name="Path 10809" d="M1229.265-15.6h-42.723c-16.866,18.851-31.991,59.387-43.941,115.225-4.23,19.761-8.062,41.426-11.436,64.7h8.139V655.093h-9.05c3.286,23.424,7.039,45.259,11.195,65.206,16.623,79.8,39.7,129.445,65.289,130.025,51.18,1.154,93.034-194.4,93.483-436.793C1300.607,205.233,1270.28,30.264,1229.265-15.6Z" transform="translate(-1141.505 861.819)" fill="#c146be" fill-rule="evenodd"/>
          <path id="Path_10810" data-name="Path 10810" d="M1221.169-15.6H1193.8c-19.546,13.957-37.1,57.25-50.566,120.175-4.163,19.446-7.935,40.769-11.255,63.67h6.927V651.223h-7.823c3.234,23.051,6.927,44.54,11.018,64.172,16.359,78.537,39.069,127.392,64.252,127.961,50.367,1.138,91.556-191.315,92-429.856C1298.753,196.237,1265.211,15.744,1221.169-15.6Z" transform="translate(-1141.105 861.819)" fill="#c247bf" fill-rule="evenodd"/>
          <path id="Path_10811" data-name="Path 10811" d="M1299.131,411.782c-.436,234.7-40.961,424.046-90.517,422.929-24.777-.559-47.12-48.632-63.215-125.9-8.047-38.638-14.532-84.569-18.978-135.513h14.735V242.483h-14.121c4.633-50.737,11.29-96.374,19.48-134.639,16.379-76.535,38.9-123.595,63.677-123.036C1259.747-14.069,1299.566,177.091,1299.131,411.782Z" transform="translate(-1143.356 863.501)" fill="#c347bf" fill-rule="evenodd"/>
          <path id="Path_10812" data-name="Path 10812" d="M1297.217,406.13c-.429,230.843-40.289,417.094-89.032,415.992-24.371-.548-46.348-47.83-62.179-123.833-7.915-38-14.294-83.178-18.668-133.289h13.375V239.6h-12.771c4.559-49.9,11.1-94.791,19.161-132.43,16.111-75.284,38.262-121.567,62.634-121.019C1258.478-12.743,1297.644,175.282,1297.217,406.13Z" transform="translate(-1142.913 869.122)" fill="#c448bf" fill-rule="evenodd"/>
          <path id="Path_10813" data-name="Path 10813" d="M1295.3,400.478c-.421,226.994-39.617,410.136-87.547,409.055-23.966-.538-45.576-47.034-61.144-121.769-7.783-37.365-14.055-81.791-18.357-131.065h12.015V236.724h-11.421c4.483-49.072,10.92-93.213,18.842-130.227,15.843-74.021,37.624-119.539,61.59-119C1257.21-11.417,1295.724,173.479,1295.3,400.478Z" transform="translate(-1142.47 874.743)" fill="#c548bf" fill-rule="evenodd"/>
          <path id="Path_10814" data-name="Path 10814" d="M1293.388,394.824c-.414,223.15-38.945,403.188-86.063,402.128-23.559-.533-44.8-46.242-60.107-119.7-7.653-36.734-13.818-80.41-18.047-128.845h10.655V233.849h-10.07c4.406-48.239,10.735-91.63,18.521-128.018,15.574-72.769,36.988-117.511,60.546-116.984C1255.941-10.087,1293.8,171.674,1293.388,394.824Z" transform="translate(-1142.027 880.361)" fill="#c648c0" fill-rule="evenodd"/>
          <path id="Path_10815" data-name="Path 10815" d="M1291.473,389.172c-.406,219.3-38.273,396.236-84.58,395.191-23.151-.523-44.031-45.44-59.07-117.641-7.519-36.1-13.579-79.024-17.734-126.626h9.293V230.975h-8.721c4.331-47.411,10.549-90.058,18.2-125.814,15.306-71.518,36.35-115.489,59.5-114.966C1254.673-8.76,1291.881,169.865,1291.473,389.172Z" transform="translate(-1141.584 885.982)" fill="#c749c0" fill-rule="evenodd"/>
          <path id="Path_11191" data-name="Path 11191" d="M391.51.379C606.964-.616,781.03,35.462,780.3,80.961s-175.986,83.189-391.44,84.184S-.663,130.061.069,84.563,176.056,1.374,391.51.379Z" transform="translate(-19.238 1662.9) rotate(-89.629)" fill="#c849c0"/>
          <path id="Path_11192" data-name="Path 11192" d="M384.518.372C596.124-.6,767.083,34.83,766.364,79.516s-172.843,81.7-384.45,82.679S-.651,127.737.068,83.051,172.911,1.348,384.518.372Z" transform="translate(-17.714 1655.942) rotate(-89.629)" fill="#c949c1"/>
          <path id="Path_11193" data-name="Path 11193" d="M377.526.365c207.759-.959,375.609,33.831,374.9,77.7s-169.7,80.218-377.46,81.176S-.64,125.416.067,81.542,169.767,1.324,377.526.365Z" transform="matrix(0.006, -1, 1, 0.006, -16.192, 1648.984)" fill="#ca4ac1"/>
          <path id="Path_11194" data-name="Path 11194" d="M370.536.359c203.912-.941,368.653,33.2,367.96,76.265S571.937,155.356,368.025,156.3-.628,123.094.065,80.032,166.624,1.3,370.536.359Z" transform="translate(-14.669 1642.026) rotate(-89.629)" fill="#cb4ac1"/>
          <path id="Path_11195" data-name="Path 11195" d="M363.545.352c200.065-.923,361.7,32.578,361.018,74.826s-163.416,77.247-363.48,78.17S-.616,120.771.064,78.522,163.48,1.275,363.545.352Z" transform="matrix(0.006, -1, 1, 0.006, -13.146, 1635.069)" fill="#cc4bc2"/>
          <path id="Path_11196" data-name="Path 11196" d="M356.553.345C552.77-.56,711.294,32.3,710.627,73.732S550.355,149.493,354.138,150.4-.6,118.448.063,77.012,160.336,1.251,356.553.345Z" transform="translate(-11.622 1628.11) rotate(-89.629)" fill="#cd4bc2"/>
          <path id="Path_11197" data-name="Path 11197" d="M349.561.338C541.93-.549,697.347,31.664,696.694,72.287s-157.13,74.275-349.5,75.162S-.592,116.124.062,75.5,157.191,1.225,349.561.338Z" transform="translate(-10.098 1621.153) rotate(-89.63)" fill="#ce4bc2"/>
          <path id="Path_11198" data-name="Path 11198" d="M342.571.332C531.093-.539,683.4,31.029,682.76,70.84s-153.988,72.79-342.51,73.661S-.581,113.8.06,73.993,154.049,1.2,342.571.332Z" transform="translate(-8.578 1614.195) rotate(-89.629)" fill="#cf4cc3"/>
          <path id="Path_11199" data-name="Path 11199" d="M335.579.325C520.254-.527,669.454,30.4,668.826,69.4s-150.845,71.3-335.52,72.156S-.568,111.48.059,72.481,150.9,1.177,335.579.325Z" transform="translate(-7.053 1607.237) rotate(-89.629)" fill="#d04cc3"/>
          <path id="Path_11200" data-name="Path 11200" d="M328.588.318c180.827-.835,326.918,29.445,326.3,67.631s-147.7,69.819-328.53,70.654S-.557,109.159.058,70.972,147.761,1.153,328.588.318Z" transform="matrix(0.006, -1, 1, 0.006, -5.532, 1600.279)" fill="#d14dc3"/>
          <path id="Path_11201" data-name="Path 11201" d="M321.6.311C498.576-.506,641.559,29.13,640.958,66.5s-144.56,68.334-321.54,69.15S-.545,106.836.057,69.462,144.617,1.128,321.6.311Z" transform="matrix(0.006, -1, 1, 0.006, -4.008, 1593.321)" fill="#d24dc3"/>
          <path id="Path_11202" data-name="Path 11202" d="M314.605.3C487.738-.494,627.613,28.5,627.024,65.059s-141.417,66.848-314.549,67.647S-.533,104.512.055,67.951,141.472,1.1,314.605.3Z" transform="matrix(0.006, -1, 1, 0.006, -2.484, 1586.364)" fill="#d34dc4"/>
          <path id="Path_11203" data-name="Path 11203" d="M307.615.3C476.9-.484,613.667,27.863,613.092,63.612s-138.275,65.363-307.561,66.145S-.521,102.191.054,66.442,138.33,1.08,307.615.3Z" transform="translate(-0.963 1579.406) rotate(-89.629)" fill="#d44ec4"/>
          <path id="Path_11204" data-name="Path 11204" d="M300.623.291c165.438-.764,299.1,26.939,298.534,61.876s-135.132,63.877-300.57,64.64S-.509,99.868.053,64.931,135.185,1.054,300.623.291Z" transform="translate(0.561 1572.448) rotate(-89.629)" fill="#d54ec4"/>
          <path id="Path_11205" data-name="Path 11205" d="M293.632.284C455.223-.462,585.772,26.6,585.223,60.72s-131.99,62.392-293.581,63.138S-.5,97.547.052,63.423,132.042,1.031,293.632.284Z" transform="translate(2.082 1565.49) rotate(-89.629)" fill="#d64ec5"/>
          <path id="Path_10816" data-name="Path 10816" d="M1262.327,298.721c-.292,157.742-27.531,285.015-60.838,284.26S1141.418,453.743,1141.71,296s27.531-285.015,60.838-284.26S1262.619,140.979,1262.327,298.721Z" transform="translate(-1135.971 975.9)" fill="#d74fc5" fill-rule="evenodd"/>
          <path id="Path_11206" data-name="Path 11206" d="M279.65.271C433.546-.44,557.879,25.33,557.356,57.829s-125.7,59.421-279.6,60.131S-.474,92.9.049,60.4,125.754.981,279.65.271Z" transform="translate(5.128 1551.574) rotate(-89.629)" fill="#d84fc5"/>
          <path id="Path_11207" data-name="Path 11207" d="M272.659.264C422.707-.429,543.931,24.7,543.421,56.383s-122.562,57.935-272.61,58.628S-.462,90.579.048,58.892,122.61.957,272.659.264Z" transform="matrix(0.006, -1, 1, 0.006, 6.651, 1544.616)" fill="#d950c6"/>
          <path id="Path_11208" data-name="Path 11208" d="M265.667.257c146.2-.675,264.317,23.807,263.82,54.681s-119.419,56.449-265.62,57.124S-.45,88.255.047,57.381,119.466.932,265.667.257Z" transform="translate(8.176 1537.658) rotate(-89.629)" fill="#da50c6"/>
          <path id="Path_11209" data-name="Path 11209" d="M258.675.25C401.029-.406,516.037,23.431,515.554,53.493s-116.276,54.964-258.63,55.62S-.438,85.932.046,55.87,116.321.907,258.675.25Z" transform="matrix(0.006, -1, 1, 0.006, 9.7, 1530.701)" fill="#db50c6"/>
          <path id="Path_11210" data-name="Path 11210" d="M251.685.244C390.191-.4,502.091,22.8,501.62,52.046s-113.134,53.479-251.64,54.118S-.427,83.611.044,54.362,113.179.883,251.685.244Z" transform="matrix(0.006, -1, 1, 0.006, 11.221, 1523.743)" fill="#dc51c6"/>
          <path id="Path_11211" data-name="Path 11211" d="M244.692.237C379.351-.384,488.143,22.165,487.685,50.6s-109.991,51.992-244.649,52.613S-.414,81.287.043,52.85,110.034.858,244.692.237Z" transform="translate(12.746 1516.785) rotate(-89.63)" fill="#dd51c7"/>
          <path id="Path_11212" data-name="Path 11212" d="M237.7.23c130.811-.6,236.495,21.3,236.05,48.926S366.9,99.663,236.092,100.266-.4,78.964.042,51.34,106.89.833,237.7.23Z" transform="translate(14.268 1509.827) rotate(-89.63)" fill="#de51c7"/>
          <path id="Path_11213" data-name="Path 11213" d="M230.711.223C357.675-.363,460.25,20.9,459.818,47.709S356.112,96.731,229.148,97.317-.391,76.643.041,49.831,103.747.809,230.711.223Z" transform="translate(15.79 1502.87) rotate(-89.629)" fill="#df52c7"/>
          <path id="Path_10817" data-name="Path 10817" d="M1244.776,247.843c-.229,123.119-21.488,222.452-47.484,221.862s-46.885-100.87-46.656-223.983S1172.123,23.27,1198.12,23.86,1245,124.73,1244.776,247.843Z" transform="translate(-1131.658 1026.478)" fill="#e052c8" fill-rule="evenodd"/>
          <path id="Path_11214" data-name="Path 11214" d="M216.728.21C336-.341,432.355,19.631,431.95,44.818s-97.42,46.051-216.689,46.6S-.367,72,.038,46.811,97.459.76,216.728.21Z" transform="translate(18.837 1488.953) rotate(-89.629)" fill="#e153c8"/>
          <path id="Path_11215" data-name="Path 11215" d="M209.737.2C325.159-.33,418.409,19,418.016,43.372s-94.278,44.565-209.7,45.1S-.355,69.675.037,45.3,94.315.736,209.737.2Z" transform="translate(20.359 1481.996) rotate(-89.629)" fill="#e253c8"/>
          <path id="Path_11216" data-name="Path 11216" d="M202.746.2c111.574-.515,201.716,18.168,201.337,41.73s-91.136,43.08-202.71,43.6S-.344,67.353.036,43.791,91.172.711,202.746.2Z" transform="matrix(0.006, -1, 1, 0.006, 21.881, 1475.039)" fill="#e353c9"/>
          <path id="Path_11217" data-name="Path 11217" d="M195.755.189c107.727-.5,194.761,17.542,194.394,40.291s-87.993,41.594-195.72,42.091S-.332,65.03.035,42.281,88.028.687,195.755.189Z" transform="translate(23.405 1468.081) rotate(-89.629)" fill="#e454c9"/>
          <path id="Path_11218" data-name="Path 11218" d="M188.762.182C292.642-.3,376.567,17.1,376.214,39.035s-84.85,40.108-188.729,40.587S-.319,62.707.033,40.77,84.883.661,188.762.182Z" transform="translate(24.929 1461.122) rotate(-89.63)" fill="#e554c9"/>
          <path id="Path_11219" data-name="Path 11219" d="M181.772.176C281.8-.286,362.62,16.465,362.28,37.589s-81.707,38.623-181.74,39.085S-.308,60.385.032,39.261,81.739.637,181.772.176Z" transform="translate(26.451 1454.165) rotate(-89.629)" fill="#e654c9"/>
          <path id="Path_11220" data-name="Path 11220" d="M174.78.169c96.185-.443,173.893,15.663,173.567,35.975S269.783,73.281,173.6,73.725-.3,58.061.031,37.75,78.6.612,174.78.169Z" transform="matrix(0.006, -1, 1, 0.006, 27.975, 1447.207)" fill="#e755ca"/>
          <path id="Path_11221" data-name="Path 11221" d="M167.79.162C260.128-.264,334.728,15.2,334.414,34.7S258.991,70.35,166.653,70.776-.284,55.741.03,36.241,75.453.589,167.79.162Z" transform="matrix(0.006, -1, 1, 0.006, 29.496, 1440.249)" fill="#e855ca"/>
          <path id="Path_10818" data-name="Path 10818" d="M1227.225,196.97c-.165,88.49-15.444,159.884-34.128,159.46s-33.7-72.5-33.535-160.991,15.443-159.884,34.128-159.46S1227.388,108.475,1227.225,196.97Z" transform="translate(-1127.346 1077.056)" fill="#e956ca" fill-rule="evenodd"/>
          <path id="Path_11222" data-name="Path 11222" d="M153.807.149C238.45-.242,306.833,13.932,306.545,31.806s-69.137,32.681-153.78,33.072S-.261,51.1.027,33.221,69.165.54,153.807.149Z" transform="translate(32.542 1426.333) rotate(-89.629)" fill="#ea56cb"/>
          <path id="Path_11223" data-name="Path 11223" d="M146.816.142c80.8-.373,146.07,13.156,145.8,30.218s-65.995,31.2-146.79,31.569S-.249,48.773.026,31.711,66.021.515,146.816.142Z" transform="translate(34.065 1419.375) rotate(-89.629)" fill="#eb56cb"/>
          <path id="Path_11224" data-name="Path 11224" d="M139.825.135c76.948-.355,139.115,12.53,138.854,28.78s-62.852,29.71-139.8,30.065S-.237,46.45.025,30.2,62.877.49,139.825.135Z" transform="matrix(0.006, -1, 1, 0.006, 35.589, 1412.418)" fill="#ec57cb"/>
          <path id="Path_11225" data-name="Path 11225" d="M132.833.129c73.1-.338,132.158,11.9,131.91,27.34s-59.71,28.225-132.81,28.562S-.225,44.128.023,28.691,59.733.466,132.833.129Z" transform="translate(37.111 1405.459) rotate(-89.629)" fill="#ed57cc"/>
          <path id="Path_10819" data-name="Path 10819" d="M1217.474,168.7c-.129,69.257-12.086,125.131-26.71,124.8s-26.373-56.738-26.244-126,12.086-125.126,26.71-124.795S1217.6,99.45,1217.474,168.7Z" transform="translate(-1124.95 1105.153)" fill="#ee58cc" fill-rule="evenodd"/>
          <path id="Path_10820" data-name="Path 10820" d="M1215.523,163.05c-.121,65.408-11.416,118.179-25.225,117.863s-24.908-53.583-24.786-118.991,11.414-118.179,25.225-117.863S1215.645,97.642,1215.523,163.05Z" transform="translate(-1124.471 1110.775)" fill="#ef58cc" fill-rule="evenodd"/>
          <path id="Path_10821" data-name="Path 10821" d="M1213.573,157.4c-.114,61.559-10.744,111.221-23.74,110.931s-23.444-50.437-23.33-112,10.744-111.221,23.742-110.931S1213.687,95.842,1213.573,157.4Z" transform="translate(-1123.992 1116.392)" fill="#f058cc" fill-rule="evenodd"/>
          <path id="Path_11226" data-name="Path 11226" d="M104.869.1C162.579-.165,209.2,9.5,209.008,21.686s-47.139,22.283-104.85,22.549S-.178,34.838.018,22.651,47.158.368,104.869.1Z" transform="translate(43.202 1377.628) rotate(-89.629)" fill="#f159cd"/>
          <path id="Path_10822" data-name="Path 10822" d="M1209.674,146.092c-.1,53.862-9.4,97.321-20.774,97.062s-20.511-44.126-20.412-97.993,9.4-97.321,20.774-97.062S1209.773,92.225,1209.674,146.092Z" transform="translate(-1123.033 1127.634)" fill="#f259cd" fill-rule="evenodd"/>
          <path id="Path_10823" data-name="Path 10823" d="M1207.723,140.439c-.094,50.018-8.73,90.373-19.29,90.135s-19.048-40.981-18.954-90.994,8.728-90.373,19.29-90.135S1207.817,90.426,1207.723,140.439Z" transform="translate(-1122.554 1133.251)" fill="#f359cd" fill-rule="evenodd"/>
          <path id="Path_10824" data-name="Path 10824" d="M1205.773,134.787c-.085,46.17-8.058,83.416-17.807,83.2s-17.581-37.825-17.495-83.995,8.058-83.416,17.805-83.2S1205.859,88.617,1205.773,134.787Z" transform="translate(-1122.075 1138.872)" fill="#f45ace" fill-rule="evenodd"/>
          <path id="Path_10825" data-name="Path 10825" d="M1203.824,129.135c-.079,42.321-7.387,76.463-16.323,76.261s-16.117-34.67-16.038-77,7.387-76.463,16.323-76.261S1203.9,86.809,1203.824,129.135Z" transform="translate(-1121.596 1144.494)" fill="#f55ace" fill-rule="evenodd"/>
          <path id="Path_10826" data-name="Path 10826" d="M1201.874,123.481c-.071,38.477-6.716,69.516-14.839,69.335s-14.652-31.525-14.581-70,6.716-69.516,14.839-69.335S1201.945,85.009,1201.874,123.481Z" transform="translate(-1121.117 1150.11)" fill="#f65bce" fill-rule="evenodd"/>
          <path id="Path_10827" data-name="Path 10827" d="M1199.923,117.829c-.064,34.623-6.044,62.563-13.354,62.4s-13.187-28.369-13.123-63,6.044-62.563,13.354-62.4S1199.987,83.2,1199.923,117.829Z" transform="translate(-1120.638 1155.732)" fill="#f75bcf" fill-rule="evenodd"/>
          <path id="Path_10828" data-name="Path 10828" d="M1197.973,112.172c-.057,30.78-5.372,55.616-11.871,55.466s-11.721-25.213-11.663-55.993,5.372-55.616,11.871-55.466S1198.03,81.392,1197.973,112.172Z" transform="translate(-1120.158 1161.353)" fill="#f85bcf" fill-rule="evenodd"/>
          <path id="Path_10829" data-name="Path 10829" d="M1196.022,106.524c-.049,26.931-4.7,48.658-10.386,48.534s-10.256-22.068-10.207-49,4.7-48.663,10.388-48.534S1196.073,79.593,1196.022,106.524Z" transform="translate(-1119.68 1166.97)" fill="#f95ccf" fill-rule="evenodd"/>
          <path id="Path_10830" data-name="Path 10830" d="M1194.073,100.866c-.043,23.087-4.03,41.71-8.9,41.6s-8.792-18.913-8.749-42,4.03-41.705,8.9-41.6S1194.116,77.784,1194.073,100.866Z" transform="translate(-1119.2 1172.591)" fill="#fa5ccf" fill-rule="evenodd"/>
          <path id="Path_10831" data-name="Path 10831" d="M1192.123,95.214c-.036,19.239-3.358,34.758-7.42,34.665s-7.325-15.757-7.29-35,3.358-34.758,7.419-34.665S1192.158,75.976,1192.123,95.214Z" transform="translate(-1118.721 1178.212)" fill="#fb5cd0" fill-rule="evenodd"/>
          <path id="Path_10832" data-name="Path 10832" d="M1190.172,89.566c-.028,15.39-2.686,27.805-5.935,27.733s-5.86-12.612-5.832-28,2.686-27.805,5.935-27.733S1190.2,74.176,1190.172,89.566Z" transform="translate(-1118.242 1183.829)" fill="#fc5dd0" fill-rule="evenodd"/>
          <path id="Path_10833" data-name="Path 10833" d="M1188.222,83.909c-.021,11.541-2.014,20.858-4.451,20.8s-4.4-9.456-4.374-21,2.014-20.858,4.451-20.8S1188.244,72.368,1188.222,83.909Z" transform="translate(-1117.762 1189.45)" fill="#fd5dd0" fill-rule="evenodd"/>
          <path id="Path_10834" data-name="Path 10834" d="M1186.272,78.256c-.014,7.692-1.342,13.9-2.966,13.864s-2.931-6.3-2.917-14,1.344-13.9,2.968-13.864S1186.287,70.559,1186.272,78.256Z" transform="translate(-1117.284 1195.072)" fill="#fe5ed1" fill-rule="evenodd"/>
          <path id="Path_10835" data-name="Path 10835" d="M1184.323,72.6c-.007,3.849-.672,6.953-1.484,6.937s-1.465-3.156-1.458-7,.672-6.953,1.485-6.937S1184.33,68.76,1184.323,72.6Z" transform="translate(-1116.804 1200.689)" fill="#ff5ed1" fill-rule="evenodd"/>
        </g>
      </g>
    </g>
    <path id="Path_10837" data-name="Path 10837" d="M0-15.6V1922.612l518.84-67.693L505.12-15.6Z" transform="translate(10.593 682.637)" fill-rule="evenodd" fill="url(#radial-gradient-2)"/>
    <g id="Group_4494" data-name="Group 4494" transform="translate(10.593 2466.932)">
      <path id="Path_10838" data-name="Path 10838" d="M1931.268,621.805q0-111.94.1-223.9l-242.423-65.574L518.252,347.245,0,470.653V682.366H1931.268Z" transform="translate(0 -332.336)" fill-rule="evenodd" fill="url(#radial-gradient-3)"/>
      <path id="Path_10839" data-name="Path 10839" d="M1599.489,567.525,1344.141,359.856l-694.466,7.793L305.565,567.525h23.582l320.62-192.5,694.564-9.593,238.233,202.1Z" transform="translate(147.626 -217.495)" fill-rule="evenodd" opacity="0.4" fill="url(#linear-gradient-16)" style="mix-blend-mode: multiply;isolation: isolate"/>
      <path id="Path_10840" data-name="Path 10840" d="M573.633,458.814l74.073-72.908h355.143l40.2,72.908h-3.631l-36.708-64.594-354.073-1.6-66,66.193Z" transform="translate(277.137 -108.784)" fill-rule="evenodd" opacity="0.4" fill="url(#linear-gradient-16)" style="mix-blend-mode: multiply;isolation: isolate"/>
      <path id="Path_10841" data-name="Path 10841" d="M978.72,385.906l-1.884,8.306-352.331-1.591-.929-6.715Z" transform="translate(301.266 -108.784)" fill-rule="evenodd" fill="url(#linear-gradient-2)" style="mix-blend-mode: multiply;isolation: isolate"/>
      <path id="Path_10842" data-name="Path 10842" d="M537.582,367.648l.092,7.374,694.564-9.593.585-5.574Z" transform="translate(259.72 -217.495)" fill-rule="evenodd" fill="url(#linear-gradient-2)" style="mix-blend-mode: multiply;isolation: isolate"/>
      <path id="Path_10843" data-name="Path 10843" d="M1931.365,397.91l-242.423-65.574L518.252,347.245,0,470.653V682.366H157.67L345.428,634.4,777.476,468.176l596.43-44.4,433.186,112.933,124.184,46Q1931.291,490.319,1931.365,397.91Z" transform="translate(0 -332.336)" fill-rule="evenodd" fill="url(#linear-gradient-20)" style="mix-blend-mode: multiply;isolation: isolate"/>
    </g>
    <g id="Group_4517" data-name="Group 4517" transform="translate(10.593 2413.085)">
      <path id="Path_11097" data-name="Path 11097" d="M1931.442,351.993l-242.267-21.427L517.927,321.927,0,348.47V514.091L518.252,390.682l1170.69-14.909,242.423,65.574Q1931.4,396.667,1931.442,351.993Z" transform="translate(0 -321.927)" fill-rule="evenodd" fill="url(#linear-gradient-21)"/>
      <path id="Path_11098" data-name="Path 11098" d="M1931.418,364.647,1687.561,337.6v-8.954l-1168.72-3.2v18.23L0,371.5V499.385L518.252,375.976l1170.69-14.909,242.423,65.574Q1931.389,395.642,1931.418,364.647Z" transform="translate(0 -307.221)" fill-rule="evenodd" opacity="0.4" fill="url(#linear-gradient-22)" style="mix-blend-mode: multiply;isolation: isolate"/>
    </g>
    <path id="Path_11100" data-name="Path 11100" d="M1755.891-15.6H248.819l42.964,1751.478,17.628,42.023v42.405l88.629-21.1,801.933-129.093,407.626,124.7-1.68-28.06,19.8-22.643Z" transform="translate(233.894 682.637)" fill-rule="evenodd" fill="url(#linear-gradient-23)" style="mix-blend-mode: multiply;isolation: isolate"/>
    <ellipse id="Ellipse_535" data-name="Ellipse 535" cx="727.09" cy="954.411" rx="727.09" ry="954.411" transform="translate(372.623 1548.532)" opacity="0.5" fill="url(#radial-gradient-4)" style="mix-blend-mode: multiply;isolation: isolate"/>
    <g id="Group_4522" data-name="Group 4522" transform="translate(-21.926 667.037)">
      <path id="Path_11160" data-name="Path 11160" d="M33.875-15.6V935.177l28.054.959,5.227-15.042L51.3-15.6Z" transform="translate(48.885 15.6)" fill-rule="evenodd" fill="url(#linear-gradient-24)" style="mix-blend-mode: multiply;isolation: isolate"/>
      <path id="Path_11161" data-name="Path 11161" d="M48.893-15.6,44.811,921.094h24.3L73.426-15.6Z" transform="translate(54.168 15.6)" fill-rule="evenodd" fill="url(#radial-gradient-5)"/>
      <path id="Path_11162" data-name="Path 11162" d="M51.349-15.6,46.732,910.234H65.16L67.7-15.6Z" transform="translate(55.097 15.6)" fill="#ff36fd" fill-rule="evenodd"/>
      <path id="Path_11163" data-name="Path 11163" d="M51.348-15.6,46.732,910.234H60.943L63.617-15.6Z" transform="translate(55.097 15.6)" fill="#fff" fill-rule="evenodd"/>
      <path id="Path_11164" data-name="Path 11164" d="M40.821-15.6V921.094h5.918L50.821-15.6Z" transform="translate(52.241 15.6)" fill-rule="evenodd" fill="url(#linear-gradient-25)"/>
      <path id="Path_11165" data-name="Path 11165" d="M-18-15.6c-2.552,80.669-3.921,165.409-3.921,252.859,0,540.357,51.954,978.407,116.04,978.407s116.04-438.05,116.04-978.407c0-87.451-1.369-172.191-3.921-252.859Z" transform="translate(21.926 15.6)" fill-rule="evenodd" opacity="0.65" fill="url(#radial-gradient-6)" style="mix-blend-mode: screen;isolation: isolate"/>
      <path id="Path_11166" data-name="Path 11166" d="M12.24-15.6C8.209,61.794,5.968,147.315,5.968,237.259c0,347.718,33.43,629.6,74.669,629.6s74.67-281.88,74.67-629.6c0-89.944-2.241-175.465-6.272-252.859Z" transform="translate(35.402 15.6)" fill-rule="evenodd" opacity="0.65" fill="url(#radial-gradient-7)" style="mix-blend-mode: screen;isolation: isolate"/>
    </g>
    <g id="Group_4523" data-name="Group 4523" transform="translate(1650.52 667.037)">
      <path id="Path_11167" data-name="Path 11167" d="M1200.851-15.6,1170.3,948.783l3.569,16.507,20.69-4.641L1208.9-3.9l-1.68-11.7Z" transform="translate(-1074.523 15.6)" fill-rule="evenodd" fill="url(#linear-gradient-26)" style="mix-blend-mode: multiply;isolation: isolate"/>
      <path id="Path_11168" data-name="Path 11168" d="M1188.822-15.6,1178.7,948.107l4.362.788L1197.4-15.6Z" transform="translate(-1070.465 15.6)" fill-rule="evenodd" fill="url(#linear-gradient-27)"/>
      <path id="Path_11169" data-name="Path 11169" d="M1176.483-15.6l-9.876,969.627,17.939-5.92L1194.666-15.6Z" transform="translate(-1076.308 15.6)" fill-rule="evenodd" fill="url(#radial-gradient-8)"/>
      <path id="Path_11170" data-name="Path 11170" d="M1179.756-15.6l-11.548,959.573,13.584-4.252L1191.223-15.6Z" transform="translate(-1075.535 15.6)" fill="#ff36fd" fill-rule="evenodd"/>
      <path id="Path_11171" data-name="Path 11171" d="M1181.72-15.6,1170.3,943l10.475-3.279L1190.211-15.6Z" transform="translate(-1074.523 15.6)" fill="#fff" fill-rule="evenodd"/>
      <path id="Path_11172" data-name="Path 11172" d="M1166.607,176.613l6.779.456,15.522-5.587-4.362-.789Z" transform="translate(-1076.308 793.014)" fill="#633e6d" fill-rule="evenodd"/>
      <path id="Path_11173" data-name="Path 11173" d="M1133.457-15.6c-17.143,126.533-27.734,300.6-27.734,492.776,0,386.748,42.883,700.272,95.78,700.272s95.78-313.523,95.78-700.272c0-192.174-10.589-366.243-27.733-492.776Z" transform="translate(-1105.723 15.6)" fill-rule="evenodd" opacity="0.65" fill="url(#radial-gradient-9)" style="mix-blend-mode: screen;isolation: isolate"/>
    </g>
    <path id="Path_11187" data-name="Path 11187" d="M1284.36,232.286c.04.067.061.14.1.14.122.067.243.212.346.212a1.329,1.329,0,0,1-.366-.284C1284.4,232.353,1284.379,232.353,1284.36,232.286Z" transform="translate(631.102 1717.081)" fill="url(#linear-gradient-28)" style="mix-blend-mode: multiply;isolation: isolate"/>
    <ellipse id="Ellipse_536" data-name="Ellipse 536" cx="656.827" cy="800.32" rx="656.827" ry="800.32" transform="translate(-33.287 1548.532)" opacity="0.65" fill="url(#radial-gradient-10)" style="mix-blend-mode: screen;isolation: isolate"/>
    <path id="Path_11188" data-name="Path 11188" d="M1538.113-15.6H644.5C482.35,136.638,378.574,369.9,378.574,631.441c0,458.7,319.1,830.546,712.73,830.546s712.733-371.85,712.733-830.546C1804.037,369.9,1700.261,136.638,1538.113-15.6Z" transform="translate(-79.214 685.789)" fill-rule="evenodd" opacity="0.65" fill="url(#radial-gradient-11)" style="mix-blend-mode: screen;isolation: isolate"/>
  </g>
</svg>
