<?xml version="1.0" encoding="utf-8"?>
<!-- Generator: Adobe Illustrator 26.0.2, SVG Export Plug-In . SVG Version: 6.00 Build 0)  -->
<svg version="1.1" id="Layer_1" xmlns="http://www.w3.org/2000/svg" xmlns:xlink="http://www.w3.org/1999/xlink" x="0px" y="0px"
	 viewBox="0 0 612 792" style="enable-background:new 0 0 612 792;" xml:space="preserve">
<style type="text/css">
	.st0{font-family:'BubbleboddyNeueTrial-Bold';}
	.st1{font-size:112.6384px;}
</style>
<path d="M373.5,66.1c54.5,54.7,108.1,108.5,161.9,162.6c-0.8,0.9-1.6,2.1-2.6,3.1c-25.6,25.9-51.3,51.7-76.9,77.5
	c-4,4-8.3,7.7-12.1,11.9c-4.7,5.3-10.4,6.9-17.3,6.8c-29.7-0.2-59.3,0.1-89-0.1c-5.3,0-7,2-8.3,6.8c-4.7,17-9.7,33.9-14.9,50.7
	c-2.4,7.9-4.9,15.9-8.7,23.2c-4.3,8.3-12.7,11-19.6,7.9c-7.1-3.3-10.3-11.6-7.8-20.5c3.9-13.6,7.8-27.1,11.8-40.7
	c5.7-19.3,11.4-38.6,17.1-57.8c9.9-33.6,20-67.2,29.7-100.9c8.5-29.7,16.6-59.5,24.9-89.3C365.6,93.8,369.4,80.5,373.5,66.1z
	 M390.1,124.9c-16.6,58-32.9,115-49.3,172.2c25.8,0,51.5-0.1,77.1,0.1c4.9,0,8.4-1.5,11.8-5c17.9-18.6,35.8-37.1,54-55.4
	c8.7-8.7,8.8-8.3,0.1-16.9c-24.3-24.1-48.4-48.4-72.5-72.7C404.2,140.1,397.6,132.8,390.1,124.9z"/>
<path d="M283.6,123.5c6-19.3,12-38.6,17.9-57.9c3.4-11.1,6.6-22.3,10.1-33.4c1.6-5,4.3-9,10.4-9.2c6.7-0.2,11.7,2.8,14.8,8.4
	c3.4,6.2,3.7,13.1,1.8,19.9c-7.7,27.2-15.3,54.4-23.3,81.5c-4.8,16.4-10.3,32.6-15.4,48.9c-0.2,0.6-0.5,1.2-1.2,2.6
	c-3.3-3.3-6.4-6.3-9.3-9.3c-15.8-16.4-31.6-32.7-47.5-49.1c-1.5-1.5-3.1-3-4.8-4.3c-5.3-3.8-8.3-3.4-13,1.3
	c-15.2,15.2-30.6,30.3-45.8,45.6c-18.2,18.3-36.3,36.9-54.6,55.2c-3.3,3.3-1.2,5.1,1,7.3c12.3,12.2,24.6,24.3,36.8,36.6
	c18.6,18.7,37.2,37.6,55.8,56.4c1.7,1.7,3.6,3.3,6.3,5.7c7.9-24.4,15.6-47.7,23.6-72.4c4.2,4.5,7.8,8.2,11.2,11.9
	c3.7,4,7.7,7.9,11,12.2c1.3,1.8,2.1,5,1.5,7.1c-9.5,30.6-19.2,61.2-28.9,91.7c-0.9,2.8-1.6,5.6-2.5,8.7
	c-54.4-54.4-108.2-108.1-162.8-162.7c5.7-5.4,11.3-10.7,16.8-16.1c28.6-28.7,57.3-57.4,85.8-86.2c8.6-8.7,17.2-17.6,25.2-26.9
	c12.4-14.3,35.8-12.8,47.8-2.2c9.8,8.7,19,18.1,28.3,27.2c0.6,0.5,0.7,1.5,1.1,2.3C282.3,124,282.9,123.7,283.6,123.5z"/>
<text transform="matrix(1 0 0 1 22.8101 507.4297)" class="st0 st1">CODE PICH</text>
</svg>
