<?xml version="1.0" standalone="no"?>
<!DOCTYPE svg PUBLIC "-//W3C//DTD SVG 20010904//EN"
 "http://www.w3.org/TR/2001/REC-SVG-20010904/DTD/svg10.dtd">
<svg version="1.0" xmlns="http://www.w3.org/2000/svg"
 width="736.000000pt" height="736.000000pt" viewBox="0 0 736.000000 736.000000"
 preserveAspectRatio="xMidYMid meet">
<metadata>
Created by potrace 1.14, written by Peter Selinger 2001-2017
</metadata>
<g transform="translate(0.000000,736.000000) scale(0.100000,-0.100000)"
fill="#000000" stroke="none">
<path d="M3975 6990 c-52 -21 -80 -73 -125 -230 -12 -41 -29 -95 -37 -120 -8
-25 -17 -54 -19 -65 -2 -11 -12 -47 -23 -80 -11 -33 -45 -143 -76 -245 -31
-102 -59 -192 -62 -200 -3 -8 -7 -21 -9 -29 -1 -7 -18 -63 -37 -125 -20 -61
-45 -144 -57 -183 -13 -40 -26 -73 -29 -73 -3 0 -82 75 -176 168 -197 194
-266 255 -309 276 -28 13 -87 37 -93 38 -2 0 -24 5 -50 12 -60 15 -170 11
-233 -8 -51 -15 -126 -57 -160 -89 -19 -18 -73 -75 -120 -127 -164 -183 -1614
-1640 -1632 -1640 -5 0 483 -493 1086 -1096 603 -603 1098 -1095 1101 -1093 2
3 20 59 40 124 20 66 47 152 61 192 14 40 27 81 29 92 2 11 9 29 15 40 6 12 9
21 6 21 -3 0 9 39 25 88 17 48 32 96 34 107 3 11 9 29 14 40 5 11 13 34 17 50
10 41 8 34 54 180 101 318 132 421 132 430 -1 48 -29 90 -134 200 -31 33 -86
91 -122 130 l-65 69 -11 -29 c-7 -17 -13 -37 -15 -45 -2 -8 -37 -118 -79 -245
-41 -126 -81 -248 -87 -270 -7 -22 -15 -44 -18 -50 -3 -5 -6 -14 -7 -20 -1 -5
-23 -75 -49 -155 -26 -80 -48 -149 -50 -155 -3 -10 -1349 1337 -1365 1366 -6
10 -4 23 6 37 47 67 1385 1403 1422 1419 15 7 38 10 51 7 51 -11 82 -41 481
-454 235 -244 409 -420 414 -420 4 0 115 339 121 370 2 10 8 27 13 37 6 10 10
21 11 26 2 12 5 26 13 47 6 16 68 228 77 262 1 4 7 22 12 40 6 18 17 53 24 78
7 25 25 86 40 135 15 50 29 97 30 105 1 8 5 22 8 30 5 14 54 185 62 220 2 8
11 40 20 70 9 30 22 79 30 108 8 29 31 108 51 177 19 68 37 148 38 177 7 111
-55 231 -138 269 -43 19 -116 24 -151 9z"/>
<path d="M4571 6258 c-23 -84 -45 -160 -48 -168 -3 -8 -7 -20 -8 -26 -2 -5
-21 -76 -44 -157 -23 -80 -44 -154 -46 -164 -2 -10 -18 -67 -36 -128 -17 -60
-32 -114 -33 -120 -2 -5 -9 -30 -16 -55 -7 -25 -14 -52 -15 -60 -1 -8 -5 -22
-8 -30 -8 -20 -47 -159 -53 -187 -2 -12 -8 -33 -13 -45 -5 -13 -8 -25 -8 -28
0 -3 -8 -32 -18 -65 -9 -33 -19 -67 -20 -75 -2 -8 -18 -62 -35 -120 -17 -58
-33 -114 -34 -125 -2 -11 -4 -20 -5 -20 -2 0 -4 -7 -6 -15 -2 -8 -24 -87 -50
-175 -26 -88 -48 -164 -49 -170 -2 -5 -6 -17 -9 -25 -8 -21 -57 -190 -63 -219
-3 -13 -11 -39 -19 -57 -8 -19 -12 -34 -10 -34 1 0 -4 -21 -12 -47 -20 -65
-64 -216 -67 -228 -5 -19 -38 -131 -63 -210 -25 -82 -120 -405 -174 -595 -17
-58 -33 -112 -36 -120 -7 -17 -6 -12 -23 -70 -7 -25 -14 -49 -16 -55 -5 -22
-126 -441 -131 -455 -3 -8 -7 -19 -8 -25 -2 -5 -11 -37 -21 -70 -10 -33 -19
-64 -20 -70 -1 -5 -8 -32 -16 -60 -19 -64 -14 -144 12 -195 23 -46 92 -100
126 -100 13 0 25 -7 28 -17 3 -10 5 -225 5 -478 0 -253 0 -466 0 -472 1 -19
717 -19 723 0 2 6 3 50 3 97 l-1 85 -232 3 -232 2 2 117 3 117 208 0 c201 0
207 1 207 21 1 11 2 55 3 98 2 76 2 77 -23 78 -14 0 -108 2 -210 2 l-185 2 -3
93 -3 92 38 1 c21 0 121 1 223 2 l185 2 3 98 3 97 -28 1 c-15 0 -144 0 -287 0
l-259 0 21 22 c26 28 83 151 117 252 17 50 86 276 113 370 12 39 30 102 42
140 12 39 23 77 25 85 2 8 11 40 20 70 9 30 18 64 20 74 15 65 40 119 62 133
22 15 94 16 691 18 663 1 667 1 715 23 38 17 155 129 565 541 703 706 752 756
752 767 0 13 -2157 2184 -2171 2184 -3 0 -25 -69 -48 -152z m1082 -1461 c290
-292 528 -534 528 -539 1 -4 2 -14 4 -20 3 -24 -24 -56 -181 -215 -155 -157
-562 -575 -606 -623 -73 -80 -116 -94 -278 -92 -58 0 -293 1 -522 1 -462 1
-420 -5 -403 59 2 9 9 33 14 52 5 19 23 82 40 140 17 58 33 112 35 121 2 8 19
65 36 125 18 60 34 118 37 129 3 11 14 49 25 85 11 36 21 72 23 80 2 8 13 49
25 90 23 78 51 178 55 195 1 6 5 17 8 25 4 11 158 549 183 640 2 8 20 71 40
140 19 69 46 163 60 210 13 47 26 93 29 103 2 9 6 21 9 25 3 5 8 24 11 42 3
18 9 38 12 43 3 5 69 -57 147 -138 78 -81 378 -386 669 -678z"/>
<path d="M443 1729 c-156 -43 -272 -141 -331 -279 -55 -129 -55 -336 0 -458
12 -26 22 -49 22 -52 2 -12 64 -88 96 -118 50 -46 163 -100 247 -117 70 -15
229 -15 296 0 37 7 139 45 153 56 12 10 18 213 6 207 -4 -2 -29 -14 -57 -27
-87 -42 -157 -59 -236 -57 -134 4 -229 69 -274 190 -22 61 -28 194 -10 253 7
24 14 47 15 51 14 61 95 141 168 165 100 32 242 10 360 -55 18 -10 34 -18 37
-18 2 0 4 45 3 100 0 107 -1 109 -58 129 -19 7 -44 17 -55 22 -72 31 -283 36
-382 8z"/>
<path d="M1490 1739 c-57 -11 -167 -57 -199 -84 -104 -86 -150 -161 -178 -290
-14 -68 -18 -192 -8 -247 3 -16 7 -38 9 -50 15 -80 66 -179 125 -238 99 -99
228 -142 411 -136 269 9 439 147 487 396 8 38 7 228 0 272 -14 81 -81 205
-138 255 -17 15 -37 33 -43 38 -11 11 -95 53 -131 66 -73 27 -237 36 -335 18z
m241 -204 c71 -36 110 -95 136 -205 13 -56 8 -177 -10 -267 -4 -17 -40 -84
-57 -106 -46 -58 -150 -86 -246 -65 -74 16 -147 99 -170 195 -4 15 -8 73 -9
128 -5 184 56 295 185 338 30 10 139 -2 171 -18z"/>
<path d="M6878 1744 c-2 -1 -15 -4 -30 -6 -15 -2 -30 -7 -34 -11 -4 -4 -15 -7
-25 -7 -41 0 -119 -45 -194 -113 -71 -62 -118 -149 -143 -257 -8 -38 -8 -208
1 -263 15 -93 79 -205 157 -274 39 -34 131 -81 196 -99 84 -23 253 -27 334 -7
36 8 71 16 78 16 6 0 12 4 12 8 0 4 12 10 27 14 49 12 53 21 53 126 0 55 -2
99 -5 99 -2 0 -19 -8 -37 -18 -18 -10 -60 -29 -93 -42 -100 -38 -263 -32 -320
12 -56 44 -75 63 -97 105 -70 128 -55 333 33 435 58 68 114 91 224 92 98 1
149 -11 233 -56 29 -15 55 -28 57 -28 3 0 5 47 4 104 l-1 105 -31 12 c-111 44
-185 58 -299 57 -54 0 -99 -2 -100 -4z"/>
<path d="M2351 1725 c-5 -8 -8 -968 -2 -1008 0 -5 110 -7 244 -4 231 5 329 11
348 23 5 3 22 8 36 10 44 8 139 63 183 106 37 36 100 119 100 132 0 2 5 17 11
33 6 15 11 29 11 30 25 101 30 211 14 293 -30 156 -137 286 -285 344 -92 36
-206 47 -484 50 -103 0 -172 -3 -176 -9z m464 -206 c104 -24 164 -76 201 -174
30 -81 21 -214 -18 -290 -25 -47 -68 -86 -128 -113 -44 -20 -75 -26 -157 -30
l-103 -5 0 314 0 314 77 -2 c43 -2 101 -8 128 -14z"/>
<path d="M4978 1732 l-27 -3 0 -510 0 -509 129 0 c93 0 129 3 132 13 2 6 4 85
3 175 0 89 2 163 5 163 3 1 57 2 120 4 63 1 138 5 165 9 66 9 162 55 201 95
27 28 41 50 74 121 12 25 9 185 -3 221 -43 122 -151 199 -304 215 -56 7 -451
11 -495 6z m470 -209 c43 -21 64 -57 68 -117 2 -38 -2 -60 -16 -83 -31 -51
-69 -65 -184 -66 l-101 -2 0 143 0 143 101 -2 c67 -1 112 -6 132 -16z"/>
<path d="M5995 1732 c-20 -3 -20 -10 -18 -505 1 -276 2 -505 2 -509 1 -5 59
-8 129 -8 115 0 129 2 130 18 5 56 3 172 -2 181 -4 6 -4 11 1 11 9 0 8 93 0
107 -3 5 -2 15 2 22 5 7 5 27 1 45 -4 17 -4 40 0 51 4 11 4 30 -1 43 -5 12 -5
22 -1 22 4 0 6 48 4 107 -1 60 -3 114 -2 121 0 16 -1 137 -1 160 0 9 0 35 1
57 4 86 13 80 -113 80 -61 0 -121 -1 -132 -3z"/>
</g>
</svg>
