<svg id="وب" xmlns="http://www.w3.org/2000/svg" width="42.961" height="35.248" viewBox="0 0 42.961 35.248">
  <path id="Path_3559" data-name="Path 3559" d="M133.2,229.453a.6.6,0,0,0,.078-.146,2.726,2.726,0,0,1,2.668-2.085c.605-.022,1.2-.011,1.8,0,.493.011.751.247.74.661-.011.392-.28.628-.785.628-.583.011-1.177,0-1.76,0a1.466,1.466,0,0,0-1.491,1.357,2.533,2.533,0,0,0-.011.292v2.253h40.427c0-.9.056-1.794-.022-2.679a1.4,1.4,0,0,0-1.581-1.233H140.924c-.482-.011-.774-.269-.762-.661,0-.37.28-.605.74-.639h32.221a2.782,2.782,0,0,1,2.8,1.67,2.656,2.656,0,0,1,.224,1.054q.017,14.9.011,29.81a2.687,2.687,0,0,1-2.4,2.679q-.353.034-.706.034H144.232a3.8,3.8,0,0,1-.5-.022.63.63,0,0,1-.011-1.244,2.5,2.5,0,0,1,.5-.022h28.869c1.334,0,1.839-.5,1.839-1.861v-25.55h-40.45V259.41a1.509,1.509,0,0,0,1.738,1.738h4.361a1.563,1.563,0,0,1,.46.045.592.592,0,0,1,.482.65.581.581,0,0,1-.516.572,3.08,3.08,0,0,1-.46.022h-3.9c-2.018,0-2.657-.415-3.419-2.231Q133.189,244.852,133.2,229.453Z" transform="translate(-133.2 -227.2)" fill="#d5d5d5"/>
  <path id="Path_3560" data-name="Path 3560" d="M232.573,312.835c-.527-.168-1.043-.314-1.536-.493a.523.523,0,0,0-.661.157c-.392.426-.818.807-1.2,1.233-.1.112-.1.336-.135.5a.369.369,0,0,0,.056.2,2.826,2.826,0,0,1-.191,3,1.752,1.752,0,0,1-.83.762c-.987.325-1.233.919-1.2,1.928.022.841.213,1.334,1.031,1.6,1.144.37,1.334,1.446,1.536,2.41a3.021,3.021,0,0,1-.359,1.435.693.693,0,0,0,.224.908c.4.348.751.762,1.144,1.11.112.1.314.09.471.123.045.011.1-.034.157-.056,1.48-.5,1.48-.493,2.937.09a1.589,1.589,0,0,1,.874.852c.191.4.314.953.65,1.144s.9.022,1.345.09a1.194,1.194,0,0,0,1.5-.953c.359-1.155,1.424-1.368,2.366-1.592a2.774,2.774,0,0,1,1.435.336.763.763,0,0,0,1.009-.247c.325-.381.718-.706,1.054-1.087a1.018,1.018,0,0,0,.123-.5.346.346,0,0,0-.056-.2,2.905,2.905,0,0,1,.2-3.049,3.081,3.081,0,0,1,.628-.639.53.53,0,0,1,.224-.112c.975-.258,1.188-.886,1.166-1.85a1.527,1.527,0,0,0-1.031-1.659A2.649,2.649,0,0,1,244.132,315a5.322,5.322,0,0,0,.224-.717,1.3,1.3,0,0,0-.011-.549.634.634,0,0,1,.292-.8.606.606,0,0,1,.818.179,1.192,1.192,0,0,1,.269,1.1,4.648,4.648,0,0,1-.247.762,1.68,1.68,0,0,0,.011,1.581,1.2,1.2,0,0,0,.572.605c.336.146.65.325.975.482a1.274,1.274,0,0,1,.729,1.188q.017,1.177,0,2.354a1.256,1.256,0,0,1-.729,1.188,2.872,2.872,0,0,1-.527.258,1.813,1.813,0,0,0-1.244,1.379.961.961,0,0,0,0,.437c.123.415.269.818.4,1.233a1.217,1.217,0,0,1-.314,1.312c-.561.583-1.132,1.155-1.727,1.727a1.175,1.175,0,0,1-1.278.291,3.341,3.341,0,0,1-.594-.191,1.749,1.749,0,0,0-1.85.112.815.815,0,0,0-.3.314c-.213.381-.381.774-.594,1.155a1.237,1.237,0,0,1-1.155.7H235.5a1.275,1.275,0,0,1-1.188-.718c-.1-.191-.2-.37-.28-.561a1.65,1.65,0,0,0-1.155-1.144,1.082,1.082,0,0,0-.751-.034c-.359.146-.74.247-1.11.37a1.234,1.234,0,0,1-1.312-.3c-.583-.561-1.155-1.144-1.715-1.727a1.2,1.2,0,0,1-.3-1.278,3.345,3.345,0,0,1,.191-.594,1.772,1.772,0,0,0-.1-1.85.815.815,0,0,0-.314-.3c-.37-.2-.751-.381-1.121-.572a1.284,1.284,0,0,1-.74-1.222v-2.309a1.278,1.278,0,0,1,.751-1.211,3.269,3.269,0,0,1,.527-.258A1.78,1.78,0,0,0,228.1,316a.83.83,0,0,0-.022-.437c-.112-.4-.258-.8-.392-1.188a1.213,1.213,0,0,1,.3-1.312c.561-.583,1.132-1.155,1.715-1.727a1.218,1.218,0,0,1,1.312-.3,5.293,5.293,0,0,1,.594.2,1.627,1.627,0,0,0,1.614-.011,1.16,1.16,0,0,0,.583-.549c.146-.348.325-.684.5-1.02a1.229,1.229,0,0,1,1.144-.717q1.194-.017,2.388,0a1.247,1.247,0,0,1,1.155.706,3.9,3.9,0,0,1,.247.482,1.758,1.758,0,0,0,1.345,1.278,1.155,1.155,0,0,0,.516.022c.448-.123.874-.292,1.312-.426a.651.651,0,0,1,.863.381.634.634,0,0,1-.482.83c-.168.056-.348.112-.516.168-1.536.5-1.547.527-3-.157a2.192,2.192,0,0,1-.762-.774c-.258-.37-.359-.942-.7-1.155s-.874-.011-1.312-.078a1.225,1.225,0,0,0-1.536.975C234.647,312.364,233.5,312.42,232.573,312.835Z" transform="translate(-215.241 -299.763)" fill="#d5d5d5"/>
  <path id="Path_3561" data-name="Path 3561" d="M356.365,382.024c-.661-.661-1.289-1.278-1.906-1.906-.09-.09-.179-.179-.258-.269a.618.618,0,0,1,.022-.874.606.606,0,0,1,.863-.022c.886.863,1.771,1.749,2.635,2.635a.591.591,0,0,1-.022.9c-.852.863-1.7,1.727-2.579,2.579a.6.6,0,0,1-.9.022.62.62,0,0,1,.022-.93c.583-.605,1.177-1.188,1.771-1.783C356.118,382.282,356.219,382.17,356.365,382.024Z" transform="translate(-329.267 -361.788)" fill="#d5d5d5"/>
  <path id="Path_3562" data-name="Path 3562" d="M262.5,382.017l1.951,1.951a3.715,3.715,0,0,1,.292.3.618.618,0,0,1-.022.874.587.587,0,0,1-.863.022c-.9-.875-1.794-1.771-2.657-2.668a.584.584,0,0,1,.045-.875c.852-.863,1.7-1.727,2.579-2.579a.608.608,0,0,1,.9-.022.62.62,0,0,1-.011.931c-.538.561-1.1,1.11-1.659,1.659C262.886,381.759,262.706,381.86,262.5,382.017Z" transform="translate(-246.697 -361.837)" fill="#d5d5d5"/>
  <path id="Path_3563" data-name="Path 3563" d="M308.435,385.406c-.639.011-.942-.482-.718-.953.28-.605.594-1.2.9-1.794.538-1.076,1.065-2.141,1.6-3.218.235-.471.561-.628.919-.46.381.179.448.538.2,1.043q-1.211,2.438-2.433,4.866A2.71,2.71,0,0,1,308.435,385.406Z" transform="translate(-288.087 -361.907)" fill="#d5d5d5"/>
  <path id="Path_3564" data-name="Path 3564" d="M482.628,250.8a.629.629,0,0,1,.628.639.653.653,0,0,1-.65.628.638.638,0,0,1-.605-.628A.616.616,0,0,1,482.628,250.8Z" transform="translate(-442.896 -248.154)" fill="#d5d5d5"/>
  <path id="Path_3565" data-name="Path 3565" d="M436.753,251.414a.672.672,0,0,1-.639.65.623.623,0,0,1-.617-.65.605.605,0,0,1,.605-.617A.63.63,0,0,1,436.753,251.414Z" transform="translate(-401.606 -248.152)" fill="#d5d5d5"/>
  <path id="Path_3566" data-name="Path 3566" d="M459.471,250.8a.623.623,0,0,1,.65.617.654.654,0,0,1-.628.65.627.627,0,0,1-.617-.605A.589.589,0,0,1,459.471,250.8Z" transform="translate(-422.362 -248.152)" fill="#d5d5d5"/>
</svg>
