<svg xmlns="http://www.w3.org/2000/svg" width="46" height="44" viewBox="0 0 46 44">
  <g id="Group_8220" data-name="Group 8220" transform="translate(-1581 -3488)">
    <g id="Group_8215" data-name="Group 8215">
      <rect id="Rectangle_9963" data-name="Rectangle 9963" width="46" height="44" rx="13" transform="translate(1581 3488)"/>
      <g id="Group_308" data-name="Group 308" transform="translate(1588.727 3491.746)">
        <rect id="Rectangle_74" data-name="Rectangle 74" width="34.58" height="37.431" rx="17.29" transform="translate(0 0)" fill="#030504"/>
        <g id="Group_307" data-name="Group 307" transform="translate(0 2.897)">
          <path id="Path_4785" data-name="Path 4785" d="M350.631,353.79a9.235,9.235,0,0,0-1.84-4.08,9.542,9.542,0,0,0-4.86-3.352,10.92,10.92,0,0,0-3.215-.427q-5.775,0-11.551,0a9.92,9.92,0,0,0-4.961,1.22,9.386,9.386,0,0,0-3.209,2.9,8.947,8.947,0,0,0-1.258,2.436,9.52,9.52,0,0,0-.525,3.18q-.007,6.055,0,12.109a9.73,9.73,0,0,0,8.681,9.712c.177.02.37-.037.536.076H335.6c.1-.008.2-.024.3-.024,1.746,0,3.494,0,5.24-.006a9.436,9.436,0,0,0,4.505-1.123,9.294,9.294,0,0,0,3.061-2.538,9.562,9.562,0,0,0,2.061-5.164c0-.02.028-.039.043-.058V354.823A6.761,6.761,0,0,1,350.631,353.79Zm-2.2,13.754a7.919,7.919,0,0,1-.455,2.829,7.493,7.493,0,0,1-2.8,3.557,7.322,7.322,0,0,1-3.411,1.191c-.246.021-.493.038-.739.039q-6.031,0-12.062,0a7.314,7.314,0,0,1-7.106-5.389,6.627,6.627,0,0,1-.244-1.853c0-4.174-.016-8.349.008-12.523a6.9,6.9,0,0,1,1.793-4.565c.038-.044.068-.1.1-.143a7.785,7.785,0,0,1,2.509-1.76,7.035,7.035,0,0,1,2.755-.585c4.166,0,8.332-.007,12.5.009a6.951,6.951,0,0,1,4.564,1.727,7.154,7.154,0,0,1,2.383,3.9,6.608,6.608,0,0,1,.179,1.43C348.462,359.454,348.426,363.5,348.432,367.544Z" transform="translate(-319.207 -345.931)" fill="#f5a71f"/>
          <path id="Path_4786" data-name="Path 4786" d="M369.131,385.462a7.842,7.842,0,0,0-4.849-4.449,7.562,7.562,0,0,0-3.16-.362,8.489,8.489,0,0,0-2.184.484,7.631,7.631,0,0,0-3.12,2.156,7.982,7.982,0,0,0,10.031,12.187,7.838,7.838,0,0,0,3.142-3.425,7.111,7.111,0,0,0,.724-2.451A7.8,7.8,0,0,0,369.131,385.462Zm-3.071,6.684a5.538,5.538,0,0,1-6.508,1.532,5.4,5.4,0,0,1-3.3-4.689,5.542,5.542,0,0,1,4.906-5.9c.059-.007.118-.018.177-.026a5.83,5.83,0,0,1,2.706.475,5.57,5.57,0,0,1,3.252,5.693c-.01.084-.011.169-.017.255A5.96,5.96,0,0,1,366.06,392.146Z" transform="translate(-345.976 -372.793)" fill="#f5a71f"/>
          <path id="Path_4787" data-name="Path 4787" d="M421.356,371.691a2.089,2.089,0,1,1,2.081-2.084A2.055,2.055,0,0,1,421.356,371.691Z" transform="translate(-396.692 -362.645)" fill="#f5a71f"/>
        </g>
      </g>
    </g>
  </g>
</svg>
