<svg xmlns="http://www.w3.org/2000/svg" width="44" height="44" viewBox="0 0 44 44">
  <g id="Group_8142" data-name="Group 8142" transform="translate(-1372.635 -2012.635)">
    <circle id="Ellipse_549" data-name="Ellipse 549" cx="22" cy="22" r="22" transform="translate(1372.635 2012.635)" fill="#fff"/>
    <g id="تماس" transform="translate(1381.017 2021.646)">
      <path id="Path_18714" data-name="Path 18714" d="M209.357,265.625a13.219,13.219,0,0,1-4.445-.951,23.575,23.575,0,0,1-6.13-3.6,36.48,36.48,0,0,1-8.067-8.714,18.844,18.844,0,0,1-2.626-5.9,8.874,8.874,0,0,1-.283-2.6,1.846,1.846,0,0,1,.555-1.212q2-2.021,4.026-4.025c.3-.3.575-.267.794.1q1.725,2.918,3.444,5.84a.906.906,0,0,1-.164,1.175c-.508.518-1.014,1.039-1.539,1.54a1.725,1.725,0,0,0-.478,1.933,10.418,10.418,0,0,0,1.728,3.116A24.277,24.277,0,0,0,202.2,258a7.869,7.869,0,0,0,2.247,1.028,1.588,1.588,0,0,0,1.6-.439c.461-.442.905-.9,1.357-1.348a.974.974,0,0,1,1.278-.182l5.835,3.1c.071.038.142.074.21.114.315.189.362.443.1.7-1.367,1.373-2.73,2.75-4.112,4.108A1.813,1.813,0,0,1,209.357,265.625Z" transform="translate(-187.793 -238.417)"/>
      <path id="Path_18715" data-name="Path 18715" d="M280.01,243.18v-1.93c.365.022.726.031,1.086.069a15.622,15.622,0,0,1,12.385,9.7,13.579,13.579,0,0,1,.958,4.552c0,.039,0,.078,0,.147-.117.006-.224.015-.331.017-.454,0-.91-.007-1.364,0-.175,0-.236-.05-.247-.225a12.458,12.458,0,0,0-1.632-5.459,13.177,13.177,0,0,0-9.043-6.6C281.235,243.333,280.631,243.273,280.01,243.18Z" transform="translate(-267.204 -240.857)"/>
      <path id="Path_18716" data-name="Path 18716" d="M290.01,284.026c-.632,0-1.243,0-1.855-.007-.047,0-.126-.1-.132-.165a8.789,8.789,0,0,0-6.145-7.441c-.575-.174-1.174-.272-1.787-.411V274.12A10.705,10.705,0,0,1,290.01,284.026Z" transform="translate(-267.272 -269.162)"/>
      <path id="Path_18717" data-name="Path 18717" d="M285.327,312.09c-.51,0-1.018.006-1.525-.008-.05,0-.121-.108-.142-.178a5.03,5.03,0,0,0-2.626-3.152c-.287-.149-.605-.235-.905-.36-.065-.028-.158-.1-.16-.154-.013-.508-.007-1.018-.007-1.528A6.116,6.116,0,0,1,285.327,312.09Z" transform="translate(-267.161 -297.226)"/>
    </g>
  </g>
</svg>
