<svg xmlns="http://www.w3.org/2000/svg" width="46" height="44.146" viewBox="0 0 46 44.146">
  <g id="Group_8221" data-name="Group 8221" transform="translate(-1581 -3547)">
    <rect id="Rectangle_9962" data-name="Rectangle 9962" width="46" height="44" rx="13" transform="translate(1581 3547)"/>
    <g id="Group_3117" data-name="Group 3117" transform="translate(1582.365 3547.841)">
      <g id="Group_8216" data-name="Group 8216">
        <ellipse id="Ellipse_311" data-name="Ellipse 311" cx="19.779" cy="19.779" rx="19.779" ry="19.779" transform="translate(1.234 1.276)" fill="#0288a9"/>
        <g id="Group_304" data-name="Group 304">
          <path id="Path_4777" data-name="Path 4777" d="M-235.53,591.54q3.435,1.158,6.871,2.309a.346.346,0,0,0,.253-.044c.835-.51,1.666-1.028,2.5-1.543q5.759-3.567,11.519-7.13a8.835,8.835,0,0,1,.916-.486.3.3,0,0,1,.383.069.428.428,0,0,1-.029.477,3.56,3.56,0,0,1-.311.331q-3.555,3.317-7.113,6.632-2.205,2.055-4.409,4.112a.467.467,0,0,0-.145.228c-.073.391-.13.785-.192,1.177q-.3,1.87-.592,3.742c-.037.233-.068.467-.1.7l.044.023,4.265-3.885c.053.038.095.065.135.1l4.406,3.379q1.279.981,2.559,1.959c.395.3.739.19.824-.252q.314-1.637.634-3.272.628-3.215,1.258-6.431.754-3.866,1.506-7.732.524-2.695,1.049-5.389c.011-.058.016-.118.03-.225l-26.377,11.1C-235.574,591.522-235.553,591.533-235.53,591.54Z" transform="translate(242.528 -570.439)"/>
          <path id="Path_4778" data-name="Path 4778" d="M-242.339,539.4a21.652,21.652,0,0,0-21.652,21.653A21.652,21.652,0,0,0-242.339,582.7a21.652,21.652,0,0,0,21.652-21.652A21.652,21.652,0,0,0-242.339,539.4Zm13.834,11.305c-.3,1.613-.625,3.222-.94,4.833q-.757,3.866-1.513,7.732t-1.5,7.714c-.139.713-.261,1.429-.422,2.136a2.582,2.582,0,0,1-1.463,1.806,3.013,3.013,0,0,1-2.727-.028,6.5,6.5,0,0,1-1.02-.751q-2.384-1.828-4.767-3.658c-.044-.034-.092-.063-.148-.1l-1.39,1.265c-.658.6-1.325,1.191-1.972,1.8a1.9,1.9,0,0,1-2.977-.468,10.117,10.117,0,0,1-.7-1.876c-.639-2.075-1.271-4.152-1.913-6.226a.348.348,0,0,0-.2-.183c-1.877-.637-3.757-1.263-5.633-1.9a3.123,3.123,0,0,1-1.674-1.211,2.05,2.05,0,0,1,.624-2.949,7.213,7.213,0,0,1,1.28-.648q5.745-2.433,11.5-4.851,3.857-1.623,7.716-3.24l6.459-2.715a3.182,3.182,0,0,1,1.732-.3,2.147,2.147,0,0,1,1.873,2.184A9.364,9.364,0,0,1-228.505,550.7Z" transform="translate(263.991 -539.395)"/>
        </g>
      </g>
    </g>
  </g>
</svg>
