<svg id="یو_آِ" data-name="یو آِ" xmlns="http://www.w3.org/2000/svg" width="41.68" height="42.099" viewBox="0 0 41.68 42.099">
  <path id="Path_3567" data-name="Path 3567" d="M108.038,140.211c.582-1.9,1.647-2.8,3.319-2.812,1.585-.012,2.688.917,3.295,2.812.136.012.3.025.446.025,3.357,0,6.7,0,10.057.012a.53.53,0,0,0,.595-.409A2.728,2.728,0,0,1,131,140.88a2.726,2.726,0,0,1-5.239,1.078c-.05-.124-.111-.26-.161-.4-.136,0-.26-.012-.372-.012h-6.4a18.754,18.754,0,0,1,11.036,14.813c.173,0,.359-.012.557,0a1.674,1.674,0,0,1,1.746,1.759c.025.681.012,1.362,0,2.044a1.677,1.677,0,0,1-1.87,1.858c-.483-.012-.644.124-.756.595a18.591,18.591,0,0,1-15.2,14.479.6.6,0,0,0-.161.05c0,.186.012.4,0,.607a1.687,1.687,0,0,1-1.808,1.746h-1.994a1.693,1.693,0,0,1-1.858-1.833v-.458c-1.152-.322-2.291-.545-3.369-.954a18.352,18.352,0,0,1-12.064-13.785c-.074-.322-.186-.446-.545-.446-1.449.012-2.044-.607-2.044-2.056v-1.759a1.657,1.657,0,0,1,1.759-1.821c.471,0,.595-.149.669-.607a18.429,18.429,0,0,1,10.156-13.822c.2-.1.409-.2.743-.359H97.015a2.746,2.746,0,1,1-3.394-3.344,2.69,2.69,0,0,1,3.257,1.61c.1.235.173.372.483.372,3.48-.012,6.948-.012,10.429-.012A.813.813,0,0,0,108.038,140.211Zm-13.7,21.824a17.3,17.3,0,0,0,5.834,9.884,16.939,16.939,0,0,0,8.3,3.852c.025-.161.05-.26.062-.372a1.636,1.636,0,0,1,1.771-1.523c.743,0,1.486-.012,2.229,0a1.616,1.616,0,0,1,1.61,1.375c.025.173.05.359.074.533A17.165,17.165,0,0,0,128.3,162.071c-.136-.025-.272-.05-.4-.074a1.49,1.49,0,0,1-1.325-1.35,22.826,22.826,0,0,1,0-2.911,1.5,1.5,0,0,1,1.3-1.313c.211-.037.409-.062.632-.087-.037-.26-.062-.5-.1-.718a17.256,17.256,0,0,0-13.389-13.884c-.384-.087-.52,0-.694.347a3.263,3.263,0,0,1-5.982-.074c-.062-.124-.111-.248-.161-.372A17.16,17.16,0,0,0,94.24,156.312c.037.012.087.025.124.037a1.707,1.707,0,0,1,1.833,1.957v1.672C96.2,161.291,95.7,161.861,94.34,162.034Zm15.036-21.353a1.97,1.97,0,0,0,2.006,1.982,1.948,1.948,0,0,0,1.957-1.932,1.968,1.968,0,0,0-1.92-2.019A2.007,2.007,0,0,0,109.376,140.681Zm3.48,36.03c0-.359-.012-.706,0-1.065a.414.414,0,0,0-.471-.483H110.3c-.31,0-.446.161-.446.458v2.18a.374.374,0,0,0,.421.421h2.13c.31,0,.446-.161.446-.458C112.844,177.417,112.856,177.07,112.856,176.711Zm-19.5-16c.334,0,.681-.012,1.016,0s.5-.124.483-.458c0-.694-.012-1.387,0-2.081,0-.31-.124-.458-.434-.458H92.3c-.285,0-.434.124-.434.421v2.18c0,.3.149.409.434.409C92.655,160.709,93,160.709,93.361,160.709Zm35.956-3c-.322,0-.644.012-.966,0-.347-.012-.52.124-.508.483q.019,1.022,0,2.044c0,.322.124.483.458.483.694,0,1.387-.012,2.081,0,.31,0,.458-.124.458-.434v-2.13c0-.322-.161-.446-.458-.434C130.023,157.712,129.676,157.712,129.317,157.712Zm-.954-15.371a1.419,1.419,0,0,0,1.412-1.412,1.476,1.476,0,0,0-1.449-1.449,1.449,1.449,0,0,0-1.424,1.462A1.4,1.4,0,0,0,128.363,142.341Zm-32.574-1.424a1.415,1.415,0,0,0-1.437-1.437,1.459,1.459,0,0,0-1.437,1.462,1.437,1.437,0,0,0,2.873-.025Z" transform="translate(-90.5 -137.399)" fill="#d5d5d5"/>
  <path id="Path_3568" data-name="Path 3568" d="M213.055,223.439c1.226.223,1.523.582,1.523,1.808,0,.681.012,1.362,0,2.044a1.315,1.315,0,0,1-1.486,1.474H203.27a1.334,1.334,0,0,1-1.511-1.511V225.21c0-1.189.334-1.585,1.536-1.784-.347-.892-.681-1.771-1.028-2.651-.334-.842-.656-1.7-.991-2.539a2.586,2.586,0,0,1,.124-2.316q3.065-5.629,6.143-11.246a1.128,1.128,0,0,1,.656-.483c.347-.087.545.211.694.5q3.084,5.648,6.156,11.3a2.522,2.522,0,0,1,.1,2.267c-.632,1.536-1.251,3.084-1.87,4.632A5.229,5.229,0,0,0,213.055,223.439Zm-5.487-15.99a2.584,2.584,0,0,0-.186.3c-1.6,2.935-3.2,5.883-4.806,8.819a1.325,1.325,0,0,0-.025,1.2q1.059,2.694,2.093,5.388a.442.442,0,0,0,.508.334q3.084-.019,6.168,0a.465.465,0,0,0,.508-.347c.694-1.808,1.4-3.629,2.118-5.425a1.366,1.366,0,0,0-.087-1.239c-1.573-2.873-3.121-5.747-4.694-8.62a3.394,3.394,0,0,0-.248-.347v6.441c1.883.867,2.663,2.068,2.353,3.6a3.073,3.073,0,0,1-5.982.211,2.915,2.915,0,0,1,.136-1.945,3.188,3.188,0,0,1,2.155-1.845C207.568,211.821,207.568,209.7,207.568,207.449Zm-4.4,17.365v2.638H213.3v-2.638Zm3.307-7.877a1.734,1.734,0,1,0,1.771-1.709A1.766,1.766,0,0,0,206.478,216.937Z" transform="translate(-187.367 -195.906)" fill="#d5d5d5"/>
</svg>
