<svg xmlns="http://www.w3.org/2000/svg" width="46" height="44" viewBox="0 0 46 44">
  <g id="Group_8222" data-name="Group 8222" transform="translate(-1581 -3605)">
    <g id="Group_8217" data-name="Group 8217">
      <rect id="Rectangle_9961" data-name="Rectangle 9961" width="46" height="44" rx="13" transform="translate(1581 3605)"/>
      <g id="Group_3119" data-name="Group 3119" transform="translate(1583.385 3606.231)">
        <rect id="Rectangle_7161" data-name="Rectangle 7161" width="37.283" height="37.283" rx="7" transform="translate(1.748 1.633)" fill="#fff"/>
        <g id="Group_305" data-name="Group 305" transform="translate(0 0)">
          <path id="Path_4779" data-name="Path 4779" d="M141.109,135.727l-4.685-6.7q-1.813-2.595-3.625-5.19-1.853-2.651-3.708-5.3-1.709-2.445-3.415-4.893a.2.2,0,0,0-.2-.1q-1.689,0-3.377,0c-.048,0-.1,0-.158.008a.7.7,0,0,0,.034.066q.961,1.376,1.923,2.751,1.22,1.744,2.441,3.487,1.276,1.825,2.55,3.651,1.237,1.769,2.475,3.538,1.364,1.951,2.725,3.9,1.079,1.544,2.16,3.087,1.254,1.794,2.5,3.592a.275.275,0,0,0,.256.142c.667-.008,1.334,0,2,0h1.514c-.031-.048-.043-.068-.057-.088Z" transform="translate(-110.988 -104.981)"/>
          <path id="Path_4780" data-name="Path 4780" d="M102.375,75.134H84.465A11.678,11.678,0,0,0,72.787,86.812v17.91A11.678,11.678,0,0,0,84.465,116.4h17.91a11.678,11.678,0,0,0,11.678-11.678V86.812A11.678,11.678,0,0,0,102.375,75.134Zm5.084,34.506q-3.9,0-7.793,0a.24.24,0,0,1-.221-.122q-1.083-1.58-2.168-3.158l-2.2-3.206L92.2,98.969c-.02-.029-.043-.054-.075-.1l-.771.894-3.024,3.515-2.714,3.16Q84.28,108,82.94,109.551a.234.234,0,0,1-.146.085c-.759.005-1.517,0-2.325,0l10.6-12.32L80.47,81.893h.192q3.866,0,7.733,0a.264.264,0,0,1,.249.127q1.973,2.883,3.951,5.763,1.456,2.12,2.914,4.237c.014.02.032.037.058.066.222-.256.438-.5.652-.753l3.859-4.489q2.079-2.418,4.157-4.837a.286.286,0,0,1,.244-.114c.687,0,1.375,0,2.063,0h.187l-.574.666L103,86.226l-5.8,6.745c-.162.189-.32.383-.491.564-.081.086-.068.144-.007.233q.938,1.355,1.868,2.715l2.677,3.9q1.374,2,2.748,4l3.021,4.4c.189.276.381.551.585.847C107.543,109.633,107.5,109.64,107.459,109.64Z" transform="translate(-72.787 -75.134)"/>
        </g>
      </g>
    </g>
  </g>
</svg>
