<?xml version="1.0" encoding="utf-8"?>
<!DOCTYPE svg PUBLIC "-//W3C//DTD SVG 1.1//EN" "http://www.w3.org/Graphics/SVG/1.1/DTD/svg11.dtd">
<svg version="1.1" id="Layer_1" xmlns="http://www.w3.org/2000/svg" xmlns:xlink="http://www.w3.org/1999/xlink" x="0px" y="0px"
	 width="487.102px" height="556.75px" viewBox="0 0 487.102 556.75">
<g fill="#5B5B5B">
	<path d="M480.694,430.834c-3.54,0-6.409,2.869-6.409,6.409c0,3.539,2.869,6.409,6.409,6.409
		c3.539,0,6.409-2.87,6.409-6.409C487.104,433.703,484.233,430.834,480.694,430.834z M480.693,442.882
		c-3.113,0-5.638-2.523-5.638-5.639c0-3.113,2.523-5.639,5.638-5.639s5.639,2.524,5.639,5.639S483.808,442.882,480.693,442.882z"/>
	<path d="M483.927,435.49c0-0.685-0.254-1.189-0.758-1.521c-0.504-0.33-1.271-0.498-2.309-0.498v-0.001h-2.71v7.334
		h1.229v-3.186h1.564l1.534,3.186h1.373l-1.644-3.357c0.527-0.095,0.947-0.313,1.256-0.658
		C483.773,436.441,483.927,436.01,483.927,435.49z M482.197,436.526c-0.303,0.189-0.814,0.289-1.529,0.289h-1.293v-2.539h1.258
		c0.709,0,1.227,0.104,1.538,0.311c0.321,0.205,0.479,0.539,0.479,0.998C482.65,436.022,482.498,436.335,482.197,436.526z"/>
	<path d="M249.326,550.44l3.354-3.772c3.16,3.239,7.592,5.334,12.147,5.334c4.31,0,9.195-1.944,9.195-6.961
		c0-4.24-3.632-5.844-6.974-7.39c-1.5-0.694-8.776-3.651-10.658-4.911c-3.041-2.036-4.924-5.222-4.924-8.909
		c0-7.354,7.248-11.32,13.828-11.32c4.817,0,9.594,1.853,13.021,5.272l-3.021,3.514c-2.755-2.582-6.216-4.033-10-4.033
		c-3.859,0-8.188,1.793-8.188,6.244c0,3.909,3.841,5.707,6.982,6.964c1.549,0.62,8.836,3.635,10.729,4.902
		c3.165,2.121,4.91,5.416,4.91,9.219c0,8.081-8.433,12.156-14.97,12.156C259.014,556.749,253.385,554.553,249.326,550.44z"/>
	<path d="M7.679,490.041C2.123,483.117,0,474.17,0,465.438c0-8.804,2.268-17.771,7.886-24.716
		c5.672-7.012,14.282-10.792,23.248-10.792c7.456,0,14.575,3.208,19.68,8.646l-6.456,7.809c-3.515-3.516-7.851-5.933-12.911-5.933
		c-5.919,0-11.278,2.961-14.598,7.836c-3.337,4.901-4.456,11.009-4.456,16.845c0,5.932,0.947,12.178,4.292,17.209
		c3.296,4.959,8.512,7.676,14.45,7.676c5.775,0,10.705-2.827,14.577-6.978l6.456,7.6C49.434,493.786,39.709,500,30,500
		C16.176,500,10.488,493.541,7.679,490.041z M56.211,473.764c0-6.604,1.8-13.252,6.083-18.396c4.466-5.362,11.21-8.47,18.178-8.47
		c6.874,0,13.559,2.971,18.014,8.229c4.399,5.194,6.351,11.906,6.351,18.635c0,7.231-2.283,14.515-7.392,19.786
		c-4.748,4.896-11.207,6.979-16.973,6.979c-5.609,0-11.88-1.736-16.546-6.986C59.075,488.085,56.211,481.652,56.211,473.764z
		 M92.551,473.766c0-7.541-3.029-17.074-12.079-17.074c-9.044,0-11.975,9.565-11.975,17.074c0,7.489,2.988,16.977,11.975,16.977
		C89.465,490.741,92.551,481.287,92.551,473.766C92.551,466.225,92.551,481.287,92.551,473.766z M111.692,499.278v-51.125h9.893
		l0.833,9.059h0.416c1.962-3.62,4.72-6.86,8.422-8.773c3.498-1.809,8.256-2.219,11.883-0.488l-2.083,10.41
		c-3.862-1.18-7.555-1.149-11.03,1.086c-3.105,1.997-4.986,5.256-6.36,8.6v31.234L111.692,499.278L111.692,499.278L111.692,499.278
		L111.692,499.278z M149.862,492.769c-4.737-5.157-6.637-12.123-6.637-19.003c0-6.644,1.891-13.314,6.18-18.49
		c4.235-5.11,10.675-8.376,17.352-8.376c15.85,0,23.799,15.753,20.618,30.091h-32.486c0.993,8.204,6.531,14.263,15.097,14.263
		c4.292,0,8.269-1.477,11.87-3.748l4.062,7.496c-5.172,3.4-12.867,5.527-17.495,5.527
		C161.467,500.528,154.614,497.943,149.862,492.769z M154.783,468.874h22.7c0-3.957-0.852-7.063-2.551-9.318
		c-1.701-2.256-4.321-3.385-7.862-3.385c-3.274,0-6.352,1.388-8.573,3.788C156.252,462.386,155.212,465.655,154.783,468.874
		L154.783,468.874z M199.018,496.674c-1.736-2.567-2.604-6.072-2.604-10.516v-54.888h11.976v55.513c0,1.18,0.146,2.476,1.073,3.307
		c0.94,0.843,2.261,0.767,3.405,0.441l1.562,8.955c-1.598,0.692-4.723,1.042-6.353,1.042
		C203.773,500.528,200.754,499.243,199.018,496.674z M222.742,499.278v-68.102h18.222c10.413,0,18.534,2.813,24.366,8.438
		c5.83,5.623,8.746,14.059,8.746,25.303c0,8.86-1.943,18.243-8.059,24.99c-6.211,6.854-15.436,9.374-24.428,9.374L222.742,499.278
		L222.742,499.278L222.742,499.278z M234.822,489.491h5.31c6.942,0,12.271-1.996,15.983-5.986c3.714-3.992,5.57-10.188,5.57-18.588
		c0-8.328-1.875-14.404-5.623-18.221c-3.748-3.818-9.061-5.729-15.932-5.729h-5.31L234.822,489.491L234.822,489.491z
		 M282.805,499.278v-68.102h23.014c6.172,0,12.947,0.87,18.061,4.611c5.016,3.672,6.932,9.58,6.932,15.59
		c0,4.163-0.81,8.451-3.209,11.931c-2.482,3.6-6.219,6.146-10.327,7.54l16.243,28.43h-13.536l-14.683-26.656h-10.412v26.656H282.805
		L282.805,499.278L282.805,499.278L282.805,499.278z M294.885,463.042h9.685c4.649,0,8.209-0.971,10.674-2.914
		s3.692-4.859,3.692-8.746c0-3.957-1.229-6.699-3.692-8.227c-2.465-1.528-6.022-2.291-10.674-2.291h-9.685V463.042L294.885,463.042z
		 M356.613,471.374h17.389c0,0-7.566-27.075-8.539-30.825h-0.416C364.074,444.367,356.613,471.374,356.613,471.374z
		 M336.205,499.278l22.178-68.102h14.162l22.178,68.102H382.02l-5.312-18.434h-22.907l-5.31,18.434H336.205z M402.826,499.278
		l-13.535-68.102h12.391c0,0,8.713,52.518,9.271,56.123h0.416c0.765-3.605,12.806-56.123,12.806-56.123h10.521
		c0,0,12.144,52.445,12.907,56.12h0.418c0.558-3.678,9.162-56.123,9.162-56.123h11.562l-13.019,68.101h-14.992
		c0,0-11.037-48.903-11.453-51.537h-0.418c-0.484,2.637-11.35,51.537-11.35,51.537L402.826,499.278L402.826,499.278z"/>
	<path d="M9.631,550.467c-3.749-4.354-5.16-10.203-5.16-15.838c0-5.64,1.505-11.415,5.283-15.733
		c3.749-4.283,9.295-6.386,14.919-6.386c4.782,0,9.349,1.813,12.685,5.269l-3.088,3.516c-2.598-2.622-5.772-4.033-9.463-4.033
		c-4.279,0-8.359,1.687-10.991,5.133c-2.625,3.438-3.574,7.855-3.574,12.107c0,4.271,0.831,8.759,3.414,12.262
		c2.649,3.594,6.84,5.238,11.217,5.238c2.745,0,5.804-0.688,7.92-2.538v-11.125h-9.329v-4.487h14.431v17.954
		c-1.433,1.434-3.312,2.613-5.639,3.548c-2.325,0.934-5.378,1.398-7.918,1.398C21.43,556.75,13.307,554.735,9.631,550.467z
		 M48.434,555.969v-42.678h13.76c3.773,0,7.934,0.447,11.108,2.666c3.079,2.155,4.329,5.656,4.329,9.305
		c0,3.341-0.895,6.007-2.685,8.002c-1.79,1.996-4.206,3.361-7.249,4.103l11.209,18.604h-6.309l-10.605-18.021h-7.987v18.021
		L48.434,555.969L48.434,555.969L48.434,555.969z M54.005,533.524h7.383c3.446,0,6.086-0.688,7.92-2.051
		c1.835-1.363,2.752-3.438,2.752-6.215c0-2.816-0.917-4.793-2.752-5.92c-1.834-1.129-4.474-1.689-7.92-1.689h-7.383V533.524z
		 M91.861,538.598h13.222c0,0-5.794-18.409-6.509-20.883h-0.269C97.634,520.188,91.861,538.598,91.861,538.598z M80.518,555.969
		l14.9-42.678h6.31l14.9,42.678h-5.974l-4.162-13.012H90.45l-4.228,13.012H80.518z M120.856,555.969v-42.678h12.552
		c4.038,0,8.518,0.434,11.948,2.761c3.267,2.235,4.563,5.964,4.563,9.793c0,3.854-1.354,7.571-4.496,9.953
		c-3.321,2.513-7.675,3.252-11.747,3.252h-7.248v16.914h-5.572V555.969L120.856,555.969L120.856,555.969L120.856,555.969z
		 M126.428,534.629h6.577c3.849,0,6.7-0.703,8.558-2.113c1.856-1.407,2.786-3.633,2.786-6.668c0-3.079-0.974-5.217-2.921-6.404
		c-1.946-1.193-4.843-1.789-8.691-1.789h-6.309V534.629z M156.831,555.969v-42.678h5.572v17.891h20.472v-17.891h5.638v42.678h-5.638
		v-20.102h-20.471v20.102H156.831z M200.594,555.969v-42.678h5.571v42.678H200.594z M218.549,550.229
		c-3.562-4.35-4.865-10.084-4.865-15.602c0-5.516,1.396-11.167,4.96-15.494c3.591-4.359,8.973-6.625,14.573-6.625
		c4.577,0,8.947,1.921,12.082,5.271l-3.021,3.515c-2.392-2.497-5.508-4.033-8.993-4.033c-4.246,0-8.165,1.886-10.62,5.385
		c-2.405,3.427-3.208,7.738-3.208,11.855c0,4.165,0.81,8.496,3.161,12.009c2.374,3.547,6.218,5.491,10.466,5.491
		c4.073,0,7.453-1.896,10.202-4.813l3.088,3.384c-3.519,3.934-7.697,6.176-15.072,6.176
		C228.527,556.749,222.073,554.532,218.549,550.229z M298.992,550.441l3.354-3.772c3.16,3.239,7.592,5.334,12.147,5.334
		c4.31,0,9.195-1.943,9.195-6.961c0-4.24-3.632-5.844-6.974-7.39c-1.5-0.694-8.776-3.651-10.658-4.911
		c-3.041-2.036-4.924-5.221-4.924-8.909c0-7.354,7.248-11.32,13.828-11.32c4.817,0,9.594,1.853,13.021,5.272l-3.021,3.514
		c-2.755-2.582-6.216-4.033-10-4.033c-3.859,0-8.188,1.793-8.188,6.244c0,3.909,3.841,5.707,6.982,6.964
		c1.549,0.62,8.836,3.635,10.729,4.902c3.165,2.121,4.909,5.416,4.909,9.219c0,8.081-8.848,12.156-14.969,12.156
		C308.68,556.75,303.051,554.554,298.992,550.441z M339.418,551.571c-2.854-3.756-3.574-8.637-3.574-13.23v-25.047h5.57v25.178
		c0,3.229,0.395,6.647,2.135,9.448c1.768,2.845,4.875,4.083,8.137,4.083c3.291,0,6.445-1.222,8.256-4.083
		c1.763-2.787,2.146-6.222,2.146-9.448v-25.178h5.371v25.047c0,4.502-0.688,9.256-3.396,12.99
		c-2.879,3.972-9.104,5.419-12.381,5.419C348.676,556.75,342.322,555.391,339.418,551.571z M377.321,555.969v-42.678h5.569v42.678
		H377.321z M402.088,555.969v-38.125h-13.289v-4.553h32.219v4.553h-13.291v38.125H402.088z M428.938,555.969v-42.678h25.369v4.553
		h-19.801v13.402h16.713v4.621h-16.713v15.479h20.475v4.619L428.938,555.969L428.938,555.969z"/>
	<polygon points="266.125,379.641 220.976,379.641 215.333,345.779 271.768,345.779 	"/>
	<path d="M242.76,326.749h-5.523c-22.381-74.367-35.433-138.442-38.373-189.717
		c-4.243-74.027,10.883-121.378,35.109-134.505c2.256-1.224,4.775-2.175,8.787-2.237c4.009,0.063,6.529,1.019,8.785,2.237
		c24.23,13.13,39.357,60.496,35.105,134.554c-2.943,51.267-15.994,115.324-38.367,189.668H242.76z M222.219,0
		c0,0-65.877,24.934-61.136,120.833c4.742,95.896,70.267,205.863,70.267,205.863C191.011,290.906,131.264,179.41,130.112,113.8
		c0.889-69.229,46.488-97.251,59.392-103.396C202.408,4.25,216.077,0.261,222.219,0z M164.689,16.852
		c0,0-70.765,29.148-56.771,113.304c13.995,84.149,88.464,173.957,110.58,193.031c7.931,7.271-91.391-103.591-101.021-200.967
		C112.868,85.456,123.612,44.703,164.689,16.852z M322.414,16.852c0,0,70.764,29.148,56.77,113.304
		c-13.995,84.149-88.465,173.957-110.582,193.031c-7.928,7.271,91.396-103.591,101.021-200.967
		C374.233,85.456,363.491,44.703,322.414,16.852z M264.57,0c0,0,65.878,24.934,61.136,120.833
		c-4.741,95.896-70.269,205.863-70.269,205.863c40.34-35.79,100.087-147.286,101.236-212.896
		c-0.887-69.229-46.483-97.251-59.391-103.396C284.381,4.25,270.711,0.261,264.57,0z"/>
</g>
</svg>
